<svg width="49" height="48" viewBox="0 0 49 48" fill="none" xmlns="http://www.w3.org/2000/svg">
<path d="M23.4103 0.00477219C13.9596 0.280342 5.35602 6.23064 1.78394 14.9877C0.457172 18.2639 -0.0735364 21.1421 0.00811112 24.7347C0.0387289 26.4086 0.0795527 26.7964 0.222436 27.0209C0.549026 27.5108 1.30426 27.5006 1.54921 27.0005C1.66147 26.776 1.66147 26.4494 1.57983 25.3471C1.50838 24.3673 1.51859 23.5406 1.60024 22.4893C2.46774 11.9462 10.3773 3.4341 20.8282 1.80109C22.4612 1.54593 25.9516 1.54593 27.4927 1.80109C33.2284 2.75028 38.362 5.67949 41.8218 9.98657C42.9547 11.4052 44.7203 14.2324 44.557 14.3855C44.5264 14.4161 43.914 14.1201 43.1894 13.7221C41.7096 12.9056 41.3626 12.8341 41.0258 13.2628C40.7604 13.5996 40.7502 13.9262 40.9951 14.1916C41.2707 14.508 46.19 17.182 46.4859 17.182C46.8942 17.182 47.1289 17.0085 47.231 16.5901C47.3432 16.1614 47.9454 11.4257 47.976 10.7316C47.9964 10.2213 47.8535 9.96616 47.4657 9.82327C47.1697 9.711 46.5676 9.94574 46.4859 10.2111C46.4553 10.3132 46.3329 11.0786 46.2206 11.9156C46.1185 12.7525 46.0063 13.4465 45.9961 13.4669C45.9756 13.4873 45.7205 13.0791 45.4347 12.5586C43.4752 9.03738 41.0666 6.40414 37.7803 4.18937C34.7185 2.11748 31.4526 0.841692 27.6968 0.239517C26.8395 0.0966282 24.5432 -0.0258465 23.4103 0.00477219Z" fill="#3A729C"/>
<path d="M22.6863 8.59525C22.0638 8.97289 22.0434 9.11578 22.1556 13.6066C22.2066 15.8213 22.2373 18.6893 22.2169 19.9855C22.176 22.5677 22.1352 22.7821 21.4514 23.7517C21.0126 24.364 20.4716 24.7519 16.9812 26.9258C13.6847 28.9773 12.7866 29.7224 12.1028 30.9675C10.4596 33.9172 11.5108 37.765 14.3481 39.2449C15.4095 39.8062 16.1035 39.9797 17.3384 39.9797C19.1449 39.9797 19.696 39.7654 23.6457 37.571C26.932 35.7441 27.8709 35.3256 31.2695 34.203C32.78 33.7028 34.2599 33.1517 34.5456 32.9884C35.7193 32.325 36.6685 30.9573 36.9848 29.4672C37.3012 27.9669 37.1481 26.9258 36.1888 24.2722C35.2294 21.6185 35.1886 21.343 35.1886 17.9443C35.1886 16.3725 35.2192 13.8413 35.26 12.3308C35.3315 9.22805 35.3009 8.9933 34.6681 8.60546C34.3415 8.41154 34.168 8.40133 28.667 8.40133C23.2885 8.40133 22.9823 8.41154 22.6863 8.59525ZM24.2785 11.055V12.9942H23.5844H22.8802L22.819 11.9021C22.6965 9.91187 22.7374 9.43217 23.0946 9.19743C23.1558 9.1566 23.4518 9.11578 23.7477 9.11578H24.2785V11.055ZM27.0341 11.055V12.9942H26.0135H24.9929V11.055V9.11578H26.0135H27.0341V11.055ZM29.6876 11.055V12.9942H28.718H27.7485V12.3512C27.7485 12.0042 27.7179 11.1366 27.677 10.412L27.6158 9.11578H28.6466H29.6876V11.055ZM32.4228 11.0244L32.3922 12.9432L31.4022 12.9738L30.402 13.0044V11.055V9.11578H31.4328H32.4534L32.4228 11.0244ZM34.4027 9.28929C34.566 9.43217 34.5864 9.6363 34.5864 11.2285V12.9942H33.821H33.0556V11.055V9.11578H33.6373C34.0251 9.11578 34.2701 9.16681 34.4027 9.28929ZM34.5048 17.5564C34.5456 21.6594 34.515 21.3226 35.0559 23.1801C35.1069 23.374 35.0763 23.4251 34.8824 23.4761C34.7497 23.5169 34.2394 23.7415 33.7598 23.9762C32.1676 24.7825 31.0042 26.0991 30.4428 27.7423C29.9325 29.2529 30.004 31.6412 30.6163 33.0598C30.7286 33.3252 30.8 33.5497 30.7898 33.56C30.7694 33.5804 30.0958 33.8253 29.2794 34.1213C27.4117 34.7949 25.7481 35.5808 22.8496 37.2036C20.9717 38.2447 19.6756 38.9183 19.5327 38.9183C19.5225 38.9183 19.4817 38.3978 19.451 37.765C19.3796 36.479 19.2163 35.7135 18.7672 34.5296C18.1243 32.8761 16.7669 31.2227 15.0625 30.0388L14.2664 29.4876L15.1135 28.9467C15.583 28.6507 17.0731 27.7015 18.4407 26.8442C21.5841 24.8846 22.1148 24.3845 22.6863 22.9045C22.8904 22.3534 22.9006 22.2105 22.8802 18.0157L22.8496 13.7086H28.667H34.4742L34.5048 17.5564ZM35.7091 24.956C36.2092 26.2522 36.4235 27.2218 36.4235 28.1404C36.4235 30.1919 35.505 31.7636 33.8516 32.5393C33.0351 32.917 31.5655 33.3762 31.4736 33.2844C31.3205 33.1313 30.9123 31.7126 30.8102 30.9675C30.6265 29.5999 30.9225 28.0281 31.5961 26.885C32.1881 25.8746 33.3924 24.8642 34.5762 24.364C34.8926 24.2314 35.1988 24.1293 35.2702 24.1191C35.3315 24.1191 35.5356 24.4967 35.7091 24.956ZM14.7767 30.6818C15.4707 31.1513 16.6036 32.2637 17.0833 32.9476C17.8691 34.0499 18.4202 35.3767 18.655 36.7137C18.8081 37.5404 18.7979 39.0918 18.655 39.1836C18.3794 39.3571 16.675 39.3469 16.0116 39.1734C14.0623 38.6733 12.562 37.1628 12.1334 35.295C11.7354 33.5906 12.215 31.6718 13.3275 30.4368L13.6847 30.0388L14.0011 30.2123C14.1848 30.3041 14.5318 30.5083 14.7767 30.6818Z" fill="#3A729C"/>
<path d="M47.2308 20.8434C46.9858 21.0373 46.9858 21.0475 47.0164 22.9663C47.0675 25.6914 46.8634 27.3959 46.2 29.7841C44.7711 34.9486 41.3726 39.6128 36.8309 42.6339C31.5647 46.1449 25.1349 47.288 19.0828 45.7979C13.6022 44.4507 8.70336 41.0009 5.6824 36.3672C5.03943 35.3874 4.00863 33.5095 4.10048 33.5095C4.1311 33.5095 4.76387 33.8565 5.5089 34.2749C6.26414 34.6934 6.99897 35.0404 7.14185 35.0404C7.69297 35.0404 8.11142 34.0606 7.70318 33.7238C7.58071 33.6217 5.38643 32.3766 2.94721 31.0293C2.31445 30.6823 1.92662 30.6925 1.68168 31.0906C1.46735 31.4376 0.661084 37.6328 0.803967 37.888C1.0285 38.3268 1.64085 38.4391 2.02868 38.1227C2.2328 37.9594 2.29403 37.7145 2.49815 36.306C2.63083 35.418 2.7431 34.6322 2.7431 34.5811C2.7431 34.5199 2.97783 34.9179 3.2636 35.4487C4.45769 37.6736 5.77426 39.3985 7.63174 41.1846C13.7859 47.1145 22.2875 49.3497 30.5645 47.1962C34.504 46.1653 38.1577 44.0832 41.2093 41.1132C45.6182 36.8265 48.1085 31.4988 48.578 25.3138C48.7412 23.2623 48.629 21.2721 48.3432 20.9046C48.0983 20.5882 47.5778 20.5576 47.2308 20.8434Z" fill="#3A729C"/>
</svg>
