<svg width="82" height="55" viewBox="0 0 82 55" fill="none" xmlns="http://www.w3.org/2000/svg">
<path fill-rule="evenodd" clip-rule="evenodd" d="M72.3138 51.3389C70.6291 42.1518 65.4838 34.9483 58.6932 29.5259C48.4377 21.3373 34.4289 17.2068 22.763 16.4948C15.4313 16.0465 9.97856 18.5387 2.53771 19.899C2.23636 19.9539 1.98738 19.7288 1.98174 19.3957C1.97541 19.0641 2.21562 18.7481 2.51629 18.6946C10.0442 17.3183 15.5608 14.8218 22.9784 15.2748C34.8068 15.9968 49.0078 20.1943 59.4075 28.4971C66.3855 34.0688 71.6526 41.4904 73.3841 50.9316C73.4425 51.2497 73.2512 51.5983 72.9556 51.7108C72.6601 51.8233 72.3722 51.6569 72.3138 51.3389Z" fill="#3A729C"/>
<path fill-rule="evenodd" clip-rule="evenodd" d="M0.894807 18.6562C0.921456 18.6497 1.09908 18.6106 1.2468 18.5605C1.85987 18.3568 2.91754 17.8939 4.2322 17.2257C8.64061 14.9784 15.9234 10.4186 18.9582 5.21839C19.1334 4.91843 19.4738 4.80122 19.719 4.95566C19.9641 5.1101 20.0221 5.47745 19.847 5.77742C16.6893 11.1881 9.14564 15.9886 4.55849 18.3256C3.94397 18.6382 3.382 18.9091 2.89135 19.1299C4.35753 19.4466 5.83362 19.7188 7.31876 19.9723C11.5946 20.7004 15.0284 22.3546 18.3813 25.1335C18.6057 25.3185 18.6251 25.6988 18.4242 25.9792C18.2245 26.2602 17.8785 26.3376 17.6548 26.1511C14.4271 23.4772 11.1219 21.8819 7.00641 21.1805C5.06577 20.8488 3.138 20.4844 1.23042 20.0362C1.04056 19.9917 0.549145 19.8695 0.484285 19.8397C0.114129 19.6705 0.197392 19.2694 0.219636 19.1813C0.230063 19.1386 0.386492 18.6141 0.894807 18.6562ZM0.698415 19.8767C0.68445 19.8752 0.669775 19.8751 0.654621 19.8731C0.666705 19.8754 0.681379 19.8755 0.698415 19.8767Z" fill="#3A729C"/>
</svg>
