<svg width="80" height="61" viewBox="0 0 80 61" fill="none" xmlns="http://www.w3.org/2000/svg">
<path fill-rule="evenodd" clip-rule="evenodd" d="M68.5852 3.0801C67.8736 12.3932 63.5123 20.0967 57.3279 26.2015C47.988 35.4207 34.4898 40.998 22.963 42.9298C15.7188 44.1447 10.0347 42.2383 2.49218 41.666C2.18673 41.643 1.96274 41.8931 1.99207 42.2248C2.02056 42.5553 2.2926 42.8443 2.59721 42.866C10.228 43.445 15.976 45.3491 23.3052 44.1205C34.9925 42.1617 48.6749 36.4977 58.1463 27.1497C64.5013 20.8767 68.9608 12.9436 69.6924 3.37282C69.7171 3.05039 69.4902 2.72382 69.1845 2.64294C68.8788 2.56205 68.61 2.75766 68.5852 3.0801Z" fill="#3A729C"/>
<path fill-rule="evenodd" clip-rule="evenodd" d="M0.989111 43.0746C1.01629 43.0782 1.19703 43.0984 1.34919 43.1328C1.98025 43.2711 3.08065 43.6204 4.45816 44.1471C9.07797 45.9195 16.7989 49.6902 20.3625 54.5434C20.5681 54.8233 20.919 54.9042 21.1466 54.7249C21.3742 54.5455 21.3933 54.1741 21.1877 53.8942C17.4799 48.8446 9.47425 44.8619 4.66726 43.019C4.02334 42.7726 3.43605 42.5622 2.92494 42.394C4.34981 41.9252 5.78921 41.4997 7.23956 41.0918C11.4155 39.9192 14.6567 37.9139 17.6996 34.7986C17.9034 34.5911 17.8828 34.2109 17.6536 33.9531C17.4256 33.6946 17.0733 33.654 16.8704 33.8628C13.941 36.8606 10.8214 38.7938 6.80219 39.923C4.90706 40.4566 3.02815 41.0211 1.17811 41.6669C0.993971 41.7312 0.518083 41.9042 0.456701 41.9406C0.106342 42.1478 0.231222 42.5379 0.262585 42.6232C0.277425 42.6645 0.488016 43.1697 0.989111 43.0746ZM0.665774 41.8814C0.652042 41.8844 0.637454 41.8859 0.6226 41.8896C0.634372 41.886 0.64896 41.8844 0.665774 41.8814Z" fill="#3A729C"/>
</svg>
