<svg width="82" height="55" viewBox="0 0 82 55" fill="none" xmlns="http://www.w3.org/2000/svg">
<path fill-rule="evenodd" clip-rule="evenodd" d="M9.01327 51.3392C10.6979 42.1521 15.8432 34.9486 22.6339 29.5262C32.8893 21.3376 46.8981 17.2071 58.564 16.4951C65.8957 16.0468 71.3485 18.539 78.7893 19.8993C79.0907 19.9542 79.3397 19.729 79.3453 19.396C79.3516 19.0644 79.1114 18.7484 78.8108 18.6949C71.2828 17.3186 65.7663 14.8221 58.3486 15.2751C46.5203 15.9971 32.3193 20.1945 21.9195 28.4974C14.9415 34.0691 9.67447 41.4907 7.94294 50.9319C7.8845 51.25 8.07587 51.5986 8.37142 51.7111C8.66696 51.8236 8.95483 51.6572 9.01327 51.3392Z" fill="#3A729C"/>
<path fill-rule="evenodd" clip-rule="evenodd" d="M80.4313 18.6562C80.4046 18.6498 80.227 18.6107 80.0793 18.5606C79.4662 18.3569 78.4085 17.894 77.0939 17.2257C72.6855 14.9785 65.4026 10.4186 62.3678 5.21844C62.1927 4.91848 61.8523 4.80127 61.6071 4.95571C61.362 5.11015 61.304 5.47751 61.4791 5.77747C64.6367 11.1882 72.1804 15.9887 76.7676 18.3257C77.3821 18.6382 77.9441 18.9091 78.4347 19.13C76.9685 19.4467 75.4924 19.7188 74.0073 19.9724C69.7314 20.7005 66.2977 22.3547 62.9448 25.1336C62.7204 25.3186 62.701 25.6989 62.9019 25.9793C63.1015 26.2603 63.4476 26.3376 63.6713 26.1512C66.899 23.4773 70.2041 21.882 74.3197 21.1806C76.2603 20.8488 78.1881 20.4845 80.0956 20.0363C80.2855 19.9917 80.7769 19.8695 80.8418 19.8398C81.2119 19.6705 81.1287 19.2694 81.1064 19.1813C81.096 19.1387 80.9396 18.6142 80.4313 18.6562ZM80.6276 19.8767C80.6416 19.8752 80.6563 19.8752 80.6714 19.8731C80.6594 19.8755 80.6447 19.8755 80.6276 19.8767Z" fill="#3A729C"/>
</svg>
