<svg width="80" height="61" viewBox="0 0 80 61" fill="none" xmlns="http://www.w3.org/2000/svg">
<path fill-rule="evenodd" clip-rule="evenodd" d="M10.6893 3.0801C11.4009 12.3932 15.7622 20.0967 21.9465 26.2015C31.2864 35.4207 44.7847 40.998 56.3115 42.9298C63.5557 44.1447 69.2398 42.2383 76.7823 41.666C77.0878 41.643 77.3117 41.8931 77.2824 42.2248C77.2539 42.5553 76.9819 42.8443 76.6773 42.866C69.0465 43.445 63.2985 45.3491 55.9693 44.1205C44.2819 42.1617 30.5996 36.4977 21.1282 27.1497C14.7732 20.8767 10.3137 12.9436 9.58212 3.37282C9.55737 3.05039 9.78424 2.72382 10.09 2.64294C10.3957 2.56205 10.6645 2.75766 10.6893 3.0801Z" fill="#3A729C"/>
<path fill-rule="evenodd" clip-rule="evenodd" d="M78.2854 43.0746C78.2582 43.0782 78.0775 43.0984 77.9253 43.1328C77.2942 43.2711 76.1938 43.6204 74.8163 44.1471C70.1965 45.9195 62.4755 49.6902 58.912 54.5434C58.7064 54.8233 58.3555 54.9042 58.1279 54.7249C57.9003 54.5455 57.8812 54.1741 58.0868 53.8942C61.7946 48.8446 69.8002 44.8619 74.6072 43.019C75.2512 42.7726 75.8384 42.5622 76.3495 42.394C74.9247 41.9252 73.4853 41.4997 72.0349 41.0918C67.859 39.9192 64.6178 37.9139 61.5749 34.7986C61.3711 34.5911 61.3917 34.2109 61.6209 33.9531C61.8489 33.6946 62.2012 33.654 62.4041 33.8628C65.3335 36.8606 68.4531 38.7938 72.4723 39.923C74.3674 40.4566 76.2463 41.0211 78.0964 41.6669C78.2805 41.7312 78.7564 41.9042 78.8178 41.9406C79.1681 42.1478 79.0433 42.5379 79.0119 42.6232C78.9971 42.6645 78.7865 43.1697 78.2854 43.0746ZM78.6087 41.8814C78.6224 41.8844 78.637 41.8859 78.6519 41.8896C78.6401 41.886 78.6255 41.8844 78.6087 41.8814Z" fill="#3A729C"/>
</svg>
