<svg width="39" height="41" viewBox="0 0 39 41" fill="none" xmlns="http://www.w3.org/2000/svg">
<path d="M28.1526 0.230617C28.1003 0.366603 27.9748 0.701337 27.8702 0.99423C27.64 1.65324 27.096 2.19718 26.3846 2.43777C25.5476 2.74112 25.5267 3.2223 26.3323 3.49427C27.2529 3.80809 27.7446 4.36249 28.0271 5.40853C28.2259 6.16169 28.8954 6.14077 29.0419 5.38761C29.0733 5.19933 29.2407 4.81229 29.408 4.5194C29.6696 4.04868 29.8056 3.93361 30.4961 3.60934C31.1552 3.29553 31.2807 3.19092 31.2807 2.97125C31.2807 2.76204 31.1552 2.6679 30.517 2.35409C29.6591 1.95659 29.293 1.53817 29.0837 0.732718C28.9268 0.146934 28.8117 0.000487328 28.4979 0.000487328C28.3305 0.000487328 28.2049 0.0841708 28.1526 0.230617ZM29.0314 3.5152C28.5188 4.02776 28.5083 4.03822 28.3514 3.82901C28.2677 3.70348 28.0375 3.46289 27.8388 3.28507L27.4935 2.96079L27.8492 2.68882C28.048 2.53191 28.2677 2.30178 28.3409 2.1658L28.4769 1.91475L29.0105 2.44823L29.5545 2.98171L29.0314 3.5152Z" fill="#292D30"/>
<path d="M14.228 4.35707C13.9142 4.50351 11.4138 5.5914 8.68329 6.77343C5.95276 7.95546 2.93976 9.25255 1.9982 9.66051C0.376625 10.3614 0 10.5706 0 10.7798C0 10.9053 0.659093 11.8572 2.50037 14.4095C3.54655 15.8636 4.06964 16.6795 4.01733 16.7631C3.97548 16.8364 3.04438 18.1335 1.96682 19.6398C0.889253 21.1461 0 22.4641 0 22.5792C0 22.6942 0.0732326 22.8407 0.156927 22.9139C0.240621 22.9766 1.19264 23.4264 2.27021 23.9076L4.23703 24.7758L4.28934 29.3784C4.32072 32.2446 4.38349 34.0333 4.44626 34.0961C4.50903 34.1484 7.28141 35.3827 10.6187 36.8263C13.956 38.2803 17.2829 39.7238 18.0048 40.0376L19.3334 40.6129L21.9802 39.4623C23.4449 38.8347 26.4056 37.5585 28.5607 36.6171C30.7158 35.6861 32.8814 34.7551 33.3731 34.5354L34.2624 34.1484L34.2938 29.4935L34.3147 24.8281L36.292 23.9599C38.4889 23.008 38.7086 22.8825 38.7086 22.6001C38.7086 22.4955 38.4262 22.0352 38.0809 21.5645C36.3338 19.2109 34.6285 16.6899 34.6809 16.5539C34.7122 16.4703 35.4341 15.4451 36.2815 14.2736C38.2483 11.5434 38.7086 10.8844 38.7086 10.7798C38.7086 10.5496 38.1332 10.2777 34.3461 8.65631C29.2512 6.48054 29.7533 6.65836 29.5023 6.90942C29.2407 7.17093 29.2407 7.34875 29.4813 7.55796C29.5755 7.65211 31.3854 8.45756 33.5091 9.36762C35.6224 10.2672 37.3486 11.0308 37.3486 11.0622C37.3486 11.104 34.0008 15.8008 33.8335 15.9995C33.7916 16.0518 33.5196 15.9368 29.3035 14.1585C25.464 12.5371 25.4012 12.5162 25.3385 13.1543C25.3071 13.4367 25.3594 13.4995 25.7569 13.6878C26.2068 13.897 30.109 15.5497 31.8039 16.261L32.6931 16.6272L32.0654 16.9096C31.7202 17.056 28.7176 18.3741 25.3908 19.8385L19.3439 22.485L17.806 21.8155C16.9586 21.4599 14.1025 20.2046 11.4557 19.0435C8.80883 17.8824 6.5177 16.8782 6.36077 16.8155C6.19338 16.7527 6.06784 16.669 6.06784 16.6376C6.06784 16.6062 6.66416 16.3343 7.39649 16.0205C12.0101 14.1062 11.9369 14.1376 11.7591 13.6669C11.6021 13.2589 11.2464 13.353 8.04512 14.7024C6.30846 15.4347 4.85427 15.9891 4.81243 15.9368C4.5195 15.6334 1.43327 11.24 1.4228 11.125C1.41234 11.0413 2.46898 10.5183 4.18472 9.77558C12.7215 6.07258 14.7721 5.20436 14.8348 5.30897C14.8767 5.37173 15.5358 6.25041 16.3099 7.26507C17.3561 8.64585 17.7641 9.10611 17.942 9.10611C18.214 9.10611 18.4128 8.91782 18.4128 8.64585C18.4128 8.53078 17.7851 7.61026 17.0318 6.60606C15.4102 4.47213 15.0859 4.08509 14.9185 4.09556C14.8558 4.09556 14.5419 4.21062 14.228 4.35707ZM8.27528 18.7088C10.0852 19.5038 13.1296 20.8323 15.0336 21.6691C16.9481 22.4955 18.5174 23.1963 18.5174 23.2277C18.5174 23.3114 14.8558 28.0813 14.7197 28.1859C14.6361 28.2382 12.7739 27.4746 9.57254 26.0729C2.23882 22.8511 1.30772 22.4222 1.33911 22.2758C1.38096 22.1084 4.84381 17.2757 4.92751 17.2652C4.95889 17.2652 6.46539 17.9138 8.27528 18.7088ZM35.6329 19.8385C36.6267 21.2088 37.4009 22.3699 37.3695 22.4013C37.3277 22.4327 35.6224 23.1963 33.5824 24.0959C31.5423 24.9955 28.5712 26.2926 26.9914 26.9935C25.4117 27.6838 24.0831 28.2696 24.0412 28.2801C24.0098 28.2906 23.0996 27.1608 22.0325 25.7696C20.3796 23.6043 20.118 23.2172 20.275 23.1336C20.3691 23.0813 21.2793 22.6838 22.2836 22.2549C23.288 21.8155 26.2591 20.5184 28.8746 19.3678C31.49 18.2171 33.6765 17.2966 33.7288 17.3071C33.7811 17.3176 34.639 18.4577 35.6329 19.8385ZM21.7082 26.9412C22.6707 28.2069 23.539 29.2843 23.6437 29.3366C23.7901 29.3994 24.0203 29.3471 24.4492 29.1588C30.0463 26.7006 33.2267 25.3198 33.2894 25.3198C33.3417 25.3198 33.3627 27.1608 33.3522 29.4098L33.3208 33.4894L31.49 34.2844C30.4857 34.7133 27.4936 36.0104 24.8468 37.161C22.1999 38.3117 19.9716 39.274 19.9088 39.3054C19.8042 39.3472 19.7728 37.8305 19.7728 31.8994C19.7728 27.2968 19.8146 24.483 19.867 24.5353C19.9193 24.598 20.7457 25.6754 21.7082 26.9412ZM18.8103 35.6756L18.7789 39.3263L18.0989 39.023C17.7223 38.8661 15.0441 37.6945 12.1357 36.4288C9.2273 35.1631 6.52816 33.9915 6.12015 33.8241L5.38783 33.5103L5.35644 29.4203C5.34598 27.1608 5.3669 25.3198 5.39829 25.3198C5.44013 25.3198 7.56388 26.2403 10.1166 27.37C12.6797 28.4893 14.8453 29.3994 14.9394 29.3784C15.0336 29.3575 15.9438 28.2696 16.9481 26.9516L18.7789 24.5562L18.8103 28.2906C18.8208 30.3513 18.8208 33.6672 18.8103 35.6756Z" fill="#292D30"/>
<path d="M22.9844 33.3537C22.0742 33.7512 21.2582 34.1278 21.1745 34.1905C20.9444 34.3893 20.9967 34.8077 21.2687 34.9332C21.5302 35.0483 21.8127 34.9646 23.7481 34.1173C25.0035 33.5629 25.2128 33.4164 25.2128 33.0817C25.2128 32.862 24.9303 32.611 24.7211 32.6319C24.6792 32.6319 23.8946 32.9666 22.9844 33.3537Z" fill="#292D30"/>
<path d="M22.9652 35.5161C21.2495 36.2587 20.967 36.4575 21.0821 36.8027C21.2181 37.242 21.5738 37.1897 23.3418 36.4366C25.1203 35.673 25.4342 35.4428 25.2145 35.0453C25.0366 34.7001 24.66 34.7838 22.9652 35.5161Z" fill="#292D30"/>
<path d="M22.9431 4.62298C22.6607 4.92634 22.3887 5.34475 22.3887 5.47028C22.3887 5.58534 23.6232 5.17739 23.8324 4.9891C24.0521 4.77989 24.0626 4.75897 23.8847 4.5916C23.529 4.25687 23.2884 4.26733 22.9431 4.62298Z" fill="#292D30"/>
<path d="M24.1036 6.23658C22.3251 6.56086 21.394 6.96881 20.4838 7.83703C19.6783 8.60064 19.333 9.32241 19.2703 10.4103C19.2389 10.8601 19.2807 11.4773 19.3435 11.7911C19.4167 12.1049 19.4377 12.4605 19.3958 12.5861C19.333 12.7744 19.2912 12.7325 19.061 12.2409C18.674 11.4354 17.8789 10.6823 16.9373 10.2325C15.8597 9.71991 15.0019 9.52116 13.6 9.4584C12.0412 9.38518 12.0726 9.35379 12.2295 10.8183C12.4387 12.7953 12.8467 13.8622 13.7778 14.8664C14.7403 15.9125 15.9957 16.3832 17.5964 16.31L18.4229 16.2786L18.5693 16.7912C18.8623 17.764 18.8518 17.764 17.8789 17.7117C16.9373 17.6594 16.1422 17.7954 15.3262 18.1615C14.7089 18.4335 14.4997 18.6531 14.5939 18.9356C14.6985 19.2807 14.9914 19.2807 15.9853 18.946C16.9896 18.6113 17.8998 18.5381 18.5066 18.7473C18.7995 18.8519 18.8309 18.9042 18.8309 19.3226C18.8309 19.6887 18.8832 19.8142 19.082 19.9398C19.2807 20.0757 19.3854 20.0862 19.5527 20.0025C19.7724 19.877 19.9503 19.2598 19.8247 19.0506C19.7829 18.9879 19.9189 18.8728 20.1595 18.7786C20.6931 18.5485 21.9171 18.6322 22.7541 18.946C23.7479 19.3226 23.9258 19.3331 24.0722 19.0088C24.1769 18.7996 24.1664 18.7054 24.0513 18.5694C23.8735 18.3498 23.1516 18.0255 22.4402 17.8372C21.8334 17.6698 20.4315 17.6489 20.0444 17.7849C19.7934 17.8895 19.7829 17.8791 19.7097 17.1991C19.6051 16.1426 19.7201 14.4899 19.9712 13.6949L20.1909 13.0045L21.0069 13.0568C23.591 13.2346 25.5787 11.7283 26.2064 9.10274C26.4366 8.12992 26.5308 6.44579 26.3634 6.23658C26.196 6.03784 25.1812 6.03784 24.1036 6.23658ZM25.4846 7.66966C25.244 9.8559 24.3547 11.2994 22.9424 11.8329C22.3042 12.0735 20.8186 12.2409 20.8186 12.0735C20.8186 11.8957 21.8125 10.6509 22.4297 10.0756C23.0156 9.5107 23.1307 9.27011 22.8901 9.02952C22.618 8.75755 22.2937 8.904 21.5719 9.60484C21.1743 10.0023 20.7035 10.5044 20.5152 10.7346L20.17 11.153L20.2223 10.4731C20.3478 8.74709 21.6974 7.62782 24.2082 7.17802C24.6163 7.1048 25.087 7.03158 25.2544 7.03158L25.5578 7.02112L25.4846 7.66966ZM14.9182 10.5672C16.5816 10.9124 17.6592 11.5819 18.1404 12.5965C18.4019 13.1509 18.6216 14.3434 18.4543 14.3434C18.4019 14.3434 18.2241 14.1447 18.0462 13.9145C17.6068 13.3078 16.4456 12.2618 16.1317 12.1781C15.8807 12.1153 15.5877 12.3455 15.5877 12.5965C15.5877 12.6488 16.0062 13.13 16.5084 13.653C17.021 14.1761 17.5441 14.7618 17.6696 14.9501C17.8789 15.2535 17.8893 15.2953 17.7324 15.3476C17.6382 15.3895 17.2407 15.3895 16.8536 15.3581C15.4831 15.243 14.4265 14.5212 13.8092 13.2555C13.4744 12.5861 13.1815 11.425 13.1815 10.7555C13.1815 10.3789 13.192 10.3685 13.5791 10.3685C13.7883 10.3685 14.3951 10.4626 14.9182 10.5672Z" fill="#292D30"/>
</svg>
