<svg width="16" height="16" viewBox="0 0 16 16" fill="none" xmlns="http://www.w3.org/2000/svg">
<g clip-path="url(#clip0_9251_3143)">
<path d="M7.99987 15.4665C7.01933 15.4665 6.0484 15.2734 5.1425 14.8982C4.2366 14.5229 3.41348 13.9729 2.72014 13.2796C2.0268 12.5863 1.4768 11.7631 1.10157 10.8572C0.726334 9.95134 0.533203 8.98041 0.533203 7.99987C0.533203 7.01933 0.726334 6.0484 1.10157 5.1425C1.4768 4.2366 2.0268 3.41348 2.72014 2.72014C3.41348 2.0268 4.2366 1.4768 5.1425 1.10157C6.0484 0.726334 7.01933 0.533203 7.99987 0.533203C9.98015 0.533203 11.8793 1.31987 13.2796 2.72014C14.6799 4.12041 15.4665 6.01959 15.4665 7.99987C15.4665 9.98015 14.6799 11.8793 13.2796 13.2796C11.8793 14.6799 9.98015 15.4665 7.99987 15.4665Z" fill="#3EBE1E" stroke="#3EBE1E" stroke-width="0.746667"/>
<path d="M4.5 8L7.5 10.5L11.5 5.5" stroke="white"/>
</g>
<defs>
<clipPath id="clip0_9251_3143">
<rect width="16" height="16" fill="white"/>
</clipPath>
</defs>
</svg>
