<svg width="48" height="34" viewBox="0 0 48 34" fill="none" xmlns="http://www.w3.org/2000/svg">
<path d="M18.1782 0.357346C13.1287 1.44552 8.86469 4.77805 6.59802 9.40278C5.7901 11.035 5.31881 11.6925 4.55577 12.2592C1.90759 14.2769 0.0224422 18.2895 0 21.8941C0 23.413 0.740594 26.2468 1.50363 27.7203C2.35644 29.3299 4.75776 31.7103 6.41848 32.5944C9.04422 33.9773 9.29109 34 23.901 34C38.3762 34 38.6904 33.9773 41.2488 32.6625C45.0416 30.7355 47.5551 27.0176 47.9591 22.8009C48.363 18.2668 45.7373 13.2567 41.8323 11.1711C40.396 10.4003 38.3987 9.74283 37.501 9.74283C37.0297 9.72016 36.7828 9.47079 36.132 8.3146C35.167 6.59167 32.2046 3.53118 30.4766 2.51102C26.6389 0.243992 22.2178 -0.526794 18.1782 0.357346ZM25.2251 3.10045C27.7835 3.73521 30.6561 5.5715 32.5188 7.72518C33.2145 8.54131 33.4165 9.35744 32.9901 9.62948C32.8779 9.69749 32.0475 9.94686 31.1274 10.1962C29.13 10.695 27.2224 11.6471 24.8211 13.2794C23.8561 13.9595 22.8238 14.5036 22.532 14.5036C22.2178 14.5036 21.5221 14.0048 20.6693 13.166C18.3353 10.9217 15.5974 9.74283 12.2759 9.62948C10.503 9.5388 10.1215 9.38011 10.099 8.65466C10.099 8.49597 10.7947 7.67984 11.6475 6.81837C15.2832 3.2138 20.2429 1.85358 25.2251 3.10045ZM16.0238 13.098C17.7069 13.8915 19.3228 15.297 20.1082 16.6799C20.4224 17.2013 21.0284 18.5389 21.4548 19.6271C21.9036 20.7152 22.6442 22.1888 23.1155 22.8916C26.6165 28.1057 33.4838 29.8287 39.229 26.9269C39.9921 26.5415 40.6205 26.0654 40.6205 25.884C40.6205 25.5213 40.5082 25.544 38.264 26.2014C36.4238 26.7228 33.7307 26.6775 31.8455 26.0881C30.0277 25.4987 27.9406 24.1384 26.6838 22.7102C25.5168 21.3953 23.9234 18.0855 24.1254 17.428C24.3274 16.7706 27.4244 14.5263 29.332 13.6421C32.833 12.0099 37.0521 11.7832 39.7452 13.0754C41.8548 14.0728 43.3584 15.5691 44.3683 17.6321C45.1987 19.287 45.2211 19.4457 45.2211 21.7354C45.2211 23.9571 45.1762 24.2518 44.503 25.6573C43.1115 28.6271 40.3063 30.7582 37.1419 31.2796C36.3789 31.4156 30.5215 31.5063 23.7888 31.5063C10.705 31.5063 9.78482 31.4156 7.60792 30.2141C6.01452 29.3526 3.97228 27.0856 3.32145 25.4533C2.89505 24.3651 2.80528 23.7304 2.80528 21.7354C2.80528 19.4457 2.82772 19.287 3.65809 17.6321C5.40858 14.0275 8.55049 12.1685 12.6125 12.3272C14.2059 12.3952 14.8119 12.5313 16.0238 13.098Z" fill="#3A729C"/>
</svg>
