<svg width="20" height="14" viewBox="0 0 20 14" fill="none" xmlns="http://www.w3.org/2000/svg">
<path d="M7.57426 0.147142C5.4703 0.595214 3.69362 1.96743 2.74917 3.87173C2.41254 4.54384 2.21617 4.81455 1.89824 5.04792C0.794829 5.87872 0.00935093 7.53098 0 9.01521C0 9.64064 0.308581 10.8075 0.626513 11.4143C0.981848 12.077 1.9824 13.0572 2.67437 13.4212C3.76843 13.9907 3.87129 14 9.95874 14C15.9901 14 16.121 13.9907 17.187 13.4492C18.7673 12.6558 19.8146 11.1249 19.9829 9.3886C20.1513 7.52164 19.0572 5.45865 17.4301 4.59985C16.8317 4.28246 15.9994 4.01175 15.6254 4.01175C15.429 4.00242 15.3262 3.89974 15.055 3.42366C14.6529 2.71422 13.4186 1.45402 12.6986 1.03395C11.0996 0.10047 9.25743 -0.216915 7.57426 0.147142ZM10.5104 1.27666C11.5765 1.53803 12.7734 2.29415 13.5495 3.18096C13.8394 3.51701 13.9235 3.85306 13.7459 3.96508C13.6991 3.99308 13.3531 4.09577 12.9697 4.19845C12.1375 4.40382 11.3427 4.79588 10.3421 5.46798C9.94004 5.74803 9.5099 5.97206 9.38834 5.97206C9.25742 5.97206 8.96755 5.7667 8.61221 5.42131C7.63971 4.49716 6.4989 4.01175 5.11496 3.96508C4.37624 3.92774 4.21727 3.8624 4.20792 3.56368C4.20792 3.49834 4.4978 3.16229 4.85314 2.80756C6.36799 1.32333 8.43454 0.763241 10.5104 1.27666ZM6.67657 5.39331C7.37789 5.72002 8.05115 6.29878 8.37844 6.86821C8.50935 7.08291 8.76183 7.63366 8.93949 8.08173C9.12651 8.5298 9.43509 9.13656 9.63146 9.42594C11.0902 11.5729 13.9516 12.2824 16.3454 11.0875C16.6634 10.9288 16.9252 10.7328 16.9252 10.6581C16.9252 10.5088 16.8784 10.5181 15.9433 10.7888C15.1766 11.0035 14.0545 10.9849 13.269 10.7422C12.5115 10.4994 11.6419 9.93936 11.1183 9.35127C10.632 8.80985 9.9681 7.44696 10.0523 7.17625C10.1364 6.90554 11.4268 5.9814 12.2217 5.61734C13.6804 4.94524 15.4384 4.85189 16.5605 5.38397C17.4395 5.7947 18.066 6.4108 18.4868 7.26027C18.8328 7.94171 18.8421 8.00705 18.8421 8.94987C18.8421 9.86468 18.8234 9.98603 18.5429 10.5648C17.9631 11.7877 16.7943 12.6651 15.4758 12.8798C15.1579 12.9358 12.7173 12.9732 9.91199 12.9732C4.4604 12.9732 4.07701 12.9358 3.16997 12.4411C2.50605 12.0864 1.65512 11.1529 1.38394 10.4808C1.20627 10.0327 1.16887 9.77133 1.16887 8.94987C1.16887 8.00705 1.17822 7.94171 1.5242 7.26027C2.25358 5.77603 3.56271 5.01058 5.25522 5.07592C5.91914 5.10393 6.17162 5.15994 6.67657 5.39331Z" fill="#292D30"/>
</svg>
