<svg width="28" height="20" viewBox="0 0 28 20" fill="none" xmlns="http://www.w3.org/2000/svg">
<path d="M10.604 0.210203C7.65841 0.850304 5.17107 2.81062 3.84884 5.53104C3.37756 6.4912 3.10264 6.87792 2.65754 7.21131C1.11276 8.39816 0.0130913 10.7585 0 12.8789C0 13.7723 0.432013 15.4393 0.877118 16.3061C1.37459 17.2529 2.77536 18.6531 3.74411 19.1732C5.2758 19.9867 5.4198 20 13.9422 20C22.3861 20 22.5694 19.9867 24.0618 19.2132C26.2743 18.0797 27.7405 15.8927 27.9761 13.4123C28.2118 10.7452 26.6801 7.79807 24.4022 6.57121C23.5644 6.1178 22.3992 5.73108 21.8756 5.73108C21.6007 5.71774 21.4567 5.57105 21.077 4.89094C20.5141 3.87745 18.786 2.07717 17.778 1.47707C15.5394 0.143526 12.9604 -0.309879 10.604 0.210203ZM14.7146 1.82379C16.207 2.19719 17.8827 3.27736 18.9693 4.54422C19.3751 5.0243 19.493 5.50437 19.2442 5.6644C19.1788 5.70441 18.6944 5.8511 18.1576 5.99779C16.9925 6.29117 15.8798 6.85125 14.479 7.81141C13.9161 8.21147 13.3139 8.53152 13.1437 8.53152C12.9604 8.53152 12.5546 8.23814 12.0571 7.74473C10.6956 6.42452 9.09846 5.73108 7.16094 5.6644C6.12673 5.61106 5.90418 5.51771 5.89109 5.09097C5.89109 4.99763 6.29692 4.51755 6.79439 4.01081C8.91518 1.89047 11.8084 1.09034 14.7146 1.82379ZM9.34719 7.70472C10.329 8.17146 11.2716 8.99826 11.7298 9.81172C11.9131 10.1184 12.2666 10.9052 12.5153 11.5453C12.7771 12.1854 13.2091 13.0522 13.484 13.4656C15.5263 16.5328 19.5322 17.5463 22.8836 15.8393C23.3287 15.6126 23.6953 15.3326 23.6953 15.2259C23.6953 15.0125 23.6298 15.0259 22.3207 15.4126C21.2472 15.7193 19.6762 15.6927 18.5766 15.3459C17.5162 14.9992 16.2987 14.1991 15.5656 13.359C14.8848 12.5855 13.9553 10.6385 14.0732 10.2518C14.191 9.86506 15.9976 8.54486 17.1103 8.02477C19.1526 7.06462 21.6137 6.93127 23.1847 7.69139C24.4153 8.27815 25.2924 9.15829 25.8815 10.3718C26.3659 11.3453 26.379 11.4386 26.379 12.7855C26.379 14.0924 26.3528 14.2658 25.9601 15.0926C25.1484 16.8395 23.512 18.093 21.6661 18.3997C21.221 18.4798 17.8042 18.5331 13.8768 18.5331C6.24455 18.5331 5.70781 18.4798 4.43795 17.773C3.50847 17.2662 2.31716 15.9327 1.93751 14.9725C1.68878 14.3324 1.63641 13.959 1.63641 12.7855C1.63641 11.4386 1.6495 11.3453 2.13388 10.3718C3.15501 8.25148 4.98779 7.15797 7.35731 7.25132C8.2868 7.29132 8.64026 7.37134 9.34719 7.70472Z" fill="white"/>
</svg>
