<svg width="32" height="33" viewBox="0 0 32 33" fill="none" xmlns="http://www.w3.org/2000/svg">
<path d="M19.92 0.0104293C18.9382 -0.0422172 17.956 0.104845 17.0328 0.442719C16.1095 0.780593 15.2644 1.30225 14.5485 1.97614C13.8553 2.71707 13.3213 3.59215 12.9792 4.54742C12.6372 5.50269 12.4945 6.51789 12.56 7.53043V11.7133H7.69141V17.4047H12.6057V32.0104H18.48V17.4047H23.3714L24.1257 11.7133H18.48V8.079C18.4418 7.33194 18.6684 6.59537 19.12 5.999C19.4282 5.72539 19.7924 5.52229 20.1872 5.40386C20.5819 5.28543 20.9978 5.25452 21.4057 5.31329H24.3085V0.239001C22.8527 0.0617572 21.3864 -0.0146154 19.92 0.0104293Z" fill="#5596EF"/>
</svg>
