<svg width="100" height="100" viewBox="0 0 100 100" fill="none" xmlns="http://www.w3.org/2000/svg">
<circle cx="50" cy="50" r="50" fill="#5596EF"/>
<path d="M24.1331 30.3927C23.863 30.7567 23.4642 30.8571 23.0692 30.5641L20.8075 28.8859C20.3892 28.5755 20.0989 28.3841 19.7359 27.9346C19.7913 28.216 19.8815 28.4991 19.9275 28.8094C19.9654 29.0658 19.9339 29.3186 19.7615 29.551C19.4857 29.9228 19.0112 29.931 18.6781 29.6839C18.3663 29.4405 18.2891 29.0589 18.478 28.6587C18.6422 28.3241 18.7849 27.9376 18.7941 27.4881C18.7922 27.1023 18.8059 26.7763 19.0243 26.4819C19.3174 26.0869 19.6842 26.1429 20.0018 26.3785L23.9829 29.3325C24.378 29.6256 24.409 30.0209 24.1331 30.3927ZM27.724 28.0249C26.9372 28.8067 25.7758 29.4031 25.0478 28.8757C24.728 28.6359 24.6476 28.1856 24.9624 27.8728C25.1813 27.6553 25.3587 27.6422 25.6997 27.6297C26.0271 27.6171 26.4709 27.4754 26.8266 27.1218C27.2919 26.6596 27.4646 25.9849 26.8799 25.3966C26.3497 24.8629 25.7834 24.9361 25.3181 25.3983C24.7913 25.9218 24.8784 26.4199 24.4063 26.889C24.0779 27.2153 23.5594 27.2818 23.1043 26.7143L21.5622 24.8202C21.2362 24.41 21.2442 24.0349 21.6137 23.6678L23.5568 21.7372C23.8646 21.4313 24.199 21.371 24.5253 21.6994C24.8788 22.0552 24.7891 22.3618 24.4813 22.6677L22.8666 24.272L24.1367 25.8924C24.0563 25.4557 24.2288 24.8356 24.7487 24.319C25.7477 23.3265 26.9138 23.3371 27.9267 24.3565C29.0688 25.5059 28.7776 26.9781 27.724 28.0249ZM31.9167 24.4894C31.0056 25.1219 29.7581 25.5066 29.1332 24.8602C28.8602 24.5684 28.8596 24.1109 29.224 23.8579C29.4775 23.6819 29.6545 23.7 29.9925 23.7471C30.317 23.7918 30.7787 23.7296 31.1907 23.4436C31.7294 23.0696 32.0171 22.4355 31.5441 21.7541C31.1152 21.1361 30.5448 21.1094 30.006 21.4834C29.396 21.9069 29.3948 22.4126 28.8481 22.7921C28.4678 23.0561 27.9456 23.0312 27.5965 22.3929L26.4085 20.2589C26.1591 19.7981 26.2324 19.4301 26.6603 19.1332L28.9103 17.5711C29.2669 17.3236 29.6066 17.3226 29.8706 17.7029C30.1566 18.1148 30.0149 18.4011 29.6584 18.6486L27.7885 19.9467L28.7565 21.7638C28.7535 21.3197 29.0315 20.7393 29.6336 20.3212C30.7904 19.5182 31.9368 19.7321 32.7563 20.9126C33.6804 22.2436 33.1368 23.6424 31.9167 24.4894ZM34.8108 21.4176C34.2515 21.6552 33.9283 21.3628 33.7699 20.99L31.7301 16.1874C31.4323 15.4861 31.5773 14.8901 32.3763 14.5507C33.0776 14.2529 33.4341 14.4263 33.8581 14.9063L35.0672 16.1742C35.717 16.9146 36.0715 17.3299 36.3928 17.8641C36.2313 17.262 36.1824 16.7274 36.097 15.7368L36.0317 14.0041C35.9781 13.3353 36.0959 12.9709 36.8237 12.6617C37.6049 12.3299 38.1257 12.6432 38.4235 13.3445L40.4634 18.1471C40.6217 18.52 40.6165 18.9518 40.0483 19.1931C39.5246 19.4155 39.2015 19.1232 39.0468 18.7592L38.319 17.0459C37.9585 16.1722 37.6021 15.1604 37.2251 14.1992L37.4888 18.1007C37.5261 18.6821 37.5515 19.038 36.9921 19.2756C36.433 19.5131 36.2071 19.2528 35.802 18.8171L33.1773 15.9185C33.634 16.8458 34.0969 17.8123 34.4664 18.6823L35.2029 20.3918C35.3575 20.7558 35.3346 21.1952 34.8108 21.4176ZM43.5063 17.6136C43.1651 17.6784 42.7934 17.5822 42.6833 17.0042L42.5169 16.0246L41.5637 16.2255C40.9762 16.3372 40.7632 16.0438 40.7021 15.7217C40.639 15.39 40.7182 15.0314 41.3149 14.9179L42.2754 14.755L42.0692 13.7732C41.9575 13.1857 42.2605 12.9711 42.6017 12.9062C42.9429 12.8414 43.3203 12.9169 43.4336 13.5138L43.602 14.5029L44.5459 14.3038C45.1335 14.1922 45.3481 14.495 45.4092 14.8171C45.4706 15.1393 45.3818 15.4997 44.7947 15.6114L43.8435 15.7725L44.048 16.7449C44.1577 17.3229 43.8379 17.5506 43.5063 17.6136ZM51.9676 17.8221C51.102 17.7599 51.0594 17.2734 50.7025 16.184L49.3217 11.9849C49.1955 11.589 49.1457 11.3437 49.1614 11.1224C49.1996 10.5933 49.6545 10.3166 50.0776 10.347C50.6744 10.3899 50.8492 10.7796 51.0015 11.4867L51.7285 14.8266C51.8623 15.3874 51.9777 15.9372 52.0777 16.2925C52.2276 15.9552 52.4201 15.4275 52.6231 14.8909L53.8299 11.6899C54.0814 11.0118 54.3201 10.6518 54.9069 10.694C55.3304 10.7244 55.7411 11.0634 55.703 11.5925C55.6873 11.8137 55.6025 12.0494 55.4112 12.4224L53.4541 16.3817C52.945 17.4088 52.8336 17.8843 51.9676 17.8221ZM56.6992 18.3134C56.1056 18.1831 55.9883 17.7723 56.0876 17.3201L57.2863 11.8562C57.3856 11.4039 57.6641 11.08 58.2484 11.2081C58.8415 11.3384 58.9517 11.7377 58.8564 12.171L57.6452 17.6915C57.55 18.1249 57.2739 18.4395 56.6992 18.3134ZM59.6441 19.0975C59.0911 18.8965 58.9444 18.4531 59.1092 17.9999L60.9783 12.8606C61.143 12.4074 61.5256 12.1462 62.0874 12.3506L64.8245 13.346C65.2236 13.4911 65.3389 13.8512 65.2039 14.2228C65.0753 14.5763 64.7586 14.7691 64.36 14.6241L62.5379 13.9615C62.2843 13.8692 62.2397 13.9351 62.1509 14.1799L61.7322 15.331L63.3545 15.921C63.7897 16.0793 63.8697 16.3957 63.7411 16.7492C63.6157 17.0936 63.3569 17.2972 62.9129 17.1356L61.2905 16.5456L60.75 18.0321L63.025 18.8595C63.4783 19.0243 63.5695 19.3654 63.4377 19.728C63.3091 20.0815 63.0069 20.3204 62.5536 20.1556L59.6441 19.0975ZM65.4667 21.8765C64.7968 21.4388 64.8177 21.1068 65.048 20.3128L66.3906 15.7525C66.4943 15.4171 66.5799 15.1274 66.7226 14.9093C67.0232 14.449 67.4833 14.45 67.8707 14.7032C68.533 15.1356 68.146 15.8161 67.9583 16.3154L67.0432 18.828C66.8528 19.3488 66.6675 19.8615 66.3983 20.5034C66.8725 20.0067 67.2434 19.65 67.6356 19.2611L69.7096 17.3555C70.386 16.7258 70.6408 16.5121 71.2785 16.9287C71.9247 17.3506 71.8476 17.6804 71.5345 18.5474L70.6102 21.2152C70.425 21.7279 70.2188 22.2381 69.9596 22.8639C70.4205 22.37 70.8208 21.9863 71.213 21.5974L73.1749 19.7223C73.5567 19.3495 74.008 18.7112 74.6944 19.1595C75.1224 19.439 75.2598 19.8283 74.9592 20.2886C74.8113 20.5147 74.5835 20.7228 74.3287 20.9366C73.1082 21.9941 71.5843 23.2337 70.6846 23.9939C70.0745 24.5401 69.7631 24.6821 69.0928 24.2444C68.3578 23.7645 68.5245 23.2975 68.8713 22.3606L69.6686 20.0818L70.2345 18.5276L69.055 19.681L67.2968 21.3322C66.5703 22.0212 66.2098 22.3617 65.4667 21.8765ZM73.109 27.4976C72.6119 26.9852 72.3266 26.4828 72.1711 25.962C72.0348 25.503 72.0614 25.1146 72.3591 24.8259C72.6706 24.5238 73.101 24.4964 73.4229 24.8287C73.6447 25.0572 73.6536 25.3575 73.697 25.6514C73.7597 25.9935 73.7954 26.3351 74.1442 26.6951C74.4802 27.0414 75.0223 27.2544 75.4033 26.8852C75.8674 26.4354 75.6018 25.9538 75.1899 25.2381C74.5196 24.0613 74.3918 23.0431 75.2369 22.224C76.3308 21.1633 77.6666 21.6683 78.5262 22.5546C79.184 23.2332 79.7925 24.4568 79.1555 25.0744C78.8023 25.4168 78.4012 25.3219 78.1529 25.0657C77.9314 24.8372 77.935 24.6053 77.9049 24.3525C77.8555 24.0243 77.8189 23.7236 77.5103 23.4051C77.141 23.0243 76.6708 23.0102 76.3658 23.3055C75.9506 23.6947 76.066 24.1876 76.5438 25.0271C77.0823 25.929 77.5854 26.919 76.5466 27.926C75.4109 29.027 73.9682 28.3839 73.109 27.4976Z" fill="white"/>
<path d="M13.1219 64.9906C12.9568 64.5686 13.0835 64.1772 13.5416 63.998L16.1645 62.9724C16.6496 62.7831 16.966 62.6385 17.5396 62.5698C17.2718 62.4673 16.984 62.3933 16.6966 62.2676C16.4592 62.1635 16.2617 62.0027 16.1563 61.7331C15.9878 61.3019 16.2327 60.8956 16.619 60.7445C16.9908 60.6095 17.3551 60.7469 17.5939 61.1194C17.7903 61.4361 18.0421 61.7624 18.418 62.0088C18.746 62.2117 19.015 62.3966 19.1485 62.7381C19.3276 63.1963 19.0854 63.4772 18.7171 63.621L14.1 65.4262C13.6419 65.6055 13.2905 65.4218 13.1219 64.9906ZM21.1568 66.6137C22.1261 68.2815 21.4401 69.6728 19.7723 70.6421C18.0962 71.6162 16.5677 71.5008 15.6032 69.8411C14.6339 68.1734 15.295 66.7966 16.9711 65.8225C18.6388 64.8532 20.1875 64.946 21.1568 66.6137ZM20.1228 67.2145C19.5994 66.314 18.6861 66.5659 17.7271 67.1233C16.7682 67.6807 16.1055 68.3446 16.6289 69.2452C17.1523 70.1458 18.0525 69.8902 19.0114 69.3328C19.9704 68.7758 20.6414 68.1067 20.1228 67.2145ZM24.7004 71.6351C25.9582 73.0975 25.5382 74.5908 24.0757 75.8486C22.606 77.1129 21.0821 77.2785 19.8305 75.8237C18.5726 74.3609 18.9708 72.8865 20.4406 71.6222C21.903 70.3644 23.4425 70.1727 24.7004 71.6351ZM23.7937 72.4147C23.1145 71.625 22.2626 72.0397 21.4217 72.7631C20.5808 73.4861 20.0507 74.2601 20.7299 75.0501C21.4091 75.8398 22.2474 75.4239 23.0883 74.7009C23.9292 73.9775 24.4666 73.1971 23.7937 72.4147ZM26.6542 82.2677C26.4094 82.0643 26.2906 81.7396 26.3309 81.359C26.4322 80.2266 26.4629 78.9225 26.4825 77.647L24.7929 79.6788C24.5031 80.0273 24.1254 80.1647 23.6581 79.7765C23.2058 79.4003 23.2967 78.974 23.5865 78.6255L27.1631 74.3244C27.4592 73.9683 27.8554 73.8088 28.3077 74.1849C28.775 74.5731 28.6963 74.9846 28.4189 75.3182L26.8587 77.1945L30.2169 76.4747C30.7527 76.3433 31.0405 76.4193 31.2629 76.6045C31.6189 76.9003 31.6355 77.3785 31.3826 77.6824C31.1915 77.9122 30.9532 78.0026 30.4643 78.0477C29.5876 78.1216 28.5652 78.2498 27.7762 78.3085C27.8747 79.2312 27.9328 80.4585 27.9646 81.3253C27.9774 81.687 27.9024 81.9884 27.7358 82.1889C27.4892 82.4855 27.0324 82.5823 26.6542 82.2677ZM30.4237 83.6959C30.1231 83.5223 29.9046 83.2064 30.199 82.6973L30.7129 81.8469L29.8599 81.3759C29.3422 81.0765 29.3727 80.7157 29.5368 80.4315C29.7058 80.1394 30 79.9196 30.526 80.2238L31.3597 80.7277L31.845 79.8496C32.1443 79.332 32.5138 79.3674 32.8144 79.5414C33.115 79.715 33.3515 80.0188 33.0474 80.5449L32.5287 81.4036L33.3734 81.8698C33.8911 82.1688 33.8557 82.5385 33.6916 82.8222C33.5275 83.1064 33.2249 83.3214 32.7072 83.022L31.8819 82.5224L31.4014 83.3921C31.1069 83.9016 30.716 83.8651 30.4237 83.6959ZM37.2319 87.6635C36.6516 87.4839 36.5904 87.0611 36.7328 86.6002L38.3579 81.3486C38.5006 80.8876 38.8695 80.6083 39.441 80.7852L42.1222 81.6146C42.5643 81.7513 42.6519 82.1218 42.5434 82.4718C42.4293 82.8403 42.154 83.0782 41.7115 82.9416L39.9887 82.4083C39.7585 82.3372 39.6921 82.3874 39.6126 82.6454L39.2019 83.972L40.5839 84.3996C41.0171 84.5338 41.1099 84.8854 41.0018 85.2354C40.8933 85.5859 40.6333 85.8386 40.182 85.6988L38.8 85.2712L38.2185 87.1507C38.0931 87.5562 37.8122 87.8428 37.2319 87.6635ZM45.2174 89.3469C43.2057 89.1119 41.8654 87.5373 42.1263 85.3054C42.3951 83.0063 44.0572 81.8312 46.0782 82.0675C48.0711 82.3006 49.4362 83.8293 49.1674 86.1284C48.9061 88.3604 47.2195 89.5808 45.2174 89.3469ZM45.3786 87.9673C46.4515 88.0927 47.4281 87.3818 47.5953 85.9544C47.7697 84.4598 46.9816 83.5617 45.9183 83.4375C44.8549 83.3133 43.8708 84.0041 43.6963 85.4983C43.5292 86.9257 44.3249 87.8444 45.3786 87.9673ZM51.4238 89.6769C50.8464 89.7122 50.6221 89.3682 50.594 88.9065L50.2532 83.3423C50.2255 82.8897 50.4047 82.5019 50.9918 82.4658C51.6079 82.428 51.8225 82.7724 51.8494 83.2153L52.1412 87.9806C52.1492 88.1056 52.2119 88.1888 52.3662 88.1795L54.0605 88.0758C54.609 88.0421 54.8164 88.4255 54.8264 88.7534C54.8461 89.0713 54.6874 89.4771 54.1385 89.5105L51.4238 89.6769ZM57.0379 89.0837C56.4709 89.1995 56.2008 88.8904 56.108 88.4371L54.9908 82.9753C54.9 82.5313 55.023 82.1222 55.5992 82.0044C56.204 81.8807 56.4645 82.1913 56.5533 82.6261L57.5105 87.3034C57.5354 87.4264 57.6098 87.4996 57.7609 87.4686L59.4238 87.1286C59.9623 87.0181 60.2211 87.369 60.2774 87.6921C60.3413 88.0039 60.2412 88.4283 59.7023 88.5384L57.0379 89.0837ZM64.6031 86.8341C62.7235 87.5888 60.7934 86.8461 59.9563 84.7608C59.0935 82.6129 59.992 80.7864 61.8804 80.0281C63.7423 79.2806 65.672 79.971 66.5344 82.1194C67.3719 84.2047 66.4734 86.0826 64.6031 86.8341ZM64.0855 85.5449C65.0877 85.1426 65.6057 84.0511 65.0704 82.7173C64.5094 81.3213 63.3878 80.9089 62.3944 81.308C61.401 81.7071 60.8669 82.7841 61.4275 84.1801C61.9632 85.5139 63.1009 85.9403 64.0855 85.5449ZM71.5079 83.1678C70.8633 83.6424 70.5595 83.5066 69.8969 83.0123L66.096 80.1567C65.8183 79.9421 65.5768 79.7604 65.4225 79.5506C65.097 79.1078 65.2589 78.6774 65.6318 78.4029C66.2692 77.9343 66.7707 78.5351 67.1726 78.8859L69.2052 80.6236C69.6264 80.9841 70.0415 81.3373 70.5483 81.8148C70.2493 81.1963 70.0455 80.7237 69.8185 80.2201L68.7604 77.61C68.4075 76.7561 68.2966 76.4426 68.9107 75.9909C69.532 75.534 69.8141 75.7217 70.5161 76.3184L72.691 78.1192C73.1066 78.472 73.512 78.8442 74.0071 79.3059C73.7061 78.7015 73.4871 78.1919 73.2601 77.6884L72.1915 75.194C71.9761 74.7057 71.5365 74.0591 72.1967 73.5737C72.6086 73.2707 73.0214 73.2783 73.3473 73.7212C73.5072 73.9386 73.6222 74.2251 73.7331 74.539C74.2957 76.0524 74.923 77.9138 75.3196 79.023C75.6174 79.7857 75.6411 80.1273 74.9965 80.6019C74.2893 81.1219 73.9103 80.8021 73.1544 80.149L71.2998 78.6038L70.0423 77.5292L70.709 79.0383L71.6393 81.2634C72.0304 82.1853 72.2229 82.6422 71.5079 83.1678ZM79.0723 76.9711C78.6865 77.4151 78.2199 77.393 77.8562 77.0763L73.7299 73.4877C73.3658 73.171 73.2593 72.7205 73.6519 72.2692L75.5632 70.0714C75.8417 69.7515 76.2194 69.7728 76.5176 70.0324C76.8013 70.2792 76.868 70.6437 76.5895 70.964L75.3172 72.4267C75.14 72.6305 75.1854 72.6956 75.3819 72.8668L76.3062 73.6705L77.4391 72.3677C77.7429 72.0184 78.0672 72.0574 78.3509 72.3042C78.6274 72.5449 78.7247 72.8596 78.4144 73.216L77.2816 74.5185L78.4747 75.5565L80.0637 73.73C80.38 73.3663 80.7312 73.4033 81.0225 73.6565C81.3063 73.9032 81.4208 74.2713 81.1041 74.635L79.0723 76.9711ZM82.9692 72.0771C82.6553 72.5971 82.2418 72.573 81.8536 72.3391L77.1546 69.504C76.6924 69.2251 76.475 68.8574 76.8186 68.2875L77.7252 66.7845C78.6921 65.1823 79.7627 64.9384 80.9353 65.646C81.9762 66.2738 82.2117 67.227 81.9283 68.1264C82.1566 68.1963 82.3849 68.21 82.6196 68.1939C82.9985 68.1637 83.4156 68.0886 83.7536 67.8644C84.0385 67.6534 84.3251 67.477 84.7382 67.7261C85.1509 67.9753 85.1847 68.4237 84.9552 68.8035C84.6747 69.2874 84.1945 69.5048 83.5607 69.5839C82.9551 69.6916 82.1349 69.5574 81.3979 69.3042L80.9944 69.9734L82.6706 70.9844C83.0588 71.2187 83.273 71.5732 82.9692 72.0771ZM80.5415 68.4832C80.8453 67.9797 80.8549 67.4223 80.2192 67.0385C79.7402 66.7496 79.2503 66.8147 78.8384 67.4786L78.4365 68.126C78.3369 68.2911 78.3602 68.384 78.5334 68.4885L80.0034 69.3754L80.5415 68.4832ZM86.9858 64.4429C86.7286 65.1088 86.3919 65.5785 85.9844 65.9378C85.6243 66.2537 85.2606 66.3923 84.8736 66.2428C84.4689 66.0865 84.264 65.7075 84.4308 65.2755C84.5453 64.9785 84.8141 64.8447 85.0633 64.6824C85.3474 64.4818 85.6428 64.3066 85.8232 63.8389C85.9972 63.3888 85.9635 62.8073 85.4688 62.616C84.866 62.3833 84.5397 62.8257 84.0623 63.4997C83.2746 64.6016 82.4034 65.1437 81.3059 64.7197C79.8844 64.1704 79.7832 62.7458 80.2284 61.5944C80.5688 60.7127 81.4252 59.6474 82.2526 59.9673C82.7116 60.1445 82.7932 60.5484 82.6646 60.8811C82.55 61.1781 82.3378 61.2721 82.1212 61.4052C81.8439 61.5876 81.586 61.7467 81.426 62.1603C81.2347 62.6554 81.4192 63.0882 81.815 63.2413C82.3423 63.4555 82.7417 63.1444 83.3035 62.3588C83.8971 61.492 84.5855 60.6203 85.935 61.1419C87.4102 61.7118 87.4307 63.2915 86.9858 64.4429Z" fill="white"/>
<path d="M17.9001 45.5205C19.4457 45.838 20.5661 46.6722 20.5661 46.6722C20.5661 46.6722 19.4457 47.5065 17.9001 47.824C17.5826 49.3696 16.7484 50.49 16.7484 50.49C16.7484 50.49 15.9142 49.3696 15.5966 47.824C14.0511 47.5065 12.9307 46.6722 12.9307 46.6722C12.9307 46.6722 14.0511 45.838 15.5966 45.5205C15.9142 43.9749 16.7484 42.8545 16.7484 42.8545C16.7484 42.8545 17.5826 43.9749 17.9001 45.5205Z" fill="white"/>
<path d="M85.0125 45.5224C86.558 45.8399 87.6784 46.6742 87.6784 46.6742C87.6784 46.6742 86.558 47.5085 85.0125 47.8259C84.695 49.3715 83.8607 50.4919 83.8607 50.4919C83.8607 50.4919 83.0264 49.3715 82.709 47.8259C81.1634 47.5085 80.043 46.6742 80.043 46.6742C80.043 46.6742 81.1634 45.8399 82.709 45.5224C83.0264 43.9769 83.8607 42.8564 83.8607 42.8564C83.8607 42.8564 84.695 43.9769 85.0125 45.5224Z" fill="white"/>
<path d="M43.0927 54.2254C43.0344 54.0844 42.887 53.885 42.6904 53.5049C42.5892 53.3055 42.5092 53.0355 42.3557 52.7413C42.2516 52.542 42.0824 52.3608 41.9719 52.1433C41.8646 51.9376 41.8429 51.6832 41.7324 51.4686C41.6251 51.2568 41.4989 51.0547 41.3976 50.8429C41.2903 50.6251 41.1613 50.423 41.0661 50.2172C40.9588 49.9905 40.8756 49.7667 40.7896 49.5642C40.6823 49.3126 40.5658 49.1012 40.5075 48.9172C40.4428 48.7211 40.3845 48.4787 40.3198 48.2119C40.2648 47.9913 40.1727 47.761 40.1205 47.5098C40.0711 47.2767 40.0743 47.0252 40.0253 46.7861C39.979 46.547 39.8746 46.3167 39.8316 46.0808C39.7858 45.8324 39.838 45.5748 39.7978 45.3446C39.752 45.0809 39.6355 44.8511 39.5985 44.6393C39.543 44.2989 39.5708 44.0413 39.5523 43.922C39.6077 43.8175 39.7182 43.5997 39.893 43.3268C40.0068 43.1492 40.1265 42.9434 40.2768 42.7441C40.4183 42.5632 40.5348 42.3454 40.7008 42.1831C40.8728 42.0143 41.0753 41.8765 41.2658 41.7599C41.4744 41.6313 41.6986 41.5301 41.9229 41.5083C42.1716 41.4838 42.4019 41.4963 42.6077 41.5055C42.8657 41.5148 43.0987 41.5144 43.2924 41.5513C43.6055 41.6128 43.7928 41.7386 43.9125 41.7905C44.0198 42.2016 43.9708 42.2076 44.0262 42.6276C44.0845 43.0479 44.0813 43.0479 44.1396 43.4679C44.1978 43.8882 44.2501 43.8822 44.2931 44.3021C44.2593 44.2961 44.2163 44.2929 44.195 44.2897C43.9065 44.2531 43.636 44.2652 43.3905 44.3234C43.1204 44.3877 42.8653 44.4982 42.6659 44.6763C42.4324 44.8848 42.2697 45.1822 42.1624 45.5258C42.1624 45.5318 42.1162 45.5258 42.1162 45.5351C42.1101 45.5564 42.1684 45.5929 42.1652 45.6146C42.0917 45.8875 42.0454 46.1881 42.0519 46.5253C42.0547 46.7616 42.0704 47.0007 42.1318 47.2337C42.1901 47.4604 42.2697 47.6846 42.3774 47.9053C42.4787 48.1138 42.6354 48.2947 42.7797 48.494C42.9147 48.6813 43.0497 48.8742 43.2185 49.0522C43.378 49.221 43.5348 49.4018 43.722 49.5581C43.9001 49.7052 44.1122 49.819 44.3176 49.9536C44.5113 50.0826 44.6925 50.2449 44.9043 50.3615C45.1101 50.472 45.3464 50.5303 45.5706 50.6283C45.7579 50.7111 45.9359 50.8554 46.1509 50.9349C46.3474 51.0085 46.5407 51.076 46.7557 51.1467C46.771 51.2906 46.8357 51.5052 46.8325 51.7845C46.8325 51.9898 46.7895 52.2169 46.7529 52.4435C46.7192 52.6646 46.7192 52.9037 46.6332 53.1062C46.5439 53.3148 46.3752 53.4804 46.2092 53.6274C45.9914 53.8207 45.7426 53.9369 45.5063 54.0474C45.2483 54.17 44.9964 54.2745 44.7355 54.3203C44.4562 54.3665 44.1798 54.3665 43.9125 54.3512C43.624 54.3327 43.3507 54.2929 43.102 54.2347L43.0927 54.2254ZM50.5417 51.6374C50.8029 51.6985 51.03 51.7813 51.2325 51.8275C51.6533 51.9255 51.9265 51.944 51.9358 51.9468C51.945 51.9468 51.9358 51.9991 51.945 52.0023C51.9607 52.0083 51.9973 51.9653 52.0125 51.9746C52.0278 51.9838 52.0005 52.0449 52.0125 52.0541C52.025 52.0634 52.031 52.0726 52.0403 52.0851C52.0495 52.0971 52.1018 52.0787 52.111 52.0943C52.117 52.1064 52.0985 52.1341 52.1018 52.1494C52.1078 52.1646 52.1693 52.1739 52.1693 52.1892C52.1693 52.1984 52.1202 52.2076 52.1202 52.2169C52.1202 52.2261 52.0801 52.229 52.0772 52.2382C52.0772 52.2474 52.111 52.2567 52.1078 52.2659C52.1078 52.2752 52.0925 52.2752 52.0893 52.2844C52.0833 52.2997 52.1202 52.3362 52.111 52.3487C52.105 52.3608 52.0495 52.3455 52.0403 52.3547C52.031 52.3672 52.0495 52.407 52.0371 52.419C52.025 52.4283 52.0125 52.4435 51.9973 52.45C51.982 52.456 51.9543 52.4343 51.939 52.4375C51.9237 52.4435 51.9145 52.4805 51.896 52.4837C51.8868 52.4837 51.8775 52.4805 51.8715 52.4805C51.632 52.4805 51.3527 52.4528 51.0637 52.5143C50.8182 52.5665 50.5755 52.7044 50.3114 52.8088C50.0719 52.9037 49.8356 53.0202 49.5929 53.1613C49.3691 53.2931 49.1139 53.3976 48.8989 53.5724C48.6963 53.7347 48.5123 53.9341 48.3218 54.1394C48.1715 54.299 47.987 54.4613 47.8367 54.6671C47.7045 54.8479 47.5788 55.0565 47.4558 55.2739C47.3453 55.4704 47.3179 55.722 47.2195 55.9518C47.1307 56.1604 46.9952 56.3626 46.9217 56.5988C46.851 56.8167 46.8019 57.0465 46.7465 57.2889C46.6975 57.5127 46.6669 57.7458 46.6332 57.9909C46.6022 58.218 46.5809 58.4543 46.5656 58.6994C46.5532 58.9293 46.5194 59.1656 46.5226 59.4107C46.5226 59.641 46.5532 59.8769 46.5717 60.1224C46.5809 60.2603 46.4644 60.4045 46.3289 60.4138C46.3229 60.4138 46.3169 60.4226 46.3105 60.4226C46.1819 60.4226 46.0681 60.288 46.0589 60.1562C46.0404 59.8954 46.0187 59.641 46.0187 59.3987C46.0187 59.1378 45.9946 58.8802 46.0099 58.6383C46.0251 58.3775 46.0987 58.1292 46.1324 57.8868C46.1694 57.626 46.2337 57.3837 46.2859 57.1446C46.3442 56.887 46.3535 56.6266 46.4274 56.3963C46.5102 56.1451 46.593 55.9028 46.6882 55.679C46.7959 55.4366 46.9615 55.2341 47.0812 55.0259C47.2135 54.7929 47.373 54.5996 47.5145 54.4063C47.674 54.1884 47.8275 53.9923 47.987 53.8207C48.1651 53.6303 48.3431 53.4494 48.54 53.2838C48.7393 53.1183 48.9608 52.9897 49.1754 52.8514C49.3968 52.7104 49.5837 52.5203 49.8139 52.4098C50.0506 52.2997 50.3179 52.2382 50.5602 52.1679C50.3577 52.1188 50.1242 52.0634 49.8939 52.0051C49.6853 51.9529 49.4611 51.9071 49.234 51.8488C49.019 51.7937 48.8129 51.6892 48.5919 51.6282C48.3769 51.5699 48.1345 51.5912 47.9167 51.5269C47.6985 51.4626 47.508 51.3706 47.293 51.303C47.3087 51.4992 47.33 51.7322 47.3175 52.0111C47.3055 52.2414 47.2163 52.4773 47.164 52.7228C47.1122 52.9587 47.0784 53.2043 46.9707 53.4221C46.8634 53.6395 46.7252 53.8453 46.5379 54.0108C46.3169 54.2037 46.0529 54.3295 45.7949 54.4585C45.5369 54.5871 45.2728 54.6944 44.9871 54.7559C44.711 54.8174 44.4253 54.8849 44.1275 54.8849C43.7775 54.8849 43.403 54.7836 43.0284 54.7008C42.8657 54.9829 42.5184 55.2924 42.3127 55.4551C42.1379 55.593 41.9229 55.7585 41.6404 55.8968C41.4161 56.0069 41.1798 56.1544 40.8973 56.2215C40.6486 56.283 40.3753 56.3015 40.0835 56.3015C39.8838 56.3015 39.6813 56.2432 39.4602 56.2034C39.2637 56.1697 39.058 56.1327 38.849 56.0591C38.628 55.9824 38.4407 55.8474 38.2382 55.6882C38.0569 55.5472 37.8234 55.4366 37.6579 55.2434C37.5072 55.0657 37.3601 54.8664 37.2218 54.6546C37.0928 54.4585 37.0036 54.2315 36.8839 54.0108C36.9671 54.3448 37.0559 54.6791 37.1419 55.0227C37.2001 55.2558 37.2094 55.5009 37.2677 55.7312C37.3259 55.9643 37.4091 56.191 37.4674 56.4212C37.5257 56.6571 37.6486 56.8717 37.7069 57.102C37.7684 57.3379 37.7439 57.5923 37.8021 57.8161C37.8636 58.0556 38.0047 58.267 38.0633 58.4908C38.1244 58.7332 38.1461 58.9755 38.2012 59.1961C38.2659 59.4417 38.3547 59.6683 38.4102 59.8829C38.4777 60.1405 38.4897 60.3893 38.5452 60.5886C38.6312 60.898 38.7445 61.1219 38.7907 61.2629C38.8615 61.4775 38.9812 61.6925 39.1195 61.9316C39.236 62.1342 39.322 62.3793 39.488 62.5907C39.635 62.778 39.8533 62.9218 40.0373 63.1123C40.2033 63.2839 40.36 63.4832 40.5565 63.6548C40.7374 63.8144 40.9186 63.9924 41.1244 64.1519C41.3181 64.3018 41.5114 64.4614 41.7264 64.6085C41.9289 64.7467 42.1716 64.8323 42.3927 64.9673C42.6012 65.0931 42.8255 65.2096 43.0529 65.3322C43.2707 65.4488 43.464 65.6208 43.6975 65.7309C43.9218 65.8382 44.1673 65.9029 44.404 66.0037C44.6311 66.1022 44.8428 66.2493 45.0856 66.3381C45.3343 66.4301 45.5984 66.4671 45.8439 66.5374C46.0987 66.6142 46.3506 66.6757 46.5994 66.7307C46.8574 66.7858 47.109 66.8625 47.3638 66.8931C47.6246 66.9268 47.8858 66.9578 48.1438 66.9638C48.4046 66.973 48.6658 66.93 48.9266 66.9148C49.1878 66.8995 49.4394 66.844 49.6974 66.801C49.9554 66.7613 50.2194 66.7673 50.4742 66.6998C50.7262 66.6355 50.9689 66.5406 51.2173 66.4518C51.46 66.3626 51.6935 66.2432 51.9298 66.1327C52.1632 66.0222 52.3967 65.9089 52.6238 65.7771C52.848 65.6481 53.0871 65.5593 53.2929 65.4275C53.5111 65.2892 53.6984 65.1148 53.8949 64.9734C54.1039 64.8235 54.3217 64.6945 54.5122 64.5413C54.7119 64.3786 54.9052 64.213 55.0832 64.0475C55.2737 63.8726 55.4365 63.6793 55.6052 63.5017C55.7833 63.3144 55.9123 63.097 56.069 62.9065C56.2317 62.7072 56.4343 62.5481 56.5753 62.3455C56.7228 62.1338 56.8426 61.9131 56.9688 61.7018C57.0974 61.4807 57.1958 61.2476 57.3031 61.027C57.4136 60.7967 57.5057 60.5637 57.5917 60.3338C57.6841 60.0947 57.8006 59.8708 57.8714 59.6345C57.9421 59.3894 57.9851 59.1411 58.0369 58.8987C58.0892 58.6504 58.1048 58.3988 58.1386 58.1537C58.1724 57.9021 58.2399 57.657 58.258 57.4114C58.2764 57.157 58.2736 56.9055 58.2764 56.6603C58.2764 56.4027 58.2459 56.1512 58.2367 55.9088C58.2246 55.648 58.2334 55.3969 58.2121 55.1578C58.1876 54.8969 58.1659 54.6454 58.1354 54.4095C58.1016 54.1426 58.0249 53.9003 57.9911 53.6733C57.9694 53.5109 58.0494 53.4984 58.0277 53.3361C57.9939 53.0877 57.8653 52.8514 57.8131 52.5971C57.7609 52.3487 57.7701 52.0851 57.7026 51.8363C57.6351 51.5912 57.5121 51.3613 57.4321 51.119C57.3521 50.8739 57.3341 50.607 57.2449 50.3739C57.1528 50.1284 56.9716 49.9263 56.8735 49.6992C56.7658 49.4569 56.72 49.1965 56.6095 48.9786C56.4865 48.7331 56.333 48.5245 56.2133 48.3224C56.063 48.074 55.9336 47.847 55.8017 47.6814C55.7865 47.669 55.7374 47.6814 55.7282 47.6662C55.6177 47.5343 55.553 47.3993 55.4642 47.3378C55.3625 47.2703 55.1017 47.243 54.7637 47.1385C54.5644 47.0774 54.3554 46.9179 54.0914 46.8472C53.8736 46.7889 53.6341 46.7463 53.3821 46.6848C53.1579 46.6297 52.9155 46.596 52.6696 46.5377C52.4425 46.4823 52.2091 46.4087 51.9667 46.3537C51.7365 46.3014 51.4905 46.2737 51.251 46.2218C51.0179 46.1696 50.7812 46.1081 50.5417 46.0563C50.3054 46.004 50.0599 45.9916 49.8204 45.9397C49.5808 45.8875 49.3538 45.7862 49.1171 45.7372C48.8776 45.685 48.6256 45.6942 48.3925 45.6452C48.1498 45.5961 47.9135 45.4519 47.68 45.4061C47.6495 45.5009 47.6555 45.6576 47.625 45.7557C47.545 46.004 47.4007 46.2399 47.3115 46.4887C47.2195 46.7463 47.1242 46.9914 47.0077 47.2153C46.8727 47.4696 46.7372 47.6907 46.5564 47.853C46.3567 48.0278 46.1296 48.1813 45.8439 48.1813C45.8226 48.1813 45.7977 48.1568 45.7764 48.1536C45.5891 48.1444 45.3524 48.1351 45.0976 48.0921C44.8858 48.0584 44.6616 47.9973 44.4313 47.939C44.2135 47.884 43.9832 47.847 43.7682 47.767C43.5533 47.6875 43.3688 47.5372 43.1723 47.4299C42.9669 47.3165 42.7487 47.1875 42.5892 47.0404C42.6442 47.2828 42.7302 47.5524 42.85 47.7855C42.9637 48.0033 43.1357 48.1994 43.3013 48.4052C43.4548 48.5981 43.6208 48.7914 43.8173 48.9694C43.9985 49.135 44.1982 49.2973 44.4128 49.4508C44.6158 49.5947 44.8215 49.7482 45.0518 49.8772C45.2696 49.9998 45.5059 50.1011 45.7454 50.2051C45.9484 50.294 46.1569 50.4197 46.3965 50.5086C46.6115 50.5885 46.8602 50.6038 47.0937 50.6834C47.3147 50.7569 47.5418 50.8369 47.772 50.9072C47.9995 50.9747 48.2237 51.0607 48.454 51.125C48.6871 51.1897 48.9174 51.2568 49.1448 51.3151C49.3811 51.3798 49.6271 51.3979 49.8481 51.4533C50.0936 51.5144 50.3239 51.588 50.5389 51.6402M43.0035 45.0532C42.8319 45.2067 42.7487 45.4398 42.6691 45.7066C42.5892 46.0068 42.5827 46.2709 42.758 46.5132C42.9022 46.7153 43.1634 46.8351 43.4335 46.9794C43.6638 47.1047 43.888 47.298 44.1613 47.384C44.4285 47.4696 44.7138 47.5187 44.9751 47.5681C45.2757 47.6264 45.5674 47.6324 45.8009 47.6477C46.0709 47.6597 46.3076 47.4881 46.4949 47.2C46.6332 46.9882 46.728 46.7033 46.8385 46.4119C46.937 46.1483 47.0354 45.8722 47.1214 45.5994C47.1459 45.5166 47.1552 45.4704 47.1797 45.3908C46.9125 45.3385 46.679 45.2405 46.4334 45.1915C46.1602 45.1392 45.8929 45.1452 45.6566 45.0994C45.3713 45.044 45.1286 44.9029 44.9071 44.8631C44.5479 44.7988 44.2686 44.8326 44.1243 44.8141C43.9523 44.7928 43.7373 44.7193 43.5287 44.7651C43.3443 44.8049 43.1602 44.9122 43.0035 45.0564V45.0532ZM35.4746 48.3409L35.5207 48.3316C35.5207 48.3377 35.5207 48.6105 35.622 49.0305C35.6681 49.227 35.7909 49.4416 35.8584 49.696C35.9137 49.9078 35.8861 50.1593 35.9536 50.4013C36.0181 50.6191 36.1041 50.8397 36.1778 51.07C36.2484 51.2878 36.3467 51.5052 36.4265 51.729C36.5187 51.9898 36.5954 52.2442 36.6906 52.4805C36.7951 52.7381 36.9269 52.9712 37.0346 53.2011C37.1543 53.4558 37.2677 53.695 37.3906 53.9124C37.5317 54.1639 37.7037 54.3633 37.8483 54.5626C38.0199 54.8017 38.155 55.032 38.3302 55.1943C38.5512 55.3997 38.7968 55.4889 39.021 55.5656C39.316 55.6665 39.574 55.8168 39.838 55.8353C40.1478 55.8598 40.4303 55.7557 40.6851 55.7035C40.9986 55.6392 41.2936 55.593 41.5114 55.4796C41.7662 55.3478 41.9844 55.1883 42.1531 55.044C42.4477 54.7925 42.6105 54.5381 42.6535 54.4461C42.6169 54.348 42.4264 54.0783 42.242 53.7223C42.1254 53.4956 42.0149 53.2316 41.8859 52.9804C41.7814 52.7779 41.6556 52.5693 41.5419 52.3487C41.4346 52.1401 41.3394 51.9163 41.2289 51.6985C41.1183 51.4839 40.9833 51.2785 40.8788 51.0667C40.7683 50.8461 40.7221 50.5978 40.6208 50.3892C40.5103 50.1589 40.4123 49.9383 40.323 49.733C40.2125 49.4786 40.1265 49.2543 40.065 49.0642C40.0003 48.8649 39.8995 48.6383 39.8316 48.3742C39.7765 48.1536 39.7335 47.9113 39.678 47.6629C39.629 47.4299 39.58 47.1907 39.531 46.9484C39.4848 46.7093 39.4602 46.4642 39.4172 46.2247C39.371 45.9763 39.316 45.7372 39.2758 45.5101C39.23 45.2497 39.23 44.9982 39.193 44.7836C39.1408 44.4677 39.0395 44.2286 39.015 44.0751C38.9933 44.0751 38.9844 44.0751 38.9535 44.0751C38.8185 44.0751 38.585 44.0811 38.2257 44.1824C38.0324 44.2378 37.7989 44.3142 37.5289 44.4247C37.3263 44.5075 37.1206 44.6457 36.8686 44.7651C36.6107 44.8909 36.3927 45.0412 36.2177 45.2373C36.0365 45.4398 35.8738 45.6604 35.7632 45.9152C35.6588 46.1604 35.6189 46.4364 35.5667 46.7093C35.5176 46.9761 35.4439 47.2458 35.4378 47.5191C35.4285 47.798 35.45 48.0769 35.4715 48.3377L35.4746 48.3409ZM42.7732 29.0001C42.764 29.1688 42.8162 29.4202 42.8379 29.7422C42.8532 29.9599 42.8194 30.2144 42.844 30.4904C42.8657 30.7204 42.9577 30.9626 42.9882 31.2264C43.0127 31.4625 42.9484 31.7201 42.979 31.9777C43.0067 32.2169 43.059 32.4622 43.0895 32.7168C43.1204 32.959 43.1787 33.2012 43.2125 33.4527C43.243 33.6949 43.2587 33.9464 43.2924 34.1948C43.3262 34.4401 43.3873 34.6824 43.421 34.9308C43.4548 35.1761 43.4825 35.4245 43.5163 35.6728C43.55 35.9212 43.6272 36.1635 43.661 36.4089C43.6975 36.6573 43.6823 36.9148 43.716 37.1571C43.753 37.4085 43.8478 37.6477 43.882 37.8869C43.9185 38.1415 43.8635 38.4019 43.8972 38.6382C43.937 38.8958 44.0508 39.1317 44.0873 39.3648C44.1275 39.6288 44.0998 39.8864 44.1335 40.1131C44.1765 40.3924 44.2195 40.6407 44.2533 40.8493C44.324 41.2998 44.3823 41.5666 44.3855 41.5819C44.3855 41.5819 44.4378 41.5759 44.4378 41.5819L44.4128 41.5851H44.4285C44.4683 41.8427 44.4591 41.8427 44.4928 42.1003C44.4928 42.1063 44.5081 42.0818 44.5113 42.0911C44.5575 42.4744 44.4988 42.4837 44.5543 42.8638C44.5889 43.1194 44.6238 43.375 44.6588 43.6306C44.711 44.014 44.6278 44.0413 44.7661 44.4034C44.9626 44.44 45.2238 44.4617 45.4878 44.5135C45.6996 44.5537 45.9299 44.6088 46.1819 44.6578C46.3997 44.7008 46.6332 44.7466 46.8755 44.7956C47.0997 44.8386 47.3268 44.9061 47.5663 44.9552C47.5755 44.9552 47.588 44.9431 47.6 44.9459C47.6 44.9459 47.5972 44.9861 47.6 44.9889C47.8428 45.0379 48.1068 45.0259 48.3588 45.0777C48.6043 45.1268 48.8499 45.1882 49.1018 45.2405C49.3474 45.2927 49.5929 45.3631 49.8449 45.4153C50.0936 45.4675 50.3424 45.5258 50.5911 45.5777C50.8427 45.6331 51.1007 45.6452 51.3462 45.7002C51.5982 45.7557 51.8438 45.8292 52.0865 45.8843C52.3413 45.9425 52.584 46.0285 52.8235 46.0836C53.0811 46.1451 53.3359 46.1696 53.5726 46.2311C53.8366 46.2982 54.0701 46.4055 54.2972 46.4702C54.5736 46.5466 54.8345 46.5683 55.0434 46.6326C55.3874 46.7431 55.602 46.8962 55.7157 46.9761C55.7495 46.9974 55.8355 47.0127 55.8693 47.0437C55.9183 46.8564 55.9307 46.5928 56.0075 46.3014C56.063 46.0868 56.155 45.8505 56.2225 45.5869C56.2808 45.3631 56.2836 45.1055 56.3515 44.8511C56.4098 44.6208 56.5231 44.3942 56.5878 44.1426C56.6461 43.9095 56.7445 43.6796 56.8088 43.4313C56.8703 43.1982 56.898 42.9498 56.9623 42.7043C57.0238 42.4684 57.0913 42.2293 57.156 41.987C57.2171 41.7507 57.2328 41.4963 57.2939 41.254C57.3554 41.0149 57.4691 40.7878 57.5306 40.5455C57.5921 40.3064 57.6101 40.0548 57.6716 39.8125C57.7331 39.5734 57.7886 39.3314 57.8501 39.0891C57.9111 38.8468 58.0032 38.6137 58.0647 38.3746C58.1261 38.1323 58.1507 37.8838 58.2121 37.6415C58.2736 37.3993 58.3411 37.1602 58.3994 36.921C58.4609 36.6756 58.5746 36.4487 58.6361 36.2095C58.6972 35.9642 58.6972 35.7066 58.7555 35.4705C58.817 35.2252 58.8724 34.9829 58.9307 34.7437C58.9922 34.4953 59.1059 34.2684 59.1609 34.0323C59.2224 33.7809 59.2562 33.5355 59.3113 33.3024C59.3727 33.0479 59.468 32.8148 59.5202 32.5848C59.5817 32.3242 59.6275 32.0789 59.677 31.8581C59.738 31.5852 59.7043 31.3215 59.7473 31.1129C59.818 30.7726 59.9165 30.5334 59.9317 30.3923C59.9595 30.1378 59.9502 29.8894 59.9349 29.6502C59.9193 29.3926 59.867 29.1503 59.8088 28.9204C59.7445 28.6689 59.652 28.4389 59.5415 28.2334C59.4157 28.0035 59.2867 27.7888 59.1147 27.6294C58.9243 27.4545 58.7004 27.3503 58.4641 27.2859C58.2121 27.2185 57.9634 27.2307 57.7146 27.2767C57.4659 27.3227 57.2356 27.4239 57.0146 27.5496C56.7875 27.6784 56.5633 27.8102 56.3913 27.982C56.192 28.1782 56.0473 28.399 55.9553 28.6014C55.9155 28.6873 55.8632 28.9296 55.7495 29.2761C55.688 29.4693 55.5683 29.6809 55.4887 29.9354C55.424 30.1439 55.332 30.3616 55.2584 30.6039C55.1909 30.8185 55.1785 31.0608 55.1049 31.2969C55.0374 31.5146 54.9759 31.7415 54.9052 31.9746C54.8377 32.1954 54.7119 32.4039 54.6412 32.6339C54.5736 32.8548 54.4784 33.0724 54.4077 33.3024C54.3402 33.5263 54.2787 33.7563 54.2079 33.9832C54.1404 34.207 54.0789 34.437 54.0086 34.664C53.9347 34.9093 53.8334 35.1393 53.7631 35.3723C53.6863 35.6177 53.6891 35.8783 53.6156 36.1114C53.5388 36.3567 53.4251 36.5836 53.3544 36.8136C53.2776 37.0589 53.2165 37.3012 53.1426 37.5312C53.0658 37.7796 53.0015 38.0188 52.9308 38.2488C52.8541 38.4972 52.7343 38.721 52.6636 38.9509C52.5868 39.1992 52.5961 39.4661 52.5225 39.6931C52.4425 39.9447 52.3445 40.1746 52.2738 40.4016C52.1938 40.656 52.1202 40.8951 52.0495 41.1161C51.9667 41.3737 51.8317 41.5911 51.761 41.8089C51.675 42.0726 51.638 42.3241 51.5705 42.5327C51.4752 42.8148 51.4045 43.0507 51.3342 43.244C51.1867 43.6487 51.0577 43.842 51.0023 43.9035C50.9532 43.9617 50.9902 44.0015 50.9195 44.0228C50.8367 44.0506 50.8335 44.0473 50.7475 44.0293C50.643 44.0015 50.5847 43.891 50.4127 43.3943C50.3516 43.2195 50.293 42.9896 50.2102 42.6951C50.1547 42.4929 50.0784 42.2627 50.0104 41.993C49.9554 41.7784 49.8481 41.5546 49.7866 41.2938C49.7344 41.0731 49.6942 40.8336 49.6331 40.5764C49.5808 40.3522 49.5684 40.1038 49.5101 39.8527C49.4579 39.6256 49.3872 39.3925 49.3321 39.141C49.2799 38.9143 49.2493 38.6688 49.1938 38.4204C49.1416 38.1905 49.0066 37.9727 48.9515 37.7243C48.9021 37.4943 48.8531 37.2552 48.798 37.0068C48.7486 36.7768 48.7241 36.5315 48.6718 36.2831C48.6228 36.05 48.5673 35.8109 48.5151 35.5656C48.4661 35.3325 48.4633 35.0841 48.411 34.8388C48.3616 34.6057 48.2848 34.3726 48.2326 34.1273C48.1836 33.8943 48.067 33.6674 48.0148 33.4221C47.9657 33.189 47.9963 32.9314 47.944 32.686C47.895 32.4499 47.76 32.2291 47.711 31.9838C47.6615 31.7477 47.6523 31.5085 47.6065 31.2877C47.5542 31.0485 47.4807 30.8246 47.4313 30.607C47.379 30.3616 47.3855 30.1224 47.3392 29.9077C47.2842 29.6532 47.1889 29.4325 47.1459 29.2301C47.0812 28.9388 47.0105 28.7118 46.9739 28.5493C46.9153 28.304 46.9064 28.071 46.8172 27.887C46.7067 27.6601 46.5226 27.5189 46.3752 27.3717C46.2064 27.2 46.0436 27.0559 45.8439 26.9701C45.6321 26.8781 45.4139 26.8106 45.1901 26.7922C44.9598 26.7738 44.7231 26.7707 44.5053 26.8014C44.3055 26.829 44.0781 26.967 43.8325 27.1203C43.6392 27.2399 43.464 27.4024 43.3013 27.6202C43.1663 27.8011 42.9914 27.9881 42.9083 28.2488C42.8379 28.4634 42.801 28.7149 42.7857 28.9909L42.7732 29.0001Z" fill="white"/>
</svg>
