<svg width="45" height="31" viewBox="0 0 45 31" fill="none" xmlns="http://www.w3.org/2000/svg">
<path d="M34.3036 0.0726638C34.2299 0.0936923 34.0512 0.377576 33.9039 0.693002C33.6831 1.16614 33.5569 1.29231 33.1152 1.49208C32.3159 1.86008 32.2949 2.27013 33.0626 2.56453C33.6095 2.77482 33.8093 2.9851 33.9986 3.53184C34.1353 3.89984 34.1879 3.94189 34.4929 3.94189C34.7978 3.94189 34.8504 3.89984 34.9766 3.53184C35.1659 2.9851 35.2921 2.85893 35.86 2.58556C36.2281 2.41733 36.3438 2.30168 36.3648 2.07036C36.3963 1.81802 36.3438 1.75494 35.9441 1.58671C35.3973 1.3554 35.0818 1.01894 34.924 0.503747C34.8294 0.198834 34.5875 -0.0535066 34.4613 0.0095787C34.4508 0.0095787 34.3772 0.0411212 34.3036 0.0726638ZM34.6927 2.23859C34.4929 2.42785 34.4718 2.42785 34.2825 2.25962C34.0932 2.09139 34.0932 2.05985 34.2615 1.83905L34.4403 1.59722L34.6822 1.81802L34.9135 2.02831L34.6927 2.23859Z" fill="#292D30"/>
<path d="M26.4796 1.8035C25.6278 2.05584 25.1335 2.8339 25.1335 3.89583V4.55823L24.7654 4.23229C23.7348 3.33858 22.7042 3.28601 21.8944 4.0956C21.6841 4.3164 21.274 4.95777 20.99 5.51502C20.5273 6.44027 20.4852 6.58747 20.5273 7.10267C20.6009 8.03843 21.1688 8.6062 22.2835 8.89008L22.7358 9.01625L22.2204 9.33168C21.4843 9.79431 21.1162 10.3095 21.0531 10.9719C21.0111 11.403 20.9374 11.5817 20.6535 11.8656C20.4642 12.0549 20.2854 12.2126 20.2749 12.2126C20.2539 12.2126 20.2328 11.8656 20.2223 11.445C20.2013 10.5829 19.9489 9.80482 19.4862 9.13191C18.9183 8.3118 17.3724 7.54426 16.0262 7.40758C15.4268 7.35501 15.3637 7.36552 15.248 7.59684C15.0798 7.91226 15.1744 9.75225 15.3953 10.4777C15.858 11.9918 17.1305 12.9801 18.9603 13.2219C19.2338 13.264 19.4546 13.2955 19.4546 13.3061C19.4546 13.3061 19.3389 13.5479 19.1917 13.8318C19.0445 14.1156 18.9288 14.41 18.9288 14.4836C18.9288 14.6729 19.4126 14.9778 19.6018 14.9147C19.686 14.8832 19.9173 14.5362 20.1277 14.1367C20.338 13.7477 20.685 13.2114 20.9059 12.9486L21.316 12.4859L22.2204 13.285C23.1985 14.1682 23.6928 14.3785 24.4079 14.2628C24.9337 14.1682 25.5437 13.7266 25.8697 13.1799C26.0169 12.9381 26.1641 12.7383 26.1957 12.7383C26.2377 12.7383 26.3008 12.917 26.3429 13.1273C26.5532 14.2734 27.3104 14.9673 28.341 14.9778C28.7617 14.9883 29.0562 14.8832 29.8659 14.4836C31.0227 13.8949 31.1805 13.7687 31.4539 13.243C31.843 12.4859 31.6748 11.5502 31.0227 10.8142L30.6862 10.4252L31.2436 10.4882C32.3899 10.6249 33.2733 10.0992 33.5467 9.11088C33.736 8.43797 33.5467 6.91341 33.1786 6.1669C32.8 5.39936 32.3268 5.11548 31.4539 5.11548C31.0017 5.12599 30.6336 5.18908 30.4233 5.30474L30.0763 5.48348L30.2866 4.95777C30.6652 4.01149 30.5285 3.20189 29.887 2.51847C29.582 2.18201 29.298 2.07687 28.1307 1.85607C27.2053 1.68785 26.9108 1.67733 26.4796 1.8035ZM28.0255 2.81287C29.1403 3.02315 29.5504 3.31755 29.5504 3.93789C29.5504 4.36897 28.8669 5.77788 28.3726 6.35616L28.0255 6.7557L27.6364 6.59799C27.4156 6.50336 27.0791 6.42976 26.8792 6.42976C26.5217 6.42976 26.5007 6.40873 26.3429 5.8725C26.101 5.10497 26.0274 3.50681 26.2062 3.17035C26.3429 2.92852 26.7425 2.64464 26.9739 2.64464C27.037 2.64464 27.4997 2.71824 28.0255 2.81287ZM24.4079 5.26268C24.7865 5.64119 25.2282 6.15639 25.3859 6.39822L25.6804 6.83981L25.3964 7.20781C25.2492 7.40758 25.0809 7.70198 25.0389 7.8702L24.9547 8.1646L23.9662 8.15409C22.7673 8.14357 22.1574 7.98586 21.7367 7.57581C21.4738 7.30244 21.4317 7.20781 21.4843 6.85033C21.5684 6.2405 22.3992 4.84211 22.7989 4.63183C23.3142 4.36897 23.6402 4.49514 24.4079 5.26268ZM31.9587 6.15639C32.3373 6.35616 32.4635 6.66107 32.6107 7.71249C32.7685 8.77443 32.6949 9.10037 32.2532 9.38425C31.9692 9.56299 31.801 9.58402 31.2225 9.54197C30.539 9.47888 29.1613 9.1214 28.9825 8.95317C28.9405 8.91111 28.8879 8.65877 28.8669 8.40643C28.8563 8.1646 28.8143 7.82815 28.7722 7.67043C28.6986 7.41809 28.7512 7.35501 29.3611 6.94495C30.0868 6.45079 31.0438 6.0197 31.4224 6.00919C31.5591 6.00919 31.7904 6.07227 31.9587 6.15639ZM27.6154 7.70198C27.9204 7.98586 28.0045 8.36437 27.8678 8.79546C27.6259 9.53145 26.7215 9.72071 26.1641 9.16345C25.8802 8.87957 25.8486 8.78494 25.9012 8.41694C26.0274 7.48118 26.9634 7.09215 27.6154 7.70198ZM17.2251 8.65877C17.5301 8.77443 17.9823 9.01625 18.2242 9.20551C18.7605 9.61556 19.2758 10.5618 19.2233 11.035C19.1917 11.3609 19.1917 11.3609 18.4556 10.4988C17.8456 9.79431 17.6563 9.63659 17.4144 9.63659C17.2462 9.63659 17.0569 9.71019 17.0043 9.81533C16.8781 10.0151 17.0463 10.2885 18.0139 11.4345C18.3504 11.8341 18.5712 12.1705 18.5187 12.1915C18.2978 12.2651 17.2356 11.6448 16.8886 11.2453C16.4259 10.709 16.1945 10.0677 16.1209 9.07934L16.0578 8.3118L16.3628 8.3854C16.531 8.42746 16.9201 8.55363 17.2251 8.65877ZM25.5016 9.85739C25.6804 10.0361 25.8907 10.2044 25.9748 10.2359C26.101 10.278 26.101 10.3516 25.9853 10.7511C25.775 11.4661 25.2597 12.4965 24.9127 12.896C24.2817 13.611 23.6717 13.4638 22.6201 12.3703C22.0312 11.7605 21.9786 11.6658 21.9786 11.2453C21.9786 10.8562 22.0312 10.7301 22.3256 10.4567C22.7252 10.0782 23.3457 9.75225 24.2922 9.42631C24.9127 9.20551 24.9863 9.195 25.0809 9.35271C25.144 9.44734 25.3333 9.67865 25.5016 9.85739ZM29.256 10.3936C30.5916 11.4766 30.9912 12.2862 30.539 12.9275C30.3181 13.243 28.7617 14.021 28.32 14.0315C27.5733 14.0526 27.1632 13.2219 27.058 11.4661L26.9949 10.4567L27.384 10.3831C27.5944 10.341 27.8888 10.1938 28.0466 10.0572C28.2148 9.92048 28.3831 9.79431 28.4357 9.79431C28.4883 9.79431 28.8563 10.0677 29.256 10.3936Z" fill="#292D30"/>
<path d="M37.8174 4.28205C37.7754 4.33462 37.6702 4.51337 37.5966 4.70262C37.5019 4.92342 37.3126 5.11268 37.0497 5.22833C36.7553 5.36502 36.6396 5.49119 36.6185 5.70147C36.587 5.9433 36.6501 6.0169 36.9866 6.17461C37.2495 6.30078 37.4599 6.51107 37.6071 6.78444C37.7648 7.08935 37.891 7.21552 38.1014 7.23655C38.3538 7.26809 38.4169 7.21552 38.5851 6.80546C38.7429 6.43747 38.8691 6.3113 39.153 6.21667C39.7945 6.00638 39.7945 5.54376 39.153 5.2073C38.9006 5.08113 38.6798 4.84982 38.5641 4.59748C38.4379 4.3136 38.3222 4.20845 38.1434 4.20845C38.0067 4.20845 37.8595 4.24 37.8174 4.28205Z" fill="#292D30"/>
<path d="M40.9617 14.3472C40.5936 14.4629 37.5123 16.3344 34.5992 18.2165C34.1049 18.5319 33.537 18.8789 33.3372 18.984C32.9376 19.1943 30.6345 19.9829 30.4347 19.9829C30.3716 19.9829 30.2874 19.8777 30.2454 19.741C30.1402 19.331 29.5828 18.7737 28.9413 18.4268C28.2052 18.0377 26.4489 17.5646 24.556 17.2597C22.4842 16.9232 22.3054 16.8707 19.9497 15.9664C17.4048 14.9991 16.2374 14.6732 14.7546 14.5155C12.9353 14.3157 10.8845 14.6416 9.01262 15.4197C8.38163 15.6825 6.60434 16.5973 6.1311 16.9022C5.91026 17.0494 5.88922 17.0284 5.68941 16.6393C5.57373 16.408 5.32133 16.1241 5.13204 16.0085C4.48002 15.6089 4.17504 15.63 2.4924 16.1347C1.64057 16.387 0.820285 16.6814 0.673054 16.776C0.262912 17.0389 0 17.5541 0 18.0903C0 18.7212 3.04978 29.4246 3.35475 29.8452C3.62818 30.2237 4.16452 30.4971 4.66931 30.4971C4.87964 30.4971 5.74199 30.2868 6.58331 30.0344C8.25543 29.5298 8.62351 29.2985 8.84435 28.6255C8.90745 28.4258 8.939 28.0367 8.91797 27.7529L8.86539 27.2482L9.34914 27.1641C9.61206 27.122 10.5691 27.08 11.463 27.08C13.0825 27.0905 13.1351 27.0905 17.3522 27.9421C19.6974 28.4153 22.2003 28.9305 22.9259 29.0777C24.4823 29.4141 25.7338 29.4036 26.7644 29.0461C27.1115 28.9305 29.3094 27.8895 31.6546 26.733C36.2292 24.4724 36.1136 24.546 39.2159 22.0542C41.6663 20.088 43.5277 18.5109 43.8327 18.1324C44.8843 16.8601 44.3164 14.915 42.7284 14.3472C42.2342 14.179 41.5085 14.1685 40.9617 14.3472ZM42.5707 15.3566C42.9282 15.5143 43.065 15.6615 43.2437 16.0505C43.433 16.4816 43.4435 16.5973 43.3279 16.9758C43.1701 17.5225 42.7705 17.901 40.0257 20.1406C35.5352 23.7995 36.0925 23.442 31.2865 25.8182C28.9203 26.9958 26.7118 28.0367 26.3963 28.1419C25.2921 28.4994 24.4718 28.4153 19.5606 27.4164C12.6198 26.018 12.8301 26.0496 10.9371 26.1232C10.0432 26.1547 9.13881 26.2178 8.92848 26.2493L8.56041 26.3124L8.31853 25.4818C8.19233 25.0297 7.66651 23.2107 7.14068 21.4443C6.62538 19.6779 6.20472 18.1534 6.20472 18.0693C6.20472 17.838 9.59102 16.1662 10.7794 15.8087C11.6523 15.5459 11.8731 15.5248 13.6188 15.5248C15.8168 15.5143 16.2374 15.5984 18.8245 16.5868C21.6429 17.6592 22.3265 17.8695 23.9776 18.1429C25.9441 18.4688 27.8581 18.9525 28.4996 19.2784C29.1306 19.6043 29.4461 20.088 29.4461 20.7083C29.4461 21.3287 29.1727 21.7808 28.6469 22.0331C28.2788 22.2119 28.1316 22.2119 26.6593 22.0962C21.5693 21.6967 17.9306 21.4548 17.7623 21.5074C17.4994 21.5915 17.3837 22.0542 17.573 22.2539C17.6887 22.3591 18.6667 22.4642 21.3484 22.664C23.3466 22.8112 25.5024 22.9689 26.1334 23.032C27.9317 23.1897 28.5733 23.1687 29.0991 22.9163C29.667 22.643 30.1507 22.0647 30.319 21.4864L30.4347 21.0343L31.9175 20.5506C32.7273 20.2773 33.5265 19.9934 33.6948 19.9093C33.8525 19.8251 35.451 18.8368 37.2283 17.7118C39.0161 16.5868 40.6987 15.5564 40.9722 15.4092C41.5611 15.0937 41.9607 15.0832 42.5707 15.3566ZM4.74293 17.0389C4.94274 17.3122 7.99252 27.6477 7.99252 28.0367C7.99252 28.4994 7.66651 28.6991 6.17317 29.1407C4.66931 29.5823 4.30124 29.6034 4.11194 29.2459C3.95419 28.9515 0.946482 18.4162 0.946482 18.1534C0.946482 17.7223 1.19888 17.5541 2.52395 17.144C4.02781 16.6709 4.45898 16.6499 4.74293 17.0389Z" fill="#292D30"/>
</svg>
