<svg width="37" height="41" viewBox="0 0 37 41" fill="none" xmlns="http://www.w3.org/2000/svg">
<path d="M7.26781 0.0193558C6.61042 0.167084 6.21895 0.455151 5.96043 0.95742C5.84224 1.17901 5.79054 1.43753 5.76838 1.9398L5.73884 2.62673H4.06214C3.14623 2.62673 2.25249 2.66366 2.07522 2.7006C1.27011 2.88525 0.561018 3.454 0.221247 4.17786L0.0292023 4.58411L0.00704326 21.3141C-0.0077294 39.7874 -0.0446611 38.4283 0.457609 39.1595C0.59795 39.359 0.886017 39.647 1.10761 39.7947C1.89056 40.3339 0.612723 40.297 18.3547 40.297C34.0876 40.297 34.3313 40.297 34.7893 40.1493C35.6313 39.8908 36.2887 39.2038 36.5103 38.3544C36.6211 37.9334 36.6359 36.5078 36.6137 21.2403L36.5915 4.58411L36.429 4.22956C36.1853 3.71252 35.5944 3.129 35.0552 2.87786L34.5972 2.66366L32.7433 2.6415L30.8893 2.61934L30.8524 1.93242C30.808 1.11992 30.6382 0.735832 30.1507 0.366512C29.4416 -0.172688 28.5035 -0.113598 27.8757 0.521626C27.4916 0.905716 27.3217 1.38583 27.3217 2.12446V2.62673H18.3104H9.29905V2.12446C9.29905 1.17162 8.95928 0.499466 8.32405 0.204014C7.98428 0.0415154 7.51156 -0.0397339 7.26781 0.0193558ZM7.82917 1.24549C8.09508 1.4523 8.11724 1.62219 8.11724 3.72729C8.11724 5.10854 8.08769 5.85456 8.03599 5.98013C7.9178 6.23865 7.58542 6.36422 7.31212 6.25342C7.20133 6.20171 7.06838 6.07615 7.01667 5.98013C6.89849 5.7216 6.90588 1.71821 7.02406 1.49662C7.14224 1.26765 7.31212 1.15685 7.52633 1.15685C7.62974 1.15685 7.76269 1.19378 7.82917 1.24549ZM29.4711 1.36367L29.6853 1.57787V3.69036C29.6853 5.10115 29.6558 5.85456 29.6041 5.98013C29.4785 6.24603 29.1535 6.36422 28.8728 6.24603C28.7473 6.19433 28.6143 6.09092 28.5774 6.01706C28.4666 5.81763 28.4813 1.69605 28.5921 1.49662C28.799 1.09776 29.1535 1.04605 29.4711 1.36367ZM5.75361 4.58411C5.75361 5.32274 5.73884 5.38183 5.51725 5.77331C5.33259 6.10569 5.28088 6.29774 5.25134 6.72614C5.20702 7.45 5.36213 7.90057 5.83486 8.41761C6.32236 8.94943 6.79508 9.15625 7.52633 9.15625C8.25758 9.15625 8.7303 8.94943 9.2178 8.41761C9.65359 7.94489 9.81609 7.50171 9.81609 6.82955C9.81609 6.40115 9.77916 6.26081 9.55757 5.8324C9.31382 5.35967 9.29905 5.30058 9.29905 4.57672V3.80854H18.3104H27.3217V4.5915C27.3217 5.25626 27.2995 5.40399 27.174 5.58126C26.8047 6.10569 26.6939 7.00682 26.9228 7.67898C27.0853 8.15171 27.6615 8.76477 28.149 8.98636C28.4444 9.11932 28.6734 9.15625 29.0944 9.15625C29.8257 9.15625 30.2984 8.94943 30.7859 8.41761C31.5097 7.62728 31.6132 6.54148 31.037 5.64035C30.8893 5.39661 30.8671 5.27104 30.8671 4.58411V3.80854H32.5143C34.2722 3.80854 34.5751 3.85286 34.937 4.1557C35.4319 4.57672 35.4467 4.63581 35.4467 7.775V10.604H18.3104H1.17408V7.79716C1.17408 4.77615 1.18886 4.67274 1.56556 4.25911C1.94226 3.85286 2.17124 3.80854 4.03998 3.80854H5.75361V4.58411ZM7.52633 7.44262C7.85871 7.44262 8.04337 7.3983 8.30189 7.25796C8.6786 7.04376 8.7303 7.11762 8.46439 7.50909C8.01383 8.19603 6.98713 8.18125 6.56611 7.48693C6.33713 7.11023 6.38145 7.05114 6.75076 7.25796C7.00928 7.3983 7.19394 7.44262 7.52633 7.44262ZM29.0575 7.44262C29.3603 7.45 29.5671 7.3983 29.833 7.25796C30.2541 7.04376 30.3058 7.11023 30.0325 7.50909C29.5819 8.19603 28.5552 8.18125 28.1342 7.48693C27.9052 7.11023 27.9495 7.05114 28.3188 7.25796C28.5552 7.39091 28.762 7.44262 29.0575 7.44262ZM35.4467 24.8744C35.4467 37.4459 35.4393 37.9851 35.3063 38.2658C35.1438 38.6203 34.9075 38.8493 34.5455 39.0044C34.3018 39.1004 32.5512 39.1152 18.3104 39.1152C4.06953 39.1152 2.31896 39.1004 2.07522 39.0044C1.71329 38.8493 1.47692 38.6203 1.31442 38.2658C1.18147 37.9851 1.17408 37.4459 1.17408 24.8744V11.7858H18.3104H35.4467V24.8744Z" fill="#292D30"/>
<path d="M13.3389 17.1058C11.2855 17.5563 9.63098 19.1444 9.09916 21.1756C8.92928 21.8256 8.92928 23.1182 9.10655 23.7535C9.73439 26.058 12.7702 29.5 17.0469 32.7426C17.9849 33.4517 18.1843 33.5625 18.4798 33.4813C18.7014 33.4296 20.4593 32.0926 21.6042 31.1102C23.569 29.4262 25.1497 27.7642 26.2133 26.2722C26.8559 25.3711 27.1883 24.7506 27.4394 24.0194C27.6167 23.5023 27.6462 23.3103 27.6462 22.5052C27.6536 21.737 27.6241 21.4859 27.4764 21.0279C26.9741 19.4103 25.8883 18.1472 24.411 17.4825C23.6281 17.1279 23.0815 17.0171 22.1139 17.0097C20.777 17.0024 19.8167 17.32 18.7753 18.1029L18.3173 18.4501L17.852 18.1029C16.5224 17.1279 14.8974 16.766 13.3389 17.1058ZM15.4366 18.2506C16.2122 18.4205 16.8622 18.7751 17.5491 19.4177C17.8815 19.7353 18.2139 19.9938 18.273 19.9938C18.465 19.9938 18.6128 19.8904 19.1298 19.3808C21.4048 17.1427 25.29 18.1325 26.2945 21.1904C26.5457 21.966 26.5383 22.9927 26.2724 23.7461C25.7258 25.2824 23.8053 27.6091 21.1906 29.9137C20.2673 30.7262 18.4207 32.1813 18.3099 32.1813C18.2361 32.1813 16.9804 31.221 16.0719 30.4676C13.1838 28.0597 10.8128 25.2677 10.3327 23.6944C10.1185 23.0148 10.0815 22.3501 10.2145 21.6779C10.6872 19.2847 13.0287 17.741 15.4366 18.2506Z" fill="#292D30"/>
<path d="M30.5864 33.3184L29.087 34.8252L28.5256 34.2417C28.2154 33.9167 27.883 33.636 27.787 33.6139C27.3364 33.4957 26.9228 33.961 27.0927 34.382C27.1813 34.6036 28.5995 36.0218 28.8728 36.1695C28.9614 36.2139 29.1239 36.236 29.2347 36.2065C29.5006 36.1474 32.8319 32.8161 32.8983 32.5355C32.987 32.1809 32.6915 31.819 32.3074 31.8116C32.1154 31.8116 31.879 32.0184 30.5864 33.3184Z" fill="#292D30"/>
</svg>
