<svg width="43" height="25" viewBox="0 0 43 25" fill="none" xmlns="http://www.w3.org/2000/svg">
<path d="M12.7676 0.0397144C13.3005 0.00496488 14.4661 0.183451 15.0353 0.289529C15.8149 0.434803 18.1062 0.573803 18.6834 1.02717C19.4546 1.63296 20.6031 3.09584 21.1879 3.92422C21.2552 3.82554 21.3251 3.72861 21.3974 3.63355C21.8446 3.04588 22.8867 1.70029 23.4799 1.21447C24.5527 0.335668 27.3555 0.44025 28.7239 0.078414C30.0058 -0.260685 30.6538 0.560128 31.4149 1.38784L33.0372 3.15428C33.4932 3.64934 33.9517 4.14161 34.4135 4.6311C34.628 4.85689 35.5129 5.75144 35.6164 5.99772C36.0296 6.97902 36.2977 8.31505 36.6194 9.35841C37.3431 11.7047 38.1353 14.148 39.2427 16.3386C39.8466 17.5336 40.9324 18.7515 41.8343 19.735C41.9944 19.9095 42.3676 20.2383 42.3922 20.4582C42.3635 20.5497 42.3099 20.6594 42.223 20.7114C42.1386 20.7616 42.063 20.7833 41.9682 20.7463C41.7267 20.6515 40.9693 19.6934 40.7411 19.4303C40.1243 18.7178 39.5195 17.9871 39.0286 17.1803C37.7933 15.151 36.7449 11.9699 36.0707 9.6561C35.7898 8.69093 35.5262 7.29758 35.1197 6.43616C35.0199 6.22484 34.8957 6.03771 34.7456 5.85905C34.0905 5.08097 33.3332 4.3637 32.6394 3.61692C31.8651 2.78364 31.1202 1.88568 30.3063 1.09396C30.1671 0.958417 29.9871 0.784916 29.8005 0.725144C29.5806 0.654814 29.3328 0.646584 29.1034 0.658015C28.4354 0.691268 24.6013 1.20698 24.1437 1.46806C23.9338 1.58806 23.1989 2.27287 23.1382 2.49774C23.3178 2.46462 23.5451 2.10927 23.8822 2.00539C25.2905 1.57181 26.8671 1.45264 28.3244 1.22432C28.7954 1.14118 29.512 1.3661 29.8237 1.74909C30.5549 2.64792 35.4888 6.38495 34.8495 7.55201C34.7635 7.61345 34.6858 7.67409 34.5719 7.65189C34.2772 7.59462 34.0697 6.81471 33.9076 6.54989C33.4762 5.84438 32.114 4.74125 31.4577 4.12033C30.7644 3.464 30.0802 2.72549 29.3316 2.13533C29.1757 2.01258 28.9845 1.87288 28.7875 1.83355C28.6 1.79627 28.3818 1.80645 28.1922 1.82545C27.6856 1.87616 27.1818 2.00896 26.6776 2.08707C25.9734 2.19614 25.2419 2.25304 24.5473 2.40937C24.3702 2.44928 24.1749 2.49521 24.0231 2.59763C23.6141 2.87405 21.5836 4.79857 21.5125 5.16652C21.4805 5.33041 21.5183 5.48708 21.6135 5.6235C21.7786 5.85947 22.04 6.02927 22.3264 6.06722C23.2778 6.19321 24.2688 5.13522 24.9621 4.61293C25.9481 4.56534 26.8609 4.43461 27.7886 4.38428C28.1498 4.77525 28.5223 5.2467 28.8818 5.65409C29.6703 6.54727 30.626 7.32489 30.9302 8.52417C31.7308 11.6806 29.4114 15.1153 26.9469 16.8764C25.1621 18.096 22.8659 18.1525 21.7598 20.3343C21.441 20.9138 21.3034 22.1313 21.9735 22.4966C22.2803 22.6641 23.3959 21.7975 23.6711 21.6108C24.6076 20.9757 25.5287 20.5929 26.5907 20.2479C28.408 19.6576 30.1068 19.8572 31.9274 20.2778C34.1628 20.659 34.6118 21.3486 35.8475 23.2207C36.0583 23.5395 36.5641 23.9959 36.3135 24.4079C36.2308 24.4569 36.1913 24.4852 36.089 24.4665C35.8047 24.4149 35.0457 23.116 34.8425 22.8283C33.9363 21.5477 33.4758 21.2126 31.9565 20.8951C31.3742 20.7704 30.7897 20.6565 30.2028 20.5546C27.205 20.1606 24.9921 21.3964 22.6668 23.0083C22.1464 23.3691 21.5873 23.079 21.2157 22.6126C20.2223 23.7245 19.5909 22.8624 18.6529 22.2643C17.8709 21.7601 17.0358 21.3432 16.1626 21.0219C14.1829 20.2978 12.8272 20.3676 10.7921 20.8261C10.2267 20.9533 9.20151 21.1353 8.7526 21.4945C7.84271 22.2522 7.25666 23.3433 6.56916 24.2919C6.31905 24.6369 5.94574 24.4473 5.95464 24.121C6.14281 23.7981 6.43494 23.3932 6.6552 23.0744C7.1616 22.352 8.01118 21.0194 8.88877 20.703C10.1542 20.2466 12.2835 19.8518 13.6055 19.8821C15.4047 19.9241 17.2333 20.6852 18.7418 21.6104C19.2704 21.9347 19.7529 22.3603 20.3345 22.586C20.7406 22.3063 20.9589 21.9218 20.9177 21.4346C20.7041 18.9173 18.1469 18.1937 16.2191 17.3283C15.5456 17.0257 14.795 16.3955 14.265 15.8921C12.6466 14.3558 11.3791 12.1325 11.298 9.86514C11.2566 8.0511 12.1398 7.08456 13.313 5.85947C13.7647 5.38782 14.1992 4.86071 14.6639 4.38253C15.5049 4.41894 16.5346 4.56688 17.466 4.61568C18.1932 5.16236 19.5456 6.65181 20.5794 5.829C21.0948 5.39937 20.9044 4.96006 20.4688 4.56788C19.7768 3.95452 19.0403 3.09892 18.2988 2.57285C17.9626 2.33435 16.462 2.17922 15.9771 2.1138C15.374 2.07044 13.7421 1.57455 13.2747 1.96798C11.8426 3.1737 10.5434 4.55607 9.14594 5.80847C8.96313 5.97228 8.76149 6.18813 8.60616 6.37672C8.34757 6.69063 8.23285 7.30922 7.95706 7.59786C7.73921 7.68211 7.56446 7.61286 7.46803 7.39859C7.48503 6.21187 9.87036 4.33153 10.726 3.48657C11.349 2.87147 12.884 1.15473 13.7419 1.23566C15.219 1.37504 17.0801 1.58495 18.5274 2.00098C18.7618 2.06836 19.2444 2.53357 19.4424 2.71846C18.9822 2.05103 18.445 1.39175 17.6219 1.26468C16.9553 1.17153 16.2139 1.04101 15.5529 0.966064C14.992 0.902509 13.1415 0.520596 12.7096 0.669695C12.1994 0.845853 11.1956 2.05743 10.7752 2.515C10.2251 3.11738 9.67188 3.7168 9.11551 4.31332C8.75014 4.70014 7.48137 5.96272 7.31182 6.34201C6.94438 7.16403 6.66721 8.5824 6.38265 9.50384C5.59164 12.0647 4.7414 14.8064 3.39435 17.1362C2.96917 17.8715 2.30145 18.6767 1.73515 19.3289C1.31084 19.7869 0.923605 20.3215 0.46438 20.7404C0.279783 20.9088 0.058193 20.6465 0 20.4678C0.0478014 20.2117 1.81383 18.3649 2.13718 17.8956C2.51236 17.401 2.89801 16.8361 3.17929 16.282C4.46473 13.7498 5.30965 10.9884 6.09392 8.266C6.30429 7.53576 6.46603 6.59519 6.80691 5.93192C6.96088 5.63227 7.62793 4.98986 7.8854 4.72334C8.30222 4.2903 8.71444 3.85293 9.12208 3.41121L10.8649 1.5228C11.4717 0.864308 11.8616 0.259975 12.7676 0.0397144Z" fill="black"/>
<path d="M14.9263 4.99414C15.6158 5.1205 16.5383 5.17566 17.2512 5.23261C18.0095 5.85531 19.0298 6.79284 20.087 6.67509C20.5156 6.6287 20.9075 6.41318 21.1765 6.0764C22.6084 7.49665 24.0333 6.14395 25.1997 5.20218C26.0165 5.19133 26.699 5.11859 27.5037 5.00225C28.2818 5.93346 29.2483 6.88583 29.9699 7.84813C30.5343 8.60086 30.5792 10.0452 30.3706 10.9445C29.8352 13.2521 28.2394 15.313 26.2596 16.5937C24.158 17.7891 22.6554 17.5526 21.2064 20.1098C19.9873 17.8943 18.6038 17.8407 16.6133 16.8397C16.0354 16.5454 15.4966 16.1801 15.0095 15.7519C13.1791 14.172 11.3752 11.166 12.0769 8.64188C12.3013 7.83471 12.9192 7.21803 13.4707 6.61319C13.9639 6.08073 14.4491 5.54099 14.9263 4.99414Z" fill="white"/>
</svg>
