<svg width="32" height="32" viewBox="0 0 32 32" fill="none" xmlns="http://www.w3.org/2000/svg">
<path d="M19.7603 19.7603C19.2728 20.2667 18.6865 20.6676 18.0378 20.9382C17.389 21.2088 16.6916 21.3434 15.9888 21.3337C14.5774 21.3337 13.2238 20.773 12.2257 19.775C11.2277 18.777 10.667 17.4234 10.667 16.0119C10.667 14.6005 11.2277 13.2469 12.2257 12.2489C13.2238 11.2509 14.5774 10.6902 15.9888 10.6902C17.4002 10.6902 18.7538 11.2509 19.7519 12.2489C20.7499 13.2469 21.3106 14.6005 21.3106 16.0119C21.3201 16.7092 21.1876 17.4012 20.9211 18.0456C20.6546 18.6901 20.2596 19.2735 19.7603 19.7603ZM21.7965 10.1811C21.0363 9.42126 20.1293 8.82421 19.1308 8.4264C18.1323 8.02859 17.0632 7.83836 15.9888 7.86732C13.8266 7.86116 11.7501 8.71263 10.2147 10.235C8.67926 11.7575 7.81015 13.8266 7.79791 15.9888C7.79177 17.0692 8.00004 18.1401 8.41066 19.1394C8.82128 20.1388 9.42609 21.0467 10.1901 21.8107C10.954 22.5746 11.862 23.1795 12.8613 23.5901C13.8607 24.0007 14.9315 24.209 16.0119 24.2028C17.0923 24.209 18.1632 24.0007 19.1626 23.5901C20.1619 23.1795 21.0698 22.5746 21.8338 21.8107C22.5978 21.0467 23.2026 20.1388 23.6132 19.1394C24.0238 18.1401 24.2321 17.0692 24.226 15.9888C24.2399 14.906 24.0315 13.8319 23.6136 12.833C23.1957 11.834 22.5772 10.9314 21.7965 10.1811ZM25.8688 6.10883C25.599 5.84524 25.2575 5.66695 24.887 5.59619C24.5165 5.52543 24.1334 5.56534 23.7854 5.71094C23.4375 5.85654 23.1401 6.10138 22.9304 6.41491C22.7207 6.72844 22.608 7.09679 22.6063 7.47397C22.6049 7.7911 22.682 8.10365 22.8308 8.3837C22.9796 8.66375 23.1955 8.9026 23.4591 9.0789C23.7227 9.2552 24.0259 9.36348 24.3415 9.39407C24.6572 9.42465 24.9755 9.37659 25.2681 9.25417C25.5606 9.13176 25.8183 8.9388 26.0181 8.69252C26.2179 8.44625 26.3536 8.15433 26.4131 7.84282C26.4726 7.53132 26.454 7.20993 26.359 6.90736C26.2641 6.60478 26.0956 6.33044 25.8688 6.10883ZM17.5853 2.86949H19.7834H21.7965C22.5175 2.89178 23.2363 2.96135 23.9483 3.07773C24.4529 3.16321 24.9486 3.29487 25.4291 3.47108C26.1193 3.75353 26.7443 4.17434 27.2656 4.70759C27.7869 5.24083 28.1935 5.8752 28.4602 6.57159C28.6364 7.05211 28.7681 7.5478 28.8536 8.05243C28.97 8.76438 29.0395 9.48321 29.0618 10.2043C29.0618 11.0372 29.0618 11.7082 29.0618 12.2173C29.0618 12.7263 29.0618 13.459 29.0618 14.4154C29.0618 15.3872 29.0618 15.9194 29.0618 16.0119C29.0618 16.0119 29.0618 16.6367 29.0618 17.6085C29.0618 18.5803 29.0618 19.2975 29.0618 19.8066C29.0618 20.3156 29.0618 20.9866 29.0618 21.8196C29.0395 22.5407 28.97 23.2595 28.8536 23.9714C28.7681 24.4761 28.6364 24.9718 28.4602 25.4523C28.1856 26.1294 27.7779 26.7445 27.2612 27.2612C26.7445 27.7779 26.1294 28.1856 25.4523 28.4602C24.9718 28.6364 24.4761 28.7681 23.9714 28.8536C23.2595 28.97 22.5407 29.0395 21.8196 29.0618H19.8066H12.1941H10.1811C9.46007 29.0395 8.74125 28.97 8.02929 28.8536C7.52467 28.7681 7.02897 28.6364 6.54845 28.4602C5.86705 28.1882 5.24746 27.7816 4.72668 27.2648C4.2059 26.748 3.7946 26.1316 3.51736 25.4523C3.34115 24.9718 3.20948 24.4761 3.12401 23.9714C3.00762 23.2595 2.93806 22.5407 2.91577 21.8196C2.91577 20.9866 2.91577 20.3156 2.91577 19.8066C2.91577 19.2975 2.91577 18.5648 2.91577 17.6085C2.91577 16.6367 2.91577 16.1045 2.91577 16.0119C2.91577 16.0119 2.91577 15.3872 2.91577 14.4154C2.91577 13.4436 2.91577 12.7263 2.91577 12.2173C2.91577 11.7082 2.91577 11.0372 2.91577 10.2043C2.93806 9.48321 3.00762 8.76438 3.12401 8.05243C3.20948 7.5478 3.34115 7.05211 3.51736 6.57159C3.79199 5.88156 4.2045 5.2548 4.72965 4.72965C5.2548 4.2045 5.88156 3.79199 6.57159 3.51736C7.05211 3.34115 7.54781 3.20948 8.05243 3.12401C8.76438 3.00762 9.48321 2.93806 10.2043 2.91577H12.2173H17.5853V2.86949ZM31.8847 9.39444C31.9062 6.90948 30.9794 4.50981 29.2932 2.68439C27.4879 0.96993 25.0959 0.00982125 22.6063 0.000366542C21.4185 0.000366542 19.2127 0.000366542 15.9888 0.000366542C12.7649 0.000366542 10.5668 0.000366542 9.39444 0.000366542C6.90948 -0.0211532 4.50981 0.905615 2.68439 2.59183C0.942298 4.42608 -0.0199328 6.86483 0.000366542 9.39444C0.000366542 10.613 0.000366542 12.8112 0.000366542 15.9888C0.000366542 19.1664 0.000366542 21.3723 0.000366542 22.6063C-0.0211532 25.0913 0.905616 27.4909 2.59183 29.3163C4.41725 31.0026 6.81692 31.9293 9.30188 31.9078C10.5205 31.9078 12.7186 31.9078 15.8962 31.9078C19.0739 31.9078 21.272 31.9078 22.4906 31.9078C24.9756 31.9293 27.3752 31.0026 29.2007 29.3163C30.8869 27.4909 31.8136 25.0913 31.7921 22.6063C31.7921 21.3877 31.7921 19.1896 31.7921 16.0119C31.7921 12.8343 31.823 10.6285 31.8847 9.39444Z" fill="#5596EF"/>
</svg>
