<svg width="26" height="24" viewBox="0 0 26 24" fill="none" xmlns="http://www.w3.org/2000/svg">
<path d="M11.2237 0.0687819C8.56174 0.477353 6.22784 1.66592 4.35825 3.57878C3.02725 4.93449 2.21008 6.24687 1.57863 8.0483L1.31862 8.77877L1.17623 8.57449C0.891461 8.15354 0.730502 8.02354 0.513828 8.02354C0.235247 8.02354 0 8.25258 0 8.53116C0 8.69211 0.136195 8.93973 0.588116 9.60211C1.17623 10.4564 1.331 10.6173 1.58482 10.6235C1.7272 10.6235 3.33679 9.65163 3.59061 9.4102C3.93109 9.07592 3.64632 8.46306 3.18202 8.53735C3.07059 8.55592 2.86629 8.64877 2.7301 8.74163C2.58771 8.83449 2.45771 8.89639 2.43914 8.87782C2.38342 8.81592 2.85391 7.63354 3.22535 6.90925C4.87208 3.71497 8.04172 1.52973 11.6571 1.08402C12.53 0.978782 14.2138 1.04069 15.0744 1.21402C19.1293 2.01878 22.3732 5.00878 23.4999 8.98925C23.6051 9.36687 23.7289 9.65782 23.8156 9.7383C24.0632 9.99211 24.509 9.87449 24.6452 9.52782C24.7628 9.2183 24.2428 7.6583 23.6361 6.45735C21.9832 3.21973 18.9993 0.9664 15.3344 0.186401C14.6781 0.050211 14.3934 0.0254488 13.1862 0.0068779C12.2019 -0.011694 11.6261 0.0068779 11.2237 0.0687819Z" fill="#292D30"/>
<path d="M9.07492 5.36298C7.03818 6.55155 5.32955 7.57917 5.28621 7.63488C5.21811 7.72774 5.20573 8.44583 5.21811 11.6463L5.2305 15.5463L5.43479 15.9611C5.56479 16.2211 5.74432 16.4749 5.93623 16.642C6.32006 16.9825 12.9255 20.4244 13.1794 20.4182C13.3589 20.412 19.8344 17.032 20.181 16.7596C20.2987 16.6668 20.5029 16.4377 20.6268 16.252C21.0477 15.6454 21.0477 15.6144 21.0477 11.4792V7.78345L20.9115 7.62869C20.8311 7.54202 19.141 6.56393 17.1476 5.44964C12.9812 3.12822 13.1113 3.19631 12.9193 3.19631C12.8389 3.19631 11.1117 4.16822 9.07492 5.36298ZM16.5904 6.35345C18.3795 7.35012 19.8777 8.19202 19.921 8.22917C19.9582 8.26012 19.9953 8.37774 19.9953 8.48298C19.9953 8.6625 19.9582 8.69345 19.2648 9.05869L18.5405 9.43631L14.9004 7.40583C12.8946 6.28536 11.2479 5.36298 11.2355 5.3506C11.2231 5.33822 11.6069 5.10298 12.0898 4.82441L12.9627 4.31679L13.1484 4.42822C13.2536 4.49012 14.8013 5.35679 16.5904 6.35345ZM13.0741 7.59774C14.6156 8.45821 16.2252 9.35583 16.64 9.59107L17.4076 10.0244L17.0362 10.2287L16.6709 10.4392L13.0432 8.41488L9.4216 6.3906L9.73732 6.18631C9.91685 6.08107 10.1088 6.0006 10.1645 6.00679C10.2202 6.01917 11.5326 6.73726 13.0741 7.59774ZM11.8607 8.95964C13.7675 10.0182 15.3585 10.922 15.4018 10.9654C15.4699 11.0273 15.278 11.1511 14.3618 11.6401C13.7489 11.9682 13.2103 12.2344 13.167 12.2344C13.1298 12.2344 11.5574 11.4358 9.67542 10.4515L6.25196 8.67488V8.45821C6.25196 8.23536 6.25815 8.23536 7.26104 7.64107C7.81202 7.31298 8.29489 7.0406 8.33204 7.0406C8.37537 7.0344 9.96019 7.90107 11.8607 8.95964ZM10.895 12.2777L12.5355 13.132L12.5541 16.0601C12.5603 17.6758 12.5417 18.982 12.5169 18.9696C12.2446 18.8582 6.85246 16.023 6.71007 15.9115C6.59864 15.8311 6.45625 15.6454 6.38197 15.4968C6.25815 15.2368 6.25196 15.1439 6.25196 12.5501V9.87583L7.7563 10.6496C8.57966 11.0768 9.99114 11.8073 10.895 12.2777ZM19.9829 13.1939C19.9644 15.2368 19.9582 15.3049 19.8282 15.5587C19.7477 15.7011 19.6115 15.8682 19.5186 15.9363C19.3391 16.0601 13.7056 19.0439 13.6498 19.0439C13.6313 19.0439 13.6251 17.7315 13.6313 16.1282L13.6498 13.2125L14.857 12.5749L16.0642 11.9311L16.0952 12.8349C16.1261 13.7263 16.1261 13.7325 16.2995 13.8811C16.3923 13.9615 16.5409 14.0296 16.6276 14.0296C16.8009 14.0296 18.59 13.1011 18.7881 12.9092C18.8996 12.7977 18.9119 12.6925 18.9305 11.5968L18.9491 10.402L19.4567 10.1482L19.9644 9.90059L19.9829 10.4949C19.9953 10.823 19.9953 12.0363 19.9829 13.1939ZM17.8905 11.6154V12.2344L17.5686 12.4201C17.389 12.5192 17.2219 12.6058 17.1971 12.6058C17.1662 12.6058 17.1476 12.3273 17.1476 11.993V11.3801L17.4757 11.1944C17.649 11.0892 17.8162 11.0025 17.8471 11.0025C17.8719 10.9963 17.8905 11.2749 17.8905 11.6154Z" fill="#292D30"/>
<path d="M24.2673 12.9583C24.0444 13.045 22.3977 14.1159 22.3172 14.2335C22.181 14.4316 22.2058 14.6916 22.3791 14.865C22.5834 15.0754 22.8496 15.0631 23.2273 14.8278C23.4006 14.7288 23.5492 14.6545 23.5616 14.6669C23.5987 14.704 23.3635 15.4654 23.122 16.0783C21.8591 19.2726 18.999 21.7673 15.5941 22.634C14.0341 23.0364 11.923 23.0426 10.3692 22.6588C9.28581 22.3926 7.961 21.8231 7.05715 21.2412C4.91517 19.8669 3.3675 17.8921 2.53794 15.4778C2.27174 14.6916 2.14793 14.5245 1.84459 14.5245C1.64648 14.5245 1.2998 14.8154 1.2998 14.9826C1.2998 15.1559 1.68363 16.2764 1.94364 16.8769C3.4294 20.2631 6.64857 22.9064 10.2639 23.7173C11.5454 24.0083 13.3407 24.0826 14.6036 23.9031C16.7704 23.5935 18.869 22.6712 20.5776 21.2783C21.2153 20.7583 22.2553 19.6502 22.7072 19.0064C23.4996 17.8983 24.1621 16.5302 24.5149 15.2859L24.6635 14.7783L24.8616 15.0693C25.1216 15.4593 25.2145 15.5273 25.4869 15.5273C25.7593 15.5273 26.0007 15.2983 26.0007 15.0321C26.0007 14.8154 24.8987 13.1812 24.6573 13.0264C24.4778 12.9088 24.4221 12.9026 24.2673 12.9583Z" fill="#292D30"/>
</svg>
