<svg width="32" height="29" viewBox="0 0 32 29" fill="none" xmlns="http://www.w3.org/2000/svg">
<path d="M13.813 0.0830622C10.5369 0.57614 7.66456 2.01055 5.36367 4.31905C3.72562 5.95517 2.71993 7.539 1.94281 9.71302L1.62282 10.5946L1.44758 10.348C1.09711 9.84003 0.899024 9.68314 0.632365 9.68314C0.289516 9.68314 0 9.95956 0 10.2958C0 10.49 0.167615 10.7888 0.723791 11.5882C1.44758 12.6192 1.63805 12.8134 1.95043 12.8209C2.12566 12.8209 4.10656 11.648 4.41893 11.3566C4.83797 10.9532 4.4875 10.2136 3.91609 10.3032C3.77895 10.3256 3.52753 10.4377 3.35991 10.5498C3.18468 10.6618 3.02468 10.7365 3.00183 10.7141C2.93326 10.6394 3.51229 9.21247 3.96942 8.33838C5.99604 4.48341 9.89689 1.84619 14.3463 1.30829C15.4206 1.18128 17.4929 1.25599 18.5519 1.46517C23.5423 2.43639 27.5345 6.04482 28.9212 10.8486C29.0507 11.3043 29.2031 11.6555 29.3097 11.7526C29.6145 12.0589 30.163 11.9169 30.3306 11.4986C30.4754 11.125 29.8354 9.24236 29.0888 7.79301C27.0545 3.88574 23.3823 1.16634 18.8719 0.225009C18.0643 0.0606499 17.7138 0.0307665 16.2282 0.00835323C15.0168 -0.0140591 14.3082 0.00835323 13.813 0.0830622Z" fill="white"/>
<path d="M11.1697 6.52868C8.66314 7.96308 6.56033 9.20325 6.507 9.27049C6.42319 9.38255 6.40796 10.2492 6.42319 14.1116L6.43843 18.8183L6.68985 19.3188C6.84985 19.6326 7.0708 19.9389 7.30698 20.1406C7.77935 20.5515 15.9087 24.7053 16.221 24.6979C16.442 24.6904 24.4113 20.6113 24.838 20.2826C24.9827 20.1705 25.2341 19.8941 25.3865 19.67C25.9046 18.9378 25.9046 18.9004 25.9046 13.9099V9.44979L25.737 9.26302C25.6379 9.15842 23.558 7.97803 21.1047 6.63327C15.9772 3.83169 16.1372 3.91387 15.901 3.91387C15.802 3.91387 13.6763 5.0868 11.1697 6.52868ZM20.419 7.72402C22.6209 8.92683 24.4646 9.94287 24.518 9.98769C24.5637 10.025 24.6094 10.167 24.6094 10.294C24.6094 10.5107 24.5637 10.548 23.7104 10.9888L22.819 11.4445L18.3391 8.99406C15.8706 7.64184 13.844 6.52868 13.8287 6.51373C13.8135 6.49879 14.2859 6.2149 14.8801 5.87871L15.9544 5.2661L16.1829 5.40057C16.3125 5.47528 18.2172 6.5212 20.419 7.72402ZM16.0915 9.22566C17.9886 10.2641 19.9695 11.3474 20.48 11.6313L21.4247 12.1542L20.9676 12.4008L20.5181 12.6548L16.0534 10.2118L11.5964 7.76884L11.985 7.5223C12.2059 7.3953 12.4421 7.29818 12.5107 7.30565C12.5792 7.32059 14.1944 8.18721 16.0915 9.22566ZM14.5982 10.8693C16.9448 12.1468 18.9029 13.2375 18.9562 13.2898C19.04 13.3645 18.8038 13.5139 17.6762 14.1041C16.922 14.5001 16.2591 14.8214 16.2058 14.8214C16.1601 14.8214 14.2249 13.8576 11.9088 12.6697L7.69554 10.5256V10.2641C7.69554 9.99516 7.70316 9.99516 8.93742 9.27796C9.61549 8.882 10.2098 8.55328 10.2555 8.55328C10.3088 8.54581 12.2592 9.59174 14.5982 10.8693ZM13.4097 14.8736L15.4287 15.9046L15.4515 19.4384C15.4592 21.3883 15.4363 22.9646 15.4058 22.9497C15.0706 22.8152 8.43457 19.3935 8.25934 19.2591C8.1222 19.1619 7.94697 18.9378 7.85554 18.7585C7.70316 18.4447 7.69554 18.3327 7.69554 15.2024V11.9749L9.54692 12.9088C10.5602 13.4243 12.2973 14.3059 13.4097 14.8736ZM24.5942 15.9793C24.5713 18.4447 24.5637 18.5269 24.4037 18.8332C24.3046 19.005 24.137 19.2068 24.0227 19.2889C23.8018 19.4384 16.8686 23.0393 16.8001 23.0393C16.7772 23.0393 16.7696 21.4555 16.7772 19.5205L16.8001 16.0017L18.2857 15.2322L19.7714 14.4553L19.8095 15.546C19.8476 16.6218 19.8476 16.6293 20.0609 16.8086C20.1752 16.9057 20.3581 16.9879 20.4647 16.9879C20.6781 16.9879 22.8799 15.8673 23.1237 15.6357C23.2609 15.5012 23.2761 15.3742 23.299 14.0518L23.3218 12.61L23.9466 12.3037L24.5713 12.0048L24.5942 12.722C24.6094 13.118 24.6094 14.5823 24.5942 15.9793ZM22.019 14.0743V14.8214L21.6228 15.0455C21.4019 15.165 21.1961 15.2696 21.1657 15.2696C21.1276 15.2696 21.1047 14.9334 21.1047 14.53V13.7904L21.5085 13.5662C21.7218 13.4392 21.9276 13.3346 21.9657 13.3346C21.9961 13.3272 22.019 13.6634 22.019 14.0743Z" fill="white"/>
<path d="M29.8665 15.6745C29.5922 15.7791 27.5656 17.0716 27.4666 17.2135C27.299 17.4526 27.3294 17.7664 27.5428 17.9756C27.7942 18.2296 28.1218 18.2146 28.5866 17.9307C28.7999 17.8112 28.9827 17.7216 28.998 17.7365C29.0437 17.7813 28.7542 18.7002 28.457 19.4399C26.9028 23.2948 23.3829 26.3056 19.1925 27.3515C17.2726 27.8371 14.6745 27.8446 12.7622 27.3814C11.4289 27.0602 9.79847 26.3728 8.68612 25.6706C6.05 24.012 4.14528 21.6288 3.12436 18.7152C2.79675 17.7664 2.64437 17.5647 2.27104 17.5647C2.02724 17.5647 1.60059 17.9158 1.60059 18.1175C1.60059 18.3267 2.07295 19.6789 2.39295 20.4036C4.22147 24.4902 8.18327 27.6802 12.6327 28.6589C14.2098 29.0101 16.4193 29.0997 17.9735 28.883C20.6401 28.5095 23.2229 27.3963 25.3257 25.7154C26.1104 25.0878 27.3904 23.7506 27.9466 22.9736C28.9218 21.6363 29.737 19.9852 30.1713 18.4836L30.3541 17.871L30.5979 18.2221C30.9179 18.6928 31.0322 18.775 31.3674 18.775C31.7027 18.775 31.9998 18.4985 31.9998 18.1773C31.9998 17.9158 30.6437 15.9435 30.3465 15.7567C30.1256 15.6148 30.057 15.6073 29.8665 15.6745Z" fill="white"/>
</svg>
