<svg width="28" height="27" viewBox="0 0 28 27" fill="none" xmlns="http://www.w3.org/2000/svg">
<path d="M9.63288 0.109146C9.27671 0.229694 8.93699 0.459831 8.71781 0.733803C8.62466 0.854351 8.22466 1.55572 7.83014 2.29545C7.30411 3.28723 7.06849 3.67627 6.94795 3.75846C6.8274 3.84065 6.41644 3.9338 5.39178 4.10915C4.62466 4.24065 3.85205 4.39408 3.67123 4.45435C2.85479 4.72284 2.27945 5.49545 2.27397 6.32832C2.26849 6.48175 2.36164 7.27627 2.47123 8.08723C2.59178 8.94202 2.65753 9.63243 2.63562 9.7201C2.6137 9.81325 2.16438 10.3228 1.47397 11.0352C0.0986301 12.4598 0 12.6187 0 13.4297C0 14.2407 0.0986301 14.3996 1.47397 15.8242C2.16986 16.542 2.6137 17.0461 2.63562 17.1393C2.66301 17.227 2.59178 17.9174 2.46575 18.7886C2.22466 20.5201 2.22466 20.8653 2.46575 21.3585C2.55342 21.5283 2.72877 21.7804 2.86027 21.9119C3.27671 22.3283 3.6 22.4379 5.28219 22.7283C6.38904 22.9201 6.83288 23.0187 6.95342 23.1009C7.06849 23.1831 7.30959 23.5776 7.83562 24.5804C8.64658 26.1146 8.88219 26.4215 9.43014 26.6735C9.80274 26.8434 10.411 26.9037 10.7945 26.805C10.9315 26.7722 11.6767 26.4324 12.4548 26.0598C13.2274 25.6817 13.9233 25.3749 14 25.3749C14.0767 25.3749 14.7726 25.6817 15.5452 26.0598C16.3233 26.4324 17.0685 26.7722 17.2055 26.805C17.589 26.9037 18.1973 26.8434 18.5699 26.6735C19.1123 26.4215 19.3479 26.1146 20.1589 24.5859C20.6027 23.7475 20.937 23.1776 21.0247 23.1119C21.1342 23.0297 21.5671 22.9311 22.6466 22.7448C23.4575 22.6023 24.2192 22.4543 24.3342 22.416C25.1068 22.1639 25.7205 21.3365 25.726 20.542C25.7315 20.3831 25.6384 19.5831 25.5288 18.7722C25.4082 17.9174 25.3425 17.227 25.3644 17.1393C25.3863 17.0461 25.8356 16.5365 26.526 15.8242C27.9014 14.3996 28 14.2407 28 13.4297C28 12.6187 27.9014 12.4598 26.526 11.0352C25.8301 10.3174 25.3863 9.81325 25.3644 9.7201C25.337 9.63243 25.4082 8.96394 25.5233 8.11462C25.7479 6.51463 25.7644 6.18586 25.6438 5.78038C25.474 5.19956 24.8932 4.61325 24.3288 4.44339C24.2082 4.40504 23.4466 4.25709 22.6411 4.11462C21.5616 3.92284 21.1342 3.82969 21.0247 3.7475C20.937 3.68175 20.6027 3.11189 20.1589 2.27901C19.7644 1.5338 19.337 0.799557 19.211 0.657091C18.7671 0.142023 17.8959 -0.120991 17.2055 0.0543518C17.0685 0.0872288 16.3507 0.415995 15.6 0.777639C14.8548 1.13928 14.1644 1.45161 14.0712 1.46805C13.9233 1.49545 13.6603 1.38586 12.5096 0.826954C11.7479 0.454351 11.0137 0.120106 10.8822 0.0762691C10.5479 -0.0223598 9.9726 -0.0114021 9.63288 0.109146ZM11.8137 2.03243C13.2822 2.7612 13.5397 2.85435 14.011 2.85435C14.4603 2.85435 14.8055 2.72285 16.2466 2.00504C17.0904 1.5886 17.5781 1.3749 17.6932 1.3749C18.0712 1.3749 18.1863 1.52832 18.9589 2.99134C19.7589 4.50367 19.989 4.80504 20.5205 5.06257C20.7452 5.17216 21.211 5.27627 22.3781 5.47901C23.2712 5.63791 23.989 5.79134 24.0658 5.84065C24.137 5.88997 24.2356 6.01052 24.2849 6.11462C24.3671 6.28997 24.3616 6.37764 24.1644 7.79134C23.9233 9.54476 23.9233 9.95572 24.1589 10.4324C24.2685 10.6571 24.5973 11.0407 25.4247 11.8954C26.2301 12.7283 26.5589 13.1119 26.5973 13.2434C26.6959 13.6105 26.6137 13.7311 25.4247 14.9639C24.5973 15.8187 24.2685 16.2023 24.1589 16.427C23.9233 16.9037 23.9233 17.3146 24.1644 19.0516C24.3562 20.4324 24.3616 20.542 24.2849 20.7283C24.2411 20.8379 24.1425 20.9694 24.0658 21.0187C23.989 21.068 23.2877 21.216 22.3781 21.3804C21.211 21.5831 20.7452 21.6872 20.5205 21.7968C19.989 22.0543 19.7589 22.3557 18.9589 23.868C18.1863 25.3311 18.0712 25.4845 17.6932 25.4845C17.5781 25.4845 17.0904 25.2708 16.2466 24.8543C14.8055 24.1365 14.4603 24.005 14.011 24.005C13.5397 24.005 13.2822 24.0982 11.8137 24.827C10.9479 25.2543 10.4164 25.4845 10.3014 25.4845C9.93425 25.4845 9.8137 25.3311 9.0411 23.868C8.23562 22.3502 7.98904 22.027 7.46849 21.7859C7.27123 21.6927 6.69041 21.5667 5.62192 21.3804C4.74521 21.2215 4.00548 21.0626 3.93425 21.0187C3.86301 20.9694 3.76438 20.8489 3.71507 20.7448C3.63288 20.5694 3.63836 20.4817 3.83562 19.068C4.07671 17.3256 4.07671 16.9256 3.8411 16.4324C3.73151 16.1968 3.43014 15.8516 2.57534 14.9639C1.76986 14.1311 1.4411 13.7475 1.40274 13.616C1.30411 13.2489 1.3863 13.1283 2.57534 11.8954C3.43014 11.0078 3.73151 10.6626 3.8411 10.427C4.07671 9.9338 4.07671 9.5338 3.83562 7.79134C3.63836 6.37764 3.63288 6.28997 3.71507 6.11462C3.76438 6.01052 3.86301 5.88997 3.93425 5.84065C4.00548 5.79682 4.74521 5.63791 5.62192 5.47901C6.69041 5.29271 7.27123 5.16668 7.46849 5.07353C7.98904 4.83243 8.23562 4.50915 9.0411 2.99134C9.8137 1.52832 9.93425 1.3749 10.3014 1.3749C10.4164 1.3749 10.9479 1.60504 11.8137 2.03243Z" fill="#292D30"/>
<path d="M9.90629 7.25731C8.51451 7.60799 7.59396 8.95046 7.79122 10.3313C7.98848 11.7066 9.13916 12.7148 10.5145 12.7148C11.046 12.7148 11.4077 12.6272 11.857 12.3861C13.2433 11.6464 13.72 9.78882 12.8597 8.46279C12.3556 7.69019 11.583 7.24635 10.657 7.20252C10.372 7.19156 10.0761 7.21347 9.90629 7.25731ZM11.0734 8.68745C11.7145 8.95046 12.0597 9.73402 11.8351 10.4135C11.5063 11.3998 10.1967 11.6573 9.50629 10.8737C9.25423 10.5833 9.16108 10.3313 9.16108 9.94224C9.16656 9.44909 9.40218 9.03265 9.81862 8.78608C10.2296 8.55046 10.6515 8.5121 11.0734 8.68745Z" fill="#292D30"/>
<path d="M17.9719 8.60912C17.7308 8.68036 9.24857 17.1735 9.18282 17.4091C9.04035 17.9078 9.51706 18.3845 10.0102 18.242C10.2677 18.1708 18.7445 9.69953 18.8157 9.442C18.8486 9.33241 18.8486 9.18995 18.8157 9.07488C18.7609 8.8831 18.4924 8.60364 18.3554 8.60364C18.3171 8.60364 18.2513 8.59268 18.2075 8.58173C18.1691 8.57077 18.065 8.58173 17.9719 8.60912Z" fill="#292D30"/>
<path d="M16.6297 14.2682C15.9174 14.5093 15.3694 14.9641 15.0407 15.5723C14.7996 16.0216 14.7119 16.3832 14.7119 16.9148C14.7119 17.9942 15.2982 18.9148 16.29 19.3915C17.9503 20.186 19.8845 19.1668 20.2023 17.3312C20.427 16.0161 19.5777 14.6517 18.2845 14.2517C17.7914 14.0983 17.101 14.1038 16.6297 14.2682ZM18.027 15.6435C18.8708 16.0326 19.0955 17.0189 18.5201 17.786C18.3119 18.0654 17.879 18.2627 17.4845 18.2682C17.3037 18.2682 17.0626 18.2298 16.953 18.186C16.4653 17.9778 16.0818 17.4243 16.0818 16.9312C16.0818 15.9065 17.1174 15.2161 18.027 15.6435Z" fill="#292D30"/>
</svg>
