<svg width="32" height="32" viewBox="0 0 32 32" fill="none" xmlns="http://www.w3.org/2000/svg">
<path d="M16.0003 29.3337C23.3643 29.3337 29.3337 23.3643 29.3337 16.0003C29.3337 8.63633 23.3643 2.66699 16.0003 2.66699C8.63633 2.66699 2.66699 8.63633 2.66699 16.0003C2.66699 21.3417 5.80833 25.9497 10.3443 28.0777L13.3977 13.723C13.4759 13.3819 13.6851 13.0852 13.9801 12.897C14.2751 12.7088 14.6323 12.6441 14.9746 12.7169C15.3169 12.7897 15.6169 12.9941 15.8098 13.2861C16.0027 13.5781 16.073 13.9342 16.0057 14.2777C15.6403 16.0003 15.3203 16.667 15.335 17.467C15.3577 18.7203 15.699 19.3897 16.0297 19.7363C16.367 20.0897 16.8537 20.2803 17.4897 20.2697C18.139 20.2563 18.8737 20.0283 19.5243 19.6177C20.7897 18.823 21.3337 17.4603 21.3337 16.0003C21.3328 15.208 21.1554 14.4258 20.8143 13.7107C20.4733 12.9955 19.9772 12.3653 19.3621 11.8659C18.747 11.3665 18.0284 11.0104 17.2584 10.8235C16.4885 10.6365 15.6866 10.6235 14.9109 10.7854C14.1353 10.9472 13.4055 11.2798 12.7746 11.7591C12.1436 12.2383 11.6273 12.8521 11.2633 13.5558C10.8992 14.2595 10.6966 15.0355 10.67 15.8274C10.6434 16.6193 10.7936 17.4071 11.1097 18.1337C11.2385 18.4553 11.2371 18.8146 11.1056 19.1352C10.9742 19.4558 10.7231 19.7127 10.4055 19.8514C10.0879 19.99 9.72886 19.9996 9.40434 19.8781C9.07982 19.7566 8.81536 19.5135 8.66699 19.2003C8.13622 17.9829 7.91688 16.6525 8.02877 15.3291C8.14065 14.0058 8.58024 12.7311 9.30788 11.6201C10.0355 10.509 11.0283 9.59664 12.1967 8.96519C13.365 8.33374 14.6722 8.0031 16.0003 8.0031C17.3284 8.0031 18.6356 8.33374 19.804 8.96519C20.9724 9.59664 21.9651 10.509 22.6928 11.6201C23.4204 12.7311 23.86 14.0058 23.9719 15.3291C24.0838 16.6525 23.8644 17.9829 23.3337 19.2003C22.843 20.331 21.947 21.2457 20.9443 21.8763C19.9377 22.5097 18.735 22.915 17.5377 22.9363C16.4457 22.9563 15.3083 22.6537 14.3923 21.859L12.8803 28.9683C13.8803 29.2083 14.9257 29.335 15.999 29.335L16.0003 29.3337Z" fill="#5596EF"/>
</svg>
