<svg width="32" height="8" viewBox="0 0 32 8" fill="none" xmlns="http://www.w3.org/2000/svg">
<path d="M16.4976 7.48547C16.1892 7.47779 15.8809 7.47779 15.5725 7.48547C15.1485 7.46244 14.7246 7.44709 14.3006 7.41639C13.1751 7.33195 12.0573 7.16307 10.9626 6.90976C7.17757 6.03469 3.85504 4.27686 0.956505 1.72072C0.686694 1.48277 0.432302 1.23713 0.1702 0.991496C0.108529 0.937763 0.0545675 0.861002 0.023732 0.784241C-0.0225212 0.676776 0.00060516 0.561635 0.0776939 0.477198C0.154783 0.392761 0.278125 0.362055 0.386049 0.408112C0.455429 0.438816 0.524809 0.469521 0.58648 0.507901C3.35397 2.21199 6.37584 3.45552 9.54419 4.19243C10.608 4.43806 11.6795 4.62996 12.7588 4.76813C14.3083 4.96004 15.8732 5.02912 17.4304 4.97539C18.2706 4.95236 19.1032 4.8756 19.9358 4.76813C21.8784 4.5225 23.7979 4.08496 25.6557 3.47087C26.6348 3.14848 27.5907 2.78003 28.5234 2.35016C28.6622 2.2734 28.8318 2.25037 28.986 2.28875C29.2404 2.35016 29.3945 2.61115 29.3329 2.86446C29.3252 2.89517 29.3097 2.93355 29.2943 2.96425C29.2327 3.07939 29.1479 3.17918 29.0399 3.25594C28.1534 3.94679 27.1975 4.5532 26.1876 5.05982C24.2836 6.01934 22.2484 6.70251 20.1516 7.09399C18.9413 7.30892 17.7233 7.43941 16.4976 7.48547Z" fill="#5596EF"/>
<path d="M29.749 0C30.2578 0.0153522 30.7589 0.0460568 31.2522 0.17655C31.391 0.214931 31.522 0.260988 31.6531 0.322397C31.8304 0.391482 31.946 0.560356 31.9692 0.744582C32 0.959512 32.0077 1.18212 31.9923 1.40473C31.8921 2.71734 31.4835 3.98389 30.8051 5.11228C30.5584 5.51911 30.2578 5.88756 29.9109 6.20996C29.8415 6.27904 29.7567 6.33278 29.6642 6.36348C29.5177 6.40186 29.4252 6.3251 29.4175 6.17925C29.4252 6.10249 29.4407 6.02573 29.4715 5.94897C29.7413 5.22742 30.0034 4.51354 30.2115 3.76896C30.3349 3.36213 30.4197 2.94762 30.4736 2.52544C30.4891 2.37191 30.4968 2.21839 30.4814 2.06487C30.4736 1.80388 30.304 1.58128 30.0497 1.50451C29.8107 1.42775 29.564 1.3817 29.3096 1.36634C28.6004 1.33564 27.8912 1.36634 27.1897 1.45846L26.2569 1.5736C26.1567 1.58128 26.0642 1.5736 26.0102 1.48149C25.9562 1.38937 25.9794 1.29726 26.0333 1.20515C26.095 1.12071 26.1721 1.04395 26.2646 0.990217C26.8351 0.583384 27.4749 0.337748 28.1533 0.17655C28.6775 0.0690851 29.2094 0.0153522 29.749 0Z" fill="#5596EF"/>
</svg>
