<svg width="44" height="31" viewBox="0 0 44 31" fill="none" xmlns="http://www.w3.org/2000/svg">
<path d="M36.6499 0.0589771C32.6468 0.332155 30.3878 0.626347 27.7716 1.20422C21.2573 2.65417 15.5625 5.35443 10.4877 9.39956C8.36528 11.0912 4.17302 15.3674 3.17487 16.8489C2.89118 17.2692 3.26943 17.7525 3.74224 17.5844C3.8368 17.5529 4.24657 17.1116 4.63533 16.6073C5.02408 16.1029 5.87514 15.1153 6.52657 14.4008C11.3072 9.16841 17.5588 5.20733 24.3883 3.09545C27.635 2.0868 31.9848 1.27777 35.1264 1.09915L36.1771 1.03611L34.3909 1.49841C27.4879 3.28458 22.6337 5.51203 18.4519 8.83219C16.5712 10.3137 13.955 13.1085 13.0304 14.611C12.7362 15.0943 12.8517 15.4305 13.3035 15.4305C13.5452 15.4305 13.6818 15.3149 14.0285 14.8211C16.5817 11.1962 20.8685 7.74999 25.4916 5.58558C30.2722 3.35813 36.6394 1.65602 42.5338 1.03611C43.1957 0.962564 43.8051 0.857496 43.8787 0.794456C44.0363 0.668373 44.0468 0.279621 43.8787 0.111511C43.7841 0.0169487 42.9015 -0.0145702 40.4429 0.00644302C38.6147 0.0169487 36.9126 0.0379639 36.6499 0.0589771Z" fill="#292D30"/>
<path d="M33.2877 6.34608C31.5015 6.66128 30.4193 6.91344 28.8223 7.39676C24.5985 8.67859 20.07 11.3053 16.5292 14.5414C15.6361 15.3504 15.468 15.6446 15.7622 15.9388C16.0143 16.191 16.298 16.0439 17.2437 15.1928C20.1541 12.5766 23.7054 10.3282 26.9836 9.04633C28.0132 8.64707 30.7976 7.7645 31.0287 7.7645C31.0813 7.7645 30.6085 8.04818 29.978 8.40542C24.8612 11.2423 20.879 15.2664 18.0632 20.4568C16.7708 22.8313 15.2158 26.4877 15.2158 27.1601C15.2158 27.3282 15.2999 27.4543 15.4785 27.5384C15.8042 27.6855 15.9933 27.5384 16.1719 27.013C16.3926 26.3406 17.3802 23.9345 17.8741 22.8733C19.1979 20.0365 21.0787 17.1786 23.075 14.9827C25.8908 11.8832 29.978 9.11988 34.1283 7.50183C35.6833 6.90294 35.9039 6.73483 35.7253 6.34608C35.5677 6.00986 35.221 6.00986 33.2877 6.34608Z" fill="#292D30"/>
<path d="M3.13188 7.52483C3.06884 7.6299 2.91123 7.92409 2.78515 8.18676C2.59603 8.56501 2.43842 8.72261 1.9551 8.96427C1.41925 9.22694 1.3457 9.30049 1.3457 9.56316C1.3457 9.83634 1.41925 9.89938 1.90257 10.12C2.48045 10.3722 2.82718 10.7714 2.96377 11.3598C3.0058 11.5595 3.12137 11.675 3.29999 11.7171C3.6257 11.8011 3.72027 11.7066 4.06699 11.0026C4.29815 10.5193 4.42423 10.4037 4.94958 10.1515C5.46441 9.88887 5.54847 9.81532 5.54847 9.56316C5.54847 9.30049 5.46441 9.22694 4.94958 8.96427C4.41372 8.69109 4.29815 8.58602 4.02497 8.02916C3.68875 7.34622 3.35252 7.15709 3.13188 7.52483ZM3.72027 9.28998L4.00395 9.55265L3.70976 9.86786L3.42607 10.1726L3.15289 9.85735L2.89022 9.54215L3.13188 9.28998C3.26847 9.14289 3.39455 9.02731 3.40506 9.02731C3.42607 9.02731 3.56266 9.14289 3.72027 9.28998Z" fill="#292D30"/>
<path d="M8.31175 13.603C7.92299 13.8027 7.76539 14.0968 6.65166 16.8181C5.8111 18.8669 6.19986 18.6253 3.55212 18.7934C0.914881 18.9615 0.757277 18.9825 0.400042 19.2767C0.0323 19.5919 -0.10429 20.1383 0.0848346 20.5796C0.158383 20.7687 0.977923 21.5672 2.09166 22.5443C3.13184 23.4479 3.97239 24.2675 3.97239 24.362C3.97239 24.4566 3.74124 25.5388 3.44705 26.7576C3.16336 27.9764 2.9217 29.1006 2.9217 29.2582C2.9217 29.9096 3.66769 30.54 4.29811 30.414C4.45571 30.3824 5.53792 29.7625 6.69369 29.0376C7.85995 28.3126 8.82659 27.7242 8.85811 27.7242C8.87912 27.7242 9.79323 28.2706 10.8754 28.9535C11.9682 29.6259 12.9978 30.2353 13.187 30.3089C13.8489 30.5926 14.6159 30.1828 14.742 29.4789C14.7945 29.2057 14.6684 28.4597 14.2797 26.7786C13.9855 25.4968 13.7438 24.3935 13.7438 24.32C13.7438 24.2464 14.5529 23.49 15.53 22.6284C16.5177 21.7773 17.3897 20.9788 17.4738 20.8632C17.6944 20.5585 17.6734 19.739 17.4423 19.4658C17.1271 19.0666 16.8329 19.0035 14.721 18.8459C13.5757 18.7514 12.441 18.6568 12.1993 18.6253L11.7685 18.5728L11.012 16.713C9.8983 13.9813 9.80373 13.8027 9.39396 13.603C8.95267 13.3929 8.74253 13.3929 8.31175 13.603ZM10.0139 16.8706C10.6968 18.4992 11.0435 19.2032 11.2327 19.3398C11.4533 19.5079 11.8526 19.5709 13.4917 19.697C16.213 19.9071 16.6227 19.9702 16.6647 20.1698C16.6858 20.2644 16.2865 20.6741 15.6666 21.2205C13.7123 22.8911 12.9243 23.6476 12.7982 23.9417C12.6931 24.1834 12.7667 24.5932 13.25 26.684C13.5652 28.0394 13.7964 29.1952 13.7753 29.2687C13.7438 29.3423 13.6703 29.4053 13.5967 29.4053C13.5337 29.4053 12.6301 28.88 11.5899 28.239C9.26788 26.8101 9.21535 26.7786 8.78456 26.7786C8.47986 26.7786 7.177 27.5351 4.38216 29.3318C4.2876 29.3843 4.13 29.4053 4.02493 29.3633C3.88834 29.3107 3.86732 29.2267 3.91986 29.006C4.48723 26.7891 5.01258 24.257 4.96004 24.0153C4.90751 23.7421 3.26843 22.1766 1.63986 20.8422C1.30364 20.5691 1.03046 20.2644 1.03046 20.1593C1.03046 19.9492 1.13553 19.9281 4.13 19.7285C5.91617 19.6129 6.37848 19.5184 6.63064 19.2347C6.7147 19.1401 7.19802 18.0579 7.70235 16.8496C8.69 14.4751 8.77405 14.307 8.95267 14.4856C9.01571 14.5486 9.49903 15.6203 10.0139 16.8706Z" fill="#292D30"/>
<path d="M25.7428 18.6566C25.6693 18.6881 25.5012 18.9508 25.3646 19.2555C25.0809 19.8859 24.8813 20.075 24.2824 20.3166C23.5784 20.6003 23.5889 20.9786 24.3349 21.3568C24.9443 21.6615 25.1965 21.9452 25.4066 22.5021C25.5537 22.8803 25.6167 22.9434 25.8794 22.9434C26.1421 22.9434 26.2262 22.8698 26.4048 22.5126C26.6885 21.9137 26.9511 21.6405 27.508 21.3778C27.9073 21.1887 27.9808 21.1047 27.9808 20.842C27.9808 20.5793 27.9178 20.4953 27.5605 20.3377C26.9826 20.0645 26.5939 19.6757 26.4468 19.2239C26.3838 19.0138 26.2577 18.7827 26.1631 18.7091C25.9845 18.5725 25.953 18.5725 25.7428 18.6566ZM26.2156 20.5478L26.5098 20.842L26.2156 21.1362L25.9109 21.4199L25.6273 21.1152L25.3436 20.8105L25.6062 20.5373C25.7533 20.3902 25.8899 20.2746 25.9004 20.2641C25.9109 20.2641 26.0475 20.3902 26.2156 20.5478Z" fill="#292D30"/>
</svg>
