<svg width="28" height="17" viewBox="0 0 28 17" fill="none" xmlns="http://www.w3.org/2000/svg">
<g clip-path="url(#clip0_9251_3081)">
<path d="M19.4577 14.1413V1.55843C19.4577 1.05854 19.0638 0.653809 18.5773 0.653809H5.64606C5.15954 0.653809 4.76562 1.05854 4.76562 1.55843V13.2368C4.76562 13.7366 5.15954 14.1413 5.64606 14.1413H7.29474" stroke="#292D30" stroke-linecap="round" stroke-linejoin="round"/>
<path d="M12.1113 14.1396H19.4574" stroke="#292D30" stroke-width="0.681818" stroke-linecap="round" stroke-linejoin="round"/>
<path d="M24.2378 14.1397H26.3534C26.84 14.1397 27.2339 13.735 27.2339 13.2351V8.74151C27.2339 8.43061 27.0787 8.14115 26.8217 7.97625L24.5795 6.52755C24.4204 6.42435 24.2965 6.27157 24.2287 6.09065L22.9987 2.85814C22.8669 2.51103 22.5408 2.2832 22.1782 2.2832H19.4561" stroke="#292D30" stroke-linecap="round" stroke-linejoin="round"/>
<path d="M9.71992 16.5981C11.0404 16.5981 12.1108 15.4983 12.1108 14.1416C12.1108 12.7849 11.0404 11.6851 9.71992 11.6851C8.39953 11.6851 7.3291 12.7849 7.3291 14.1416C7.3291 15.4983 8.39953 16.5981 9.71992 16.5981Z" stroke="#292D30" stroke-linecap="round" stroke-linejoin="round"/>
<path d="M21.8488 16.5981C23.1693 16.5981 24.2397 15.4983 24.2397 14.1416C24.2397 12.7849 23.1693 11.6851 21.8488 11.6851C20.5284 11.6851 19.458 12.7849 19.458 14.1416C19.458 15.4983 20.5284 16.5981 21.8488 16.5981Z" stroke="#292D30" stroke-linecap="round" stroke-linejoin="round"/>
<path d="M1.85352 3.83643H7.87957" stroke="#292D30" stroke-linecap="round" stroke-linejoin="round"/>
<path d="M1.85352 9.25342H7.87957" stroke="#292D30" stroke-linecap="round" stroke-linejoin="round"/>
<path d="M0.766602 6.5459H6.79137" stroke="#292D30" stroke-linecap="round" stroke-linejoin="round"/>
</g>
<defs>
<clipPath id="clip0_9251_3081">
<rect width="28" height="17" fill="white"/>
</clipPath>
</defs>
</svg>
