<svg width="156" height="59" viewBox="0 0 156 59" fill="none" xmlns="http://www.w3.org/2000/svg">
<g clip-path="url(#clip0_9251_3932)">
<path d="M78 0.5C99.4948 0.5 118.933 3.7805 132.979 9.06738C140.003 11.7115 145.653 14.8474 149.538 18.3047C153.423 21.7624 155.5 25.4993 155.5 29.3594C155.5 33.2195 153.423 36.9563 149.538 40.4141C145.653 43.8714 140.003 47.0082 132.979 49.6523C118.933 54.9392 99.4948 58.2188 78 58.2188C56.5052 58.2187 37.0672 54.9392 23.0215 49.6523C15.9969 47.0082 10.3469 43.8714 6.46191 40.4141C2.57651 36.9563 0.5 33.2195 0.5 29.3594C0.500063 25.4993 2.57651 21.7624 6.46191 18.3047C10.3468 14.8474 15.997 11.7115 23.0215 9.06738C37.0672 3.7805 56.5052 0.500001 78 0.5Z" fill="white" stroke="#73A3C7"/>
<path d="M78.2233 55.5815C118.956 55.5815 151.977 43.8416 151.977 29.3596C151.977 14.8776 118.956 3.1377 78.2233 3.1377C37.4903 3.1377 4.46973 14.8776 4.46973 29.3596C4.46973 43.8416 37.4903 55.5815 78.2233 55.5815Z" fill="#73A3C7"/>
<path d="M29.4763 34.6085C28.2694 34.6085 28.1622 33.9361 27.5587 32.4569L25.2254 26.7554C25.0109 26.2175 24.917 25.8813 24.917 25.572C24.917 24.8324 25.5204 24.4021 26.1105 24.4021C26.9419 24.4021 27.2235 24.9266 27.5051 25.8947L28.846 30.4668C29.0874 31.2333 29.302 31.9863 29.4763 32.4704C29.6506 31.9863 29.8652 31.2333 30.0932 30.4668L31.4475 25.8947C31.7291 24.9266 32.0242 24.4021 32.8422 24.4021C33.4322 24.4021 34.0356 24.8324 34.0356 25.572C34.0356 25.8813 33.9418 26.2175 33.7138 26.7554L31.3939 32.4569C30.7905 33.9361 30.6832 34.6085 29.4763 34.6085ZM36.3151 34.5816C35.4702 34.5816 35.1886 34.0571 35.1886 33.4117V25.6124C35.1886 24.9669 35.4702 24.4425 36.3016 24.4425C37.1465 24.4425 37.4147 24.9535 37.4147 25.572V33.452C37.4147 34.0706 37.133 34.5816 36.3151 34.5816ZM40.5874 34.5816C39.7425 34.5816 39.4743 34.0706 39.4743 33.4386V25.7872C39.4743 25.0341 39.756 24.5097 40.6812 24.5097H43.1218C45.7233 24.5097 46.7827 25.6124 46.7827 27.5219C46.7827 29.2162 45.8172 30.1844 44.5432 30.4937C44.6237 30.8164 44.7712 31.0988 44.9589 31.3677C45.2674 31.798 45.6562 32.2418 46.1658 32.4838C46.6217 32.6721 47.0374 32.8873 47.0374 33.5596C47.0374 34.232 46.5279 34.595 45.911 34.595C45.1333 34.6085 44.5298 34.1916 43.98 33.4924C43.4168 32.8469 42.9877 31.7711 42.7597 30.7088H41.6735V33.4386C41.6735 34.0706 41.4053 34.5816 40.5874 34.5816ZM43.1218 29.0952C43.9398 29.0952 44.6103 28.7052 44.6103 27.6698C44.6103 26.8898 44.1812 26.352 43.095 26.3385L42.0356 26.3251C41.7674 26.3251 41.6735 26.4192 41.6735 26.7016V29.0952H43.1218ZM48.9492 34.6085C48.4128 34.6085 47.8228 34.1916 47.8228 33.4924C47.8228 33.1831 47.9167 32.8469 48.1178 32.3494L50.4243 26.5268C51.0143 25.0476 51.1752 24.4021 52.4492 24.4021C53.7097 24.4021 53.884 25.0476 54.4606 26.5268L56.7671 32.3494C56.9683 32.8469 57.0621 33.1831 57.0621 33.4924C57.0621 34.1916 56.4721 34.6085 55.9491 34.6085C55.1445 34.6085 54.8629 34.0571 54.5947 33.1427L54.2193 31.9728H50.6657L50.2902 33.1427C50.022 34.0571 49.7538 34.6085 48.9492 34.6085ZM51.0546 30.4668H53.8304L53.1465 28.5573C52.9185 27.9118 52.6369 27.105 52.4492 26.4326C52.248 27.105 51.9664 27.9118 51.7385 28.5573L51.0546 30.4668ZM59.3132 34.5144C58.5086 34.5144 58.227 34.0168 58.227 33.3713V25.5989C58.227 24.9669 58.5086 24.4425 59.3266 24.4425C60.1848 24.4425 60.453 24.94 60.453 25.5586V32.2149C60.453 32.3897 60.5335 32.5107 60.748 32.5107H63.1081C63.8725 32.5107 64.1273 33.0621 64.1139 33.5193C64.1139 33.963 63.8591 34.5144 63.0947 34.5144H59.3132ZM71.1526 34.6219C70.1603 34.6219 69.3826 34.4202 68.7121 34.0706C68.122 33.7613 67.76 33.3579 67.76 32.7797C67.76 32.1746 68.1489 31.7174 68.7925 31.7174C69.235 31.7174 69.5435 31.9997 69.8787 32.2418C70.281 32.5107 70.6565 32.8066 71.3538 32.8066C72.0243 32.8066 72.7618 32.4704 72.7618 31.7308C72.7618 30.8298 72.0243 30.6281 70.9113 30.3457C69.0875 29.8751 67.9477 29.0145 67.9477 27.3739C67.9477 25.2493 69.7446 24.4021 71.4611 24.4021C72.7752 24.4021 74.5855 24.9803 74.5855 26.2175C74.5855 26.9033 74.1028 27.2126 73.6066 27.2126C73.1641 27.2126 72.9361 26.984 72.6545 26.7688C72.2791 26.4999 71.9438 26.2444 71.327 26.2444C70.5894 26.2444 70.1201 26.7016 70.1201 27.2932C70.1067 28.0866 70.7101 28.4497 72.0109 28.7859C73.4323 29.1221 74.9074 29.5793 74.9074 31.5963C74.9074 33.8017 72.8691 34.6219 71.1526 34.6219ZM80.788 34.6085C77.9719 34.6085 75.8666 32.6452 75.8666 29.512C75.8666 26.2847 77.9719 24.3887 80.8014 24.3887C83.5906 24.3887 85.7228 26.2847 85.7228 29.512C85.7228 32.6452 83.5906 34.6085 80.788 34.6085ZM80.788 32.6721C82.2899 32.6721 83.5236 31.5291 83.5236 29.5255C83.5236 27.4277 82.2899 26.3116 80.8014 26.3116C79.3129 26.3116 78.0658 27.4277 78.0658 29.5255C78.0658 31.5291 79.3129 32.6721 80.788 32.6721ZM91.6928 34.6085C89.1718 34.6085 86.9323 32.7528 86.9323 29.5658C86.9323 26.2982 89.1315 24.4021 91.8001 24.4021C92.9667 24.4021 93.9725 24.7114 94.6698 25.2224C95.1659 25.5855 95.5012 26.0158 95.5012 26.594C95.5012 27.1857 95.0721 27.5756 94.5088 27.5891C94.0261 27.6025 93.8115 27.3201 93.5702 27.0915C93.2483 26.7688 92.8192 26.3251 91.8001 26.3116C90.1104 26.2982 89.1181 27.6698 89.1181 29.5389C89.1181 31.4484 90.1641 32.7124 91.8135 32.699C92.779 32.6855 93.2349 32.2283 93.5299 31.9594C93.8384 31.6905 94.0663 31.4484 94.4954 31.4484C95.1123 31.4484 95.4743 31.8922 95.4743 32.4704C95.4743 33.1159 94.9648 33.5596 94.4418 33.8958C93.7043 34.3664 92.7924 34.6085 91.6928 34.6085ZM103.389 34.5816C102.946 34.5816 102.531 34.3395 102.236 33.8958C101.337 32.5914 100.211 31.166 99.0977 29.781V33.4655C99.0977 34.0975 98.816 34.5816 97.9712 34.5816C97.1532 34.5816 96.8716 34.0437 96.8716 33.4117V25.6124C96.8716 24.9669 97.1532 24.4425 97.9712 24.4425C98.816 24.4425 99.0977 24.9535 99.0977 25.5586V28.9607L102.048 25.1955C102.504 24.5769 102.879 24.4021 103.281 24.4021C103.925 24.4021 104.368 24.8997 104.368 25.451C104.368 25.8679 104.193 26.1771 103.711 26.6612C102.839 27.5218 101.86 28.5707 101.069 29.3372C101.994 30.2382 103.147 31.5022 103.952 32.4032C104.287 32.7797 104.475 33.1696 104.475 33.5327C104.475 34.0706 104.073 34.5816 103.389 34.5816ZM108.697 34.6219C107.705 34.6219 106.927 34.4202 106.257 34.0706C105.667 33.7613 105.305 33.3579 105.305 32.7797C105.305 32.1746 105.693 31.7174 106.337 31.7174C106.78 31.7174 107.088 31.9997 107.423 32.2418C107.826 32.5107 108.201 32.8066 108.898 32.8066C109.569 32.8066 110.306 32.4704 110.306 31.7308C110.306 30.8298 109.569 30.6281 108.456 30.3457C106.632 29.8751 105.492 29.0145 105.492 27.3739C105.492 25.2493 107.289 24.4021 109.006 24.4021C110.32 24.4021 112.13 24.9803 112.13 26.2175C112.13 26.9033 111.647 27.2126 111.151 27.2126C110.709 27.2126 110.481 26.984 110.199 26.7688C109.824 26.4999 109.488 26.2444 108.872 26.2444C108.134 26.2444 107.665 26.7016 107.665 27.2932C107.651 28.0866 108.255 28.4497 109.555 28.7859C110.977 29.1221 112.452 29.5793 112.452 31.5963C112.452 33.8017 110.414 34.6219 108.697 34.6219Z" fill="white"/>
<path d="M134.961 23.279C134.872 23.0632 134.7 22.8917 134.486 22.8021C134.38 22.7568 134.266 22.7329 134.151 22.7314H129.748C129.514 22.7314 129.29 22.8245 129.125 22.9901C128.96 23.1557 128.867 23.3804 128.867 23.6146C128.867 23.8488 128.96 24.0734 129.125 24.239C129.29 24.4047 129.514 24.4977 129.748 24.4977H132.029L127.106 29.4343L124.208 26.52C124.126 26.4372 124.029 26.3715 123.922 26.3267C123.814 26.2819 123.699 26.2588 123.583 26.2588C123.467 26.2588 123.352 26.2819 123.244 26.3267C123.137 26.3715 123.039 26.4372 122.958 26.52L117.674 31.8187C117.591 31.9008 117.526 31.9985 117.481 32.1061C117.436 32.2137 117.413 32.3292 117.413 32.4457C117.413 32.5623 117.436 32.6777 117.481 32.7854C117.526 32.893 117.591 32.9907 117.674 33.0727C117.755 33.1555 117.853 33.2212 117.96 33.266C118.068 33.3109 118.183 33.334 118.299 33.334C118.415 33.334 118.53 33.3109 118.638 33.266C118.745 33.2212 118.842 33.1555 118.924 33.0727L123.583 28.3922L126.48 31.3065C126.562 31.3893 126.659 31.455 126.767 31.4998C126.874 31.5447 126.989 31.5677 127.106 31.5677C127.222 31.5677 127.337 31.5447 127.444 31.4998C127.552 31.455 127.649 31.3893 127.731 31.3065L133.27 25.7429V28.0301C133.27 28.2643 133.363 28.489 133.528 28.6546C133.694 28.8202 133.917 28.9133 134.151 28.9133C134.385 28.9133 134.608 28.8202 134.774 28.6546C134.939 28.489 135.032 28.2643 135.032 28.0301V23.6146C135.03 23.4992 135.006 23.3851 134.961 23.279Z" fill="white"/>
</g>
<defs>
<clipPath id="clip0_9251_3932">
<rect width="156" height="58.7191" fill="white"/>
</clipPath>
</defs>
</svg>
