<svg width="35" height="40" viewBox="0 0 35 40" fill="none" xmlns="http://www.w3.org/2000/svg">
<path d="M1.82496 0.142403C0.999112 0.426025 0.390153 1.05167 0.123212 1.88586C-0.00191647 2.2529 -0.0102584 3.96299 0.00642543 20.188L0.0314511 38.0814L0.239999 38.4985C0.498598 39.0323 0.999112 39.5329 1.53299 39.7915L1.95009 40H17.3409H32.7317L33.2572 39.7164C33.8412 39.3994 34.0914 39.1408 34.4251 38.5068L34.6503 38.0814V20.0212V1.96093L34.35 1.41871C34.1582 1.06835 33.9163 0.768044 33.6577 0.57618C32.8401 -0.0411224 34.1331 0.000587463 17.3075 0.000587463C3.79365 0.00893021 2.15864 0.0256157 1.82496 0.142403ZM32.74 1.55218C32.8652 1.64394 33.0487 1.82747 33.1405 1.95259C33.3073 2.17783 33.3156 2.29461 33.3407 5.76484L33.3657 9.34352H17.3409H1.3161L1.34113 5.77319L1.36616 2.19451L1.59139 1.90254C2.05853 1.28524 0.657094 1.33529 17.441 1.36032L32.5148 1.377L32.74 1.55218ZM33.3407 24.2672C33.3156 37.8478 33.3156 37.8645 33.1405 38.0897C33.0487 38.2148 32.8652 38.3984 32.74 38.4901L32.5148 38.6653H17.3409H2.16698L1.94175 38.4901C1.81662 38.3984 1.6331 38.2148 1.54134 38.0897C1.36616 37.8645 1.36616 37.8478 1.34113 24.2672L1.32445 10.6782H17.3409H33.3573L33.3407 24.2672Z" fill="#3A729C"/>
<path d="M2.86773 2.89389C2.65918 3.0941 2.65918 3.11078 2.65918 4.6874C2.65918 6.26402 2.65918 6.2807 2.86773 6.48091L3.06793 6.68946H6.66329H10.2587L10.4589 6.48091C10.6674 6.2807 10.6674 6.26402 10.6674 4.6874C10.6674 3.11078 10.6674 3.0941 10.4589 2.89389L10.2587 2.68534H6.66329H3.06793L2.86773 2.89389ZM9.3327 4.6874V5.35475H6.66329H3.99388V4.6874V4.02005H6.66329H9.3327V4.6874Z" fill="#3A729C"/>
<path d="M20.5115 2.81028C18.6262 3.4693 18.0673 5.82171 19.4688 7.21481C20.011 7.76537 20.5115 7.95724 21.3457 7.96558C21.9546 7.96558 22.1131 7.93221 22.4802 7.74035C23.1142 7.40667 23.3728 7.15642 23.6898 6.57248C23.9484 6.08865 23.9734 5.98855 23.9734 5.33788C23.9734 4.67887 23.9484 4.58711 23.6731 4.0866C23.0391 2.93541 21.7044 2.39319 20.5115 2.81028ZM22.0798 4.22841C22.5052 4.5454 22.6387 4.81234 22.6387 5.33788C22.6387 6.14705 22.1549 6.63088 21.3457 6.63088C20.8201 6.63088 20.5532 6.49741 20.2279 6.05528C19.9609 5.69658 19.986 4.95415 20.2779 4.57043C20.4031 4.41193 20.6283 4.22007 20.7784 4.13665C21.1288 3.96147 21.7795 4.00318 22.0798 4.22841Z" fill="#3A729C"/>
<path d="M25.3496 4.01039V4.67774H26.017H26.6843V4.01039V3.34303H26.017H25.3496V4.01039Z" fill="#3A729C"/>
<path d="M28.0195 4.01039V4.67774H28.6869H29.3542V4.01039V3.34303H28.6869H28.0195V4.01039Z" fill="#3A729C"/>
<path d="M30.6875 4.01039V4.67774H31.3549H32.0222V4.01039V3.34303H31.3549H30.6875V4.01039Z" fill="#3A729C"/>
<path d="M25.3496 6.67323V7.34058H26.017H26.6843V6.67323V6.00588H26.017H25.3496V6.67323Z" fill="#3A729C"/>
<path d="M28.0195 6.67323V7.34058H28.6869H29.3542V6.67323V6.00588H28.6869H28.0195V6.67323Z" fill="#3A729C"/>
<path d="M30.6875 6.67323V7.34058H31.3549H32.0222V6.67323V6.00588H31.3549H30.6875V6.67323Z" fill="#3A729C"/>
<path d="M16.1324 12.0684C12.9792 12.4438 10.3098 13.7451 8.20762 15.9391C6.5309 17.6825 5.45479 19.7096 4.92925 22.1037C4.74573 22.9463 4.7207 23.2632 4.7207 24.6897C4.7207 26.1162 4.74573 26.4332 4.92925 27.2757C5.60494 30.3622 7.29835 32.9816 9.83429 34.8835C14.6976 38.5122 21.6214 38.1035 25.9925 33.9159C28.0613 31.9472 29.2626 29.7366 29.8298 26.9003C30.03 25.8659 30.03 23.5302 29.8298 22.4791C29.4795 20.6856 28.7204 18.8504 27.7277 17.4239C27.052 16.4479 25.4086 14.8379 24.441 14.1873C22.2554 12.7358 19.7528 11.985 17.2169 12.0184C16.7581 12.0267 16.2742 12.0517 16.1324 12.0684ZM19.4942 13.5533C23.4483 14.3207 26.7183 17.1653 28.0447 20.9859C28.5118 22.3456 28.6369 23.1298 28.6369 24.6897C28.6369 26.2496 28.5118 27.0338 28.0447 28.3935C27.077 31.1964 25.0416 33.5154 22.3805 34.8501C21.6631 35.2088 20.3034 35.6677 19.4442 35.8428C18.4098 36.0514 16.2325 36.043 15.2148 35.8345C11.6862 35.1004 8.76653 32.8898 7.18156 29.7282C6.8312 29.0275 6.38074 27.7095 6.19722 26.8169C5.98033 25.7658 5.98033 23.6136 6.19722 22.5625C7.20659 17.6742 10.9938 14.1205 15.9322 13.4281C16.683 13.3197 18.6767 13.3948 19.4942 13.5533Z" fill="#3A729C"/>
<path d="M15.755 14.8131C11.6758 15.4888 8.40575 18.617 7.52985 22.6962C7.31297 23.6806 7.31297 25.716 7.52985 26.7003C7.95529 28.6607 8.86456 30.3374 10.2827 31.7555C11.7342 33.207 13.5027 34.1496 15.5464 34.5501C16.4056 34.7252 18.4577 34.7002 19.342 34.5083C22.3701 33.8577 24.9144 31.889 26.2991 29.1362C26.9999 27.7347 27.3085 26.3917 27.3085 24.6983C27.3085 23.3886 27.2084 22.7296 26.8414 21.5951C26.3492 20.0769 25.5484 18.7839 24.3555 17.6076C22.9707 16.2312 21.3941 15.3553 19.5088 14.9299C18.5578 14.713 16.7059 14.6546 15.755 14.8131ZM18.7163 16.1478C19.6089 16.2896 20.4098 16.5566 21.2606 16.982C22.0865 17.3908 22.587 17.7578 23.3294 18.4752C24.7392 19.8349 25.5567 21.3949 25.8904 23.3135C25.9905 23.9225 26.0656 25.3656 25.9988 25.3656C25.9821 25.3656 25.7653 25.2822 25.515 25.1821C24.8393 24.9152 23.88 24.9318 23.2627 25.2155C22.612 25.5158 22.2199 25.8912 21.3858 26.9923C20.4431 28.2352 19.8842 28.5856 19.1168 28.377C18.6246 28.2436 18.2909 27.9516 17.6152 27.059C16.756 25.9329 16.3806 25.5658 15.7633 25.2655C15.3045 25.0319 15.146 24.9986 14.5537 24.9986C13.3608 24.9902 12.7185 25.4073 11.5423 26.9506C11.2086 27.3927 10.7999 27.8682 10.6414 28.01C10.3744 28.2436 9.89061 28.4521 9.61533 28.4521C9.48186 28.4521 9.11482 27.5095 8.90627 26.667C8.3557 24.3813 8.83953 21.7452 10.1909 19.7765C10.5663 19.2427 11.6174 18.1582 12.2013 17.7161C13.9948 16.373 16.4557 15.7808 18.7163 16.1478ZM14.9458 26.375C15.3712 26.4918 15.8217 26.9089 16.5475 27.8682C17.6402 29.3113 18.2993 29.7368 19.4671 29.7368C20.0177 29.7368 20.2179 29.7034 20.61 29.5199C21.2189 29.2363 21.7945 28.694 22.4619 27.7931C23.3962 26.5168 23.9801 26.1581 24.7475 26.3583C25.1563 26.4667 25.6818 26.8255 25.6818 27.0006C25.6818 27.1675 25.3231 28.0851 25.0562 28.619C24.4639 29.7952 23.2377 31.1883 22.1782 31.8806C18.5578 34.2664 14.0282 33.7409 11.0418 30.6043C10.6497 30.1956 10.3327 29.8119 10.3327 29.7535C10.3327 29.6951 10.4745 29.6033 10.6497 29.5533C11.1753 29.3864 11.7592 28.8609 12.5433 27.8348C13.3275 26.8088 13.5694 26.5752 14.0699 26.4C14.4536 26.2665 14.5454 26.2582 14.9458 26.375Z" fill="#3A729C"/>
<path d="M17.3418 17.3207V17.9714L18.1176 18.0715C20.1947 18.3301 21.7964 19.3395 22.9726 21.108C23.1478 21.3749 23.3229 21.5918 23.3646 21.5918C23.4981 21.5918 24.4324 21.0496 24.4324 20.9745C24.4324 20.9328 24.2322 20.5908 23.982 20.2237C23.0977 18.889 21.5962 17.7045 20.1196 17.1706C19.3856 16.912 18.226 16.6701 17.6671 16.6701H17.3418V17.3207Z" fill="#3A729C"/>
</svg>
