<svg width="49" height="40" viewBox="0 0 49 40" fill="none" xmlns="http://www.w3.org/2000/svg">
<path d="M13.2915 0.786678C12.6565 1.21316 12.05 1.64911 11.9457 1.74389C11.6899 1.98082 11.6804 2.49259 11.9363 2.74848C12.1637 2.97593 12.6755 2.99489 12.9408 2.79587C13.1967 2.60632 13.3957 2.6158 13.3104 2.81482C13.2725 2.90959 13.0451 3.47823 12.8081 4.0753C12.4196 5.0799 12.3817 5.23153 12.3722 6.06553C12.3627 6.85215 12.3912 7.03222 12.6091 7.48713C12.7418 7.77145 13.0166 8.19793 13.2062 8.42538C13.9548 9.31625 13.9928 9.68586 13.5947 11.6951L13.3294 12.9934L13.5189 13.2493C13.7558 13.5716 14.2676 13.6379 14.5708 13.3915C14.8741 13.1451 15.3764 10.662 15.3195 9.70482C15.2816 8.9182 14.9404 8.0842 14.4571 7.5819C13.7179 6.80476 13.6137 6.22665 14.0212 5.07042C14.3623 4.10373 14.6846 3.31712 14.7509 3.31712C14.7699 3.31712 14.8741 3.40241 14.9878 3.50666C15.4238 3.91419 16.2009 3.62987 16.2009 3.05175C16.2009 2.58737 15.4332 0.445496 15.1868 0.208563C14.8172 -0.13262 14.5424 -0.0473242 13.2915 0.786678Z" fill="#3A729C"/>
<path d="M22.5878 1.27228C21.5264 2.32426 21.2989 2.59911 21.2515 2.88342C21.1757 3.35729 21.4885 3.69847 21.9813 3.69847C22.2656 3.69847 22.3982 3.61318 22.8816 3.12984L23.4502 2.55172L23.4976 7.83058L23.5449 13.1L23.8103 13.3274C24.1325 13.6023 24.4453 13.6212 24.739 13.3748L24.9665 13.1947L24.9949 7.97273C25.0044 5.10111 25.0423 2.75074 25.0802 2.75074C25.1086 2.75074 25.3645 2.95924 25.6393 3.22461C26.0374 3.6037 26.208 3.69847 26.4638 3.69847C27.023 3.69847 27.3547 3.13931 27.0893 2.64649C27.0325 2.54224 26.4354 1.89779 25.7531 1.2249C24.1136 -0.39572 24.2841 -0.405198 22.5878 1.27228Z" fill="#3A729C"/>
<path d="M33.1929 0.210729C32.975 0.447661 32.2168 2.66535 32.2168 3.0634C32.2168 3.42353 32.5674 3.71733 32.975 3.67942C33.2308 3.66047 33.354 3.57517 33.5246 3.31928C33.771 2.94967 33.9226 2.8549 33.9226 3.0634C33.9226 3.13921 34.0079 3.40458 34.1027 3.66047C34.7945 5.42324 34.8703 5.6507 34.8703 6.07718C34.8703 6.65529 34.7471 6.93013 34.1975 7.60302C33.7142 8.19062 33.3919 8.92037 33.3066 9.64064C33.2214 10.342 33.8279 13.1567 34.1122 13.3842C34.5955 13.7727 35.2494 13.4695 35.2494 12.844C35.2494 12.6639 35.1357 11.9626 35.003 11.2802C34.6808 9.68803 34.7187 9.40371 35.3631 8.56971C36.1023 7.60302 36.3298 7.02491 36.3298 6.11509C36.3298 5.4422 36.2729 5.21474 35.8844 4.14381C35.638 3.4804 35.4389 2.92124 35.4389 2.90228C35.4389 2.88333 35.6095 2.88333 35.818 2.91176C36.3108 2.9781 36.6709 2.6843 36.6709 2.22939C36.6709 1.8503 36.453 1.65128 35.0599 0.722503C33.8658 -0.0735903 33.5341 -0.158886 33.1929 0.210729Z" fill="#3A729C"/>
<path d="M0.20381 17.7225C-0.175267 18.0826 -0.0141596 18.5944 0.592363 18.9735C0.810332 19.1061 1.3979 19.4284 1.8907 19.6937C4.80959 21.2101 7.65267 22.1104 11.1307 22.6222C12.8555 22.8686 16.343 22.8497 18.2858 22.5654C19.0913 22.4516 19.9063 22.3189 20.0864 22.2716C20.2665 22.2147 21.3563 21.9588 22.503 21.6934C23.6497 21.4281 24.9291 21.1248 25.3461 21.03C25.7631 20.9353 26.4928 20.7647 26.9572 20.6509C27.431 20.5467 28.047 20.395 28.3313 20.3287C31.345 19.6084 31.8757 19.5326 34.1122 19.4663C38.8412 19.3146 42.414 20.2339 46.6692 22.6886C47.0861 22.9255 47.4936 23.1245 47.5789 23.1245C47.6642 23.1245 47.8443 23.0392 47.9864 22.9255C48.176 22.7833 48.2328 22.6506 48.2328 22.3853C48.2328 22.1957 48.1949 21.9872 48.157 21.9304C48.0433 21.7598 46.2996 20.7647 45.1718 20.2339C43.8735 19.6179 41.6274 18.8502 40.2248 18.5375C36.7089 17.7604 32.9845 17.7604 29.6107 18.528C28.3787 18.8123 25.9242 19.3905 24.967 19.6179C20.2096 20.7741 19.0629 21.0111 17.1391 21.2291C15.1489 21.4565 13.9264 21.466 12.0689 21.2764C8.31605 20.8784 4.80012 19.7506 1.58744 17.9025C0.876671 17.4855 0.507071 17.4381 0.20381 17.7225Z" fill="#3A729C"/>
<path d="M1.60645 27.2401V28.5195L1.8718 28.6522C4.47795 29.998 6.35438 30.7656 8.22134 31.2205C12.685 32.3294 16.4189 32.2915 21.5554 31.0784C22.0292 30.9741 22.6452 30.8225 22.9295 30.7561C23.2138 30.6898 24.5595 30.3676 25.9147 30.0453C30.9091 28.8512 31.5346 28.7375 33.5911 28.6332C38.0263 28.3963 41.9687 29.2303 45.9869 31.2395L46.8208 31.6565L46.7924 30.2728L46.764 28.8796L45.7499 28.4247C43.665 27.4959 41.4758 26.8515 39.0403 26.444C37.5903 26.1976 34.1028 26.0933 32.596 26.2355C30.6343 26.4345 30.1035 26.5387 25.3461 27.676C24.6733 27.8371 23.4792 28.1215 22.6926 28.3015C21.9155 28.4911 20.9488 28.7185 20.5603 28.8133C16.9591 29.6947 12.9882 29.7989 9.6713 29.0881C7.15044 28.5574 5.03709 27.7708 2.77211 26.5482C2.19401 26.226 1.69174 25.9701 1.66331 25.9701C1.63488 25.9701 1.60645 26.5387 1.60645 27.2401Z" fill="#3A729C"/>
<path d="M0.28935 34.5643C0.185104 34.6591 0.061904 34.8676 0.0334733 35.0287C-0.0707728 35.5594 0.327258 35.8627 2.63963 37.0094C6.74313 39.0376 11.4247 39.9853 16.0305 39.7105C18.3239 39.5778 19.4896 39.3788 23.214 38.4784C24.1238 38.2604 25.2326 37.9951 25.678 37.8908C26.1234 37.7866 26.7205 37.6444 27.0048 37.5781C30.1416 36.8294 31.1936 36.6114 32.255 36.4977C33.4017 36.365 36.4533 36.365 37.5716 36.4882C40.4904 36.8199 43.8168 37.9572 46.4988 39.5399C47.4086 40.0706 47.854 40.137 48.0909 39.7673C48.1857 39.6252 48.2331 39.3882 48.2141 39.1703C48.1857 38.8575 48.1288 38.7722 47.655 38.4689C47.1906 38.1562 45.5132 37.2748 44.5371 36.8389C43.5894 36.4029 41.5613 35.749 40.1208 35.4078C37.8085 34.8676 34.3399 34.7254 31.8285 35.0666C31.0799 35.1708 30.2933 35.2941 30.0848 35.3414C29.8763 35.3983 29.1276 35.5689 28.4263 35.73C27.725 35.8911 26.7015 36.1375 26.1519 36.2607C25.6022 36.3934 24.8156 36.583 24.3986 36.6777C23.9816 36.7725 22.9392 37.0284 22.0768 37.2369C18.7409 38.033 16.8929 38.2889 14.4194 38.2889C10.0127 38.2889 5.73858 37.1326 1.65403 34.8297C0.820058 34.3653 0.592612 34.3179 0.28935 34.5643Z" fill="#3A729C"/>
</svg>
