<svg width="33" height="32" viewBox="0 0 33 32" fill="none" xmlns="http://www.w3.org/2000/svg">
<path d="M12.6874 11.1595L21.3343 15.6832L12.8543 20.1402L12.6874 11.1595ZM4.97537 5.06664L4.50797 5.10003H4.09065L3.67333 5.23357C3.50159 5.26591 3.33374 5.31627 3.17255 5.3838L2.67177 5.6175C2.47745 5.71661 2.29299 5.83399 2.12091 5.96805C1.95958 6.10676 1.80892 6.25742 1.6702 6.41875L1.33635 6.73592C1.0977 7.07549 0.906736 7.44618 0.768796 7.83764C0.543324 8.40569 0.391847 9.00038 0.318092 9.60707C0.0948032 11.3172 -0.0111652 13.0406 0.000929342 14.7651V17.9201C0.000929342 18.4097 0.0343148 19.083 0.101086 19.9399C0.167857 20.7968 0.240192 21.6092 0.318092 22.377C0.390394 22.9966 0.54767 23.6032 0.785488 24.1798C0.923203 24.5465 1.09652 24.8987 1.30296 25.2315L1.58674 25.5653C1.87515 25.8668 2.21412 26.1154 2.58831 26.2998C2.88267 26.4496 3.18995 26.5725 3.50641 26.6671C3.8253 26.747 4.14857 26.8083 4.47459 26.8507H5.1256H5.99363L9.56587 26.9842C11.3798 26.9842 13.5165 27.0232 15.9759 27.1011C20.4273 27.1011 24.1609 26.9898 27.1767 26.7672H27.4772H27.8945H28.3285C28.5003 26.7349 28.6681 26.6845 28.8293 26.617L29.3301 26.4C29.5251 26.3088 29.7098 26.1968 29.8809 26.0661C30.066 25.9248 30.2391 25.7685 30.3984 25.5987L30.6488 25.2983C30.8875 24.9587 31.0784 24.588 31.2164 24.1965C31.4618 23.6202 31.6302 23.014 31.7172 22.3937C31.9412 20.6781 32.0472 18.9491 32.0343 17.219V14.064C32.0343 13.5744 32.0009 12.9011 31.9342 12.0442C31.8674 11.1873 31.795 10.3749 31.7172 9.60707C31.6448 8.98752 31.4876 8.38089 31.2498 7.80425C31.112 7.43764 30.9387 7.08541 30.7323 6.75261L30.3984 6.41875C30.2391 6.24901 30.066 6.09268 29.8809 5.95136C29.7089 5.8173 29.5244 5.69992 29.3301 5.60081L28.8293 5.36711C28.6836 5.30847 28.5327 5.26375 28.3786 5.23357H27.9613H27.544H27.2435H25.9415C25.0401 5.02213 23.6546 4.86076 21.785 4.74948C19.9154 4.63819 17.9846 4.63819 15.9926 4.74948C11.5189 4.74948 7.79088 4.8552 4.80844 5.06664H4.97537Z" fill="#5596EF"/>
</svg>
