<?xml version="1.0" standalone="no"?>
<!DOCTYPE svg PUBLIC "-//W3C//DTD SVG 1.1//EN" "http://www.w3.org/Graphics/SVG/1.1/DTD/svg11.dtd" >
<svg xmlns="http://www.w3.org/2000/svg" xmlns:xlink="http://www.w3.org/1999/xlink" version="1.1">
<metadata>
Created by FontForge 20201107 at Wed Mar 18 07:27:54 2026
 By www-data
Copyright (c) 2020, 2022, The Type Founders, LLC. All rights reserved.
</metadata>
<defs>
<font id="Gelica-Regular" horiz-adv-x="1232" >
  <font-face 
    font-family="Gelica Regular"
    font-weight="400"
    font-stretch="normal"
    units-per-em="2048"
    panose-1="0 0 0 0 0 0 0 0 0 0"
    ascent="1638"
    descent="-410"
    x-height="1031"
    cap-height="1398"
    bbox="-735 -494 2277 1834"
    underline-thickness="133"
    underline-position="-211"
    unicode-range="U+000D-F6C3"
  />
<missing-glyph horiz-adv-x="921" 
d="M922 1288v-1618q0 -59 -26 -81.5t-83 -22.5h-684q-57 0 -83 22.5t-26 81.5v1618q0 59 26 82t83 23h684q57 0 83 -23t26 -82zM471 584l307 522h-614zM524 492l307 -523v1045zM111 1014v-1045l307 523zM164 -123h614l-307 522z" />
    <glyph glyph-name=".notdef" horiz-adv-x="921" 
d="M922 1288v-1618q0 -59 -26 -81.5t-83 -22.5h-684q-57 0 -83 22.5t-26 81.5v1618q0 59 26 82t83 23h684q57 0 83 -23t26 -82zM471 584l307 522h-614zM524 492l307 -523v1045zM111 1014v-1045l307 523zM164 -123h614l-307 522z" />
    <glyph glyph-name=".null" horiz-adv-x="0" 
 />
    <glyph glyph-name="nonmarkingreturn" horiz-adv-x="682" 
 />
    <glyph glyph-name="NULL" horiz-adv-x="0" 
 />
    <glyph glyph-name="NULL" horiz-adv-x="0" 
 />
    <glyph glyph-name="CR" unicode="&#xd;" horiz-adv-x="583" 
 />
    <glyph glyph-name="space" unicode=" " horiz-adv-x="512" 
 />
    <glyph glyph-name="exclam" unicode="!" horiz-adv-x="502" 
d="M488 1257q0 -94 -29 -361t-51 -439q-8 -53 -40 -53q-28 0 -43 49q-19 64 -44 370t-25 439q0 85 29 125t92 40q58 0 84.5 -41t26.5 -129zM503 125q0 -62 -42 -99.5t-100 -37.5q-53 0 -89 31.5t-36 90.5q0 63 42 102t98 39q52 0 89.5 -33.5t37.5 -92.5z" />
    <glyph glyph-name="quotedbl" unicode="&#x22;" horiz-adv-x="785" 
d="M343 853q-40 0 -51 59q-12 68 -29 214t-17 180q0 52 22.5 86.5t74.5 34.5t74.5 -34.5t22.5 -86.5q0 -33 -17.5 -178t-30.5 -216q-11 -59 -49 -59zM688 853q-40 0 -51 59q-12 68 -29 214t-17 180q0 52 22.5 86.5t74.5 34.5t74.5 -34.5t22.5 -86.5q0 -33 -17.5 -178
t-30.5 -216q-11 -59 -49 -59z" />
    <glyph glyph-name="numbersign" unicode="#" horiz-adv-x="1187" 
d="M1090 419h-158q-52 -410 -56 -423q-10 -20 -45 -20q-66 0 -66 34q0 15 3 30l45 379h-166q-50 -406 -55 -423q-8 -20 -44 -20q-28 0 -48 8.5t-20 25.5q0 10 4 30l45 379h-178q-19 0 -19 21q0 51 10 83q6 16 12.5 21.5t24.5 5.5h166l34 274h-178q-19 0 -19 22q0 55 11 85
q4 14 11 19t25 5h166q53 422 59 440q6 17 47 17q62 0 62 -32q0 -16 -3 -33q-21 -180 -47 -392h165q52 417 60 440q6 17 48 17q62 0 62 -32q0 -3 -2 -15.5t-2 -17.5q-30 -249 -47 -392h172q18 0 18 -21q0 -52 -10 -85q-6 -15 -12.5 -20t-24.5 -5h-159l-33 -274h171
q18 0 18 -22q0 -42 -10 -83q-5 -16 -12 -21t-25 -5zM697 824l-33 -274h164q6 51 18 147.5t16 126.5h-165z" />
    <glyph glyph-name="dollar" unicode="$" horiz-adv-x="1187" 
d="M773 1510q0 -22 -3 -113q211 -19 309 -125q24 -26 40.5 -82t16.5 -114q0 -53 -10 -76t-32 -23q-14 0 -27 11t-20.5 23.5t-22.5 39t-24 40.5q-97 149 -234 186l-17 -470q58 -18 100.5 -32.5t92 -36t85 -43.5t70 -52.5t56 -64.5t34.5 -78.5t13 -95.5q0 -76 -25.5 -140.5
t-70.5 -110.5t-106 -79t-131 -50t-147 -20l-4 -109q-1 -26 -25 -45t-56 -19q-20 0 -26.5 10t-6.5 38q0 19 3 130q-100 14 -185.5 60t-136 102.5t-78 111t-27.5 92.5q0 22 9 36.5t22 14.5q12 0 21 -8t25 -32.5t26 -36.5q131 -179 329 -210q4 134 18 501q-67 21 -119 42
t-107.5 54.5t-91.5 72t-59 94t-23 121.5q0 112 60.5 196t155 127.5t211.5 51.5q3 93 5 107q2 22 26.5 41t56.5 19q30 0 30 -56zM397 1075q0 -88 60 -140.5t178 -92.5q16 441 16 447q-114 -4 -184 -63.5t-70 -150.5zM1016 356q0 52 -18 91t-57 67.5t-84.5 48.5t-115.5 42
l-16 -472q130 6 210.5 65.5t80.5 157.5z" />
    <glyph glyph-name="percent" unicode="%" horiz-adv-x="1536" 
d="M803 1041q0 -173 -98 -278.5t-258 -105.5q-156 0 -245 102t-89 257q0 173 101.5 289t259.5 116q145 0 237 -105t92 -275zM1283 1336q-25 -45 -416.5 -679t-406.5 -655q-21 -28 -48 -28q-22 0 -40 12t-18 31q0 14 10 32q12 23 161.5 264.5t356.5 574.5t310 503
q15 24 44 24q24 0 41 -13.5t17 -30.5q0 -15 -11 -35zM644 1012q0 126 -36 206q-24 51 -64 79t-83 28q-73 0 -124.5 -73t-51.5 -205q0 -116 33 -180q25 -50 65 -76t86 -26q75 0 125 63t50 184zM1536 370q0 -174 -98 -279t-257 -105q-156 0 -245.5 101.5t-89.5 256.5
q0 173 101.5 289.5t259.5 116.5q145 0 237 -105t92 -275zM1377 340q0 126 -36 206q-24 51 -64 79t-83 28q-73 0 -124.5 -73t-51.5 -205q0 -113 34 -179q25 -51 65 -77t85 -26q75 0 125 63t50 184z" />
    <glyph glyph-name="ampersand" unicode="&#x26;" horiz-adv-x="1544" 
d="M1549 152q0 -72 -46 -123.5t-117 -51.5q-76 0 -203 85q-7 5 -21.5 15t-22 15t-16.5 9.5t-15 4.5q-8 0 -18 -5.5t-29 -19t-27 -18.5q-153 -98 -366 -98q-129 0 -233 33.5t-171 92.5t-103 136.5t-36 166.5q0 133 79 240t211 174q39 20 39 34q0 6 -18 39.5t-36.5 90
t-18.5 118.5q0 139 100 236t260 97q132 0 222 -73t90 -191q0 -111 -70.5 -187t-200.5 -139q-48 -21 -48 -33q0 -9 14 -31q79 -102 214.5 -238.5t167.5 -136.5q24 0 42.5 64.5t18.5 129.5q0 100 -36 160q-12 20 -33 36.5t-34.5 29t-13.5 28.5q0 14 6.5 22.5t26 13t37.5 6
t57 2.5q53 3 98.5 7.5t69.5 7t37 2.5q22 0 37 -10.5t15 -33.5q0 -17 -13 -33t-30.5 -28.5t-38.5 -40.5t-33 -64q-10 -34 -23.5 -130.5t-40.5 -174.5q-2 -6 -16.5 -40t-14.5 -50q0 -21 77 -66t127 -45q23 0 43 12t26 12q28 0 28 -59zM575 1117q0 -69 32.5 -135t54.5 -66
q11 0 37.5 8t63.5 26.5t70.5 43.5t57 63t23.5 81q0 67 -46 110.5t-113 43.5q-77 0 -128.5 -52t-51.5 -123zM717 114q94 0 176 35t82 65q0 8 -6.5 16.5t-25.5 26t-44 40.5t-72.5 71t-100.5 106q-61 68 -106.5 127.5t-60 78t-22.5 18.5q-16 0 -47 -18.5t-65 -50t-59 -84.5
t-25 -112q0 -131 101.5 -225t274.5 -94z" />
    <glyph glyph-name="quotesingle" unicode="'" horiz-adv-x="440" 
d="M343 853q-40 0 -51 59q-12 68 -29 214t-17 180q0 52 22.5 86.5t74.5 34.5t74.5 -34.5t22.5 -86.5q0 -33 -17.5 -178t-30.5 -216q-11 -59 -49 -59z" />
    <glyph glyph-name="parenleft" unicode="(" horiz-adv-x="739" 
d="M506 590q0 -248 72 -469.5t184 -332.5q10 -10 28 -26t24.5 -23t12.5 -17.5t6 -21.5q0 -34 -43 -34q-58 0 -145 69.5t-156 171.5q-83 120 -136.5 290t-53.5 383q0 212 54 382.5t137 292.5q74 110 159 175.5t141 65.5q43 0 43 -35q0 -10 -6 -20.5t-12 -17t-24 -22.5
t-29 -27q-112 -112 -184 -323.5t-72 -460.5z" />
    <glyph glyph-name="parenright" unicode=")" horiz-adv-x="739" 
d="M439 571q0 248 -72 470t-184 333q-9 9 -23 21.5t-20.5 19t-13.5 15t-10 16t-3 15.5q0 35 43 35q57 0 144 -69t156 -172q190 -277 190 -672q0 -212 -54 -383t-137 -293q-74 -110 -158.5 -175.5t-140.5 -65.5q-43 0 -43 34q0 9 2.5 16t10 15.5t13.5 15t20 19t24 22.5
q112 112 184 323.5t72 459.5z" />
    <glyph glyph-name="asterisk" unicode="*" horiz-adv-x="926" 
d="M846 1276q35 0 59.5 -24t24.5 -63q0 -30 -23 -54.5t-61 -24.5q-16 0 -81 2t-76 2q-27 0 -27 -20q0 -14 27 -35t59 -41t59 -50t27 -60q0 -36 -26 -60t-58 -24q-41 0 -67 36t-35 78.5t-21 78.5t-28 36q-12 0 -21.5 -23.5t-14.5 -50.5q-19 -85 -44 -119.5t-70 -34.5
q-32 0 -56 25.5t-24 59.5q0 31 25.5 61.5t56 50t56 40t25.5 34.5q0 18 -18 18q-15 0 -76.5 -2t-75.5 -2q-39 0 -63.5 25.5t-24.5 58.5t24 59t58 26q31 0 70.5 -27.5t73.5 -54.5t53 -27q13 0 13 24q0 12 -24.5 83.5t-24.5 97.5q0 36 25 58t57 22q34 0 58.5 -22t24.5 -58
q0 -29 -24.5 -98t-24.5 -83q0 -23 17 -23q16 0 49.5 26.5t74 52.5t72.5 26z" />
    <glyph glyph-name="plus" unicode="+" horiz-adv-x="1101" 
d="M735 1068v-328h339q28 0 28 -32q0 -36 -15 -81q-7 -18 -20 -25.5t-47 -7.5h-285v-340q0 -36 -66 -36q-43 0 -62 9t-19 32v335h-339q-28 0 -28 34q0 39 15 80q8 17 21 24.5t46 7.5h285v333q0 36 66 36q43 0 62 -9t19 -32z" />
    <glyph glyph-name="comma" unicode="," horiz-adv-x="493" 
d="M276 -323q-15 0 -24.5 8.5t-9.5 20.5q0 10 14 30.5t31 42.5t31 58t14 74q0 21 -11 39t-27 33t-32.5 31.5t-27.5 41.5t-11 56q0 62 40.5 100.5t92.5 38.5q64 0 103.5 -43.5t39.5 -129.5q0 -77 -24.5 -153t-59.5 -129t-73 -86t-66 -33z" />
    <glyph glyph-name="hyphen" unicode="-" horiz-adv-x="733" 
d="M625 461h-428q-47 0 -47 43q0 47 19 80q9 18 28.5 25.5t59.5 7.5h430q46 0 46 -39q0 -48 -19 -82q-19 -35 -89 -35z" />
    <glyph glyph-name="period" unicode="." horiz-adv-x="493" 
d="M493 125q0 -62 -41.5 -99.5t-99.5 -37.5q-54 0 -90.5 31.5t-36.5 90.5q0 63 42.5 102t98.5 39q52 0 89.5 -33.5t37.5 -92.5z" />
    <glyph glyph-name="slash" unicode="/" horiz-adv-x="688" 
d="M681 1353q-12 -39 -252.5 -686.5t-249.5 -664.5q-14 -28 -41 -28q-24 0 -45 9.5t-21 25.5q0 13 5 25q7 27 249 674.5t257 682.5q5 13 13 18.5t29 5.5q22 0 42.5 -9.5t20.5 -23.5q0 -12 -7 -29z" />
    <glyph glyph-name="zero" unicode="0" horiz-adv-x="1282" 
d="M1282 679q0 -333 -159 -518.5t-418 -185.5q-133 0 -241 53t-179 146t-109.5 220t-38.5 275q0 215 73.5 386.5t205 268.5t296.5 97q120 0 224.5 -52.5t181 -147.5t120.5 -235t44 -307zM1070 637q0 242 -75 411q-50 114 -128.5 178.5t-170.5 64.5q-137 0 -236 -155.5
t-99 -422.5q0 -217 59 -359q27 -66 66 -114.5t81.5 -74.5t83 -37.5t81.5 -11.5q147 0 242.5 135t95.5 386z" />
    <glyph glyph-name="one" unicode="1" horiz-adv-x="766" 
d="M555 1418q23 0 35 -13t12 -33q0 -19 -4 -98t-7.5 -228.5t-3.5 -340.5q0 -470 9 -526q5 -28 35 -47t63.5 -27t61 -23.5t27.5 -39.5q0 -20 -13.5 -33.5t-38.5 -13.5t-119 2.5t-117 2.5q-26 0 -129 -2.5t-126 -2.5q-26 0 -41 13.5t-15 33.5q0 24 27.5 39.5t61 23.5t64.5 27
t36 47q10 52 10 526q0 239 -3 327.5t-12 115.5q-8 26 -38 26q-15 0 -49 -8.5t-47 -8.5q-21 0 -32 12t-11 30q0 33 51 57q80 40 154 83.5t106 61t53 17.5z" />
    <glyph glyph-name="two" unicode="2" horiz-adv-x="1121" 
d="M380 196q0 -22 172 -22q319 0 435 73q20 13 43 33t38 31t28 11q32 0 32 -50q0 -16 -5.5 -47t-16.5 -83.5t-16 -80.5q-8 -41 -22.5 -54t-55.5 -13l-160 3q-160 3 -279 3q-117 0 -214.5 -1.5t-153 -3t-71.5 -1.5q-58 0 -58 41q0 32 47 81l171 168q21 20 74 70.5t74.5 71
t67 65.5t65.5 68.5t55 65t51.5 68.5t39 66.5t32.5 71.5t17.5 70.5t7.5 76.5q0 68 -24 121.5t-64 84.5t-88.5 47t-101.5 16q-106 0 -189.5 -60t-122.5 -158q-21 -44 -38 -44q-31 0 -31 59q0 40 17 89t54.5 100.5t89 93.5t129.5 69t168 27q116 0 210.5 -43t153.5 -132t59 -210
q0 -58 -15.5 -116t-31 -100.5t-60.5 -103t-65.5 -88.5t-88 -93.5t-86 -82.5t-98.5 -88q-33 -30 -50 -45q-108 -99 -119 -113q-6 -8 -6 -12z" />
    <glyph glyph-name="three" unicode="3" horiz-adv-x="1172" 
d="M1022 1164q-39 -48 -84.5 -95.5t-76 -75.5t-65 -58.5t-41.5 -37.5q-21 -21 -21 -29q0 -9 21 -15q29 -7 56.5 -15.5t71.5 -27t80.5 -40t76.5 -56.5t67.5 -75t45.5 -97t18 -121q0 -193 -145 -318t-372 -125q-126 0 -233.5 43.5t-172 107.5t-100 132t-35.5 123q0 52 30 52
q11 0 19 -8.5t21 -32.5q25 -45 61 -85t87.5 -77.5t124 -60t155.5 -22.5q159 0 248 76.5t89 206.5q0 39 -9.5 73t-24 60t-38.5 49t-45.5 38.5t-54 30t-54.5 23t-55.5 17.5t-50 12.5t-44.5 8.5q-59 11 -59 58q0 7 1.5 13.5t7 14t10.5 13.5t17 18t22 21t30.5 27.5t37.5 33.5
q226 206 226 256q0 17 -181 17q-166 0 -243 -19t-120 -64q-8 -9 -19 -23t-17 -22t-16 -14t-21 -6q-34 0 -34 49q0 18 5.5 50.5t15 83t14.5 79.5q9 45 21.5 56.5t60.5 11.5q5 0 119.5 -3t235.5 -3q82 0 179 1.5t163 3t73 1.5q18 0 29 -11.5t11 -27.5q0 -27 -37 -84.5
t-82 -111.5z" />
    <glyph glyph-name="four" unicode="4" horiz-adv-x="1192" 
d="M954 1364q0 -13 -14 -365.5t-14 -502.5q0 -18 7 -24.5t26 -6.5q70 0 119 13t73 26t34 13q35 0 35 -57q0 -28 -12.5 -72.5t-29.5 -70.5q-24 -37 -88 -37h-133q-31 0 -31 -30q0 -69 6 -119t14 -70t14 -35.5t6 -25.5q0 -41 -64 -66q-50 -18 -100 -18q-34 0 -51.5 32.5
t-17.5 133.5v165q0 16 -8 24.5t-32 8.5h-439q-49 0 -79 19q-35 22 -56 55.5t-21 63.5q0 43 50 133t130.5 200t141.5 189t122 153q107 131 212 229t150 98q22 0 36 -13.5t14 -42.5zM280 482q0 -20 37 -20h389q32 0 32 37q3 119 8 251.5t8.5 216.5t3.5 107q0 34 -12 34
q-18 0 -97 -87q-72 -82 -220.5 -282.5t-148.5 -256.5z" />
    <glyph glyph-name="five" unicode="5" horiz-adv-x="1172" 
d="M1139 455q0 -206 -152.5 -341.5t-387.5 -135.5q-102 0 -193 28t-154 71t-110 96t-69 103t-22 91q0 46 30 46q3 0 6 -1t5 -2t5.5 -4t5 -5t5 -6t5.5 -6.5t6 -8t6 -8.5q65 -100 174.5 -162.5t256.5 -62.5q164 0 260.5 84.5t96.5 222.5q0 141 -103 219.5t-292 78.5
q-64 0 -119.5 -12t-92 -24.5t-54.5 -12.5q-39 0 -39 57q0 90 30.5 297.5t58.5 299.5q7 23 18 32.5t32 9.5q8 0 99 -3t169 -3q136 0 217.5 6.5t111 12.5t39.5 6q32 0 32 -29q0 -12 -4.5 -25t-16.5 -42t-23 -62q-13 -47 -66 -47q-125 0 -280.5 8t-176.5 8q-22 0 -31 -6.5
t-15 -29.5q-12 -40 -32.5 -157.5t-20.5 -159.5q0 -33 15 -33q8 0 47.5 10.5t103 21.5t129.5 11q119 0 214 -33.5t154.5 -92.5t90.5 -136.5t31 -168.5z" />
    <glyph glyph-name="six" unicode="6" horiz-adv-x="1191" 
d="M137 636q0 174 48.5 322.5t130.5 249t192 157t231 56.5q67 0 126 -17.5t99.5 -44.5t70 -59.5t43.5 -62.5t14 -54q0 -43 -27 -43q-15 0 -45 39q-36 46 -101 74.5t-145 28.5q-105 0 -199.5 -64t-154 -181t-59.5 -257q0 -14 11 -14q5 0 10.5 4.5t19.5 20.5t24 26
q64 65 153 106.5t188 41.5q114 0 200.5 -40.5t136 -109t73.5 -149t24 -170.5q0 -143 -62.5 -261t-181 -189t-270.5 -71q-110 0 -208 41.5t-175 121t-122 208t-45 290.5zM699 829q-131 0 -226 -89.5t-95 -223.5q0 -88 29.5 -166.5t77 -131.5t107.5 -83.5t120 -30.5
q129 0 210.5 90.5t81.5 245.5q0 159 -71 269q-40 59 -102 89.5t-132 30.5z" />
    <glyph glyph-name="seven" unicode="7" horiz-adv-x="1030" 
d="M822 1194q0 23 -278 23q-165 0 -243 -19t-122 -64q-8 -9 -19.5 -23.5t-18.5 -22t-17 -13.5t-21 -6q-33 0 -33 49q0 18 5 50t15 84t14 79q9 45 21.5 56.5t60.5 11.5q5 0 120 -3t236 -3q105 0 217 1.5t182.5 3t75.5 1.5q22 0 34.5 -11.5t12.5 -27.5q0 -13 -6 -27t-12.5 -23
t-23.5 -30.5t-27 -34.5q-177 -226 -358 -618q-154 -338 -165 -654q-3 -53 -44 -53q-59 0 -121.5 38t-62.5 91q0 104 51 248.5t135 296t177.5 292.5t191.5 267q23 30 23 41z" />
    <glyph glyph-name="eight" unicode="8" horiz-adv-x="1209" 
d="M104 373q0 56 18.5 113.5t55 111.5t99 97.5t141.5 64.5q-102 42 -164.5 125t-62.5 186q0 71 27 131.5t73 102.5t106.5 71.5t128 43.5t137.5 14q64 0 126.5 -11.5t123 -38t106.5 -64.5t74 -96.5t28 -129.5q0 -61 -22 -114.5t-57 -90.5t-72.5 -61t-75.5 -37q62 -22 115 -54
t100 -79.5t73.5 -114.5t26.5 -146q0 -86 -31.5 -158.5t-85 -122t-126 -84t-153.5 -50.5t-168 -16q-126 0 -230.5 34t-171 90.5t-103 129.5t-36.5 153zM955 1078q0 103 -81.5 164.5t-203.5 61.5q-119 0 -193.5 -58t-74.5 -151q0 -59 31.5 -105t80.5 -71.5t100 -38.5t97 -13
q102 0 173 57t71 154zM291 386q0 -131 103.5 -204t256.5 -73q147 0 240.5 68t93.5 187q0 60 -26 111.5t-66.5 85.5t-90.5 58.5t-98.5 35.5t-91.5 11q-144 0 -232.5 -80.5t-88.5 -199.5z" />
    <glyph glyph-name="nine" unicode="9" horiz-adv-x="1164" 
d="M1154 726q0 -349 -157.5 -548.5t-416.5 -199.5q-86 0 -162.5 24.5t-127.5 61.5t-88.5 80t-55 80.5t-17.5 63.5q0 17 7 28t19 11q6 0 12 -3.5t9.5 -7.5t11.5 -12.5t13 -13.5q54 -63 138 -109.5t197 -46.5q181 0 288 125.5t107 350.5q0 15 -10 15q-5 0 -10 -5t-18.5 -20
t-26.5 -28q-116 -127 -302 -127q-135 0 -238 65t-155 169.5t-52 229.5q0 142 67 259.5t185 185.5t261 68q110 0 203 -43t165 -126.5t113 -218.5t41 -308zM609 1298q-119 0 -201.5 -93t-82.5 -248q0 -154 67 -252q85 -125 231 -125q125 0 210 90.5t85 238.5q0 98 -39 187
t-111.5 145.5t-158.5 56.5z" />
    <glyph glyph-name="colon" unicode=":" horiz-adv-x="493" 
d="M493 870q0 -62 -41.5 -99.5t-99.5 -37.5q-54 0 -90.5 31.5t-36.5 90.5q0 63 42.5 102t98.5 39q52 0 89.5 -33.5t37.5 -92.5zM493 125q0 -62 -41.5 -99.5t-99.5 -37.5q-54 0 -90.5 31.5t-36.5 90.5q0 63 42.5 102t98.5 39q52 0 89.5 -33.5t37.5 -92.5z" />
    <glyph glyph-name="semicolon" unicode=";" horiz-adv-x="493" 
d="M492 870q0 -62 -41.5 -99.5t-99.5 -37.5q-54 0 -90.5 31.5t-36.5 90.5q0 63 42.5 102t98.5 39q52 0 89.5 -33.5t37.5 -92.5zM276 -323q-15 0 -24.5 8.5t-9.5 20.5q0 10 14 30.5t31 42.5t31 58t14 74q0 21 -11 39t-27 33t-32.5 31.5t-27.5 41.5t-11 56q0 62 40.5 100.5
t92.5 38.5q64 0 103.5 -43.5t39.5 -129.5q0 -77 -24.5 -153t-59.5 -129t-73 -86t-66 -33z" />
    <glyph glyph-name="less" unicode="&#x3c;" horiz-adv-x="1101" 
d="M426 660q0 -7 29 -22q74 -40 244.5 -117.5t362.5 -154.5q21 -9 30.5 -19t9.5 -33q0 -29 -11.5 -63.5t-33.5 -34.5q-21 0 -53 14q-128 50 -369.5 164t-383.5 196q-28 15 -28 52q0 32 11.5 58.5t28.5 36.5q136 79 369.5 187.5t371.5 165.5q39 17 54 17q22 0 33 -31.5
t11 -65.5q0 -37 -40 -54q-10 -4 -148.5 -64t-270 -119t-188.5 -89q-29 -15 -29 -24z" />
    <glyph glyph-name="equal" unicode="=" horiz-adv-x="1101" 
d="M1020 799h-771q-28 0 -28 34q0 38 15 79q8 17 21 25t46 8h771q28 0 28 -33q0 -36 -15 -81q-6 -18 -19.5 -25t-47.5 -7zM1020 389h-771q-28 0 -28 34q0 39 15 80q8 17 21 25t46 8h771q28 0 28 -33q0 -36 -15 -81q-7 -18 -20 -25.5t-47 -7.5z" />
    <glyph glyph-name="greater" unicode="&#x3e;" horiz-adv-x="1101" 
d="M899 669q0 8 -29 22q-174 94 -607 266q-21 9 -30.5 19t-9.5 34q0 29 11.5 63t33.5 34t54 -14q140 -55 376.5 -164t375.5 -190q28 -15 28 -52q0 -67 -40 -94q-90 -58 -348.5 -181.5t-391.5 -178.5q-39 -17 -55 -17q-22 0 -33 32t-11 66q0 36 40 54q466 203 607 278
q29 14 29 23z" />
    <glyph glyph-name="question" unicode="?" horiz-adv-x="927" 
d="M522 1270q-130 0 -229 -108q-6 -7 -14.5 -17.5t-12.5 -15.5t-9.5 -11t-10.5 -8t-10 -2q-27 0 -27 48q0 29 16.5 64.5t49.5 72t77.5 66t108 48.5t132.5 19q158 0 259.5 -74.5t101.5 -216.5q0 -70 -25.5 -132.5t-66 -109t-89.5 -89.5t-98 -81t-89.5 -75t-66 -79.5
t-25.5 -87.5q0 -15 2.5 -32.5t2.5 -20.5q0 -28 -27 -28q-28 0 -51.5 42.5t-23.5 98.5q0 63 34.5 121t83.5 104t97.5 93t83 107.5t34.5 128.5q0 83 -56 129t-152 46zM630 125q0 -62 -41.5 -99.5t-99.5 -37.5q-53 0 -89 31.5t-36 90.5q0 63 41.5 102t97.5 39q53 0 90 -33.5
t37 -92.5z" />
    <glyph glyph-name="at" unicode="@" horiz-adv-x="1468" 
d="M1360 852q0 130 -45.5 228.5t-141 156.5t-231.5 58q-92 0 -184 -30t-175.5 -91t-148 -145t-102.5 -200.5t-38 -248.5q0 -125 38.5 -223t107 -160t158.5 -94t197 -32q218 0 381 115q9 6 25 19t25.5 19t15.5 6q8 0 14.5 -5.5t6.5 -16.5q0 -23 -37.5 -61.5t-99.5 -77.5
t-159 -67.5t-199 -28.5q-122 0 -225 33.5t-176.5 92t-125.5 138t-77 172t-25 193.5q0 167 65 320t173.5 263t256.5 175.5t308 65.5q250 0 396 -142.5t146 -370.5q0 -142 -52.5 -281.5t-141 -229t-183.5 -89.5q-56 0 -88.5 33.5t-37.5 77.5q-3 33 -8 33q-3 0 -14 -15.5
t-30 -37.5t-45 -43.5t-67 -37t-87 -15.5q-108 0 -171.5 78.5t-63.5 219.5q0 128 51.5 240.5t138 179t184.5 66.5q44 0 81 -16t56.5 -34.5t37.5 -34.5t28 -16t40 28q39 37 56 37q22 0 22 -30q0 -28 -35.5 -276t-35.5 -287q0 -57 38 -57q31 0 66 35t65.5 93t51 143t20.5 175z
M793 422q93 0 155 104t62 262q0 209 -127 209q-90 0 -158.5 -113t-68.5 -266q0 -98 38 -147t99 -49z" />
    <glyph glyph-name="A" unicode="A" horiz-adv-x="1348" 
d="M135 205l375 973q32 87 42 151q6 30 62 61t98 31q27 0 40 -16t27 -53l439 -1140q27 -71 86 -110q46 -31 46 -57q0 -30 -22 -40t-73 -10q-18 0 -67 2.5t-90 2.5t-87 -2.5t-67 -2.5q-68 0 -68 48q0 16 17 30.5t37 25.5t37 30.5t17 44.5q0 13 -27 93.5t-48 118.5
q-16 28 -48 28h-441q-39 0 -55 -24q-23 -36 -51.5 -116.5t-28.5 -103.5q0 -27 16 -47t34.5 -29.5t34.5 -23.5t16 -30q0 -45 -69 -45q-17 0 -77.5 2.5t-79.5 2.5q-20 0 -51 -2.5t-48 -2.5q-53 0 -53 45q0 17 14 31.5t32.5 26.5t42 40t38.5 67zM438 545h390q20 0 20 15
q0 23 -76.5 235.5t-116.5 297.5q-9 22 -19 22q-9 0 -18 -21q-39 -81 -119 -298.5t-80 -235.5q0 -15 19 -15z" />
    <glyph glyph-name="B" unicode="B" horiz-adv-x="1363" 
d="M276 -5q-65 0 -65 42q0 18 15.5 31.5t34.5 22t36.5 28.5t20.5 50q9 74 9 542q0 398 -3 473q-3 40 -20.5 67.5t-36.5 38.5t-34.5 27t-15.5 36q0 45 62 45q25 0 89 -2.5t93 -2.5q54 0 159 3t154 3q531 0 531 -328q0 -58 -24 -111t-61.5 -90t-76.5 -62t-76 -38
q-10 -5 -10 -12q0 -10 10 -10q154 -35 247 -126.5t93 -215.5q0 -412 -578 -412q-53 0 -193 3t-195 3q-28 0 -84.5 -2.5t-80.5 -2.5zM536 1207v-353q0 -31 16.5 -40.5t54.5 -9.5q206 0 306 29q83 23 130 79t47 140q0 55 -21.5 95.5t-56 64.5t-87.5 38.5t-107 19.5t-123 5
q-100 0 -129.5 -14.5t-29.5 -53.5zM1171 400q0 103 -60.5 170.5t-175.5 94.5q-86 20 -337 20q-32 0 -47 -14.5t-15 -57.5v-417q0 -33 12 -47.5t63.5 -22.5t163.5 -8q196 0 296 65.5t100 216.5z" />
    <glyph glyph-name="C" unicode="C" horiz-adv-x="1370" 
d="M141 685q0 148 44 281t125 236t206 164t276 61q72 0 138.5 -15.5t113 -31.5t72.5 -16q21 0 53 9t46 9q9 0 16.5 -2t13.5 -7t10.5 -10.5t8.5 -16t7 -20t7 -25.5t6.5 -29t7 -34.5t8.5 -38.5q10 -45 20 -85.5t13.5 -56.5t3.5 -27q0 -23 -12 -36t-31 -13q-12 0 -23 5
t-21.5 16.5t-17 20.5t-19 28.5t-19.5 28.5q-73 106 -177.5 168.5t-217.5 62.5q-128 0 -226 -76.5t-148 -202t-50 -276.5q0 -173 60.5 -311t175.5 -218.5t265 -80.5q84 0 157 25.5t125 69.5t88.5 92.5t60.5 103.5q24 49 45 49q30 0 30 -57q0 -90 -57 -183
q-70 -117 -205.5 -199t-322.5 -82q-151 0 -276 57.5t-207.5 156t-127.5 229t-45 277.5z" />
    <glyph glyph-name="D" unicode="D" horiz-adv-x="1481" 
d="M433 1393q57 0 152 3t150 3q121 0 231 -23.5t212 -76.5t176 -132t118.5 -197.5t44.5 -264.5q0 -330 -187 -520.5t-501 -190.5q-58 0 -191 3.5t-205 3.5q-27 0 -83 -2.5t-74 -2.5q-65 0 -65 41q0 18 15 31.5t34 22.5t36.5 29t21.5 50q9 65 9 541q0 439 -2 473
q-2 33 -14.5 57t-27.5 37t-30.5 23.5t-25.5 22.5t-10 29q0 45 62 45q18 0 73 -2.5t81 -2.5zM536 1166v-934q0 -50 19.5 -73t71.5 -32t166 -9q102 0 185.5 30t139.5 81t94 122.5t55 151.5t17 170q0 130 -31 236t-96.5 189.5t-178.5 130t-265 46.5q-61 0 -96.5 -5.5
t-53.5 -20.5t-22.5 -32.5t-4.5 -50.5z" />
    <glyph glyph-name="E" unicode="E" horiz-adv-x="1262" 
d="M977 857v-261q0 -40 -8 -58t-30 -18q-14 0 -25 9t-16.5 18t-11.5 25q-17 37 -28 52.5t-41 30.5t-78 19t-136 4q-40 0 -54 -16t-14 -55v-378q0 -31 5.5 -48.5t17 -30t41.5 -17.5t65.5 -7t103.5 -2q87 0 143.5 6t99.5 19.5t71.5 42t50 64.5t44.5 97q27 70 58 70
q20 0 29 -16.5t9 -56.5q0 -23 -16.5 -147.5t-17.5 -143.5q-3 -64 -83 -64q-11 0 -59 1t-132.5 2.5t-183.5 1.5q-169 0 -332.5 -2.5t-172.5 -2.5q-65 0 -65 42q0 18 15 31.5t34 22t36.5 29t21.5 49.5q9 64 9 542q0 439 -3 473q-3 40 -20.5 67.5t-36.5 38.5t-34.5 27t-15.5 36
q0 45 62 45q15 0 64.5 -1t149.5 -2.5t239 -1.5q112 0 199 1.5t131 2.5t52 1q36 0 51.5 -14.5t23.5 -61.5q4 -19 14 -93.5t16 -109.5q11 -55 11 -83q0 -22 -11.5 -33t-29.5 -11q-7 0 -13.5 2.5t-12 8t-9.5 10t-9 14.5t-7 14.5t-7.5 17t-6.5 14.5q-20 48 -32.5 74t-33.5 52.5
t-42 37.5t-58.5 21t-82.5 12.5t-115 2.5q-104 0 -148.5 -7.5t-60.5 -28t-16 -68.5v-297q0 -41 12.5 -55.5t52.5 -14.5q92 0 145 5t83 22t40.5 32.5t26.5 53.5q17 34 39 34q23 0 33 -20.5t10 -71.5z" />
    <glyph glyph-name="F" unicode="F" horiz-adv-x="1157" 
d="M535 587v-347q0 -59 19.5 -90t72.5 -49q57 -21 69 -35q9 -11 9 -25q0 -46 -78 -46q-18 0 -93 2.5t-101 2.5q-31 0 -87 -2.5t-70 -2.5q-65 0 -65 42q0 18 15 31.5t34 22t36.5 29t21.5 49.5q9 64 9 542q0 439 -3 473q-3 40 -20.5 67.5t-36.5 38.5t-34.5 27t-15.5 36
q0 45 62 45q15 0 64.5 -1t149.5 -2.5t239 -1.5q112 0 199 1.5t131 2.5t52 1q36 0 51.5 -14.5t23.5 -61.5q4 -19 14 -93.5t16 -109.5q11 -55 11 -83q0 -22 -11.5 -33t-29.5 -11q-7 0 -13.5 2.5t-12 8t-9.5 10t-9 14.5t-7 14.5t-7.5 17t-6.5 14.5q-20 48 -32.5 74t-33.5 52.5
t-42 37.5t-58.5 21t-82.5 12.5t-115 2.5q-104 0 -148.5 -7.5t-60.5 -28t-16 -68.5v-317q0 -41 13 -56t52 -15q118 0 177 12.5t76 30t38 63.5q3 5 4 8q17 34 39 34q23 0 33 -20.5t10 -71.5v-262q0 -40 -8 -57.5t-30 -17.5q-14 0 -25 9t-16.5 18t-11.5 25q-17 37 -28 52.5
t-41 30t-78 18.5t-136 4q-40 0 -54 -15.5t-14 -54.5z" />
    <glyph glyph-name="G" unicode="G" horiz-adv-x="1468" 
d="M792 -35q-146 0 -269.5 57.5t-206.5 156t-129 229.5t-46 277q0 148 44 281t125 236t206 164t276 61q72 0 138.5 -15.5t113 -31.5t72.5 -16q21 0 53 9t46 9q9 0 16.5 -2t13.5 -7t10.5 -10.5t8.5 -16t7 -20t7 -25.5t6.5 -29t7 -34.5t8.5 -38.5q10 -45 20 -85.5t13.5 -56.5
t3.5 -27q0 -23 -12 -36t-31 -13q-12 0 -23 5t-21.5 16.5t-17 20.5t-19 28.5t-19.5 28.5q-73 106 -177.5 168.5t-217.5 62.5q-128 0 -227.5 -78.5t-150.5 -206.5t-51 -281q0 -177 63 -318.5t173.5 -219.5t246.5 -78q94 0 178 39t116 89q23 37 29.5 71t6.5 117q0 31 -0.5 55.5
t-3.5 43.5t-4 32t-7 24.5t-8 17t-11.5 12.5t-12 9t-16 8.5t-17.5 8.5q-12 7 -42 15.5t-46.5 20t-16.5 32.5q0 52 75 52q25 0 85 -2.5t81 -2.5q27 0 75 2.5t82 2.5q56 0 56 -48q0 -19 -9.5 -35t-21.5 -30t-21.5 -53t-9.5 -98q0 -52 0.5 -237.5t0.5 -209.5q0 -36 -11.5 -54.5
t-41.5 -18.5q-32 0 -63 58q-11 17 -17 26t-15.5 17.5t-18.5 8.5t-23 -7t-40 -22t-45 -24q-170 -84 -324 -84z" />
    <glyph glyph-name="H" unicode="H" horiz-adv-x="1498" 
d="M1433 1398q59 0 59 -45q0 -17 -10 -29.5t-25 -22.5t-30 -22t-27 -36.5t-14 -58.5q-4 -41 -4 -473q0 -472 11 -541q4 -30 21.5 -50.5t35.5 -29t33 -22t15 -31.5q0 -42 -65 -42q-18 0 -73 2.5t-80 2.5q-27 0 -83.5 -2.5t-73.5 -2.5q-65 0 -65 42q0 18 15 31.5t34 22.5
t36.5 29t21.5 50q2 22 5.5 177t3.5 263q0 34 -12.5 49t-42.5 15h-529q-29 0 -42 -14t-13 -50q0 -118 3.5 -266t7.5 -174q4 -30 21.5 -50.5t36 -29t33 -22t14.5 -31.5q0 -42 -65 -42q-18 0 -72.5 2.5t-80.5 2.5q-27 0 -83 -2.5t-74 -2.5q-65 0 -65 42q0 18 15 31.5t34 22.5
t36.5 29t21.5 50q9 65 9 541q0 439 -2 473q-2 33 -14.5 57t-27.5 37t-30.5 23.5t-25.5 22.5t-10 29q0 45 62 45q18 0 73 -2.5t81 -2.5q27 0 82 2.5t71 2.5q60 0 60 -45q0 -19 -13.5 -33.5t-30 -23.5t-33.5 -30.5t-23 -52.5q-4 -13 -7.5 -129.5t-3.5 -205.5q0 -40 12.5 -55.5
t43.5 -15.5h526q31 0 44 15.5t13 55.5q0 91 -3 207.5t-7 127.5q-4 29 -21 50t-34.5 31.5t-31.5 25.5t-14 33q0 45 61 45q18 0 74 -2.5t82 -2.5t81 2.5t72 2.5z" />
    <glyph glyph-name="I" unicode="I" horiz-adv-x="652" 
d="M586 1398q60 0 60 -45q0 -17 -10 -29.5t-24.5 -22.5t-29.5 -22t-27 -36.5t-14 -58.5q-5 -52 -5 -473q0 -470 10 -541q4 -30 21.5 -50.5t36 -29t33 -22t14.5 -31.5q0 -42 -65 -42q-18 0 -72.5 2.5t-80.5 2.5q-27 0 -83 -2.5t-74 -2.5q-65 0 -65 42q0 18 15 31.5t34 22.5
t36.5 29t21.5 50q9 65 9 541q0 439 -2 473q-2 33 -14.5 57t-27.5 37t-30.5 23.5t-25.5 22.5t-10 29q0 45 62 45q18 0 73 -2.5t81 -2.5q27 0 82 2.5t71 2.5z" />
    <glyph glyph-name="J" unicode="J" horiz-adv-x="1087" 
d="M739 538v173q0 415 -5 467q-3 41 -25 69t-46 39t-44 28t-20 39q0 45 59 45q17 0 87 -2.5t97 -2.5q26 0 77.5 2.5t69.5 2.5q62 0 62 -45q0 -20 -14.5 -35.5t-32 -26.5t-34 -38.5t-19.5 -68.5q-3 -34 -3 -586q0 -155 -23 -267t-75.5 -195.5t-142.5 -125t-220 -41.5
q-104 0 -183.5 29t-123.5 76.5t-65 100t-21 107.5q0 72 40.5 127.5t110.5 55.5q51 0 77.5 -25.5t26.5 -60.5q0 -14 -21.5 -60.5t-21.5 -87.5q0 -61 44 -104.5t137 -43.5q92 0 149 57t80 154.5t23 243.5z" />
    <glyph glyph-name="K" unicode="K" horiz-adv-x="1385" 
d="M543 729q12 0 133.5 116.5t239 244.5t117.5 152q0 23 -35.5 53.5t-35.5 58.5q0 19 14.5 31.5t44.5 12.5q15 0 67.5 -2.5t70.5 -2.5q16 0 92.5 1.5t93.5 1.5q35 0 51 -9.5t16 -33.5t-21 -43t-71 -47.5t-78 -48.5q-57 -41 -189.5 -164t-290.5 -282q-10 -12 -10 -18
q0 -9 13 -13q169 -51 287.5 -158t231.5 -309q33 -61 59 -96t67 -63q10 -7 23.5 -15.5t20.5 -13t14.5 -11t10.5 -14t3 -17.5q0 -45 -52 -45q-19 0 -81 2.5t-86 2.5q-43 0 -94.5 -2.5t-57.5 -2.5q-26 0 -42.5 12.5t-16.5 29.5q0 14 12.5 36t12.5 49q0 44 -22.5 104t-66 123.5
t-99.5 117.5t-130.5 88.5t-150.5 34.5q-72 0 -72 -65v-304q0 -78 62 -117q8 -6 24.5 -15.5t25 -15t15.5 -15t7 -21.5q0 -42 -65 -42q-20 0 -83.5 2.5t-88.5 2.5q-27 0 -83 -2.5t-74 -2.5q-65 0 -65 42q0 18 15 31.5t34 22.5t36.5 29t21.5 50q9 65 9 541q0 439 -2 473
q-2 33 -14.5 57t-27.5 37t-30.5 23.5t-25.5 22.5t-10 29q0 45 62 45q18 0 73 -2.5t81 -2.5q27 0 82 2.5t71 2.5q60 0 60 -45q0 -18 -13.5 -32.5t-30.5 -23.5t-33 -29.5t-20 -49.5q-15 -58 -15 -256q0 -233 9 -233z" />
    <glyph glyph-name="L" unicode="L" horiz-adv-x="1200" 
d="M327 711q0 439 -2 473q-2 33 -14.5 57t-27.5 37t-30.5 23.5t-25.5 22.5t-10 29q0 45 62 45q18 0 73 -2.5t81 -2.5q27 0 97 2.5t86 2.5q60 0 60 -45q0 -22 -20 -39t-44 -28t-46 -39t-25 -69q-5 -52 -5 -467v-492q0 -44 15.5 -62t61 -25.5t151.5 -7.5q104 0 165.5 9.5
t103 39t62 69.5t42.5 114q17 52 30.5 70t32.5 18q38 0 38 -73q0 -27 -10 -136.5t-13 -173.5q-4 -66 -81 -66q-8 0 -138 2.5t-277 2.5q-132 0 -231 -1t-149 -2.5t-63 -1.5q-65 0 -65 42q0 20 14.5 34t33 22t36.5 27.5t23 48.5q9 50 9 542z" />
    <glyph glyph-name="M" unicode="M" horiz-adv-x="1816" 
d="M1455 1016q-22 0 -209 -485q-35 -92 -82 -216.5t-70 -184t-33 -80.5q-32 -60 -90 -60q-29 0 -47 40q-10 19 -96 231t-185.5 456.5t-120.5 296.5q-15 36 -21 36q-11 0 -14 -41q-4 -48 -13.5 -359t-9.5 -375q0 -97 18 -131q15 -25 39 -42t38 -29t14 -33q0 -45 -61 -45
q-25 0 -67.5 2.5t-53.5 2.5q-16 0 -61.5 -2.5t-72.5 -2.5t-42.5 11.5t-15.5 31.5q0 18 15 33.5t34 26t37 36t22 61.5q15 124 27.5 428t12.5 443q0 95 -3 118q-3 41 -20.5 68.5t-36.5 38.5t-34 26.5t-15 35.5q0 45 58 45q12 0 60 -2.5t68 -2.5q110 0 147 -22q35 -21 68 -84
q11 -19 95 -220t177 -425.5t109 -260.5q7 -14 14 -14q8 0 14 13q1 3 30.5 80.5t69.5 181t86.5 222.5t94 236t80.5 190q28 59 62 81q39 22 139 22q12 0 61.5 2.5t63.5 2.5q50 0 50 -46q0 -18 -13.5 -33.5t-30.5 -27.5t-35 -39t-25 -64q-6 -30 -6 -105q0 -183 17.5 -490
t28.5 -389q4 -34 17 -58t28.5 -37t30 -23t24 -21.5t9.5 -26.5q0 -43 -63 -43q-26 0 -87.5 2.5t-76.5 2.5q-27 0 -76 -2.5t-73 -2.5q-66 0 -66 42q0 15 9 26t23 19.5t28.5 19t27.5 29.5t19 45q4 16 4 61q0 191 -31 734q-4 45 -13 45z" />
    <glyph glyph-name="N" unicode="N" horiz-adv-x="1469" 
d="M279 1398q14 0 64.5 -2.5t72.5 -2.5q73 0 99 -13q13 -6 27 -20.5t23 -26.5t39 -53l570 -838q42 -59 55 -59q2 0 3.5 1.5t3 11t2 29.5t1.5 57.5t1 94v139.5q0 463 -19 508q-7 25 -25.5 45t-36.5 30t-32.5 24.5t-14.5 31.5q0 43 59 43q26 0 74.5 -2.5t61.5 -2.5
q17 0 60 2.5t66 2.5q54 0 54 -45q0 -19 -15 -34.5t-33 -26t-34.5 -35t-18.5 -58.5q-6 -60 -6 -482q0 -207 3.5 -345t6.5 -199.5t3 -86.5q0 -41 -37.5 -71t-84.5 -30q-34 0 -71 49l-690 996q-23 30 -29 30t-8.5 -6.5t-4.5 -47t-2.5 -110t-0.5 -211.5q0 -469 22 -521
q8 -25 27.5 -44t37.5 -28t32 -22.5t14 -29.5q0 -45 -61 -45q-27 0 -76 2.5t-61 2.5q-18 0 -62 -2.5t-69 -2.5q-58 0 -58 43q0 19 16 34t35.5 25t37.5 34.5t21 58.5q6 69 6 516q0 451 -3 478q-3 34 -15 58t-27 36.5t-30 22.5t-25 22.5t-10 29.5q0 45 62 45z" />
    <glyph glyph-name="O" unicode="O" horiz-adv-x="1495" 
d="M141 685q0 327 187 534t478 207q111 0 213.5 -32.5t188.5 -97t150.5 -155t100.5 -213.5t36 -265q0 -170 -52.5 -305t-144 -219.5t-212 -129t-261.5 -44.5q-207 0 -363.5 92.5t-238.5 255.5t-82 372zM782 1300q-77 0 -148 -36t-127 -103t-89.5 -174t-33.5 -238
q0 -221 82 -390q36 -71 84.5 -123t102 -80t104.5 -41t102 -13q84 0 156 30.5t129 90t89.5 157t32.5 221.5q0 117 -26.5 232t-74.5 205q-64 122 -165 192t-218 70z" />
    <glyph glyph-name="P" unicode="P" horiz-adv-x="1281" 
d="M537 489v-257q0 -53 20.5 -82t75.5 -49q3 -1 8 -3q25 -9 36.5 -14.5t23 -17t11.5 -25.5q0 -46 -78 -46q-18 0 -96.5 2.5t-104.5 2.5q-31 0 -87 -2.5t-70 -2.5q-65 0 -65 42q0 18 15 31.5t34 22t36.5 29t21.5 49.5q9 64 9 542q0 439 -3 473q-3 40 -20.5 67.5t-36.5 38.5
t-34.5 27t-15.5 36q0 45 62 45q23 0 84 -2.5t109 -2.5q50 0 158.5 3.5t183.5 3.5q245 0 379 -113.5t134 -300.5q0 -91 -33.5 -170.5t-98 -140.5t-167 -96t-232.5 -35q-58 0 -120.5 5t-77.5 5q-40 0 -50.5 -14t-10.5 -51zM1099 974q0 143 -94.5 220t-254.5 77
q-139 0 -176.5 -18t-37.5 -89v-401q0 -55 49.5 -73.5t172.5 -18.5q162 0 251.5 81.5t89.5 221.5z" />
    <glyph glyph-name="Q" unicode="Q" horiz-adv-x="1495" 
d="M141 685q0 327 187 534t478 207q111 0 213.5 -32.5t188.5 -97t150.5 -155t100.5 -213.5t36 -265q0 -155 -44 -281t-122.5 -210.5t-181 -134t-223.5 -62.5q-19 -2 -19 -10q0 -9 23 -17q9 -4 88.5 -42.5t133 -57t95.5 -18.5q32 0 55 10.5t35 26t20 30.5t15 25.5t15 10.5
q13 0 23 -21.5t10 -58.5q0 -83 -57 -152t-154 -69q-52 0 -114 27t-117 66t-106.5 77.5t-97.5 65.5t-76 27t-50 -16.5t-28 -36t-17.5 -36t-19.5 -16.5q-19 0 -30 20t-11 48q0 61 48 111l6.5 6.5t5.5 6t4.5 5t3.5 5t1 4.5q0 4 -43 24q-200 70 -312.5 245.5t-112.5 419.5z
M782 1300q-77 0 -148 -36t-127 -103t-89.5 -174t-33.5 -238q0 -221 82 -390q36 -71 84.5 -123t102 -80t104.5 -41t102 -13q84 0 156 30.5t129 90t89.5 157t32.5 221.5q0 117 -26.5 232t-74.5 205q-64 122 -165 192t-218 70z" />
    <glyph glyph-name="R" unicode="R" horiz-adv-x="1393" 
d="M536 525v-304q0 -78 62 -117q8 -6 24.5 -15.5t25 -15t15.5 -15t7 -21.5q0 -42 -65 -42q-18 0 -82 2.5t-90 2.5q-31 0 -87 -2.5t-70 -2.5q-65 0 -65 42q0 18 15 31.5t34 22t36.5 29t21.5 49.5q9 64 9 542q0 439 -3 473q-3 40 -20.5 67.5t-36.5 38.5t-34.5 27t-15.5 36
q0 45 62 45q23 0 84 -2.5t109 -2.5q50 0 149.5 3.5t174.5 3.5q249 0 378 -98t129 -282q0 -251 -324 -356q-13 -5 -13 -15q0 -9 15 -17q43 -27 83 -61.5t67.5 -64t61.5 -78t52.5 -77.5t53.5 -87q29 -47 40 -64.5t34 -44.5t49 -44q10 -7 23.5 -15.5t20.5 -13t14 -11t10 -14
t3 -17.5q0 -45 -53 -45q-19 0 -78.5 2.5t-83.5 2.5q-43 0 -94.5 -2.5t-57.5 -2.5q-26 0 -42.5 12.5t-16.5 29.5q0 14 13 36t13 49q0 98 -94.5 240t-183.5 195q-28 16 -74 25t-71 11t-40 2q-53 0 -73.5 -17.5t-20.5 -52.5zM1072 1002q0 130 -92.5 199.5t-248.5 69.5
q-49 0 -78 -1t-53.5 -5.5t-35 -10.5t-18 -20t-9 -28.5t-1.5 -41.5v-360q0 -42 37.5 -59t150.5 -17q165 0 256.5 73.5t91.5 200.5z" />
    <glyph glyph-name="S" unicode="S" horiz-adv-x="1227" 
d="M662 1304q-105 0 -176.5 -56.5t-71.5 -150.5q0 -36 12.5 -67t40 -56.5t56.5 -45t78 -40.5t87 -34.5t100 -34.5q57 -19 97 -34t92 -38.5t88 -47t74 -57t61 -70t37.5 -85t14.5 -103.5q0 -128 -66.5 -224t-181 -145t-260.5 -49q-76 0 -153 15.5t-135 31t-86 15.5
q-21 0 -50.5 -10.5t-45.5 -10.5q-31 0 -42 27.5t-26 123.5q-4 26 -6 40q-26 172 -26 183q0 19 11 33.5t30 14.5q18 0 33.5 -16.5t42 -56.5t50.5 -68q67 -78 170.5 -131.5t237.5 -53.5q127 0 203 61t76 162q0 28 -7 53t-16.5 44.5t-29.5 39.5t-35 33t-46 29t-49 25t-57 23.5
t-57.5 20.5t-61.5 21q-46 15 -74 25t-72 27t-71.5 31t-64.5 35.5t-60 42.5t-48.5 49.5t-39.5 59t-23.5 68.5t-9.5 80q0 177 123.5 285.5t324.5 108.5q71 0 137 -15.5t113.5 -31.5t74.5 -16q21 0 48.5 9t43.5 9q15 0 25 -5.5t16 -14t11 -26.5t8.5 -34.5t10 -47t12.5 -55.5
q8 -31 15.5 -61t11 -45t7 -28.5t4.5 -21t1 -13.5q0 -22 -11.5 -35.5t-31.5 -13.5q-14 0 -27 9t-21.5 19.5t-24.5 32.5t-27 36q-170 226 -388 226z" />
    <glyph glyph-name="T" unicode="T" horiz-adv-x="1196" 
d="M632 1393q146 0 287 2.5t166 2.5q39 0 56.5 -17t21.5 -64q8 -82 16.5 -150t12.5 -99.5t4 -56.5q0 -52 -40 -52q-34 0 -55 48q-27 84 -47.5 130t-51 78.5t-68.5 43t-99 10.5q-62 0 -78 -37q-7 -17 -10.5 -36.5t-7 -109.5t-3.5 -256v-119q0 -467 10 -538q4 -30 24.5 -50.5
t42 -29t39 -23t17.5 -33.5q0 -42 -65 -42q-18 0 -81 2.5t-89 2.5q-27 0 -92 -2.5t-82 -2.5q-66 0 -66 42q0 19 18 33.5t40 23t42.5 29t24.5 50.5q8 57 8 538v119q0 169 -3 256.5t-6.5 108.5t-10.5 37q-15 37 -78 37q-61 0 -99 -10.5t-68.5 -43t-51 -78.5t-47.5 -130
q-19 -48 -55 -48q-40 0 -40 52q0 25 3.5 56t12 99.5t16.5 150.5q4 47 21.5 64t56.5 17q25 0 167 -2.5t287 -2.5z" />
    <glyph glyph-name="U" unicode="U" horiz-adv-x="1440" 
d="M1339 778q0 -52 0.5 -137t0.5 -121q0 -282 -138 -418.5t-391 -136.5q-113 0 -205 32t-165 99t-113.5 181.5t-40.5 269.5q0 586 -3 637q-2 33 -14.5 57t-27.5 37t-30.5 23.5t-25.5 22.5t-10 29q0 45 62 45q18 0 73 -2.5t81 -2.5q27 0 82 2.5t71 2.5q60 0 60 -45
q0 -17 -9.5 -29.5t-24 -22.5t-29.5 -22t-26.5 -36.5t-14.5 -58.5q-5 -47 -5 -606q0 -98 18 -174.5t49.5 -126.5t77 -82.5t96.5 -46t111 -13.5q112 0 188 43.5t113 116.5q27 53 37 153.5t10 294.5q0 436 -17 481q-6 25 -24 44.5t-36.5 30t-33 25t-14.5 31.5q0 43 59 43
q26 0 74.5 -2.5t61.5 -2.5q18 0 60 2.5t66 2.5q54 0 54 -45q0 -19 -14.5 -34.5t-32 -26t-34 -35t-19.5 -58.5q-7 -70 -7 -421z" />
    <glyph glyph-name="V" unicode="V" horiz-adv-x="1285" 
d="M693 284q5 -12 10 -12q9 0 22 32q49 126 169 502.5t120 416.5q0 29 -15 48.5t-33 28t-33 22.5t-15 32q0 44 59 44q15 0 67.5 -2.5t70.5 -2.5q16 0 59 1.5t60 1.5q52 0 52 -41q0 -19 -14 -34.5t-32.5 -27.5t-40.5 -39.5t-34 -65.5l-337 -976q-43 -124 -67 -164
q-27 -40 -63 -58t-61 -18q-26 0 -41 14t-29 44q-14 27 -43 105l-394 1046q-24 66 -85 109q-45 33 -45 58q0 28 20.5 39t65.5 11q15 0 60 -2.5t82 -2.5t96 2.5t77 2.5q63 0 63 -47q0 -17 -14.5 -31t-32.5 -23.5t-32.5 -28t-14.5 -43.5q0 -35 135.5 -422t187.5 -519z" />
    <glyph glyph-name="W" unicode="W" horiz-adv-x="1971" 
d="M976 888q-238 -774 -276 -838q-24 -40 -60.5 -59t-58.5 -19q-44 0 -70 60q-31 77 -41 107l-351 1039q-22 71 -81 112q-38 25 -38 58q0 27 20 38.5t63 11.5q14 0 54 -2.5t74 -2.5q36 0 96 2.5t76 2.5q60 0 60 -47q0 -17 -13.5 -32t-30.5 -24.5t-30.5 -29t-13.5 -44.5
q0 -34 127.5 -445.5t151.5 -467.5q6 -14 10 -14q11 0 20 34q42 129 143.5 471t101.5 392q0 34 -12.5 60.5t-28 39t-28 29t-12.5 34.5q0 44 56 44q15 0 68.5 -2.5t70.5 -2.5q31 0 79.5 2.5t65.5 2.5q65 0 65 -47q0 -16 -12.5 -31t-27 -25.5t-27 -30.5t-12.5 -46
q0 -39 127.5 -446.5t151.5 -461.5q7 -16 10 -16q5 0 19 35q27 71 135.5 459t108.5 433q0 29 -14 48.5t-30 28.5t-30 23t-14 33q0 44 58 44q14 0 67.5 -2.5t70.5 -2.5q15 0 54 1.5t55 1.5q49 0 49 -41q0 -19 -12.5 -35.5t-29.5 -29t-37 -40.5t-32 -66l-297 -968
q-31 -107 -65 -166q-24 -40 -61.5 -59t-60.5 -19q-41 0 -69 60q-14 29 -76.5 212t-136.5 403.5t-86 256.5q-5 21 -14 21q-8 0 -19 -37z" />
    <glyph glyph-name="X" unicode="X" horiz-adv-x="1326" 
d="M808 728q0 -20 27.5 -65t129.5 -187q196 -268 238 -309q24 -25 57.5 -46.5t49.5 -36.5t16 -38q0 -51 -77 -51q-16 0 -80 2.5t-103 2.5t-93 -2.5t-73 -2.5q-62 0 -62 47q0 22 38 53.5t38 55.5q0 54 -255 395q-10 14 -20 14q-8 0 -25 -20q-148 -197 -201.5 -276.5
t-53.5 -104.5q0 -19 12.5 -36t27.5 -27.5t27.5 -25t12.5 -30.5q0 -45 -64 -45q-17 0 -79.5 2.5t-81.5 2.5q-18 0 -73 -2.5t-70 -2.5q-25 0 -39 12t-14 33q0 24 19 40t63 47t82 73q73 82 203 260q26 36 57.5 78.5t45 61.5t28 40t19 32.5t4.5 21.5q0 13 -12 32t-59 86
q-5 7 -73 102t-135 185t-106 134q-21 22 -51 42.5t-45 35t-15 36.5q0 51 80 51q16 0 68 -2.5t92 -2.5q39 0 98 2.5t78 2.5q62 0 62 -47q0 -24 -38 -54.5t-38 -55.5q0 -33 74 -148t167 -234q9 -12 20 -12q7 0 19 14q75 96 157 220t82 154t-37.5 63t-37.5 55q0 45 64 45
q17 0 74 -2.5t75 -2.5t69.5 2.5t67.5 2.5q51 0 51 -45q0 -24 -17.5 -42t-54.5 -43.5t-62 -50.5q-46 -50 -225 -301q-110 -154 -120 -176q-3 -7 -3 -12z" />
    <glyph glyph-name="Y" unicode="Y" horiz-adv-x="1213" 
d="M724 498q0 -254 10 -325q4 -30 24.5 -50.5t42 -29t39 -23t17.5 -33.5q0 -42 -65 -42q-18 0 -81 2.5t-89 2.5q-27 0 -91.5 -2.5t-81.5 -2.5q-66 0 -66 42q0 19 18 33.5t40 23t42 29t24 50.5q8 57 8 334q0 39 -26.5 101t-58.5 117t-103 170q-156 257 -205 328
q-17 23 -39.5 42.5t-38 28.5t-27 23t-11.5 31q0 50 79 50q16 0 66 -2.5t90 -2.5q39 0 93 2.5t73 2.5q62 0 62 -47q0 -20 -39 -53.5t-39 -58.5q0 -41 100 -222.5t155 -253.5q10 -12 19 -12q6 0 17 16q65 96 149 262t84 204q0 22 -12.5 39.5t-27 27t-27 23.5t-12.5 30
q0 45 63 45q17 0 76.5 -2.5t78.5 -2.5q18 0 55.5 2.5t53.5 2.5q24 0 37.5 -12t13.5 -33q0 -23 -14.5 -37t-47.5 -40.5t-62 -67.5q-11 -15 -24 -36t-34.5 -58.5t-33 -58.5t-44.5 -81.5l-45 -82.5q-17 -31 -53 -95t-53 -95t-39 -75.5t-31 -74.5t-9 -53z" />
    <glyph glyph-name="Z" unicode="Z" horiz-adv-x="1244" 
d="M730 128q84 0 139 6.5t95.5 20t67 42t45 64.5t37.5 96q17 50 32 68t35 18q38 0 38 -72q0 -27 -10 -136.5t-13 -173.5q-4 -66 -82 -66q-8 0 -144.5 2.5t-283.5 2.5q-181 0 -352 -2.5t-188 -2.5q-44 0 -44 41q0 39 82 158l680 990q27 42 27 60q0 9 -10.5 13.5t-44 8
t-88.5 4.5t-152 1q-68 0 -116 -4.5t-86 -18t-62.5 -31t-45.5 -50t-35 -68t-31 -92.5q-19 -48 -55 -48q-40 0 -40 52q0 25 4 56.5t12.5 99.5t16.5 150q4 47 21.5 64t56.5 17q25 0 164.5 -2.5t285.5 -2.5q149 0 271 2.5t140 2.5q52 0 72.5 -10.5t20.5 -42.5q0 -43 -53 -120
l-677 -997q-37 -57 -37 -75q0 -5 2.5 -8t12.5 -6.5t29.5 -5t53.5 -3t85 -2t124 -0.5z" />
    <glyph glyph-name="bracketleft" unicode="[" horiz-adv-x="691" 
d="M558 1309v-1455q0 -43 17.5 -59.5t60.5 -26.5q12 -3 65 -9.5t79 -18t26 -34.5q0 -40 -52 -40q-11 0 -86.5 2t-102.5 2t-78 -2t-62 -2q-63 0 -63 61q0 9 4 98.5t7.5 287t3.5 468.5q0 272 -3.5 469.5t-7.5 287t-4 98.5q0 60 63 60q11 0 62 -2t78 -2t102.5 2t86.5 2
q52 0 52 -41q0 -14 -11.5 -24t-32 -15t-41 -8t-46 -6.5t-39.5 -6.5q-43 -10 -60.5 -26.5t-17.5 -59.5z" />
    <glyph glyph-name="backslash" unicode="\" horiz-adv-x="688" 
d="M79 1353q-7 17 -7 29q0 14 20.5 23.5t42.5 9.5q21 0 29 -5.5t13 -18.5q15 -35 257 -682.5t249 -674.5q5 -12 5 -25q0 -16 -21 -25.5t-45 -9.5q-27 0 -41 28q-9 17 -249.5 664.5t-252.5 686.5z" />
    <glyph glyph-name="bracketright" unicode="]" horiz-adv-x="691" 
d="M381 -146v1455q0 43 -17.5 59.5t-60.5 26.5q-14 3 -39.5 6.5t-46 6.5t-41 8t-32 15t-11.5 24q0 41 52 41q12 0 87.5 -2t101.5 -2q27 0 78 2t62 2q64 0 64 -60q0 -9 -4 -98.5t-7.5 -287t-3.5 -469.5q0 -271 3.5 -468.5t7.5 -287t4 -98.5q0 -61 -64 -61q-11 0 -62 2t-78 2
q-26 0 -101.5 -2t-87.5 -2q-52 0 -52 40q0 15 11.5 25t32 15.5t41 8.5t46 6.5t39.5 6.5q43 10 60.5 26.5t17.5 59.5z" />
    <glyph glyph-name="asciicircum" unicode="^" horiz-adv-x="1037" 
d="M592 1233q-7 0 -24 -23q-48 -68 -128.5 -212t-143.5 -272q-18 -37 -50 -37t-65.5 11.5t-33.5 31.5q0 11 18 48q73 149 179 334t173 274q10 15 37 25t58 10t53 -26q71 -97 182 -288.5t176 -328.5q14 -34 14 -47q0 -19 -35.5 -31.5t-62.5 -12.5q-23 0 -32.5 8t-19.5 29
q-154 311 -273 484q-15 23 -22 23z" />
    <glyph glyph-name="underscore" unicode="_" horiz-adv-x="921" 
d="M846 -279h-924q-26 0 -26 34q0 38 12 68q6 17 19.5 24.5t45.5 7.5h926q27 0 27 -34q0 -37 -15 -69q-7 -17 -20.5 -24t-44.5 -7z" />
    <glyph glyph-name="grave" unicode="`" horiz-adv-x="565" 
d="M544 1231q21 -41 21 -49q0 -31 -36 -31q-32 0 -99 52.5t-113 117.5q-51 69 -51 124q0 35 22 60.5t61 25.5q25 0 44 -10t32 -30t19.5 -35.5t15.5 -41.5q25 -79 84 -183z" />
    <glyph glyph-name="a" unicode="a" horiz-adv-x="1096" 
d="M451 545q59 15 139.5 25t134.5 16t63 12q19 14 19 80q0 122 -54 198t-167 76q-87 0 -135 -53t-65 -132q-8 -37 -24.5 -54.5t-49.5 -17.5q-40 0 -72.5 29.5t-32.5 85.5q0 92 106 165.5t277 73.5q200 0 308.5 -111.5t108.5 -300.5q0 -75 -6 -222.5t-6 -183.5q0 -39 15 -65
t46 -26q16 0 31 5.5t22 5.5q3 0 6.5 -3t6.5 -10.5t3 -18.5q0 -53 -46 -93t-112 -40q-125 0 -165 112q-5 18 -17 18q-3 0 -7 -3.5t-8.5 -9.5t-7.5 -9q-54 -54 -134.5 -86.5t-171.5 -32.5q-134 0 -221.5 68t-87.5 186q0 117 81 197.5t223 118.5zM806 409q0 76 -20 76
q-161 0 -258 -28q-89 -27 -132 -80t-43 -115q0 -72 49.5 -112t126.5 -40q121 0 199 81t78 218z" />
    <glyph glyph-name="b" unicode="b" horiz-adv-x="1165" 
d="M205 305v945q0 56 -70 79q-41 17 -41 42q0 27 34 43q12 6 62 25q36 14 73 32t57 26t37 8q53 0 53 -59q0 -10 -6.5 -107t-6.5 -204v-214q0 -56 14 -56q6 0 22.5 19t44 46t64 54t93 46t119.5 19q180 0 289.5 -137t109.5 -372q0 -264 -130.5 -412t-334.5 -148
q-60 0 -116 20.5t-88.5 45t-61 45t-40.5 20.5q-42 0 -70 -40q-8 -12 -23 -35t-22.5 -34t-19.5 -20.5t-23 -9.5q-35 0 -35 42q0 3 8 84.5t8 206.5zM680 910q-54 0 -103 -24t-90 -71t-65 -125.5t-24 -178.5q0 -211 77.5 -311.5t196.5 -100.5t195.5 106t76.5 303
q0 195 -73 298.5t-191 103.5z" />
    <glyph glyph-name="c" unicode="c" horiz-adv-x="1022" 
d="M111 493q0 150 61 275.5t179.5 203t271.5 77.5q155 0 256 -78.5t101 -185.5q0 -64 -42 -100.5t-95 -36.5q-14 0 -22 2.5t-13.5 12.5t-7.5 16t-5.5 26.5t-6.5 31.5q-21 92 -73 147t-135 55q-115 0 -193.5 -104t-78.5 -266q0 -180 96 -297.5t260 -117.5q56 0 104 15t79 35
t58.5 51t40.5 52t27 48q18 30 34 30q24 0 24 -51q0 -53 -28.5 -113.5t-80 -115.5t-136.5 -91t-185 -36q-215 0 -352.5 144.5t-137.5 370.5z" />
    <glyph glyph-name="d" unicode="d" horiz-adv-x="1188" 
d="M1041 -14q-60 0 -101 26t-66 87q-9 23 -20 23q-4 0 -9 -4t-15.5 -15t-19.5 -19q-111 -104 -278 -104q-81 0 -154 31.5t-131.5 92.5t-93 160t-34.5 224q0 136 36 244.5t97.5 176.5t141 104t169.5 36q68 0 126 -22.5t88.5 -49.5t52 -49.5t25.5 -22.5q16 0 16 71v271
q0 60 -69 82q-45 16 -45 42q0 9 4 16.5t8.5 12.5t15.5 11t19 9t24.5 9t25.5 10q34 14 74 32.5t59.5 26t35.5 7.5q52 0 52 -59q0 -14 -4 -103t-4 -215v-897q0 -39 15 -65t46 -26q16 0 32 5.5t22 5.5t11.5 -8t5.5 -24q0 -53 -46.5 -93t-111.5 -40zM606 123q122 0 195 96.5
t73 297.5q0 90 -16.5 162t-43 117.5t-62.5 76t-73 43t-77 12.5q-118 0 -196 -105t-78 -299q0 -186 73 -293.5t205 -107.5z" />
    <glyph glyph-name="e" unicode="e" horiz-adv-x="1030" 
d="M950 561q-84 -53 -253.5 -78.5t-337.5 -30.5q-25 0 -25 -19q0 -40 18 -87.5t53 -95.5t100 -80t146 -32q223 0 322 190q19 30 36 30q23 0 23 -48q0 -36 -16 -79t-51.5 -88t-84.5 -81.5t-122 -60t-157 -23.5q-218 0 -353 143t-135 369q0 150 63 277t181.5 204.5t267.5 77.5
q176 0 283.5 -107t107.5 -265q0 -75 -66 -116zM824 705q0 99 -62.5 165.5t-154.5 66.5q-122 0 -206 -102t-84 -236q0 -42 30 -42q89 0 231 21.5t205 57.5q41 23 41 69z" />
    <glyph glyph-name="f" unicode="f" horiz-adv-x="739" 
d="M410 854v-637q0 -45 16.5 -70t58.5 -47q6 -3 33 -13t39.5 -20.5t12.5 -27.5q0 -44 -65 -44q-22 0 -86 2.5t-105 2.5q-25 0 -74 -2.5t-78 -2.5q-61 0 -61 42q0 12 6.5 22t13 15t19 13t16.5 10q34 25 46 53.5t12 70.5v619q0 41 -37 45q-85 8 -98 14q-18 8 -18 28t17 41.5
t32 28.5q9 3 31 5t38.5 8t25.5 21q7 13 17 89.5t23 119.5q36 117 120 192t201 75q90 0 148 -43.5t58 -100.5q0 -58 -26.5 -100.5t-70.5 -42.5q-11 0 -19 3.5t-14 11t-9.5 14t-9.5 19t-9 18.5q-25 41 -53.5 63.5t-70.5 22.5q-60 0 -94 -50.5t-34 -135.5q0 -99 25 -139.5
t83 -40.5q20 0 113.5 4.5t105.5 4.5q51 0 51 -47q0 -21 -8.5 -47t-22.5 -40q-13 -13 -32 -13q-11 0 -122.5 6t-130.5 6q-14 0 -14 -26z" />
    <glyph glyph-name="g" unicode="g" horiz-adv-x="1142" 
d="M543 1047q73 0 187 -21t147 -21q77 0 123.5 10.5t67.5 21t34 10.5q31 0 31 -54q0 -49 -23 -88q-26 -42 -63 -42q-41 0 -92 10t-56 10q-10 0 -10 -11q0 -4 16.5 -27.5t33.5 -66t17 -92.5q0 -164 -117.5 -259.5t-299.5 -95.5q-20 0 -64 3.5t-63 3.5q-54 0 -97 -29t-43 -79
q0 -46 40.5 -73t112.5 -27q32 0 153 12t184 12q318 0 318 -249q0 -106 -85 -190.5t-224.5 -129.5t-304.5 -45q-209 0 -315 64t-106 178q0 68 48 123.5t119 82.5q15 7 15 14q0 6 -13 12q-36 18 -72 62t-36 110q0 57 41.5 111.5t114.5 84.5q17 8 17 13q0 8 -13 18
q-136 105 -136 271q0 115 58 199t150 124t205 40zM331 702q0 -121 63.5 -187t157.5 -66t154.5 58t60.5 166q0 42 -11.5 84.5t-35 84.5t-69.5 68.5t-107 26.5q-92 0 -152.5 -65.5t-60.5 -169.5zM854 -151q0 63 -49.5 95t-131.5 32q-71 0 -160 -8t-127 -17q-77 -19 -123.5 -60
t-46.5 -94q0 -71 74.5 -105t195.5 -34q159 0 263.5 54t104.5 137z" />
    <glyph glyph-name="h" unicode="h" horiz-adv-x="1233" 
d="M251 221v1030q0 56 -70 78q-41 16 -41 42q0 11 4 19t15.5 15.5t19 11t29 11t30.5 11.5q35 14 73 32.5t57 26t35 7.5q53 0 53 -59q0 -10 -4 -80.5t-8 -196.5t-4 -270q0 -40 15 -40q4 0 23 19.5t49.5 47.5t70.5 56t98.5 47.5t120.5 19.5q160 0 249 -105t89 -311
q0 -120 -15 -274t-15 -169q0 -60 49 -91q9 -5 26 -13.5t23.5 -12.5t12.5 -13t6 -21q0 -44 -68 -44q-18 0 -54 2.5t-66 2.5t-68.5 -2.5t-56.5 -2.5q-47 0 -47 42q0 16 22 75q16 53 31 188.5t15 284.5q0 158 -61 238.5t-171 80.5q-64 0 -128 -37.5t-103.5 -92t-39.5 -102.5
v-460q0 -44 11 -69t36 -43q8 -6 21.5 -14t20.5 -12.5t13 -13.5t6 -21q0 -44 -65 -44q-25 0 -67 2.5t-71 2.5q-25 0 -66.5 -2.5t-86.5 -2.5q-60 0 -60 42q0 12 6.5 22t13 15t18.5 12.5t16 10.5q35 25 46.5 53t11.5 71z" />
    <glyph glyph-name="i" unicode="i" horiz-adv-x="556" 
d="M202 1278q0 68 54.5 124t121.5 56q50 0 82.5 -29t32.5 -78q0 -67 -59 -116t-132 -49q-49 0 -74.5 25t-25.5 67zM457 989q0 -5 -5 -103t-5 -212v-462q0 -44 12.5 -68.5t37.5 -43.5q8 -6 21.5 -14t20.5 -12.5t13 -13.5t6 -21q0 -44 -64 -44q-25 0 -69 2.5t-73 2.5
q-25 0 -66.5 -2.5t-86.5 -2.5q-60 0 -60 42q0 12 6.5 22t13 15t18.5 12.5t16 10.5q35 25 46.5 53t11.5 71v559q0 65 -69 88q-43 22 -43 46q0 12 4.5 20.5t15 15t20 10t28.5 10t31 11.5q34 14 73.5 33t59 27t33.5 8q53 0 53 -60z" />
    <glyph glyph-name="j" unicode="j" horiz-adv-x="493" 
d="M45 1278q0 68 55 124t122 56q49 0 82 -29.5t33 -77.5q0 -67 -59 -116t-133 -49q-49 0 -74.5 25.5t-25.5 66.5zM292 674v-400q0 -64 3.5 -175.5t3.5 -120.5q0 -83 -24.5 -154t-63.5 -118t-87.5 -80t-96 -47.5t-89.5 -14.5q-30 0 -49.5 11.5t-19.5 27.5q0 5 2 10t7.5 9.5
t9.5 7.5t13 8.5t14 8.5q55 43 75 64q105 111 105 305v764q0 66 -68 88q-43 20 -43 46q0 12 4.5 20.5t15 15t19.5 10t28 10t31 11.5q34 14 74 33t59.5 27t33.5 8q52 0 52 -60q0 -12 -2.5 -48t-4.5 -105t-2 -162z" />
    <glyph glyph-name="k" unicode="k" horiz-adv-x="1152" 
d="M442 310q0 -106 12 -146t49 -67q7 -5 26 -14.5t28 -19t9 -24.5q0 -44 -65 -44q-18 0 -71 2.5t-78 2.5q-26 0 -75 -2.5t-78 -2.5q-60 0 -60 42q0 12 6.5 22t13 15t18.5 12.5t16 10.5q35 25 46.5 53t11.5 71v1030q0 56 -70 78q-41 16 -41 42q0 11 4 19t15.5 15.5t19 11
t29 11t30.5 11.5q35 14 73 32.5t57 26t35 7.5q53 0 53 -59q0 -13 -3 -78.5t-6 -232t-3 -424.5q0 -66 2.5 -99.5t5.5 -40t9 -6.5q19 0 103 67.5t161.5 147.5t77.5 107q0 18 -32.5 49t-32.5 51q0 44 50 44q23 0 68 -2.5t69 -2.5q25 0 83 3t74 3q58 0 58 -43q0 -18 -14.5 -32
t-48.5 -33.5t-48 -29.5q-31 -22 -158.5 -134.5t-205.5 -172.5q-12 -9 -12 -15q0 -8 12 -11q82 -31 151 -82t115.5 -105t84 -106.5t76.5 -98.5t74 -67l8 -4q8 -5 14.5 -10t14.5 -12t12.5 -16.5t4.5 -19.5q0 -9 -2.5 -18t-12.5 -18t-26 -9q-15 0 -74 2t-84 2q-29 0 -94 -2.5
t-77 -2.5q-25 0 -40.5 11.5t-15.5 32.5q0 16 22.5 41.5t22.5 45.5q0 32 -32.5 84.5t-87.5 108.5q-63 62 -123.5 92.5t-90.5 30.5q-38 0 -50.5 -30t-12.5 -101z" />
    <glyph glyph-name="l" unicode="l" horiz-adv-x="557" 
d="M456 1446q0 -14 -4.5 -103t-4.5 -215v-916q0 -44 12.5 -68.5t37.5 -43.5q8 -6 21.5 -14t20.5 -12.5t13 -13.5t6 -21q0 -44 -64 -44q-18 0 -68 2.5t-74 2.5q-26 0 -75 -2.5t-78 -2.5q-60 0 -60 42q0 12 6.5 22t13 15t18.5 12.5t16 10.5q35 25 46.5 53t11.5 71v1030
q0 56 -70 78q-41 16 -41 42q0 11 4 19t15.5 15.5t19 11t29 11t30.5 11.5q35 14 73 32.5t57 26t35 7.5q53 0 53 -59z" />
    <glyph glyph-name="m" unicode="m" horiz-adv-x="1827" 
d="M1076 858q6 0 35.5 30t69 65.5t109 65.5t144.5 30q150 0 233 -105t83 -311q0 -120 -14 -274t-14 -169q0 -63 46 -91q10 -6 25 -14t22 -12t13 -13t6 -21q0 -44 -68 -44q-18 0 -53.5 2.5t-62.5 2.5q-29 0 -65.5 -2.5t-54.5 -2.5q-46 0 -46 42q0 12 3.5 25.5t9.5 30.5t7 19
q16 51 30.5 186.5t14.5 286.5q0 157 -57.5 238t-158.5 81q-89 0 -165.5 -73.5t-76.5 -182.5q0 -120 -7 -281.5t-7 -176.5q0 -65 40 -91q9 -6 24 -14t22 -12t13 -13t6 -21q0 -44 -68 -44q-18 0 -51 2.5t-59 2.5q-30 0 -66.5 -2.5t-54.5 -2.5q-45 0 -45 42q0 22 20 75
q14 48 25.5 182.5t11.5 290.5q0 158 -55.5 238.5t-155.5 80.5q-87 0 -167.5 -78.5t-80.5 -153.5v-460q0 -45 10 -69.5t33 -42.5q7 -6 25.5 -16.5t25.5 -20t7 -24.5q0 -44 -63 -44q-25 0 -66 2.5t-65 2.5q-25 0 -73 -2.5t-76 -2.5q-59 0 -59 42q0 12 6 22t12 15t18.5 13
t15.5 10q33 25 44.5 53.5t11.5 70.5v575q0 32 -17 48.5t-49 26.5q-39 16 -39 43q0 12 4.5 20.5t16 15.5t20.5 11t29 11t31 12q25 10 56.5 25.5t47 21t29.5 5.5q40 0 50 -48l5 -32.5l5 -32.5t5 -26t6.5 -19.5t8.5 -6.5q4 0 33 28t67 61t101.5 61t128.5 28q166 0 250 -139
q3 -5 7 -10.5t6 -9.5t5 -8.5t5 -7t4.5 -5.5t4.5 -5t4 -3.5t4 -2t4 -0.5z" />
    <glyph glyph-name="n" unicode="n" 
d="M1152 633q0 -120 -15 -274t-15 -169q0 -61 48 -91q9 -6 25.5 -14t23.5 -12t13.5 -13t6.5 -21q0 -44 -69 -44q-18 0 -54 2.5t-66 2.5t-68.5 -2.5t-55.5 -2.5q-48 0 -48 42q0 12 4 26t10.5 29.5t7.5 19.5q17 52 32 187.5t15 285.5q0 158 -61.5 238.5t-170.5 80.5
q-97 0 -184.5 -78t-87.5 -154v-460q0 -44 11 -69t36 -43q8 -6 27 -16.5t27 -20t8 -24.5q0 -44 -66 -44q-26 0 -69.5 2.5t-68.5 2.5t-73.5 -2.5t-78.5 -2.5q-61 0 -61 42q0 12 6.5 22t12.5 15t19 13t16 10q35 25 47 53.5t12 70.5v575q0 32 -18 48.5t-53 27.5q-39 16 -39 42
q0 12 4.5 20.5t15.5 15.5t20 11t29 11t31 12q19 8 46 20t39.5 17.5t27.5 10t26 4.5q40 0 50 -48q2 -12 5.5 -32.5t5.5 -32.5t5 -25.5t7 -20t9 -6.5q4 0 35 28t71.5 61t109 61t138.5 28q160 0 249.5 -105t89.5 -311z" />
    <glyph glyph-name="o" unicode="o" horiz-adv-x="1131" 
d="M111 507q0 239 140.5 390.5t358.5 151.5q104 0 198 -38.5t166 -108.5t115 -177.5t43 -236.5q0 -124 -40 -222t-109.5 -160t-160.5 -94t-197 -32q-233 0 -373.5 147.5t-140.5 379.5zM591 937q-115 0 -191 -97t-76 -271q0 -169 59 -287q48 -92 120.5 -135t150.5 -43
q115 0 193.5 85.5t78.5 250.5q0 177 -73 317q-49 89 -117.5 134.5t-144.5 45.5z" />
    <glyph glyph-name="p" unicode="p" horiz-adv-x="1166" 
d="M1152 540q0 -246 -124.5 -403t-332.5 -157q-63 0 -118 19.5t-83.5 43.5t-49.5 43.5t-26 19.5q-18 0 -18 -60v-247q0 -12 1.5 -22.5t5.5 -19.5t7 -15.5t10.5 -13.5t11 -10.5t13.5 -9t12.5 -7t13 -7t11.5 -5.5q2 -1 10.5 -5t11.5 -5.5t10 -5.5t9.5 -6t8 -6t7.5 -7l5 -7.5
t4 -9.5t1 -10q0 -44 -65 -44q-17 0 -77 2t-90 2q-28 0 -83.5 -2t-84.5 -2q-61 0 -61 41q0 10 3 18t10.5 15t12.5 10.5t15.5 9.5t12.5 8q35 26 47 54.5t12 70.5v986q0 32 -17.5 48.5t-53.5 27.5q-39 16 -39 42q0 12 4.5 20.5t15.5 15.5t20 11t29 11t31 12q19 8 46 20
t39.5 17.5t27.5 10t26 4.5q40 0 50 -48q2 -12 5.5 -32.5t5.5 -32.5t5 -25.5t7 -20t9 -6.5q4 0 20.5 18.5t43.5 44.5t63.5 52t92 44.5t117.5 18.5q185 0 292 -138t107 -371zM680 910q-54 0 -103.5 -24t-90 -71t-65 -125.5t-24.5 -178.5q0 -211 77.5 -310t197.5 -99
q119 0 195 104.5t76 301.5q0 196 -72.5 299t-190.5 103z" />
    <glyph glyph-name="q" unicode="q" horiz-adv-x="1146" 
d="M1067 700v-890q0 -44 13 -72.5t45 -52.5q2 -1 12 -7.5t15 -10t12.5 -10.5t11 -15.5t3.5 -17.5q0 -41 -60 -41q-29 0 -88 2t-89 2q-31 0 -84.5 -2t-74.5 -2q-65 0 -65 44q0 13 8 24t16 16t23.5 12.5t19.5 9.5q19 9 29.5 16.5t27.5 24t25.5 42t8.5 60.5v262q0 43 -17 43
q-4 0 -18.5 -16t-39 -39.5t-59 -46.5t-90 -39t-120.5 -16q-179 0 -296 137.5t-117 370.5q0 132 36.5 239.5t99.5 177t146.5 107t179.5 37.5q63 0 123.5 -22t97 -48t66.5 -48t38 -22q26 0 53 41q5 7 18 27t18 27t14.5 19t17.5 16t17 4q33 0 33 -39q0 -3 -5 -91t-5 -213z
M606 123q129 0 198.5 100.5t69.5 293.5q0 116 -24 200t-65 128t-85.5 63.5t-95.5 19.5q-117 0 -196.5 -104t-79.5 -300q0 -194 76 -297.5t202 -103.5z" />
    <glyph glyph-name="r" unicode="r" horiz-adv-x="914" 
d="M664 886q-81 0 -151 -83t-70 -168v-418q0 -45 17.5 -70t60.5 -48q6 -3 33 -13t39.5 -20t12.5 -27q0 -44 -65 -44q-22 0 -87 2.5t-106 2.5q-25 0 -66 -2.5t-86 -2.5q-61 0 -61 42q0 12 6.5 22t12.5 15t19 13t16 10q35 25 47 53.5t12 70.5v575q0 32 -18 48.5t-53 27.5
q-39 16 -39 42q0 12 4.5 20.5t15.5 15.5t20 11t29 11t31 12q19 8 46 20t39.5 17.5t27.5 10t26 4.5q40 0 50 -48q2 -12 5.5 -32.5t5.5 -32.5t5 -25.5t7 -20t9 -6.5t32.5 28t64 61t97 61t122.5 28q72 0 123.5 -46t51.5 -136q0 -69 -39.5 -120.5t-96.5 -51.5q-15 0 -24 3
t-14.5 13t-7.5 16.5t-5 27t-5 30.5q-9 47 -33 74t-61 27z" />
    <glyph glyph-name="s" unicode="s" horiz-adv-x="966" 
d="M567 1050q86 0 172.5 -22.5t131.5 -69.5q50 -53 50 -164q0 -79 -43 -79q-10 0 -18 3.5t-17 13.5t-13.5 15.5t-16 22.5t-15.5 23q-108 152 -259 152q-82 0 -128.5 -40t-46.5 -103q0 -31 13 -56t31.5 -42t55.5 -34.5t68 -28t86 -27.5q68 -20 108.5 -35t93 -42.5t81.5 -58
t49.5 -79t20.5 -109.5q0 -99 -55 -172t-145.5 -109t-203.5 -36q-109 0 -218.5 37.5t-157.5 109.5q-37 51 -37 150q0 84 45 84q15 0 27.5 -14t30.5 -44q124 -204 331 -204q85 0 133 42t48 113q0 32 -13.5 58t-28 42t-56.5 35.5t-63 27.5t-84 29q-19 7 -29 10q-33 11 -50 17
t-48 18.5t-48.5 21.5t-43 24.5t-40.5 30t-32.5 35t-26.5 42.5t-15.5 50.5t-6.5 59.5q0 95 55.5 165t141 103.5t186.5 33.5z" />
    <glyph glyph-name="t" unicode="t" horiz-adv-x="783" 
d="M386 868q-2 -27 -5.5 -217t-3.5 -263q0 -50 5.5 -88.5t21 -78.5t48.5 -62t83 -22q85 0 162 84q28 31 40 31q25 0 25 -36q0 -31 -22 -69q-17 -29 -39.5 -55t-57.5 -53t-86 -43t-112 -16q-268 0 -268 363q0 49 6.5 248.5t6.5 241.5q0 28 -7 40t-27 14q-94 10 -113 19
q-20 10 -20 31q0 43 44 59q106 43 153 99q30 35 52.5 90.5t38.5 87.5t40 32q44 0 44 -70q0 -16 -2.5 -69t-5 -100t-2.5 -49q0 -4 1 -5.5t7 -1.5t136 5.5t142 5.5q27 0 41.5 -11.5t14.5 -40.5q0 -23 -10.5 -48.5t-22.5 -36.5q-11 -11 -29 -11q-9 0 -130.5 5.5t-134.5 5.5
t-14 -16z" />
    <glyph glyph-name="u" unicode="u" 
d="M1103 707v-476q0 -39 15 -65t46 -26q16 0 32 5.5t22 5.5t11.5 -8t5.5 -24q0 -53 -47 -93t-112 -40q-40 0 -70.5 11t-49.5 30.5t-29.5 36.5t-19.5 39q-8 19 -18 19q-5 0 -28 -23q-20 -18 -28 -25t-40 -29t-60 -33t-75 -21.5t-98 -10.5q-90 0 -158 31.5t-108 87.5
t-59.5 126t-19.5 153q0 94 9.5 240.5t9.5 159.5q0 40 -8 61.5t-27 40.5q-9 8 -30.5 19.5t-34.5 23.5t-13 30q0 44 69 53q74 9 140.5 22t85.5 13q53 0 53 -54q0 -24 -12.5 -93t-25 -188t-12.5 -266q0 -322 226 -322q120 0 191 79.5t71 231.5v332q0 50 -12.5 79t-47.5 50
q-4 3 -12.5 8.5t-13 8.5t-11 8.5t-10 10.5t-6 12t-2.5 15q0 43 60 51q59 6 134 21.5t91 15.5q24 0 36.5 -14.5t12.5 -38.5q0 -12 -11.5 -94.5t-11.5 -186.5z" />
    <glyph glyph-name="v" unicode="v" horiz-adv-x="1071" 
d="M935 802q-29 -69 -78 -202t-89.5 -244.5t-44.5 -122.5q-3 -9 -12.5 -32t-13.5 -32.5t-12.5 -28.5t-14 -30t-13 -25t-15.5 -25t-16 -21q-17 -20 -52.5 -35.5t-63.5 -15.5q-32 0 -46.5 16t-32.5 60q-3 6 -4 9q-70 168 -246 611q-26 65 -42.5 100.5t-41.5 76.5t-49 58
q-15 12 -23 19t-15.5 19.5t-7.5 27.5q0 46 52 46q22 0 65 -2.5t66 -2.5q21 0 77.5 2.5t79.5 2.5q30 0 45 -9.5t15 -39.5q0 -13 -16 -29.5t-31.5 -37t-15.5 -45.5q0 -30 20 -93.5t84 -229.5q123 -323 138 -323q25 0 138 348q75 223 75 288q0 25 -12 44.5t-26.5 29.5
t-26.5 23.5t-12 28.5q0 21 12.5 33t32.5 12q17 0 67 -2.5t65 -2.5q19 0 62 2.5t54 2.5q46 0 46 -41q0 -19 -11 -34t-27 -27.5t-40 -45.5t-43 -81z" />
    <glyph glyph-name="w" unicode="w" horiz-adv-x="1645" 
d="M849 581q-10 32 -20 32q-9 0 -20 -33q-150 -476 -211 -541q-20 -20 -53.5 -35t-63.5 -15t-46 18.5t-36 64.5q-83 233 -224 612q-25 63 -41 100t-40.5 78t-47.5 57q-44 31 -44 66q0 46 51 46q21 0 63 -2.5t64 -2.5q21 0 77 2.5t79 2.5q30 0 45.5 -10t15.5 -38
q0 -15 -30.5 -48t-30.5 -65q0 -68 90 -323q110 -316 126 -316q6 0 21 34t40.5 112t57.5 188q32 111 58.5 246.5t29.5 146.5q8 27 39.5 43.5t64.5 16.5q35 0 51 -15.5t25 -48.5q2 -6 12.5 -49.5t21.5 -85.5t33 -117.5t48 -153.5q106 -316 127 -316q25 0 126 339
q66 212 66 289q0 25 -11.5 44.5t-26 29.5t-26 23.5t-11.5 28.5q0 21 12.5 33t32.5 12q16 0 67 -2.5t67 -2.5q19 0 58 2.5t49 2.5q45 0 45 -41q0 -19 -10.5 -34t-26 -27.5t-38 -45.5t-40.5 -81q-33 -84 -99 -286t-96 -283q-55 -154 -91 -194q-19 -21 -53.5 -35.5t-64.5 -14.5
q-26 0 -43.5 20t-36.5 60q-16 35 -81.5 215.5t-99.5 296.5z" />
    <glyph glyph-name="x" unicode="x" horiz-adv-x="1092" 
d="M511 408q-8 0 -102.5 -124.5t-94.5 -147.5q0 -24 34 -47.5t34 -46.5q0 -22 -15.5 -33.5t-35.5 -11.5q-11 0 -80.5 1.5t-89.5 1.5q-25 0 -66 -1.5t-42 -1.5q-47 0 -47 38q0 13 7.5 23.5t17 17.5t32 22t38.5 27q74 56 337 367q6 6 6 13q0 5 -6 14q-43 56 -156 196t-135 164
q-21 23 -52.5 40.5t-47.5 31t-16 37.5q0 19 14.5 30t38.5 11q21 0 66.5 -2t64.5 -2q21 0 100 2t95 2q52 0 52 -48q0 -19 -32 -41.5t-32 -37.5q0 -20 82.5 -145.5t91.5 -125.5q4 0 48.5 57.5t88 123.5t43.5 84q0 20 -34.5 45t-34.5 47q0 43 53 43q10 0 52 -2.5t62 -2.5
q24 0 75 1.5t55 1.5q52 0 52 -44q0 -16 -9.5 -27t-38.5 -29.5t-44 -30.5q-24 -18 -78.5 -81t-125.5 -151t-83 -102q-7 -8 -7 -15q0 -8 6 -14q37 -43 109.5 -135.5t130 -166t70.5 -85.5q23 -21 55 -41t45 -33.5t13 -35.5q0 -18 -15 -30.5t-39 -12.5q-21 0 -78 2.5t-76 2.5
q-20 0 -89.5 -2.5t-85.5 -2.5q-57 0 -57 46q0 21 32.5 47t32.5 46q0 23 -89.5 148.5t-99.5 125.5z" />
    <glyph glyph-name="y" unicode="y" horiz-adv-x="1081" 
d="M944 802q-26 -61 -114 -295.5t-143 -361.5q-33 -75 -50.5 -115t-46 -101.5t-46.5 -94t-44.5 -78t-46.5 -69t-47 -51.5t-52 -41t-55 -22t-62 -9q-70 0 -116.5 42t-46.5 108q0 59 34.5 101.5t80.5 42.5q40 0 59 -45q14 -34 29 -52.5t38 -18.5q38 0 94 80t56 137
q0 14 -11.5 52.5t-32.5 94t-44 113.5t-52 128t-50 119.5t-44.5 105t-29.5 68.5q-4 9 -18 43t-20.5 49t-20 45t-23 47t-22 38t-24.5 35t-24 22q-17 13 -23.5 19t-15 19.5t-8.5 27.5q0 46 52 46q22 0 65.5 -2.5t67.5 -2.5q21 0 76.5 2.5t79.5 2.5q30 0 45 -9.5t15 -39.5
q0 -13 -15.5 -29.5t-31.5 -37t-16 -45.5q0 -30 20.5 -93t86.5 -230q125 -323 139 -323q23 0 139 345q77 223 77 291q0 25 -12 44.5t-26.5 29.5t-26.5 23.5t-12 28.5q0 21 12 33t33 12q17 0 67.5 -2.5t65.5 -2.5q19 0 62 2.5t54 2.5q47 0 47 -41q0 -19 -11 -34t-27.5 -27.5
t-40 -45.5t-43.5 -81z" />
    <glyph glyph-name="z" unicode="z" horiz-adv-x="930" 
d="M85 98l538 684q32 39 32 56q0 9 -7.5 13t-44.5 6.5t-116 2.5q-206 0 -291 -42q-16 -7 -33 -18t-28 -15.5t-24 -4.5q-32 0 -32 42q0 9 23 111q1 4 6 28.5t8 32t10.5 22.5t19 20.5t27.5 5.5q13 0 51 -4t119 -8.5t201 -4.5q108 0 205 5t105 5q41 0 41 -39q0 -26 -30 -64
l-523 -686q-33 -39 -33 -57q0 -14 187 -14q178 0 275 47q16 8 32 17.5t24 14t17 7.5t18 3q31 0 31 -46q0 -15 -4.5 -37.5t-12.5 -60.5t-14 -72q-8 -64 -62 -64q-5 0 -113 8t-290 8q-131 0 -211 -3t-90 -3q-45 0 -45 37q0 25 34 67z" />
    <glyph glyph-name="braceleft" unicode="{" horiz-adv-x="691" 
d="M477 581q0 -5 13.5 -11t32.5 -17.5t38 -30.5t32.5 -58.5t13.5 -92.5q0 -74 -38 -233.5t-38 -217.5q0 -60 30 -99t102 -58q14 -4 36 -8t34.5 -6.5t26 -8t20 -14t6.5 -21.5q0 -21 -22.5 -30t-72.5 -9q-96 0 -166.5 19.5t-110 54.5t-58 76.5t-18.5 91.5q0 72 51.5 254
t51.5 247q0 50 -18.5 80.5t-40 39.5t-40 21.5t-18.5 30.5t18.5 31t40 22t40 39t18.5 80q0 65 -51.5 247t-51.5 254q0 50 18.5 91.5t58 76.5t110 54.5t166.5 19.5q50 0 72.5 -9t22.5 -30q0 -13 -6.5 -21.5t-20 -14t-26 -8t-34.5 -6.5t-36 -8q-72 -19 -102 -58t-30 -99
q0 -58 38 -217t38 -234q0 -65 -20.5 -109t-44.5 -59.5t-44.5 -25.5t-20.5 -16z" />
    <glyph glyph-name="bar" unicode="|" horiz-adv-x="590" 
d="M591 1465v-1845q0 -37 -67 -37q-43 0 -62.5 9t-19.5 32v1846q0 37 68 37q42 0 61.5 -9.5t19.5 -32.5z" />
    <glyph glyph-name="braceright" unicode="}" horiz-adv-x="691" 
d="M442 581q0 6 -20.5 16t-44.5 25.5t-44.5 59.5t-20.5 109q0 75 38.5 234t38.5 217q0 60 -29.5 99t-102.5 58q-14 4 -36 8t-35 6.5t-26.5 8t-20 14t-6.5 21.5q0 21 22.5 30t73.5 9q96 0 166.5 -19.5t110 -54.5t58 -76.5t18.5 -91.5q0 -72 -51.5 -254t-51.5 -247
q0 -50 18.5 -80t40.5 -39t40.5 -22t18.5 -31t-18.5 -30.5t-40.5 -21.5t-40.5 -39.5t-18.5 -80.5q0 -65 51.5 -247t51.5 -254q0 -50 -18.5 -91.5t-58 -76.5t-110 -54.5t-166.5 -19.5q-51 0 -73.5 9t-22.5 30q0 13 6.5 21.5t20 14t26.5 8t35 6.5t36 8q73 19 102.5 58t29.5 99
q0 58 -38.5 217.5t-38.5 233.5q0 53 13.5 92.5t32.5 58.5t38 30.5t32.5 17.5t13.5 11z" />
    <glyph glyph-name="asciitilde" unicode="~" horiz-adv-x="1101" 
d="M221 555q0 93 67 167t169 74q52 0 114.5 -24t110.5 -53t106 -53t101 -24q42 0 71 16t42 39t21.5 45.5t16.5 38.5t19 16q16 0 29.5 -28.5t13.5 -62.5q0 -93 -63.5 -158.5t-169.5 -65.5q-54 0 -117 24.5t-110.5 54.5t-104 54.5t-98.5 24.5q-47 0 -80 -24t-47 -53.5
t-28.5 -53.5t-27.5 -24q-12 0 -23.5 18.5t-11.5 51.5z" />
    <glyph glyph-name="uni00A0" unicode="&#xa0;" horiz-adv-x="512" 
 />
    <glyph glyph-name="exclamdown" unicode="&#xa1;" horiz-adv-x="502" 
d="M503 922q0 -62 -42 -100t-100 -38q-53 0 -89 31.5t-36 90.5q0 63 42.5 103t97.5 40q52 0 89.5 -34t37.5 -93zM249 -222q0 95 30 366t52 428q6 53 40 53q29 0 43 -48q19 -64 43.5 -367.5t24.5 -435.5q0 -85 -29.5 -125t-92.5 -40q-58 0 -84.5 41t-26.5 128z" />
    <glyph glyph-name="cent" unicode="&#xa2;" horiz-adv-x="1187" 
d="M803 1510q0 -22 -5 -272q146 -12 241.5 -94.5t95.5 -186.5q0 -64 -40.5 -100t-75.5 -36q-14 0 -22 3t-12 11.5t-5.5 17t-4.5 26.5t-6 32q-40 173 -173 213q-2 -141 -8.5 -444t-7.5 -337q71 2 131 23.5t98.5 55.5t61.5 63t39 61q18 29 35 29q24 0 24 -51
q0 -50 -26.5 -106.5t-74.5 -109t-125 -90.5t-167 -46l-5 -277q-2 -26 -26 -45t-56 -19q-20 0 -26.5 10t-6.5 38q0 74 4 295q-190 23 -308.5 163t-118.5 347q0 209 124 366.5t325 184.5q7 255 9 271q3 22 27 41t55 19q30 0 30 -56zM407 748q0 -149 70 -254t187 -138l16 778
q-115 -15 -194 -121.5t-79 -264.5z" />
    <glyph glyph-name="sterling" unicode="&#xa3;" horiz-adv-x="1187" 
d="M121 556q0 56 181 89q19 4 25.5 10t6.5 17q0 7 -29 56t-58 124.5t-29 146.5q0 128 70 227t175 148t223 49q100 0 202 -34t163 -100q24 -27 39.5 -80.5t15.5 -111.5q0 -54 -9.5 -77t-31.5 -23q-14 0 -26.5 10.5t-20 23t-21.5 38.5t-23 40q-26 41 -49.5 70t-61 61.5t-88 50
t-111.5 17.5q-113 0 -182.5 -74t-69.5 -172q0 -140 137 -321q17 -23 27.5 -31t24.5 -8q12 0 149 26.5t162 26.5q36 0 36 -35q0 -30 -17 -64t-47 -50q-12 -7 -45.5 -10.5t-94 -8t-104.5 -10.5q-28 -3 -28 -26q-13 -159 -70 -238q-10 -14 -21.5 -27t-16 -19t-4.5 -11
q0 -11 21 -11q48 -3 191 -39.5t188 -36.5q157 0 206 200q6 23 10 34.5t12.5 23t19.5 11.5q35 0 35 -68q0 -83 -17 -151.5t-52 -122t-93.5 -83.5t-136.5 -30q-59 0 -156.5 30.5t-187.5 61.5t-132 31q-29 0 -55.5 -12t-46.5 -29t-39 -34t-41 -29t-44 -12q-23 0 -35.5 15
t-12.5 32q0 24 22.5 49t57 46.5t74 52.5t74 63.5t57 83t22.5 108.5q0 53 -21.5 76.5t-65.5 23.5q-20 0 -98 -10t-96 -10q-19 0 -29 10.5t-10 25.5z" />
    <glyph glyph-name="currency" unicode="&#xa4;" horiz-adv-x="1187" 
d="M321 653q0 128 76 229l-146 135q-18 15 -18 35q0 21 28 51t48 30q17 0 31 -15l139 -155q98 75 229 75q127 0 229 -75l141 155q15 15 30 15q21 0 49 -30.5t28 -52.5q0 -15 -18 -33l-149 -136q75 -96 75 -228q0 -128 -77 -230l156 -140q15 -15 15 -30q0 -21 -30 -49
t-51 -28q-20 0 -35 18l-136 148q-100 -76 -227 -76t-230 76l-140 -154q-14 -14 -31 -14q-20 0 -48 31t-28 52q0 15 18 33l148 135q-76 98 -76 228zM454 653q0 -107 73 -184.5t181 -77.5t181 77.5t73 184.5t-73 184.5t-181 77.5t-181 -77.5t-73 -184.5z" />
    <glyph glyph-name="yen" unicode="&#xa5;" horiz-adv-x="1230" 
d="M1051 525h-268q-10 0 -16 -5.5t-8.5 -18t-3 -22t-0.5 -27.5q0 -23 1 -34t7 -22.5t19 -11.5h332q29 0 29 -34q0 -40 -24 -67.5t-68 -27.5h-281q1 -75 13.5 -104t38.5 -47q10 -8 33 -19t33 -21.5t10 -26.5q0 -42 -65 -42q-17 0 -82 2.5t-91 2.5t-91 -2.5t-83 -2.5
q-65 0 -65 42q0 17 11 27.5t33 21.5t32 18q17 12 26 23.5t17 43t9 84.5h-331q-31 0 -31 36q0 38 22.5 65.5t68.5 27.5h257q12 0 18.5 11.5t7.5 23.5t1 34q0 35 -5 53.5t-23 18.5h-316q-31 0 -31 36t24 64t67 28h230q-37 75 -148 259.5t-195 313.5q-17 27 -45.5 48.5
t-45.5 37t-17 36.5q0 50 79 50q13 0 61 -2.5t77 -2.5q45 0 97.5 2.5t69.5 2.5q63 0 63 -47q0 -20 -38 -53.5t-38 -58.5q0 -43 120.5 -270.5t146.5 -227.5q25 0 137.5 225.5t112.5 266.5q0 22 -12.5 39.5t-27 27t-27 23.5t-12.5 30q0 45 64 45q13 0 59 -2.5t67 -2.5
q22 0 63 2.5t58 2.5q23 0 36.5 -10.5t13.5 -28.5q0 -14 -6 -26q-5 -12 -39 -39.5t-58 -63.5q-27 -35 -138 -232t-189 -345h317q29 0 29 -32q0 -40 -24 -68t-68 -28z" />
    <glyph glyph-name="brokenbar" unicode="&#xa6;" horiz-adv-x="590" 
d="M591 1465v-745q0 -36 -67 -36q-43 0 -62.5 9t-19.5 32v745q0 37 68 37q42 0 61.5 -9.5t19.5 -32.5zM591 365v-745q0 -37 -67 -37q-43 0 -62.5 9t-19.5 32v746q0 37 68 37q42 0 61.5 -9.5t19.5 -32.5z" />
    <glyph glyph-name="section" unicode="&#xa7;" horiz-adv-x="1187" 
d="M1152 509q0 -51 -15.5 -93.5t-38 -67.5t-44.5 -42.5t-37.5 -27.5t-15.5 -15q0 -6 18 -20.5t43.5 -37t50.5 -54t43 -82t18 -109.5q0 -117 -59 -204t-156 -130t-217 -43q-94 0 -180.5 28t-147.5 72t-106.5 95.5t-68 99.5t-22.5 84q0 45 27 45q11 0 19.5 -7.5t23 -32
t21.5 -34.5q59 -87 168 -155.5t244 -68.5q124 0 194.5 57t70.5 148q0 67 -39 116.5t-101 80t-137.5 57t-151 56t-137.5 67t-101 100t-39 146.5q0 59 23 108t50 74.5t50 44t23 23.5q0 4 -22.5 25t-49.5 49t-49.5 83.5t-22.5 120.5q0 111 64 194.5t162 123.5t212 40
q102 0 200.5 -33t149.5 -97q55 -68 55 -189q0 -96 -38 -96q-17 0 -30 13t-33 50.5t-26 46.5q-122 199 -306 199q-110 0 -179.5 -59t-69.5 -150q0 -61 39 -105.5t102 -72.5t138.5 -52.5t151 -53.5t138.5 -66.5t102 -101t39 -147.5zM1006 453q0 61 -52.5 114t-126.5 84
t-146.5 49t-120.5 18q-62 0 -102 -33t-40 -92q0 -52 36 -96.5t90 -72t117.5 -47.5t115.5 -28.5t88 -8.5q60 0 100.5 29t40.5 84z" />
    <glyph glyph-name="dieresis" unicode="&#xa8;" horiz-adv-x="692" 
d="M217 1453q50 0 82.5 -31t32.5 -81q0 -61 -43.5 -102.5t-105.5 -41.5q-50 0 -79.5 30.5t-29.5 78.5q0 58 42 102.5t101 44.5zM580 1453q50 0 82 -31t32 -81q0 -61 -43 -102.5t-105 -41.5q-50 0 -80.5 30.5t-30.5 78.5q0 58 42.5 102.5t102.5 44.5z" />
    <glyph glyph-name="copyright" unicode="&#xa9;" horiz-adv-x="1689" 
d="M205 696q0 204 95 371t265.5 263.5t382.5 96.5q159 0 297 -56.5t235.5 -153.5t153.5 -232.5t56 -288.5q0 -154 -56 -289.5t-153.5 -232.5t-235.5 -153t-297 -56q-212 0 -382.5 96t-265.5 263t-95 372zM328 696q0 -123 41 -235t117.5 -199.5t196 -139.5t265.5 -52
q117 0 217.5 33.5t173.5 92.5t125 138t77.5 171t25.5 191q0 123 -41.5 235t-117.5 200t-196 140t-266 52q-145 0 -264.5 -52t-195.5 -140t-117 -200t-41 -235zM509 682q0 134 55 245.5t162.5 180.5t246.5 69q137 0 228.5 -69.5t91.5 -164.5q0 -58 -38 -91t-88 -33
q-13 0 -21 2t-13 10.5t-6.5 13t-5 23t-5.5 27.5q-19 81 -65 130t-119 49q-100 0 -169.5 -89t-69.5 -228q0 -159 86 -262.5t234 -103.5q49 0 91.5 13t69.5 30.5t51.5 44.5t35.5 44t24 41q22 27 32 27q23 0 23 -47q0 -49 -26 -103t-73 -102.5t-123.5 -80.5t-166.5 -32
q-193 0 -317.5 128.5t-124.5 327.5z" />
    <glyph glyph-name="ordfeminine" unicode="&#xaa;" horiz-adv-x="819" 
d="M385 1069q40 11 93.5 19t89 13t42.5 10q16 11 16 60q0 77 -35 126t-106 49q-54 0 -85.5 -35.5t-44.5 -91.5q-6 -28 -19.5 -42t-40.5 -14q-31 0 -55.5 22.5t-24.5 64.5q0 67 75 120t198 53q141 0 222 -76.5t81 -210.5q0 -51 -4.5 -149t-4.5 -126q0 -62 42 -62
q10 0 20.5 2.5t14.5 2.5q13 0 13 -24q0 -42 -36.5 -74t-86.5 -32q-89 0 -121 77q-6 11 -12 11q-4 0 -17 -13q-37 -36 -92.5 -58t-116.5 -22q-94 0 -154 46.5t-60 130.5q0 160 209 223zM626 967q0 55 -14 55q-91 0 -156 -20q-57 -19 -85.5 -53t-28.5 -75q0 -45 31 -71t81 -26
q77 0 124.5 51.5t47.5 138.5z" />
    <glyph glyph-name="guillemotleft" unicode="&#xab;" horiz-adv-x="1013" 
d="M452 561q0 -6 4 -13.5t9.5 -15t19.5 -24.5t26 -33q61 -81 93 -147t32 -101q0 -34 -29 -34q-20 0 -47 34q-49 61 -124.5 131.5t-128.5 108.5q-7 6 -28 20.5t-30.5 22.5t-19.5 22.5t-10 28.5t10 28.5t19.5 22.5t30.5 22.5t28 20.5q143 107 253 240q1 1 5 6t6 7t6 6.5t7 6.5
t7 4.5t8 3.5t8 1q14 0 21.5 -10t7.5 -25q0 -35 -32 -101t-93 -147q-12 -16 -26 -33t-19.5 -24.5t-9.5 -15t-4 -13.5zM830 561q0 -6 4 -13.5t10 -15t19.5 -24t26.5 -33.5q61 -81 93 -147t32 -101q0 -34 -29 -34q-20 0 -47 34q-49 61 -124.5 131.5t-128.5 108.5q-7 6 -28 20.5
t-30.5 22.5t-19.5 22.5t-10 28.5t10 28.5t19.5 22.5t30.5 22.5t28 20.5q143 107 253 240q1 1 5 6t6 7t6 6.5t7 6.5t7 4.5t8 3.5t8 1q14 0 21.5 -10t7.5 -25q0 -35 -32 -101t-93 -147q-13 -17 -26.5 -33.5t-19.5 -24t-10 -15t-4 -13.5z" />
    <glyph glyph-name="logicalnot" unicode="&#xac;" horiz-adv-x="1101" 
d="M1034 389q-42 0 -61.5 9t-19.5 32v340q0 18 -5 23.5t-21 5.5h-678q-28 0 -28 34q0 38 15 79q8 17 21 25t46 8h756q43 0 43 -50v-470q0 -36 -68 -36z" />
    <glyph glyph-name="uni00AD" unicode="&#xad;" horiz-adv-x="733" 
d="M625 461h-428q-47 0 -47 43q0 47 19 80q9 18 28.5 25.5t59.5 7.5h430q46 0 46 -39q0 -48 -19 -82q-19 -35 -89 -35z" />
    <glyph glyph-name="registered" unicode="&#xae;" horiz-adv-x="1689" 
d="M205 696q0 204 95 371t265.5 263.5t382.5 96.5q159 0 297 -56.5t235.5 -153.5t153.5 -232.5t56 -288.5q0 -154 -56 -289.5t-153.5 -232.5t-235.5 -153t-297 -56q-212 0 -382.5 96t-265.5 263t-95 372zM328 696q0 -123 41 -235t117.5 -199.5t196 -139.5t265.5 -52
q117 0 217.5 33.5t173.5 92.5t125 138t77.5 171t25.5 191q0 123 -41.5 235t-117.5 200t-196 140t-266 52q-145 0 -264.5 -52t-195.5 -140t-117 -200t-41 -235zM806 591v-170q0 -53 32 -79q4 -3 12.5 -9t12 -9t8.5 -8.5t7 -11t2 -12.5q0 -29 -44 -29q-14 0 -52.5 2t-54.5 2
q-22 0 -59 -2t-47 -2q-43 0 -43 29q0 12 8.5 21t19 15.5t20.5 20.5t13 35q7 51 7 337q0 251 -3 286q-2 34 -17.5 54t-30 32.5t-14.5 29.5q0 30 40 30q20 0 60 -2t73 -2q31 0 94 3t107 3q149 0 230 -59.5t81 -173.5q0 -156 -193 -224q-9 -2 -9 -8q0 -4 9 -10q33 -20 62 -50
t52.5 -69.5t34.5 -61.5t29 -61q31 -62 48 -80q8 -8 18 -16q7 -6 17 -13t14.5 -10t8 -9.5t3.5 -15.5q0 -31 -38 -31q-11 0 -50 2t-55 2q-28 0 -63.5 -2t-40.5 -2q-18 0 -29 9t-11 22q0 9 9 26t9 34q0 62 -45.5 147.5t-90.5 113.5q-35 23 -99 23q-30 0 -41 -11t-11 -36z
M1093 898q0 80 -49.5 122.5t-134.5 42.5q-72 0 -87.5 -11t-15.5 -60v-204q0 -30 20 -42.5t81 -12.5q87 0 136.5 44.5t49.5 120.5z" />
    <glyph glyph-name="macron" unicode="&#xaf;" horiz-adv-x="692" 
d="M588 1217h-426q-45 0 -45 41q0 44 18 76q15 31 85 31h428q44 0 44 -38q0 -45 -18 -77q-19 -33 -86 -33z" />
    <glyph glyph-name="degree" unicode="&#xb0;" horiz-adv-x="768" 
d="M477 1424q125 0 207.5 -86t82.5 -218q0 -131 -83 -220t-213 -89t-214.5 87.5t-84.5 214.5q0 131 88 221t217 90zM482 1315q-74 0 -125 -54.5t-51 -140.5q0 -82 47.5 -134.5t124.5 -52.5q76 0 124 53.5t48 135.5q0 81 -47 137t-121 56z" />
    <glyph glyph-name="plusminus" unicode="&#xb1;" horiz-adv-x="1101" 
d="M735 1206v-327h339q28 0 28 -33q0 -36 -15 -81q-7 -18 -20 -25.5t-47 -7.5h-285v-340q0 -36 -66 -36q-43 0 -62 9t-19 32v335h-339q-28 0 -28 34q0 39 15 80q8 17 21 25t46 8h285v332q0 36 66 36q43 0 62 -9t19 -32zM1020 138h-771q-28 0 -28 34q0 39 15 80q8 17 21 25
t46 8h771q28 0 28 -33q0 -36 -15 -81q-7 -18 -20 -25.5t-47 -7.5z" />
    <glyph glyph-name="two.sups" unicode="&#xb2;" horiz-adv-x="699" 
d="M282 895q0 -12 86 -12q164 0 243 48q10 6 25 16.5t23.5 15t15.5 4.5q22 0 22 -32q0 -12 -4.5 -33.5t-11.5 -52.5t-11 -54q-4 -26 -14 -33.5t-38 -7.5q-5 0 -92 1t-157 1q-73 0 -161.5 -1t-96.5 -1q-35 0 -35 25q0 23 32 52l106 103q16 15 50.5 47.5t50.5 48.5t43 43.5
t40.5 46.5t28.5 43.5t21 47.5t6 47q0 60 -42 90.5t-102 30.5q-54 0 -95.5 -25.5t-64.5 -64.5q-12 -21 -25 -21q-17 0 -17 37q0 29 16.5 62.5t47.5 65.5t84.5 53.5t118.5 21.5q103 0 172.5 -52.5t69.5 -147.5q0 -34 -9 -66.5t-30 -64t-39.5 -55.5t-54 -55.5t-56.5 -49
t-63 -50.5q-14 -12 -40 -32t-34.5 -28t-8.5 -12z" />
    <glyph glyph-name="three.sups" unicode="&#xb3;" horiz-adv-x="697" 
d="M622 1364q-28 -34 -56.5 -61.5t-57.5 -51.5t-31 -26q-2 -3 -5.5 -6t-5.5 -5t-2 -3q0 -6 13 -10q218 -68 218 -221q0 -102 -83.5 -169t-210.5 -67q-71 0 -131.5 23t-97.5 57.5t-57.5 72.5t-20.5 70q0 30 23 30q6 0 21 -19q32 -44 88.5 -78.5t135.5 -34.5q81 0 124.5 33.5
t43.5 92.5q0 35 -18 61.5t-51 41.5t-54 21.5t-54 13.5q-37 7 -37 37q0 12 12 24.5t50 43.5q115 95 115 116q0 9 -90 9q-85 0 -126.5 -12t-67.5 -36q-6 -6 -13.5 -15.5t-14 -14.5t-14.5 -5q-22 0 -22 33q0 12 23 142q5 29 12.5 36.5t37.5 7.5q7 0 76.5 -2t134.5 -2
q49 0 101 1t86 2t39 1q12 0 20 -8.5t8 -18.5q0 -34 -61 -104z" />
    <glyph glyph-name="acute" unicode="&#xb4;" horiz-adv-x="565" 
d="M288 1231q55 98 84 183q8 26 15 42t19.5 35.5t31.5 29.5t44 10q39 0 61 -25.5t22 -60.5q0 -55 -51 -124q-46 -65 -113 -117.5t-99 -52.5q-36 0 -36 31q0 9 22 49z" />
    <glyph glyph-name="mu" unicode="&#xb5;" horiz-adv-x="1144" 
d="M364 -22q-110 0 -173 88q-9 12 -16 26.5t-11 21.5t-8 7q-13 0 -13 -27q0 -5 5 -37.5t5 -73.5q0 -95 -32.5 -177.5t-81 -134t-101 -80.5t-97.5 -29q-28 0 -49 11t-21 25q0 21 36 54q67 65 119.5 211t80.5 319t42 330t14 281q0 41 -4.5 84.5t-4.5 52.5q0 51 75 85
q77 33 142 33q21 0 32.5 -13.5t11.5 -32.5q0 -18 -19 -121t-38 -240.5t-19 -240.5q0 -136 48 -202t115 -66q87 0 151.5 97t95 251.5t30.5 342.5q0 24 -2.5 61.5t-2.5 46.5q0 50 53 73q68 32 144 32q50 0 50 -59q0 -22 -46 -306.5t-46 -401.5q0 -131 62 -131q20 0 42.5 29
t34.5 29q7 0 13.5 -9.5t6.5 -28.5q0 -28 -10.5 -56.5t-30.5 -55t-56 -43.5t-81 -17q-36 0 -65 15t-47.5 39.5t-29.5 47.5t-18 48l-2 8q-3 8 -5.5 11.5t-6.5 3.5q-8 0 -23 -28q-97 -153 -249 -153z" />
    <glyph glyph-name="paragraph" unicode="&#xb6;" horiz-adv-x="1187" 
d="M640 -370l-1 1014q0 23 -5.5 31t-18.5 8q-8 0 -55.5 -8t-89.5 -8q-158 0 -251.5 98.5t-93.5 259.5q0 171 117 281.5t335 110.5q53 0 188 -12t209 -12q35 0 68 2.5t40 2.5q63 0 63 -46q0 -19 -11.5 -31t-27.5 -21t-32 -21.5t-27.5 -41.5t-11.5 -73v-1520q0 -25 -25 -43
t-62 -18q-50 0 -50 47v1538q0 60 -23.5 87.5t-52.5 27.5q-26 0 -35.5 -17.5t-9.5 -55.5v-1566q0 -25 -25.5 -43t-62.5 -18q-49 0 -49 47z" />
    <glyph glyph-name="periodcentered" unicode="&#xb7;" horiz-adv-x="493" 
d="M493 531q0 -62 -41.5 -99.5t-99.5 -37.5q-54 0 -90.5 31.5t-36.5 90.5q0 63 42.5 102t98.5 39q52 0 89.5 -33.5t37.5 -92.5z" />
    <glyph glyph-name="cedilla" unicode="&#xb8;" horiz-adv-x="573" 
d="M286 -141q0 38 41 106t74 68q11 0 27 -10.5t16 -19.5q0 -3 -15 -36.5t-15 -46.5q0 -4 5.5 -6t19 -7t25.5 -10q108 -55 108 -159q0 -90 -61.5 -144t-157.5 -54q-69 0 -125 38t-56 65q0 13 7 20.5t17 7.5q6 0 48 -22.5t86 -22.5q42 0 70.5 24.5t28.5 62.5q0 42 -32.5 73
t-87.5 43q-23 5 -23 30z" />
    <glyph glyph-name="one.sups" unicode="&#xb9;" horiz-adv-x="503" 
d="M372 1504q31 0 31 -31q0 -6 -4.5 -114t-4.5 -223q0 -212 7 -258q3 -19 21 -32t37.5 -18.5t35.5 -16.5t16 -26q0 -31 -38 -31q-18 0 -74.5 1t-72.5 1q-19 0 -84.5 -1t-82.5 -1q-38 0 -38 31q0 15 16.5 26t36.5 16.5t38.5 18.5t21.5 32q10 50 10 258q0 118 -4 155t-19 44
q-12 6 -33 6q-5 0 -15.5 -0.5t-15.5 -0.5q-31 0 -31 24t35 40q52 23 102 49.5t73.5 38.5t35.5 12z" />
    <glyph glyph-name="ordmasculine" unicode="&#xba;" horiz-adv-x="819" 
d="M92 1041q0 168 100 275t255 107q156 0 264 -106.5t108 -287.5q0 -172 -102.5 -265t-259.5 -93q-165 0 -265 103t-100 267zM431 1334q-71 0 -118 -61.5t-47 -176.5q0 -117 42 -206q30 -60 76.5 -88t96.5 -28q73 0 121.5 54t48.5 159q0 124 -51 224q-31 59 -75.5 91
t-93.5 32z" />
    <glyph glyph-name="guillemotright" unicode="&#xbb;" horiz-adv-x="1013" 
d="M402 561q0 6 -4 13.5t-9.5 15t-19.5 24.5t-26 33q-61 81 -92.5 147t-31.5 101t28 35q19 0 47 -35q49 -60 124 -130.5t129 -109.5q8 -6 28.5 -20t30.5 -22.5t20 -23t10 -28.5t-10 -28.5t-20 -23t-30.5 -22.5t-28.5 -20q-140 -105 -253 -240q-1 -2 -6 -7.5t-7 -8t-6.5 -6.5
t-8 -6.5t-9 -4t-10.5 -1.5q-28 0 -28 34q0 35 31.5 101t92.5 147q12 16 26 33t19.5 24.5t9.5 15t4 13.5zM781 561q0 6 -4 13.5t-9.5 15t-19.5 24.5t-26 33q-61 81 -92.5 147t-31.5 101t28 35q19 0 47 -35q49 -60 124 -130.5t129 -109.5q8 -6 28.5 -20t30.5 -22.5t20 -23
t10 -28.5t-10 -28.5t-20 -23t-30.5 -22.5t-28.5 -20q-140 -105 -253 -240q-1 -2 -6 -7.5t-7 -8t-6.5 -6.5t-8 -6.5t-9 -4t-10.5 -1.5q-28 0 -28 34q0 35 31.5 101t92.5 147q12 16 26 33t19.5 24.5t9.5 15t4 13.5z" />
    <glyph glyph-name="onequarter" unicode="&#xbc;" horiz-adv-x="1344" 
d="M372 1420q31 0 31 -31q0 -6 -4.5 -114t-4.5 -223q0 -212 7 -258q3 -19 21 -32t37.5 -18.5t35.5 -16.5t16 -26q0 -31 -38 -31q-18 0 -74.5 1t-72.5 1q-19 0 -84.5 -1t-82.5 -1q-38 0 -38 31q0 15 16.5 26t36.5 16.5t38.5 18.5t21.5 32q10 50 10 258q0 118 -4 155t-19 44
q-12 6 -33 6q-5 0 -15.5 -0.5t-15.5 -0.5q-31 0 -31 24t35 40q52 23 102 49.5t73.5 38.5t35.5 12zM1176 1336q-25 -45 -417 -678.5t-407 -655.5q-21 -28 -48 -28q-22 0 -39.5 12t-17.5 31q0 15 9 32q12 23 161.5 264.5t356.5 574.5t310 503q15 24 44 24q24 0 41.5 -13.5
t17.5 -30.5q0 -15 -11 -35zM1228 712q0 -9 -9.5 -187t-9.5 -242q0 -16 20 -16q47 0 83 11t37 11q15 0 19.5 -9.5t4.5 -28.5t-9.5 -52t-20.5 -51q-13 -20 -51 -20h-65q-18 0 -18 -15q0 -35 5.5 -61t11 -39.5t5.5 -17.5q0 -16 -9.5 -25t-31.5 -16q-31 -11 -75 -11
q-21 0 -33 19.5t-12 73.5v74q0 18 -22 18h-220q-34 0 -56 12q-25 14 -41 37t-16 44q0 47 200 282l15 18q71 84 151.5 157t110.5 73q36 0 36 -39zM849 274q0 -9 22 -9h184q19 0 19 21q2 43 4 98.5t3.5 88t1.5 44.5q0 18 -6 18q-2 0 -6 -2t-8.5 -5.5t-9 -7.5t-11 -10.5
t-11 -11.5t-11.5 -12.5t-11 -11.5q-160 -170 -160 -200z" />
    <glyph glyph-name="onehalf" unicode="&#xbd;" horiz-adv-x="1411" 
d="M372 1420q31 0 31 -31q0 -6 -4.5 -114t-4.5 -223q0 -212 7 -258q3 -19 21 -32t37.5 -18.5t35.5 -16.5t16 -26q0 -31 -38 -31q-18 0 -74.5 1t-72.5 1q-19 0 -84.5 -1t-82.5 -1q-38 0 -38 31q0 15 16.5 26t36.5 16.5t38.5 18.5t21.5 32q10 50 10 258q0 118 -4 155t-19 44
q-12 6 -33 6q-5 0 -15.5 -0.5t-15.5 -0.5q-31 0 -31 24t35 40q52 23 102 49.5t73.5 38.5t35.5 12zM1176 1336q-25 -45 -417 -678.5t-407 -655.5q-21 -28 -48 -28q-22 0 -39.5 12t-17.5 31q0 15 9 32q12 23 161.5 264.5t356.5 574.5t310 503q15 24 44 24q24 0 41.5 -13.5
t17.5 -30.5q0 -15 -11 -35zM1016 139q0 -12 86 -12q165 0 244 48q10 6 24.5 16.5t23 15t15.5 4.5q23 0 23 -32q0 -12 -4.5 -33.5t-12 -52.5t-11.5 -54q-4 -26 -14 -33.5t-37 -7.5q-5 0 -92.5 1t-157.5 1q-73 0 -161.5 -1t-96.5 -1q-35 0 -35 26q0 23 32 52l106 102
q15 14 50.5 47.5t51 48.5t43 43.5t40 47t28 43.5t21.5 48t6 47q0 60 -42 90.5t-102 30.5q-54 0 -95.5 -25.5t-64.5 -64.5q-12 -22 -25 -22q-17 0 -17 37q0 29 16.5 62.5t47.5 66t84.5 54t118.5 21.5q103 0 173 -53t70 -148q0 -41 -16 -81.5t-35.5 -70.5t-60.5 -69
t-65.5 -59.5t-75.5 -60.5q-14 -12 -40 -32t-34.5 -28t-8.5 -12z" />
    <glyph glyph-name="threequarters" unicode="&#xbe;" horiz-adv-x="1466" 
d="M1285 1336q-25 -45 -416.5 -679t-406.5 -655q-21 -28 -48 -28q-22 0 -40 12t-18 31q0 14 10 32q12 23 161.5 264.5t356.5 574.5t310 503q15 24 44 24q24 0 41 -13.5t17 -30.5q0 -15 -11 -35zM622 1280q-28 -34 -56.5 -61.5t-57.5 -51.5t-31 -26q-2 -3 -5.5 -6t-5.5 -5
t-2 -3q0 -6 13 -10q218 -68 218 -221q0 -102 -83.5 -169t-210.5 -67q-71 0 -131.5 23t-97.5 57.5t-57.5 72.5t-20.5 70q0 30 23 30q6 0 21 -19q32 -44 88.5 -78.5t135.5 -34.5q81 0 124.5 33.5t43.5 92.5q0 35 -18 61.5t-51 42t-54.5 22t-53.5 13.5q-37 7 -37 36
q0 12 12 24.5t50 43.5q115 95 115 116q0 9 -90 9q-85 0 -126.5 -12t-67.5 -36q-6 -6 -13.5 -15.5t-14 -14.5t-14.5 -5q-22 0 -22 33q0 12 23 142q5 29 12.5 36.5t37.5 7.5q7 0 76.5 -2t134.5 -2q49 0 101 1t86 2t39 1q12 0 20 -8.5t8 -18.5q0 -34 -61 -104zM1336 712
q0 -9 -9 -187t-9 -242q0 -16 19 -16q47 0 83 11t37 11q25 0 25 -38q0 -19 -9.5 -52t-20.5 -51q-12 -20 -51 -20h-66q-17 0 -17 -15q0 -35 5 -61t10.5 -39.5t5.5 -17.5q0 -16 -9.5 -25t-31.5 -16q-31 -11 -74 -11q-21 0 -33 19.5t-12 73.5v74q0 18 -23 18h-219q-34 0 -56 12
q-25 14 -41.5 37t-16.5 44q0 47 200 282l15 18q71 84 151.5 157t110.5 73q36 0 36 -39zM957 274q0 -9 23 -9h183q20 0 20 21q2 43 4 98.5t3.5 88t1.5 44.5q0 18 -6 18q-10 0 -69 -61q-160 -170 -160 -200z" />
    <glyph glyph-name="questiondown" unicode="&#xbf;" horiz-adv-x="927" 
d="M536 910q0 62 41 100t99 38q54 0 90 -31.5t36 -90.5q0 -63 -42 -102.5t-97 -39.5q-53 0 -90 33.5t-37 92.5zM643 -234q130 0 229 107q6 7 14.5 17.5t12.5 15.5t10 11t11 8t10 2q26 0 26 -48q0 -29 -16.5 -64.5t-49.5 -72t-77.5 -66t-108 -48.5t-132.5 -19
q-158 0 -259.5 75t-101.5 217q0 70 25.5 132t66 109t90 90t98.5 81t89.5 74.5t66 79t25.5 87.5q0 15 -2.5 32.5t-2.5 20.5q0 28 26 28q28 0 51.5 -42t23.5 -98q0 -63 -34.5 -121t-83 -104t-97.5 -93t-83.5 -107.5t-34.5 -128.5q0 -83 56 -129t152 -46z" />
    <glyph glyph-name="Agrave" unicode="&#xc0;" horiz-adv-x="1348" 
d="M796 1568q44 -36 44 -60q0 -32 -44 -32q-46 0 -124 29t-148 70q-108 65 -108 135q0 40 26.5 65t68.5 25q63 0 130 -85q76 -88 155 -147zM135 205l375 973q32 87 42 151q6 30 62 61t98 31q27 0 40 -16t27 -53l439 -1140q27 -71 86 -110q46 -31 46 -57q0 -30 -22 -40
t-73 -10q-18 0 -67 2.5t-90 2.5t-87 -2.5t-67 -2.5q-68 0 -68 48q0 16 17 30.5t37 25.5t37 30.5t17 44.5q0 13 -27 93.5t-48 118.5q-16 28 -48 28h-441q-39 0 -55 -24q-23 -36 -51.5 -116.5t-28.5 -103.5q0 -27 16 -47t34.5 -29.5t34.5 -23.5t16 -30q0 -45 -69 -45
q-17 0 -77.5 2.5t-79.5 2.5q-20 0 -51 -2.5t-48 -2.5q-53 0 -53 45q0 17 14 31.5t32.5 26.5t42 40t38.5 67zM438 545h390q20 0 20 15q0 23 -76.5 235.5t-116.5 297.5q-9 22 -19 22q-9 0 -18 -21q-39 -81 -119 -298.5t-80 -235.5q0 -15 19 -15z" />
    <glyph glyph-name="Aacute" unicode="&#xc1;" horiz-adv-x="1348" 
d="M550 1568q81 61 153 147q69 85 132 85q42 0 68.5 -25t26.5 -65q0 -69 -109 -135q-70 -42 -147.5 -70.5t-123.5 -28.5q-44 0 -44 32q0 24 44 60zM135 205l375 973q32 87 42 151q6 30 62 61t98 31q27 0 40 -16t27 -53l439 -1140q27 -71 86 -110q46 -31 46 -57
q0 -30 -22 -40t-73 -10q-18 0 -67 2.5t-90 2.5t-87 -2.5t-67 -2.5q-68 0 -68 48q0 16 17 30.5t37 25.5t37 30.5t17 44.5q0 13 -27 93.5t-48 118.5q-16 28 -48 28h-441q-39 0 -55 -24q-23 -36 -51.5 -116.5t-28.5 -103.5q0 -27 16 -47t34.5 -29.5t34.5 -23.5t16 -30
q0 -45 -69 -45q-17 0 -77.5 2.5t-79.5 2.5q-20 0 -51 -2.5t-48 -2.5q-53 0 -53 45q0 17 14 31.5t32.5 26.5t42 40t38.5 67zM438 545h390q20 0 20 15q0 23 -76.5 235.5t-116.5 297.5q-9 22 -19 22q-9 0 -18 -21q-39 -81 -119 -298.5t-80 -235.5q0 -15 19 -15z" />
    <glyph glyph-name="Acircumflex" unicode="&#xc2;" horiz-adv-x="1348" 
d="M912 1476q-68 0 -182 79q-5 4 -12.5 9.5t-11 8t-9 6t-9 5.5t-7.5 4t-7 2.5t-6 0.5t-6 -0.5t-6.5 -2.5t-6.5 -3.5t-8 -5.5t-8.5 -6.5t-11 -8t-12.5 -9.5q-43 -31 -95 -55t-82 -24q-15 0 -25 8.5t-10 22.5t27 43q64 69 150 183q17 23 28.5 35t30 22t40.5 10q29 0 50 -16
t48 -51q64 -86 151 -181q27 -27 27 -46q0 -14 -11 -22t-26 -8zM135 205l375 973q32 87 42 151q6 30 62 61t98 31q27 0 40 -16t27 -53l439 -1140q27 -71 86 -110q46 -31 46 -57q0 -30 -22 -40t-73 -10q-18 0 -67 2.5t-90 2.5t-87 -2.5t-67 -2.5q-68 0 -68 48q0 16 17 30.5
t37 25.5t37 30.5t17 44.5q0 13 -27 93.5t-48 118.5q-16 28 -48 28h-441q-39 0 -55 -24q-23 -36 -51.5 -116.5t-28.5 -103.5q0 -27 16 -47t34.5 -29.5t34.5 -23.5t16 -30q0 -45 -69 -45q-17 0 -77.5 2.5t-79.5 2.5q-20 0 -51 -2.5t-48 -2.5q-53 0 -53 45q0 17 14 31.5
t32.5 26.5t42 40t38.5 67zM438 545h390q20 0 20 15q0 23 -76.5 235.5t-116.5 297.5q-9 22 -19 22q-9 0 -18 -21q-39 -81 -119 -298.5t-80 -235.5q0 -15 19 -15z" />
    <glyph glyph-name="Atilde" unicode="&#xc3;" horiz-adv-x="1348" 
d="M364 1602q0 68 47 113.5t118 45.5q54 0 143 -42.5t133 -42.5q31 0 50.5 14t25.5 30.5t13.5 30.5t16.5 14q20 0 38 -26t18 -70q0 -70 -48.5 -114.5t-119.5 -44.5q-50 0 -104.5 25t-102 49.5t-81.5 24.5q-26 0 -45 -13t-27.5 -29t-18 -29t-19.5 -13q-12 0 -24.5 20.5
t-12.5 56.5zM135 205l375 973q32 87 42 151q6 30 62 61t98 31q27 0 40 -16t27 -53l439 -1140q27 -71 86 -110q46 -31 46 -57q0 -30 -22 -40t-73 -10q-18 0 -67 2.5t-90 2.5t-87 -2.5t-67 -2.5q-68 0 -68 48q0 16 17 30.5t37 25.5t37 30.5t17 44.5q0 13 -27 93.5t-48 118.5
q-16 28 -48 28h-441q-39 0 -55 -24q-23 -36 -51.5 -116.5t-28.5 -103.5q0 -27 16 -47t34.5 -29.5t34.5 -23.5t16 -30q0 -45 -69 -45q-17 0 -77.5 2.5t-79.5 2.5q-20 0 -51 -2.5t-48 -2.5q-53 0 -53 45q0 17 14 31.5t32.5 26.5t42 40t38.5 67zM438 545h390q20 0 20 15
q0 23 -76.5 235.5t-116.5 297.5q-9 22 -19 22q-9 0 -18 -21q-39 -81 -119 -298.5t-80 -235.5q0 -15 19 -15z" />
    <glyph glyph-name="Adieresis" unicode="&#xc4;" horiz-adv-x="1348" 
d="M480 1777q52 0 86 -32t34 -83q0 -63 -45.5 -106.5t-109.5 -43.5q-53 0 -84 31t-31 82q0 60 44 106t106 46zM903 1777q52 0 86 -32t34 -83q0 -63 -45.5 -106.5t-109.5 -43.5q-53 0 -84 31t-31 82q0 60 44 106t106 46zM135 205l375 973q32 87 42 151q6 30 62 61t98 31
q27 0 40 -16t27 -53l439 -1140q27 -71 86 -110q46 -31 46 -57q0 -30 -22 -40t-73 -10q-18 0 -67 2.5t-90 2.5t-87 -2.5t-67 -2.5q-68 0 -68 48q0 16 17 30.5t37 25.5t37 30.5t17 44.5q0 13 -27 93.5t-48 118.5q-16 28 -48 28h-441q-39 0 -55 -24q-23 -36 -51.5 -116.5
t-28.5 -103.5q0 -27 16 -47t34.5 -29.5t34.5 -23.5t16 -30q0 -45 -69 -45q-17 0 -77.5 2.5t-79.5 2.5q-20 0 -51 -2.5t-48 -2.5q-53 0 -53 45q0 17 14 31.5t32.5 26.5t42 40t38.5 67zM438 545h390q20 0 20 15q0 23 -76.5 235.5t-116.5 297.5q-9 22 -19 22q-9 0 -18 -21
q-39 -81 -119 -298.5t-80 -235.5q0 -15 19 -15z" />
    <glyph glyph-name="Aring" unicode="&#xc5;" horiz-adv-x="1348" 
d="M676 1834q91 0 150.5 -53.5t59.5 -139.5q0 -90 -64 -145t-156 -55t-152 53t-60 140q0 89 64 144.5t158 55.5zM685 1749q-49 0 -79.5 -31.5t-30.5 -77.5q0 -43 28 -71.5t74 -28.5q49 0 78 32.5t29 77.5q0 42 -27 70.5t-72 28.5zM135 205l375 973q32 87 42 151q6 30 62 61
t98 31q27 0 40 -16t27 -53l439 -1140q27 -71 86 -110q46 -31 46 -57q0 -30 -22 -40t-73 -10q-18 0 -67 2.5t-90 2.5t-87 -2.5t-67 -2.5q-68 0 -68 48q0 16 17 30.5t37 25.5t37 30.5t17 44.5q0 13 -27 93.5t-48 118.5q-16 28 -48 28h-441q-39 0 -55 -24q-23 -36 -51.5 -116.5
t-28.5 -103.5q0 -27 16 -47t34.5 -29.5t34.5 -23.5t16 -30q0 -45 -69 -45q-17 0 -77.5 2.5t-79.5 2.5q-20 0 -51 -2.5t-48 -2.5q-53 0 -53 45q0 17 14 31.5t32.5 26.5t42 40t38.5 67zM438 545h390q20 0 20 15q0 23 -76.5 235.5t-116.5 297.5q-9 22 -19 22q-9 0 -18 -21
q-39 -81 -119 -298.5t-80 -235.5q0 -15 19 -15z" />
    <glyph glyph-name="AE" unicode="&#xc6;" horiz-adv-x="1959" 
d="M1328 1393q112 0 199 1.5t131 2.5t52 1q36 0 51.5 -14.5t23.5 -61.5q4 -19 14 -93.5t16 -109.5q11 -55 11 -83q0 -22 -11.5 -33t-29.5 -11q-7 0 -13.5 2.5t-12 8t-9.5 10t-9 14.5t-7 14.5t-7.5 17t-6.5 14.5q-20 48 -32.5 74t-33.5 52.5t-42 37.5t-58.5 21t-82.5 12.5
t-115 2.5q-104 0 -148.5 -7.5t-61 -28t-16.5 -68.5v-297q0 -41 13 -55.5t53 -14.5q92 0 145 5t83 22t40.5 32.5t26.5 53.5q17 34 39 34q23 0 33 -20.5t10 -71.5v-261q0 -40 -8 -58t-30 -18q-14 0 -25 9t-16.5 18t-11.5 25q-17 37 -28 52.5t-40.5 30.5t-78 19t-136.5 4
q-40 0 -54.5 -16t-14.5 -55v-378q0 -31 5.5 -48.5t17 -30t42 -17.5t66 -7t103.5 -2q88 0 147 7t101 21t71 43.5t48.5 64t41.5 93.5q27 70 58 70q20 0 29 -16.5t9 -56.5q0 -23 -16.5 -147.5t-17.5 -143.5q-3 -64 -83 -64q-11 0 -59 1t-132.5 2.5t-183.5 1.5
q-169 0 -340.5 -2.5t-180.5 -2.5q-65 0 -65 42q0 18 17.5 31.5t38.5 22t41.5 28.5t24.5 48q7 39 7 264q0 24 -9.5 35t-32.5 11h-362q-28 0 -44.5 -8.5t-30.5 -28.5q-47 -69 -92.5 -157.5t-45.5 -112.5q0 -27 15 -47.5t33 -30t33 -23t15 -29.5q0 -45 -66 -45q-17 0 -82 2.5
t-83 2.5q-20 0 -54 -2.5t-52 -2.5q-54 0 -54 45q0 18 13 32.5t31.5 26t46 39.5t49.5 65l536 932q29 47 29 84q0 25 -17 44t-37 28.5t-37 25t-17 36.5q0 45 66 45q3 0 72 -1t222.5 -2.5t362.5 -1.5zM920 1145q-2 53 -17 53q-9 0 -19 -11.5t-29 -40.5q-24 -33 -161.5 -267
t-137.5 -249q0 -22 33 -22h284q32 0 41.5 17.5t9.5 81.5q0 320 -4 438z" />
    <glyph glyph-name="Ccedilla" unicode="&#xc7;" horiz-adv-x="1370" 
d="M672 -141q0 42 45 111q-178 19 -310 120.5t-199 255.5t-67 339q0 148 44 281t125 236t206 164t276 61q72 0 138.5 -15.5t113 -31.5t72.5 -16q21 0 53 9t46 9q9 0 16.5 -2t13.5 -7t10.5 -10.5t8.5 -16t7 -20t7 -25.5t6.5 -29t7 -34.5t8.5 -38.5q10 -45 20 -85.5
t13.5 -56.5t3.5 -27q0 -23 -12 -36t-31 -13q-12 0 -23 5t-21.5 16.5t-17 20.5t-19 28.5t-19.5 28.5q-73 106 -177.5 168.5t-217.5 62.5q-128 0 -226 -76.5t-148 -202t-50 -276.5q0 -173 60.5 -311t175.5 -218.5t265 -80.5q84 0 157 25.5t125 69.5t88.5 92.5t60.5 103.5
q24 49 45 49q30 0 30 -57q0 -90 -57 -183q-43 -72 -109 -131t-172.5 -102.5t-229.5 -46.5q-14 -32 -14 -46q0 -4 5.5 -6t19 -7t25.5 -10q108 -55 108 -159q0 -90 -61.5 -144t-157.5 -54q-69 0 -125 38t-56 65q0 13 7 20.5t17 7.5q6 0 48 -22.5t86 -22.5q42 0 70.5 24.5
t28.5 62.5q0 42 -32.5 73t-87.5 43q-23 5 -23 30z" />
    <glyph glyph-name="Egrave" unicode="&#xc8;" horiz-adv-x="1262" 
d="M857 1568q44 -36 44 -60q0 -32 -44 -32q-46 0 -123.5 28.5t-147.5 70.5q-109 66 -109 135q0 40 26.5 65t68.5 25q63 0 130 -85q76 -88 155 -147zM977 857v-261q0 -40 -8 -58t-30 -18q-14 0 -25 9t-16.5 18t-11.5 25q-17 37 -28 52.5t-41 30.5t-78 19t-136 4
q-40 0 -54 -16t-14 -55v-378q0 -31 5.5 -48.5t17 -30t41.5 -17.5t65.5 -7t103.5 -2q87 0 143.5 6t99.5 19.5t71.5 42t50 64.5t44.5 97q27 70 58 70q20 0 29 -16.5t9 -56.5q0 -23 -16.5 -147.5t-17.5 -143.5q-3 -64 -83 -64q-11 0 -59 1t-132.5 2.5t-183.5 1.5
q-169 0 -332.5 -2.5t-172.5 -2.5q-65 0 -65 42q0 18 15 31.5t34 22t36.5 29t21.5 49.5q9 64 9 542q0 439 -3 473q-3 40 -20.5 67.5t-36.5 38.5t-34.5 27t-15.5 36q0 45 62 45q15 0 64.5 -1t149.5 -2.5t239 -1.5q112 0 199 1.5t131 2.5t52 1q36 0 51.5 -14.5t23.5 -61.5
q4 -19 14 -93.5t16 -109.5q11 -55 11 -83q0 -22 -11.5 -33t-29.5 -11q-7 0 -13.5 2.5t-12 8t-9.5 10t-9 14.5t-7 14.5t-7.5 17t-6.5 14.5q-20 48 -32.5 74t-33.5 52.5t-42 37.5t-58.5 21t-82.5 12.5t-115 2.5q-104 0 -148.5 -7.5t-60.5 -28t-16 -68.5v-297q0 -41 12.5 -55.5
t52.5 -14.5q92 0 145 5t83 22t40.5 32.5t26.5 53.5q17 34 39 34q23 0 33 -20.5t10 -71.5z" />
    <glyph glyph-name="Eacute" unicode="&#xc9;" horiz-adv-x="1262" 
d="M613 1568q83 63 154 147q33 41 63.5 63t67.5 22q42 0 68.5 -25t26.5 -65q0 -70 -108 -135q-70 -41 -148 -70t-124 -29q-44 0 -44 32q0 24 44 60zM977 857v-261q0 -40 -8 -58t-30 -18q-14 0 -25 9t-16.5 18t-11.5 25q-17 37 -28 52.5t-41 30.5t-78 19t-136 4
q-40 0 -54 -16t-14 -55v-378q0 -31 5.5 -48.5t17 -30t41.5 -17.5t65.5 -7t103.5 -2q87 0 143.5 6t99.5 19.5t71.5 42t50 64.5t44.5 97q27 70 58 70q20 0 29 -16.5t9 -56.5q0 -23 -16.5 -147.5t-17.5 -143.5q-3 -64 -83 -64q-11 0 -59 1t-132.5 2.5t-183.5 1.5
q-169 0 -332.5 -2.5t-172.5 -2.5q-65 0 -65 42q0 18 15 31.5t34 22t36.5 29t21.5 49.5q9 64 9 542q0 439 -3 473q-3 40 -20.5 67.5t-36.5 38.5t-34.5 27t-15.5 36q0 45 62 45q15 0 64.5 -1t149.5 -2.5t239 -1.5q112 0 199 1.5t131 2.5t52 1q36 0 51.5 -14.5t23.5 -61.5
q4 -19 14 -93.5t16 -109.5q11 -55 11 -83q0 -22 -11.5 -33t-29.5 -11q-7 0 -13.5 2.5t-12 8t-9.5 10t-9 14.5t-7 14.5t-7.5 17t-6.5 14.5q-20 48 -32.5 74t-33.5 52.5t-42 37.5t-58.5 21t-82.5 12.5t-115 2.5q-104 0 -148.5 -7.5t-60.5 -28t-16 -68.5v-297q0 -41 12.5 -55.5
t52.5 -14.5q92 0 145 5t83 22t40.5 32.5t26.5 53.5q17 34 39 34q23 0 33 -20.5t10 -71.5z" />
    <glyph glyph-name="Ecircumflex" unicode="&#xca;" horiz-adv-x="1262" 
d="M990 1476q-68 0 -182 79q-50 36 -63 36q-4 0 -8 -1t-10 -5t-9.5 -7t-14 -10.5t-16.5 -12.5q-43 -31 -95 -55t-82 -24q-15 0 -25 8.5t-10 22.5t27 43q64 69 150 183q17 23 28.5 35t30 22t40.5 10q29 0 50 -16t48 -51q68 -91 150 -181q28 -28 28 -46q0 -14 -11 -22t-26 -8z
M977 857v-261q0 -40 -8 -58t-30 -18q-14 0 -25 9t-16.5 18t-11.5 25q-17 37 -28 52.5t-41 30.5t-78 19t-136 4q-40 0 -54 -16t-14 -55v-378q0 -31 5.5 -48.5t17 -30t41.5 -17.5t65.5 -7t103.5 -2q87 0 143.5 6t99.5 19.5t71.5 42t50 64.5t44.5 97q27 70 58 70q20 0 29 -16.5
t9 -56.5q0 -23 -16.5 -147.5t-17.5 -143.5q-3 -64 -83 -64q-11 0 -59 1t-132.5 2.5t-183.5 1.5q-169 0 -332.5 -2.5t-172.5 -2.5q-65 0 -65 42q0 18 15 31.5t34 22t36.5 29t21.5 49.5q9 64 9 542q0 439 -3 473q-3 40 -20.5 67.5t-36.5 38.5t-34.5 27t-15.5 36q0 45 62 45
q15 0 64.5 -1t149.5 -2.5t239 -1.5q112 0 199 1.5t131 2.5t52 1q36 0 51.5 -14.5t23.5 -61.5q4 -19 14 -93.5t16 -109.5q11 -55 11 -83q0 -22 -11.5 -33t-29.5 -11q-7 0 -13.5 2.5t-12 8t-9.5 10t-9 14.5t-7 14.5t-7.5 17t-6.5 14.5q-20 48 -32.5 74t-33.5 52.5t-42 37.5
t-58.5 21t-82.5 12.5t-115 2.5q-104 0 -148.5 -7.5t-60.5 -28t-16 -68.5v-297q0 -41 12.5 -55.5t52.5 -14.5q92 0 145 5t83 22t40.5 32.5t26.5 53.5q17 34 39 34q23 0 33 -20.5t10 -71.5z" />
    <glyph glyph-name="Edieresis" unicode="&#xcb;" horiz-adv-x="1262" 
d="M554 1777q52 0 86 -32t34 -83q0 -63 -45.5 -106.5t-109.5 -43.5q-53 0 -84.5 31t-31.5 82q0 60 44.5 106t106.5 46zM977 1777q52 0 86 -32t34 -83q0 -63 -45.5 -106.5t-109.5 -43.5q-53 0 -84.5 31t-31.5 82q0 60 44.5 106t106.5 46zM977 857v-261q0 -40 -8 -58t-30 -18
q-14 0 -25 9t-16.5 18t-11.5 25q-17 37 -28 52.5t-41 30.5t-78 19t-136 4q-40 0 -54 -16t-14 -55v-378q0 -31 5.5 -48.5t17 -30t41.5 -17.5t65.5 -7t103.5 -2q87 0 143.5 6t99.5 19.5t71.5 42t50 64.5t44.5 97q27 70 58 70q20 0 29 -16.5t9 -56.5q0 -23 -16.5 -147.5
t-17.5 -143.5q-3 -64 -83 -64q-11 0 -59 1t-132.5 2.5t-183.5 1.5q-169 0 -332.5 -2.5t-172.5 -2.5q-65 0 -65 42q0 18 15 31.5t34 22t36.5 29t21.5 49.5q9 64 9 542q0 439 -3 473q-3 40 -20.5 67.5t-36.5 38.5t-34.5 27t-15.5 36q0 45 62 45q15 0 64.5 -1t149.5 -2.5
t239 -1.5q112 0 199 1.5t131 2.5t52 1q36 0 51.5 -14.5t23.5 -61.5q4 -19 14 -93.5t16 -109.5q11 -55 11 -83q0 -22 -11.5 -33t-29.5 -11q-7 0 -13.5 2.5t-12 8t-9.5 10t-9 14.5t-7 14.5t-7.5 17t-6.5 14.5q-20 48 -32.5 74t-33.5 52.5t-42 37.5t-58.5 21t-82.5 12.5
t-115 2.5q-104 0 -148.5 -7.5t-60.5 -28t-16 -68.5v-297q0 -41 12.5 -55.5t52.5 -14.5q92 0 145 5t83 22t40.5 32.5t26.5 53.5q17 34 39 34q23 0 33 -20.5t10 -71.5z" />
    <glyph glyph-name="Igrave" unicode="&#xcc;" horiz-adv-x="652" 
d="M525 1568q44 -36 44 -60q0 -32 -44 -32q-46 0 -123.5 28.5t-147.5 70.5q-109 66 -109 135q0 40 27 65t69 25q63 0 130 -85q78 -90 154 -147zM553 1398q60 0 60 -45q0 -17 -10 -29.5t-24.5 -22.5t-29.5 -22t-27 -36.5t-14 -58.5q-5 -52 -5 -473q0 -470 10 -541
q4 -30 21.5 -50.5t36 -29t33 -22t14.5 -31.5q0 -42 -65 -42q-18 0 -72.5 2.5t-80.5 2.5q-27 0 -82.5 -2.5t-73.5 -2.5q-66 0 -66 42q0 18 15.5 31.5t34.5 22.5t36.5 29t21.5 50q8 57 8 541q0 439 -2 473q-2 33 -14.5 57t-27.5 37t-30.5 23.5t-25.5 22.5t-10 29q0 45 62 45
q18 0 73 -2.5t81 -2.5q27 0 82 2.5t71 2.5z" />
    <glyph glyph-name="Iacute" unicode="&#xcd;" horiz-adv-x="652" 
d="M304 1568q83 63 154 147q33 41 63.5 63t67.5 22q42 0 68.5 -25t26.5 -65q0 -69 -109 -135q-70 -42 -147.5 -70.5t-123.5 -28.5q-44 0 -44 32q0 24 44 60zM586 1398q60 0 60 -45q0 -17 -10 -29.5t-24.5 -22.5t-29.5 -22t-27 -36.5t-14 -58.5q-5 -52 -5 -473
q0 -470 10 -541q4 -30 21.5 -50.5t36 -29t33 -22t14.5 -31.5q0 -42 -65 -42q-18 0 -72.5 2.5t-80.5 2.5q-27 0 -83 -2.5t-74 -2.5q-65 0 -65 42q0 18 15 31.5t34 22.5t36.5 29t21.5 50q9 65 9 541q0 439 -2 473q-2 33 -14.5 57t-27.5 37t-30.5 23.5t-25.5 22.5t-10 29
q0 45 62 45q18 0 73 -2.5t81 -2.5q27 0 82 2.5t71 2.5z" />
    <glyph glyph-name="Icircumflex" unicode="&#xce;" horiz-adv-x="652" 
d="M615 1476q-68 0 -182 79q-5 4 -12.5 9.5t-11 8t-9 6t-9 5.5t-7.5 4t-7 2.5t-6 0.5t-6 -0.5t-6.5 -2.5t-6.5 -3.5t-8 -5.5t-8.5 -6.5t-11 -8t-12.5 -9.5q-43 -31 -95 -55t-82 -24q-15 0 -25 8.5t-10 22.5t27 43q69 74 151 183q18 23 28.5 35t29 22t40.5 10q29 0 50 -16
t48 -51q64 -86 151 -181q27 -27 27 -46q0 -14 -11 -22t-26 -8zM530 1398q61 0 61 -45q0 -17 -10 -29.5t-25 -22.5t-30 -22t-27 -36.5t-14 -58.5q-5 -52 -5 -473q0 -470 10 -541q4 -30 22 -50.5t36 -29t33 -22t15 -31.5q0 -42 -66 -42q-18 0 -72 2.5t-80 2.5q-27 0 -83 -2.5
t-74 -2.5q-65 0 -65 42q0 18 15 31.5t34 22.5t36.5 29t21.5 50q8 57 8 541q0 439 -2 473q-2 33 -14 57t-27.5 37t-30.5 23.5t-25 22.5t-10 29q0 45 61 45q18 0 73.5 -2.5t81.5 -2.5q27 0 81.5 2.5t70.5 2.5z" />
    <glyph glyph-name="Idieresis" unicode="&#xcf;" horiz-adv-x="652" 
d="M140 1777q52 0 86 -32t34 -83q0 -63 -45.5 -106.5t-109.5 -43.5q-53 0 -84 31t-31 82q0 60 44 106t106 46zM532 1777q52 0 86 -32t34 -83q0 -63 -45 -106.5t-109 -43.5q-53 0 -84.5 31t-31.5 82q0 60 44 106t106 46zM475 1398q61 0 61 -45q0 -17 -10 -29.5t-25 -22.5
t-30 -22t-27 -36.5t-14 -58.5q-5 -52 -5 -473q0 -470 10 -541q4 -30 22 -50.5t36 -29t33 -22t15 -31.5q0 -42 -66 -42q-18 0 -72 2.5t-80 2.5q-27 0 -83 -2.5t-74 -2.5q-66 0 -66 42q0 18 15.5 31.5t34.5 22.5t36.5 29t21.5 50q8 57 8 541q0 439 -2 473q-2 33 -14.5 57
t-27.5 37t-30.5 23.5t-25.5 22.5t-10 29q0 45 62 45q18 0 73.5 -2.5t81.5 -2.5q27 0 81.5 2.5t70.5 2.5z" />
    <glyph glyph-name="Eth" unicode="&#xd0;" horiz-adv-x="1481" 
d="M342 1393q57 0 152 3t150 3q121 0 231 -23.5t211.5 -76.5t176 -132t118.5 -197.5t44 -264.5q0 -330 -186.5 -520.5t-500.5 -190.5q-58 0 -191 3.5t-205 3.5q-27 0 -83 -2.5t-74 -2.5q-65 0 -65 41q0 18 15 31.5t34 22.5t36.5 29t21.5 50q6 49 9 478h-167q-40 0 -40 36
q0 38 17 70q16 27 75 27h115q0 313 -3 403q-2 33 -14 57t-27.5 37t-30.5 23.5t-25 22.5t-10 29q0 45 61 45q18 0 73.5 -2.5t81.5 -2.5zM444 1166v-385h289q39 0 39 -33q0 -46 -17 -70q-16 -30 -75 -30h-236v-416q0 -50 19.5 -73t71.5 -32t166 -9q127 0 224 45t154 123.5
t85.5 176t28.5 210.5q0 130 -31 236t-96.5 189.5t-178.5 130t-265 46.5q-81 0 -119.5 -12t-48.5 -32.5t-10 -64.5z" />
    <glyph glyph-name="Ntilde" unicode="&#xd1;" horiz-adv-x="1469" 
d="M539 1602q0 68 47.5 113.5t118.5 45.5q54 0 142.5 -42.5t132.5 -42.5q31 0 50.5 14t25.5 30.5t13.5 30.5t16.5 14q20 0 38 -26t18 -70q0 -70 -48.5 -114.5t-119.5 -44.5q-50 0 -104.5 25t-102 49.5t-81.5 24.5q-26 0 -45 -13t-27 -29t-17.5 -29t-19.5 -13q-12 0 -25 20.5
t-13 56.5zM279 1398q14 0 64.5 -2.5t72.5 -2.5q73 0 99 -13q13 -6 27 -20.5t23 -26.5t39 -53l570 -838q42 -59 55 -59q2 0 3.5 1.5t3 11t2 29.5t1.5 57.5t1 94v139.5q0 463 -19 508q-7 25 -25.5 45t-36.5 30t-32.5 24.5t-14.5 31.5q0 43 59 43q26 0 74.5 -2.5t61.5 -2.5
q17 0 60 2.5t66 2.5q54 0 54 -45q0 -19 -15 -34.5t-33 -26t-34.5 -35t-18.5 -58.5q-6 -60 -6 -482q0 -207 3.5 -345t6.5 -199.5t3 -86.5q0 -41 -37.5 -71t-84.5 -30q-34 0 -71 49l-690 996q-23 30 -29 30t-8.5 -6.5t-4.5 -47t-2.5 -110t-0.5 -211.5q0 -469 22 -521
q8 -25 27.5 -44t37.5 -28t32 -22.5t14 -29.5q0 -45 -61 -45q-27 0 -76 2.5t-61 2.5q-18 0 -62 -2.5t-69 -2.5q-58 0 -58 43q0 19 16 34t35.5 25t37.5 34.5t21 58.5q6 69 6 516q0 451 -3 478q-3 34 -15 58t-27 36.5t-30 22.5t-25 22.5t-10 29.5q0 45 62 45z" />
    <glyph glyph-name="Ograve" unicode="&#xd2;" horiz-adv-x="1495" 
d="M943 1568q44 -36 44 -60q0 -32 -44 -32q-46 0 -123.5 28.5t-147.5 70.5q-109 66 -109 135q0 40 26.5 65t68.5 25q63 0 130 -85q76 -88 155 -147zM141 685q0 327 187 534t478 207q111 0 213.5 -32.5t188.5 -97t150.5 -155t100.5 -213.5t36 -265q0 -170 -52.5 -305
t-144 -219.5t-212 -129t-261.5 -44.5q-207 0 -363.5 92.5t-238.5 255.5t-82 372zM782 1300q-77 0 -148 -36t-127 -103t-89.5 -174t-33.5 -238q0 -221 82 -390q36 -71 84.5 -123t102 -80t104.5 -41t102 -13q84 0 156 30.5t129 90t89.5 157t32.5 221.5q0 117 -26.5 232
t-74.5 205q-64 122 -165 192t-218 70z" />
    <glyph glyph-name="Oacute" unicode="&#xd3;" horiz-adv-x="1495" 
d="M681 1568q83 63 154 147q33 41 63.5 63t67.5 22q42 0 68.5 -25t26.5 -65q0 -69 -109 -135q-70 -42 -147.5 -70.5t-123.5 -28.5q-44 0 -44 32q0 24 44 60zM141 685q0 327 187 534t478 207q111 0 213.5 -32.5t188.5 -97t150.5 -155t100.5 -213.5t36 -265q0 -170 -52.5 -305
t-144 -219.5t-212 -129t-261.5 -44.5q-207 0 -363.5 92.5t-238.5 255.5t-82 372zM782 1300q-77 0 -148 -36t-127 -103t-89.5 -174t-33.5 -238q0 -221 82 -390q36 -71 84.5 -123t102 -80t104.5 -41t102 -13q84 0 156 30.5t129 90t89.5 157t32.5 221.5q0 117 -26.5 232
t-74.5 205q-64 122 -165 192t-218 70z" />
    <glyph glyph-name="Ocircumflex" unicode="&#xd4;" horiz-adv-x="1495" 
d="M1060 1476q-68 0 -182 79q-50 36 -63 36q-4 0 -8 -1t-10 -5t-9.5 -7t-14 -10.5t-16.5 -12.5q-43 -31 -95 -55t-82 -24q-15 0 -25 8.5t-10 22.5q0 15 26 43q69 74 151 183q18 23 28.5 35t29 22t40.5 10q29 0 50.5 -16.5t48.5 -50.5q68 -91 150 -181q28 -28 28 -46
q0 -14 -11 -22t-26 -8zM141 685q0 327 187 534t478 207q111 0 213.5 -32.5t188.5 -97t150.5 -155t100.5 -213.5t36 -265q0 -170 -52.5 -305t-144 -219.5t-212 -129t-261.5 -44.5q-207 0 -363.5 92.5t-238.5 255.5t-82 372zM782 1300q-77 0 -148 -36t-127 -103t-89.5 -174
t-33.5 -238q0 -221 82 -390q36 -71 84.5 -123t102 -80t104.5 -41t102 -13q84 0 156 30.5t129 90t89.5 157t32.5 221.5q0 117 -26.5 232t-74.5 205q-64 122 -165 192t-218 70z" />
    <glyph glyph-name="Otilde" unicode="&#xd5;" horiz-adv-x="1495" 
d="M519 1602q0 68 47.5 113.5t118.5 45.5q54 0 143 -42.5t133 -42.5q31 0 50.5 14t25.5 30.5t13.5 30.5t16.5 14q20 0 37.5 -26t17.5 -70q0 -70 -48.5 -114.5t-119.5 -44.5q-50 0 -104 25t-101.5 49.5t-81.5 24.5q-26 0 -45 -13t-27.5 -29t-18 -29t-19.5 -13q-12 0 -25 20.5
t-13 56.5zM141 685q0 327 187 534t478 207q111 0 213.5 -32.5t188.5 -97t150.5 -155t100.5 -213.5t36 -265q0 -170 -52.5 -305t-144 -219.5t-212 -129t-261.5 -44.5q-207 0 -363.5 92.5t-238.5 255.5t-82 372zM782 1300q-77 0 -148 -36t-127 -103t-89.5 -174t-33.5 -238
q0 -221 82 -390q36 -71 84.5 -123t102 -80t104.5 -41t102 -13q84 0 156 30.5t129 90t89.5 157t32.5 221.5q0 117 -26.5 232t-74.5 205q-64 122 -165 192t-218 70z" />
    <glyph glyph-name="Odieresis" unicode="&#xd6;" horiz-adv-x="1495" 
d="M625 1777q52 0 85.5 -32t33.5 -83q0 -63 -45 -106.5t-109 -43.5q-53 0 -84.5 31t-31.5 82q0 60 44.5 106t106.5 46zM1048 1777q52 0 85.5 -32t33.5 -83q0 -63 -45 -106.5t-109 -43.5q-53 0 -84.5 31t-31.5 82q0 60 44.5 106t106.5 46zM141 685q0 327 187 534t478 207
q111 0 213.5 -32.5t188.5 -97t150.5 -155t100.5 -213.5t36 -265q0 -170 -52.5 -305t-144 -219.5t-212 -129t-261.5 -44.5q-207 0 -363.5 92.5t-238.5 255.5t-82 372zM782 1300q-77 0 -148 -36t-127 -103t-89.5 -174t-33.5 -238q0 -221 82 -390q36 -71 84.5 -123t102 -80
t104.5 -41t102 -13q84 0 156 30.5t129 90t89.5 157t32.5 221.5q0 117 -26.5 232t-74.5 205q-64 122 -165 192t-218 70z" />
    <glyph glyph-name="multiply" unicode="&#xd7;" horiz-adv-x="1101" 
d="M396 1051q16 0 32 -17l274 -278l280 278q15 17 32 17q21 0 52.5 -35t31.5 -57q0 -17 -19 -36l-272 -273l278 -275q16 -16 16 -32q0 -21 -34 -52.5t-55 -31.5q-22 0 -38 19l-273 271l-275 -277q-16 -16 -32 -16q-22 0 -53.5 34.5t-31.5 56.5q0 18 19 37l271 269l-269 270
q-19 17 -19 38q0 22 31.5 56t53.5 34z" />
    <glyph glyph-name="Oslash" unicode="&#xd8;" horiz-adv-x="1495" 
d="M141 685q0 327 187 534t478 207q185 0 340 -89l91 147q20 34 54 34t54 -16.5t20 -36.5q0 -19 -15 -43l-101 -159q115 -101 180.5 -254t65.5 -346q0 -170 -52.5 -305t-144 -219.5t-212 -129t-261.5 -44.5q-190 0 -341 80l-91 -145q-17 -28 -50 -28q-30 0 -50.5 15.5
t-20.5 35.5q0 15 10 32l100 159q-116 96 -178.5 243.5t-62.5 327.5zM782 1300q-77 0 -148 -36t-127 -103t-89.5 -174t-33.5 -238q0 -221 82 -390q12 -27 37 -63l546 895q-118 109 -267 109zM1165 1038q-19 36 -30 52l-545 -890q118 -98 269 -98q84 0 156 30.5t129 90
t89.5 157t32.5 221.5q0 117 -26.5 232t-74.5 205z" />
    <glyph glyph-name="Ugrave" unicode="&#xd9;" horiz-adv-x="1440" 
d="M946 1568q44 -36 44 -60q0 -32 -44 -32q-46 0 -123.5 28.5t-147.5 70.5q-109 66 -109 135q0 40 27 65t69 25q63 0 130 -85q78 -90 154 -147zM1339 778q0 -52 0.5 -137t0.5 -121q0 -282 -138 -418.5t-391 -136.5q-113 0 -205 32t-165 99t-113.5 181.5t-40.5 269.5
q0 586 -3 637q-2 33 -14.5 57t-27.5 37t-30.5 23.5t-25.5 22.5t-10 29q0 45 62 45q18 0 73 -2.5t81 -2.5q27 0 82 2.5t71 2.5q60 0 60 -45q0 -17 -9.5 -29.5t-24 -22.5t-29.5 -22t-26.5 -36.5t-14.5 -58.5q-5 -47 -5 -606q0 -98 18 -174.5t49.5 -126.5t77 -82.5t96.5 -46
t111 -13.5q112 0 188 43.5t113 116.5q27 53 37 153.5t10 294.5q0 436 -17 481q-6 25 -24 44.5t-36.5 30t-33 25t-14.5 31.5q0 43 59 43q26 0 74.5 -2.5t61.5 -2.5q18 0 60 2.5t66 2.5q54 0 54 -45q0 -19 -14.5 -34.5t-32 -26t-34 -35t-19.5 -58.5q-7 -70 -7 -421z" />
    <glyph glyph-name="Uacute" unicode="&#xda;" horiz-adv-x="1440" 
d="M721 1568q81 61 153 147q69 85 132 85q42 0 68.5 -25t26.5 -65q0 -69 -109 -135q-70 -42 -147.5 -70.5t-123.5 -28.5q-44 0 -44 32q0 24 44 60zM1339 778q0 -52 0.5 -137t0.5 -121q0 -282 -138 -418.5t-391 -136.5q-113 0 -205 32t-165 99t-113.5 181.5t-40.5 269.5
q0 586 -3 637q-2 33 -14.5 57t-27.5 37t-30.5 23.5t-25.5 22.5t-10 29q0 45 62 45q18 0 73 -2.5t81 -2.5q27 0 82 2.5t71 2.5q60 0 60 -45q0 -17 -9.5 -29.5t-24 -22.5t-29.5 -22t-26.5 -36.5t-14.5 -58.5q-5 -47 -5 -606q0 -98 18 -174.5t49.5 -126.5t77 -82.5t96.5 -46
t111 -13.5q112 0 188 43.5t113 116.5q27 53 37 153.5t10 294.5q0 436 -17 481q-6 25 -24 44.5t-36.5 30t-33 25t-14.5 31.5q0 43 59 43q26 0 74.5 -2.5t61.5 -2.5q18 0 60 2.5t66 2.5q54 0 54 -45q0 -19 -14.5 -34.5t-32 -26t-34 -35t-19.5 -58.5q-7 -70 -7 -421z" />
    <glyph glyph-name="Ucircumflex" unicode="&#xdb;" horiz-adv-x="1440" 
d="M1062 1476q-68 0 -182 79q-50 36 -63 36q-4 0 -8 -1t-10 -5t-9.5 -7t-14 -10.5t-16.5 -12.5q-43 -31 -95 -55t-82 -24q-15 0 -25 8.5t-10 22.5q0 15 26 43q69 74 151 183q18 23 28.5 35t29 22t40.5 10q29 0 50.5 -16.5t48.5 -50.5q68 -91 150 -181q28 -28 28 -46
q0 -14 -11 -22t-26 -8zM1339 778q0 -52 0.5 -137t0.5 -121q0 -282 -138 -418.5t-391 -136.5q-113 0 -205 32t-165 99t-113.5 181.5t-40.5 269.5q0 586 -3 637q-2 33 -14.5 57t-27.5 37t-30.5 23.5t-25.5 22.5t-10 29q0 45 62 45q18 0 73 -2.5t81 -2.5q27 0 82 2.5t71 2.5
q60 0 60 -45q0 -17 -9.5 -29.5t-24 -22.5t-29.5 -22t-26.5 -36.5t-14.5 -58.5q-5 -47 -5 -606q0 -98 18 -174.5t49.5 -126.5t77 -82.5t96.5 -46t111 -13.5q112 0 188 43.5t113 116.5q27 53 37 153.5t10 294.5q0 436 -17 481q-6 25 -24 44.5t-36.5 30t-33 25t-14.5 31.5
q0 43 59 43q26 0 74.5 -2.5t61.5 -2.5q18 0 60 2.5t66 2.5q54 0 54 -45q0 -19 -14.5 -34.5t-32 -26t-34 -35t-19.5 -58.5q-7 -70 -7 -421z" />
    <glyph glyph-name="Udieresis" unicode="&#xdc;" horiz-adv-x="1440" 
d="M628 1777q52 0 86 -32t34 -83q0 -63 -45.5 -106.5t-109.5 -43.5q-53 0 -84.5 31t-31.5 82q0 60 44.5 106t106.5 46zM1051 1777q52 0 85.5 -32t33.5 -83q0 -63 -45 -106.5t-109 -43.5q-53 0 -84.5 31t-31.5 82q0 60 44.5 106t106.5 46zM1339 778q0 -52 0.5 -137t0.5 -121
q0 -282 -138 -418.5t-391 -136.5q-113 0 -205 32t-165 99t-113.5 181.5t-40.5 269.5q0 586 -3 637q-2 33 -14.5 57t-27.5 37t-30.5 23.5t-25.5 22.5t-10 29q0 45 62 45q18 0 73 -2.5t81 -2.5q27 0 82 2.5t71 2.5q60 0 60 -45q0 -17 -9.5 -29.5t-24 -22.5t-29.5 -22
t-26.5 -36.5t-14.5 -58.5q-5 -47 -5 -606q0 -98 18 -174.5t49.5 -126.5t77 -82.5t96.5 -46t111 -13.5q112 0 188 43.5t113 116.5q27 53 37 153.5t10 294.5q0 436 -17 481q-6 25 -24 44.5t-36.5 30t-33 25t-14.5 31.5q0 43 59 43q26 0 74.5 -2.5t61.5 -2.5q18 0 60 2.5
t66 2.5q54 0 54 -45q0 -19 -14.5 -34.5t-32 -26t-34 -35t-19.5 -58.5q-7 -70 -7 -421z" />
    <glyph glyph-name="Yacute" unicode="&#xdd;" horiz-adv-x="1213" 
d="M515 1568q83 63 154 147q33 41 63.5 63t67.5 22q42 0 68.5 -25t26.5 -65q0 -69 -109 -135q-70 -42 -147.5 -70.5t-123.5 -28.5q-44 0 -44 32q0 24 44 60zM724 498q0 -254 10 -325q4 -30 24.5 -50.5t42 -29t39 -23t17.5 -33.5q0 -42 -65 -42q-18 0 -81 2.5t-89 2.5
q-27 0 -91.5 -2.5t-81.5 -2.5q-66 0 -66 42q0 19 18 33.5t40 23t42 29t24 50.5q8 57 8 334q0 39 -26.5 101t-58.5 117t-103 170q-156 257 -205 328q-17 23 -39.5 42.5t-38 28.5t-27 23t-11.5 31q0 50 79 50q16 0 66 -2.5t90 -2.5q39 0 93 2.5t73 2.5q62 0 62 -47
q0 -20 -39 -53.5t-39 -58.5q0 -41 100 -222.5t155 -253.5q10 -12 19 -12q6 0 17 16q65 96 149 262t84 204q0 22 -12.5 39.5t-27 27t-27 23.5t-12.5 30q0 45 63 45q17 0 76.5 -2.5t78.5 -2.5q18 0 55.5 2.5t53.5 2.5q24 0 37.5 -12t13.5 -33q0 -23 -14.5 -37t-47.5 -40.5
t-62 -67.5q-11 -15 -24 -36t-34.5 -58.5t-33 -58.5t-44.5 -81.5l-45 -82.5q-17 -31 -53 -95t-53 -95t-39 -75.5t-31 -74.5t-9 -53z" />
    <glyph glyph-name="Thorn" unicode="&#xde;" horiz-adv-x="1284" 
d="M324 1184q-2 32 -14 56t-27.5 37t-30.5 24t-25 24t-10 30q0 43 63 43q14 0 70 -2.5t88 -2.5q26 0 81 2.5t73 2.5q67 0 67 -44q0 -5 -0.5 -9t-3 -8t-4 -7t-6 -7t-7.5 -6.5t-9.5 -7t-10.5 -7t-12.5 -8t-13.5 -8.5q-30 -20 -42.5 -39.5t-12.5 -55.5q0 -65 26 -65q8 0 43 5.5
t91.5 11t117.5 5.5q238 0 375 -108t137 -299q0 -94 -33.5 -175.5t-99.5 -145.5t-174 -101t-246 -37q-72 0 -135 8t-71 8q-20 0 -25.5 -14t-5.5 -74q0 -43 15.5 -67.5t58.5 -41.5q54 -21 66 -34q10 -11 10 -26q0 -46 -78 -46q-18 0 -84 2.5t-92 2.5q-31 0 -87 -2.5t-70 -2.5
q-65 0 -65 42q0 18 15 31.5t34 22t36.5 29t21.5 49.5q9 64 9 542q0 448 -3 473zM1098 724q0 144 -94 223t-252 79q-49 0 -85 -4t-67.5 -14t-47.5 -30t-16 -50v-427q0 -57 42 -78t153 -21q179 0 273 86t94 236z" />
    <glyph glyph-name="germandbls" unicode="&#xdf;" horiz-adv-x="1137" 
d="M211 223v764q0 121 19 207q33 148 130.5 230.5t235.5 82.5q132 0 216.5 -71.5t84.5 -190.5q0 -60 -22 -115.5t-53.5 -93.5t-63 -67.5t-53.5 -49.5t-22 -27q0 -11 41 -32q68 -30 124.5 -62t113.5 -77.5t95.5 -96.5t62.5 -118t24 -142q0 -174 -108 -275.5t-274 -101.5
q-74 0 -138.5 29.5t-64.5 64.5q0 11 7.5 19.5t20.5 8.5q10 0 41.5 -7t57.5 -7q113 0 178.5 71.5t65.5 186.5q0 69 -25 130.5t-61 105t-89.5 84.5t-97 65t-97.5 50q-40 23 -40 57q0 21 23.5 49t57 59.5t67.5 67.5t57.5 87t23.5 105q0 74 -39 117t-107 43q-91 0 -143.5 -85
t-52.5 -258v-818q0 -43 15 -72t32.5 -40t32.5 -26t15 -34q0 -45 -66 -45q-10 0 -57.5 2.5t-70.5 2.5q-29 0 -76 -2.5t-69 -2.5q-65 0 -65 42q0 8 3 15t5.5 11.5t10 10.5t10.5 7.5t14 8t12 7.5q58 40 58 126z" />
    <glyph glyph-name="agrave" unicode="&#xe0;" horiz-adv-x="1096" 
d="M643 1231q22 -43 22 -49q0 -31 -36 -31q-32 0 -99 52.5t-113 117.5q-51 69 -51 124q0 35 22 60.5t61 25.5q25 0 43.5 -9.5t31.5 -30t19.5 -35.5t15.5 -42q25 -79 84 -183zM451 545q59 15 139.5 25t134.5 16t63 12q19 14 19 80q0 122 -54 198t-167 76q-87 0 -135 -53
t-65 -132q-8 -37 -24.5 -54.5t-49.5 -17.5q-40 0 -72.5 29.5t-32.5 85.5q0 92 106 165.5t277 73.5q200 0 308.5 -111.5t108.5 -300.5q0 -75 -6 -222.5t-6 -183.5q0 -39 15 -65t46 -26q16 0 31 5.5t22 5.5q3 0 6.5 -3t6.5 -10.5t3 -18.5q0 -53 -46 -93t-112 -40
q-125 0 -165 112q-5 18 -17 18q-3 0 -7 -3.5t-8.5 -9.5t-7.5 -9q-54 -54 -134.5 -86.5t-171.5 -32.5q-134 0 -221.5 68t-87.5 186q0 117 81 197.5t223 118.5zM806 409q0 76 -20 76q-161 0 -258 -28q-89 -27 -132 -80t-43 -115q0 -72 49.5 -112t126.5 -40q121 0 199 81
t78 218z" />
    <glyph glyph-name="aacute" unicode="&#xe1;" horiz-adv-x="1096" 
d="M551 1231q55 98 84 183q8 26 15 42t19.5 35.5t31.5 29.5t44 10q39 0 61 -25.5t22 -60.5q0 -55 -51 -124q-46 -65 -113 -117.5t-99 -52.5q-36 0 -36 31q0 9 22 49zM451 545q59 15 139.5 25t134.5 16t63 12q19 14 19 80q0 122 -54 198t-167 76q-87 0 -135 -53t-65 -132
q-8 -37 -24.5 -54.5t-49.5 -17.5q-40 0 -72.5 29.5t-32.5 85.5q0 92 106 165.5t277 73.5q200 0 308.5 -111.5t108.5 -300.5q0 -75 -6 -222.5t-6 -183.5q0 -39 15 -65t46 -26q16 0 31 5.5t22 5.5q3 0 6.5 -3t6.5 -10.5t3 -18.5q0 -53 -46 -93t-112 -40q-125 0 -165 112
q-5 18 -17 18q-3 0 -7 -3.5t-8.5 -9.5t-7.5 -9q-54 -54 -134.5 -86.5t-171.5 -32.5q-134 0 -221.5 68t-87.5 186q0 117 81 197.5t223 118.5zM806 409q0 76 -20 76q-161 0 -258 -28q-89 -27 -132 -80t-43 -115q0 -72 49.5 -112t126.5 -40q121 0 199 81t78 218z" />
    <glyph glyph-name="acircumflex" unicode="&#xe2;" horiz-adv-x="1096" 
d="M806 1150q-53 0 -154 103q-11 11 -23 26t-18 20.5t-11 5.5t-11 -6t-18 -20t-23 -25q-100 -104 -147 -104q-12 0 -20 8t-8 20q0 17 23 44q66 92 126 224q12 24 20.5 37.5t24.5 24.5t37 11q51 0 84 -73q54 -121 124 -224q24 -31 24 -44q0 -12 -9 -20t-21 -8zM451 545
q59 15 139.5 25t134.5 16t63 12q19 14 19 80q0 122 -54 198t-167 76q-87 0 -135 -53t-65 -132q-8 -37 -24.5 -54.5t-49.5 -17.5q-40 0 -72.5 29.5t-32.5 85.5q0 92 106 165.5t277 73.5q200 0 308.5 -111.5t108.5 -300.5q0 -75 -6 -222.5t-6 -183.5q0 -39 15 -65t46 -26
q16 0 31 5.5t22 5.5q3 0 6.5 -3t6.5 -10.5t3 -18.5q0 -53 -46 -93t-112 -40q-125 0 -165 112q-5 18 -17 18q-3 0 -7 -3.5t-8.5 -9.5t-7.5 -9q-54 -54 -134.5 -86.5t-171.5 -32.5q-134 0 -221.5 68t-87.5 186q0 117 81 197.5t223 118.5zM806 409q0 76 -20 76q-161 0 -258 -28
q-89 -27 -132 -80t-43 -115q0 -72 49.5 -112t126.5 -40q121 0 199 81t78 218z" />
    <glyph glyph-name="atilde" unicode="&#xe3;" horiz-adv-x="1096" 
d="M333 1268q0 66 42.5 111.5t105.5 45.5q49 0 129 -43t120 -43q28 0 45.5 14t23 31.5t12 31.5t15.5 14q18 0 34 -25.5t16 -67.5q0 -69 -43.5 -112t-108.5 -43q-35 0 -74 15t-66.5 33.5t-60.5 33.5t-58 15q-23 0 -40 -13.5t-24.5 -29t-16 -29t-17.5 -13.5q-12 0 -23 19.5
t-11 54.5zM451 545q59 15 139.5 25t134.5 16t63 12q19 14 19 80q0 122 -54 198t-167 76q-87 0 -135 -53t-65 -132q-8 -37 -24.5 -54.5t-49.5 -17.5q-40 0 -72.5 29.5t-32.5 85.5q0 92 106 165.5t277 73.5q200 0 308.5 -111.5t108.5 -300.5q0 -75 -6 -222.5t-6 -183.5
q0 -39 15 -65t46 -26q16 0 31 5.5t22 5.5q3 0 6.5 -3t6.5 -10.5t3 -18.5q0 -53 -46 -93t-112 -40q-125 0 -165 112q-5 18 -17 18q-3 0 -7 -3.5t-8.5 -9.5t-7.5 -9q-54 -54 -134.5 -86.5t-171.5 -32.5q-134 0 -221.5 68t-87.5 186q0 117 81 197.5t223 118.5zM806 409
q0 76 -20 76q-161 0 -258 -28q-89 -27 -132 -80t-43 -115q0 -72 49.5 -112t126.5 -40q121 0 199 81t78 218z" />
    <glyph glyph-name="adieresis" unicode="&#xe4;" horiz-adv-x="1096" 
d="M447 1453q50 0 82.5 -31t32.5 -81q0 -61 -43 -102.5t-105 -41.5q-50 0 -80 30.5t-30 78.5q0 58 42 102.5t101 44.5zM810 1453q50 0 82.5 -31t32.5 -81q0 -61 -43.5 -102.5t-105.5 -41.5q-50 0 -80 30.5t-30 78.5q0 58 42 102.5t102 44.5zM451 545q59 15 139.5 25
t134.5 16t63 12q19 14 19 80q0 122 -54 198t-167 76q-87 0 -135 -53t-65 -132q-8 -37 -24.5 -54.5t-49.5 -17.5q-40 0 -72.5 29.5t-32.5 85.5q0 92 106 165.5t277 73.5q200 0 308.5 -111.5t108.5 -300.5q0 -75 -6 -222.5t-6 -183.5q0 -39 15 -65t46 -26q16 0 31 5.5t22 5.5
q3 0 6.5 -3t6.5 -10.5t3 -18.5q0 -53 -46 -93t-112 -40q-125 0 -165 112q-5 18 -17 18q-3 0 -7 -3.5t-8.5 -9.5t-7.5 -9q-54 -54 -134.5 -86.5t-171.5 -32.5q-134 0 -221.5 68t-87.5 186q0 117 81 197.5t223 118.5zM806 409q0 76 -20 76q-161 0 -258 -28q-89 -27 -132 -80
t-43 -115q0 -72 49.5 -112t126.5 -40q121 0 199 81t78 218z" />
    <glyph glyph-name="aring" unicode="&#xe5;" horiz-adv-x="1096" 
d="M607 1534q88 0 146 -54t58 -141q0 -90 -62 -145t-152 -55t-148 53t-58 140q0 89 62.5 145.5t153.5 56.5zM616 1452q-49 0 -79.5 -33t-30.5 -81q0 -45 28 -74t74 -29q49 0 78.5 34t29.5 81q0 44 -27.5 73t-72.5 29zM451 545q59 15 139.5 25t134.5 16t63 12q19 14 19 80
q0 122 -54 198t-167 76q-87 0 -135 -53t-65 -132q-8 -37 -24.5 -54.5t-49.5 -17.5q-40 0 -72.5 29.5t-32.5 85.5q0 92 106 165.5t277 73.5q200 0 308.5 -111.5t108.5 -300.5q0 -75 -6 -222.5t-6 -183.5q0 -39 15 -65t46 -26q16 0 31 5.5t22 5.5q3 0 6.5 -3t6.5 -10.5
t3 -18.5q0 -53 -46 -93t-112 -40q-125 0 -165 112q-5 18 -17 18q-3 0 -7 -3.5t-8.5 -9.5t-7.5 -9q-54 -54 -134.5 -86.5t-171.5 -32.5q-134 0 -221.5 68t-87.5 186q0 117 81 197.5t223 118.5zM806 409q0 76 -20 76q-161 0 -258 -28q-89 -27 -132 -80t-43 -115
q0 -72 49.5 -112t126.5 -40q121 0 199 81t78 218z" />
    <glyph glyph-name="ae" unicode="&#xe6;" horiz-adv-x="1660" 
d="M572 1049q99 0 169.5 -27.5t127.5 -87.5q11 -10 22.5 -23.5t17.5 -19.5t11 -6t9.5 3t14 12t17.5 16q131 133 320 133q171 0 276.5 -107t105.5 -265q0 -76 -65 -116q-70 -48 -241 -70.5t-333 -24.5q-26 -1 -26 -21q0 -43 17.5 -92.5t52.5 -99t97.5 -82.5t141.5 -33
q115 0 193 52t122 138q19 30 34 30q23 0 23 -48q0 -36 -16 -79t-50.5 -88t-82.5 -81.5t-119.5 -60t-153.5 -23.5q-130 0 -227.5 53.5t-157.5 148.5q-11 19 -19 19q-2 0 -4.5 -2t-4 -4t-4.5 -7t-5 -7q-130 -204 -386 -204q-132 0 -218 68t-86 186q0 116 76.5 195t220.5 117
q59 15 137 22t130.5 9t60.5 7q16 11 16 98q0 80 -19.5 139.5t-68.5 97.5t-123 38q-83 0 -129 -53t-63 -132q-7 -36 -24 -54t-51 -18q-40 0 -72 29.5t-32 85.5q0 92 102 165.5t266 73.5zM1474 703q0 100 -59.5 167t-148.5 67q-78 0 -144 -50t-101.5 -126.5t-35.5 -158.5
q0 -38 28 -38q74 0 219 19t203 52q39 22 39 68zM790 430q0 23 -16.5 31.5t-57.5 8.5q-130 0 -199 -20q-87 -26 -128 -77.5t-41 -111.5q0 -72 49.5 -110t121.5 -38q123 0 197 88t74 229z" />
    <glyph glyph-name="ccedilla" unicode="&#xe7;" horiz-adv-x="1022" 
d="M475 -141q0 21 15.5 57.5t37.5 67.5q-186 24 -301.5 163.5t-115.5 345.5q0 150 61 275.5t179.5 203t271.5 77.5q155 0 256 -78.5t101 -185.5q0 -64 -42 -100.5t-95 -36.5q-14 0 -22 2.5t-13.5 12.5t-7.5 16t-5.5 26.5t-6.5 31.5q-21 92 -73 147t-135 55
q-115 0 -193.5 -104t-78.5 -266q0 -180 96 -297.5t260 -117.5q56 0 104 15t79 35t58.5 51t40.5 52t27 48q18 30 34 30q24 0 24 -51q0 -52 -27 -110.5t-75.5 -112t-129 -90.5t-175.5 -41q-21 -44 -21 -60q0 -4 5.5 -6t19 -7t25.5 -10q109 -55 109 -159q0 -90 -61.5 -144
t-157.5 -54q-69 0 -125.5 38t-56.5 65q0 13 7 20.5t17 7.5q6 0 48 -22.5t86 -22.5q42 0 70.5 24.5t28.5 62.5q0 42 -32 73t-87 43q-8 2 -12.5 4t-8 8.5t-3.5 17.5z" />
    <glyph glyph-name="egrave" unicode="&#xe8;" horiz-adv-x="1030" 
d="M662 1231q21 -41 21 -49q0 -31 -36 -31q-32 0 -99 52.5t-113 117.5q-51 69 -51 124q0 35 22 60.5t61 25.5q25 0 44 -10t32 -30t19.5 -35.5t15.5 -41.5q25 -79 84 -183zM950 561q-84 -53 -253.5 -78.5t-337.5 -30.5q-25 0 -25 -19q0 -40 18 -87.5t53 -95.5t100 -80
t146 -32q223 0 322 190q19 30 36 30q23 0 23 -48q0 -36 -16 -79t-51.5 -88t-84.5 -81.5t-122 -60t-157 -23.5q-218 0 -353 143t-135 369q0 150 63 277t181.5 204.5t267.5 77.5q176 0 283.5 -107t107.5 -265q0 -75 -66 -116zM824 705q0 99 -62.5 165.5t-154.5 66.5
q-122 0 -206 -102t-84 -236q0 -42 30 -42q89 0 231 21.5t205 57.5q41 23 41 69z" />
    <glyph glyph-name="eacute" unicode="&#xe9;" horiz-adv-x="1030" 
d="M515 1231q55 98 84 183q11 34 21 55.5t33.5 41.5t56.5 20q39 0 61 -25.5t22 -60.5q0 -54 -52 -124q-46 -65 -113 -117.5t-99 -52.5q-35 0 -35 31q0 10 21 49zM950 561q-84 -53 -253.5 -78.5t-337.5 -30.5q-25 0 -25 -19q0 -40 18 -87.5t53 -95.5t100 -80t146 -32
q223 0 322 190q19 30 36 30q23 0 23 -48q0 -36 -16 -79t-51.5 -88t-84.5 -81.5t-122 -60t-157 -23.5q-218 0 -353 143t-135 369q0 150 63 277t181.5 204.5t267.5 77.5q176 0 283.5 -107t107.5 -265q0 -75 -66 -116zM824 705q0 99 -62.5 165.5t-154.5 66.5q-122 0 -206 -102
t-84 -236q0 -42 30 -42q89 0 231 21.5t205 57.5q41 23 41 69z" />
    <glyph glyph-name="ecircumflex" unicode="&#xea;" horiz-adv-x="1030" 
d="M801 1150q-53 0 -154 103q-11 11 -23 26t-18 20.5t-11 5.5t-11 -6t-18 -20t-23 -25q-100 -104 -147 -104q-12 0 -20 8t-8 20q0 17 23 44q66 92 126 224q12 24 20.5 37.5t24.5 24.5t37 11q51 0 84 -73q54 -121 124 -224q23 -30 23 -44q0 -12 -8.5 -20t-20.5 -8zM950 561
q-84 -53 -253.5 -78.5t-337.5 -30.5q-25 0 -25 -19q0 -40 18 -87.5t53 -95.5t100 -80t146 -32q223 0 322 190q19 30 36 30q23 0 23 -48q0 -36 -16 -79t-51.5 -88t-84.5 -81.5t-122 -60t-157 -23.5q-218 0 -353 143t-135 369q0 150 63 277t181.5 204.5t267.5 77.5
q176 0 283.5 -107t107.5 -265q0 -75 -66 -116zM824 705q0 99 -62.5 165.5t-154.5 66.5q-122 0 -206 -102t-84 -236q0 -42 30 -42q89 0 231 21.5t205 57.5q41 23 41 69z" />
    <glyph glyph-name="edieresis" unicode="&#xeb;" horiz-adv-x="1030" 
d="M435 1453q50 0 82.5 -31t32.5 -81q0 -61 -43.5 -102.5t-105.5 -41.5q-50 0 -79.5 30.5t-29.5 78.5q0 58 42 102.5t101 44.5zM798 1453q50 0 82 -31t32 -81q0 -61 -43 -102.5t-105 -41.5q-50 0 -80.5 30.5t-30.5 78.5q0 58 42.5 102.5t102.5 44.5zM950 561
q-84 -53 -253.5 -78.5t-337.5 -30.5q-25 0 -25 -19q0 -40 18 -87.5t53 -95.5t100 -80t146 -32q223 0 322 190q19 30 36 30q23 0 23 -48q0 -36 -16 -79t-51.5 -88t-84.5 -81.5t-122 -60t-157 -23.5q-218 0 -353 143t-135 369q0 150 63 277t181.5 204.5t267.5 77.5
q176 0 283.5 -107t107.5 -265q0 -75 -66 -116zM824 705q0 99 -62.5 165.5t-154.5 66.5q-122 0 -206 -102t-84 -236q0 -42 30 -42q89 0 231 21.5t205 57.5q41 23 41 69z" />
    <glyph glyph-name="igrave" unicode="&#xec;" horiz-adv-x="556" 
d="M398 1231q22 -43 22 -49q0 -31 -36 -31q-32 0 -99 52.5t-113 117.5q-51 69 -51 124q0 35 22 60.5t61 25.5q25 0 43.5 -9.5t31.5 -30t19.5 -35.5t15.5 -42q25 -79 84 -183zM447 989q0 -5 -4.5 -103t-4.5 -212v-462q0 -44 12 -68.5t37 -43.5q7 -5 27 -16t27.5 -20.5
t7.5 -24.5q0 -44 -65 -44q-25 0 -68.5 2.5t-72.5 2.5q-25 0 -67 -2.5t-87 -2.5q-59 0 -59 42q0 12 6 22t12.5 15t18.5 12.5t16 10.5q35 25 47 53.5t12 70.5v559q0 65 -69 88q-43 22 -43 46q0 12 4.5 20.5t15 15t19.5 10t28 10t31 11.5q34 14 74 33t59.5 27t33.5 8
q52 0 52 -60z" />
    <glyph glyph-name="iacute" unicode="&#xed;" horiz-adv-x="556" 
d="M260 1231q55 98 84 183q11 34 21 55.5t33.5 41.5t56.5 20q39 0 61 -25.5t22 -60.5q0 -54 -52 -124q-46 -65 -113 -117.5t-99 -52.5q-35 0 -35 31q0 10 21 49zM457 989q0 -5 -5 -103t-5 -212v-462q0 -44 12.5 -68.5t37.5 -43.5q8 -6 21.5 -14t20.5 -12.5t13 -13.5t6 -21
q0 -44 -64 -44q-25 0 -69 2.5t-73 2.5q-25 0 -66.5 -2.5t-86.5 -2.5q-60 0 -60 42q0 12 6.5 22t13 15t18.5 12.5t16 10.5q35 25 46.5 53t11.5 71v559q0 65 -69 88q-43 22 -43 46q0 12 4.5 20.5t15 15t20 10t28.5 10t31 11.5q34 14 73.5 33t59 27t33.5 8q53 0 53 -60z" />
    <glyph glyph-name="icircumflex" unicode="&#xee;" horiz-adv-x="556" 
d="M521 1150q-52 0 -153 103q-10 10 -23 25.5t-19 21t-11 5.5t-11 -6t-18 -20t-23 -25q-100 -104 -146 -104q-12 0 -20.5 8t-8.5 20q0 16 24 44q66 92 126 224q12 25 20 37.5t24 24t37 11.5q51 0 84 -73q54 -121 124 -224q24 -31 24 -44q0 -12 -9 -20t-21 -8zM431 989
q0 -5 -4.5 -103t-4.5 -212v-462q0 -44 12 -68.5t37 -43.5q8 -6 21.5 -14t20.5 -12.5t13 -13.5t6 -21q0 -44 -64 -44q-25 0 -68.5 2.5t-72.5 2.5q-25 0 -67 -2.5t-87 -2.5q-59 0 -59 42q0 12 6 22t12.5 15t18.5 12.5t16 10.5q35 25 46.5 53t11.5 71v559q0 65 -68 88
q-43 22 -43 46q0 12 4.5 20.5t15 15t19.5 10t28 10t31 11.5q34 14 74 33t59.5 27t33.5 8q52 0 52 -60z" />
    <glyph glyph-name="idieresis" unicode="&#xef;" horiz-adv-x="556" 
d="M146 1453q48 0 80 -31t32 -81q0 -61 -41 -102t-101 -41q-50 0 -79 30.5t-29 78.5q0 58 40 102t98 44zM461 1453q47 0 79 -31t32 -81q0 -61 -41 -102t-101 -41q-50 0 -78.5 30.5t-28.5 78.5q0 58 40 102t98 44zM391 989q0 -5 -4.5 -103t-4.5 -212v-462q0 -44 12 -68.5
t37 -43.5q7 -5 27 -16t27.5 -20.5t7.5 -24.5q0 -44 -65 -44q-25 0 -68.5 2.5t-72.5 2.5q-25 0 -67 -2.5t-87 -2.5q-59 0 -59 42q0 12 6 22t12.5 15t18.5 12.5t16 10.5q35 25 46.5 53t11.5 71v559q0 65 -68 88q-43 22 -43 46q0 12 4.5 20.5t15 15t19.5 10t28 10t31 11.5
q34 14 74 33t59.5 27t33.5 8q52 0 52 -60z" />
    <glyph glyph-name="eth" unicode="&#xf0;" horiz-adv-x="1132" 
d="M797 956q15 -11 19 -11q5 0 5 6t-6 21q-64 134 -180 241l-227 -108q-45 -20 -57 -20q-37 0 -37 67q0 32 53 57l169 82q-104 70 -229 108q-58 18 -58 41q0 19 16 27.5t35 8.5q77 0 176 -31t196 -90l195 95q39 19 58 19q21 0 30.5 -21.5t9.5 -46.5q0 -32 -56 -59l-130 -62
q73 -59 133 -132q101 -125 160.5 -280.5t59.5 -327.5q0 -129 -39.5 -235.5t-108 -177t-161 -109t-198.5 -38.5q-233 0 -373.5 147.5t-140.5 379.5q0 235 127 381.5t316 146.5q144 0 243 -79zM591 937q-115 0 -191 -97t-76 -271q0 -169 59 -287q48 -92 120.5 -135t150.5 -43
q117 0 197 84.5t80 255.5q0 175 -74 316q-48 87 -118.5 132t-147.5 45z" />
    <glyph glyph-name="ntilde" unicode="&#xf1;" 
d="M409 1268q0 66 42.5 111.5t105.5 45.5q49 0 129 -43t120 -43q28 0 45.5 14t23 31.5t12 31.5t15.5 14q18 0 33.5 -25.5t15.5 -67.5q0 -69 -43 -112t-108 -43q-35 0 -74 15t-66.5 33.5t-60.5 33.5t-58 15q-23 0 -40.5 -13.5t-24.5 -29t-16 -29t-18 -13.5q-12 0 -22.5 19.5
t-10.5 54.5zM1152 633q0 -120 -15 -274t-15 -169q0 -61 48 -91q9 -6 25.5 -14t23.5 -12t13.5 -13t6.5 -21q0 -44 -69 -44q-18 0 -54 2.5t-66 2.5t-68.5 -2.5t-55.5 -2.5q-48 0 -48 42q0 12 4 26t10.5 29.5t7.5 19.5q17 52 32 187.5t15 285.5q0 158 -61.5 238.5t-170.5 80.5
q-97 0 -184.5 -78t-87.5 -154v-460q0 -44 11 -69t36 -43q8 -6 27 -16.5t27 -20t8 -24.5q0 -44 -66 -44q-26 0 -69.5 2.5t-68.5 2.5t-73.5 -2.5t-78.5 -2.5q-61 0 -61 42q0 12 6.5 22t12.5 15t19 13t16 10q35 25 47 53.5t12 70.5v575q0 32 -18 48.5t-53 27.5q-39 16 -39 42
q0 12 4.5 20.5t15.5 15.5t20 11t29 11t31 12q19 8 46 20t39.5 17.5t27.5 10t26 4.5q40 0 50 -48q2 -12 5.5 -32.5t5.5 -32.5t5 -25.5t7 -20t9 -6.5q4 0 35 28t71.5 61t109 61t138.5 28q160 0 249.5 -105t89.5 -311z" />
    <glyph glyph-name="ograve" unicode="&#xf2;" horiz-adv-x="1131" 
d="M683 1231q22 -43 22 -49q0 -31 -36 -31q-32 0 -99 52.5t-113 117.5q-51 69 -51 124q0 36 21.5 61t60.5 25q25 0 44 -10t32 -30t19.5 -35.5t15.5 -41.5q25 -79 84 -183zM111 507q0 239 140.5 390.5t358.5 151.5q104 0 198 -38.5t166 -108.5t115 -177.5t43 -236.5
q0 -124 -40 -222t-109.5 -160t-160.5 -94t-197 -32q-233 0 -373.5 147.5t-140.5 379.5zM591 937q-115 0 -191 -97t-76 -271q0 -169 59 -287q48 -92 120.5 -135t150.5 -43q115 0 193.5 85.5t78.5 250.5q0 177 -73 317q-49 89 -117.5 134.5t-144.5 45.5z" />
    <glyph glyph-name="oacute" unicode="&#xf3;" horiz-adv-x="1131" 
d="M526 1231q55 98 84 183q11 34 21 55.5t33.5 41.5t56.5 20q39 0 61 -25.5t22 -60.5q0 -55 -51 -124q-46 -65 -113 -117.5t-99 -52.5q-36 0 -36 31q0 10 21 49zM111 507q0 239 140.5 390.5t358.5 151.5q104 0 198 -38.5t166 -108.5t115 -177.5t43 -236.5q0 -124 -40 -222
t-109.5 -160t-160.5 -94t-197 -32q-233 0 -373.5 147.5t-140.5 379.5zM591 937q-115 0 -191 -97t-76 -271q0 -169 59 -287q48 -92 120.5 -135t150.5 -43q115 0 193.5 85.5t78.5 250.5q0 177 -73 317q-49 89 -117.5 134.5t-144.5 45.5z" />
    <glyph glyph-name="ocircumflex" unicode="&#xf4;" horiz-adv-x="1131" 
d="M818 1150q-52 0 -153 103q-10 10 -23 25.5t-19 21t-11 5.5t-11 -6t-18 -20t-23 -25q-100 -104 -146 -104q-12 0 -20.5 8t-8.5 20q0 16 24 44q66 92 126 224q12 25 20 37.5t24 24t37 11.5q51 0 84 -73q54 -121 124 -224q24 -31 24 -44q0 -12 -9 -20t-21 -8zM111 507
q0 239 140.5 390.5t358.5 151.5q104 0 198 -38.5t166 -108.5t115 -177.5t43 -236.5q0 -124 -40 -222t-109.5 -160t-160.5 -94t-197 -32q-233 0 -373.5 147.5t-140.5 379.5zM591 937q-115 0 -191 -97t-76 -271q0 -169 59 -287q48 -92 120.5 -135t150.5 -43q115 0 193.5 85.5
t78.5 250.5q0 177 -73 317q-49 89 -117.5 134.5t-144.5 45.5z" />
    <glyph glyph-name="otilde" unicode="&#xf5;" horiz-adv-x="1131" 
d="M347 1268q0 66 43 111.5t106 45.5q49 0 128.5 -43t119.5 -43q35 0 53 22.5t26 45.5t18 23q18 0 33.5 -25.5t15.5 -67.5q0 -69 -43.5 -112t-108.5 -43q-35 0 -74 15t-66.5 33.5t-60.5 33.5t-58 15q-23 0 -40 -13.5t-24.5 -29t-16 -29t-17.5 -13.5q-12 0 -23 19.5t-11 54.5
zM111 507q0 239 140.5 390.5t358.5 151.5q104 0 198 -38.5t166 -108.5t115 -177.5t43 -236.5q0 -124 -40 -222t-109.5 -160t-160.5 -94t-197 -32q-233 0 -373.5 147.5t-140.5 379.5zM591 937q-115 0 -191 -97t-76 -271q0 -169 59 -287q48 -92 120.5 -135t150.5 -43
q115 0 193.5 85.5t78.5 250.5q0 177 -73 317q-49 89 -117.5 134.5t-144.5 45.5z" />
    <glyph glyph-name="odieresis" unicode="&#xf6;" horiz-adv-x="1131" 
d="M456 1453q50 0 82 -31t32 -81q0 -61 -43 -102.5t-105 -41.5q-50 0 -80 30.5t-30 78.5q0 58 42.5 102.5t101.5 44.5zM818 1453q50 0 82.5 -31t32.5 -81q0 -61 -43.5 -102.5t-105.5 -41.5q-50 0 -80 30.5t-30 78.5q0 58 42 102.5t102 44.5zM111 507q0 239 140.5 390.5
t358.5 151.5q104 0 198 -38.5t166 -108.5t115 -177.5t43 -236.5q0 -124 -40 -222t-109.5 -160t-160.5 -94t-197 -32q-233 0 -373.5 147.5t-140.5 379.5zM591 937q-115 0 -191 -97t-76 -271q0 -169 59 -287q48 -92 120.5 -135t150.5 -43q115 0 193.5 85.5t78.5 250.5
q0 177 -73 317q-49 89 -117.5 134.5t-144.5 45.5z" />
    <glyph glyph-name="divide" unicode="&#xf7;" horiz-adv-x="1101" 
d="M785 1004q0 -57 -38 -92t-92 -35q-49 0 -82.5 29t-33.5 84q0 58 39 94t91 36q48 0 82 -30.5t34 -85.5zM1020 594h-771q-28 0 -28 34q0 39 15 80q8 17 21 24.5t46 7.5h771q28 0 28 -32q0 -36 -15 -81q-7 -18 -20 -25.5t-47 -7.5zM785 339q0 -57 -38 -92t-92 -35
q-49 0 -82.5 29.5t-33.5 83.5q0 59 39 95t91 36q47 0 81.5 -31t34.5 -86z" />
    <glyph glyph-name="oslash" unicode="&#xf8;" horiz-adv-x="1131" 
d="M111 507q0 239 140.5 390.5t358.5 151.5q130 0 247 -61l99 156q24 32 53 32q32 0 50 -15.5t18 -34.5q0 -17 -14 -40l-109 -165q83 -75 130.5 -185.5t47.5 -247.5q0 -124 -40 -222t-109.5 -160t-160.5 -94t-197 -32q-136 0 -245 53l-94 -148q-15 -24 -47 -24q-28 0 -48 14
t-20 32q0 15 9 30l103 159q-83 71 -127.5 177t-44.5 234zM591 937q-115 0 -192.5 -97t-77.5 -271q0 -170 60 -287q2 -4 4 -8.5t5 -9.5t4 -8l378 607q-83 74 -181 74zM855 756l-6 10l-375 -600q79 -62 180 -62q116 0 195.5 85t79.5 250q0 177 -74 317z" />
    <glyph glyph-name="ugrave" unicode="&#xf9;" 
d="M728 1231q22 -43 22 -49q0 -31 -36 -31q-32 0 -99 52.5t-113 117.5q-51 69 -51 124q0 35 22 60.5t61 25.5q25 0 43.5 -9.5t31.5 -30t19.5 -35.5t15.5 -42q25 -79 84 -183zM1103 707v-476q0 -39 15 -65t46 -26q16 0 32 5.5t22 5.5t11.5 -8t5.5 -24q0 -53 -47 -93t-112 -40
q-40 0 -70.5 11t-49.5 30.5t-29.5 36.5t-19.5 39q-8 19 -18 19q-5 0 -28 -23q-20 -18 -28 -25t-40 -29t-60 -33t-75 -21.5t-98 -10.5q-90 0 -158 31.5t-108 87.5t-59.5 126t-19.5 153q0 94 9.5 240.5t9.5 159.5q0 40 -8 61.5t-27 40.5q-9 8 -30.5 19.5t-34.5 23.5t-13 30
q0 44 69 53q74 9 140.5 22t85.5 13q53 0 53 -54q0 -24 -12.5 -93t-25 -188t-12.5 -266q0 -322 226 -322q120 0 191 79.5t71 231.5v332q0 50 -12.5 79t-47.5 50q-4 3 -12.5 8.5t-13 8.5t-11 8.5t-10 10.5t-6 12t-2.5 15q0 43 60 51q59 6 134 21.5t91 15.5q24 0 36.5 -14.5
t12.5 -38.5q0 -12 -11.5 -94.5t-11.5 -186.5z" />
    <glyph glyph-name="uacute" unicode="&#xfa;" 
d="M596 1231q55 98 84 183q11 34 21 55.5t33.5 41.5t56.5 20q39 0 60.5 -25t21.5 -61q0 -55 -51 -124q-46 -65 -113 -117.5t-99 -52.5q-36 0 -36 31q0 9 22 49zM1103 707v-476q0 -39 15 -65t46 -26q16 0 32 5.5t22 5.5t11.5 -8t5.5 -24q0 -53 -47 -93t-112 -40
q-40 0 -70.5 11t-49.5 30.5t-29.5 36.5t-19.5 39q-8 19 -18 19q-5 0 -28 -23q-20 -18 -28 -25t-40 -29t-60 -33t-75 -21.5t-98 -10.5q-90 0 -158 31.5t-108 87.5t-59.5 126t-19.5 153q0 94 9.5 240.5t9.5 159.5q0 40 -8 61.5t-27 40.5q-9 8 -30.5 19.5t-34.5 23.5t-13 30
q0 44 69 53q74 9 140.5 22t85.5 13q53 0 53 -54q0 -24 -12.5 -93t-25 -188t-12.5 -266q0 -322 226 -322q120 0 191 79.5t71 231.5v332q0 50 -12.5 79t-47.5 50q-4 3 -12.5 8.5t-13 8.5t-11 8.5t-10 10.5t-6 12t-2.5 15q0 43 60 51q59 6 134 21.5t91 15.5q24 0 36.5 -14.5
t12.5 -38.5q0 -12 -11.5 -94.5t-11.5 -186.5z" />
    <glyph glyph-name="ucircumflex" unicode="&#xfb;" 
d="M878 1150q-53 0 -154 103q-11 11 -23 26t-18 20.5t-11 5.5t-11 -6t-18 -20t-23 -25q-100 -104 -147 -104q-12 0 -20.5 8t-8.5 20q0 16 24 44q66 92 126 224q12 24 20.5 37.5t24.5 24.5t37 11q51 0 84 -73q54 -121 124 -224q23 -30 23 -44q0 -12 -8.5 -20t-20.5 -8z
M1103 707v-476q0 -39 15 -65t46 -26q16 0 32 5.5t22 5.5t11.5 -8t5.5 -24q0 -53 -47 -93t-112 -40q-40 0 -70.5 11t-49.5 30.5t-29.5 36.5t-19.5 39q-8 19 -18 19q-5 0 -28 -23q-20 -18 -28 -25t-40 -29t-60 -33t-75 -21.5t-98 -10.5q-90 0 -158 31.5t-108 87.5t-59.5 126
t-19.5 153q0 94 9.5 240.5t9.5 159.5q0 40 -8 61.5t-27 40.5q-9 8 -30.5 19.5t-34.5 23.5t-13 30q0 44 69 53q74 9 140.5 22t85.5 13q53 0 53 -54q0 -24 -12.5 -93t-25 -188t-12.5 -266q0 -322 226 -322q120 0 191 79.5t71 231.5v332q0 50 -12.5 79t-47.5 50q-4 3 -12.5 8.5
t-13 8.5t-11 8.5t-10 10.5t-6 12t-2.5 15q0 43 60 51q59 6 134 21.5t91 15.5q24 0 36.5 -14.5t12.5 -38.5q0 -12 -11.5 -94.5t-11.5 -186.5z" />
    <glyph glyph-name="udieresis" unicode="&#xfc;" 
d="M512 1453q50 0 82.5 -31t32.5 -81q0 -61 -43.5 -102.5t-105.5 -41.5q-50 0 -79.5 30.5t-29.5 78.5q0 58 42 102.5t101 44.5zM874 1453q50 0 82.5 -31t32.5 -81q0 -61 -43 -102.5t-105 -41.5q-50 0 -80.5 30.5t-30.5 78.5q0 58 42 102.5t102 44.5zM1103 707v-476
q0 -39 15 -65t46 -26q16 0 32 5.5t22 5.5t11.5 -8t5.5 -24q0 -53 -47 -93t-112 -40q-40 0 -70.5 11t-49.5 30.5t-29.5 36.5t-19.5 39q-8 19 -18 19q-5 0 -28 -23q-20 -18 -28 -25t-40 -29t-60 -33t-75 -21.5t-98 -10.5q-90 0 -158 31.5t-108 87.5t-59.5 126t-19.5 153
q0 94 9.5 240.5t9.5 159.5q0 40 -8 61.5t-27 40.5q-9 8 -30.5 19.5t-34.5 23.5t-13 30q0 44 69 53q74 9 140.5 22t85.5 13q53 0 53 -54q0 -24 -12.5 -93t-25 -188t-12.5 -266q0 -322 226 -322q120 0 191 79.5t71 231.5v332q0 50 -12.5 79t-47.5 50q-4 3 -12.5 8.5t-13 8.5
t-11 8.5t-10 10.5t-6 12t-2.5 15q0 43 60 51q59 6 134 21.5t91 15.5q24 0 36.5 -14.5t12.5 -38.5q0 -12 -11.5 -94.5t-11.5 -186.5z" />
    <glyph glyph-name="yacute" unicode="&#xfd;" horiz-adv-x="1081" 
d="M500 1231q55 98 84 183q8 26 15 42t19.5 35.5t31.5 29.5t44 10q39 0 61 -25.5t22 -60.5q0 -55 -51 -124q-46 -65 -113 -117.5t-99 -52.5q-36 0 -36 31q0 9 22 49zM944 802q-26 -61 -114 -295.5t-143 -361.5q-33 -75 -50.5 -115t-46 -101.5t-46.5 -94t-44.5 -78t-46.5 -69
t-47 -51.5t-52 -41t-55 -22t-62 -9q-70 0 -116.5 42t-46.5 108q0 59 34.5 101.5t80.5 42.5q40 0 59 -45q14 -34 29 -52.5t38 -18.5q38 0 94 80t56 137q0 14 -11.5 52.5t-32.5 94t-44 113.5t-52 128t-50 119.5t-44.5 105t-29.5 68.5q-4 9 -18 43t-20.5 49t-20 45t-23 47
t-22 38t-24.5 35t-24 22q-17 13 -23.5 19t-15 19.5t-8.5 27.5q0 46 52 46q22 0 65.5 -2.5t67.5 -2.5q21 0 76.5 2.5t79.5 2.5q30 0 45 -9.5t15 -39.5q0 -13 -15.5 -29.5t-31.5 -37t-16 -45.5q0 -30 20.5 -93t86.5 -230q125 -323 139 -323q23 0 139 345q77 223 77 291
q0 25 -12 44.5t-26.5 29.5t-26.5 23.5t-12 28.5q0 21 12 33t33 12q17 0 67.5 -2.5t65.5 -2.5q19 0 62 2.5t54 2.5q47 0 47 -41q0 -19 -11 -34t-27.5 -27.5t-40 -45.5t-43.5 -81z" />
    <glyph glyph-name="thorn" unicode="&#xfe;" horiz-adv-x="1161" 
d="M191 -190l3 1440q0 55 -71 79q-41 17 -41 42q0 22 17.5 33.5t68.5 30.5q7 3 11 4q36 14 73 32t57 26t37 8q52 0 52 -59q0 -10 -6.5 -107t-6.5 -204v-214q0 -56 13 -56q6 0 22.5 19t44 46t64 54t93 46t119.5 19q180 0 290 -137t110 -372q0 -132 -35.5 -239.5t-98 -177
t-145.5 -106.5t-180 -37q-63 0 -117.5 19.5t-83 43.5t-49.5 43.5t-26 19.5q-18 0 -18 -60v-247q0 -32 14 -55t28 -32t37 -20q5 -2 7 -3l13 -6.5t14.5 -7.5t12 -7t11.5 -8t8 -8.5t6.5 -11.5t1.5 -13q0 -44 -66 -44q-16 0 -76.5 2t-90.5 2q-28 0 -84 -2t-85 -2q-59 0 -59 41
q0 12 6.5 22.5t11.5 15t20 14.5l15 9q35 26 46.5 54t11.5 71zM669 910q-54 0 -103.5 -24t-90 -71t-65 -125.5t-24.5 -178.5q0 -211 77 -310t197 -99q118 0 195 105t77 301t-72.5 299t-190.5 103z" />
    <glyph glyph-name="ydieresis" unicode="&#xff;" horiz-adv-x="1081" 
d="M401 1453q50 0 82.5 -31t32.5 -81q0 -61 -43 -102.5t-105 -41.5q-50 0 -80 30.5t-30 78.5q0 58 42 102.5t101 44.5zM764 1453q50 0 82.5 -31t32.5 -81q0 -61 -43.5 -102.5t-105.5 -41.5q-50 0 -80 30.5t-30 78.5q0 58 42 102.5t102 44.5zM944 802q-26 -61 -114 -295.5
t-143 -361.5q-33 -75 -50.5 -115t-46 -101.5t-46.5 -94t-44.5 -78t-46.5 -69t-47 -51.5t-52 -41t-55 -22t-62 -9q-70 0 -116.5 42t-46.5 108q0 59 34.5 101.5t80.5 42.5q40 0 59 -45q14 -34 29 -52.5t38 -18.5q38 0 94 80t56 137q0 14 -11.5 52.5t-32.5 94t-44 113.5
t-52 128t-50 119.5t-44.5 105t-29.5 68.5q-4 9 -18 43t-20.5 49t-20 45t-23 47t-22 38t-24.5 35t-24 22q-17 13 -23.5 19t-15 19.5t-8.5 27.5q0 46 52 46q22 0 65.5 -2.5t67.5 -2.5q21 0 76.5 2.5t79.5 2.5q30 0 45 -9.5t15 -39.5q0 -13 -15.5 -29.5t-31.5 -37t-16 -45.5
q0 -30 20.5 -93t86.5 -230q125 -323 139 -323q23 0 139 345q77 223 77 291q0 25 -12 44.5t-26.5 29.5t-26.5 23.5t-12 28.5q0 21 12 33t33 12q17 0 67.5 -2.5t65.5 -2.5q19 0 62 2.5t54 2.5q47 0 47 -41q0 -19 -11 -34t-27.5 -27.5t-40 -45.5t-43.5 -81z" />
    <glyph glyph-name="Amacron" unicode="&#x100;" horiz-adv-x="1348" 
d="M893 1541h-496q-45 0 -45 42q0 46 19 81q16 34 87 34h496q46 0 46 -39q0 -44 -20 -82q-19 -36 -87 -36zM135 205l375 973q32 87 42 151q6 30 62 61t98 31q27 0 40 -16t27 -53l439 -1140q27 -71 86 -110q46 -31 46 -57q0 -30 -22 -40t-73 -10q-18 0 -67 2.5t-90 2.5
t-87 -2.5t-67 -2.5q-68 0 -68 48q0 16 17 30.5t37 25.5t37 30.5t17 44.5q0 13 -27 93.5t-48 118.5q-16 28 -48 28h-441q-39 0 -55 -24q-23 -36 -51.5 -116.5t-28.5 -103.5q0 -27 16 -47t34.5 -29.5t34.5 -23.5t16 -30q0 -45 -69 -45q-17 0 -77.5 2.5t-79.5 2.5
q-20 0 -51 -2.5t-48 -2.5q-53 0 -53 45q0 17 14 31.5t32.5 26.5t42 40t38.5 67zM438 545h390q20 0 20 15q0 23 -76.5 235.5t-116.5 297.5q-9 22 -19 22q-9 0 -18 -21q-39 -81 -119 -298.5t-80 -235.5q0 -15 19 -15z" />
    <glyph glyph-name="amacron" unicode="&#x101;" horiz-adv-x="1096" 
d="M801 1217h-426q-45 0 -45 41q0 44 18 76q8 17 27 24t58 7h428q44 0 44 -38q0 -45 -18 -77q-19 -33 -86 -33zM451 545q59 15 139.5 25t134.5 16t63 12q19 14 19 80q0 122 -54 198t-167 76q-87 0 -135 -53t-65 -132q-8 -37 -24.5 -54.5t-49.5 -17.5q-40 0 -72.5 29.5
t-32.5 85.5q0 92 106 165.5t277 73.5q200 0 308.5 -111.5t108.5 -300.5q0 -75 -6 -222.5t-6 -183.5q0 -39 15 -65t46 -26q16 0 31 5.5t22 5.5q3 0 6.5 -3t6.5 -10.5t3 -18.5q0 -53 -46 -93t-112 -40q-125 0 -165 112q-5 18 -17 18q-3 0 -7 -3.5t-8.5 -9.5t-7.5 -9
q-54 -54 -134.5 -86.5t-171.5 -32.5q-134 0 -221.5 68t-87.5 186q0 117 81 197.5t223 118.5zM806 409q0 76 -20 76q-161 0 -258 -28q-89 -27 -132 -80t-43 -115q0 -72 49.5 -112t126.5 -40q121 0 199 81t78 218z" />
    <glyph glyph-name="Abreve" unicode="&#x102;" horiz-adv-x="1348" 
d="M663 1477q-75 0 -131.5 25t-85.5 65t-42.5 80t-13.5 80q0 59 30 59q3 0 5.5 -0.5t5 -2t4.5 -3t4 -4.5t3.5 -5.5t4 -7.5l4 -8t5 -9.5t5.5 -10.5q67 -109 202 -109q134 0 199 109q10 21 14.5 29.5t12 15t16.5 6.5q31 0 31 -59q0 -31 -7.5 -62.5t-27 -66t-49 -61
t-78.5 -43.5t-111 -17zM135 205l375 973q32 87 42 151q6 30 62 61t98 31q27 0 40 -16t27 -53l439 -1140q27 -71 86 -110q46 -31 46 -57q0 -30 -22 -40t-73 -10q-18 0 -67 2.5t-90 2.5t-87 -2.5t-67 -2.5q-68 0 -68 48q0 16 17 30.5t37 25.5t37 30.5t17 44.5q0 13 -27 93.5
t-48 118.5q-16 28 -48 28h-441q-39 0 -55 -24q-23 -36 -51.5 -116.5t-28.5 -103.5q0 -27 16 -47t34.5 -29.5t34.5 -23.5t16 -30q0 -45 -69 -45q-17 0 -77.5 2.5t-79.5 2.5q-20 0 -51 -2.5t-48 -2.5q-53 0 -53 45q0 17 14 31.5t32.5 26.5t42 40t38.5 67zM438 545h390
q20 0 20 15q0 23 -76.5 235.5t-116.5 297.5q-9 22 -19 22q-9 0 -18 -21q-39 -81 -119 -298.5t-80 -235.5q0 -15 19 -15z" />
    <glyph glyph-name="abreve" unicode="&#x103;" horiz-adv-x="1096" 
d="M600 1164q-55 0 -99 18t-71 46t-45 64t-25 68.5t-7 63.5q0 60 28 60q16 0 36 -48l3 -6q60 -115 180 -115q122 0 180 115q19 45 29 51q4 3 10 3q29 0 29 -60q0 -31 -7 -63.5t-25.5 -68.5t-45.5 -64t-71 -46t-99 -18zM451 545q59 15 139.5 25t134.5 16t63 12q19 14 19 80
q0 122 -54 198t-167 76q-87 0 -135 -53t-65 -132q-8 -37 -24.5 -54.5t-49.5 -17.5q-40 0 -72.5 29.5t-32.5 85.5q0 92 106 165.5t277 73.5q200 0 308.5 -111.5t108.5 -300.5q0 -75 -6 -222.5t-6 -183.5q0 -39 15 -65t46 -26q16 0 31 5.5t22 5.5q3 0 6.5 -3t6.5 -10.5
t3 -18.5q0 -53 -46 -93t-112 -40q-125 0 -165 112q-5 18 -17 18q-3 0 -7 -3.5t-8.5 -9.5t-7.5 -9q-54 -54 -134.5 -86.5t-171.5 -32.5q-134 0 -221.5 68t-87.5 186q0 117 81 197.5t223 118.5zM806 409q0 76 -20 76q-161 0 -258 -28q-89 -27 -132 -80t-43 -115
q0 -72 49.5 -112t126.5 -40q121 0 199 81t78 218z" />
    <glyph glyph-name="Aogonek" unicode="&#x104;" horiz-adv-x="1348" 
d="M1184 -1q-72 0 -136 -69.5t-64 -159.5q0 -48 28.5 -83t79.5 -35q50 0 83 25q4 3 9.5 7t8.5 6.5t7.5 4t8.5 1.5q9 0 15.5 -9t6.5 -20q0 -38 -59 -80t-146 -42q-97 0 -156.5 55t-59.5 139q0 116 129 247q36 37 47 61t11 61q0 35 -30 130.5t-57 144.5q-17 31 -55 31h-435
q-39 0 -55 -24q-23 -36 -51.5 -116.5t-28.5 -103.5q0 -27 16 -47t34.5 -29.5t34.5 -23.5t16 -30q0 -45 -69 -45q-17 0 -77.5 2.5t-79.5 2.5q-20 0 -51 -2.5t-48 -2.5q-53 0 -53 45q0 17 14 31.5t32.5 26.5t42 40t38.5 67l375 973q32 87 42 151q6 30 62 61t98 31q27 0 40 -16
t27 -53l439 -1140q27 -71 86 -110q46 -31 46 -57q0 -50 -70 -50q-14 0 -46 2t-50 2zM438 545h390q20 0 20 15q0 23 -76.5 235.5t-116.5 297.5q-9 22 -19 22q-9 0 -18 -21q-39 -81 -119 -298.5t-80 -235.5q0 -15 19 -15z" />
    <glyph glyph-name="aogonek" unicode="&#x105;" horiz-adv-x="1096" 
d="M878 5q-53 25 -76 93q-5 18 -17 18q-3 0 -7 -3.5t-8.5 -9.5t-7.5 -9q-54 -54 -134.5 -86.5t-171.5 -32.5q-134 0 -221.5 68t-87.5 186q0 117 81 197.5t223 118.5q59 15 139.5 25t134.5 16t63 12q19 14 19 80q0 122 -54 198t-167 76q-87 0 -135 -53t-65 -132
q-8 -37 -24.5 -54.5t-49.5 -17.5q-40 0 -72.5 29.5t-32.5 85.5q0 92 106 165.5t277 73.5q200 0 308.5 -111.5t108.5 -300.5q0 -75 -6 -222.5t-6 -183.5q0 -39 15 -65t46 -26q16 0 31 5.5t22 5.5q3 0 6.5 -3t6.5 -10.5t3 -18.5q0 -34 -18.5 -60.5t-60.5 -56.5
q-40 -28 -58 -41.5t-50 -42t-47 -49.5t-27.5 -52t-12.5 -63q0 -46 26 -76t74 -30t80 25q27 20 34 20q20 0 20 -29q0 -37 -54.5 -78t-135.5 -41q-93 0 -149 51t-56 135q0 126 164 233q33 23 33 30q0 6 -9 11zM806 409q0 76 -20 76q-161 0 -258 -28q-89 -27 -132 -80t-43 -115
q0 -72 49.5 -112t126.5 -40q121 0 199 81t78 218z" />
    <glyph glyph-name="Cacute" unicode="&#x106;" horiz-adv-x="1370" 
d="M685 1568q83 63 154 147q33 41 63.5 63t67.5 22q42 0 68.5 -25t26.5 -65q0 -69 -109 -135q-70 -42 -147.5 -70.5t-123.5 -28.5q-44 0 -44 32q0 24 44 60zM141 685q0 148 44 281t125 236t206 164t276 61q72 0 138.5 -15.5t113 -31.5t72.5 -16q21 0 53 9t46 9q9 0 16.5 -2
t13.5 -7t10.5 -10.5t8.5 -16t7 -20t7 -25.5t6.5 -29t7 -34.5t8.5 -38.5q10 -45 20 -85.5t13.5 -56.5t3.5 -27q0 -23 -12 -36t-31 -13q-12 0 -23 5t-21.5 16.5t-17 20.5t-19 28.5t-19.5 28.5q-73 106 -177.5 168.5t-217.5 62.5q-128 0 -226 -76.5t-148 -202t-50 -276.5
q0 -173 60.5 -311t175.5 -218.5t265 -80.5q84 0 157 25.5t125 69.5t88.5 92.5t60.5 103.5q24 49 45 49q30 0 30 -57q0 -90 -57 -183q-70 -117 -205.5 -199t-322.5 -82q-151 0 -276 57.5t-207.5 156t-127.5 229t-45 277.5z" />
    <glyph glyph-name="cacute" unicode="&#x107;" horiz-adv-x="1022" 
d="M512 1231q55 98 84 183q11 34 21 55.5t33.5 41.5t56.5 20q39 0 61 -25.5t22 -60.5q0 -54 -52 -124q-46 -65 -113 -117.5t-99 -52.5q-36 0 -36 31q0 9 22 49zM111 493q0 150 61 275.5t179.5 203t271.5 77.5q155 0 256 -78.5t101 -185.5q0 -64 -42 -100.5t-95 -36.5
q-14 0 -22 2.5t-13.5 12.5t-7.5 16t-5.5 26.5t-6.5 31.5q-21 92 -73 147t-135 55q-115 0 -193.5 -104t-78.5 -266q0 -180 96 -297.5t260 -117.5q56 0 104 15t79 35t58.5 51t40.5 52t27 48q18 30 34 30q24 0 24 -51q0 -53 -28.5 -113.5t-80 -115.5t-136.5 -91t-185 -36
q-215 0 -352.5 144.5t-137.5 370.5z" />
    <glyph glyph-name="Ccircumflex" unicode="&#x108;" horiz-adv-x="1370" 
d="M1037 1476q-68 0 -182 79q-5 4 -12.5 9.5t-11 8t-9 6t-9 5.5t-7.5 4t-7 2.5t-6 0.5t-6 -0.5t-6.5 -2.5t-6.5 -3.5t-8 -5.5t-8.5 -6.5t-11 -8t-12.5 -9.5q-43 -31 -95 -55t-82 -24q-15 0 -25 8.5t-10 22.5t27 43q64 69 150 183q17 23 28.5 35t30 22t40.5 10q29 0 50 -16
t48 -51q64 -86 151 -181q27 -27 27 -46q0 -14 -11 -22t-26 -8zM141 685q0 148 44 281t125 236t206 164t276 61q72 0 138.5 -15.5t113 -31.5t72.5 -16q21 0 53 9t46 9q9 0 16.5 -2t13.5 -7t10.5 -10.5t8.5 -16t7 -20t7 -25.5t6.5 -29t7 -34.5t8.5 -38.5q10 -45 20 -85.5
t13.5 -56.5t3.5 -27q0 -23 -12 -36t-31 -13q-12 0 -23 5t-21.5 16.5t-17 20.5t-19 28.5t-19.5 28.5q-73 106 -177.5 168.5t-217.5 62.5q-128 0 -226 -76.5t-148 -202t-50 -276.5q0 -173 60.5 -311t175.5 -218.5t265 -80.5q84 0 157 25.5t125 69.5t88.5 92.5t60.5 103.5
q24 49 45 49q30 0 30 -57q0 -90 -57 -183q-70 -117 -205.5 -199t-322.5 -82q-151 0 -276 57.5t-207.5 156t-127.5 229t-45 277.5z" />
    <glyph glyph-name="ccircumflex" unicode="&#x109;" horiz-adv-x="1022" 
d="M800 1150q-53 0 -154 103q-11 11 -23 26t-18 20.5t-11 5.5t-11 -6t-18 -20t-23 -25q-100 -104 -147 -104q-12 0 -20 8t-8 20q0 17 23 44q66 92 126 224q12 24 20.5 37.5t24.5 24.5t37 11q51 0 84 -73q54 -121 124 -224q23 -30 23 -44q0 -12 -8.5 -20t-20.5 -8zM111 493
q0 150 61 275.5t179.5 203t271.5 77.5q155 0 256 -78.5t101 -185.5q0 -64 -42 -100.5t-95 -36.5q-14 0 -22 2.5t-13.5 12.5t-7.5 16t-5.5 26.5t-6.5 31.5q-21 92 -73 147t-135 55q-115 0 -193.5 -104t-78.5 -266q0 -180 96 -297.5t260 -117.5q56 0 104 15t79 35t58.5 51
t40.5 52t27 48q18 30 34 30q24 0 24 -51q0 -53 -28.5 -113.5t-80 -115.5t-136.5 -91t-185 -36q-215 0 -352.5 144.5t-137.5 370.5z" />
    <glyph glyph-name="Cdotaccent" unicode="&#x10a;" horiz-adv-x="1370" 
d="M838 1780q55 0 91.5 -32.5t36.5 -85.5q0 -64 -48 -108t-116 -44q-56 0 -89.5 31.5t-33.5 82.5q0 61 47 108.5t112 47.5zM141 685q0 148 44 281t125 236t206 164t276 61q72 0 138.5 -15.5t113 -31.5t72.5 -16q21 0 53 9t46 9q9 0 16.5 -2t13.5 -7t10.5 -10.5t8.5 -16
t7 -20t7 -25.5t6.5 -29t7 -34.5t8.5 -38.5q10 -45 20 -85.5t13.5 -56.5t3.5 -27q0 -23 -12 -36t-31 -13q-12 0 -23 5t-21.5 16.5t-17 20.5t-19 28.5t-19.5 28.5q-73 106 -177.5 168.5t-217.5 62.5q-128 0 -226 -76.5t-148 -202t-50 -276.5q0 -173 60.5 -311t175.5 -218.5
t265 -80.5q84 0 157 25.5t125 69.5t88.5 92.5t60.5 103.5q24 49 45 49q30 0 30 -57q0 -90 -57 -183q-70 -117 -205.5 -199t-322.5 -82q-151 0 -276 57.5t-207.5 156t-127.5 229t-45 277.5z" />
    <glyph glyph-name="cdotaccent" unicode="&#x10b;" horiz-adv-x="1022" 
d="M621 1458q52 0 85.5 -32t33.5 -84q0 -63 -45 -105.5t-109 -42.5q-53 0 -84.5 31t-31.5 81q0 60 44.5 106t106.5 46zM111 493q0 150 61 275.5t179.5 203t271.5 77.5q155 0 256 -78.5t101 -185.5q0 -64 -42 -100.5t-95 -36.5q-14 0 -22 2.5t-13.5 12.5t-7.5 16t-5.5 26.5
t-6.5 31.5q-21 92 -73 147t-135 55q-115 0 -193.5 -104t-78.5 -266q0 -180 96 -297.5t260 -117.5q56 0 104 15t79 35t58.5 51t40.5 52t27 48q18 30 34 30q24 0 24 -51q0 -53 -28.5 -113.5t-80 -115.5t-136.5 -91t-185 -36q-215 0 -352.5 144.5t-137.5 370.5z" />
    <glyph glyph-name="Ccaron" unicode="&#x10c;" horiz-adv-x="1370" 
d="M553 1800q67 0 181 -79q50 -35 63 -35q4 0 7.5 1t6.5 2.5t8.5 5t9 6.5t12 9.5t14.5 10.5q44 31 96 55t81 24q15 0 25.5 -8.5t10.5 -22.5t-27 -43q-77 -83 -150 -182q-20 -25 -29.5 -35.5t-28 -21.5t-40.5 -11q-30 0 -51.5 17t-47.5 51q-64 86 -150 180q-28 28 -28 46
q0 14 11 22t26 8zM141 685q0 148 44 281t125 236t206 164t276 61q72 0 138.5 -15.5t113 -31.5t72.5 -16q21 0 53 9t46 9q9 0 16.5 -2t13.5 -7t10.5 -10.5t8.5 -16t7 -20t7 -25.5t6.5 -29t7 -34.5t8.5 -38.5q10 -45 20 -85.5t13.5 -56.5t3.5 -27q0 -23 -12 -36t-31 -13
q-12 0 -23 5t-21.5 16.5t-17 20.5t-19 28.5t-19.5 28.5q-73 106 -177.5 168.5t-217.5 62.5q-128 0 -226 -76.5t-148 -202t-50 -276.5q0 -173 60.5 -311t175.5 -218.5t265 -80.5q84 0 157 25.5t125 69.5t88.5 92.5t60.5 103.5q24 49 45 49q30 0 30 -57q0 -90 -57 -183
q-70 -117 -205.5 -199t-322.5 -82q-151 0 -276 57.5t-207.5 156t-127.5 229t-45 277.5z" />
    <glyph glyph-name="ccaron" unicode="&#x10d;" horiz-adv-x="1022" 
d="M391 1519q52 0 154 -104q10 -11 22.5 -25.5t18.5 -20t11 -5.5t11 5.5t18.5 20t22.5 24.5q99 105 147 105q12 0 20 -7.5t8 -19.5q0 -17 -23 -45q-64 -89 -126 -224q-12 -24 -20.5 -37t-24.5 -24.5t-37 -11.5q-51 0 -84 73q-56 125 -124 224q-24 31 -24 45q0 11 9 19t21 8z
M111 493q0 150 61 275.5t179.5 203t271.5 77.5q155 0 256 -78.5t101 -185.5q0 -64 -42 -100.5t-95 -36.5q-14 0 -22 2.5t-13.5 12.5t-7.5 16t-5.5 26.5t-6.5 31.5q-21 92 -73 147t-135 55q-115 0 -193.5 -104t-78.5 -266q0 -180 96 -297.5t260 -117.5q56 0 104 15t79 35
t58.5 51t40.5 52t27 48q18 30 34 30q24 0 24 -51q0 -53 -28.5 -113.5t-80 -115.5t-136.5 -91t-185 -36q-215 0 -352.5 144.5t-137.5 370.5z" />
    <glyph glyph-name="Dcaron" unicode="&#x10e;" horiz-adv-x="1481" 
d="M551 1800q67 0 181 -79q50 -35 63 -35q4 0 7.5 1t6.5 2.5t8.5 5t9 6.5t12 9.5t14.5 10.5q44 31 96 55t81 24q15 0 25.5 -8.5t10.5 -22.5t-27 -43q-77 -83 -150 -182q-20 -25 -29.5 -35.5t-28 -21.5t-40.5 -11q-30 0 -51.5 17t-47.5 51q-64 86 -150 180q-28 28 -28 46
q0 14 11 22t26 8zM433 1393q57 0 152 3t150 3q121 0 231 -23.5t212 -76.5t176 -132t118.5 -197.5t44.5 -264.5q0 -330 -187 -520.5t-501 -190.5q-58 0 -191 3.5t-205 3.5q-27 0 -83 -2.5t-74 -2.5q-65 0 -65 41q0 18 15 31.5t34 22.5t36.5 29t21.5 50q9 65 9 541
q0 439 -2 473q-2 33 -14.5 57t-27.5 37t-30.5 23.5t-25.5 22.5t-10 29q0 45 62 45q18 0 73 -2.5t81 -2.5zM536 1166v-934q0 -50 19.5 -73t71.5 -32t166 -9q102 0 185.5 30t139.5 81t94 122.5t55 151.5t17 170q0 130 -31 236t-96.5 189.5t-178.5 130t-265 46.5
q-61 0 -96.5 -5.5t-53.5 -20.5t-22.5 -32.5t-4.5 -50.5z" />
    <glyph glyph-name="dcaron" unicode="&#x10f;" horiz-adv-x="1359" 
d="M1041 -14q-60 0 -101 26t-66 87q-9 23 -20 23q-4 0 -9 -4t-15.5 -15t-19.5 -19q-111 -104 -278 -104q-81 0 -154 31.5t-131.5 92.5t-93 160t-34.5 224q0 136 36 244.5t97.5 176.5t141 104t169.5 36q68 0 126 -22.5t88.5 -49.5t52 -49.5t25.5 -22.5q16 0 16 71v271
q0 60 -69 82q-45 16 -45 42q0 9 4 16.5t8.5 12.5t15.5 11t19 9t24.5 9t25.5 10q34 14 74 32.5t59.5 26t35.5 7.5q52 0 52 -59q0 -14 -4 -103t-4 -215v-897q0 -39 15 -65t46 -26q16 0 32 5.5t22 5.5t11.5 -8t5.5 -24q0 -53 -46.5 -93t-111.5 -40zM1208 1124q6 47 12 148
t10 128q15 105 93 105q35 0 56 -26.5t21 -77.5q0 -70 -42 -178q-43 -113 -72 -161t-54 -48q-31 0 -31 38q0 16 7 72zM606 123q122 0 195 96.5t73 297.5q0 90 -16.5 162t-43 117.5t-62.5 76t-73 43t-77 12.5q-118 0 -196 -105t-78 -299q0 -186 73 -293.5t205 -107.5z" />
    <glyph glyph-name="Dcroat" unicode="&#x110;" horiz-adv-x="1481" 
d="M342 1393q57 0 152 3t150 3q121 0 231 -23.5t211.5 -76.5t176 -132t118.5 -197.5t44 -264.5q0 -330 -186.5 -520.5t-500.5 -190.5q-58 0 -191 3.5t-205 3.5q-27 0 -83 -2.5t-74 -2.5q-65 0 -65 41q0 18 15 31.5t34 22.5t36.5 29t21.5 50q6 49 9 478h-167q-40 0 -40 36
q0 38 17 70q16 27 75 27h115q0 313 -3 403q-2 33 -14 57t-27.5 37t-30.5 23.5t-25 22.5t-10 29q0 45 61 45q18 0 73.5 -2.5t81.5 -2.5zM444 1166v-385h289q39 0 39 -33q0 -46 -17 -70q-16 -30 -75 -30h-236v-416q0 -50 19.5 -73t71.5 -32t166 -9q127 0 224 45t154 123.5
t85.5 176t28.5 210.5q0 130 -31 236t-96.5 189.5t-178.5 130t-265 46.5q-81 0 -119.5 -12t-48.5 -32.5t-10 -64.5z" />
    <glyph glyph-name="dcroat" unicode="&#x111;" horiz-adv-x="1188" 
d="M1162 1109h-95v-878q0 -39 15 -65t46 -26q16 0 32 5.5t22 5.5t11.5 -8t5.5 -24q0 -53 -46.5 -93t-111.5 -40q-63 0 -103 26.5t-64 86.5q-8 23 -20 23q-4 0 -8.5 -4t-15.5 -14.5t-20 -18.5q-112 -105 -278 -105q-81 0 -154 31.5t-131.5 91t-93 156.5t-34.5 218
q0 132 35 236t96 169t140.5 99t172.5 34q68 0 126 -20.5t88.5 -45.5t52 -45.5t25.5 -20.5q16 0 16 69v157h-246q-37 0 -37 33t15 54q18 23 70 23h198v41q0 55 -69 75q-45 16 -45 41q0 6 1.5 11.5t4.5 10t6.5 8t10 7.5t11 6t13.5 5.5t14.5 5.5t17 6t17.5 6q40 15 79.5 32.5
t57 24t33.5 6.5q52 0 52 -58q0 -22 -3.5 -86.5t-4.5 -141.5h144q38 0 38 -31q0 -35 -16 -55q-19 -24 -71 -24zM606 123q121 0 194.5 94t73.5 287q0 107 -24.5 186.5t-65.5 122.5t-86.5 63t-94.5 20q-120 0 -197.5 -98t-77.5 -287q0 -178 73 -283t205 -105z" />
    <glyph glyph-name="Emacron" unicode="&#x112;" horiz-adv-x="1262" 
d="M961 1541h-496q-45 0 -45 42q0 48 18 81q16 34 87 34h497q46 0 46 -39q0 -44 -20 -82q-19 -36 -87 -36zM977 857v-261q0 -40 -8 -58t-30 -18q-14 0 -25 9t-16.5 18t-11.5 25q-17 37 -28 52.5t-41 30.5t-78 19t-136 4q-40 0 -54 -16t-14 -55v-378q0 -31 5.5 -48.5t17 -30
t41.5 -17.5t65.5 -7t103.5 -2q87 0 143.5 6t99.5 19.5t71.5 42t50 64.5t44.5 97q27 70 58 70q20 0 29 -16.5t9 -56.5q0 -23 -16.5 -147.5t-17.5 -143.5q-3 -64 -83 -64q-11 0 -59 1t-132.5 2.5t-183.5 1.5q-169 0 -332.5 -2.5t-172.5 -2.5q-65 0 -65 42q0 18 15 31.5t34 22
t36.5 29t21.5 49.5q9 64 9 542q0 439 -3 473q-3 40 -20.5 67.5t-36.5 38.5t-34.5 27t-15.5 36q0 45 62 45q15 0 64.5 -1t149.5 -2.5t239 -1.5q112 0 199 1.5t131 2.5t52 1q36 0 51.5 -14.5t23.5 -61.5q4 -19 14 -93.5t16 -109.5q11 -55 11 -83q0 -22 -11.5 -33t-29.5 -11
q-7 0 -13.5 2.5t-12 8t-9.5 10t-9 14.5t-7 14.5t-7.5 17t-6.5 14.5q-20 48 -32.5 74t-33.5 52.5t-42 37.5t-58.5 21t-82.5 12.5t-115 2.5q-104 0 -148.5 -7.5t-60.5 -28t-16 -68.5v-297q0 -41 12.5 -55.5t52.5 -14.5q92 0 145 5t83 22t40.5 32.5t26.5 53.5q17 34 39 34
q23 0 33 -20.5t10 -71.5z" />
    <glyph glyph-name="emacron" unicode="&#x113;" horiz-adv-x="1030" 
d="M770 1217h-426q-45 0 -45 41q0 44 18 76q15 31 85 31h428q44 0 44 -38q0 -45 -18 -77q-19 -33 -86 -33zM950 561q-84 -53 -253.5 -78.5t-337.5 -30.5q-25 0 -25 -19q0 -40 18 -87.5t53 -95.5t100 -80t146 -32q223 0 322 190q19 30 36 30q23 0 23 -48q0 -36 -16 -79
t-51.5 -88t-84.5 -81.5t-122 -60t-157 -23.5q-218 0 -353 143t-135 369q0 150 63 277t181.5 204.5t267.5 77.5q176 0 283.5 -107t107.5 -265q0 -75 -66 -116zM824 705q0 99 -62.5 165.5t-154.5 66.5q-122 0 -206 -102t-84 -236q0 -42 30 -42q89 0 231 21.5t205 57.5
q41 23 41 69z" />
    <glyph glyph-name="Ebreve" unicode="&#x114;" horiz-adv-x="1262" 
d="M743 1477q-61 0 -110 17t-78.5 43.5t-49 61t-27 66t-7.5 62.5q0 59 30 59q3 0 5.5 -0.5t5 -2t4.5 -3t4 -4.5t3.5 -5.5t4 -7.5l4 -8t5 -9.5t5.5 -10.5q67 -109 201 -109q135 0 200 109q10 21 14.5 29.5t12 15t16.5 6.5q31 0 31 -59q0 -40 -13.5 -80t-42.5 -80t-85.5 -65
t-132.5 -25zM977 857v-261q0 -40 -8 -58t-30 -18q-14 0 -25 9t-16.5 18t-11.5 25q-17 37 -28 52.5t-41 30.5t-78 19t-136 4q-40 0 -54 -16t-14 -55v-378q0 -31 5.5 -48.5t17 -30t41.5 -17.5t65.5 -7t103.5 -2q87 0 143.5 6t99.5 19.5t71.5 42t50 64.5t44.5 97q27 70 58 70
q20 0 29 -16.5t9 -56.5q0 -23 -16.5 -147.5t-17.5 -143.5q-3 -64 -83 -64q-11 0 -59 1t-132.5 2.5t-183.5 1.5q-169 0 -332.5 -2.5t-172.5 -2.5q-65 0 -65 42q0 18 15 31.5t34 22t36.5 29t21.5 49.5q9 64 9 542q0 439 -3 473q-3 40 -20.5 67.5t-36.5 38.5t-34.5 27t-15.5 36
q0 45 62 45q15 0 64.5 -1t149.5 -2.5t239 -1.5q112 0 199 1.5t131 2.5t52 1q36 0 51.5 -14.5t23.5 -61.5q4 -19 14 -93.5t16 -109.5q11 -55 11 -83q0 -22 -11.5 -33t-29.5 -11q-7 0 -13.5 2.5t-12 8t-9.5 10t-9 14.5t-7 14.5t-7.5 17t-6.5 14.5q-20 48 -32.5 74t-33.5 52.5
t-42 37.5t-58.5 21t-82.5 12.5t-115 2.5q-104 0 -148.5 -7.5t-60.5 -28t-16 -68.5v-297q0 -41 12.5 -55.5t52.5 -14.5q92 0 145 5t83 22t40.5 32.5t26.5 53.5q17 34 39 34q23 0 33 -20.5t10 -71.5z" />
    <glyph glyph-name="ebreve" unicode="&#x115;" horiz-adv-x="1030" 
d="M596 1164q-55 0 -99 18t-71 46t-45 64t-25 68.5t-7 63.5q0 60 28 60q16 0 36 -48l3 -6q60 -115 180 -115q122 0 180 115q19 45 29 51q4 3 10 3q29 0 29 -60q0 -31 -7 -63.5t-25.5 -68.5t-45.5 -64t-71 -46t-99 -18zM950 561q-84 -53 -253.5 -78.5t-337.5 -30.5
q-25 0 -25 -19q0 -40 18 -87.5t53 -95.5t100 -80t146 -32q223 0 322 190q19 30 36 30q23 0 23 -48q0 -36 -16 -79t-51.5 -88t-84.5 -81.5t-122 -60t-157 -23.5q-218 0 -353 143t-135 369q0 150 63 277t181.5 204.5t267.5 77.5q176 0 283.5 -107t107.5 -265q0 -75 -66 -116z
M824 705q0 99 -62.5 165.5t-154.5 66.5q-122 0 -206 -102t-84 -236q0 -42 30 -42q89 0 231 21.5t205 57.5q41 23 41 69z" />
    <glyph glyph-name="Edotaccent" unicode="&#x116;" horiz-adv-x="1262" 
d="M760 1780q55 0 91.5 -32.5t36.5 -85.5q0 -64 -48 -108t-116 -44q-56 0 -89.5 31.5t-33.5 82.5q0 61 47 108.5t112 47.5zM977 857v-261q0 -40 -8 -58t-30 -18q-14 0 -25 9t-16.5 18t-11.5 25q-17 37 -28 52.5t-41 30.5t-78 19t-136 4q-40 0 -54 -16t-14 -55v-378
q0 -31 5.5 -48.5t17 -30t41.5 -17.5t65.5 -7t103.5 -2q87 0 143.5 6t99.5 19.5t71.5 42t50 64.5t44.5 97q27 70 58 70q20 0 29 -16.5t9 -56.5q0 -23 -16.5 -147.5t-17.5 -143.5q-3 -64 -83 -64q-11 0 -59 1t-132.5 2.5t-183.5 1.5q-169 0 -332.5 -2.5t-172.5 -2.5
q-65 0 -65 42q0 18 15 31.5t34 22t36.5 29t21.5 49.5q9 64 9 542q0 439 -3 473q-3 40 -20.5 67.5t-36.5 38.5t-34.5 27t-15.5 36q0 45 62 45q15 0 64.5 -1t149.5 -2.5t239 -1.5q112 0 199 1.5t131 2.5t52 1q36 0 51.5 -14.5t23.5 -61.5q4 -19 14 -93.5t16 -109.5
q11 -55 11 -83q0 -22 -11.5 -33t-29.5 -11q-7 0 -13.5 2.5t-12 8t-9.5 10t-9 14.5t-7 14.5t-7.5 17t-6.5 14.5q-20 48 -32.5 74t-33.5 52.5t-42 37.5t-58.5 21t-82.5 12.5t-115 2.5q-104 0 -148.5 -7.5t-60.5 -28t-16 -68.5v-297q0 -41 12.5 -55.5t52.5 -14.5q92 0 145 5
t83 22t40.5 32.5t26.5 53.5q17 34 39 34q23 0 33 -20.5t10 -71.5z" />
    <glyph glyph-name="edotaccent" unicode="&#x117;" horiz-adv-x="1030" 
d="M614 1458q52 0 86 -32t34 -84q0 -63 -45 -105.5t-109 -42.5q-53 0 -84.5 31t-31.5 81q0 60 44 106t106 46zM950 561q-84 -53 -253.5 -78.5t-337.5 -30.5q-25 0 -25 -19q0 -40 18 -87.5t53 -95.5t100 -80t146 -32q223 0 322 190q19 30 36 30q23 0 23 -48q0 -36 -16 -79
t-51.5 -88t-84.5 -81.5t-122 -60t-157 -23.5q-218 0 -353 143t-135 369q0 150 63 277t181.5 204.5t267.5 77.5q176 0 283.5 -107t107.5 -265q0 -75 -66 -116zM824 705q0 99 -62.5 165.5t-154.5 66.5q-122 0 -206 -102t-84 -236q0 -42 30 -42q89 0 231 21.5t205 57.5
q41 23 41 69z" />
    <glyph glyph-name="Eogonek" unicode="&#x118;" horiz-adv-x="1262" 
d="M979 -24q12 7 12 14q0 3 -5 5t-27 3t-62.5 1.5t-115.5 0.5q-169 0 -332.5 -2.5t-172.5 -2.5q-65 0 -65 42q0 18 15 31.5t34 22t36.5 29t21.5 49.5q9 64 9 542q0 439 -3 473q-3 40 -20.5 67.5t-36.5 38.5t-34.5 27t-15.5 36q0 45 62 45q15 0 64.5 -1t149.5 -2.5t239 -1.5
q112 0 199 1.5t131 2.5t52 1q36 0 51.5 -14.5t23.5 -61.5q4 -19 14 -93.5t16 -109.5q11 -55 11 -83q0 -22 -11.5 -33t-29.5 -11q-7 0 -13.5 2.5t-12 8t-9.5 10t-9 14.5t-7 14.5t-7.5 17t-6.5 14.5q-20 48 -32.5 74t-33.5 52.5t-42 37.5t-58.5 21t-82.5 12.5t-115 2.5
q-104 0 -148.5 -7.5t-60.5 -28t-16 -68.5v-297q0 -41 12.5 -55.5t52.5 -14.5q92 0 145 5t83 22t40.5 32.5t26.5 53.5q17 34 39 34q23 0 33 -20.5t10 -71.5v-261q0 -40 -8 -58t-30 -18q-14 0 -25 9t-16.5 18t-11.5 25q-17 37 -28 52.5t-41 30.5t-78 19t-136 4q-40 0 -54 -16
t-14 -55v-378q0 -31 5.5 -48.5t17 -30t41.5 -17.5t65.5 -7t103.5 -2q87 0 143.5 6t99.5 19.5t71.5 42t50 64.5t44.5 97q27 70 58 70q20 0 29 -16.5t9 -56.5q0 -23 -16 -143t-18 -148q-1 -15 -4.5 -25t-13 -18t-16.5 -12t-26.5 -14t-31.5 -16q-82 -43 -128.5 -99t-46.5 -117
q0 -48 27 -77t78 -29q52 0 82 24q28 19 35 19q21 0 21 -28q0 -38 -57.5 -80t-143.5 -42q-97 0 -155.5 52t-58.5 137q0 71 52 135t127 107z" />
    <glyph glyph-name="eogonek" unicode="&#x119;" horiz-adv-x="1030" 
d="M592 -85q9 10 23 23t21.5 21t7.5 12q0 7 -48 7q-216 2 -349.5 144.5t-133.5 367.5q0 150 63 277t181.5 204.5t267.5 77.5q176 0 283.5 -107t107.5 -265q0 -75 -66 -116q-84 -53 -253.5 -78.5t-337.5 -30.5q-25 0 -25 -19q0 -40 18 -87.5t53 -95.5t100 -80t146 -32
q223 0 322 190q19 30 36 30q23 0 23 -48q0 -42 -19 -85t-56.5 -85.5t-67.5 -71.5t-76 -68q-151 -135 -151 -246q0 -47 26 -76.5t74 -29.5q47 0 79 25q4 3 9.5 7.5t8.5 6.5t7 4t8 2q9 0 15.5 -8.5t6.5 -20.5q0 -37 -55 -78t-136 -41q-93 0 -148.5 51t-55.5 135q0 95 91 184z
M824 705q0 99 -62.5 165.5t-154.5 66.5q-122 0 -206 -102t-84 -236q0 -42 30 -42q89 0 231 21.5t205 57.5q41 23 41 69z" />
    <glyph glyph-name="Ecaron" unicode="&#x11a;" horiz-adv-x="1262" 
d="M510 1800q67 0 181 -79q50 -35 63 -35q4 0 7.5 1t6.5 2.5t8.5 5t9 6.5t12 9.5t14.5 10.5q44 31 96 55t81 24q15 0 25.5 -8.5t10.5 -22.5t-27 -43q-77 -83 -150 -182q-20 -25 -29.5 -35.5t-28 -21.5t-40.5 -11q-30 0 -51.5 17t-47.5 51q-64 86 -150 180q-28 28 -28 46
q0 14 11 22t26 8zM977 857v-261q0 -40 -8 -58t-30 -18q-14 0 -25 9t-16.5 18t-11.5 25q-17 37 -28 52.5t-41 30.5t-78 19t-136 4q-40 0 -54 -16t-14 -55v-378q0 -31 5.5 -48.5t17 -30t41.5 -17.5t65.5 -7t103.5 -2q87 0 143.5 6t99.5 19.5t71.5 42t50 64.5t44.5 97
q27 70 58 70q20 0 29 -16.5t9 -56.5q0 -23 -16.5 -147.5t-17.5 -143.5q-3 -64 -83 -64q-11 0 -59 1t-132.5 2.5t-183.5 1.5q-169 0 -332.5 -2.5t-172.5 -2.5q-65 0 -65 42q0 18 15 31.5t34 22t36.5 29t21.5 49.5q9 64 9 542q0 439 -3 473q-3 40 -20.5 67.5t-36.5 38.5
t-34.5 27t-15.5 36q0 45 62 45q15 0 64.5 -1t149.5 -2.5t239 -1.5q112 0 199 1.5t131 2.5t52 1q36 0 51.5 -14.5t23.5 -61.5q4 -19 14 -93.5t16 -109.5q11 -55 11 -83q0 -22 -11.5 -33t-29.5 -11q-7 0 -13.5 2.5t-12 8t-9.5 10t-9 14.5t-7 14.5t-7.5 17t-6.5 14.5
q-20 48 -32.5 74t-33.5 52.5t-42 37.5t-58.5 21t-82.5 12.5t-115 2.5q-104 0 -148.5 -7.5t-60.5 -28t-16 -68.5v-297q0 -41 12.5 -55.5t52.5 -14.5q92 0 145 5t83 22t40.5 32.5t26.5 53.5q17 34 39 34q23 0 33 -20.5t10 -71.5z" />
    <glyph glyph-name="ecaron" unicode="&#x11b;" horiz-adv-x="1030" 
d="M389 1519q52 0 154 -104q10 -11 22.5 -25.5t18.5 -20t11 -5.5t11 5.5t18.5 20t22.5 24.5q99 105 147 105q12 0 20 -7.5t8 -19.5q0 -17 -23 -45q-64 -89 -126 -224q-12 -24 -20.5 -37t-24.5 -24.5t-37 -11.5q-51 0 -84 73q-56 125 -124 224q-24 31 -24 45q0 11 9 19t21 8z
M950 561q-84 -53 -253.5 -78.5t-337.5 -30.5q-25 0 -25 -19q0 -40 18 -87.5t53 -95.5t100 -80t146 -32q223 0 322 190q19 30 36 30q23 0 23 -48q0 -36 -16 -79t-51.5 -88t-84.5 -81.5t-122 -60t-157 -23.5q-218 0 -353 143t-135 369q0 150 63 277t181.5 204.5t267.5 77.5
q176 0 283.5 -107t107.5 -265q0 -75 -66 -116zM824 705q0 99 -62.5 165.5t-154.5 66.5q-122 0 -206 -102t-84 -236q0 -42 30 -42q89 0 231 21.5t205 57.5q41 23 41 69z" />
    <glyph glyph-name="Gcircumflex" unicode="&#x11c;" horiz-adv-x="1468" 
d="M1044 1476q-68 0 -182 79q-5 4 -12.5 9.5t-11 8t-9 6t-9 5.5t-7.5 4t-7 2.5t-6 0.5t-6 -0.5t-6.5 -2.5t-6.5 -3.5t-8 -5.5t-8.5 -6.5t-11 -8t-12.5 -9.5q-43 -31 -95 -55t-82 -24q-15 0 -25 8.5t-10 22.5t27 43q69 74 151 183q18 23 28.5 35t29 22t40.5 10q29 0 50 -16
t48 -51q64 -86 151 -181q27 -27 27 -46q0 -14 -11 -22t-26 -8zM792 -35q-146 0 -269.5 57.5t-206.5 156t-129 229.5t-46 277q0 148 44 281t125 236t206 164t276 61q72 0 138.5 -15.5t113 -31.5t72.5 -16q21 0 53 9t46 9q9 0 16.5 -2t13.5 -7t10.5 -10.5t8.5 -16t7 -20
t7 -25.5t6.5 -29t7 -34.5t8.5 -38.5q10 -45 20 -85.5t13.5 -56.5t3.5 -27q0 -23 -12 -36t-31 -13q-12 0 -23 5t-21.5 16.5t-17 20.5t-19 28.5t-19.5 28.5q-73 106 -177.5 168.5t-217.5 62.5q-128 0 -227.5 -78.5t-150.5 -206.5t-51 -281q0 -177 63 -318.5t173.5 -219.5
t246.5 -78q94 0 178 39t116 89q23 37 29.5 71t6.5 117q0 31 -0.5 55.5t-3.5 43.5t-4 32t-7 24.5t-8 17t-11.5 12.5t-12 9t-16 8.5t-17.5 8.5q-12 7 -42 15.5t-46.5 20t-16.5 32.5q0 52 75 52q25 0 85 -2.5t81 -2.5q27 0 75 2.5t82 2.5q56 0 56 -48q0 -19 -9.5 -35t-21.5 -30
t-21.5 -53t-9.5 -98q0 -52 0.5 -237.5t0.5 -209.5q0 -36 -11.5 -54.5t-41.5 -18.5q-32 0 -63 58q-11 17 -17 26t-15.5 17.5t-18.5 8.5t-23 -7t-40 -22t-45 -24q-170 -84 -324 -84z" />
    <glyph glyph-name="gcircumflex" unicode="&#x11d;" horiz-adv-x="1142" 
d="M773 1150q-52 0 -153 103q-10 10 -23 25.5t-19 21t-11 5.5t-11 -6t-18 -20t-23 -25q-100 -104 -146 -104q-12 0 -20.5 8t-8.5 20q0 16 24 44q63 89 125 224q12 24 20.5 37.5t24.5 24.5t37 11q51 0 84 -73q54 -121 124 -224q24 -31 24 -44q0 -12 -9 -20t-21 -8zM543 1047
q73 0 187 -21t147 -21q77 0 123.5 10.5t67.5 21t34 10.5q31 0 31 -54q0 -49 -23 -88q-26 -42 -63 -42q-41 0 -92 10t-56 10q-10 0 -10 -11q0 -4 16.5 -27.5t33.5 -66t17 -92.5q0 -164 -117.5 -259.5t-299.5 -95.5q-20 0 -64 3.5t-63 3.5q-54 0 -97 -29t-43 -79
q0 -46 40.5 -73t112.5 -27q32 0 153 12t184 12q318 0 318 -249q0 -106 -85 -190.5t-224.5 -129.5t-304.5 -45q-209 0 -315 64t-106 178q0 68 48 123.5t119 82.5q15 7 15 14q0 6 -13 12q-36 18 -72 62t-36 110q0 57 41.5 111.5t114.5 84.5q17 8 17 13q0 8 -13 18
q-136 105 -136 271q0 115 58 199t150 124t205 40zM331 702q0 -121 63.5 -187t157.5 -66t154.5 58t60.5 166q0 42 -11.5 84.5t-35 84.5t-69.5 68.5t-107 26.5q-92 0 -152.5 -65.5t-60.5 -169.5zM854 -151q0 63 -49.5 95t-131.5 32q-71 0 -160 -8t-127 -17q-77 -19 -123.5 -60
t-46.5 -94q0 -71 74.5 -105t195.5 -34q159 0 263.5 54t104.5 137z" />
    <glyph glyph-name="Gbreve" unicode="&#x11e;" horiz-adv-x="1468" 
d="M804 1477q-75 0 -131.5 25t-85.5 65t-42.5 80t-13.5 80q0 59 30 59q3 0 5.5 -0.5t5 -2t4.5 -3t4 -4.5t3.5 -5.5t4 -7.5l4 -8t5 -9.5t5.5 -10.5q67 -109 202 -109t200 109q10 21 14.5 29.5t12 15t16.5 6.5q30 0 30 -59q0 -31 -7.5 -62.5t-27 -66t-49 -61t-78.5 -43.5
t-111 -17zM792 -35q-146 0 -269.5 57.5t-206.5 156t-129 229.5t-46 277q0 148 44 281t125 236t206 164t276 61q72 0 138.5 -15.5t113 -31.5t72.5 -16q21 0 53 9t46 9q9 0 16.5 -2t13.5 -7t10.5 -10.5t8.5 -16t7 -20t7 -25.5t6.5 -29t7 -34.5t8.5 -38.5q10 -45 20 -85.5
t13.5 -56.5t3.5 -27q0 -23 -12 -36t-31 -13q-12 0 -23 5t-21.5 16.5t-17 20.5t-19 28.5t-19.5 28.5q-73 106 -177.5 168.5t-217.5 62.5q-128 0 -227.5 -78.5t-150.5 -206.5t-51 -281q0 -177 63 -318.5t173.5 -219.5t246.5 -78q94 0 178 39t116 89q23 37 29.5 71t6.5 117
q0 31 -0.5 55.5t-3.5 43.5t-4 32t-7 24.5t-8 17t-11.5 12.5t-12 9t-16 8.5t-17.5 8.5q-12 7 -42 15.5t-46.5 20t-16.5 32.5q0 52 75 52q25 0 85 -2.5t81 -2.5q27 0 75 2.5t82 2.5q56 0 56 -48q0 -19 -9.5 -35t-21.5 -30t-21.5 -53t-9.5 -98q0 -52 0.5 -237.5t0.5 -209.5
q0 -36 -11.5 -54.5t-41.5 -18.5q-32 0 -63 58q-11 17 -17 26t-15.5 17.5t-18.5 8.5t-23 -7t-40 -22t-45 -24q-170 -84 -324 -84z" />
    <glyph glyph-name="gbreve" unicode="&#x11f;" horiz-adv-x="1142" 
d="M557 1164q-55 0 -99 18t-71 46t-45 64t-25 68.5t-7 63.5q0 60 28 60q16 0 36 -48l3 -6q60 -115 180 -115q123 0 180 115q19 45 29 51q4 3 10 3q29 0 29 -60q0 -31 -7 -63.5t-25.5 -68.5t-45.5 -64t-71 -46t-99 -18zM543 1047q73 0 187 -21t147 -21q77 0 123.5 10.5
t67.5 21t34 10.5q31 0 31 -54q0 -49 -23 -88q-26 -42 -63 -42q-41 0 -92 10t-56 10q-10 0 -10 -11q0 -4 16.5 -27.5t33.5 -66t17 -92.5q0 -164 -117.5 -259.5t-299.5 -95.5q-20 0 -64 3.5t-63 3.5q-54 0 -97 -29t-43 -79q0 -46 40.5 -73t112.5 -27q32 0 153 12t184 12
q318 0 318 -249q0 -106 -85 -190.5t-224.5 -129.5t-304.5 -45q-209 0 -315 64t-106 178q0 68 48 123.5t119 82.5q15 7 15 14q0 6 -13 12q-36 18 -72 62t-36 110q0 57 41.5 111.5t114.5 84.5q17 8 17 13q0 8 -13 18q-136 105 -136 271q0 115 58 199t150 124t205 40zM331 702
q0 -121 63.5 -187t157.5 -66t154.5 58t60.5 166q0 42 -11.5 84.5t-35 84.5t-69.5 68.5t-107 26.5q-92 0 -152.5 -65.5t-60.5 -169.5zM854 -151q0 63 -49.5 95t-131.5 32q-71 0 -160 -8t-127 -17q-77 -19 -123.5 -60t-46.5 -94q0 -71 74.5 -105t195.5 -34q159 0 263.5 54
t104.5 137z" />
    <glyph glyph-name="Gdotaccent" unicode="&#x120;" horiz-adv-x="1468" 
d="M828 1780q55 0 91.5 -32.5t36.5 -85.5q0 -64 -47.5 -108t-115.5 -44q-56 0 -89.5 31.5t-33.5 82.5q0 61 46.5 108.5t111.5 47.5zM792 -35q-146 0 -269.5 57.5t-206.5 156t-129 229.5t-46 277q0 148 44 281t125 236t206 164t276 61q72 0 138.5 -15.5t113 -31.5t72.5 -16
q21 0 53 9t46 9q9 0 16.5 -2t13.5 -7t10.5 -10.5t8.5 -16t7 -20t7 -25.5t6.5 -29t7 -34.5t8.5 -38.5q10 -45 20 -85.5t13.5 -56.5t3.5 -27q0 -23 -12 -36t-31 -13q-12 0 -23 5t-21.5 16.5t-17 20.5t-19 28.5t-19.5 28.5q-73 106 -177.5 168.5t-217.5 62.5
q-128 0 -227.5 -78.5t-150.5 -206.5t-51 -281q0 -177 63 -318.5t173.5 -219.5t246.5 -78q94 0 178 39t116 89q23 37 29.5 71t6.5 117q0 31 -0.5 55.5t-3.5 43.5t-4 32t-7 24.5t-8 17t-11.5 12.5t-12 9t-16 8.5t-17.5 8.5q-12 7 -42 15.5t-46.5 20t-16.5 32.5q0 52 75 52
q25 0 85 -2.5t81 -2.5q27 0 75 2.5t82 2.5q56 0 56 -48q0 -19 -9.5 -35t-21.5 -30t-21.5 -53t-9.5 -98q0 -52 0.5 -237.5t0.5 -209.5q0 -36 -11.5 -54.5t-41.5 -18.5q-32 0 -63 58q-11 17 -17 26t-15.5 17.5t-18.5 8.5t-23 -7t-40 -22t-45 -24q-170 -84 -324 -84z" />
    <glyph glyph-name="gdotaccent" unicode="&#x121;" horiz-adv-x="1142" 
d="M593 1458q52 0 86 -32t34 -84q0 -63 -45.5 -105.5t-109.5 -42.5q-53 0 -84.5 31t-31.5 81q0 60 44.5 106t106.5 46zM543 1047q73 0 187 -21t147 -21q77 0 123.5 10.5t67.5 21t34 10.5q31 0 31 -54q0 -49 -23 -88q-26 -42 -63 -42q-41 0 -92 10t-56 10q-10 0 -10 -11
q0 -4 16.5 -27.5t33.5 -66t17 -92.5q0 -164 -117.5 -259.5t-299.5 -95.5q-20 0 -64 3.5t-63 3.5q-54 0 -97 -29t-43 -79q0 -46 40.5 -73t112.5 -27q32 0 153 12t184 12q318 0 318 -249q0 -106 -85 -190.5t-224.5 -129.5t-304.5 -45q-209 0 -315 64t-106 178q0 68 48 123.5
t119 82.5q15 7 15 14q0 6 -13 12q-36 18 -72 62t-36 110q0 57 41.5 111.5t114.5 84.5q17 8 17 13q0 8 -13 18q-136 105 -136 271q0 115 58 199t150 124t205 40zM331 702q0 -121 63.5 -187t157.5 -66t154.5 58t60.5 166q0 42 -11.5 84.5t-35 84.5t-69.5 68.5t-107 26.5
q-92 0 -152.5 -65.5t-60.5 -169.5zM854 -151q0 63 -49.5 95t-131.5 32q-71 0 -160 -8t-127 -17q-77 -19 -123.5 -60t-46.5 -94q0 -71 74.5 -105t195.5 -34q159 0 263.5 54t104.5 137z" />
    <glyph glyph-name="uni0122" unicode="&#x122;" horiz-adv-x="1468" 
d="M792 -35q-146 0 -269.5 57.5t-206.5 156t-129 229.5t-46 277q0 148 44 281t125 236t206 164t276 61q72 0 138.5 -15.5t113 -31.5t72.5 -16q21 0 53 9t46 9q9 0 16.5 -2t13.5 -7t10.5 -10.5t8.5 -16t7 -20t7 -25.5t6.5 -29t7 -34.5t8.5 -38.5q10 -45 20 -85.5t13.5 -56.5
t3.5 -27q0 -23 -12 -36t-31 -13q-12 0 -23 5t-21.5 16.5t-17 20.5t-19 28.5t-19.5 28.5q-73 106 -177.5 168.5t-217.5 62.5q-128 0 -227.5 -78.5t-150.5 -206.5t-51 -281q0 -177 63 -318.5t173.5 -219.5t246.5 -78q94 0 178 39t116 89q23 37 29.5 71t6.5 117q0 31 -0.5 55.5
t-3.5 43.5t-4 32t-7 24.5t-8 17t-11.5 12.5t-12 9t-16 8.5t-17.5 8.5q-12 7 -42 15.5t-46.5 20t-16.5 32.5q0 52 75 52q25 0 85 -2.5t81 -2.5q27 0 75 2.5t82 2.5q56 0 56 -48q0 -19 -9.5 -35t-21.5 -30t-21.5 -53t-9.5 -98q0 -52 0.5 -237.5t0.5 -209.5q0 -36 -11.5 -54.5
t-41.5 -18.5q-32 0 -63 58q-11 17 -17 26t-15.5 17.5t-18.5 8.5t-23 -7t-40 -22t-45 -24q-170 -84 -324 -84zM726 -494q-12 0 -19.5 7.5t-7.5 19.5q0 11 15.5 33.5t31.5 53.5t16 64q0 10 -19 29t-38 46.5t-19 59.5q0 45 31 72.5t74 27.5q54 0 85 -36.5t31 -97.5
q0 -67 -33 -134t-75.5 -106t-72.5 -39z" />
    <glyph glyph-name="uni0123" unicode="&#x123;" horiz-adv-x="1142" 
d="M623 1551q26 0 26 -26q0 -11 -15.5 -33.5t-31 -53.5t-15.5 -64q0 -10 19 -29t38 -46.5t19 -59.5q0 -45 -31 -72.5t-74 -27.5q-54 0 -85.5 36.5t-31.5 97.5q0 67 33.5 134t76 105.5t72.5 38.5zM543 1047q73 0 187 -21t147 -21q77 0 123.5 10.5t67.5 21t34 10.5
q31 0 31 -54q0 -49 -23 -88q-26 -42 -63 -42q-41 0 -92 10t-56 10q-10 0 -10 -11q0 -4 16.5 -27.5t33.5 -66t17 -92.5q0 -164 -117.5 -259.5t-299.5 -95.5q-20 0 -64 3.5t-63 3.5q-54 0 -97 -29t-43 -79q0 -46 40.5 -73t112.5 -27q32 0 153 12t184 12q318 0 318 -249
q0 -106 -85 -190.5t-224.5 -129.5t-304.5 -45q-209 0 -315 64t-106 178q0 68 48 123.5t119 82.5q15 7 15 14q0 6 -13 12q-36 18 -72 62t-36 110q0 57 41.5 111.5t114.5 84.5q17 8 17 13q0 8 -13 18q-136 105 -136 271q0 115 58 199t150 124t205 40zM331 702
q0 -121 63.5 -187t157.5 -66t154.5 58t60.5 166q0 42 -11.5 84.5t-35 84.5t-69.5 68.5t-107 26.5q-92 0 -152.5 -65.5t-60.5 -169.5zM854 -151q0 63 -49.5 95t-131.5 32q-71 0 -160 -8t-127 -17q-77 -19 -123.5 -60t-46.5 -94q0 -71 74.5 -105t195.5 -34q159 0 263.5 54
t104.5 137z" />
    <glyph glyph-name="Hcircumflex" unicode="&#x124;" horiz-adv-x="1498" 
d="M1094 1476q-69 0 -183 79q-5 4 -12.5 9.5t-11 8t-9 6t-9 5.5t-7.5 4t-7 2.5t-6 0.5q-4 0 -8 -1t-10 -5t-9.5 -7t-14 -10.5t-16.5 -12.5q-43 -31 -95.5 -55t-82.5 -24q-15 0 -24.5 8.5t-9.5 22.5q0 15 26 43q69 74 151 183q18 23 28.5 35t29 22t40.5 10q29 0 50 -16
t48 -51q64 -86 151 -181q27 -27 27 -46q0 -14 -10.5 -22t-25.5 -8zM1433 1398q59 0 59 -45q0 -17 -10 -29.5t-25 -22.5t-30 -22t-27 -36.5t-14 -58.5q-4 -41 -4 -473q0 -472 11 -541q4 -30 21.5 -50.5t35.5 -29t33 -22t15 -31.5q0 -42 -65 -42q-18 0 -73 2.5t-80 2.5
q-27 0 -83.5 -2.5t-73.5 -2.5q-65 0 -65 42q0 18 15 31.5t34 22.5t36.5 29t21.5 50q2 22 5.5 177t3.5 263q0 34 -12.5 49t-42.5 15h-529q-29 0 -42 -14t-13 -50q0 -118 3.5 -266t7.5 -174q4 -30 21.5 -50.5t36 -29t33 -22t14.5 -31.5q0 -42 -65 -42q-18 0 -72.5 2.5
t-80.5 2.5q-27 0 -83 -2.5t-74 -2.5q-65 0 -65 42q0 18 15 31.5t34 22.5t36.5 29t21.5 50q9 65 9 541q0 439 -2 473q-2 33 -14.5 57t-27.5 37t-30.5 23.5t-25.5 22.5t-10 29q0 45 62 45q18 0 73 -2.5t81 -2.5q27 0 82 2.5t71 2.5q60 0 60 -45q0 -19 -13.5 -33.5t-30 -23.5
t-33.5 -30.5t-23 -52.5q-4 -13 -7.5 -129.5t-3.5 -205.5q0 -40 12.5 -55.5t43.5 -15.5h526q31 0 44 15.5t13 55.5q0 91 -3 207.5t-7 127.5q-4 29 -21 50t-34.5 31.5t-31.5 25.5t-14 33q0 45 61 45q18 0 74 -2.5t82 -2.5t81 2.5t72 2.5z" />
    <glyph glyph-name="hcircumflex" unicode="&#x125;" 
d="M521 1484q-58 0 -165 83q-9 7 -19.5 16.5t-16 14t-11 8t-10.5 3.5t-11.5 -4.5t-19 -16.5t-23.5 -20q-104 -84 -159 -84q-13 0 -22 7t-9 18t24 39q53 58 139 187q14 22 23 33.5t25.5 21.5t36.5 10q48 0 87 -64q48 -80 139 -186q25 -31 25 -41q0 -11 -10 -18t-23 -7z
M209 221v1027q0 56 -70 78q-41 16 -41 42q0 11 4 19t15.5 15t19.5 10.5t28.5 11t30.5 11.5q27 11 61 25.5t47 19.5t28.5 9.5t28.5 4.5q53 0 53 -59q0 -10 -4 -78t-8 -191t-4 -267q0 -40 15 -40q4 0 23 19.5t49.5 47.5t70.5 56t98.5 47.5t120.5 19.5q160 0 249 -105t89 -311
q0 -120 -15 -274t-15 -169q0 -60 49 -91q9 -5 26 -13.5t23.5 -12.5t12.5 -13t6 -21q0 -44 -68 -44q-18 0 -54 2.5t-66 2.5t-68.5 -2.5t-56.5 -2.5q-47 0 -47 42q0 16 22 75q16 53 31 188.5t15 284.5q0 158 -61 238.5t-171 80.5q-97 0 -183.5 -78t-86.5 -154v-460
q0 -45 11 -69.5t35 -42.5q8 -6 21.5 -14t20.5 -12.5t13 -13.5t6 -21q0 -44 -64 -44q-25 0 -67.5 2.5t-71.5 2.5q-25 0 -66.5 -2.5t-86.5 -2.5q-60 0 -60 42q0 12 6.5 22t13 15t18.5 12.5t16 10.5q35 25 46.5 53t11.5 71z" />
    <glyph glyph-name="Hbar" unicode="&#x126;" horiz-adv-x="1498" 
d="M1386 1398q60 0 60 -45q0 -17 -10 -29.5t-25 -22.5t-30 -22t-27 -36.5t-14 -58.5q-1 -12 -3 -78h125q38 0 38 -34q0 -43 -16 -70q-16 -28 -76 -28h-72v-263q0 -472 11 -541q4 -30 21.5 -50.5t35.5 -29t33 -22t15 -31.5q0 -42 -66 -42q-18 0 -72.5 2.5t-79.5 2.5
q-27 0 -83.5 -2.5t-73.5 -2.5q-65 0 -65 42q0 18 15 31.5t33.5 22.5t36 29t22.5 50q8 56 8 426q0 31 -12 44.5t-42 13.5h-529q-29 0 -42.5 -12.5t-13.5 -45.5q0 -113 4 -257t8 -169q6 -31 24 -51.5t35.5 -29t31.5 -21.5t14 -31q0 -42 -65 -42q-18 0 -72.5 2.5t-80.5 2.5
q-27 0 -83 -2.5t-74 -2.5q-65 0 -65 42q0 18 15 31.5t34 22.5t36.5 29t21.5 50q9 65 9 541v263h-123q-39 0 -39 36q0 34 16 68q16 28 75 28h70q0 23 -0.5 50t-0.5 28q-2 33 -14.5 57t-27.5 37t-30.5 23.5t-25.5 22.5t-10 29q0 45 61 45q18 0 73.5 -2.5t81.5 -2.5
q27 0 82 2.5t71 2.5q60 0 60 -45q0 -19 -13.5 -33.5t-30 -23.5t-33.5 -30.5t-23 -52.5q-3 -9 -7 -107h631q-4 98 -6 107q-4 29 -21 50t-34.5 31.5t-31.5 25.5t-14 33q0 45 61 45q18 0 74 -2.5t82 -2.5t80.5 2.5t71.5 2.5zM1127 878q0 61 -1 96h-638v-96q0 -51 13 -71t44 -20
h526q30 0 43 20t13 71z" />
    <glyph glyph-name="hbar" unicode="&#x127;" horiz-adv-x="1233" 
d="M568 1109h-200q-2 -134 -2 -223q0 -45 14 -45q4 0 23.5 19t51 46.5t71.5 55t98.5 46.5t120.5 19q160 0 248 -105t88 -302q0 -117 -14 -266.5t-14 -163.5q0 -61 48 -91q9 -5 26 -13.5t23.5 -12.5t12.5 -13t6 -21q0 -44 -68 -44q-18 0 -54 2.5t-66 2.5t-68.5 -2.5
t-56.5 -2.5q-47 0 -47 42q0 9 3 20.5t5.5 19.5t7.5 19.5t6 14.5q16 53 31 182t15 274q0 156 -63 238t-172 82q-96 0 -181.5 -77.5t-85.5 -151.5v-447q0 -45 10.5 -69t35.5 -42q7 -5 27 -16.5t27 -20.5t7 -24q0 -44 -64 -44q-25 0 -67 2.5t-71 2.5q-25 0 -67 -2.5t-87 -2.5
q-59 0 -59 42q0 9 3 17t10 14.5t12 10.5t15 9.5t13 7.5q34 26 46 54t12 69v890h-147q-37 0 -37 33q0 32 16 54q16 23 69 23h99v41q0 55 -69 75q-42 15 -42 41q0 6 1.5 11.5t4.5 10t6.5 8t10 7.5t11 6.5t14 5.5t15 5t17 6t17.5 6q38 14 76 32t56 24.5t35 6.5q52 0 52 -59
q0 -10 -1.5 -39.5t-4.5 -82.5t-5 -105h246q38 0 38 -31q0 -35 -16 -55q-19 -24 -72 -24z" />
    <glyph glyph-name="Itilde" unicode="&#x128;" horiz-adv-x="652" 
d="M49 1602q0 68 47.5 113.5t118.5 45.5q54 0 142.5 -42.5t132.5 -42.5q39 0 59 22t28.5 44.5t19.5 22.5q20 0 37.5 -26t17.5 -70q0 -70 -48.5 -114.5t-119.5 -44.5q-50 0 -104 25t-101.5 49.5t-81.5 24.5q-26 0 -45 -13t-27.5 -29t-18 -29t-19.5 -13q-12 0 -25 20.5
t-13 56.5zM505 1398q60 0 60 -45q0 -17 -10 -29.5t-24.5 -22.5t-29.5 -22t-27 -36.5t-14 -58.5q-5 -52 -5 -473q0 -470 10 -541q4 -30 21.5 -50.5t36 -29t33 -22t14.5 -31.5q0 -42 -65 -42q-18 0 -72.5 2.5t-80.5 2.5q-27 0 -82.5 -2.5t-73.5 -2.5q-66 0 -66 42
q0 18 15.5 31.5t34.5 22.5t36.5 29t21.5 50q8 57 8 541q0 439 -2 473q-2 33 -14.5 57t-27.5 37t-30.5 23.5t-25.5 22.5t-10 29q0 45 62 45q18 0 73 -2.5t81 -2.5q27 0 82 2.5t71 2.5z" />
    <glyph glyph-name="itilde" unicode="&#x129;" horiz-adv-x="556" 
d="M2 1268q0 66 43 111.5t106 45.5q49 0 128.5 -43t119.5 -43q35 0 53 22.5t26 45.5t18 23q18 0 33.5 -25.5t15.5 -67.5q0 -69 -43.5 -112t-108.5 -43q-35 0 -74 15t-66.5 33.5t-60.5 33.5t-58 15q-23 0 -40 -13.5t-24.5 -29t-16 -29t-17.5 -13.5q-12 0 -23 19.5t-11 54.5z
M388 989q0 -5 -4.5 -103t-4.5 -212v-462q0 -44 12 -68.5t37 -43.5q8 -6 21.5 -14t20.5 -12.5t13 -13.5t6 -21q0 -44 -64 -44q-25 0 -68.5 2.5t-72.5 2.5q-25 0 -67 -2.5t-87 -2.5q-59 0 -59 42q0 12 6 22t12.5 15t18.5 12.5t16 10.5q35 25 46.5 53t11.5 71v559q0 65 -68 88
q-43 22 -43 46q0 12 4.5 20.5t15 15t19.5 10t28 10t31 11.5q34 14 74 33t59.5 27t33.5 8q52 0 52 -60z" />
    <glyph glyph-name="Imacron" unicode="&#x12a;" horiz-adv-x="652" 
d="M545 1541h-496q-45 0 -45 42q0 46 19 81q16 34 87 34h496q46 0 46 -39q0 -44 -20 -82q-19 -36 -87 -36zM482 1398q61 0 61 -45q0 -17 -10 -29.5t-25 -22.5t-30 -22t-27 -36.5t-14 -58.5q-5 -52 -5 -473q0 -470 10 -541q4 -30 22 -50.5t36 -29t33 -22t15 -31.5
q0 -42 -66 -42q-18 0 -72 2.5t-80 2.5q-27 0 -83 -2.5t-74 -2.5q-65 0 -65 42q0 18 15 31.5t34 22.5t36.5 29t21.5 50q8 57 8 541q0 439 -2 473q-2 33 -14 57t-27.5 37t-30.5 23.5t-25 22.5t-10 29q0 45 61 45q18 0 73.5 -2.5t81.5 -2.5q27 0 81.5 2.5t70.5 2.5z" />
    <glyph glyph-name="imacron" unicode="&#x12b;" horiz-adv-x="556" 
d="M466 1217h-371q-44 0 -44 41q0 42 19 76q8 17 27 24t57 7h372q44 0 44 -38q0 -45 -18 -77q-19 -33 -86 -33zM413 989q0 -5 -5 -103t-5 -212v-462q0 -44 12.5 -68.5t37.5 -43.5q8 -6 21.5 -14t20.5 -12.5t13 -13.5t6 -21q0 -44 -64 -44q-25 0 -69 2.5t-73 2.5
q-25 0 -66.5 -2.5t-86.5 -2.5q-60 0 -60 42q0 12 6 22t12.5 15t18.5 12.5t16 10.5q35 25 47 53.5t12 70.5v559q0 65 -69 88q-43 22 -43 46q0 12 4.5 20.5t15 15t20 10t28.5 10t31 11.5q34 14 73.5 33t59 27t33.5 8q53 0 53 -60z" />
    <glyph glyph-name="Iogonek" unicode="&#x12e;" horiz-adv-x="652" 
d="M236 -266q0 72 56 137.5t137 109.5q14 7 14 13t-14 6q-21 0 -77.5 -2.5t-75.5 -2.5q-65 0 -65 42q0 18 15 31.5t34 22.5t36.5 29t21.5 50q9 65 9 541q0 439 -2 473q-2 33 -14.5 57t-27.5 37t-30.5 23.5t-25.5 22.5t-10 29q0 45 62 45q18 0 73 -2.5t81 -2.5q27 0 82 2.5
t71 2.5q60 0 60 -45q0 -17 -10 -29.5t-24.5 -22.5t-29.5 -22t-27 -36.5t-14 -58.5q-5 -52 -5 -473q0 -470 10 -541q4 -30 21.5 -50.5t36 -29t33 -22t14.5 -31.5q0 -13 -8 -21t-40 -25t-56 -33q-139 -93 -139 -200q0 -48 27 -77t78 -29q52 0 83 24q26 19 35 19q20 0 20 -28
q0 -38 -57 -80t-143 -42q-98 0 -156.5 52t-58.5 137z" />
    <glyph glyph-name="iogonek" unicode="&#x12f;" horiz-adv-x="556" 
d="M202 1278q0 68 54.5 124t121.5 56q50 0 82.5 -29t32.5 -78q0 -67 -59 -116t-132 -49q-49 0 -74.5 25t-25.5 67zM457 989q0 -5 -5 -103t-5 -212v-462q0 -44 12.5 -68.5t37.5 -43.5q8 -6 21.5 -14t20.5 -12.5t13 -13.5t6 -21q0 -15 -7.5 -23.5t-19 -12.5t-35 -14t-45.5 -24
q-138 -89 -138 -211q0 -46 26.5 -76t74.5 -30t80 25q4 3 9.5 7.5t8.5 6.5t7 4t8 2q9 0 15 -8.5t6 -20.5q0 -37 -55 -78t-137 -41q-92 0 -147.5 51t-55.5 135q0 77 57 146t141 110q9 5 9 8q0 5 -21 5q-17 0 -58.5 -2.5t-81.5 -2.5q-60 0 -60 42q0 12 6.5 22t13 15t18.5 12.5
t16 10.5q35 25 46.5 53t11.5 71v559q0 65 -69 88q-43 22 -43 46q0 12 4.5 20.5t15 15t20 10t28.5 10t31 11.5q34 14 73.5 33t59 27t33.5 8q53 0 53 -60z" />
    <glyph glyph-name="Idotaccent" unicode="&#x130;" horiz-adv-x="652" 
d="M446 1780q55 0 91.5 -32.5t36.5 -85.5q0 -64 -47.5 -108t-115.5 -44q-56 0 -89.5 31.5t-33.5 82.5q0 61 46.5 108.5t111.5 47.5zM586 1398q60 0 60 -45q0 -17 -10 -29.5t-24.5 -22.5t-29.5 -22t-27 -36.5t-14 -58.5q-5 -52 -5 -473q0 -470 10 -541q4 -30 21.5 -50.5
t36 -29t33 -22t14.5 -31.5q0 -42 -65 -42q-18 0 -72.5 2.5t-80.5 2.5q-27 0 -83 -2.5t-74 -2.5q-65 0 -65 42q0 18 15 31.5t34 22.5t36.5 29t21.5 50q9 65 9 541q0 439 -2 473q-2 33 -14.5 57t-27.5 37t-30.5 23.5t-25.5 22.5t-10 29q0 45 62 45q18 0 73 -2.5t81 -2.5
q27 0 82 2.5t71 2.5z" />
    <glyph glyph-name="dotlessi" unicode="&#x131;" horiz-adv-x="556" 
d="M457 989q0 -5 -5 -103t-5 -212v-462q0 -44 12.5 -68.5t37.5 -43.5q8 -6 21.5 -14t20.5 -12.5t13 -13.5t6 -21q0 -44 -64 -44q-25 0 -69 2.5t-73 2.5q-25 0 -66.5 -2.5t-86.5 -2.5q-60 0 -60 42q0 12 6.5 22t13 15t18.5 12.5t16 10.5q35 25 46.5 53t11.5 71v559
q0 65 -69 88q-43 22 -43 46q0 12 4.5 20.5t15 15t20 10t28.5 10t31 11.5q34 14 73.5 33t59 27t33.5 8q53 0 53 -60z" />
    <glyph glyph-name="IJ" unicode="&#x132;" horiz-adv-x="1683" 
d="M586 1398q60 0 60 -45q0 -17 -10 -29.5t-24.5 -22.5t-29.5 -22t-27 -36.5t-14 -58.5q-5 -52 -5 -473q0 -470 10 -541q4 -30 21.5 -50.5t36 -29t33 -22t14.5 -31.5q0 -42 -65 -42q-18 0 -72.5 2.5t-80.5 2.5q-27 0 -83 -2.5t-74 -2.5q-65 0 -65 42q0 18 15 31.5t34 22.5
t36.5 29t21.5 50q9 65 9 541q0 439 -2 473q-2 33 -14.5 57t-27.5 37t-30.5 23.5t-25.5 22.5t-10 29q0 45 62 45q18 0 73 -2.5t81 -2.5q27 0 82 2.5t71 2.5zM1394 538v173q0 415 -5 467q-3 41 -25 69t-46.5 39t-44.5 28t-20 39q0 45 60 45q17 0 86.5 -2.5t96.5 -2.5
q26 0 78 2.5t70 2.5q61 0 61 -45q0 -17 -9.5 -29t-23 -22.5t-27.5 -23.5t-25.5 -37t-13.5 -57q-3 -34 -3 -586q0 -155 -23 -267t-75.5 -195.5t-142.5 -125t-220 -41.5q-104 0 -183.5 29t-123.5 76.5t-65 100t-21 107.5q0 72 40 127.5t110 55.5q52 0 78.5 -25.5t26.5 -60.5
q0 -14 -21.5 -60.5t-21.5 -87.5q0 -61 44 -104.5t137 -43.5q92 0 149 57t80 154.5t23 243.5z" />
    <glyph glyph-name="ij" unicode="&#x133;" horiz-adv-x="1047" 
d="M204 1278q0 68 54.5 124t121.5 56q50 0 82.5 -29t32.5 -78q0 -67 -59 -116t-132 -49q-49 0 -74.5 25t-25.5 67zM735 1278q0 68 55 124t122 56q49 0 82 -29.5t33 -77.5q0 -67 -58.5 -116t-132.5 -49q-49 0 -75 25.5t-26 66.5zM459 989q0 -5 -4.5 -103t-4.5 -212v-462
q0 -44 12 -68.5t37 -43.5q8 -6 21.5 -14t20.5 -12.5t13 -13.5t6 -21q0 -44 -64 -44q-25 0 -69 2.5t-73 2.5q-25 0 -66.5 -2.5t-86.5 -2.5q-60 0 -60 42q0 12 6.5 22t13 15t18.5 12.5t16 10.5q35 25 46.5 53t11.5 71v559q0 65 -69 88q-43 22 -43 46q0 12 4.5 20.5t15 15
t20 10t28.5 10t31 11.5q34 14 74 33t59.5 27t33.5 8q52 0 52 -60zM982 674v-400q0 -64 3.5 -175.5t3.5 -120.5q0 -83 -24.5 -154t-63.5 -118t-87.5 -80t-96 -47.5t-89.5 -14.5q-30 0 -49.5 11.5t-19.5 27.5q0 5 2 10t7.5 9.5t9.5 7.5t13 8.5t14 8.5q55 43 75 64
q105 111 105 305v764q0 66 -68 88q-43 20 -43 46q0 12 4.5 20.5t15 15t19.5 10t28 10t31 11.5q34 14 74 33t59.5 27t33.5 8q52 0 52 -60q0 -12 -2.5 -48t-4.5 -105t-2 -162z" />
    <glyph glyph-name="Jcircumflex" unicode="&#x134;" horiz-adv-x="1087" 
d="M1072 1476q-68 0 -182 79q-50 36 -63 36q-4 0 -8 -1t-10 -5t-9.5 -7t-14 -10.5t-16.5 -12.5q-43 -31 -95 -55t-82 -24q-15 0 -25 8.5t-10 22.5t27 43q64 69 150 183q17 23 28.5 35t30 22t40.5 10q29 0 50 -16t48 -51q68 -91 150 -181q28 -28 28 -46q0 -14 -11 -22t-26 -8
zM739 538v173q0 415 -5 467q-3 41 -25 69t-46 39t-44 28t-20 39q0 45 59 45q17 0 87 -2.5t97 -2.5q26 0 77.5 2.5t69.5 2.5q62 0 62 -45q0 -20 -14.5 -35.5t-32 -26.5t-34 -38.5t-19.5 -68.5q-3 -34 -3 -586q0 -155 -23 -267t-75.5 -195.5t-142.5 -125t-220 -41.5
q-104 0 -183.5 29t-123.5 76.5t-65 100t-21 107.5q0 72 40.5 127.5t110.5 55.5q51 0 77.5 -25.5t26.5 -60.5q0 -14 -21.5 -60.5t-21.5 -87.5q0 -61 44 -104.5t137 -43.5q92 0 149 57t80 154.5t23 243.5z" />
    <glyph glyph-name="jcircumflex" unicode="&#x135;" horiz-adv-x="493" 
d="M384 1150q-53 0 -154 103q-11 11 -23 26t-18 20.5t-11 5.5t-11 -6t-18 -20t-23 -25q-100 -104 -146 -104q-12 0 -20.5 8t-8.5 20q0 17 23 44q66 92 126 224q12 24 20.5 37.5t24.5 24.5t37 11q51 0 84 -73q54 -121 124 -224q24 -31 24 -44q0 -12 -9 -20t-21 -8zM292 674
v-400q0 -64 3.5 -175.5t3.5 -120.5q0 -83 -24.5 -154t-63.5 -118t-87.5 -80t-96 -47.5t-89.5 -14.5q-30 0 -49.5 11.5t-19.5 27.5q0 5 2 10t7.5 9.5t9.5 7.5t13 8.5t14 8.5q55 43 75 64q105 111 105 305v764q0 66 -68 88q-43 20 -43 46q0 12 4.5 20.5t15 15t19.5 10t28 10
t31 11.5q34 14 74 33t59.5 27t33.5 8q52 0 52 -60q0 -12 -2.5 -48t-4.5 -105t-2 -162z" />
    <glyph glyph-name="uni0136" unicode="&#x136;" horiz-adv-x="1385" 
d="M543 729q12 0 133.5 116.5t239 244.5t117.5 152q0 23 -35.5 53.5t-35.5 58.5q0 19 14.5 31.5t44.5 12.5q15 0 67.5 -2.5t70.5 -2.5q16 0 92.5 1.5t93.5 1.5q35 0 51 -9.5t16 -33.5t-21 -43t-71 -47.5t-78 -48.5q-57 -41 -189.5 -164t-290.5 -282q-10 -12 -10 -18
q0 -9 13 -13q169 -51 287.5 -158t231.5 -309q33 -61 59 -96t67 -63q10 -7 23.5 -15.5t20.5 -13t14.5 -11t10.5 -14t3 -17.5q0 -45 -52 -45q-19 0 -81 2.5t-86 2.5q-43 0 -94.5 -2.5t-57.5 -2.5q-26 0 -42.5 12.5t-16.5 29.5q0 14 12.5 36t12.5 49q0 44 -22.5 104t-66 123.5
t-99.5 117.5t-130.5 88.5t-150.5 34.5q-72 0 -72 -65v-304q0 -78 62 -117q8 -6 24.5 -15.5t25 -15t15.5 -15t7 -21.5q0 -42 -65 -42q-20 0 -83.5 2.5t-88.5 2.5q-27 0 -83 -2.5t-74 -2.5q-65 0 -65 42q0 18 15 31.5t34 22.5t36.5 29t21.5 50q9 65 9 541q0 439 -2 473
q-2 33 -14.5 57t-27.5 37t-30.5 23.5t-25.5 22.5t-10 29q0 45 62 45q18 0 73 -2.5t81 -2.5q27 0 82 2.5t71 2.5q60 0 60 -45q0 -18 -13.5 -32.5t-30.5 -23.5t-33 -29.5t-20 -49.5q-15 -58 -15 -256q0 -233 9 -233zM769 -494q-12 0 -19.5 7.5t-7.5 19.5q0 11 16 33.5
t31.5 53.5t15.5 64q0 10 -19 29t-38 46.5t-19 59.5q0 45 31 72.5t74 27.5q54 0 85 -36.5t31 -97.5q0 -67 -33 -134t-75.5 -106t-72.5 -39z" />
    <glyph glyph-name="uni0137" unicode="&#x137;" horiz-adv-x="1152" 
d="M442 310q0 -106 12 -146t49 -67q7 -5 26 -14.5t28 -19t9 -24.5q0 -44 -65 -44q-18 0 -71 2.5t-78 2.5q-26 0 -75 -2.5t-78 -2.5q-60 0 -60 42q0 12 6.5 22t13 15t18.5 12.5t16 10.5q35 25 46.5 53t11.5 71v1030q0 56 -70 78q-41 16 -41 42q0 11 4 19t15.5 15.5t19 11
t29 11t30.5 11.5q35 14 73 32.5t57 26t35 7.5q53 0 53 -59q0 -13 -3 -78.5t-6 -232t-3 -424.5q0 -66 2.5 -99.5t5.5 -40t9 -6.5q19 0 103 67.5t161.5 147.5t77.5 107q0 18 -32.5 49t-32.5 51q0 44 50 44q23 0 68 -2.5t69 -2.5q25 0 83 3t74 3q58 0 58 -43q0 -18 -14.5 -32
t-48.5 -33.5t-48 -29.5q-31 -22 -158.5 -134.5t-205.5 -172.5q-12 -9 -12 -15q0 -8 12 -11q82 -31 151 -82t115.5 -105t84 -106.5t76.5 -98.5t74 -67l8 -4q8 -5 14.5 -10t14.5 -12t12.5 -16.5t4.5 -19.5q0 -9 -2.5 -18t-12.5 -18t-26 -9q-15 0 -74 2t-84 2q-29 0 -94 -2.5
t-77 -2.5q-25 0 -40.5 11.5t-15.5 32.5q0 16 22.5 41.5t22.5 45.5q0 32 -32.5 84.5t-87.5 108.5q-63 62 -123.5 92.5t-90.5 30.5q-38 0 -50.5 -30t-12.5 -101zM597 -494q-12 0 -19.5 7.5t-7.5 19.5q0 11 16 33.5t31.5 53.5t15.5 64q0 10 -19 29t-38 46.5t-19 59.5
q0 45 31 72.5t74 27.5q54 0 85 -36.5t31 -97.5q0 -67 -33 -134t-75.5 -106t-72.5 -39z" />
    <glyph glyph-name="Lacute" unicode="&#x139;" horiz-adv-x="1200" 
d="M304 1568q83 63 154 147q33 41 63.5 63t67.5 22q42 0 68.5 -25t26.5 -65q0 -69 -109 -135q-70 -42 -147.5 -70.5t-123.5 -28.5q-44 0 -44 32q0 24 44 60zM327 711q0 439 -2 473q-2 33 -14.5 57t-27.5 37t-30.5 23.5t-25.5 22.5t-10 29q0 45 62 45q18 0 73 -2.5t81 -2.5
q27 0 97 2.5t86 2.5q60 0 60 -45q0 -22 -20 -39t-44 -28t-46 -39t-25 -69q-5 -52 -5 -467v-492q0 -44 15.5 -62t61 -25.5t151.5 -7.5q104 0 165.5 9.5t103 39t62 69.5t42.5 114q17 52 30.5 70t32.5 18q38 0 38 -73q0 -27 -10 -136.5t-13 -173.5q-4 -66 -81 -66
q-8 0 -138 2.5t-277 2.5q-132 0 -231 -1t-149 -2.5t-63 -1.5q-65 0 -65 42q0 20 14.5 34t33 22t36.5 27.5t23 48.5q9 50 9 542z" />
    <glyph glyph-name="lacute" unicode="&#x13a;" horiz-adv-x="557" 
d="M227 1576q65 83 98 131q20 31 33.5 47.5t36.5 31t49 14.5q39 0 62 -23.5t23 -62.5q0 -59 -82 -125q-47 -38 -115 -69.5t-105 -31.5q-17 0 -27.5 8.5t-10.5 23.5q0 13 38 56zM456 1416q0 -14 -4.5 -102.5t-4.5 -214.5v-887q0 -44 12.5 -68.5t37.5 -43.5q8 -6 21.5 -14
t20.5 -12.5t13 -13.5t6 -21q0 -44 -64 -44q-18 0 -68 2.5t-74 2.5q-26 0 -75 -2.5t-78 -2.5q-60 0 -60 42q0 12 6.5 22t13 15t18.5 12.5t16 10.5q35 25 46.5 53t11.5 71v1001q0 55 -70 77q-41 16 -41 42q0 11 4 19t15.5 15.5t19 11t29 11t30.5 11.5q35 14 73 32.5t57 26.5
t35 8q53 0 53 -60z" />
    <glyph glyph-name="uni013B" unicode="&#x13b;" horiz-adv-x="1200" 
d="M327 711q0 439 -2 473q-2 33 -14.5 57t-27.5 37t-30.5 23.5t-25.5 22.5t-10 29q0 45 62 45q18 0 73 -2.5t81 -2.5q27 0 97 2.5t86 2.5q60 0 60 -45q0 -22 -20 -39t-44 -28t-46 -39t-25 -69q-5 -52 -5 -467v-492q0 -44 15.5 -62t61 -25.5t151.5 -7.5q104 0 165.5 9.5
t103 39t62 69.5t42.5 114q17 52 30.5 70t32.5 18q38 0 38 -73q0 -27 -10 -136.5t-13 -173.5q-4 -66 -81 -66q-8 0 -138 2.5t-277 2.5q-132 0 -231 -1t-149 -2.5t-63 -1.5q-65 0 -65 42q0 20 14.5 34t33 22t36.5 27.5t23 48.5q9 50 9 542zM662 -494q-12 0 -19.5 7.5
t-7.5 19.5q0 11 15.5 33.5t31 53.5t15.5 64q0 10 -18.5 29t-37.5 46.5t-19 59.5q0 45 30.5 72.5t73.5 27.5q54 0 85.5 -36.5t31.5 -97.5q0 -67 -33 -134t-75.5 -106t-72.5 -39z" />
    <glyph glyph-name="uni013C" unicode="&#x13c;" horiz-adv-x="557" 
d="M456 1446q0 -14 -4.5 -103t-4.5 -215v-916q0 -44 12.5 -68.5t37.5 -43.5q8 -6 21.5 -14t20.5 -12.5t13 -13.5t6 -21q0 -44 -64 -44q-18 0 -68 2.5t-74 2.5q-26 0 -75 -2.5t-78 -2.5q-60 0 -60 42q0 12 6.5 22t13 15t18.5 12.5t16 10.5q35 25 46.5 53t11.5 71v1030
q0 56 -70 78q-41 16 -41 42q0 11 4 19t15.5 15.5t19 11t29 11t30.5 11.5q35 14 73 32.5t57 26t35 7.5q53 0 53 -59zM278 -494q-12 0 -19.5 7.5t-7.5 19.5q0 11 15.5 33.5t31 53.5t15.5 64q0 10 -18.5 29t-37.5 46.5t-19 59.5q0 45 30.5 72.5t73.5 27.5q54 0 85.5 -36.5
t31.5 -97.5q0 -67 -33 -134t-75.5 -106t-72.5 -39z" />
    <glyph glyph-name="Lcaron" unicode="&#x13d;" horiz-adv-x="1200" 
d="M745 1022q6 47 12 147.5t10 127.5q15 106 93 106q35 0 56 -27t21 -78q0 -70 -42 -178q-43 -113 -72 -161t-54 -48q-31 0 -31 38q0 17 7 73zM327 711q0 439 -2 473q-2 33 -14.5 57t-27.5 37t-30.5 23.5t-25.5 22.5t-10 29q0 45 62 45q18 0 73 -2.5t81 -2.5q27 0 97 2.5
t86 2.5q60 0 60 -45q0 -22 -20 -39t-44 -28t-46 -39t-25 -69q-5 -52 -5 -467v-492q0 -44 15.5 -62t61 -25.5t151.5 -7.5q104 0 165.5 9.5t103 39t62 69.5t42.5 114q17 52 30.5 70t32.5 18q38 0 38 -73q0 -27 -10 -136.5t-13 -173.5q-4 -66 -81 -66q-8 0 -138 2.5t-277 2.5
q-132 0 -231 -1t-149 -2.5t-63 -1.5q-65 0 -65 42q0 20 14.5 34t33 22t36.5 27.5t23 48.5q9 50 9 542z" />
    <glyph glyph-name="lcaron" unicode="&#x13e;" horiz-adv-x="729" 
d="M456 1446q0 -14 -4.5 -103t-4.5 -215v-916q0 -44 12.5 -68.5t37.5 -43.5q8 -6 21.5 -14t20.5 -12.5t13 -13.5t6 -21q0 -44 -64 -44q-18 0 -68 2.5t-74 2.5q-26 0 -75 -2.5t-78 -2.5q-60 0 -60 42q0 12 6.5 22t13 15t18.5 12.5t16 10.5q35 25 46.5 53t11.5 71v1030
q0 56 -70 78q-41 16 -41 42q0 11 4 19t15.5 15.5t19 11t29 11t30.5 11.5q35 14 73 32.5t57 26t35 7.5q53 0 53 -59zM589 1124q6 47 11.5 148t9.5 128q15 105 93 105q35 0 56 -26.5t21 -77.5q0 -70 -42 -178q-43 -113 -72 -161t-54 -48q-30 0 -30 38q0 16 7 72z" />
    <glyph glyph-name="Ldot" unicode="&#x13f;" horiz-adv-x="1200" 
d="M327 711q0 439 -2 473q-2 33 -14.5 57t-27.5 37t-30.5 23.5t-25.5 22.5t-10 29q0 45 62 45q18 0 73 -2.5t81 -2.5q27 0 97 2.5t86 2.5q60 0 60 -45q0 -22 -20 -39t-44 -28t-46 -39t-25 -69q-5 -52 -5 -467v-492q0 -44 15.5 -62t61 -25.5t151.5 -7.5q132 0 199.5 17.5
t105 63t67.5 142.5q17 51 30.5 69.5t32.5 18.5q39 0 39 -74q0 -27 -10 -131t-13 -169q-4 -66 -81 -66q-8 0 -138 2.5t-277 2.5q-132 0 -231 -1t-149 -2.5t-63 -1.5q-65 0 -65 42q0 20 14.5 34t33 22t36.5 27.5t23 48.5q9 50 9 542zM1170 732q0 -62 -41.5 -99.5t-98.5 -37.5
q-54 0 -90.5 31.5t-36.5 90.5q0 63 42 102t98 39q52 0 89.5 -33.5t37.5 -92.5z" />
    <glyph glyph-name="ldot" unicode="&#x140;" horiz-adv-x="912" 
d="M456 1446q0 -14 -4.5 -103t-4.5 -215v-916q0 -44 12.5 -68.5t37.5 -43.5q8 -6 21.5 -14t20.5 -12.5t13 -13.5t6 -21q0 -44 -64 -44q-18 0 -68 2.5t-74 2.5q-26 0 -75 -2.5t-78 -2.5q-60 0 -60 42q0 12 6.5 22t13 15t18.5 12.5t16 10.5q35 25 46.5 53t11.5 71v1030
q0 56 -70 78q-41 16 -41 42q0 11 4 19t15.5 15.5t19 11t29 11t30.5 11.5q35 14 73 32.5t57 26t35 7.5q53 0 53 -59zM938 531q0 -62 -41.5 -99.5t-98.5 -37.5q-54 0 -90.5 31.5t-36.5 90.5q0 63 42 102t98 39q52 0 89.5 -33.5t37.5 -92.5z" />
    <glyph glyph-name="Lslash" unicode="&#x141;" horiz-adv-x="1200" 
d="M257 708q0 442 -2 476q-2 33 -14.5 57t-27.5 37t-30.5 23.5t-25.5 22.5t-10 29q0 45 62 45q18 0 73.5 -2.5t81.5 -2.5q27 0 97 2.5t86 2.5q59 0 59 -45q0 -22 -20 -39t-44 -28t-46 -39t-25 -69q-5 -45 -5 -373l160 79q39 19 57 19q21 0 32 -25.5t11 -58.5q0 -31 -57 -60
l-203 -99v-441q0 -44 15.5 -62t61 -25.5t151.5 -7.5q104 0 165.5 9.5t103 39t62 69.5t42.5 114q17 52 30.5 70t32.5 18q38 0 38 -73q0 -28 -9.5 -137.5t-12.5 -172.5q-4 -66 -82 -66q-8 0 -138 2.5t-277 2.5q-132 0 -231 -1t-148.5 -2.5t-62.5 -1.5q-66 0 -66 42q0 20 15 34
t33.5 22t36.5 27.5t23 48.5q6 34 8 395l-86 -42q-44 -19 -58 -19q-20 0 -30.5 24.5t-10.5 57.5t57 60z" />
    <glyph glyph-name="lslash" unicode="&#x142;" horiz-adv-x="562" 
d="M379 1446q0 -14 -4 -103t-4 -215v-285l116 57q41 20 57 20q20 0 29.5 -21.5t9.5 -47.5q0 -31 -54 -58l-158 -77v-504q0 -44 12 -68.5t37 -43.5q8 -6 21.5 -14t20.5 -12.5t13 -13.5t6 -21q0 -44 -64 -44q-19 0 -68 2.5t-74 2.5q-27 0 -75 -2.5t-78 -2.5q-60 0 -60 42
q0 12 6.5 22t13 15t18.5 12.5t16 10.5q35 25 46.5 53t11.5 71v405l-104 -51q-43 -19 -57 -19q-19 0 -28.5 20.5t-9.5 46.5q0 32 55 57l144 72v499q0 56 -70 78q-41 16 -41 42q0 11 4 19t15.5 15.5t19 11t29 11t30.5 11.5q34 14 73 32.5t58 26t35 7.5q52 0 52 -59z" />
    <glyph glyph-name="Nacute" unicode="&#x143;" horiz-adv-x="1469" 
d="M716 1568q81 61 153 147q33 41 63.5 63t67.5 22q42 0 69 -25t27 -65q0 -69 -109 -135q-70 -42 -147.5 -70.5t-123.5 -28.5q-44 0 -44 32q0 24 44 60zM279 1398q14 0 64.5 -2.5t72.5 -2.5q73 0 99 -13q13 -6 27 -20.5t23 -26.5t39 -53l570 -838q42 -59 55 -59q2 0 3.5 1.5
t3 11t2 29.5t1.5 57.5t1 94v139.5q0 463 -19 508q-7 25 -25.5 45t-36.5 30t-32.5 24.5t-14.5 31.5q0 43 59 43q26 0 74.5 -2.5t61.5 -2.5q17 0 60 2.5t66 2.5q54 0 54 -45q0 -19 -15 -34.5t-33 -26t-34.5 -35t-18.5 -58.5q-6 -60 -6 -482q0 -207 3.5 -345t6.5 -199.5
t3 -86.5q0 -41 -37.5 -71t-84.5 -30q-34 0 -71 49l-690 996q-23 30 -29 30t-8.5 -6.5t-4.5 -47t-2.5 -110t-0.5 -211.5q0 -469 22 -521q8 -25 27.5 -44t37.5 -28t32 -22.5t14 -29.5q0 -45 -61 -45q-27 0 -76 2.5t-61 2.5q-18 0 -62 -2.5t-69 -2.5q-58 0 -58 43q0 19 16 34
t35.5 25t37.5 34.5t21 58.5q6 69 6 516q0 451 -3 478q-3 34 -15 58t-27 36.5t-30 22.5t-25 22.5t-10 29.5q0 45 62 45z" />
    <glyph glyph-name="nacute" unicode="&#x144;" 
d="M604 1231q55 98 84 183q11 34 21 55.5t33.5 41.5t56.5 20q39 0 61 -25.5t22 -60.5q0 -54 -52 -124q-46 -65 -113 -117.5t-99 -52.5q-35 0 -35 31q0 10 21 49zM1152 633q0 -120 -15 -274t-15 -169q0 -61 48 -91q9 -6 25.5 -14t23.5 -12t13.5 -13t6.5 -21q0 -44 -69 -44
q-18 0 -54 2.5t-66 2.5t-68.5 -2.5t-55.5 -2.5q-48 0 -48 42q0 12 4 26t10.5 29.5t7.5 19.5q17 52 32 187.5t15 285.5q0 158 -61.5 238.5t-170.5 80.5q-97 0 -184.5 -78t-87.5 -154v-460q0 -44 11 -69t36 -43q8 -6 27 -16.5t27 -20t8 -24.5q0 -44 -66 -44q-26 0 -69.5 2.5
t-68.5 2.5t-73.5 -2.5t-78.5 -2.5q-61 0 -61 42q0 12 6.5 22t12.5 15t19 13t16 10q35 25 47 53.5t12 70.5v575q0 32 -18 48.5t-53 27.5q-39 16 -39 42q0 12 4.5 20.5t15.5 15.5t20 11t29 11t31 12q19 8 46 20t39.5 17.5t27.5 10t26 4.5q40 0 50 -48q2 -12 5.5 -32.5
t5.5 -32.5t5 -25.5t7 -20t9 -6.5q4 0 35 28t71.5 61t109 61t138.5 28q160 0 249.5 -105t89.5 -311z" />
    <glyph glyph-name="uni0145" unicode="&#x145;" horiz-adv-x="1469" 
d="M279 1398q14 0 64.5 -2.5t72.5 -2.5q73 0 99 -13q13 -6 27 -20.5t23 -26.5t39 -53l570 -838q42 -59 55 -59q2 0 3.5 1.5t3 11t2 29.5t1.5 57.5t1 94v139.5q0 463 -19 508q-7 25 -25.5 45t-36.5 30t-32.5 24.5t-14.5 31.5q0 43 59 43q26 0 74.5 -2.5t61.5 -2.5
q17 0 60 2.5t66 2.5q54 0 54 -45q0 -19 -15 -34.5t-33 -26t-34.5 -35t-18.5 -58.5q-6 -60 -6 -482q0 -207 3.5 -345t6.5 -199.5t3 -86.5q0 -41 -37.5 -71t-84.5 -30q-34 0 -71 49l-690 996q-23 30 -29 30t-8.5 -6.5t-4.5 -47t-2.5 -110t-0.5 -211.5q0 -469 22 -521
q8 -25 27.5 -44t37.5 -28t32 -22.5t14 -29.5q0 -45 -61 -45q-27 0 -76 2.5t-61 2.5q-18 0 -62 -2.5t-69 -2.5q-58 0 -58 43q0 19 16 34t35.5 25t37.5 34.5t21 58.5q6 69 6 516q0 451 -3 478q-3 34 -15 58t-27 36.5t-30 22.5t-25 22.5t-10 29.5q0 45 62 45zM793 -494
q-12 0 -19.5 7.5t-7.5 19.5q0 11 15.5 33.5t31 53.5t15.5 64q0 9 -11.5 22.5t-26 27.5t-26 37t-11.5 48q0 45 30.5 72.5t73.5 27.5q54 0 85.5 -36.5t31.5 -97.5q0 -67 -33 -134t-75.5 -106t-72.5 -39z" />
    <glyph glyph-name="uni0146" unicode="&#x146;" 
d="M1152 633q0 -120 -15 -274t-15 -169q0 -61 48 -91q9 -6 25.5 -14t23.5 -12t13.5 -13t6.5 -21q0 -44 -69 -44q-18 0 -54 2.5t-66 2.5t-68.5 -2.5t-55.5 -2.5q-48 0 -48 42q0 12 4 26t10.5 29.5t7.5 19.5q17 52 32 187.5t15 285.5q0 158 -61.5 238.5t-170.5 80.5
q-97 0 -184.5 -78t-87.5 -154v-460q0 -44 11 -69t36 -43q8 -6 27 -16.5t27 -20t8 -24.5q0 -44 -66 -44q-26 0 -69.5 2.5t-68.5 2.5t-73.5 -2.5t-78.5 -2.5q-61 0 -61 42q0 12 6.5 22t12.5 15t19 13t16 10q35 25 47 53.5t12 70.5v575q0 32 -18 48.5t-53 27.5q-39 16 -39 42
q0 12 4.5 20.5t15.5 15.5t20 11t29 11t31 12q19 8 46 20t39.5 17.5t27.5 10t26 4.5q40 0 50 -48q2 -12 5.5 -32.5t5.5 -32.5t5 -25.5t7 -20t9 -6.5q4 0 35 28t71.5 61t109 61t138.5 28q160 0 249.5 -105t89.5 -311zM613 -494q-26 0 -26 27q0 11 15.5 33.5t31 53.5t15.5 64
q0 10 -19 29t-38 46.5t-19 59.5q0 45 31 72.5t74 27.5q54 0 85.5 -36.5t31.5 -97.5q0 -67 -33.5 -134t-76 -106t-72.5 -39z" />
    <glyph glyph-name="Ncaron" unicode="&#x147;" horiz-adv-x="1469" 
d="M611 1800q68 0 182 -79q50 -35 62 -35q4 0 7.5 1t6.5 2.5t8.5 5t9 6.5t12 9.5t14.5 10.5q44 31 96.5 55t81.5 24q15 0 25 -8.5t10 -22.5q0 -15 -26 -43q-82 -88 -151 -182q-20 -25 -29.5 -35.5t-28 -21.5t-40.5 -11q-30 0 -50.5 16.5t-47.5 51.5q-60 81 -151 180
q-28 28 -28 46q0 14 11 22t26 8zM279 1398q14 0 64.5 -2.5t72.5 -2.5q73 0 99 -13q13 -6 27 -20.5t23 -26.5t39 -53l570 -838q42 -59 55 -59q2 0 3.5 1.5t3 11t2 29.5t1.5 57.5t1 94v139.5q0 463 -19 508q-7 25 -25.5 45t-36.5 30t-32.5 24.5t-14.5 31.5q0 43 59 43
q26 0 74.5 -2.5t61.5 -2.5q17 0 60 2.5t66 2.5q54 0 54 -45q0 -19 -15 -34.5t-33 -26t-34.5 -35t-18.5 -58.5q-6 -60 -6 -482q0 -207 3.5 -345t6.5 -199.5t3 -86.5q0 -41 -37.5 -71t-84.5 -30q-34 0 -71 49l-690 996q-23 30 -29 30t-8.5 -6.5t-4.5 -47t-2.5 -110
t-0.5 -211.5q0 -469 22 -521q8 -25 27.5 -44t37.5 -28t32 -22.5t14 -29.5q0 -45 -61 -45q-27 0 -76 2.5t-61 2.5q-18 0 -62 -2.5t-69 -2.5q-58 0 -58 43q0 19 16 34t35.5 25t37.5 34.5t21 58.5q6 69 6 516q0 451 -3 478q-3 34 -15 58t-27 36.5t-30 22.5t-25 22.5t-10 29.5
q0 45 62 45z" />
    <glyph glyph-name="ncaron" unicode="&#x148;" 
d="M489 1519q52 0 154 -104q10 -11 22.5 -25.5t18.5 -20t11 -5.5t11 5.5t19 20t23 24.5q99 105 146 105q12 0 20.5 -7.5t8.5 -19.5q0 -15 -24 -45q-64 -89 -126 -224q-12 -24 -20.5 -37t-24.5 -24.5t-37 -11.5q-51 0 -84 73q-56 125 -124 224q-23 30 -23 45q0 11 8.5 19
t20.5 8zM1152 633q0 -120 -15 -274t-15 -169q0 -61 48 -91q9 -6 25.5 -14t23.5 -12t13.5 -13t6.5 -21q0 -44 -69 -44q-18 0 -54 2.5t-66 2.5t-68.5 -2.5t-55.5 -2.5q-48 0 -48 42q0 12 4 26t10.5 29.5t7.5 19.5q17 52 32 187.5t15 285.5q0 158 -61.5 238.5t-170.5 80.5
q-97 0 -184.5 -78t-87.5 -154v-460q0 -44 11 -69t36 -43q8 -6 27 -16.5t27 -20t8 -24.5q0 -44 -66 -44q-26 0 -69.5 2.5t-68.5 2.5t-73.5 -2.5t-78.5 -2.5q-61 0 -61 42q0 12 6.5 22t12.5 15t19 13t16 10q35 25 47 53.5t12 70.5v575q0 32 -18 48.5t-53 27.5q-39 16 -39 42
q0 12 4.5 20.5t15.5 15.5t20 11t29 11t31 12q19 8 46 20t39.5 17.5t27.5 10t26 4.5q40 0 50 -48q2 -12 5.5 -32.5t5.5 -32.5t5 -25.5t7 -20t9 -6.5q4 0 35 28t71.5 61t109 61t138.5 28q160 0 249.5 -105t89.5 -311z" />
    <glyph glyph-name="Omacron" unicode="&#x14c;" horiz-adv-x="1495" 
d="M1035 1541h-495q-45 0 -45 42q0 48 18 81q16 34 87 34h497q46 0 46 -39q0 -42 -21 -82q-19 -36 -87 -36zM141 685q0 327 187 534t478 207q111 0 213.5 -32.5t188.5 -97t150.5 -155t100.5 -213.5t36 -265q0 -170 -52.5 -305t-144 -219.5t-212 -129t-261.5 -44.5
q-207 0 -363.5 92.5t-238.5 255.5t-82 372zM782 1300q-77 0 -148 -36t-127 -103t-89.5 -174t-33.5 -238q0 -221 82 -390q36 -71 84.5 -123t102 -80t104.5 -41t102 -13q84 0 156 30.5t129 90t89.5 157t32.5 221.5q0 117 -26.5 232t-74.5 205q-64 122 -165 192t-218 70z" />
    <glyph glyph-name="omacron" unicode="&#x14d;" horiz-adv-x="1131" 
d="M804 1217h-426q-45 0 -45 41q0 44 18 76q15 31 85 31h428q44 0 44 -38q0 -45 -18 -77q-19 -33 -86 -33zM111 507q0 239 140.5 390.5t358.5 151.5q104 0 198 -38.5t166 -108.5t115 -177.5t43 -236.5q0 -124 -40 -222t-109.5 -160t-160.5 -94t-197 -32q-233 0 -373.5 147.5
t-140.5 379.5zM591 937q-115 0 -191 -97t-76 -271q0 -169 59 -287q48 -92 120.5 -135t150.5 -43q115 0 193.5 85.5t78.5 250.5q0 177 -73 317q-49 89 -117.5 134.5t-144.5 45.5z" />
    <glyph glyph-name="Obreve" unicode="&#x14e;" horiz-adv-x="1495" 
d="M817 1477q-61 0 -110 17t-78.5 43.5t-49 61t-27 66t-7.5 62.5q0 59 29 59q3 0 5.5 -0.5t5 -2t4.5 -3t4 -4.5t3.5 -5.5t4 -7.5l4 -8t5 -9.5t5.5 -10.5q67 -109 202 -109t200 109q10 21 14.5 29.5t12 15t16.5 6.5q31 0 31 -59q0 -40 -13.5 -80t-42.5 -80t-85.5 -65
t-132.5 -25zM141 685q0 327 187 534t478 207q111 0 213.5 -32.5t188.5 -97t150.5 -155t100.5 -213.5t36 -265q0 -170 -52.5 -305t-144 -219.5t-212 -129t-261.5 -44.5q-207 0 -363.5 92.5t-238.5 255.5t-82 372zM782 1300q-77 0 -148 -36t-127 -103t-89.5 -174t-33.5 -238
q0 -221 82 -390q36 -71 84.5 -123t102 -80t104.5 -41t102 -13q84 0 156 30.5t129 90t89.5 157t32.5 221.5q0 117 -26.5 232t-74.5 205q-64 122 -165 192t-218 70z" />
    <glyph glyph-name="obreve" unicode="&#x14f;" horiz-adv-x="1131" 
d="M621 1164q-55 0 -99 18t-71 46t-45 64t-25 68.5t-7 63.5q0 60 27 60q16 0 36 -48l3 -6q60 -115 181 -115q123 0 180 115q19 45 29 51q4 3 10 3q28 0 28 -60q0 -31 -7 -63.5t-25 -68.5t-45 -64t-71 -46t-99 -18zM111 507q0 239 140.5 390.5t358.5 151.5q104 0 198 -38.5
t166 -108.5t115 -177.5t43 -236.5q0 -124 -40 -222t-109.5 -160t-160.5 -94t-197 -32q-233 0 -373.5 147.5t-140.5 379.5zM591 937q-115 0 -191 -97t-76 -271q0 -169 59 -287q48 -92 120.5 -135t150.5 -43q115 0 193.5 85.5t78.5 250.5q0 177 -73 317q-49 89 -117.5 134.5
t-144.5 45.5z" />
    <glyph glyph-name="Ohungarumlaut" unicode="&#x150;" horiz-adv-x="1495" 
d="M598 1565q68 58 133 153q20 30 33.5 46.5t37 31.5t50.5 15q41 0 66.5 -26t25.5 -66q0 -61 -91 -129q-64 -47 -136 -80.5t-114 -33.5q-18 0 -29.5 8t-11.5 23q0 21 36 58zM915 1564q74 65 137 154q22 31 35.5 46.5t38.5 31t52 15.5q40 0 65.5 -25t25.5 -65
q0 -37 -24.5 -67.5t-69.5 -64.5q-64 -47 -138.5 -80t-118.5 -33q-40 0 -40 31q0 20 37 57zM141 685q0 327 187 534t478 207q111 0 213.5 -32.5t188.5 -97t150.5 -155t100.5 -213.5t36 -265q0 -170 -52.5 -305t-144 -219.5t-212 -129t-261.5 -44.5q-207 0 -363.5 92.5
t-238.5 255.5t-82 372zM782 1300q-77 0 -148 -36t-127 -103t-89.5 -174t-33.5 -238q0 -221 82 -390q36 -71 84.5 -123t102 -80t104.5 -41t102 -13q84 0 156 30.5t129 90t89.5 157t32.5 221.5q0 117 -26.5 232t-74.5 205q-64 122 -165 192t-218 70z" />
    <glyph glyph-name="ohungarumlaut" unicode="&#x151;" horiz-adv-x="1131" 
d="M431 1233q47 96 68 181q6 25 11.5 41.5t16.5 36.5t29 30t43 10q42 0 65 -27.5t23 -67.5q0 -51 -42 -115q-43 -66 -103.5 -118.5t-91.5 -52.5q-17 0 -26 8.5t-9 21.5q0 18 16 52zM710 1231q55 98 84 183q8 26 14.5 41.5t19.5 35.5t31.5 30t43.5 10q40 0 62 -25.5t22 -60.5
q0 -55 -51 -124q-46 -64 -113 -117t-99 -53q-36 0 -36 31q0 9 22 49zM111 507q0 239 140.5 390.5t358.5 151.5q104 0 198 -38.5t166 -108.5t115 -177.5t43 -236.5q0 -124 -40 -222t-109.5 -160t-160.5 -94t-197 -32q-233 0 -373.5 147.5t-140.5 379.5zM591 937
q-115 0 -191 -97t-76 -271q0 -169 59 -287q48 -92 120.5 -135t150.5 -43q115 0 193.5 85.5t78.5 250.5q0 177 -73 317q-49 89 -117.5 134.5t-144.5 45.5z" />
    <glyph glyph-name="OE" unicode="&#x152;" horiz-adv-x="1978" 
d="M1414 1393q112 0 198.5 1.5t130.5 2.5t53 1q36 0 51.5 -14.5t23.5 -61.5q4 -19 14 -93.5t16 -109.5q11 -55 11 -83q0 -22 -11.5 -33t-29.5 -11q-16 0 -30 16t-19 26.5t-16 38.5q-20 48 -32.5 74t-33.5 52.5t-42 37.5t-58.5 21t-82.5 12.5t-115 2.5q-104 0 -148.5 -7.5
t-60.5 -28t-16 -68.5v-297q0 -41 12.5 -55.5t52.5 -14.5q92 0 144.5 5t82.5 22t40.5 32.5t26.5 53.5q19 34 40 34q23 0 33 -20.5t10 -71.5v-261q0 -40 -8.5 -58t-30.5 -18q-14 0 -25 9t-15.5 18t-11.5 25q-14 30 -22.5 43.5t-26.5 29t-46.5 21t-73 9t-114.5 3.5
q-40 0 -54 -16t-14 -55v-378q0 -31 5.5 -48.5t17 -30t41.5 -17.5t65.5 -7t103.5 -2q109 0 172 8.5t109 36t72 68t55 116.5q27 70 59 70q20 0 29 -16.5t9 -56.5q0 -23 -16.5 -147.5t-17.5 -143.5q-3 -64 -83 -64q-11 0 -59 1t-132.5 2.5t-183.5 1.5q-148 0 -352.5 -4.5
t-245.5 -4.5q-112 0 -214.5 23.5t-196 77.5t-162.5 133t-110 198t-41 265q0 329 181.5 521.5t478.5 192.5q38 0 224.5 -4.5t388.5 -4.5zM1009 240v928q0 115 -201 115q-90 0 -163.5 -30.5t-122.5 -82.5t-82 -123.5t-47.5 -150.5t-14.5 -166q0 -103 16.5 -191.5t54.5 -166
t95.5 -132t144 -86t195.5 -31.5q67 0 96 26t29 91z" />
    <glyph glyph-name="oe" unicode="&#x153;" horiz-adv-x="1798" 
d="M1719 561q-82 -53 -249.5 -79t-321.5 -28q-26 -1 -26 -21q0 -40 17.5 -87.5t51.5 -95t96 -79t141 -31.5q114 0 192.5 52t121.5 136q19 30 35 30q23 0 23 -48q0 -36 -15.5 -79t-50 -88t-82.5 -81.5t-119 -60t-153 -23.5q-214 0 -347 158q-20 25 -28 25t-28 -21
q-63 -77 -158.5 -118.5t-203.5 -41.5q-228 0 -366 147.5t-138 379.5q0 238 138 390t352 152q117 0 218.5 -51.5t167.5 -146.5q14 -16 21 -16q8 0 22 20q141 194 371 194q173 0 277.5 -107t104.5 -265q0 -76 -64 -116zM587 937q-112 0 -187 -96.5t-75 -270.5q0 -172 58 -288
q48 -92 117 -134.5t144 -42.5q113 0 188 85t75 250q0 179 -69 317q-48 89 -113.5 134.5t-137.5 45.5zM1591 705q0 99 -60 165.5t-148 66.5q-78 0 -142.5 -48t-99.5 -125t-35 -163q0 -44 30 -44q84 0 219.5 22t196.5 58q39 23 39 68z" />
    <glyph glyph-name="Racute" unicode="&#x154;" horiz-adv-x="1393" 
d="M640 1568q83 63 154 147q33 41 63.5 63t67.5 22q42 0 68.5 -25t26.5 -65q0 -69 -109 -135q-70 -42 -147.5 -70.5t-123.5 -28.5q-44 0 -44 32q0 24 44 60zM536 525v-304q0 -78 62 -117q8 -6 24.5 -15.5t25 -15t15.5 -15t7 -21.5q0 -42 -65 -42q-18 0 -82 2.5t-90 2.5
q-31 0 -87 -2.5t-70 -2.5q-65 0 -65 42q0 18 15 31.5t34 22t36.5 29t21.5 49.5q9 64 9 542q0 439 -3 473q-3 40 -20.5 67.5t-36.5 38.5t-34.5 27t-15.5 36q0 45 62 45q23 0 84 -2.5t109 -2.5q50 0 149.5 3.5t174.5 3.5q249 0 378 -98t129 -282q0 -251 -324 -356
q-13 -5 -13 -15q0 -9 15 -17q43 -27 83 -61.5t67.5 -64t61.5 -78t52.5 -77.5t53.5 -87q29 -47 40 -64.5t34 -44.5t49 -44q10 -7 23.5 -15.5t20.5 -13t14 -11t10 -14t3 -17.5q0 -45 -53 -45q-19 0 -78.5 2.5t-83.5 2.5q-43 0 -94.5 -2.5t-57.5 -2.5q-26 0 -42.5 12.5
t-16.5 29.5q0 14 13 36t13 49q0 98 -94.5 240t-183.5 195q-28 16 -74 25t-71 11t-40 2q-53 0 -73.5 -17.5t-20.5 -52.5zM1072 1002q0 130 -92.5 199.5t-248.5 69.5q-49 0 -78 -1t-53.5 -5.5t-35 -10.5t-18 -20t-9 -28.5t-1.5 -41.5v-360q0 -42 37.5 -59t150.5 -17
q165 0 256.5 73.5t91.5 200.5z" />
    <glyph glyph-name="racute" unicode="&#x155;" horiz-adv-x="914" 
d="M455 1231q55 98 84 183q8 26 15 42t19.5 35.5t31.5 29.5t44 10q39 0 61 -25.5t22 -60.5q0 -55 -51 -124q-46 -65 -113 -117.5t-99 -52.5q-36 0 -36 31q0 9 22 49zM664 886q-81 0 -151 -83t-70 -168v-418q0 -45 17.5 -70t60.5 -48q6 -3 33 -13t39.5 -20t12.5 -27
q0 -44 -65 -44q-22 0 -87 2.5t-106 2.5q-25 0 -66 -2.5t-86 -2.5q-61 0 -61 42q0 12 6.5 22t12.5 15t19 13t16 10q35 25 47 53.5t12 70.5v575q0 32 -18 48.5t-53 27.5q-39 16 -39 42q0 12 4.5 20.5t15.5 15.5t20 11t29 11t31 12q19 8 46 20t39.5 17.5t27.5 10t26 4.5
q40 0 50 -48q2 -12 5.5 -32.5t5.5 -32.5t5 -25.5t7 -20t9 -6.5t32.5 28t64 61t97 61t122.5 28q72 0 123.5 -46t51.5 -136q0 -69 -39.5 -120.5t-96.5 -51.5q-15 0 -24 3t-14.5 13t-7.5 16.5t-5 27t-5 30.5q-9 47 -33 74t-61 27z" />
    <glyph glyph-name="uni0156" unicode="&#x156;" horiz-adv-x="1393" 
d="M536 525v-304q0 -78 62 -117q8 -6 24.5 -15.5t25 -15t15.5 -15t7 -21.5q0 -42 -65 -42q-18 0 -82 2.5t-90 2.5q-31 0 -87 -2.5t-70 -2.5q-65 0 -65 42q0 18 15 31.5t34 22t36.5 29t21.5 49.5q9 64 9 542q0 439 -3 473q-3 40 -20.5 67.5t-36.5 38.5t-34.5 27t-15.5 36
q0 45 62 45q23 0 84 -2.5t109 -2.5q50 0 149.5 3.5t174.5 3.5q249 0 378 -98t129 -282q0 -251 -324 -356q-13 -5 -13 -15q0 -9 15 -17q43 -27 83 -61.5t67.5 -64t61.5 -78t52.5 -77.5t53.5 -87q29 -47 40 -64.5t34 -44.5t49 -44q10 -7 23.5 -15.5t20.5 -13t14 -11t10 -14
t3 -17.5q0 -45 -53 -45q-19 0 -78.5 2.5t-83.5 2.5q-43 0 -94.5 -2.5t-57.5 -2.5q-26 0 -42.5 12.5t-16.5 29.5q0 14 13 36t13 49q0 98 -94.5 240t-183.5 195q-28 16 -74 25t-71 11t-40 2q-53 0 -73.5 -17.5t-20.5 -52.5zM1072 1002q0 130 -92.5 199.5t-248.5 69.5
q-49 0 -78 -1t-53.5 -5.5t-35 -10.5t-18 -20t-9 -28.5t-1.5 -41.5v-360q0 -42 37.5 -59t150.5 -17q165 0 256.5 73.5t91.5 200.5zM760 -494q-12 0 -19.5 7.5t-7.5 19.5q0 11 15.5 33.5t31.5 53.5t16 64q0 10 -19 29t-38 46.5t-19 59.5q0 45 30.5 72.5t73.5 27.5
q54 0 85.5 -36.5t31.5 -97.5q0 -67 -33 -134t-75.5 -106t-72.5 -39z" />
    <glyph glyph-name="uni0157" unicode="&#x157;" horiz-adv-x="914" 
d="M664 886q-81 0 -151 -83t-70 -168v-418q0 -45 17.5 -70t60.5 -48q6 -3 33 -13t39.5 -20t12.5 -27q0 -44 -65 -44q-22 0 -87 2.5t-106 2.5q-25 0 -66 -2.5t-86 -2.5q-61 0 -61 42q0 12 6.5 22t12.5 15t19 13t16 10q35 25 47 53.5t12 70.5v575q0 32 -18 48.5t-53 27.5
q-39 16 -39 42q0 12 4.5 20.5t15.5 15.5t20 11t29 11t31 12q19 8 46 20t39.5 17.5t27.5 10t26 4.5q40 0 50 -48q2 -12 5.5 -32.5t5.5 -32.5t5 -25.5t7 -20t9 -6.5t32.5 28t64 61t97 61t122.5 28q72 0 123.5 -46t51.5 -136q0 -69 -39.5 -120.5t-96.5 -51.5q-15 0 -24 3
t-14.5 13t-7.5 16.5t-5 27t-5 30.5q-9 47 -33 74t-61 27zM274 -494q-26 0 -26 27q0 11 15.5 33.5t31 53.5t15.5 64q0 10 -19 29t-38 46.5t-19 59.5q0 45 31 72.5t74 27.5q54 0 85.5 -36.5t31.5 -97.5q0 -67 -33.5 -134t-76 -106t-72.5 -39z" />
    <glyph glyph-name="Rcaron" unicode="&#x158;" horiz-adv-x="1393" 
d="M537 1800q67 0 181 -79q50 -35 62 -35q3 0 6 0.5t7 2.5t6.5 3t8 5t8.5 6.5t10.5 8.5t12.5 9q44 31 96 55t81 24q15 0 25.5 -8.5t10.5 -22.5t-27 -43q-82 -88 -151 -182q-20 -25 -29.5 -35.5t-28 -21.5t-40.5 -11q-30 0 -50.5 16.5t-47.5 51.5q-60 81 -151 180
q-27 27 -27 46q0 14 11 22t26 8zM536 525v-304q0 -78 62 -117q8 -6 24.5 -15.5t25 -15t15.5 -15t7 -21.5q0 -42 -65 -42q-18 0 -82 2.5t-90 2.5q-31 0 -87 -2.5t-70 -2.5q-65 0 -65 42q0 18 15 31.5t34 22t36.5 29t21.5 49.5q9 64 9 542q0 439 -3 473q-3 40 -20.5 67.5
t-36.5 38.5t-34.5 27t-15.5 36q0 45 62 45q23 0 84 -2.5t109 -2.5q50 0 149.5 3.5t174.5 3.5q249 0 378 -98t129 -282q0 -251 -324 -356q-13 -5 -13 -15q0 -9 15 -17q43 -27 83 -61.5t67.5 -64t61.5 -78t52.5 -77.5t53.5 -87q29 -47 40 -64.5t34 -44.5t49 -44
q10 -7 23.5 -15.5t20.5 -13t14 -11t10 -14t3 -17.5q0 -45 -53 -45q-19 0 -78.5 2.5t-83.5 2.5q-43 0 -94.5 -2.5t-57.5 -2.5q-26 0 -42.5 12.5t-16.5 29.5q0 14 13 36t13 49q0 98 -94.5 240t-183.5 195q-28 16 -74 25t-71 11t-40 2q-53 0 -73.5 -17.5t-20.5 -52.5z
M1072 1002q0 130 -92.5 199.5t-248.5 69.5q-49 0 -78 -1t-53.5 -5.5t-35 -10.5t-18 -20t-9 -28.5t-1.5 -41.5v-360q0 -42 37.5 -59t150.5 -17q165 0 256.5 73.5t91.5 200.5z" />
    <glyph glyph-name="rcaron" unicode="&#x159;" horiz-adv-x="914" 
d="M329 1519q51 0 153 -104q10 -10 23 -25.5t19 -20.5t11 -5t11 5.5t18.5 20t22.5 24.5q99 105 146 105q12 0 20.5 -7.5t8.5 -19.5q0 -15 -24 -45q-64 -89 -126 -224q-12 -24 -20.5 -37t-24.5 -24.5t-37 -11.5q-51 0 -84 73q-35 78 -59 122t-64 102q-24 31 -24 45q0 11 9 19
t21 8zM664 886q-81 0 -151 -83t-70 -168v-418q0 -45 17.5 -70t60.5 -48q6 -3 33 -13t39.5 -20t12.5 -27q0 -44 -65 -44q-22 0 -87 2.5t-106 2.5q-25 0 -66 -2.5t-86 -2.5q-61 0 -61 42q0 12 6.5 22t12.5 15t19 13t16 10q35 25 47 53.5t12 70.5v575q0 32 -18 48.5t-53 27.5
q-39 16 -39 42q0 12 4.5 20.5t15.5 15.5t20 11t29 11t31 12q19 8 46 20t39.5 17.5t27.5 10t26 4.5q40 0 50 -48q2 -12 5.5 -32.5t5.5 -32.5t5 -25.5t7 -20t9 -6.5t32.5 28t64 61t97 61t122.5 28q72 0 123.5 -46t51.5 -136q0 -69 -39.5 -120.5t-96.5 -51.5q-15 0 -24 3
t-14.5 13t-7.5 16.5t-5 27t-5 30.5q-9 47 -33 74t-61 27z" />
    </font>
</defs>
</svg>
