<?xml version="1.0" standalone="no"?>
<!DOCTYPE svg PUBLIC "-//W3C//DTD SVG 1.1//EN" "http://www.w3.org/Graphics/SVG/1.1/DTD/svg11.dtd" >
<svg xmlns="http://www.w3.org/2000/svg" xmlns:xlink="http://www.w3.org/1999/xlink" version="1.1">
<metadata>
Created by FontForge 20201107 at Wed Mar 18 07:27:55 2026
 By www-data
Copyright (c) 2020, 2022, The Type Founders, LLC. All rights reserved.
</metadata>
<defs>
<font id="Gelica-SemiBold" horiz-adv-x="1112" >
  <font-face 
    font-family="Gelica SemiBold"
    font-weight="600"
    font-stretch="normal"
    units-per-em="2048"
    panose-1="0 0 0 0 0 0 0 0 0 0"
    ascent="1638"
    descent="-410"
    x-height="1043"
    cap-height="1398"
    bbox="-774 -500 2277 1872"
    underline-thickness="133"
    underline-position="-200"
    unicode-range="U+000D-F6C3"
  />
<missing-glyph horiz-adv-x="921" 
d="M922 1288v-1618q0 -59 -26 -81.5t-83 -22.5h-684q-57 0 -83 22.5t-26 81.5v1618q0 59 26 82t83 23h684q57 0 83 -23t26 -82zM471 584l307 522h-614zM524 492l307 -523v1045zM111 1014v-1045l307 523zM164 -123h614l-307 522z" />
    <glyph glyph-name=".notdef" horiz-adv-x="921" 
d="M922 1288v-1618q0 -59 -26 -81.5t-83 -22.5h-684q-57 0 -83 22.5t-26 81.5v1618q0 59 26 82t83 23h684q57 0 83 -23t26 -82zM471 584l307 522h-614zM524 492l307 -523v1045zM111 1014v-1045l307 523zM164 -123h614l-307 522z" />
    <glyph glyph-name=".null" horiz-adv-x="0" 
 />
    <glyph glyph-name="nonmarkingreturn" horiz-adv-x="682" 
 />
    <glyph glyph-name="NULL" horiz-adv-x="0" 
 />
    <glyph glyph-name="NULL" horiz-adv-x="0" 
 />
    <glyph glyph-name="CR" unicode="&#xd;" horiz-adv-x="583" 
 />
    <glyph glyph-name="space" unicode=" " horiz-adv-x="512" 
 />
    <glyph glyph-name="exclam" unicode="!" horiz-adv-x="568" 
d="M562 1238q0 -94 -37 -320.5t-72 -396.5q-17 -77 -61 -77q-39 0 -65 73q-31 84 -61 336t-30 374q0 200 168 200q158 0 158 -189zM569 166q0 -81 -54 -129.5t-130 -48.5q-70 0 -117 41t-47 117q0 82 55 133t127 51q68 0 117 -43.5t49 -120.5z" />
    <glyph glyph-name="quotedbl" unicode="&#x22;" horiz-adv-x="878" 
d="M374 804q-53 0 -72 78q-18 74 -37 211.5t-19 186.5q0 28 6 52.5t19.5 46.5t40 35t62.5 13q69 0 98.5 -42.5t29.5 -103.5q0 -46 -19 -181.5t-39 -217.5q-19 -78 -70 -78zM751 804q-53 0 -72 78q-18 74 -37 211.5t-19 186.5q0 61 29.5 104t98.5 43t98.5 -42.5t29.5 -103.5
q0 -47 -19 -182.5t-39 -216.5q-19 -78 -70 -78z" />
    <glyph glyph-name="numbersign" unicode="#" horiz-adv-x="1187" 
d="M1076 402h-129q-48 -382 -55 -403q-9 -24 -53 -24q-82 0 -82 41q0 18 3 37l41 349h-159q-48 -382 -55 -403q-9 -24 -53 -24q-83 0 -83 41q0 11 4 37l41 349h-156q-25 0 -25 27q0 50 14 98q7 20 15 26.5t30 6.5h141l30 251h-155q-23 0 -23 27q0 60 13 99q5 20 13.5 26
t30.5 6h141q49 387 60 424q6 20 58 20q75 0 75 -38q0 -23 -3 -42l-44 -364h159q49 387 60 424q6 20 58 20q76 0 76 -38q0 -3 -3 -42l-44 -364h146q22 0 22 -27q0 -56 -13 -99q-6 -20 -14.5 -26t-30.5 -6h-130l-30 -251h145q23 0 23 -26q0 -52 -13 -99q-6 -20 -15 -26.5
t-31 -6.5zM692 811l-30 -251h158l30 251h-158z" />
    <glyph glyph-name="dollar" unicode="$" horiz-adv-x="1187" 
d="M765 1520q0 -16 -5 -114q208 -17 303 -119q28 -30 46.5 -88.5t18.5 -125.5q0 -114 -53 -114q-17 0 -32.5 10t-24 21t-27.5 37.5t-30 40.5q-94 120 -209 157q-2 -48 -9 -176t-10 -202q56 -16 97 -30t92 -35.5t87 -44t73 -54.5t59.5 -68t37 -83.5t14.5 -102.5
q0 -101 -40.5 -183t-111 -134t-160.5 -81.5t-192 -33.5l-5 -109q-1 -27 -29.5 -47t-67.5 -20q-24 0 -31.5 10.5t-7.5 38.5q0 10 5 133q-96 16 -179 61t-133.5 99.5t-79 108t-28.5 92.5q0 30 11.5 47t29.5 17q10 0 20 -6.5t17 -14t21.5 -24.5t24.5 -27q128 -146 304 -174
l20 401q-89 28 -157 60.5t-130 81t-95.5 116.5t-33.5 151q0 169 124.5 282.5t333.5 131.5q4 85 7 106q3 23 31.5 43.5t65.5 20.5q38 0 38 -56zM410 1069q0 -64 45 -105t141 -75l18 353q-96 -4 -150 -52t-54 -121zM919 358q0 72 -49 112.5t-152 72.5l-20 -366q107 9 164 58
t57 123z" />
    <glyph glyph-name="percent" unicode="%" horiz-adv-x="1536" 
d="M803 1037q0 -167 -96.5 -273.5t-264.5 -106.5q-107 0 -185 50t-114.5 129t-36.5 175q0 174 101 292t262 118q150 0 242 -108t92 -276zM1299 1326q-21 -39 -421.5 -668.5t-418.5 -655.5q-22 -28 -60 -28q-28 0 -47.5 15t-19.5 36q0 12 10 35q10 19 188.5 299.5
t387.5 608.5t268 423q15 24 53 24q30 0 51 -16.5t21 -36.5q0 -18 -12 -36zM594 1000q0 131 -33 210q-19 42 -47.5 64.5t-56.5 22.5q-52 0 -89 -61t-37 -180q0 -124 35 -189q37 -70 103 -70q57 0 91 50.5t34 152.5zM1536 366q0 -167 -96 -273.5t-264 -106.5
q-159 0 -247.5 102t-88.5 251q0 174 100.5 292.5t261.5 118.5q150 0 242 -108t92 -276zM1327 329q0 131 -33 210q-19 42 -47.5 64.5t-56.5 22.5q-52 0 -89 -61.5t-37 -180.5q0 -123 35 -188q37 -71 103 -71q57 0 91 51t34 153z" />
    <glyph glyph-name="ampersand" unicode="&#x26;" horiz-adv-x="1589" 
d="M1597 227q0 -104 -61 -177t-153 -73q-82 0 -207 76q-7 4 -18 11t-17.5 11t-14.5 8t-13.5 6t-10.5 2q-8 0 -18 -4.5t-31 -17.5t-28 -17q-152 -87 -358 -87q-138 0 -248.5 35.5t-179.5 97t-105 141t-36 171.5q0 134 76.5 241.5t208.5 174.5q43 22 43 38q0 5 -14 34.5
t-27.5 78.5t-13.5 101q0 149 105.5 248t274.5 99q144 0 236.5 -73.5t92.5 -197.5q0 -183 -224 -309q-35 -17 -35 -30q0 -11 14 -30q69 -88 174 -190.5t134 -102.5q17 0 28.5 40.5t11.5 89.5q0 73 -34 131q-10 17 -29.5 34.5t-31.5 32t-12 33.5q0 18 8 28.5t28.5 16t39.5 8
t57 4.5q11 1 17 1q62 4 112 10t74.5 9.5t36.5 3.5q30 0 49 -17t19 -46q0 -25 -21.5 -48t-57.5 -63t-59 -95q-15 -39 -29 -108t-30 -116q-2 -6 -8 -21.5t-9 -27t-3 -22.5q0 -22 67 -56.5t115 -34.5q25 0 50 13t32 13q33 0 33 -78zM655 1117q0 -50 23.5 -101.5t44.5 -51.5
q13 0 39 11t56.5 30t52.5 52t22 71q0 51 -32.5 85t-81.5 34q-55 0 -89.5 -38.5t-34.5 -91.5zM738 174q61 0 120.5 22.5t59.5 43.5q0 10 -15.5 24.5t-71.5 67.5t-123 127q-37 42 -67.5 80t-45.5 59.5t-26.5 38t-17.5 22.5t-12 6q-30 0 -76.5 -57t-46.5 -137q0 -117 89 -207
t233 -90z" />
    <glyph glyph-name="quotesingle" unicode="'" horiz-adv-x="501" 
d="M374 804q-53 0 -72 78q-18 74 -37 211.5t-19 186.5q0 28 6 52.5t19.5 46.5t40 35t62.5 13q69 0 98.5 -42.5t29.5 -103.5q0 -46 -19 -181.5t-39 -217.5q-19 -78 -70 -78z" />
    <glyph glyph-name="parenleft" unicode="(" horiz-adv-x="795" 
d="M559 588q0 -234 63 -457.5t184 -339.5q10 -9 29 -26t25.5 -24t13.5 -19.5t7 -24.5q0 -43 -61 -43q-82 0 -184 71t-181 185q-187 266 -187 663q0 402 188 671q83 120 183.5 188t180.5 68q61 0 61 -42q0 -13 -7 -25t-13 -18.5t-26 -24.5t-29 -27q-120 -114 -183.5 -325.5
t-63.5 -449.5z" />
    <glyph glyph-name="parenright" unicode=")" horiz-adv-x="795" 
d="M420 566q0 235 -63 458t-184 339q-9 9 -24 22t-21.5 19.5t-15 16t-11.5 18.5t-3 19q0 42 61 42q82 0 184 -71t181 -185q187 -264 187 -662q0 -403 -188 -672q-83 -120 -183.5 -188t-180.5 -68q-61 0 -61 43q0 13 6.5 24.5t13.5 18.5t26 24.5t29 26.5q120 115 183.5 326.5
t63.5 448.5z" />
    <glyph glyph-name="asterisk" unicode="*" horiz-adv-x="933" 
d="M830 1284q44 0 76 -33t32 -79q0 -40 -29.5 -70.5t-78.5 -30.5q-21 0 -77 9t-70 9q-12 0 -24 -7t-12 -20q0 -19 29.5 -38.5t65 -35.5t65 -47t29.5 -70q0 -45 -33.5 -77t-75.5 -32t-68 25.5t-36 61.5t-16 72t-15 61.5t-26 25.5q-15 0 -25 -25t-12 -57q-10 -78 -38.5 -120.5
t-84.5 -42.5q-41 0 -73 32.5t-32 76.5q0 41 28 72.5t62 47.5t62 35t28 37q0 10 -7 17.5t-16 7.5q-19 0 -74 -9t-74 -9q-51 0 -80 31.5t-29 72.5q0 42 30.5 76t73.5 34q32 0 63 -19.5t52 -42.5t44.5 -42.5t42.5 -19.5q18 0 18 31q0 15 -31.5 80t-31.5 99q0 47 31.5 75
t72.5 28q44 0 76 -28t32 -75q0 -39 -31.5 -100t-31.5 -80q0 -29 22 -29q17 0 39.5 19t42 42t51 42t64.5 19z" />
    <glyph glyph-name="plus" unicode="+" horiz-adv-x="1101" 
d="M745 1069v-304h324q33 0 33 -38q0 -56 -18 -116q-8 -24 -22 -33t-47 -9h-270v-317q0 -23 -19.5 -35t-70.5 -12q-61 0 -83.5 11t-22.5 42v311h-324q-32 0 -32 39q0 60 17 115q9 24 23 33t47 9h269v310q0 23 19.5 35t70.5 12q61 0 83.5 -11t22.5 -42z" />
    <glyph glyph-name="comma" unicode="," horiz-adv-x="547" 
d="M270 -332q-19 0 -31.5 11.5t-12.5 26.5t24 42.5t48.5 66.5t24.5 81q0 32 -20.5 60.5t-44.5 48.5t-44.5 56.5t-20.5 83.5q0 82 50.5 133t118.5 51q85 0 137.5 -54.5t52.5 -165.5q0 -86 -29.5 -169.5t-72.5 -141.5t-92 -94t-88 -36z" />
    <glyph glyph-name="hyphen" unicode="-" horiz-adv-x="733" 
d="M605 436h-422q-58 0 -58 52q0 63 23 117q13 29 35.5 40.5t67.5 11.5h427q55 0 55 -51q0 -64 -23 -117q-13 -29 -37 -41t-68 -12z" />
    <glyph glyph-name="period" unicode="." horiz-adv-x="547" 
d="M545 166q0 -81 -54.5 -129.5t-130.5 -48.5q-69 0 -116 41t-47 117q0 82 55 133t128 51q68 0 116.5 -43.5t48.5 -120.5z" />
    <glyph glyph-name="slash" unicode="/" horiz-adv-x="688" 
d="M681 1346q-12 -39 -251.5 -683t-248.5 -661q-14 -28 -55 -28q-31 0 -55 10.5t-24 28.5q0 13 5 28q7 27 248 671t256 679q5 13 16 18.5t40 5.5q31 0 53.5 -10.5t22.5 -28.5q0 -13 -7 -30z" />
    <glyph glyph-name="zero" unicode="0" horiz-adv-x="1282" 
d="M1282 673q0 -322 -157 -510t-436 -188q-143 0 -256 54t-183.5 148.5t-107 217.5t-36.5 267q0 214 73 386.5t209 272.5t310 100q171 0 304 -95t206.5 -265.5t73.5 -387.5zM962 602q0 253 -72 430q-38 93 -95 146t-118 53q-94 0 -162.5 -127.5t-68.5 -357.5q0 -252 59 -389
q36 -88 96 -130.5t125 -42.5q106 0 171 107.5t65 310.5z" />
    <glyph glyph-name="one" unicode="1" horiz-adv-x="838" 
d="M599 1418q66 0 66 -61q0 -18 -10 -223t-10 -410q0 -400 13 -479q5 -31 27 -53.5t49.5 -35t54.5 -24.5t45 -30t18 -44q0 -27 -19.5 -45t-54.5 -18t-139.5 2.5t-137.5 2.5q-35 0 -157 -2.5t-155 -2.5q-35 0 -54.5 18t-19.5 45q0 25 19.5 43t48.5 30t58.5 25t53 35.5
t28.5 53.5q13 75 13 479q0 205 -7 273t-34 85q-20 12 -43 12q-8 0 -31 -2t-38 -2q-31 0 -45.5 15.5t-14.5 37.5q0 28 17 45.5t53 33.5q96 43 192.5 95t144 76.5t69.5 24.5z" />
    <glyph glyph-name="two" unicode="2" horiz-adv-x="1170" 
d="M453 281q0 -20 134 -20q284 0 419 94q14 10 41.5 30.5t42.5 29t27 8.5q43 0 43 -64q0 -24 -8.5 -67t-22 -106t-20.5 -109q-8 -52 -27.5 -67.5t-72.5 -15.5q-15 0 -164.5 3t-274.5 3q-105 0 -267.5 -3t-186.5 -3q-65 0 -65 52q0 38 60 101l199 208q72 72 117 119.5
t99.5 114t85 119t52 114.5t21.5 121q0 110 -66 165t-163 55q-89 0 -156 -45t-107 -114q-26 -36 -46 -36q-36 0 -36 70q0 44 17.5 94t56.5 102.5t93 94.5t135 69t176 27q118 0 213 -41.5t154.5 -129t59.5 -207.5q0 -63 -15 -123t-48 -117t-65.5 -102.5t-87.5 -101t-92 -90
t-101 -90.5q-30 -27 -74 -63.5t-62 -53.5t-18 -25z" />
    <glyph glyph-name="three" unicode="3" horiz-adv-x="1179" 
d="M1049 1148q-50 -63 -100 -115t-100.5 -97t-53.5 -48q-21 -21 -21 -31q0 -8 27 -16q52 -15 99.5 -35.5t100 -56t90 -79t62.5 -107.5t25 -139q0 -194 -153 -320.5t-387 -126.5q-87 0 -166.5 20t-139 54t-108.5 77.5t-80 91t-47.5 93.5t-16.5 87q0 61 41 61q19 0 44 -35
q26 -35 59.5 -66.5t81.5 -64t113 -51.5t137 -19q134 0 207 60.5t73 163.5q0 37 -11.5 69.5t-28 55.5t-44 43t-49.5 31.5t-55.5 23.5t-50.5 16.5t-46 11.5q-73 18 -73 69q0 8 2 15t7 15t10 14.5t16 17t19 17.5t25.5 22.5t28.5 25.5q109 98 149 143.5t40 66.5q0 6 -8 9
t-42 5.5t-98 2.5q-146 0 -220 -24t-117 -69q-7 -8 -19.5 -23t-18.5 -22t-17 -13t-23 -6q-43 0 -43 64q0 23 5.5 60.5t17 106t18.5 119.5q6 40 13 54.5t25.5 21.5t62.5 7q12 0 144 -3t248 -3q89 0 180.5 1.5t151 3t71.5 1.5q22 0 37 -14.5t15 -36.5q0 -32 -34 -90t-75 -110z
" />
    <glyph glyph-name="four" unicode="4" horiz-adv-x="1223" 
d="M993 1347q0 -21 -15.5 -354.5t-15.5 -448.5q0 -16 7 -22t24 -6q72 0 132.5 19t65.5 19q29 0 38.5 -20t9.5 -56q0 -38 -17.5 -104.5t-39.5 -100.5q-27 -44 -89 -44h-102q-30 0 -30 -24q0 -60 9 -107.5t18 -74t9 -35.5q0 -55 -79 -81q-29 -9 -77 -16t-74 -7q-88 0 -88 181
v132q0 16 -8.5 24t-32.5 8h-341q-74 0 -115 28q-49 29 -81.5 79t-32.5 94q0 111 336 525q134 166 297 317t222 151q70 0 70 -76zM334 531q0 -19 39 -19h279q36 0 36 37q3 91 7.5 184t7.5 147t3 71q0 38 -12 38q-28 0 -135 -125q-34 -41 -76.5 -94.5t-95.5 -133t-53 -105.5z
" />
    <glyph glyph-name="five" unicode="5" horiz-adv-x="1179" 
d="M1154 479q0 -218 -157.5 -360t-410.5 -142q-97 0 -185.5 26.5t-152 69.5t-111 96t-71 107.5t-23.5 101.5q0 57 40 57q14 0 50 -36q62 -74 158.5 -124t222.5 -50q138 0 215.5 66.5t77.5 178.5q0 123 -101 187t-286 64q-58 0 -116 -13.5t-70 -13.5q-37 0 -37 48
q0 77 29.5 279.5t62.5 326.5q15 51 56 51q21 0 105.5 -3t140.5 -3q118 0 199.5 4.5t112 9.5t55.5 9.5t44 4.5q41 0 41 -39q0 -17 -5.5 -32t-21 -54.5t-30.5 -89.5q-11 -35 -31 -53t-64 -18q-76 0 -217 5t-188 5q-23 0 -34 -8t-18 -34q-8 -31 -19.5 -99t-11.5 -94
q0 -29 12 -29l87 15q88 14 162 14q237 0 363.5 -120t126.5 -311z" />
    <glyph glyph-name="six" unicode="6" horiz-adv-x="1201" 
d="M106 624q0 179 49.5 330t134 252.5t197.5 158t241 56.5q85 0 157.5 -26.5t115.5 -66t67 -81t24 -75.5q0 -57 -35 -57q-14 0 -52 36q-32 34 -89 56t-130 22q-132 0 -233.5 -111.5t-101.5 -269.5q0 -14 10 -14q2 0 4 0.5t5 2.5t5.5 3.5t6.5 5t7 6t8.5 7.5t9.5 9
q121 105 279 105q91 0 164 -28t120 -73.5t78.5 -107.5t45 -126.5t13.5 -133.5q0 -81 -22 -158t-67 -144t-108.5 -117.5t-152.5 -80t-193 -29.5q-116 0 -216.5 42.5t-177 122t-120.5 204.5t-44 280zM666 795q-86 0 -151 -60.5t-65 -167.5q0 -154 83 -278t183 -124
q87 0 140 64.5t53 185.5q0 160 -65 272q-63 108 -178 108z" />
    <glyph glyph-name="seven" unicode="7" horiz-adv-x="1048" 
d="M768 1099q0 24 -245 24q-147 0 -222 -24t-121 -69q-6 -7 -20.5 -23t-21 -22t-18.5 -12.5t-24 -6.5q-43 0 -43 64q0 23 5.5 60.5t17 106t18.5 119.5q9 55 25 69t78 14q12 0 143.5 -3t248.5 -3q100 0 201 1.5t165.5 3t75.5 1.5q25 0 40.5 -14t15.5 -37t-12.5 -47.5
t-43.5 -69.5q-45 -61 -131 -224t-171 -347q-160 -355 -187 -690q-4 -39 -18.5 -57t-45.5 -18q-85 0 -176 52t-91 120q0 298 528 976q29 37 29 56z" />
    <glyph glyph-name="eight" unicode="8" horiz-adv-x="1225" 
d="M90 379q0 114 74.5 222t206.5 147q-91 43 -146.5 125.5t-55.5 180.5q0 76 28.5 140t77.5 107.5t114 74t137 44.5t148 14q83 0 161.5 -19t148.5 -57t113 -106t43 -156q0 -102 -57 -175.5t-138 -110.5q57 -25 104.5 -58t89.5 -80t65.5 -112t23.5 -141q0 -108 -46.5 -195.5
t-127 -143t-185.5 -85t-224 -29.5q-136 0 -245 36t-175 96t-100.5 132t-34.5 149zM913 1074q0 77 -62 122t-155 45q-89 0 -144 -41t-55 -108q0 -56 39.5 -97t90.5 -59t102 -18q77 0 130.5 41.5t53.5 114.5zM343 395q0 -99 85.5 -158.5t208.5 -59.5q106 0 175 47t69 136
q0 74 -50.5 132t-117.5 85.5t-132 27.5q-109 0 -173.5 -62t-64.5 -148z" />
    <glyph glyph-name="nine" unicode="9" horiz-adv-x="1173" 
d="M1168 729q0 -173 -46 -315.5t-127.5 -237.5t-193.5 -147t-244 -52q-83 0 -158 22.5t-126 58t-89.5 77t-56.5 80.5t-18 69q0 23 9.5 36.5t24.5 13.5q6 0 13 -3t11.5 -6.5t14.5 -11t16 -11.5q124 -112 282 -112q165 0 255 100t90 245q0 14 -9 14q-5 0 -10.5 -3.5
t-19.5 -14.5t-25 -19q-91 -80 -237 -80q-103 0 -186.5 40t-135 106.5t-79 148t-27.5 170.5q0 142 65.5 261.5t187 191.5t272.5 72q244 0 395.5 -184t151.5 -509zM586 1248q-77 0 -131.5 -64.5t-54.5 -189.5q0 -157 62 -264q66 -108 175 -108q83 0 140.5 62t57.5 175
q0 80 -29 167.5t-88.5 154.5t-131.5 67z" />
    <glyph glyph-name="colon" unicode=":" horiz-adv-x="547" 
d="M545 866q0 -81 -54.5 -129.5t-130.5 -48.5q-69 0 -116 41.5t-47 117.5q0 82 55 132.5t128 50.5q68 0 116.5 -43.5t48.5 -120.5zM545 166q0 -81 -54.5 -129.5t-130.5 -48.5q-69 0 -116 41t-47 117q0 82 55 133t128 51q68 0 116.5 -43.5t48.5 -120.5z" />
    <glyph glyph-name="semicolon" unicode=";" horiz-adv-x="547" 
d="M543 866q0 -81 -54.5 -129.5t-130.5 -48.5q-69 0 -116 41.5t-47 117.5q0 82 55 132.5t128 50.5q68 0 116.5 -43.5t48.5 -120.5zM270 -332q-19 0 -31.5 11.5t-12.5 26.5t24 42.5t48.5 66.5t24.5 81q0 32 -20.5 60.5t-44.5 48.5t-44.5 56.5t-20.5 83.5q0 82 50.5 133
t118.5 51q85 0 137.5 -54.5t52.5 -165.5q0 -86 -29.5 -169.5t-72.5 -141.5t-92 -94t-88 -36z" />
    <glyph glyph-name="less" unicode="&#x3c;" horiz-adv-x="1101" 
d="M466 660q0 -9 24 -21q200 -110 564 -248q28 -11 37.5 -22t9.5 -39q0 -37 -20 -89.5t-47 -52.5q-22 0 -60 15q-146 55 -384.5 168t-360.5 190q-39 20 -39 72q0 47 14 82t35 48q114 71 341.5 177.5t393.5 176.5q46 19 62 19q28 0 46.5 -46.5t18.5 -95.5q0 -26 -10.5 -39.5
t-36.5 -25.5q-57 -25 -189 -81t-231.5 -100t-143.5 -67q-24 -12 -24 -21z" />
    <glyph glyph-name="equal" unicode="=" horiz-adv-x="1101" 
d="M1015 774h-790q-32 0 -32 39q0 60 17 115q9 24 23 33t47 9h789q33 0 33 -38q0 -56 -18 -116q-8 -24 -22 -33t-47 -9zM1015 365h-790q-32 0 -32 38q0 60 17 115q9 24 23 33t47 9h789q33 0 33 -38q0 -55 -18 -115q-8 -24 -22 -33t-47 -9z" />
    <glyph glyph-name="greater" unicode="&#x3e;" horiz-adv-x="1101" 
d="M827 670q0 9 -24 21q-168 93 -563 242q-28 11 -37.5 22t-9.5 39q0 38 19.5 90t46.5 52q25 0 60 -15q149 -56 386.5 -166t358.5 -185q39 -22 39 -73q0 -95 -48 -130q-83 -58 -334.5 -177.5t-401.5 -181.5q-45 -20 -62 -20q-28 0 -46 46.5t-18 95.5q0 26 10.5 40t36.5 25
q39 17 141 62t169.5 74.5t143 64.5t109.5 53q24 12 24 21z" />
    <glyph glyph-name="question" unicode="?" horiz-adv-x="946" 
d="M481 1206q-37 0 -69.5 -9t-60.5 -26.5t-42 -29t-34 -29.5q-4 -3 -10 -9t-9 -8.5t-8 -7t-7.5 -6t-6.5 -3.5t-7.5 -3t-7.5 -1q-33 0 -33 56q0 47 30 98.5t82 96t131.5 73t168.5 28.5q167 0 277 -80t110 -227q0 -71 -26.5 -134t-69 -109t-93.5 -87t-102 -76t-93.5 -67
t-69 -68t-26.5 -73q0 -10 2 -22.5t2 -16.5q0 -29 -32 -29t-62.5 43.5t-30.5 101.5q0 54 27 105.5t66 93t77.5 83t65.5 93.5t27 107q0 68 -44.5 105t-121.5 37zM677 166q0 -81 -54 -129.5t-130 -48.5q-69 0 -116.5 41t-47.5 117q0 82 55.5 133t127.5 51q68 0 116.5 -43.5
t48.5 -120.5z" />
    <glyph glyph-name="at" unicode="@" horiz-adv-x="1457" 
d="M1316 833q0 93 -24 169.5t-72 135t-127 91t-182 32.5q-81 0 -165.5 -27.5t-164.5 -85t-142.5 -137.5t-100.5 -194.5t-38 -245.5q0 -118 37.5 -212t102.5 -152.5t149 -89.5t181 -31q217 0 378 110q50 34 60 34q24 0 24 -26q0 -23 -39 -61.5t-101.5 -77t-155.5 -66.5
t-186 -28q-131 0 -239.5 35.5t-182 95.5t-123.5 141.5t-73 170.5t-23 185q0 168 65.5 322t175 264t257 175.5t305.5 65.5q257 0 407.5 -144t150.5 -391q0 -146 -52.5 -282.5t-143 -222t-192.5 -85.5q-61 0 -99.5 37t-45.5 91q-4 31 -8 31q-3 0 -13.5 -16.5t-29 -40
t-44.5 -46.5t-67 -39.5t-88 -16.5q-104 0 -162.5 78t-58.5 212q0 126 53 239t143 181t192 68q48 0 87.5 -20t64 -40t37.5 -20q18 0 51 20q7 4 17 11t15.5 10.5t12.5 6t14 2.5q28 0 28 -34q0 -27 -37 -260t-37 -279q0 -58 37 -58q27 0 57 32.5t56 86t42.5 132.5t16.5 164z
M780 451q74 0 125.5 98t51.5 245q0 169 -92 169q-70 0 -128 -104.5t-58 -251.5q0 -80 27.5 -118t73.5 -38z" />
    <glyph glyph-name="A" unicode="A" horiz-adv-x="1383" 
d="M135 273l311 811q38 102 54 200q10 49 95 94.5t142 45.5q37 0 56 -22t36 -68l413 -1063q29 -78 90 -131q1 -1 8 -7t9 -8l8.5 -8.5t9 -9.5t7 -9.5t6.5 -11.5t3.5 -11t1.5 -12q0 -40 -28 -54t-92 -14q-22 0 -85.5 2.5t-116.5 2.5q-52 0 -118 -2.5t-92 -2.5q-89 0 -89 63
q0 19 19 38.5t41.5 34.5t41.5 42t19 58q0 13 -16 58t-30 72q-13 24 -44 24h-356q-36 0 -58 -24q-17 -26 -35.5 -74t-18.5 -72q0 -25 11 -45.5t26.5 -34t31 -26t26.5 -26.5t11 -30q0 -58 -86 -58q-22 0 -82 2.5t-84 2.5t-63 -2.5t-61 -2.5q-67 0 -67 57q0 21 14.5 39.5
t34.5 34t47.5 54.5t48.5 93zM470 567h270q25 0 25 19q0 25 -50.5 169t-85.5 212q-10 23 -21 23q-7 0 -20 -23q-33 -65 -87.5 -213t-54.5 -168q0 -19 24 -19z" />
    <glyph glyph-name="B" unicode="B" horiz-adv-x="1372" 
d="M243 -5q-81 0 -81 56q0 23 15.5 41.5t35 31.5t38.5 41t24 67q13 88 13 496q0 298 -4 378q-4 55 -23 93t-39 54t-36 37t-16 47q0 61 74 61q43 0 135.5 -2.5t137.5 -2.5q53 0 159 3t158 3q93 0 172.5 -16.5t150 -52t111.5 -102.5t41 -159q0 -101 -64.5 -181.5
t-142.5 -112.5q-10 -5 -10 -12t10 -10q134 -39 218 -130.5t84 -213.5q0 -103 -35 -180t-88.5 -121t-132 -70.5t-150 -35t-156.5 -8.5q-53 0 -184.5 3t-186.5 3q-40 0 -115 -2.5t-113 -2.5zM609 1169v-283q0 -30 15 -38.5t53 -8.5q131 0 199 30q107 45 107 169
q0 187 -270 187q-61 0 -82.5 -12t-21.5 -44zM1043 414q0 89 -45.5 148.5t-126.5 86.5q-72 23 -216 23q-26 0 -36 -20t-10 -83v-293q0 -45 10.5 -64.5t43.5 -28t107 -8.5q273 0 273 239z" />
    <glyph glyph-name="C" unicode="C" horiz-adv-x="1372" 
d="M109 691q0 143 42.5 273.5t123.5 234.5t211 166t292 62q91 0 183 -24.5t113 -24.5q24 0 60.5 11t56.5 11q17 0 29.5 -4t21.5 -15t15 -21t12 -31.5t9 -35.5t8.5 -45t9.5 -49q11 -56 22 -104t15 -66t4 -31q0 -31 -15.5 -47.5t-39.5 -16.5q-16 0 -29 6t-26.5 21t-22 26
t-25 36.5t-24.5 37.5q-71 99 -160 153.5t-181 54.5q-109 0 -188.5 -64t-117 -165.5t-37.5 -226.5q0 -158 53.5 -287t157 -206t239.5 -77q69 0 128.5 20t102.5 54.5t73 70.5t52 78q11 19 17.5 28.5t17 17.5t20.5 8q21 0 31 -22.5t10 -52.5q0 -109 -63 -212
q-72 -116 -209.5 -192t-320.5 -76q-157 0 -286 59t-212 160t-128 231.5t-45 275.5z" />
    <glyph glyph-name="D" unicode="D" horiz-adv-x="1491" 
d="M451 1393q57 0 151 3t149 3q120 0 229.5 -24t209 -77.5t172 -132.5t115.5 -197t43 -263q0 -330 -178.5 -520.5t-489.5 -190.5q-59 0 -197 3.5t-204 3.5q-36 0 -107.5 -2.5t-100.5 -2.5q-40 0 -60.5 15t-20.5 40q0 23 15.5 42t35 32.5t39 42.5t24.5 68q12 84 12 492
q0 334 -3 380q-4 54 -23 92t-39.5 54t-36.5 37t-16 46q0 61 74 61q30 0 101.5 -2.5t105.5 -2.5zM609 1069v-712q0 -109 35.5 -145.5t145.5 -36.5q80 0 144 29t105 76.5t68 112t38.5 132.5t11.5 141q0 119 -26 218.5t-77 176.5t-134.5 120.5t-191.5 43.5q-74 0 -96.5 -34
t-22.5 -122z" />
    <glyph glyph-name="E" unicode="E" horiz-adv-x="1274" 
d="M981 858v-296q0 -43 -11 -63.5t-38 -20.5q-19 0 -34 11.5t-21.5 23t-15.5 31.5q-16 34 -26 49.5t-30.5 32t-53 22t-84.5 5.5q-33 0 -46.5 -21.5t-13.5 -77.5v-217q0 -54 8.5 -85t33 -47.5t56 -21t89.5 -4.5q112 0 179.5 23.5t107 68.5t79.5 132q33 72 73 72q50 0 50 -86
q0 -26 -17 -147t-21 -170q-3 -46 -23 -61.5t-75 -15.5q-25 0 -166.5 2.5t-236.5 2.5q-98 0 -267.5 -2.5t-233.5 -2.5q-81 0 -81 56q0 19 10 34t25 27t31 25.5t29.5 38t17.5 56.5q13 84 13 496q0 319 -4 378q-4 55 -23 93t-39 54t-36 37t-16 47q0 61 74 61q35 0 179 -2.5
t279 -2.5q118 0 243 2.5t146 2.5q57 0 79 -19.5t32 -87.5q2 -10 14.5 -84t21.5 -120q12 -60 12 -88q0 -30 -15.5 -45t-39.5 -15q-7 0 -13 1.5t-12 5t-10.5 6.5t-10 9.5t-8.5 10.5t-8 13t-7.5 13t-8 14.5t-7.5 13.5q-26 53 -45 82.5t-44 55.5t-58 37t-77.5 17t-112.5 6
q-105 0 -135.5 -24t-30.5 -108v-159q0 -61 11 -80.5t42 -19.5t56.5 3t43 6.5t33.5 12.5t25 14t20 19t15 19.5t14 23t13 22.5q21 30 46 30q30 0 42.5 -28.5t12.5 -96.5z" />
    <glyph glyph-name="F" unicode="F" horiz-adv-x="1193" 
d="M607 534v-204q0 -82 26 -122t82 -64q61 -29 76 -45t15 -37q0 -67 -110 -67q-29 0 -120 2.5t-125 2.5q-38 0 -112 -2.5t-96 -2.5q-81 0 -81 56q0 19 10 34t25 27t31 25.5t29.5 38t17.5 56.5q13 84 13 496q0 319 -4 378q-4 55 -23 93t-39 54t-36 37t-16 47q0 61 74 61
q35 0 179 -2.5t279 -2.5q118 0 243 2.5t146 2.5q57 0 79 -19.5t32 -87.5q2 -10 14.5 -84t21.5 -120q12 -60 12 -88q0 -30 -15.5 -45t-39.5 -15q-7 0 -13 1.5t-12 5t-10.5 6.5t-10 9.5t-8.5 10.5t-8 13t-7.5 13t-8 14.5t-7.5 13.5q-26 53 -45 82.5t-44 55.5t-58 37t-77.5 17
t-112.5 6q-105 0 -135.5 -24t-30.5 -108v-180q0 -61 11 -80.5t42 -19.5q35 0 63 3t48.5 11t33.5 13.5t25.5 20.5t18 21.5t16.5 26t15 25.5q21 30 46 30q30 0 42.5 -28.5t12.5 -96.5v-296q0 -43 -11 -63.5t-38 -20.5q-19 0 -34 11t-22 23t-15 31q-13 28 -20.5 40.5t-22 29.5
t-32.5 23.5t-47.5 11.5t-71.5 5q-33 0 -46.5 -21.5t-13.5 -77.5z" />
    <glyph glyph-name="G" unicode="G" horiz-adv-x="1468" 
d="M767 -35q-146 0 -271 59.5t-209 159.5t-131 231.5t-47 275.5q0 143 42.5 273.5t123.5 234.5t211 166t292 62q91 0 183 -24.5t113 -24.5q24 0 60.5 11t56.5 11q17 0 29.5 -4t21.5 -15t15 -21t12 -31.5t9 -35.5t8.5 -45t9.5 -49q11 -56 22 -104t15 -66t4 -31
q0 -31 -15.5 -47.5t-39.5 -16.5q-16 0 -29 6t-26.5 21t-22 26t-25 36.5t-24.5 37.5q-71 99 -160 153.5t-181 54.5q-109 0 -191.5 -68.5t-123.5 -177t-41 -236.5t35 -239.5t93 -186.5t131 -117.5t150 -42.5q57 0 105.5 23t69.5 56q16 26 21.5 58t5.5 91q0 25 -1.5 46.5
t-2.5 38t-5.5 31t-6.5 24t-9 19.5t-9.5 15t-11.5 12.5t-11.5 9.5t-13 9.5t-13.5 9.5q-11 8 -38.5 21t-39.5 26.5t-12 36.5q0 66 90 66q30 0 94.5 -3.5t89.5 -3.5q35 0 104 3.5t109 3.5q33 0 49.5 -17t16.5 -45q0 -25 -10 -48t-21.5 -42t-21.5 -68.5t-10 -121.5
q0 -64 5.5 -204.5t5.5 -169.5q0 -84 -66 -84q-37 0 -75 43q-2 2 -12 11t-14 12t-11.5 8t-13 7t-11.5 2q-9 0 -18.5 -2t-23.5 -7t-21.5 -8.5t-27.5 -12.5t-28 -12q-167 -70 -307 -70z" />
    <glyph glyph-name="H" unicode="H" horiz-adv-x="1560" 
d="M1482 1398q72 0 72 -61q0 -21 -10.5 -38t-26 -31t-31 -31.5t-28.5 -50.5t-17 -78q-5 -56 -5 -380q0 -414 13 -492q4 -33 17.5 -57.5t29.5 -39t31 -27t25 -27.5t10 -34q0 -25 -20.5 -40.5t-59.5 -15.5q-30 0 -100.5 2.5t-104.5 2.5q-36 0 -108 -2.5t-101 -2.5
q-39 0 -59.5 15.5t-20.5 40.5q0 19 10 34.5t25.5 28t31.5 26.5t29.5 39t18.5 57q12 105 12 327q0 48 -13.5 68t-50.5 20h-376q-36 0 -52 -18t-16 -70q0 -89 5.5 -191t10.5 -136q5 -33 18.5 -57.5t29 -39t30.5 -27t25 -27.5t10 -34q0 -24 -21 -40t-60 -16q-29 0 -99.5 2.5
t-104.5 2.5q-36 0 -107.5 -2.5t-100.5 -2.5q-40 0 -60.5 15.5t-20.5 40.5q0 23 15.5 42t35 32.5t39 42.5t24.5 68q12 84 12 492q0 334 -3 380q-4 54 -23 92t-39.5 54t-36.5 37t-16 46q0 61 74 61q30 0 101.5 -2.5t105.5 -2.5q36 0 106 2.5t98 2.5q73 0 73 -61q0 -28 -18 -48
t-44 -46.5t-38 -62.5q-8 -19 -14.5 -95.5t-6.5 -141.5q0 -61 15 -82.5t55 -21.5h369q39 0 54 20.5t15 83.5q0 67 -6.5 144.5t-12.5 92.5q-10 32 -36 59.5t-45.5 49.5t-19.5 48q0 61 74 61q30 0 101.5 -2.5t106.5 -2.5q36 0 106.5 2.5t98.5 2.5z" />
    <glyph glyph-name="I" unicode="I" horiz-adv-x="736" 
d="M655 1398q73 0 73 -61q0 -21 -10.5 -38t-25.5 -31t-31 -31.5t-29 -50.5t-17 -78q-6 -54 -6 -380q0 -387 14 -492q5 -33 18.5 -57.5t29 -39t30.5 -27t25 -27.5t10 -34q0 -24 -21 -40t-60 -16q-29 0 -99.5 2.5t-104.5 2.5q-36 0 -107.5 -2.5t-100.5 -2.5q-40 0 -60.5 15.5
t-20.5 40.5q0 23 15.5 42t35 32.5t39 42.5t24.5 68q12 84 12 492q0 334 -3 380q-4 54 -23 92t-39.5 54t-36.5 37t-16 46q0 61 74 61q30 0 101.5 -2.5t105.5 -2.5q36 0 106 2.5t98 2.5z" />
    <glyph glyph-name="J" unicode="J" 
d="M653 485v243q0 321 -5 376q-4 45 -21 78t-38 50t-41 31.5t-34 32t-14 41.5q0 61 72 61q28 0 116 -2.5t124 -2.5q35 0 100 2.5t95 2.5q73 0 73 -61q0 -25 -14 -46t-31 -37t-34 -54t-21 -92q-5 -58 -5 -479q0 -87 -5 -156.5t-18.5 -140t-36.5 -123t-60.5 -99.5t-88.5 -77
t-122.5 -47t-161.5 -17q-113 0 -197.5 28t-132 75.5t-70.5 103t-23 119.5q0 89 51.5 156t142.5 67q70 0 105.5 -34t35.5 -84q0 -18 -19.5 -71.5t-19.5 -90.5q0 -45 29.5 -76.5t88.5 -31.5q180 0 180 355z" />
    <glyph glyph-name="K" unicode="K" horiz-adv-x="1448" 
d="M617 758q13 0 108.5 96.5t187 207t91.5 142.5q0 28 -35 66.5t-35 68.5q0 26 21 42.5t60 16.5q21 0 82 -2.5t85 -2.5q22 0 90 2t89 2q55 0 79.5 -12t24.5 -49q0 -27 -21 -46.5t-70 -46.5t-76 -48q-175 -137 -401 -389q-11 -13 -11 -20q0 -8 12 -12q149 -50 250 -163
t193 -303q55 -122 123 -178q10 -8 27.5 -20t23.5 -17t11.5 -16t5.5 -25q0 -57 -65 -57q-21 0 -101 2.5t-105 2.5q-49 0 -118 -2.5t-78 -2.5q-37 0 -59.5 17t-22.5 43q0 16 12 44.5t12 54.5q0 39 -17 91.5t-49 107t-72.5 100.5t-93 75.5t-104.5 29.5q-63 0 -63 -86v-160
q0 -58 16.5 -95t46.5 -69q9 -10 31.5 -29.5t32.5 -34.5t10 -33q0 -56 -79 -56q-36 0 -109.5 2.5t-106.5 2.5q-36 0 -107 -2.5t-100 -2.5q-40 0 -60.5 15.5t-20.5 40.5q0 23 15.5 42t35 32.5t39 42.5t24.5 68q12 84 12 492q0 334 -3 380q-4 54 -23 92t-39.5 54t-36.5 37
t-16 46q0 61 74 61q30 0 101.5 -2.5t105.5 -2.5q36 0 106 2.5t98 2.5q73 0 73 -61q0 -30 -41 -71t-51 -77q-12 -29 -22 -91t-10 -135q0 -205 13 -205z" />
    <glyph glyph-name="L" unicode="L" horiz-adv-x="1227" 
d="M288 728q0 334 -3 380q-4 54 -23 92t-39.5 54t-36.5 37t-16 46q0 61 74 61q30 0 101.5 -2.5t105.5 -2.5q36 0 124 2.5t116 2.5q73 0 73 -61q0 -24 -14 -41.5t-34.5 -32t-41.5 -31.5t-38 -50t-21 -78q-6 -53 -6 -376v-416q0 -83 37 -108t146 -25q66 0 116 10.5t83.5 28.5
t59.5 48.5t41.5 62t32.5 78.5q19 48 37 69.5t42 21.5q51 0 51 -88q0 -30 -10.5 -148t-14.5 -185q-3 -47 -24 -64.5t-74 -17.5q-31 0 -174.5 2.5t-244.5 2.5q-162 0 -312.5 -2.5t-157.5 -2.5q-81 0 -81 56q0 19 10 34.5t25 27.5t30.5 25.5t29 37.5t18.5 56q13 77 13 496z" />
    <glyph glyph-name="M" unicode="M" horiz-adv-x="1816" 
d="M1342 852q-25 0 -171 -392q-18 -48 -46 -122t-43.5 -116.5t-33 -86.5t-28.5 -65q-44 -80 -117 -80q-39 0 -63 53q-12 25 -73 174.5t-136 334.5t-109 264q-19 46 -29 46q-12 0 -15 -35q-3 -26 -8 -189.5t-5 -211.5q0 -173 28 -236q15 -30 40 -52.5t39.5 -39.5t14.5 -43
q0 -60 -74 -60q-37 0 -82.5 2.5t-60.5 2.5q-20 0 -75.5 -2.5t-92.5 -2.5q-71 0 -71 59q0 21 10.5 36.5t26.5 28t32.5 29t31 47.5t20.5 74q16 122 27.5 339t11.5 346q0 89 -5 152q-5 55 -24 93t-38.5 54t-35.5 37t-16 47q0 61 72 61q17 0 80.5 -2.5t90.5 -2.5
q88 0 124.5 -5.5t63.5 -23.5q47 -30 92 -115q18 -33 291 -674q7 -18 18 -18q10 0 18 17q33 86 129 327t146 352q40 84 84 112q48 28 194 28q15 0 67 2.5t71 2.5q69 0 69 -62q0 -25 -15 -46t-34 -37t-38.5 -53.5t-25.5 -90.5q-6 -50 -6 -145q0 -155 14 -372t28 -319
q6 -45 21 -77t31.5 -48.5t32.5 -29.5t26.5 -28t10.5 -36q0 -59 -74 -59q-36 0 -112.5 2.5t-96.5 2.5q-35 0 -103.5 -2.5t-101.5 -2.5q-39 0 -60 15t-21 41q0 23 15 41.5t34.5 32t39.5 43t27 69.5q4 23 4 81q0 215 -22 499q-4 35 -14 35z" />
    <glyph glyph-name="N" unicode="N" horiz-adv-x="1482" 
d="M244 1398q17 0 82 -2.5t93 -2.5q90 0 122 -16q9 -4 17.5 -10.5t15 -12.5t18 -19t18.5 -22t24 -30t28 -35l440 -599q20 -25 37.5 -43.5t27 -27t12.5 -8.5q5 0 7 3.5t4 22t2.5 55t0.5 103.5q0 359 -41 436q-13 32 -39.5 58.5t-44.5 46t-18 43.5q0 60 72 60q28 0 82 -2.5
t72 -2.5q23 0 75.5 2.5t75.5 2.5q70 0 70 -61q0 -21 -9.5 -36.5t-23.5 -28.5t-28.5 -29t-26.5 -46.5t-15 -72.5q-6 -66 -6 -342q1 -302 9 -468.5t8 -199.5q0 -54 -46.5 -92t-118.5 -38q-43 0 -96 62l-609 805q-34 39 -40 39t-9 -6t-5.5 -29.5t-3 -65t-0.5 -119.5
q0 -168 12 -297t33 -172q14 -34 41.5 -60t45.5 -44.5t18 -41.5q0 -60 -74 -60q-32 0 -85 2.5t-70 2.5q-22 0 -79.5 -2.5t-86.5 -2.5q-70 0 -70 59q0 21 11 36.5t27.5 28t33.5 28.5t30.5 46.5t16.5 72.5q7 84 7 459q0 328 -4 381q-5 55 -24 93t-38.5 54t-35.5 37t-16 47
q0 61 74 61z" />
    <glyph glyph-name="O" unicode="O" horiz-adv-x="1495" 
d="M111 685q0 217 86 385.5t242 262t358 93.5q142 0 268 -51t222.5 -146t152.5 -241t56 -325q0 -136 -34.5 -250.5t-96.5 -196t-148 -139t-188.5 -85t-217.5 -27.5q-215 0 -375 93t-242.5 255t-82.5 372zM752 1246q-106 0 -182 -108.5t-76 -322.5q0 -247 85 -437
q51 -105 127.5 -158t156.5 -53q119 0 197.5 94t78.5 283q0 115 -27.5 241t-73.5 223q-51 111 -127.5 174.5t-158.5 63.5z" />
    <glyph glyph-name="P" unicode="P" horiz-adv-x="1309" 
d="M612 459v-148q0 -68 29 -105t87 -62q33 -15 47 -22.5t29 -23.5t15 -36q0 -67 -109 -67q-29 0 -127 2.5t-132 2.5q-38 0 -112 -2.5t-96 -2.5q-81 0 -81 56q0 19 10 34t25 27t31 25.5t29.5 38t17.5 56.5q13 84 13 496q0 319 -4 378q-4 55 -23 93t-39 54t-36 37t-16 47
q0 61 74 61q49 0 122.5 -2.5t135.5 -2.5q54 0 175 3.5t187 3.5q222 0 355.5 -115t133.5 -306q0 -94 -30 -175t-89.5 -144t-156.5 -99t-222 -36q-56 0 -118 8t-77 8q-31 0 -39.5 -16.5t-8.5 -65.5zM998 962q0 114 -72 185t-188 71q-83 0 -106 -23.5t-23 -115.5v-210
q0 -97 38 -128.5t129 -31.5q105 0 163.5 67.5t58.5 185.5z" />
    <glyph glyph-name="Q" unicode="Q" horiz-adv-x="1495" 
d="M111 685q0 217 86 385.5t242 262t358 93.5q142 0 268 -51t222.5 -146t152.5 -241t56 -325q0 -144 -40 -263.5t-111 -202.5t-165.5 -136t-207.5 -74q-19 -5 -19 -13q0 -10 25 -20q4 -2 43 -20t55.5 -24.5t49.5 -19t59 -17.5t49 -5q35 0 60.5 12.5t36 28t21 28t20.5 12.5
q18 0 30.5 -29.5t12.5 -76.5q0 -30 -8.5 -63t-28 -67.5t-47.5 -61.5t-71.5 -44.5t-95.5 -17.5q-57 0 -122.5 31t-122.5 75.5t-110.5 88.5t-101.5 75t-79 31t-54 -18.5t-33.5 -41t-24 -41t-26.5 -18.5q-24 0 -39 25.5t-15 62.5q0 69 49 126q4 5 12 13t13 14t5 10
q0 1 -0.5 2.5t-1.5 2.5l-2 2t-3.5 2.5t-4.5 3t-6 4t-7.5 4.5t-9.5 5.5t-11 6.5q-173 83 -265.5 245.5t-92.5 384.5zM752 1246q-106 0 -182 -108.5t-76 -322.5q0 -247 85 -437q51 -105 127.5 -158t156.5 -53q119 0 197.5 94t78.5 283q0 115 -27.5 241t-73.5 223
q-51 111 -127.5 174.5t-158.5 63.5z" />
    <glyph glyph-name="R" unicode="R" horiz-adv-x="1443" 
d="M608 472v-160q0 -58 16.5 -95t46.5 -69q9 -10 31.5 -29.5t32.5 -34.5t10 -33q0 -27 -21 -41.5t-58 -14.5q-29 0 -105 2.5t-110 2.5q-38 0 -112 -2.5t-96 -2.5q-81 0 -81 56q0 19 10 34t25 27t31 25.5t29.5 38t17.5 56.5q13 84 13 496q0 319 -4 378q-4 55 -23 93t-39 54
t-36 37t-16 47q0 61 74 61q49 0 122.5 -2.5t135.5 -2.5q54 0 170 3.5t183 3.5q227 0 353.5 -93.5t126.5 -280.5q0 -243 -299 -347q-13 -7 -13 -14q0 -11 14 -18q98 -53 170 -138t143 -214q67 -124 116 -163q10 -8 26 -20.5t21.5 -18t10.5 -16.5t5 -25q0 -57 -64 -57
q-21 0 -96 2.5t-100 2.5q-50 0 -118.5 -2.5t-77.5 -2.5q-37 0 -60 17t-23 43q0 16 12.5 44.5t12.5 54.5q0 85 -70 208.5t-142 175.5q-49 31 -122 31t-73 -97zM976 984q0 106 -69 170t-178 64q-82 0 -101 -22.5t-19 -116.5v-200q0 -64 25.5 -92t106.5 -28q108 0 171.5 59.5
t63.5 165.5z" />
    <glyph glyph-name="S" unicode="S" horiz-adv-x="1247" 
d="M686 1248q-78 0 -133 -40.5t-55 -110.5q0 -31 17 -58.5t44 -48t69.5 -41t85.5 -37t100 -36.5q25 -8 37 -13q61 -22 106.5 -42t99.5 -49t92.5 -63t71.5 -77t50 -98.5t17 -120.5q0 -211 -146 -329t-383 -118q-88 0 -215 24t-156 24q-20 0 -54 -8.5t-50 -8.5t-27 3.5
t-18.5 13.5t-12.5 20t-9 32t-6.5 39.5l-7.5 52.5t-9 62q-6 43 -13.5 88.5t-10 65t-2.5 33.5q0 33 13.5 52t34.5 19q16 0 33 -12.5t30 -27t36 -43.5t37 -45q71 -80 173.5 -132t222.5 -52q88 0 142 42t54 113q0 36 -16.5 66t-41 51t-65.5 41t-78.5 34.5t-90.5 32.5
q-25 9 -38 13q-73 26 -122.5 47.5t-111.5 60t-99.5 80.5t-63.5 106.5t-26 142.5q0 195 128.5 313t344.5 118q82 0 179 -24.5t120 -24.5t57.5 11t54.5 11q17 0 30 -4t22 -15t15 -21.5t11.5 -31t8.5 -36t8.5 -44.5t9.5 -49q10 -45 19.5 -86t14 -58.5t7.5 -32t3 -24.5
q0 -30 -16 -47t-40 -17q-25 0 -43 15t-45 53t-42 55q-160 191 -352 191z" />
    <glyph glyph-name="T" unicode="T" horiz-adv-x="1232" 
d="M641 1393q113 0 255.5 2.5t196.5 2.5q55 0 78.5 -23t28.5 -90q7 -84 20 -178.5t13 -132.5q0 -34 -16 -49.5t-39 -15.5q-26 0 -44 18t-36 52q-22 51 -35 80t-30 59t-30 44t-31.5 26.5t-39 16.5t-47.5 4q-50 0 -66 -40q-9 -25 -13 -79t-4 -219v-143q0 -403 13 -491
q6 -40 28 -68.5t44.5 -42t41 -32.5t18.5 -43t-21 -40t-60 -16q-29 0 -109 2.5t-114 2.5q-36 0 -117 -2.5t-110 -2.5q-40 0 -60.5 15.5t-20.5 40.5q0 20 12 35.5t30.5 28t37 27t34 39t20.5 56.5q11 78 11 491v143q0 113 -2.5 177t-5.5 83.5t-9 37.5q-16 40 -66 40
q-27 0 -47.5 -4t-39 -16.5t-31.5 -26.5t-30 -44t-30 -59t-35 -80q-18 -34 -36 -52t-44 -18q-23 0 -39 15.5t-16 49.5q0 39 13 134.5t20 176.5q4 67 28 90t78 23t197 -2.5t256 -2.5z" />
    <glyph glyph-name="U" unicode="U" horiz-adv-x="1454" 
d="M1352 813q0 -54 1 -142.5t1 -125.5q0 -293 -135.5 -436.5t-419.5 -143.5q-94 0 -174 19.5t-149.5 64t-118 112t-76.5 169t-28 229.5q0 488 -4 549q-4 45 -17.5 77.5t-29.5 50.5t-32 32.5t-26.5 31t-10.5 37.5q0 61 74 61q30 0 101.5 -2.5t106.5 -2.5q36 0 105.5 2.5
t97.5 2.5q74 0 74 -61q0 -26 -15 -47t-33.5 -36t-37 -53t-24.5 -93q-8 -74 -8 -503q0 -200 77 -294.5t216 -94.5q176 0 241 130q41 81 41 409q0 357 -35 435q-11 31 -36.5 57t-45 46.5t-19.5 44.5q0 60 73 60q28 0 82 -2.5t71 -2.5q23 0 76 2.5t77 2.5q69 0 69 -61
q0 -21 -9.5 -36.5t-23.5 -28.5t-28.5 -29t-26.5 -46.5t-15 -72.5q-6 -66 -6 -311z" />
    <glyph glyph-name="V" unicode="V" horiz-adv-x="1319" 
d="M732 437q6 -14 13 -14q8 0 19 29q49 133 130 405t81 321q0 31 -16.5 55.5t-36.5 37t-36.5 30.5t-16.5 38q0 59 81 59q21 0 82 -2.5t85 -2.5q22 0 66.5 2t66.5 2q67 0 67 -56q0 -19 -9.5 -34t-25.5 -29.5t-33.5 -32t-37 -50.5t-32.5 -76l-274 -820q-49 -156 -93 -222
q-36 -55 -92 -81.5t-92 -26.5q-38 0 -61.5 20t-44.5 62q-20 46 -57 145l-350 925q-25 68 -90 131q-1 1 -12 11t-15.5 14.5t-12 14t-11 19t-3.5 18.5q0 38 28 53.5t90 15.5q21 0 81.5 -2.5t110.5 -2.5t125 2.5t100 2.5q41 0 63 -16.5t22 -46.5q0 -20 -16 -39t-35 -32.5
t-35 -39.5t-16 -57q0 -40 102.5 -345.5t140.5 -384.5z" />
    <glyph glyph-name="W" unicode="W" horiz-adv-x="1975" 
d="M961 713q-53 -181 -121 -388t-92 -246q-34 -55 -88 -82.5t-87 -27.5q-64 0 -101 84q-42 112 -54 147l-316 918q-26 82 -83 133q-48 41 -48 78q0 38 26.5 53.5t83.5 15.5q20 0 75 -2.5t103 -2.5q46 0 118 2.5t95 2.5q39 0 59.5 -17t20.5 -46q0 -20 -14.5 -39.5t-32.5 -34
t-32.5 -40t-14.5 -57.5q0 -39 87.5 -337.5t117.5 -365.5q8 -20 14 -20q8 0 17 31q29 84 102.5 357t73.5 325q0 45 -22 78t-43.5 57.5t-21.5 49.5q0 59 76 59q20 0 85.5 -2.5t88.5 -2.5q45 0 110.5 2.5t88.5 2.5q82 0 82 -63q0 -20 -13 -39t-28.5 -33.5t-28.5 -40.5t-13 -57
q0 -40 84 -336.5t112 -362.5q11 -25 17 -25t19 35q29 79 100.5 364.5t71.5 335.5q0 31 -15 55.5t-33 37.5t-33 31.5t-15 38.5q0 59 77 59q19 0 84.5 -2.5t88.5 -2.5q21 0 61.5 2t60.5 2q30 0 46 -15t16 -41q0 -19 -9 -34.5t-23.5 -30.5t-31 -33t-34.5 -51.5t-30 -76.5
l-243 -812q-46 -157 -86 -224q-34 -55 -89.5 -82.5t-89.5 -27.5q-35 0 -57.5 20.5t-43.5 63.5q-19 40 -65 173.5t-98.5 293.5t-71.5 212q-7 27 -17 27t-23 -46z" />
    <glyph glyph-name="X" unicode="X" horiz-adv-x="1413" 
d="M899 750q0 -24 27 -70.5t123 -181.5q150 -208 209 -269q28 -30 71 -59.5t64 -51.5t21 -53q0 -38 -26 -54t-81 -16q-21 0 -109.5 2.5t-140.5 2.5q-51 0 -113 -2.5t-87 -2.5q-85 0 -85 62q0 28 34.5 66.5t34.5 70.5q0 34 -56.5 124t-130.5 182q-7 11 -18 11q-8 0 -21 -15
q-183 -231 -183 -293q0 -30 21 -54.5t41.5 -47t20.5 -48.5q0 -58 -83 -58q-22 0 -97 2.5t-99 2.5t-86 -2.5t-83 -2.5q-32 0 -49.5 15t-17.5 42q0 33 22.5 55.5t80 64.5t105.5 91q50 51 184 235q70 97 92.5 133.5t22.5 56.5q0 8 -3 16t-13 23.5t-20.5 30.5t-34.5 48.5
t-46 65.5q-158 222 -250 320q-18 17 -53 44.5t-48.5 46t-13.5 45.5q0 70 111 70q21 0 86 -2.5t117 -2.5q51 0 127.5 2.5t101.5 2.5q41 0 63 -16.5t22 -46.5q0 -28 -33 -66t-33 -70q0 -36 51 -120.5t114 -164.5q8 -10 18 -10q7 0 17 12q51 60 107.5 151.5t56.5 125.5
t-35 76.5t-35 69.5q0 59 83 59q22 0 84 -2.5t86 -2.5q23 0 82.5 2.5t81.5 2.5q67 0 67 -58q0 -33 -23.5 -58.5t-74 -63.5t-83.5 -73q-57 -58 -209 -269q-76 -106 -76 -126z" />
    <glyph glyph-name="Y" unicode="Y" horiz-adv-x="1256" 
d="M788 501q0 -169 14 -264q6 -40 27.5 -68.5t44 -42t40.5 -32.5t18 -43q0 -25 -20.5 -40.5t-59.5 -15.5q-30 0 -109 2.5t-113 2.5q-36 0 -116.5 -2.5t-109.5 -2.5q-39 0 -59.5 15.5t-20.5 40.5q0 24 18.5 43.5t41 32.5t44.5 42t28 68q11 78 11 279q0 41 -26.5 104
t-57.5 117t-101 169q-136 220 -180 280q-21 27 -53 53t-47.5 44.5t-15.5 45.5q0 39 27 54t83 15q21 0 81 -2.5t112 -2.5q51 0 115.5 2.5t89.5 2.5q85 0 85 -63q0 -27 -39 -69t-39 -75q0 -41 70.5 -179t112.5 -186q9 -9 17 -9q7 0 17 12q45 64 105.5 192.5t60.5 166.5
q0 27 -12.5 49.5t-28 35t-28 30t-12.5 36.5q0 59 83 59q22 0 89 -2.5t91 -2.5t64.5 2.5t62.5 2.5q32 0 49.5 -15.5t17.5 -42.5q0 -30 -14 -47.5t-51.5 -50t-68.5 -72.5q-13 -17 -28 -39t-27 -41t-30.5 -52.5t-28.5 -52.5t-33.5 -62.5t-33.5 -62.5t-37.5 -68t-38.5 -69.5
t-30.5 -59.5t-28 -61.5t-15.5 -50.5t-7 -50z" />
    <glyph glyph-name="Z" unicode="Z" horiz-adv-x="1271" 
d="M750 190q83 0 140.5 12t98.5 41.5t67.5 67t54.5 99.5q21 45 41.5 65.5t44.5 20.5q51 0 51 -86q0 -30 -10.5 -148t-14.5 -185q-3 -47 -24.5 -64.5t-74.5 -17.5q-31 0 -190.5 2.5t-260.5 2.5q-133 0 -311 -2.5t-228 -2.5q-62 0 -62 56q0 60 116 231l554 811q49 71 49 96
q0 17 -45 21.5t-184 4.5q-79 0 -129.5 -11t-87.5 -42t-60 -71t-52 -112q-33 -70 -79 -70q-23 0 -39.5 15.5t-16.5 49.5q0 38 13 132.5t20 178.5q5 67 29 90t79 23q54 0 192 -2.5t251 -2.5q112 0 242 2.5t176 2.5q75 0 104 -14.5t29 -60.5q0 -56 -75 -172l-548 -822
q-58 -91 -58 -114q0 -10 11 -14.5t55 -7.5t132 -3z" />
    <glyph glyph-name="bracketleft" unicode="[" horiz-adv-x="729" 
d="M583 1267v-1379q0 -53 22 -73.5t68 -33.5q16 -5 42 -11t42.5 -10t33.5 -11t25.5 -17.5t8.5 -25.5q0 -52 -71 -52q-14 0 -94 2.5t-113 2.5t-91.5 -2.5t-74.5 -2.5q-76 0 -76 74q0 14 4.5 96t9 275.5t4.5 478.5t-4.5 478.5t-9 274.5t-4.5 95q0 74 76 74q16 0 74.5 -2.5
t91.5 -2.5t113 2.5t94 2.5q71 0 71 -51q0 -15 -8.5 -25.5t-25.5 -17.5t-33.5 -11.5t-42.5 -10.5t-42 -11q-22 -6 -35.5 -11.5t-27.5 -17t-20.5 -30.5t-6.5 -47z" />
    <glyph glyph-name="backslash" unicode="\" horiz-adv-x="688" 
d="M54 1346q-7 17 -7 30q0 18 22.5 28.5t53.5 10.5q29 0 40 -5.5t16 -18.5q15 -35 256 -679t248 -671q5 -15 5 -28q0 -18 -24 -28.5t-55 -10.5q-41 0 -55 28q-9 17 -248.5 661t-251.5 683z" />
    <glyph glyph-name="bracketright" unicode="]" horiz-adv-x="729" 
d="M355 -112v1379q0 52 -22.5 73t-67.5 33q-16 5 -42 11t-42.5 10.5t-33.5 11.5t-25.5 17.5t-8.5 25.5q0 51 71 51q14 0 94 -2.5t113 -2.5t91.5 2.5t74.5 2.5q76 0 76 -74q0 -14 -4.5 -95t-9 -274.5t-4.5 -478.5t4.5 -478.5t9 -275.5t4.5 -96q0 -74 -76 -74q-16 0 -74.5 2.5
t-91.5 2.5t-113 -2.5t-94 -2.5q-71 0 -71 52q0 15 8.5 25.5t25.5 17.5t33.5 11t42.5 10t42 11q23 6 35.5 12t27 17.5t21 30.5t6.5 47z" />
    <glyph glyph-name="asciicircum" unicode="^" horiz-adv-x="1069" 
d="M597 1161q-7 0 -22 -19q-37 -51 -113 -190.5t-135 -263.5q-12 -25 -25.5 -35t-39.5 -10q-47 0 -93 19t-46 46q0 18 19 57q65 138 176.5 337t176.5 279q14 18 49.5 31t81.5 13q43 0 73 -37q67 -86 185 -293.5t171 -329.5q14 -36 14 -54q0 -26 -53.5 -47t-89.5 -21
q-29 0 -39.5 9t-23.5 36q-140 295 -246 454q-12 19 -20 19z" />
    <glyph glyph-name="underscore" unicode="_" horiz-adv-x="921" 
d="M842 -323h-923q-30 0 -30 37q0 58 16 112q8 23 21.5 31.5t43.5 8.5h925q18 0 23.5 -10.5t5.5 -30.5q0 -53 -17 -110q-8 -23 -21 -30.5t-44 -7.5z" />
    <glyph glyph-name="grave" unicode="`" horiz-adv-x="592" 
d="M568 1243q23 -48 23 -55q0 -37 -43 -37q-41 0 -113 51t-119 111q-62 75 -62 139q0 44 25.5 74t73.5 30q30 0 53.5 -12t40.5 -37t26 -43.5t21 -49.5q26 -77 74 -171z" />
    <glyph glyph-name="a" unicode="a" 
d="M406 556q53 17 123 30.5t115.5 22.5t57.5 18q25 19 25 98q0 89 -39.5 144.5t-117.5 55.5q-117 0 -164 -171q-13 -47 -36.5 -71.5t-70.5 -24.5q-56 0 -96.5 39.5t-40.5 109.5q0 99 112 176.5t298 77.5q132 0 232 -42t161.5 -136t61.5 -232q0 -69 -5.5 -191t-5.5 -171
q0 -35 13.5 -60t45.5 -25q12 0 26 3.5t21 3.5q9 0 15 -11t6 -28q0 -80 -62 -134.5t-151 -54.5q-137 0 -187 101q-8 18 -18 18q-6 0 -25 -19q-51 -47 -126 -77.5t-154 -30.5q-135 0 -221 67.5t-86 189.5q0 226 293 324zM729 392q0 82 -18 82q-90 0 -161 -25
q-64 -23 -100 -66.5t-36 -95.5t34 -83.5t90 -31.5q88 0 139.5 61.5t51.5 158.5z" />
    <glyph glyph-name="b" unicode="b" horiz-adv-x="1186" 
d="M161 316v871q0 64 -69 94q-14 8 -20.5 13t-13.5 16t-7 24q0 10 3 18t11 14.5t15.5 12t22 11.5t25.5 10.5t31.5 12t34.5 12.5q45 17 90.5 39t69.5 31.5t45 9.5q67 0 67 -67q0 -11 -10 -132t-10 -243v-114q0 -49 15 -49q6 0 30.5 25t57 55t93.5 55t131 25
q180 0 283.5 -140.5t103.5 -367.5q0 -137 -38 -246.5t-104.5 -180t-154.5 -108t-190 -37.5q-59 0 -117.5 19t-100.5 38t-60 19q-66 0 -101 -28q-11 -9 -27 -23t-25 -21.5t-21.5 -14t-23.5 -6.5q-24 0 -37.5 13.5t-13.5 37.5q0 8 7.5 93t7.5 209zM647 857q-81 0 -138 -86
t-57 -248q0 -112 14.5 -188.5t41 -116.5t57.5 -56t71 -16q86 0 146 91t60 271q0 179 -53.5 264t-141.5 85z" />
    <glyph glyph-name="c" unicode="c" horiz-adv-x="1030" 
d="M92 497q0 113 37 214.5t104 179.5t168.5 123.5t223.5 45.5q155 0 258.5 -73.5t103.5 -188.5q0 -78 -50.5 -126.5t-133.5 -48.5q-35 0 -51 18.5t-26 64.5q-10 41 -21 71.5t-29 62.5t-45.5 49.5t-63.5 17.5q-82 0 -133 -78t-51 -200q0 -165 86.5 -273t236.5 -108
q45 0 85.5 11.5t65 24t53 38t36.5 35.5t29 35q24 24 36 24q33 0 33 -67q0 -50 -19 -102t-57.5 -100.5t-90.5 -86t-124.5 -60.5t-154.5 -23q-150 0 -266 68t-178 186t-62 266z" />
    <glyph glyph-name="d" unicode="d" horiz-adv-x="1213" 
d="M1021 -17q-70 0 -114 24t-76 80q-3 4 -7.5 11t-7 11t-6.5 7t-8 3q-3 0 -6 -1.5t-7.5 -5.5t-8.5 -8l-11 -11t-13 -12q-108 -101 -259 -101q-79 0 -149 31.5t-125.5 92t-88 159.5t-32.5 224q0 269 122 421t306 152q62 0 114.5 -17.5t79 -38t45.5 -38t23 -17.5q16 0 16 83
v148q0 70 -68 101q-14 8 -22 13.5t-15 16t-7 23.5q0 14 6.5 24.5t22 19.5t29.5 14.5t41 15.5t45 17q34 14 83.5 37t76.5 33t47 10q65 0 65 -67q0 -35 -4.5 -135t-4.5 -253v-761q0 -34 15.5 -59.5t46.5 -25.5q12 0 26.5 3.5t20.5 3.5q9 0 15.5 -11t6.5 -28q0 -80 -62 -134.5
t-151 -54.5zM629 194q183 0 183 336q0 189 -56.5 275t-137.5 86q-88 0 -142.5 -84t-54.5 -258t55.5 -264.5t152.5 -90.5z" />
    <glyph glyph-name="e" unicode="e" horiz-adv-x="1047" 
d="M947 552q-78 -44 -217.5 -68t-269.5 -31q-27 -1 -27 -20q0 -24 9 -51.5t29.5 -57t50 -53.5t74.5 -39t99 -15q179 0 285 138q23 23 41 23q31 0 31 -59q0 -52 -30 -110t-84.5 -110.5t-142.5 -87t-192 -34.5q-233 0 -371 144t-138 374q0 152 66 280.5t190 206.5t281 78
q101 0 181 -34.5t126.5 -90t71 -119t24.5 -127.5q0 -90 -87 -137zM756 736q0 71 -44 119t-111 48q-89 0 -147.5 -76t-58.5 -175q0 -60 40 -60q61 0 156.5 23t137.5 61q27 25 27 60z" />
    <glyph glyph-name="f" unicode="f" horiz-adv-x="770" 
d="M490 801v-506q0 -62 13 -93t55 -63q9 -6 37 -20.5t42 -29t14 -35.5q0 -59 -80 -59q-23 0 -95.5 2.5t-129.5 2.5q-33 0 -98 -2.5t-102 -2.5q-66 0 -66 56q0 15 7 29.5t13.5 22t20 19.5t16.5 15q58 61 58 159v483q0 56 -52 65q-36 5 -52 8.5t-29 14t-13 28.5q0 23 16.5 55
t33.5 44q9 6 42 14t48 22q7 7 15 40.5t18.5 83t20.5 80.5q39 120 127 197.5t216 77.5q102 0 163 -49t61 -115q0 -67 -31 -121.5t-92 -54.5q-8 0 -14.5 1.5t-11.5 3.5t-10.5 6.5t-8.5 7t-8 9.5t-6.5 9.5t-7 11.5t-6.5 11q-40 58 -60 74q-27 22 -60 22q-42 0 -66 -40t-24 -99
q0 -90 32 -136t115 -46q20 0 89 3.5t81 3.5q59 0 59 -59q0 -29 -11.5 -64.5t-31.5 -54.5q-15 -15 -41 -15q-11 0 -91 4t-99 4q-16 0 -16 -25z" />
    <glyph glyph-name="g" unicode="g" horiz-adv-x="1142" 
d="M540 1059q78 0 198 -20.5t151 -20.5q52 0 92.5 6.5t59 14t36 14t31.5 6.5q37 0 37 -57q0 -54 -21 -106q-28 -68 -74 -68q-27 0 -64.5 8t-41.5 8q-10 0 -10 -10q0 -4 11 -23t22 -50.5t11 -66.5q0 -165 -122 -261t-308 -96q-21 0 -60 3t-52 3q-42 0 -75.5 -23t-33.5 -61
q0 -37 31.5 -58t87.5 -21q31 0 150.5 15.5t189.5 15.5q151 0 237 -65t86 -204q0 -123 -92 -218t-237 -142.5t-315 -47.5q-210 0 -315 65.5t-105 183.5q0 67 39.5 116.5t96.5 75.5q16 10 16 18q0 7 -14 15q-34 19 -65 62.5t-31 106.5q0 64 43 119.5t117 88.5q14 7 14 16
t-12 19q-58 45 -93.5 114.5t-35.5 157.5q0 173 120.5 270t299.5 97zM402 715q0 -103 45.5 -156t110.5 -53q67 0 109.5 44t42.5 129q0 35 -8.5 71.5t-26.5 72.5t-51 59t-77 23q-65 0 -105 -52t-40 -138zM756 -158q0 51 -40.5 78.5t-115.5 27.5q-133 0 -210 -25
q-55 -14 -87 -44t-32 -69q0 -58 55.5 -86t149.5 -28q122 0 201 42t79 104z" />
    <glyph glyph-name="h" unicode="h" horiz-adv-x="1265" 
d="M211 296v893q0 62 -67 92q-42 23 -42 53q0 14 6.5 24.5t22 19.5t29.5 14.5t41 15.5t44 17q35 14 83.5 37t75.5 33t47 10q65 0 65 -67q0 -17 -5 -85t-10.5 -180t-5.5 -235q0 -41 16 -41q6 0 35.5 25.5t68 56t104 56t135.5 25.5q166 0 248.5 -100.5t82.5 -288.5
q0 -97 -14 -245.5t-14 -172.5q0 -79 49 -119q9 -7 26.5 -18t24.5 -17t13.5 -17.5t6.5 -27.5q0 -59 -86 -59q-26 0 -77.5 2.5t-81.5 2.5q-35 0 -82.5 -2.5t-79.5 -2.5q-60 0 -60 56q0 14 3.5 30t6.5 26t9 26t7 19q16 48 29.5 174.5t13.5 254.5q0 273 -182 273q-68 0 -129 -56
t-61 -135v-381q0 -60 8.5 -90t31.5 -54q8 -9 28 -23.5t28 -27t8 -33.5q0 -59 -80 -59q-29 0 -84.5 2.5t-84.5 2.5q-33 0 -93 -2.5t-106 -2.5q-67 0 -67 56q0 15 7 29.5t14.5 22.5t20 19t16.5 15q57 59 57 159z" />
    <glyph glyph-name="i" unicode="i" horiz-adv-x="615" 
d="M173 1270q0 86 69.5 156.5t157.5 70.5q63 0 105 -37.5t42 -99.5q0 -84 -75.5 -146t-169.5 -62q-64 0 -96.5 32.5t-32.5 85.5zM517 992q0 -11 -5 -134.5t-5 -248.5v-327q0 -57 11 -87.5t36 -56.5q8 -9 28 -23.5t28 -27t8 -33.5q0 -59 -78 -59q-30 0 -89.5 2.5t-88.5 2.5
q-33 0 -93 -2.5t-106 -2.5q-67 0 -67 56q0 15 7 29.5t14.5 22.5t20 19t16.5 15q57 59 57 159v413q0 85 -65 118q-46 29 -46 60q0 16 7 27.5t22.5 20t30 14t41 14.5t44.5 16q35 14 85.5 37t78 33.5t43.5 10.5q65 0 65 -68z" />
    <glyph glyph-name="j" unicode="j" horiz-adv-x="552" 
d="M37 1270q0 86 70 156.5t158 70.5q62 0 104.5 -37.5t42.5 -99.5q0 -84 -75.5 -146t-169.5 -62q-64 0 -97 32.5t-33 85.5zM373 609v-253q0 -92 4 -223.5t4 -144.5q0 -106 -35.5 -190.5t-94 -135t-128.5 -77t-145 -26.5q-44 0 -76.5 16.5t-32.5 39.5q0 13 6.5 21t24 19
t27.5 20q67 57 108.5 140.5t41.5 231.5v662q0 84 -65 118q-23 15 -34.5 28t-11.5 32q0 16 7 27.5t22.5 20t30 14t41 14.5t44.5 16q36 14 86 37t77 33.5t43 10.5q66 0 66 -68q0 -15 -2.5 -58t-5 -126.5t-2.5 -198.5z" />
    <glyph glyph-name="k" unicode="k" horiz-adv-x="1230" 
d="M497 319q0 -75 14.5 -115t48.5 -73q7 -7 26 -20t28 -25.5t9 -31.5q0 -59 -80 -59q-26 0 -90 2.5t-91 2.5q-33 0 -97 -2.5t-102 -2.5q-67 0 -67 56q0 15 7 29.5t14.5 22.5t20 19t16.5 15q57 59 57 159v893q0 62 -67 92q-42 23 -42 53q0 14 6.5 24.5t22 19.5t29.5 14.5
t41 15.5t44 17q35 14 83.5 37t75.5 33t47 10q65 0 65 -67q0 -8 -7.5 -240.5t-7.5 -518.5q0 -89 16 -89q18 0 82.5 49t124 115t59.5 102q0 20 -36 63t-36 65q0 59 68 59q30 0 91 -2.5t94 -2.5t90.5 4.5t85.5 4.5q82 0 82 -60q0 -13 -5 -24t-19.5 -23.5t-21.5 -18t-32 -21
t-31 -19.5q-36 -22 -86.5 -60.5t-131 -102t-112.5 -88.5q-13 -12 -13 -17q0 -9 14 -14q77 -30 136.5 -77.5t96.5 -100.5t67 -104t65.5 -100.5t73.5 -77.5q1 -1 8 -6t13 -9.5t14 -13t14 -16.5t10 -19t4 -22t-3.5 -23t-17 -23.5t-35.5 -11.5q-20 0 -91.5 2t-105.5 2
q-39 0 -103 -3.5t-80 -3.5q-35 0 -56 15.5t-21 43.5q0 16 14.5 41.5t14.5 43.5q0 78 -87 182q-43 52 -89.5 80t-72.5 28q-34 0 -45 -25t-11 -82z" />
    <glyph glyph-name="l" unicode="l" horiz-adv-x="619" 
d="M516 1438q0 -35 -4.5 -135t-4.5 -253v-768q0 -57 11 -87.5t36 -56.5q8 -9 28 -23.5t28 -27t8 -33.5q0 -59 -78 -59q-26 0 -89 2.5t-89 2.5q-33 0 -97 -2.5t-102 -2.5q-67 0 -67 56q0 15 7 29.5t14.5 22.5t20 19t16.5 15q57 59 57 159v893q0 62 -67 92q-42 23 -42 53
q0 14 6.5 24.5t22 19.5t29.5 14.5t41 15.5t44 17q35 14 83.5 37t75.5 33t47 10q65 0 65 -67z" />
    <glyph glyph-name="m" unicode="m" horiz-adv-x="1840" 
d="M1107 896q7 0 36 25.5t67 56.5t103 56.5t133 25.5q316 0 316 -389q0 -97 -12.5 -245.5t-12.5 -172.5q0 -81 47 -119q9 -8 25 -18.5t23 -16.5t13 -17.5t6 -27.5q0 -59 -85 -59q-26 0 -76.5 2.5t-77.5 2.5q-35 0 -79 -2.5t-76 -2.5q-58 0 -58 56q0 35 23 101q15 47 28 173
t13 256q0 137 -43.5 205t-124.5 68q-61 0 -116 -54.5t-55 -150.5q0 -97 -3.5 -234.5t-3.5 -161.5q0 -86 37 -119q8 -7 23 -18.5t21 -17t11.5 -17t5.5 -27.5q0 -59 -83 -59q-27 0 -72 2.5t-71 2.5q-35 0 -78.5 -2.5t-75.5 -2.5q-59 0 -59 56q0 32 24 101q15 45 26 170.5
t11 258.5q0 273 -166 273q-60 0 -116.5 -56t-56.5 -135v-381q0 -61 7.5 -90.5t29.5 -53.5q8 -9 26.5 -23.5t26 -27t7.5 -33.5q0 -59 -78 -59q-29 0 -81.5 2.5t-77.5 2.5q-32 0 -96 -2.5t-101 -2.5q-65 0 -65 56q0 15 7 29.5t14 22.5t19.5 19.5t15.5 14.5q55 61 55 159v442
q0 69 -63 97q-42 23 -42 55q0 15 6.5 26t22.5 20.5t30 15t41 15.5t45 18q31 14 61 29.5t43.5 22.5t28 12t26.5 5q29 0 46 -15.5t26 -53.5q1 -6 3.5 -17t4 -17t3.5 -14.5t4 -14t4 -10.5t5 -7t6 -2q6 0 34.5 24.5t64 54t95 54t119.5 24.5q158 0 240 -115q6 -7 12.5 -16.5
t10.5 -14t8 -9.5t7.5 -7t7.5 -2z" />
    <glyph glyph-name="n" unicode="n" horiz-adv-x="1264" 
d="M1185 671q0 -97 -14.5 -245.5t-14.5 -172.5q0 -79 50 -119q9 -7 26 -18t24 -17t13.5 -17.5t6.5 -27.5q0 -59 -85 -59q-27 0 -79 2.5t-81 2.5q-35 0 -82.5 -2.5t-79.5 -2.5q-60 0 -60 56q0 18 4.5 36.5t12.5 39.5t9 25q16 46 29.5 172.5t13.5 256.5q0 273 -181 273
q-69 0 -130 -56t-61 -135v-381q0 -60 8.5 -90t31.5 -54q8 -9 28 -23.5t28 -27t8 -33.5q0 -59 -80 -59q-30 0 -86 2.5t-82 2.5q-33 0 -97 -2.5t-102 -2.5q-67 0 -67 56q0 15 7 29.5t14 22t20.5 19.5t16.5 15q56 59 56 159v442q0 69 -68 98q-20 12 -30 23.5t-10 30.5
q0 15 6.5 26t22 20.5t29 15t40.5 15.5t44 18q30 14 62 29.5t46 22.5t29 12t28 5q29 0 46 -15.5t27 -53.5q14 -71 25 -79q3 -3 7 -3q6 0 36 24.5t68.5 54t103.5 54t131 24.5q166 0 249 -100.5t83 -288.5z" />
    <glyph glyph-name="o" unicode="o" horiz-adv-x="1143" 
d="M92 511q0 243 144.5 396t369.5 153q107 0 204 -38t171.5 -108.5t118.5 -179.5t44 -241q0 -125 -41.5 -224t-114 -161.5t-166.5 -95t-204 -32.5q-238 0 -382 148.5t-144 382.5zM579 900q-74 0 -122 -68.5t-48 -211.5q0 -186 58 -311q34 -70 84 -106t107 -36
q78 0 130.5 61.5t52.5 187.5q0 78 -19 167t-51 157q-38 78 -88.5 119t-103.5 41z" />
    <glyph glyph-name="p" unicode="p" horiz-adv-x="1190" 
d="M1164 552q0 -256 -135.5 -414t-337.5 -158q-49 0 -90 11t-62 23.5t-38 23.5t-23 11q-18 0 -18 -56v-129q0 -13 1.5 -24.5t3 -20.5t6 -18.5t6 -14.5t8.5 -13.5t9 -11.5t11.5 -10.5t11 -8.5t12 -9t11.5 -9q5 -4 25 -16.5t27 -18.5t15.5 -20t8.5 -30q0 -60 -78 -60
q-25 0 -105 2.5t-109 2.5q-34 0 -102 -2.5t-106 -2.5q-67 0 -67 55q0 16 7 30.5t13.5 22t20.5 20t16 14.5q58 61 58 159v858q0 69 -69 98q-20 12 -30 23.5t-10 30.5q0 15 6.5 26t22 20.5t29.5 15t41 16t44 17.5q30 14 61.5 29.5t45.5 22.5t29 12t28 5q29 0 46.5 -15.5
t27.5 -53.5q14 -72 25 -80q3 -2 6 -2q6 0 21.5 16t40 39.5t57.5 46.5t83.5 39t106.5 16q183 0 285.5 -140t102.5 -368zM651 857q-81 0 -138.5 -86t-57.5 -248q0 -111 14.5 -187t41.5 -114t57.5 -53t71.5 -15q86 0 146 87.5t60 266.5t-53.5 264t-141.5 85z" />
    <glyph glyph-name="q" unicode="q" horiz-adv-x="1171" 
d="M1103 667v-787q0 -97 57 -159q2 -2 16 -14.5t20.5 -20t14 -22.5t7.5 -30q0 -55 -67 -55q-37 0 -113.5 2.5t-114.5 2.5q-39 0 -103.5 -2.5t-90.5 -2.5q-79 0 -79 60q0 22 10.5 36t36 29.5t30.5 19.5q26 19 42 37.5t32 66.5t16 117v138q0 43 -16 43q-5 0 -27.5 -23
t-53.5 -50t-91.5 -50t-131.5 -23q-179 0 -287 141t-108 366q0 136 38 246t104.5 181t154 108.5t189.5 37.5q62 0 129 -23.5t114.5 -47t63.5 -23.5q40 0 76 29q9 7 26 22t25 21.5t20 12.5t23 6q49 0 49 -50q0 -8 -5.5 -112t-5.5 -228zM629 194q89 0 136 79.5t47 256.5
q0 361 -188 361q-87 0 -145 -83t-58 -259q0 -178 57 -266.5t151 -88.5z" />
    <glyph glyph-name="r" unicode="r" horiz-adv-x="960" 
d="M650 823q-59 0 -101.5 -64.5t-42.5 -142.5v-321q0 -60 15.5 -92.5t58.5 -65.5q10 -7 37 -20.5t41 -27.5t14 -35q0 -59 -79 -59q-24 0 -99.5 2.5t-131.5 2.5q-33 0 -93 -2.5t-106 -2.5q-67 0 -67 56q0 15 7 29.5t14 22t20.5 19.5t16.5 15q56 59 56 159v442q0 69 -68 98
q-20 12 -30 23.5t-10 30.5q0 15 6.5 26t22 20.5t29 15t40.5 15.5t44 18q30 14 62 29.5t46 22.5t29 12t28 5q29 0 46 -15.5t27 -53.5q14 -71 25 -79q3 -3 7 -3q6 0 31.5 24.5t57.5 54t86.5 54t110.5 24.5q84 0 139.5 -54t55.5 -168q0 -87 -54.5 -157.5t-128.5 -70.5
q-43 0 -57.5 21.5t-25.5 75.5q-2 11 -3 16q-20 100 -76 100z" />
    <glyph glyph-name="s" unicode="s" horiz-adv-x="971" 
d="M561 1062q92 0 181.5 -20t129.5 -61q60 -61 60 -187q0 -41 -18 -64t-45 -23q-13 0 -23.5 4t-25 18t-19 19t-23.5 27q-26 30 -43.5 48t-48 42.5t-67 36.5t-78.5 12q-60 0 -93 -29t-33 -74q0 -37 28.5 -64.5t60.5 -41t120 -43.5q16 -6 25 -9q59 -20 99 -37t87.5 -46.5
t76 -63t48 -85.5t19.5 -115q0 -151 -120.5 -243t-313.5 -92q-100 0 -206 30t-158 88q-54 56 -54 191q0 42 16.5 65.5t47.5 23.5q27 0 67 -51q25 -32 37 -46t43.5 -44.5t57.5 -45t66.5 -27.5t84.5 -13q60 0 93.5 29.5t33.5 79.5q0 23 -10 41.5t-24.5 31.5t-42.5 27.5
t-51.5 24t-63.5 25.5t-69 29q-35 15 -54 24.5t-51 27t-50.5 32.5t-41.5 39t-35 49.5t-20.5 60t-8.5 73.5q0 97 57 172.5t149.5 114.5t202.5 39z" />
    <glyph glyph-name="t" unicode="t" horiz-adv-x="796" 
d="M466 818q-9 -94 -9 -377q0 -223 143 -223q57 0 121 54q19 19 32 19q30 0 30 -49q0 -35 -21 -77q-36 -73 -117 -129t-201 -56q-289 0 -289 370q0 43 6.5 205t6.5 224q0 32 -10 49t-35 21q-53 6 -78 17.5t-25 39.5q0 66 49 90q114 57 184 127q32 33 60.5 82.5t48.5 75.5
t48 26q29 0 47 -23.5t18 -68.5q0 -26 -5 -109l-5 -83q0 -8 9 -8t99.5 4.5t104.5 4.5q37 0 55.5 -15t18.5 -55q0 -27 -12.5 -60t-29.5 -51q-14 -14 -40 -14q-10 0 -90 4.5t-97 4.5q-16 0 -17 -20z" />
    <glyph glyph-name="u" unicode="u" horiz-adv-x="1266" 
d="M1134 692v-403q0 -34 15.5 -59.5t46.5 -25.5q12 0 26.5 3.5t20.5 3.5q9 0 15.5 -11t6.5 -28q0 -80 -62 -134.5t-152 -54.5q-137 0 -197 114q-11 22 -25 22q-6 0 -29 -23q-27 -23 -42.5 -34.5t-54.5 -35t-87 -35t-104 -11.5q-91 0 -158.5 29t-106.5 81.5t-57.5 119
t-18.5 149.5q0 85 11.5 228.5t11.5 158.5q0 72 -43 114q-10 9 -32.5 24t-32.5 28t-10 35q0 55 86 64q77 8 140.5 19t96 17.5t51.5 6.5q65 0 65 -70q0 -39 -19 -199.5t-19 -326.5q0 -133 40.5 -205t136.5 -72q80 0 132 57.5t52 175.5v295q0 63 -9.5 94.5t-38.5 57.5
q-6 6 -26.5 22.5t-28 29.5t-7.5 34q0 53 80 63q63 6 128 17.5t105 19t55 7.5q61 0 61 -69q0 -21 -11.5 -106.5t-11.5 -186.5z" />
    <glyph glyph-name="v" unicode="v" horiz-adv-x="1105" 
d="M968 764q-26 -67 -65.5 -173.5t-73 -198t-38.5 -104.5t-17 -44.5t-17.5 -44.5t-16 -37.5t-18.5 -39.5t-19.5 -33.5t-24.5 -34.5q-22 -29 -72.5 -49t-92.5 -20q-46 0 -65 22.5t-45 92.5q-1 2 -79.5 194.5t-116.5 288.5q-102 252 -159 305q-21 21 -29 30t-17.5 27.5
t-9.5 37.5q0 28 17.5 44t50.5 16q29 0 81.5 -2.5t82.5 -2.5q28 0 93 2.5t96 2.5q37 0 54.5 -14t17.5 -53q0 -17 -27.5 -54t-27.5 -70q0 -53 84 -261q86 -217 103 -239q5 -6 8 -6q26 0 116 301q42 129 42 175q0 38 -19.5 67t-38.5 51.5t-19 44.5q0 27 16.5 42.5t42.5 15.5
q23 0 78 -2.5t75 -2.5q25 0 66 2.5t55 2.5q60 0 60 -53q0 -25 -12 -43.5t-29.5 -33.5t-43 -54t-46.5 -95z" />
    <glyph glyph-name="w" unicode="w" horiz-adv-x="1657" 
d="M862 486q-7 32 -19 32q-10 0 -20 -30q-40 -124 -63 -191.5t-55 -141t-57 -101.5t-75 -48t-92 -20q-44 0 -63 22.5t-46 90.5q-86 252 -173 484q-99 256 -153 305q-18 18 -28 29t-18 29t-8 37q0 28 17.5 44t49.5 16q28 0 79 -2.5t80 -2.5q28 0 94 2.5t96 2.5q76 0 76 -65
q0 -19 -29 -56t-29 -70q0 -69 68 -261q77 -224 94 -224q13 0 33 61t57 205q21 79 40.5 188t26.5 131q11 38 59.5 61.5t102.5 23.5q46 0 69 -17t33 -50q3 -10 19 -74.5t38.5 -148t45.5 -153.5q72 -224 92 -224q30 0 99 276q35 116 35 176q0 38 -19 67t-37.5 51.5t-18.5 44.5
q0 27 16.5 42.5t41.5 15.5q22 0 79.5 -2.5t78.5 -2.5q24 0 61.5 2.5t50.5 2.5q60 0 60 -53q0 -25 -11.5 -43.5t-28 -33.5t-40.5 -54t-44 -95q-31 -86 -87.5 -259t-71.5 -217l-18 -54t-18.5 -54.5t-17.5 -45t-22 -45.5t-25 -35q-25 -29 -73.5 -48.5t-92.5 -19.5q-40 0 -63 26
t-44 78q-17 41 -64 179.5t-68 216.5z" />
    <glyph glyph-name="x" unicode="x" horiz-adv-x="1168" 
d="M535 376q-12 0 -73 -86t-61 -113t33.5 -60t33.5 -62q0 -31 -21.5 -45t-50.5 -14q-15 0 -81.5 2t-95.5 2q-37 0 -86.5 -2t-52.5 -2q-34 0 -50 12.5t-16 41.5q0 12 4 21.5t16 21.5t19.5 17.5t30 21.5t30.5 22q96 73 321 329q8 8 8 18q0 8 -10 21q-203 266 -262 328
q-25 26 -61.5 49t-52.5 40.5t-16 47.5q0 26 20 40.5t54 14.5q28 0 87 -2.5t86 -2.5q29 0 103.5 2.5t97.5 2.5q75 0 75 -67q0 -21 -22 -46t-22 -43q0 -27 55.5 -115.5t66.5 -88.5t67.5 84t56.5 114q0 20 -33.5 50t-33.5 55q0 30 20.5 44t50.5 14q15 0 58 -2.5t72 -2.5
q36 0 91 2t59 2q35 0 51.5 -13t16.5 -44q0 -12 -4 -22t-16 -21t-20 -17t-28.5 -20.5t-29.5 -21.5q-32 -24 -81 -75.5t-116.5 -130.5t-71.5 -83q-10 -12 -10 -20q0 -6 10 -18q69 -80 169.5 -210t121.5 -151t48 -42.5t40.5 -32.5t23 -28t9.5 -39q0 -25 -21.5 -41.5
t-54.5 -16.5q-28 0 -95 2.5t-94 2.5q-29 0 -99.5 -2.5t-92.5 -2.5q-78 0 -78 65q0 22 24 52t24 50q0 26 -64 120t-77 94z" />
    <glyph glyph-name="y" unicode="y" horiz-adv-x="1116" 
d="M981 764q-19 -48 -61 -160.5t-78 -205t-64 -157.5q-122 -287 -164 -372q-107 -210 -216 -276q-63 -38 -137 -38q-85 0 -141.5 51t-56.5 134q0 73 42.5 123t100.5 50q47 0 80 -44q4 -5 15 -20.5t16 -21.5t14 -15t18 -12.5t19 -3.5q29 0 65.5 49t36.5 92q0 31 -36 125
t-100 240t-73 169q-1 3 -16.5 39.5t-21.5 50.5l-22.5 52.5t-26.5 58.5t-25.5 54t-27 55t-24.5 44.5t-24.5 38.5t-20.5 24q-21 21 -29 30t-17.5 27.5t-9.5 37.5q0 28 17 44t50 16q29 0 82 -2.5t84 -2.5q27 0 92.5 2.5t96.5 2.5q37 0 54.5 -14t17.5 -53q0 -17 -28 -54t-28 -70
q0 -48 86 -261q88 -216 105 -239q5 -6 8 -6q15 0 42.5 73t74.5 221q46 133 46 182q0 38 -20 67t-39.5 51.5t-19.5 44.5q0 27 16.5 42.5t42.5 15.5q23 0 78.5 -2.5t75.5 -2.5q25 0 66.5 2.5t56.5 2.5q59 0 59 -53q0 -25 -12 -43.5t-29.5 -33.5t-43 -54t-46.5 -95z" />
    <glyph glyph-name="z" unicode="z" horiz-adv-x="944" 
d="M88 123l451 564q47 57 47 77q0 8 -8 12t-41.5 7t-100.5 3q-150 0 -232 -37q-13 -5 -32.5 -15.5t-31 -14.5t-25.5 -4q-41 0 -41 51q0 16 32 144q3 12 7.5 34t7.5 34.5t9.5 29.5t13.5 26.5t19 16t28 6.5q4 0 109 -10t282 -10q78 0 170 5.5t117 5.5q27 0 41 -11.5t14 -41.5
q0 -12 -10 -37t-30 -49l-431 -553q-47 -56 -47 -75q0 -8 7 -11.5t31.5 -5.5t75.5 -2q163 0 277 60q15 8 32.5 18.5t26.5 15.5t20 9t21 4q38 0 38 -55q0 -28 -18 -112t-25 -139q-9 -79 -79 -79q-6 0 -126 8t-337 8q-92 0 -154 -3t-91 -3q-56 0 -56 45q0 37 39 84z" />
    <glyph glyph-name="braceleft" unicode="{" horiz-adv-x="729" 
d="M489 578q0 -7 15.5 -13.5t37.5 -17.5t44.5 -29.5t38 -58t15.5 -93.5q0 -71 -38.5 -219.5t-38.5 -207.5q0 -125 119 -162q13 -4 35.5 -9.5t36 -9.5t28 -11t21.5 -17.5t7 -24.5q0 -29 -32 -40t-96 -11q-89 0 -158.5 16t-113 41.5t-71.5 61.5t-39.5 72.5t-11.5 77.5
q0 74 54.5 247t54.5 236q0 33 -9 56.5t-23 35t-29.5 21t-29.5 15t-23 17t-9 27.5t9 27.5t23 17t29.5 15t29.5 21t23 35t9 56.5q0 63 -54.5 235.5t-54.5 246.5q0 52 19.5 97t62 85t122.5 63t190 23q64 0 96 -11t32 -39q0 -14 -7 -24.5t-22 -17.5t-28 -11t-35.5 -10t-35.5 -10
q-119 -35 -119 -160q0 -59 38.5 -208.5t38.5 -220.5q0 -54 -15.5 -93t-38 -57.5t-44.5 -29.5t-37.5 -17t-15.5 -13z" />
    <glyph glyph-name="bar" unicode="|" horiz-adv-x="610" 
d="M610 1456v-1830q0 -23 -19 -35t-70 -12q-62 0 -84.5 10.5t-22.5 41.5v1830q0 24 19.5 36t70.5 12q61 0 83.5 -11t22.5 -42z" />
    <glyph glyph-name="braceright" unicode="}" horiz-adv-x="729" 
d="M433 578q0 7 -15.5 13t-37.5 17t-44 29.5t-37.5 57.5t-15.5 93q0 71 38 220.5t38 208.5q0 125 -118 160q-13 4 -35.5 10t-35.5 10t-28 11t-22 17.5t-7 24.5q0 28 32 39t96 11q110 0 190 -23t122.5 -63t62 -85t19.5 -97q0 -74 -55 -246.5t-55 -235.5q0 -33 9 -56.5t23 -35
t29.5 -21t29.5 -15t23 -17t9 -27.5t-9 -27.5t-23 -17t-29.5 -15t-29.5 -21t-23 -35t-9 -56.5q0 -63 55 -236t55 -247q0 -41 -11.5 -77.5t-39.5 -72.5t-71.5 -61.5t-113 -41.5t-158.5 -16q-64 0 -96 11t-32 40q0 14 7 24.5t21.5 17.5t28 11t36 9.5t35.5 9.5q118 36 118 162
q0 59 -38 207.5t-38 219.5q0 54 15.5 93.5t37.5 58t44 29.5t37.5 17.5t15.5 13.5z" />
    <glyph glyph-name="asciitilde" unicode="~" horiz-adv-x="1101" 
d="M193 584q0 103 70 176t174 73q54 0 117.5 -22.5t112 -50t105 -50t96.5 -22.5q34 0 59 11t37.5 27.5t22.5 35.5t15 35.5t13 27.5t18 11q24 0 46.5 -37t22.5 -93q0 -103 -69 -171t-178 -68q-57 0 -123 24.5t-115.5 54.5t-106 54.5t-97.5 24.5q-35 0 -61 -14.5t-40 -35.5
t-24.5 -42t-21 -35.5t-22.5 -14.5q-17 0 -34 27t-17 74z" />
    <glyph glyph-name="uni00A0" unicode="&#xa0;" horiz-adv-x="512" 
 />
    <glyph glyph-name="exclamdown" unicode="&#xa1;" horiz-adv-x="568" 
d="M569 896q0 -81 -54 -130t-130 -49q-69 0 -116.5 41.5t-47.5 117.5q0 83 55 133.5t127 50.5q68 0 117 -43.5t49 -120.5zM227 -190q0 92 37 307.5t74 391.5q16 77 59 77q40 0 66 -73q31 -84 61 -327.5t30 -364.5q0 -201 -169 -201q-158 0 -158 190z" />
    <glyph glyph-name="cent" unicode="&#xa2;" horiz-adv-x="1187" 
d="M812 1520q0 -4 -9 -279q142 -15 238 -93.5t96 -189.5q0 -77 -46.5 -124.5t-86.5 -47.5q-33 0 -43 16t-22 68q-19 82 -51.5 135.5t-89.5 78.5l-23 -656q208 4 323 149q23 23 37 23q33 0 33 -66q0 -80 -47 -159.5t-141.5 -139.5t-214.5 -71l-9 -276q-2 -27 -30.5 -47
t-67.5 -20q-23 0 -30.5 10.5t-7.5 38.5q0 31 8 298q-192 29 -308.5 171.5t-116.5 344.5q0 211 126 368.5t336 186.5q8 246 12 273q3 23 31.5 43.5t65.5 20.5q38 0 38 -56zM435 782q0 -122 55.5 -207.5t146.5 -122.5l22 649q-96 -15 -160 -103t-64 -216z" />
    <glyph glyph-name="sterling" unicode="&#xa3;" horiz-adv-x="1187" 
d="M82 556q0 37 49 63.5t118 40.5q29 6 29 27q0 7 -26 52t-52 113.5t-26 132.5q0 105 41 190t109.5 139t154 82.5t178.5 28.5q105 0 205.5 -36.5t158.5 -99.5q28 -30 45 -85t17 -121q0 -111 -51 -111q-17 0 -32 9t-23 18.5t-26 35.5t-28 39q-36 45 -59 69t-59 53t-77 41.5
t-91 12.5q-85 0 -136.5 -56.5t-51.5 -131.5q0 -125 136 -289q28 -34 55 -34q16 0 127 20t137 20q44 0 44 -44q0 -36 -23 -75.5t-58 -53.5q-10 -5 -34 -8.5t-75 -8t-81 -8.5q-27 -2 -29 -25q-21 -129 -92 -205q-5 -6 -11.5 -12.5t-9.5 -10t-6.5 -7t-4.5 -6t-1 -5.5
q0 -10 21 -10q51 -2 178.5 -34t172.5 -32q80 0 125.5 48.5t70.5 133.5q22 66 52 66q43 0 43 -81q0 -63 -8.5 -120t-30.5 -113.5t-56.5 -97t-90 -65.5t-127.5 -25q-66 0 -162.5 31t-185 62t-137.5 31q-35 0 -67 -18t-52 -39t-48.5 -39t-57.5 -18t-46 19t-17 42q0 26 21.5 52
t53.5 47.5t70 50t70 58t53.5 74.5t21.5 96q0 100 -104 100q-17 0 -77.5 -8.5t-78.5 -8.5q-25 0 -36.5 12.5t-11.5 31.5z" />
    <glyph glyph-name="currency" unicode="&#xa4;" horiz-adv-x="1187" 
d="M285 653q0 124 72 229l-140 128q-20 19 -20 42t35 61t59 38q17 0 34 -17l136 -150q99 72 228 72q124 0 230 -72l136 150q17 17 35 17q24 0 59 -38t35 -63q0 -18 -22 -40l-141 -129q71 -102 71 -228q0 -124 -73 -230l150 -135q18 -20 18 -35q0 -24 -38.5 -59t-61.5 -35
q-21 0 -40 21l-131 141q-106 -72 -227 -72q-127 0 -229 74l-137 -150q-17 -17 -34 -17q-24 0 -59 39t-35 62q0 20 20 40l142 128q-72 102 -72 228zM474 653q0 -91 61.5 -157.5t153.5 -66.5t153.5 66.5t61.5 157.5q0 92 -61.5 158.5t-153.5 66.5t-153.5 -66.5t-61.5 -158.5z
" />
    <glyph glyph-name="yen" unicode="&#xa5;" horiz-adv-x="1261" 
d="M1084 544h-249q-22 0 -28.5 -16.5t-6.5 -47.5q0 -59 36 -59h325q36 0 36 -40q0 -47 -30 -80t-83 -33h-255q3 -39 14 -67t21 -39t29 -27q9 -8 26 -20t26 -19t16.5 -19t7.5 -26q0 -24 -21.5 -40t-59.5 -16q-29 0 -113.5 2.5t-118.5 2.5q-36 0 -120 -2.5t-113 -2.5
q-38 0 -58.5 15.5t-20.5 40.5q0 14 8 26.5t16.5 19t26 18.5t25.5 18q18 15 28 27t20.5 40t14.5 68h-320q-39 0 -39 44q0 43 29.5 76t77.5 33h241q36 0 36 60q0 32 -7 47.5t-29 15.5h-309q-39 0 -39 43t30 75.5t77 32.5h214q-33 60 -135.5 225.5t-177.5 273.5
q-16 22 -36.5 42t-34 30t-23 26.5t-9.5 36.5q0 69 111 69q15 0 70 -2.5t87 -2.5q65 0 126 2.5t83 2.5q41 0 62.5 -16.5t21.5 -46.5q0 -27 -38 -69t-38 -75q0 -48 89.5 -222t117.5 -174q16 0 64 85.5t88.5 182t40.5 125.5q0 27 -12.5 49.5t-27 35t-27 30t-12.5 36.5
q0 59 83 59q20 0 69 -2.5t74 -2.5q21 0 64 2.5t66 2.5q66 0 66 -57q0 -22 -11.5 -38t-35 -38t-38.5 -42q-47 -55 -150.5 -225t-173.5 -303h313q36 0 36 -40q0 -46 -30 -78.5t-83 -32.5z" />
    <glyph glyph-name="brokenbar" unicode="&#xa6;" horiz-adv-x="610" 
d="M610 1456v-736q0 -24 -19 -36t-70 -12q-62 0 -84.5 11t-22.5 42v736q0 24 19.5 36t70.5 12q61 0 83.5 -11t22.5 -42zM610 362v-736q0 -23 -19 -35t-70 -12q-62 0 -84.5 10.5t-22.5 41.5v738q0 23 19.5 35t70.5 12q61 0 83.5 -11.5t22.5 -42.5z" />
    <glyph glyph-name="section" unicode="&#xa7;" horiz-adv-x="1187" 
d="M1164 531q0 -54 -15.5 -99t-37.5 -72t-44 -45.5t-37.5 -30.5t-15.5 -18q0 -8 24 -30t52.5 -50.5t52.5 -86t24 -127.5q0 -119 -62.5 -209.5t-166 -137t-229.5 -46.5q-115 0 -218.5 40.5t-169 100t-103.5 122t-38 111.5q0 51 34 51q8 0 15 -3t15 -11t13 -14t14.5 -19
t15.5 -20q56 -73 159 -131.5t227 -58.5q113 0 170.5 47.5t57.5 119.5q0 47 -29.5 83t-77.5 57.5t-109 43.5t-125.5 40.5t-125.5 49t-109 67.5t-77.5 98.5t-29.5 139.5q0 59 22.5 110t49.5 78.5t49.5 49t22.5 28.5t-21.5 28.5t-47 49.5t-47 83t-21.5 120q0 167 133 276
t337 109q109 0 209 -31.5t152 -90.5q62 -70 62 -197q0 -111 -50 -111q-15 0 -30.5 11t-24.5 22.5t-26 36t-25 34.5q-63 80 -133 127t-163 47q-98 0 -154 -45.5t-56 -116.5q0 -47 30.5 -82.5t80 -57t113.5 -43.5t130 -40t130 -48.5t113.5 -68t80 -99.5t30.5 -141zM956 441
q0 51 -51 98t-123 76.5t-143.5 47.5t-118.5 18q-51 0 -80 -27t-29 -70q0 -42 34 -80t85 -65t111.5 -47.5t114.5 -30.5t91 -10q51 0 80 25t29 65z" />
    <glyph glyph-name="dieresis" unicode="&#xa8;" horiz-adv-x="804" 
d="M279 1485q62 0 101.5 -38t39.5 -99q0 -71 -50.5 -118.5t-122.5 -47.5q-58 0 -96 36.5t-38 94.5q0 67 48 119.5t118 52.5zM665 1485q61 0 100.5 -38.5t39.5 -98.5q0 -71 -50.5 -118.5t-122.5 -47.5q-57 0 -95 36.5t-38 94.5q0 67 48 119.5t118 52.5z" />
    <glyph glyph-name="copyright" unicode="&#xa9;" horiz-adv-x="1689" 
d="M205 696q0 204 95 371t265.5 263.5t382.5 96.5q159 0 297 -56.5t235.5 -153.5t153.5 -232.5t56 -288.5q0 -154 -56 -289.5t-153.5 -232.5t-235.5 -153t-297 -56q-212 0 -382.5 96t-265.5 263t-95 372zM347 696q0 -119 40 -227.5t113.5 -193.5t189.5 -135.5t258 -50.5
q141 0 256.5 50t189 135t113.5 193.5t40 228.5q0 119 -40 227.5t-113.5 194t-189.5 136t-258 50.5q-141 0 -256.5 -50.5t-189 -136t-113.5 -194t-40 -227.5zM505 682q0 134 55 245t163.5 180t251.5 69q136 0 227 -65t91 -165q0 -69 -45 -111.5t-118 -42.5q-32 0 -45 15
t-22 56q-8 36 -17.5 62.5t-25.5 55t-40.5 43.5t-55.5 15q-72 0 -117 -67t-45 -171q0 -144 76.5 -238t209.5 -94q39 0 74.5 10t56.5 20.5t45.5 32.5t32 30.5t25.5 29.5q20 20 33 20q30 0 30 -58q0 -55 -27.5 -112t-76 -105.5t-125 -79t-165.5 -30.5q-200 0 -323 129t-123 326
z" />
    <glyph glyph-name="ordfeminine" unicode="&#xaa;" horiz-adv-x="819" 
d="M332 1071q37 12 84 22t77.5 16.5t38.5 13.5q19 17 19 71q0 59 -25.5 95.5t-76.5 36.5q-77 0 -111 -120q-9 -33 -26.5 -50.5t-52.5 -17.5q-41 0 -70 27.5t-29 78.5q0 71 79.5 126t211.5 55q92 0 162.5 -28t115.5 -94t45 -164q0 -47 -4 -130t-4 -119q0 -57 41 -57
q7 0 17 1.5t15 1.5q15 0 15 -28q0 -60 -45.5 -100t-110.5 -40q-94 0 -133 70q-6 12 -12 12t-18 -12q-34 -32 -86.5 -52.5t-107.5 -20.5q-95 0 -154.5 46.5t-59.5 132.5q0 157 205 227zM552 952q0 59 -11 59q-50 0 -101 -18q-42 -17 -66.5 -45.5t-24.5 -63.5q0 -33 22 -54
t58 -21q58 0 90.5 40t32.5 103z" />
    <glyph glyph-name="guillemotleft" unicode="&#xab;" horiz-adv-x="1058" 
d="M500 561q0 -6 3 -13t8 -13.5t16.5 -22.5t22.5 -32q53 -77 84 -148.5t31 -109.5q0 -44 -36 -44q-26 0 -60 40q-111 128 -236 223q-12 9 -38.5 28t-39 29.5t-24.5 27.5t-12 35t12 35t24.5 27.5t39 29.5t38.5 28q126 98 236 223q13 14 19 20t17.5 13t23.5 7q36 0 36 -44
q0 -38 -31 -109.5t-84 -148.5q-11 -16 -22.5 -32t-16.5 -22.5t-8 -13.5t-3 -13zM894 561q0 -6 3 -13t8 -13.5t16.5 -22.5t22.5 -32q53 -77 84 -148.5t31 -109.5q0 -44 -36 -44q-25 0 -59 40q-109 126 -237 223q-12 9 -38.5 28t-39 29.5t-24.5 27.5t-12 35t12 35t24.5 27.5
t39 29.5t38.5 28q129 100 237 223q29 32 45 38q7 2 14 2q36 0 36 -44q0 -38 -31 -109.5t-84 -148.5q-11 -16 -22.5 -32t-16.5 -22.5t-8 -13.5t-3 -13z" />
    <glyph glyph-name="logicalnot" unicode="&#xac;" horiz-adv-x="1101" 
d="M1012 365q-61 0 -84 11t-23 42v323q0 19 -6.5 26t-26.5 7h-647q-32 0 -32 39q0 60 17 115q9 24 23 33t47 9h771q51 0 51 -60v-497q0 -24 -19.5 -36t-70.5 -12z" />
    <glyph glyph-name="uni00AD" unicode="&#xad;" horiz-adv-x="733" 
d="M605 436h-422q-58 0 -58 52q0 63 23 117q13 29 35.5 40.5t67.5 11.5h427q55 0 55 -51q0 -64 -23 -117q-13 -29 -37 -41t-68 -12z" />
    <glyph glyph-name="registered" unicode="&#xae;" horiz-adv-x="1689" 
d="M205 696q0 204 95 371t265.5 263.5t382.5 96.5q159 0 297 -56.5t235.5 -153.5t153.5 -232.5t56 -288.5q0 -154 -56 -289.5t-153.5 -232.5t-235.5 -153t-297 -56q-212 0 -382.5 96t-265.5 263t-95 372zM347 696q0 -119 40 -227.5t113.5 -193.5t189.5 -135.5t258 -50.5
q141 0 256.5 50t189 135t113.5 193.5t40 228.5q0 119 -40 227.5t-113.5 194t-189.5 136t-258 50.5q-141 0 -256.5 -50.5t-189 -136t-113.5 -194t-40 -227.5zM846 566v-98q0 -66 25 -100q5 -7 17 -19t17 -21.5t5 -22.5q0 -16 -14 -25.5t-36 -9.5q-20 0 -61 2t-61 2
q-25 0 -69 -2t-58 -2q-25 0 -37.5 9.5t-12.5 24.5q0 17 12.5 30t27.5 33.5t19 51.5q9 52 9 307q0 194 -3 235q-3 42 -18.5 68.5t-28.5 41.5t-13 33q0 37 45 37q33 0 76 -1.5t83 -1.5q32 0 102.5 2.5t109.5 2.5q137 0 217.5 -53t80.5 -165q0 -148 -182 -214q-7 -2 -7 -10
q0 -4 7 -9q106 -58 174 -235q27 -70 52 -96q7 -9 18.5 -18.5t16.5 -16.5t5 -19q0 -37 -44 -37q-12 0 -57.5 2t-61.5 2q-30 0 -72.5 -2t-47.5 -2q-23 0 -37 11t-14 28q0 10 8.5 31.5t8.5 36.5q0 55 -32 129.5t-65 99.5q-31 20 -66 20q-38 0 -38 -60zM1040 883q0 67 -35.5 106
t-95.5 39q-43 0 -53 -14t-10 -72v-123q0 -40 13.5 -57.5t55.5 -17.5q57 0 91 37.5t34 101.5z" />
    <glyph glyph-name="macron" unicode="&#xaf;" horiz-adv-x="804" 
d="M686 1214h-465q-53 0 -53 48q0 56 21 106q12 26 33 36.5t62 10.5h471q29 0 39.5 -12.5t10.5 -34.5q0 -56 -22 -105q-12 -26 -34 -37.5t-63 -11.5z" />
    <glyph glyph-name="degree" unicode="&#xb0;" horiz-adv-x="768" 
d="M455 1427q134 0 223 -90.5t89 -231.5t-89.5 -236t-228.5 -95q-138 0 -230 94.5t-92 229.5q0 139 94.5 234t233.5 95zM460 1286q-70 0 -118 -51t-48 -129q0 -75 46 -124t116 -49q71 0 116.5 49.5t45.5 124.5q0 74 -42.5 126.5t-115.5 52.5z" />
    <glyph glyph-name="plusminus" unicode="&#xb1;" horiz-adv-x="1101" 
d="M745 1230v-304h324q33 0 33 -38q0 -56 -18 -116q-8 -24 -22 -33t-47 -9h-270v-317q0 -23 -19.5 -35t-70.5 -12q-61 0 -83.5 11t-22.5 42v311h-324q-32 0 -32 39q0 60 17 115q9 24 23 33t47 9h269v310q0 23 19.5 35t70.5 12q61 0 83.5 -11t22.5 -42zM1015 106h-790
q-32 0 -32 39q0 60 17 115q9 24 23 33t47 9h789q33 0 33 -38q0 -56 -18 -116q-8 -24 -22 -33t-47 -9z" />
    <glyph glyph-name="two.sups" unicode="&#xb2;" horiz-adv-x="717" 
d="M311 927q0 -11 71 -11q149 0 238 56q49 33 63 33q28 0 28 -36q0 -19 -14 -77.5t-19 -90.5q-4 -30 -16 -38.5t-44 -8.5q-11 0 -94.5 1t-155.5 1q-51 0 -148.5 -1t-114.5 -1q-37 0 -37 28t35 62l119 118q50 48 75 74.5t59 67t48.5 74.5t14.5 67q0 52 -35 77.5t-89 25.5
q-84 0 -142 -69q-15 -17 -28 -17q-20 0 -20 41q0 31 17 65t49 66t87 53t122 21q105 0 175 -51.5t70 -145.5q0 -46 -18 -88.5t-55 -83.5t-67 -67.5t-81 -66.5q-12 -9 -28 -21.5t-26 -20t-20 -15.5t-14.5 -13t-4.5 -8z" />
    <glyph glyph-name="three.sups" unicode="&#xb3;" horiz-adv-x="700" 
d="M631 1358q-28 -33 -56 -60.5t-52 -48.5t-30 -27q-14 -12 -14 -15q0 -5 17 -10q202 -69 202 -216q0 -103 -86.5 -170.5t-216.5 -67.5q-72 0 -133.5 23t-99 58.5t-59 74.5t-21.5 74q0 13 6.5 23t19.5 10q3 0 5.5 -1.5t4.5 -3.5t5.5 -6t7.5 -7q32 -36 86.5 -65t124.5 -29
q71 0 108 27.5t37 75.5q0 28 -14 49.5t-40 34.5t-43.5 19t-43.5 13q-42 10 -42 41q0 8 7.5 18t16 17.5t31.5 25.5q100 81 100 100q0 9 -77 9q-79 0 -118.5 -13.5t-65.5 -37.5q-6 -6 -14 -16.5t-14 -15t-15 -4.5q-27 0 -27 38q0 13 25 172q5 32 14.5 40t44.5 8q9 0 85 -2
t139 -2q70 0 145 2t76 2q13 0 22.5 -9.5t9.5 -22.5q0 -38 -58 -105z" />
    <glyph glyph-name="acute" unicode="&#xb4;" horiz-adv-x="592" 
d="M278 1243q43 85 74 171q11 31 20 50t26 43.5t40.5 36.5t53.5 12q48 0 73.5 -30t25.5 -74q0 -63 -62 -139q-49 -60 -119.5 -111t-112.5 -51q-43 0 -43 37q0 5 24 55z" />
    <glyph glyph-name="mu" unicode="&#xb5;" horiz-adv-x="1191" 
d="M369 -23q-95 0 -145 70q-4 6 -9.5 14t-9 13.5l-7 11t-6.5 8t-6 2.5q-10 0 -12 -19q0 -7 13.5 -59t13.5 -98q0 -165 -96.5 -265.5t-224.5 -100.5q-53 0 -92.5 17.5t-39.5 41.5q0 18 10.5 31.5t40.5 42.5q103 101 167 409t64 622q0 63 -9 120.5t-9 73.5q0 59 112 103
q109 42 203 42q28 0 42 -16.5t14 -41.5q0 -24 -21.5 -128.5t-43.5 -238.5t-22 -229q0 -106 34 -152.5t83 -46.5q66 0 116 84.5t74.5 213.5t24.5 276q0 30 -5.5 75.5t-5.5 55.5q0 64 88 98q53 21 115.5 31.5t95.5 10.5q60 0 60 -80q0 -25 -48 -274.5t-48 -362.5
q0 -133 62 -133q19 0 43.5 28.5t36.5 28.5q10 0 19 -12t9 -39q0 -83 -62.5 -152.5t-172.5 -69.5q-70 0 -115 39.5t-68 98.5q-1 1 -2.5 5t-3 7t-3.5 6t-4 4.5t-5 1.5q-11 0 -25 -29q-36 -62 -92.5 -100.5t-127.5 -38.5z" />
    <glyph glyph-name="paragraph" unicode="&#xb6;" horiz-adv-x="1187" 
d="M579 -366l-2 979q0 39 -23 39q-4 0 -43.5 -6.5t-77.5 -6.5q-159 0 -256 103t-97 277q0 187 129 294t334 107q55 0 195.5 -13.5t212.5 -13.5q35 0 72 2.5t48 2.5q77 0 77 -62q0 -24 -12 -40t-29.5 -28.5t-34.5 -30t-29 -55t-12 -92.5v-1443q0 -31 -30 -49.5t-75 -18.5
q-66 0 -66 55v1459q0 80 -19.5 117.5t-48.5 37.5q-43 0 -43 -80v-1521q0 -30 -32 -49t-75 -19q-63 0 -63 55z" />
    <glyph glyph-name="periodcentered" unicode="&#xb7;" horiz-adv-x="547" 
d="M545 544q0 -81 -54.5 -129.5t-130.5 -48.5q-69 0 -116 41t-47 117q0 82 55 133t128 51q68 0 116.5 -43.5t48.5 -120.5z" />
    <glyph glyph-name="cedilla" unicode="&#xb8;" horiz-adv-x="574" 
d="M259 -163q0 44 53.5 121t98.5 77q10 0 28.5 -12.5t18.5 -19.5q0 -3 -13.5 -37.5t-13.5 -48.5q0 -4 4 -6.5t15 -7t15 -6.5q108 -63 108 -165q0 -92 -64 -145t-161 -53q-72 0 -129 37.5t-57 68.5q0 14 8.5 22t19.5 8q8 0 44 -16t69 -16q35 0 59 19t24 51q0 76 -103 98
q-24 7 -24 31z" />
    <glyph glyph-name="one.sups" unicode="&#xb9;" horiz-adv-x="531" 
d="M390 1504q22 0 30.5 -9t8.5 -28q0 -16 -5 -123.5t-5 -200.5q0 -186 8 -240q3 -22 21.5 -37.5t38 -22.5t35.5 -20t16 -31q0 -16 -11.5 -27t-33.5 -11q-21 0 -83 1t-81 1q-22 0 -95 -1t-93 -1q-21 0 -33 11t-12 27q0 18 17.5 30.5t39 19.5t41 22.5t23.5 38.5q10 57 10 240
q0 82 -4 116.5t-21 44.5q-20 11 -64 11q-37 0 -37 30q0 17 9.5 27t32.5 20q57 24 116 53.5t88.5 44t42.5 14.5z" />
    <glyph glyph-name="ordmasculine" unicode="&#xba;" horiz-adv-x="819" 
d="M78 1040q0 170 102 277.5t260 107.5q102 0 187 -45t138.5 -137t53.5 -215q0 -173 -104.5 -266.5t-265.5 -93.5q-168 0 -269.5 104t-101.5 268zM419 1309q-46 0 -76.5 -45.5t-30.5 -142.5q0 -128 40 -219q47 -96 126 -96q50 0 83.5 40.5t33.5 123.5q0 118 -49 228
q-25 54 -58 82.5t-69 28.5z" />
    <glyph glyph-name="guillemotright" unicode="&#xbb;" horiz-adv-x="1058" 
d="M384 561q0 6 -3 13t-8 13.5t-16.5 22.5t-22.5 32q-53 77 -84 148.5t-31 109.5q0 44 37 44q25 0 59 -40q107 -123 236 -223q11 -8 39 -28t39.5 -30t23.5 -27t12 -35t-12 -35t-23.5 -27t-39.5 -30t-39 -28q-130 -101 -236 -223q-29 -32 -45 -38q-7 -2 -14 -2q-37 0 -37 44
q0 38 31 109.5t84 148.5q11 16 22.5 32t16.5 22.5t8 13.5t3 13zM778 561q0 6 -3 13t-8 13.5t-16.5 22.5t-22.5 32q-53 77 -84 148.5t-31 109.5q0 44 37 44q26 0 60 -40q109 -126 235 -223q11 -8 39 -28t39.5 -30t23.5 -27t12 -35t-12 -35t-23.5 -27t-39.5 -30t-39 -28
q-127 -98 -235 -223q-13 -14 -19 -20t-17.5 -13t-23.5 -7q-37 0 -37 44q0 38 31 109.5t84 148.5q11 16 22.5 32t16.5 22.5t8 13.5t3 13z" />
    <glyph glyph-name="onequarter" unicode="&#xbc;" horiz-adv-x="1408" 
d="M390 1420q22 0 30.5 -9t8.5 -28q0 -16 -5 -123.5t-5 -200.5q0 -186 8 -240q3 -22 21.5 -37.5t38 -22.5t35.5 -20t16 -31q0 -16 -11.5 -27t-33.5 -11q-21 0 -83 1t-81 1q-22 0 -95 -1t-93 -1q-21 0 -33 11t-12 27q0 18 17.5 30.5t39 19.5t41 22.5t23.5 38.5q10 57 10 240
q0 82 -4 116.5t-21 44.5q-20 11 -64 11q-37 0 -37 30q0 17 9.5 27t32.5 20q57 24 116 53.5t88.5 44t42.5 14.5zM1226 1326q-21 -39 -422 -668.5t-419 -655.5q-22 -28 -59 -28q-28 0 -48 15t-20 36q0 12 10 35q10 19 188.5 299.5t387.5 608.5t268 423q15 24 53 24
q30 0 51 -16.5t21 -36.5t-11 -36zM1288 706q0 -13 -9 -184t-9 -222q0 -13 18 -13q38 0 72 8t37 8q18 0 23.5 -11t5.5 -34q0 -24 -10 -65t-23 -61q-15 -22 -54 -22h-53q-17 0 -17 -15q0 -32 10.5 -67.5t10.5 -36.5q0 -19 -11.5 -29t-36.5 -17q-43 -15 -93 -15q-53 0 -53 100
v61q0 19 -23 19h-181q-49 0 -71 14q-31 18 -51 44.5t-20 50.5q0 46 171 249q80 96 184.5 190t139.5 94q43 0 43 -46zM928 293q0 -9 24 -9h129q22 0 22 20q7 161 7 167q0 18 -7 18q-18 0 -81 -74q-94 -101 -94 -122z" />
    <glyph glyph-name="onehalf" unicode="&#xbd;" horiz-adv-x="1481" 
d="M390 1420q22 0 30.5 -9t8.5 -28q0 -16 -5 -123.5t-5 -200.5q0 -186 8 -240q3 -22 21.5 -37.5t38 -22.5t35.5 -20t16 -31q0 -16 -11.5 -27t-33.5 -11q-21 0 -83 1t-81 1q-22 0 -95 -1t-93 -1q-21 0 -33 11t-12 27q0 18 17.5 30.5t39 19.5t41 22.5t23.5 38.5q10 57 10 240
q0 82 -4 116.5t-21 44.5q-20 11 -64 11q-37 0 -37 30q0 17 9.5 27t32.5 20q57 24 116 53.5t88.5 44t42.5 14.5zM1226 1326q-21 -39 -422 -668.5t-419 -655.5q-22 -28 -59 -28q-28 0 -48 15t-20 36q0 12 10 35q10 19 188.5 299.5t387.5 608.5t268 423q15 24 53 24
q30 0 51 -16.5t21 -36.5t-11 -36zM1090 171q0 -10 70 -10q151 0 238 55q50 33 63 33q28 0 28 -36q0 -19 -14 -77.5t-19 -90.5q-4 -30 -15.5 -38.5t-43.5 -8.5q-11 0 -95 1t-156 1q-51 0 -148 -1t-114 -1q-38 0 -38 29q0 26 36 61l118 118q50 48 75 74.5t59 67t48.5 74.5
t14.5 67q0 52 -35 77.5t-89 25.5q-84 0 -142 -69q-15 -17 -28 -17q-19 0 -19 41q0 31 17 65t48.5 66.5t86.5 53.5t122 21q105 0 175 -52t70 -146q0 -46 -18 -88.5t-54.5 -83t-67 -67.5t-80.5 -67q-12 -9 -28 -21.5t-26 -20t-20 -15.5t-14.5 -13t-4.5 -8z" />
    <glyph glyph-name="threequarters" unicode="&#xbe;" horiz-adv-x="1498" 
d="M1311 1326q-21 -39 -422 -668.5t-419 -655.5q-22 -28 -59 -28q-28 0 -48 15t-20 36q0 12 10 35q10 19 188.5 299.5t387.5 608.5t268 423q15 24 53 24q30 0 51 -16.5t21 -36.5t-11 -36zM631 1274q-28 -33 -56 -60.5t-52 -48.5t-30 -27q-14 -12 -14 -15q0 -5 17 -10
q202 -69 202 -216q0 -103 -86.5 -170.5t-216.5 -67.5q-72 0 -133.5 23t-99 58.5t-59 74.5t-21.5 74q0 13 6.5 23t19.5 10q3 0 5.5 -1.5t4.5 -3.5t5.5 -6t7.5 -7q32 -36 86.5 -65t124.5 -29q71 0 108 27.5t37 75.5q0 28 -14 49.5t-40 34.5t-43.5 19t-43.5 13q-42 10 -42 41
q0 12 12 24.5t43 37.5q58 47 79 67.5t21 31.5q0 9 -77 9q-79 0 -118.5 -13.5t-65.5 -37.5q-6 -6 -14 -16.5t-14 -15t-15 -4.5q-27 0 -27 38q0 13 25 172q5 32 14.5 40t44.5 8q9 0 85 -2t139 -2q70 0 145 2t76 2q13 0 22.5 -9.5t9.5 -22.5q0 -38 -58 -105zM1371 706
q0 -13 -9 -184t-9 -222q0 -13 18 -13q38 0 72 8t37 8q18 0 23.5 -11t5.5 -34q0 -24 -10 -65t-23 -61q-15 -22 -54 -22h-53q-17 0 -17 -15q0 -32 10.5 -67.5t10.5 -36.5q0 -19 -11.5 -29t-36.5 -17q-43 -15 -93 -15q-53 0 -53 100v61q0 19 -23 19h-181q-49 0 -71 14
q-31 18 -51 44.5t-20 50.5q0 46 171 249q80 96 184.5 190t139.5 94q43 0 43 -46zM1011 293q0 -9 24 -9h129q22 0 22 20q7 161 7 167q0 18 -7 18q-18 0 -81 -74q-94 -101 -94 -122z" />
    <glyph glyph-name="questiondown" unicode="&#xbf;" horiz-adv-x="946" 
d="M495 881q0 81 54 129.5t130 48.5q69 0 116.5 -41.5t47.5 -117.5q0 -82 -55.5 -132.5t-128.5 -50.5q-67 0 -115.5 43.5t-48.5 120.5zM690 -160q37 0 69.5 9t60.5 26.5t42 29t34 29.5q4 3 10 9t9 8.5t8 7t7.5 6t6.5 3.5t7.5 3t7.5 1q33 0 33 -56q0 -47 -30 -98.5t-82 -96
t-131.5 -73t-168.5 -28.5q-167 0 -277 80t-110 227q0 71 26.5 134t69 109t93.5 87.5t102.5 76t94 67t69 68.5t26.5 73q0 10 -2 22.5t-2 16.5q0 28 31 28q32 0 62.5 -43t30.5 -101q0 -54 -27 -105.5t-65.5 -93t-77.5 -83t-66 -93.5t-27 -107q0 -68 44.5 -105.5t121.5 -37.5z
" />
    <glyph glyph-name="Agrave" unicode="&#xc0;" horiz-adv-x="1383" 
d="M827 1584q29 -26 37.5 -39.5t8.5 -30.5q0 -38 -61 -38q-52 0 -135 28t-152 68q-123 74 -123 163q0 45 32 76t86 31q85 0 168 -110q70 -88 139 -148zM135 273l311 811q38 102 54 200q10 49 95 94.5t142 45.5q37 0 56 -22t36 -68l413 -1063q29 -78 90 -131q1 -1 8 -7t9 -8
l8.5 -8.5t9 -9.5t7 -9.5t6.5 -11.5t3.5 -11t1.5 -12q0 -40 -28 -54t-92 -14q-22 0 -85.5 2.5t-116.5 2.5q-52 0 -118 -2.5t-92 -2.5q-89 0 -89 63q0 19 19 38.5t41.5 34.5t41.5 42t19 58q0 13 -16 58t-30 72q-13 24 -44 24h-356q-36 0 -58 -24q-17 -26 -35.5 -74t-18.5 -72
q0 -25 11 -45.5t26.5 -34t31 -26t26.5 -26.5t11 -30q0 -58 -86 -58q-22 0 -82 2.5t-84 2.5t-63 -2.5t-61 -2.5q-67 0 -67 57q0 21 14.5 39.5t34.5 34t47.5 54.5t48.5 93zM470 567h270q25 0 25 19q0 25 -50.5 169t-85.5 212q-10 23 -21 23q-7 0 -20 -23q-33 -65 -87.5 -213
t-54.5 -168q0 -19 24 -19z" />
    <glyph glyph-name="Aacute" unicode="&#xc1;" horiz-adv-x="1383" 
d="M534 1584q69 60 139 148q41 52 79.5 81t88.5 29q54 0 86 -31t32 -76q0 -89 -123 -163q-69 -40 -152 -68t-135 -28q-61 0 -61 38q0 17 8.5 30t37.5 40zM135 273l311 811q38 102 54 200q10 49 95 94.5t142 45.5q37 0 56 -22t36 -68l413 -1063q29 -78 90 -131q1 -1 8 -7
t9 -8l8.5 -8.5t9 -9.5t7 -9.5t6.5 -11.5t3.5 -11t1.5 -12q0 -40 -28 -54t-92 -14q-22 0 -85.5 2.5t-116.5 2.5q-52 0 -118 -2.5t-92 -2.5q-89 0 -89 63q0 19 19 38.5t41.5 34.5t41.5 42t19 58q0 13 -16 58t-30 72q-13 24 -44 24h-356q-36 0 -58 -24q-17 -26 -35.5 -74
t-18.5 -72q0 -25 11 -45.5t26.5 -34t31 -26t26.5 -26.5t11 -30q0 -58 -86 -58q-22 0 -82 2.5t-84 2.5t-63 -2.5t-61 -2.5q-67 0 -67 57q0 21 14.5 39.5t34.5 34t47.5 54.5t48.5 93zM470 567h270q25 0 25 19q0 25 -50.5 169t-85.5 212q-10 23 -21 23q-7 0 -20 -23
q-33 -65 -87.5 -213t-54.5 -168q0 -19 24 -19z" />
    <glyph glyph-name="Acircumflex" unicode="&#xc2;" horiz-adv-x="1383" 
d="M943 1476q-72 0 -200 77q-6 4 -16 10t-15 8.5t-11.5 6t-11.5 5t-9 1.5q-5 0 -9.5 -1.5t-10.5 -4.5t-11 -6t-14 -8.5t-15 -9.5q-48 -31 -103 -54.5t-91 -23.5q-45 0 -45 37q0 18 33 56q46 52 145 183q36 48 61.5 69t64.5 21q36 0 61.5 -21.5t60.5 -68.5q67 -91 149 -181
q32 -33 32 -58q0 -18 -13 -27.5t-32 -9.5zM135 273l311 811q38 102 54 200q10 49 95 94.5t142 45.5q37 0 56 -22t36 -68l413 -1063q29 -78 90 -131q1 -1 8 -7t9 -8l8.5 -8.5t9 -9.5t7 -9.5t6.5 -11.5t3.5 -11t1.5 -12q0 -40 -28 -54t-92 -14q-22 0 -85.5 2.5t-116.5 2.5
q-52 0 -118 -2.5t-92 -2.5q-89 0 -89 63q0 19 19 38.5t41.5 34.5t41.5 42t19 58q0 13 -16 58t-30 72q-13 24 -44 24h-356q-36 0 -58 -24q-17 -26 -35.5 -74t-18.5 -72q0 -25 11 -45.5t26.5 -34t31 -26t26.5 -26.5t11 -30q0 -58 -86 -58q-22 0 -82 2.5t-84 2.5t-63 -2.5
t-61 -2.5q-67 0 -67 57q0 21 14.5 39.5t34.5 34t47.5 54.5t48.5 93zM470 567h270q25 0 25 19q0 25 -50.5 169t-85.5 212q-10 23 -21 23q-7 0 -20 -23q-33 -65 -87.5 -213t-54.5 -168q0 -19 24 -19z" />
    <glyph glyph-name="Atilde" unicode="&#xc3;" horiz-adv-x="1383" 
d="M342 1627q0 82 53.5 131.5t132.5 49.5q60 0 154.5 -44.5t140.5 -44.5q33 0 54 15t28 32.5t16.5 32.5t20.5 15q25 0 49.5 -34.5t24.5 -91.5q0 -83 -54 -135t-137 -52q-56 0 -117 27t-113.5 54t-87.5 27q-25 0 -44.5 -13t-28.5 -28.5t-19.5 -28.5t-20.5 -13q-18 0 -35 27
t-17 74zM135 273l311 811q38 102 54 200q10 49 95 94.5t142 45.5q37 0 56 -22t36 -68l413 -1063q29 -78 90 -131q1 -1 8 -7t9 -8l8.5 -8.5t9 -9.5t7 -9.5t6.5 -11.5t3.5 -11t1.5 -12q0 -40 -28 -54t-92 -14q-22 0 -85.5 2.5t-116.5 2.5q-52 0 -118 -2.5t-92 -2.5
q-89 0 -89 63q0 19 19 38.5t41.5 34.5t41.5 42t19 58q0 13 -16 58t-30 72q-13 24 -44 24h-356q-36 0 -58 -24q-17 -26 -35.5 -74t-18.5 -72q0 -25 11 -45.5t26.5 -34t31 -26t26.5 -26.5t11 -30q0 -58 -86 -58q-22 0 -82 2.5t-84 2.5t-63 -2.5t-61 -2.5q-67 0 -67 57
q0 21 14.5 39.5t34.5 34t47.5 54.5t48.5 93zM470 567h270q25 0 25 19q0 25 -50.5 169t-85.5 212q-10 23 -21 23q-7 0 -20 -23q-33 -65 -87.5 -213t-54.5 -168q0 -19 24 -19z" />
    <glyph glyph-name="Adieresis" unicode="&#xc4;" horiz-adv-x="1383" 
d="M472 1824q67 0 110.5 -41t43.5 -106q0 -75 -56 -126t-133 -51q-64 0 -105 39t-41 101q0 72 52.5 128t128.5 56zM916 1824q67 0 110.5 -41t43.5 -106q0 -75 -55.5 -126t-132.5 -51q-64 0 -105.5 39t-41.5 101q0 72 52.5 128t128.5 56zM135 273l311 811q38 102 54 200
q10 49 95 94.5t142 45.5q37 0 56 -22t36 -68l413 -1063q29 -78 90 -131q1 -1 8 -7t9 -8l8.5 -8.5t9 -9.5t7 -9.5t6.5 -11.5t3.5 -11t1.5 -12q0 -40 -28 -54t-92 -14q-22 0 -85.5 2.5t-116.5 2.5q-52 0 -118 -2.5t-92 -2.5q-89 0 -89 63q0 19 19 38.5t41.5 34.5t41.5 42
t19 58q0 13 -16 58t-30 72q-13 24 -44 24h-356q-36 0 -58 -24q-17 -26 -35.5 -74t-18.5 -72q0 -25 11 -45.5t26.5 -34t31 -26t26.5 -26.5t11 -30q0 -58 -86 -58q-22 0 -82 2.5t-84 2.5t-63 -2.5t-61 -2.5q-67 0 -67 57q0 21 14.5 39.5t34.5 34t47.5 54.5t48.5 93zM470 567
h270q25 0 25 19q0 25 -50.5 169t-85.5 212q-10 23 -21 23q-7 0 -20 -23q-33 -65 -87.5 -213t-54.5 -168q0 -19 24 -19z" />
    <glyph glyph-name="Aring" unicode="&#xc5;" horiz-adv-x="1383" 
d="M681 1872q99 0 165 -58t66 -153q0 -99 -70 -159.5t-172 -60.5q-100 0 -166.5 59t-66.5 153q0 98 70.5 158.5t173.5 60.5zM690 1761q-44 0 -71.5 -28.5t-27.5 -70.5t25.5 -68t66.5 -26q44 0 71.5 28.5t27.5 72.5q0 40 -25.5 66t-66.5 26zM135 273l311 811q38 102 54 200
q10 49 95 94.5t142 45.5q37 0 56 -22t36 -68l413 -1063q29 -78 90 -131q1 -1 8 -7t9 -8l8.5 -8.5t9 -9.5t7 -9.5t6.5 -11.5t3.5 -11t1.5 -12q0 -40 -28 -54t-92 -14q-22 0 -85.5 2.5t-116.5 2.5q-52 0 -118 -2.5t-92 -2.5q-89 0 -89 63q0 19 19 38.5t41.5 34.5t41.5 42
t19 58q0 13 -16 58t-30 72q-13 24 -44 24h-356q-36 0 -58 -24q-17 -26 -35.5 -74t-18.5 -72q0 -25 11 -45.5t26.5 -34t31 -26t26.5 -26.5t11 -30q0 -58 -86 -58q-22 0 -82 2.5t-84 2.5t-63 -2.5t-61 -2.5q-67 0 -67 57q0 21 14.5 39.5t34.5 34t47.5 54.5t48.5 93zM470 567
h270q25 0 25 19q0 25 -50.5 169t-85.5 212q-10 23 -21 23q-7 0 -20 -23q-33 -65 -87.5 -213t-54.5 -168q0 -19 24 -19z" />
    <glyph glyph-name="AE" unicode="&#xc6;" horiz-adv-x="1977" 
d="M1319 1393q118 0 242.5 2.5t145.5 2.5q56 0 78.5 -20t33.5 -87q3 -14 14 -86.5t20 -117.5q14 -61 14 -88q0 -30 -16.5 -45t-40.5 -15q-15 0 -26.5 6t-23.5 23t-16.5 25t-17.5 33q-26 53 -44.5 82.5t-44 55.5t-58 37t-77.5 17t-113 6q-105 0 -135.5 -24t-30.5 -108v-159
q0 -61 11.5 -80.5t42.5 -19.5q30 0 55.5 3t43 6.5t34 12.5t25 14t19.5 19t15 19.5t14 23t13 22.5q19 30 46 30q29 0 42 -28.5t13 -96.5v-296q0 -43 -11 -63.5t-39 -20.5q-19 0 -33.5 11.5t-21 23t-15.5 31.5q-15 34 -25 49.5t-31 32t-53.5 22t-84.5 5.5q-34 0 -47 -21.5
t-13 -77.5v-217q0 -54 8.5 -85t32.5 -47.5t55.5 -21t89.5 -4.5q72 0 126.5 10.5t90.5 27.5t65 47.5t46.5 61t38.5 77.5q35 72 73 72q51 0 51 -86q0 -26 -17.5 -146.5t-21.5 -170.5q-2 -46 -23 -61.5t-76 -15.5q-25 0 -165.5 2.5t-235.5 2.5q-99 0 -276 -2.5t-241 -2.5
q-81 0 -81 56q0 23 17.5 41t39 30t42.5 39.5t27 65.5q7 42 7 180q0 48 -43 48h-324q-53 0 -78 -40q-38 -61 -65.5 -119t-27.5 -79q0 -30 15.5 -55t34.5 -39t34.5 -32.5t15.5 -37.5q0 -58 -85 -58q-22 0 -88.5 2.5t-90.5 2.5t-67.5 -2.5t-66.5 -2.5q-33 0 -51.5 15t-18.5 42
q0 24 14.5 42.5t35 32t52.5 47.5t58 80l468 820q34 58 34 101q0 25 -16.5 47t-36.5 35t-36.5 34.5t-16.5 45.5q0 61 76 61q20 0 115.5 -1t253 -2.5t328.5 -1.5zM899 1035q-5 66 -20 66q-17 0 -53 -52q-42 -58 -135.5 -216.5t-93.5 -173.5q0 -22 33 -22h222q34 0 43.5 15
t9.5 67q0 181 -6 316z" />
    <glyph glyph-name="Ccedilla" unicode="&#xc7;" horiz-adv-x="1372" 
d="M627 -163q0 23 17.5 61.5t44.5 71.5q-137 16 -248.5 81t-183 163t-110 220t-38.5 257q0 143 42.5 273.5t123.5 234.5t211 166t292 62q91 0 183 -24.5t113 -24.5q24 0 60.5 11t56.5 11q17 0 29.5 -4t21.5 -15t15 -21t12 -31.5t9 -35.5t8.5 -45t9.5 -49q11 -56 22 -104
t15 -66t4 -31q0 -31 -15.5 -47.5t-39.5 -16.5q-16 0 -29 6t-26.5 21t-22 26t-25 36.5t-24.5 37.5q-71 99 -160 153.5t-181 54.5q-109 0 -188.5 -64t-117 -165.5t-37.5 -226.5q0 -158 53.5 -287t157 -206t239.5 -77q69 0 128.5 20t102.5 54.5t73 70.5t52 78q11 19 17.5 28.5
t17 17.5t20.5 8q21 0 31 -22.5t10 -52.5q0 -109 -63 -212q-69 -111 -197.5 -186t-300.5 -81q-13 -37 -13 -49q0 -4 4 -6.5t15 -7t15 -6.5q108 -63 108 -165q0 -92 -64 -145t-161 -53q-72 0 -129.5 37.5t-57.5 68.5q0 14 8.5 22t20.5 8q8 0 44 -16t69 -16q35 0 59 19t24 51
q0 37 -27.5 62t-76.5 36q-23 6 -23 31z" />
    <glyph glyph-name="Egrave" unicode="&#xc8;" horiz-adv-x="1274" 
d="M854 1584q29 -26 37.5 -39.5t8.5 -30.5q0 -38 -61 -38q-52 0 -135 28t-152 68q-123 74 -123 163q0 45 32 76t86 31q85 0 168 -110q70 -88 139 -148zM981 858v-296q0 -43 -11 -63.5t-38 -20.5q-19 0 -34 11.5t-21.5 23t-15.5 31.5q-16 34 -26 49.5t-30.5 32t-53 22
t-84.5 5.5q-33 0 -46.5 -21.5t-13.5 -77.5v-217q0 -54 8.5 -85t33 -47.5t56 -21t89.5 -4.5q112 0 179.5 23.5t107 68.5t79.5 132q33 72 73 72q50 0 50 -86q0 -26 -17 -147t-21 -170q-3 -46 -23 -61.5t-75 -15.5q-25 0 -166.5 2.5t-236.5 2.5q-98 0 -267.5 -2.5t-233.5 -2.5
q-81 0 -81 56q0 19 10 34t25 27t31 25.5t29.5 38t17.5 56.5q13 84 13 496q0 319 -4 378q-4 55 -23 93t-39 54t-36 37t-16 47q0 61 74 61q35 0 179 -2.5t279 -2.5q118 0 243 2.5t146 2.5q57 0 79 -19.5t32 -87.5q2 -10 14.5 -84t21.5 -120q12 -60 12 -88q0 -30 -15.5 -45
t-39.5 -15q-7 0 -13 1.5t-12 5t-10.5 6.5t-10 9.5t-8.5 10.5t-8 13t-7.5 13t-8 14.5t-7.5 13.5q-26 53 -45 82.5t-44 55.5t-58 37t-77.5 17t-112.5 6q-105 0 -135.5 -24t-30.5 -108v-159q0 -61 11 -80.5t42 -19.5t56.5 3t43 6.5t33.5 12.5t25 14t20 19t15 19.5t14 23
t13 22.5q21 30 46 30q30 0 42.5 -28.5t12.5 -96.5z" />
    <glyph glyph-name="Eacute" unicode="&#xc9;" horiz-adv-x="1274" 
d="M580 1584q69 60 139 148q41 52 79.5 81t88.5 29q54 0 86.5 -31t32.5 -76q0 -89 -124 -163q-69 -40 -152 -68t-135 -28q-60 0 -60 38q0 17 8.5 30.5t36.5 39.5zM981 858v-296q0 -43 -11 -63.5t-38 -20.5q-19 0 -34 11.5t-21.5 23t-15.5 31.5q-16 34 -26 49.5t-30.5 32
t-53 22t-84.5 5.5q-33 0 -46.5 -21.5t-13.5 -77.5v-217q0 -54 8.5 -85t33 -47.5t56 -21t89.5 -4.5q112 0 179.5 23.5t107 68.5t79.5 132q33 72 73 72q50 0 50 -86q0 -26 -17 -147t-21 -170q-3 -46 -23 -61.5t-75 -15.5q-25 0 -166.5 2.5t-236.5 2.5q-98 0 -267.5 -2.5
t-233.5 -2.5q-81 0 -81 56q0 19 10 34t25 27t31 25.5t29.5 38t17.5 56.5q13 84 13 496q0 319 -4 378q-4 55 -23 93t-39 54t-36 37t-16 47q0 61 74 61q35 0 179 -2.5t279 -2.5q118 0 243 2.5t146 2.5q57 0 79 -19.5t32 -87.5q2 -10 14.5 -84t21.5 -120q12 -60 12 -88
q0 -30 -15.5 -45t-39.5 -15q-7 0 -13 1.5t-12 5t-10.5 6.5t-10 9.5t-8.5 10.5t-8 13t-7.5 13t-8 14.5t-7.5 13.5q-26 53 -45 82.5t-44 55.5t-58 37t-77.5 17t-112.5 6q-105 0 -135.5 -24t-30.5 -108v-159q0 -61 11 -80.5t42 -19.5t56.5 3t43 6.5t33.5 12.5t25 14t20 19
t15 19.5t14 23t13 22.5q21 30 46 30q30 0 42.5 -28.5t12.5 -96.5z" />
    <glyph glyph-name="Ecircumflex" unicode="&#xca;" horiz-adv-x="1274" 
d="M984 1476q-72 0 -200 77q-6 4 -16 10t-15 8.5t-11.5 6t-11.5 5t-9 1.5q-12 0 -61 -30q-48 -31 -102.5 -54.5t-90.5 -23.5q-45 0 -45 37q0 18 33 56q46 52 145 183q36 48 61.5 69t64.5 21q36 0 61.5 -21.5t60.5 -68.5q67 -91 149 -181q32 -33 32 -58q0 -18 -13 -27.5
t-32 -9.5zM981 858v-296q0 -43 -11 -63.5t-38 -20.5q-19 0 -34 11.5t-21.5 23t-15.5 31.5q-16 34 -26 49.5t-30.5 32t-53 22t-84.5 5.5q-33 0 -46.5 -21.5t-13.5 -77.5v-217q0 -54 8.5 -85t33 -47.5t56 -21t89.5 -4.5q112 0 179.5 23.5t107 68.5t79.5 132q33 72 73 72
q50 0 50 -86q0 -26 -17 -147t-21 -170q-3 -46 -23 -61.5t-75 -15.5q-25 0 -166.5 2.5t-236.5 2.5q-98 0 -267.5 -2.5t-233.5 -2.5q-81 0 -81 56q0 19 10 34t25 27t31 25.5t29.5 38t17.5 56.5q13 84 13 496q0 319 -4 378q-4 55 -23 93t-39 54t-36 37t-16 47q0 61 74 61
q35 0 179 -2.5t279 -2.5q118 0 243 2.5t146 2.5q57 0 79 -19.5t32 -87.5q2 -10 14.5 -84t21.5 -120q12 -60 12 -88q0 -30 -15.5 -45t-39.5 -15q-7 0 -13 1.5t-12 5t-10.5 6.5t-10 9.5t-8.5 10.5t-8 13t-7.5 13t-8 14.5t-7.5 13.5q-26 53 -45 82.5t-44 55.5t-58 37t-77.5 17
t-112.5 6q-105 0 -135.5 -24t-30.5 -108v-159q0 -61 11 -80.5t42 -19.5t56.5 3t43 6.5t33.5 12.5t25 14t20 19t15 19.5t14 23t13 22.5q21 30 46 30q30 0 42.5 -28.5t12.5 -96.5z" />
    <glyph glyph-name="Edieresis" unicode="&#xcb;" horiz-adv-x="1274" 
d="M515 1824q67 0 110.5 -41t43.5 -106q0 -75 -56 -126t-133 -51q-64 0 -105 39t-41 101q0 72 52.5 128t128.5 56zM959 1824q67 0 110.5 -41t43.5 -106q0 -75 -55.5 -126t-132.5 -51q-64 0 -105.5 39t-41.5 101q0 72 52.5 128t128.5 56zM981 858v-296q0 -43 -11 -63.5
t-38 -20.5q-19 0 -34 11.5t-21.5 23t-15.5 31.5q-16 34 -26 49.5t-30.5 32t-53 22t-84.5 5.5q-33 0 -46.5 -21.5t-13.5 -77.5v-217q0 -54 8.5 -85t33 -47.5t56 -21t89.5 -4.5q112 0 179.5 23.5t107 68.5t79.5 132q33 72 73 72q50 0 50 -86q0 -26 -17 -147t-21 -170
q-3 -46 -23 -61.5t-75 -15.5q-25 0 -166.5 2.5t-236.5 2.5q-98 0 -267.5 -2.5t-233.5 -2.5q-81 0 -81 56q0 19 10 34t25 27t31 25.5t29.5 38t17.5 56.5q13 84 13 496q0 319 -4 378q-4 55 -23 93t-39 54t-36 37t-16 47q0 61 74 61q35 0 179 -2.5t279 -2.5q118 0 243 2.5
t146 2.5q57 0 79 -19.5t32 -87.5q2 -10 14.5 -84t21.5 -120q12 -60 12 -88q0 -30 -15.5 -45t-39.5 -15q-7 0 -13 1.5t-12 5t-10.5 6.5t-10 9.5t-8.5 10.5t-8 13t-7.5 13t-8 14.5t-7.5 13.5q-26 53 -45 82.5t-44 55.5t-58 37t-77.5 17t-112.5 6q-105 0 -135.5 -24t-30.5 -108
v-159q0 -61 11 -80.5t42 -19.5t56.5 3t43 6.5t33.5 12.5t25 14t20 19t15 19.5t14 23t13 22.5q21 30 46 30q30 0 42.5 -28.5t12.5 -96.5z" />
    <glyph glyph-name="Igrave" unicode="&#xcc;" horiz-adv-x="736" 
d="M598 1584q29 -26 37.5 -39.5t8.5 -30.5q0 -38 -61 -38q-52 0 -135 28t-152 68q-123 74 -123 163q0 45 32 76t86 31q85 0 168 -110q70 -88 139 -148zM655 1398q73 0 73 -61q0 -21 -10.5 -38t-25.5 -31t-31 -31.5t-29 -50.5t-17 -78q-6 -54 -6 -380q0 -387 14 -492
q5 -33 18.5 -57.5t29 -39t30.5 -27t25 -27.5t10 -34q0 -24 -21 -40t-60 -16q-29 0 -99.5 2.5t-104.5 2.5q-36 0 -107.5 -2.5t-100.5 -2.5q-40 0 -60.5 15.5t-20.5 40.5q0 23 15.5 42t35 32.5t39 42.5t24.5 68q12 84 12 492q0 334 -3 380q-4 54 -23 92t-39.5 54t-36.5 37
t-16 46q0 61 74 61q30 0 101.5 -2.5t105.5 -2.5q36 0 106 2.5t98 2.5z" />
    <glyph glyph-name="Iacute" unicode="&#xcd;" horiz-adv-x="736" 
d="M300 1584q69 60 139 148q41 52 79.5 81t88.5 29q54 0 86.5 -31t32.5 -76q0 -89 -124 -163q-69 -40 -152 -68t-135 -28q-60 0 -60 38q0 17 8.5 30.5t36.5 39.5zM655 1398q73 0 73 -61q0 -21 -10.5 -38t-25.5 -31t-31 -31.5t-29 -50.5t-17 -78q-6 -54 -6 -380
q0 -387 14 -492q5 -33 18.5 -57.5t29 -39t30.5 -27t25 -27.5t10 -34q0 -24 -21 -40t-60 -16q-29 0 -99.5 2.5t-104.5 2.5q-36 0 -107.5 -2.5t-100.5 -2.5q-40 0 -60.5 15.5t-20.5 40.5q0 23 15.5 42t35 32.5t39 42.5t24.5 68q12 84 12 492q0 334 -3 380q-4 54 -23 92
t-39.5 54t-36.5 37t-16 46q0 61 74 61q30 0 101.5 -2.5t105.5 -2.5q36 0 106 2.5t98 2.5z" />
    <glyph glyph-name="Icircumflex" unicode="&#xce;" horiz-adv-x="736" 
d="M691 1476q-71 0 -199 77q-53 31 -64 31q-5 0 -9.5 -1.5t-10.5 -4.5t-11 -6t-14 -8.5t-15 -9.5q-48 -31 -103 -54.5t-91 -23.5q-45 0 -45 37q0 18 33 56q47 52 145 183q36 48 61.5 69t64.5 21q36 0 61.5 -21.5t60.5 -68.5q63 -86 150 -181q31 -32 31 -58q0 -18 -13 -27.5
t-32 -9.5zM639 1398q73 0 73 -61q0 -21 -10.5 -38t-25.5 -31t-31 -31.5t-29 -50.5t-17 -78q-6 -54 -6 -380q0 -394 13 -492q6 -40 25.5 -69t38.5 -42t34.5 -32t15.5 -42q0 -24 -21 -40t-60 -16q-29 0 -100 2.5t-105 2.5q-36 0 -107.5 -2.5t-100.5 -2.5q-40 0 -60.5 15.5
t-20.5 40.5q0 23 16 42t35.5 32.5t39 42.5t24.5 68q11 77 11 492q0 334 -3 380q-4 54 -23 92t-39 54t-36 37t-16 46q0 61 73 61q30 0 101.5 -2.5t105.5 -2.5q36 0 106.5 2.5t98.5 2.5z" />
    <glyph glyph-name="Idieresis" unicode="&#xcf;" horiz-adv-x="736" 
d="M155 1824q66 0 109 -41t43 -106q0 -75 -55 -126t-132 -51q-64 0 -105.5 39t-41.5 101q0 72 52.5 128t129.5 56zM583 1824q67 0 110 -41t43 -106q0 -75 -55 -126t-133 -51q-64 0 -105.5 39t-41.5 101q0 72 53 128t129 56zM561 1398q73 0 73 -61q0 -21 -10.5 -38t-25.5 -31
t-31 -31.5t-29 -50.5t-17 -78q-6 -54 -6 -380q0 -394 13 -492q6 -40 25.5 -69t38.5 -42t34.5 -32t15.5 -42q0 -24 -21 -40t-60 -16q-29 0 -100 2.5t-105 2.5q-36 0 -107.5 -2.5t-100.5 -2.5q-40 0 -60 15.5t-20 40.5q0 23 15.5 42t35 32.5t39 42.5t24.5 68q12 84 12 492
q0 319 -4 380q-4 54 -23 92t-39 54t-36 37t-16 46q0 61 74 61q30 0 101 -2.5t105 -2.5q36 0 106.5 2.5t98.5 2.5z" />
    <glyph glyph-name="Eth" unicode="&#xd0;" horiz-adv-x="1491" 
d="M379 1393q57 0 151 3t149 3q120 0 229.5 -24t209 -77.5t172 -132.5t115.5 -197t43 -263q0 -330 -178.5 -520.5t-489.5 -190.5q-59 0 -197 3.5t-204 3.5q-36 0 -107.5 -2.5t-100.5 -2.5q-40 0 -60.5 15t-20.5 40q0 23 16 42t35.5 32.5t39 42.5t24.5 68q9 70 11 381h-148
q-50 0 -50 45q0 49 22 100q10 25 29.5 34.5t57.5 9.5h89q0 245 -3 302q-4 54 -23 92t-39.5 54t-36.5 37t-16 46q0 61 74 61q30 0 101.5 -2.5t105.5 -2.5zM538 1069v-263h227q46 0 46 -43q0 -58 -20 -100q-10 -25 -31.5 -35.5t-59.5 -10.5h-162v-260q0 -110 35 -146t145 -36
q80 0 144 29t105 76.5t68 112t38.5 132.5t11.5 141q0 119 -26 218.5t-77 176.5t-134.5 120.5t-191.5 43.5q-74 0 -96 -34t-22 -122z" />
    <glyph glyph-name="Ntilde" unicode="&#xd1;" horiz-adv-x="1482" 
d="M485 1627q0 82 54 131.5t133 49.5q60 0 154.5 -44.5t140.5 -44.5q33 0 54 15t28 32.5t16 32.5t20 15q25 0 49.5 -34.5t24.5 -91.5q0 -83 -54 -135t-136 -52q-56 0 -117 27t-114 54t-88 27q-25 0 -44.5 -13t-28.5 -28.5t-19 -28.5t-20 -13q-18 0 -35.5 27t-17.5 74z
M244 1398q17 0 82 -2.5t93 -2.5q90 0 122 -16q9 -4 17.5 -10.5t15 -12.5t18 -19t18.5 -22t24 -30t28 -35l440 -599q20 -25 37.5 -43.5t27 -27t12.5 -8.5q5 0 7 3.5t4 22t2.5 55t0.5 103.5q0 359 -41 436q-13 32 -39.5 58.5t-44.5 46t-18 43.5q0 60 72 60q28 0 82 -2.5
t72 -2.5q23 0 75.5 2.5t75.5 2.5q70 0 70 -61q0 -21 -9.5 -36.5t-23.5 -28.5t-28.5 -29t-26.5 -46.5t-15 -72.5q-6 -66 -6 -342q1 -302 9 -468.5t8 -199.5q0 -54 -46.5 -92t-118.5 -38q-43 0 -96 62l-609 805q-34 39 -40 39t-9 -6t-5.5 -29.5t-3 -65t-0.5 -119.5
q0 -168 12 -297t33 -172q14 -34 41.5 -60t45.5 -44.5t18 -41.5q0 -60 -74 -60q-32 0 -85 2.5t-70 2.5q-22 0 -79.5 -2.5t-86.5 -2.5q-70 0 -70 59q0 21 11 36.5t27.5 28t33.5 28.5t30.5 46.5t16.5 72.5q7 84 7 459q0 328 -4 381q-5 55 -24 93t-38.5 54t-35.5 37t-16 47
q0 61 74 61z" />
    <glyph glyph-name="Ograve" unicode="&#xd2;" horiz-adv-x="1495" 
d="M945 1584q29 -26 37.5 -39.5t8.5 -30.5q0 -38 -61 -38q-52 0 -135 28t-152 68q-123 74 -123 163q0 45 32 76t86 31q85 0 168 -110q70 -88 139 -148zM111 685q0 217 86 385.5t242 262t358 93.5q142 0 268 -51t222.5 -146t152.5 -241t56 -325q0 -136 -34.5 -250.5
t-96.5 -196t-148 -139t-188.5 -85t-217.5 -27.5q-215 0 -375 93t-242.5 255t-82.5 372zM752 1246q-106 0 -182 -108.5t-76 -322.5q0 -247 85 -437q51 -105 127.5 -158t156.5 -53q119 0 197.5 94t78.5 283q0 115 -27.5 241t-73.5 223q-51 111 -127.5 174.5t-158.5 63.5z" />
    <glyph glyph-name="Oacute" unicode="&#xd3;" horiz-adv-x="1495" 
d="M643 1584q69 60 139 148q41 52 79.5 81t88.5 29q54 0 86.5 -31t32.5 -76q0 -89 -124 -163q-69 -40 -152 -68t-135 -28q-60 0 -60 38q0 17 8.5 30.5t36.5 39.5zM111 685q0 217 86 385.5t242 262t358 93.5q142 0 268 -51t222.5 -146t152.5 -241t56 -325
q0 -136 -34.5 -250.5t-96.5 -196t-148 -139t-188.5 -85t-217.5 -27.5q-215 0 -375 93t-242.5 255t-82.5 372zM752 1246q-106 0 -182 -108.5t-76 -322.5q0 -247 85 -437q51 -105 127.5 -158t156.5 -53q119 0 197.5 94t78.5 283q0 115 -27.5 241t-73.5 223
q-51 111 -127.5 174.5t-158.5 63.5z" />
    <glyph glyph-name="Ocircumflex" unicode="&#xd4;" horiz-adv-x="1495" 
d="M1068 1476q-72 0 -200 77q-6 4 -16 10t-15 8.5t-11.5 6t-11.5 5t-9 1.5q-12 0 -61 -30q-48 -31 -102.5 -54.5t-90.5 -23.5q-45 0 -45 37q0 18 33 56q47 52 145 183q36 48 61.5 69t64.5 21q36 0 61.5 -21.5t60.5 -68.5q67 -91 149 -181q32 -33 32 -58q0 -18 -13 -27.5
t-32 -9.5zM111 685q0 217 86 385.5t242 262t358 93.5q142 0 268 -51t222.5 -146t152.5 -241t56 -325q0 -136 -34.5 -250.5t-96.5 -196t-148 -139t-188.5 -85t-217.5 -27.5q-215 0 -375 93t-242.5 255t-82.5 372zM752 1246q-106 0 -182 -108.5t-76 -322.5q0 -247 85 -437
q51 -105 127.5 -158t156.5 -53q119 0 197.5 94t78.5 283q0 115 -27.5 241t-73.5 223q-51 111 -127.5 174.5t-158.5 63.5z" />
    <glyph glyph-name="Otilde" unicode="&#xd5;" horiz-adv-x="1495" 
d="M472 1627q0 82 53.5 131.5t132.5 49.5q60 0 154.5 -44.5t140.5 -44.5q33 0 54 15t28 32.5t16.5 32.5t20.5 15q25 0 49.5 -34.5t24.5 -91.5q0 -83 -54 -135t-137 -52q-56 0 -117 27t-113.5 54t-87.5 27q-25 0 -44.5 -13t-28.5 -28.5t-19.5 -28.5t-20.5 -13q-18 0 -35 27
t-17 74zM111 685q0 217 86 385.5t242 262t358 93.5q142 0 268 -51t222.5 -146t152.5 -241t56 -325q0 -136 -34.5 -250.5t-96.5 -196t-148 -139t-188.5 -85t-217.5 -27.5q-215 0 -375 93t-242.5 255t-82.5 372zM752 1246q-106 0 -182 -108.5t-76 -322.5q0 -247 85 -437
q51 -105 127.5 -158t156.5 -53q119 0 197.5 94t78.5 283q0 115 -27.5 241t-73.5 223q-51 111 -127.5 174.5t-158.5 63.5z" />
    <glyph glyph-name="Odieresis" unicode="&#xd6;" horiz-adv-x="1495" 
d="M601 1824q67 0 110.5 -41t43.5 -106q0 -75 -56 -126t-133 -51q-64 0 -105 39t-41 101q0 72 52.5 128t128.5 56zM1046 1824q67 0 110 -41t43 -106q0 -75 -55.5 -126t-132.5 -51q-64 0 -105.5 39t-41.5 101q0 72 52.5 128t129.5 56zM111 685q0 217 86 385.5t242 262
t358 93.5q142 0 268 -51t222.5 -146t152.5 -241t56 -325q0 -136 -34.5 -250.5t-96.5 -196t-148 -139t-188.5 -85t-217.5 -27.5q-215 0 -375 93t-242.5 255t-82.5 372zM752 1246q-106 0 -182 -108.5t-76 -322.5q0 -247 85 -437q51 -105 127.5 -158t156.5 -53q119 0 197.5 94
t78.5 283q0 115 -27.5 241t-73.5 223q-51 111 -127.5 174.5t-158.5 63.5z" />
    <glyph glyph-name="multiply" unicode="&#xd7;" horiz-adv-x="1101" 
d="M389 1068q19 0 39 -21l256 -260l258 260q21 21 40 21q28 0 71 -47t43 -75q0 -23 -25 -48l-248 -248l256 -254q22 -22 22 -40q0 -28 -47 -70.5t-74 -42.5q-26 0 -49 24l-250 248l-255 -255q-21 -21 -39 -21q-29 0 -72 47t-43 74q0 24 25 49l246 244l-244 245
q-25 25 -25 48q0 28 43 75t72 47z" />
    <glyph glyph-name="Oslash" unicode="&#xd8;" horiz-adv-x="1495" 
d="M111 685q0 217 86 385.5t242 262t358 93.5q179 0 327 -77l79 121q30 48 75 48q51 0 75.5 -21.5t24.5 -46.5t-19 -55l-95 -145q110 -100 171 -249t61 -338q0 -136 -34.5 -250.5t-96.5 -196t-148 -139t-188.5 -85t-217.5 -27.5q-188 0 -339 74l-91 -139q-17 -28 -58 -28
q-44 0 -69 22t-25 45q0 15 12 34l98 154q-110 96 -169 239.5t-59 318.5zM752 1246q-106 0 -182 -108.5t-76 -322.5q0 -206 60 -376l415 683q-97 124 -217 124zM1139 544q0 210 -77 409l-419 -677q95 -109 220 -109q119 0 197.5 94t78.5 283z" />
    <glyph glyph-name="Ugrave" unicode="&#xd9;" horiz-adv-x="1454" 
d="M968 1584q29 -26 37.5 -39.5t8.5 -30.5q0 -38 -62 -38q-52 0 -134.5 28t-151.5 68q-123 74 -123 163q0 45 31.5 76t85.5 31q85 0 168 -110q67 -85 140 -148zM1352 813q0 -54 1 -142.5t1 -125.5q0 -293 -135.5 -436.5t-419.5 -143.5q-94 0 -174 19.5t-149.5 64t-118 112
t-76.5 169t-28 229.5q0 488 -4 549q-4 45 -17.5 77.5t-29.5 50.5t-32 32.5t-26.5 31t-10.5 37.5q0 61 74 61q30 0 101.5 -2.5t106.5 -2.5q36 0 105.5 2.5t97.5 2.5q74 0 74 -61q0 -26 -15 -47t-33.5 -36t-37 -53t-24.5 -93q-8 -74 -8 -503q0 -200 77 -294.5t216 -94.5
q176 0 241 130q41 81 41 409q0 357 -35 435q-11 31 -36.5 57t-45 46.5t-19.5 44.5q0 60 73 60q28 0 82 -2.5t71 -2.5q23 0 76 2.5t77 2.5q69 0 69 -61q0 -21 -9.5 -36.5t-23.5 -28.5t-28.5 -29t-26.5 -46.5t-15 -72.5q-6 -66 -6 -311z" />
    <glyph glyph-name="Uacute" unicode="&#xda;" horiz-adv-x="1454" 
d="M712 1584q69 60 139 148q41 52 79.5 81t88.5 29q54 0 86.5 -31t32.5 -76q0 -89 -124 -163q-69 -40 -152 -68t-135 -28q-60 0 -60 38q0 17 8.5 30.5t36.5 39.5zM1352 813q0 -54 1 -142.5t1 -125.5q0 -293 -135.5 -436.5t-419.5 -143.5q-94 0 -174 19.5t-149.5 64t-118 112
t-76.5 169t-28 229.5q0 488 -4 549q-4 45 -17.5 77.5t-29.5 50.5t-32 32.5t-26.5 31t-10.5 37.5q0 61 74 61q30 0 101.5 -2.5t106.5 -2.5q36 0 105.5 2.5t97.5 2.5q74 0 74 -61q0 -26 -15 -47t-33.5 -36t-37 -53t-24.5 -93q-8 -74 -8 -503q0 -200 77 -294.5t216 -94.5
q176 0 241 130q41 81 41 409q0 357 -35 435q-11 31 -36.5 57t-45 46.5t-19.5 44.5q0 60 73 60q28 0 82 -2.5t71 -2.5q23 0 76 2.5t77 2.5q69 0 69 -61q0 -21 -9.5 -36.5t-23.5 -28.5t-28.5 -29t-26.5 -46.5t-15 -72.5q-6 -66 -6 -311z" />
    <glyph glyph-name="Ucircumflex" unicode="&#xdb;" horiz-adv-x="1454" 
d="M1087 1476q-71 0 -199 77q-53 31 -64 31q-5 0 -9.5 -1.5t-10.5 -4.5t-11 -6t-14 -8.5t-15 -9.5q-48 -31 -103 -54.5t-91 -23.5q-45 0 -45 37q0 18 33 56q46 52 145 183q36 48 61.5 69t64.5 21q36 0 61.5 -21.5t60.5 -68.5q63 -86 150 -181q32 -33 32 -58
q0 -18 -13.5 -27.5t-32.5 -9.5zM1352 813q0 -54 1 -142.5t1 -125.5q0 -293 -135.5 -436.5t-419.5 -143.5q-94 0 -174 19.5t-149.5 64t-118 112t-76.5 169t-28 229.5q0 488 -4 549q-4 45 -17.5 77.5t-29.5 50.5t-32 32.5t-26.5 31t-10.5 37.5q0 61 74 61q30 0 101.5 -2.5
t106.5 -2.5q36 0 105.5 2.5t97.5 2.5q74 0 74 -61q0 -26 -15 -47t-33.5 -36t-37 -53t-24.5 -93q-8 -74 -8 -503q0 -200 77 -294.5t216 -94.5q176 0 241 130q41 81 41 409q0 357 -35 435q-11 31 -36.5 57t-45 46.5t-19.5 44.5q0 60 73 60q28 0 82 -2.5t71 -2.5q23 0 76 2.5
t77 2.5q69 0 69 -61q0 -21 -9.5 -36.5t-23.5 -28.5t-28.5 -29t-26.5 -46.5t-15 -72.5q-6 -66 -6 -311z" />
    <glyph glyph-name="Udieresis" unicode="&#xdc;" horiz-adv-x="1454" 
d="M624 1824q67 0 110 -41t43 -106q0 -75 -55.5 -126t-132.5 -51q-64 0 -105.5 39t-41.5 101q0 72 52.5 128t129.5 56zM1068 1824q67 0 110.5 -41t43.5 -106q0 -75 -56 -126t-133 -51q-64 0 -105 39t-41 101q0 72 52.5 128t128.5 56zM1352 813q0 -54 1 -142.5t1 -125.5
q0 -293 -135.5 -436.5t-419.5 -143.5q-94 0 -174 19.5t-149.5 64t-118 112t-76.5 169t-28 229.5q0 488 -4 549q-4 45 -17.5 77.5t-29.5 50.5t-32 32.5t-26.5 31t-10.5 37.5q0 61 74 61q30 0 101.5 -2.5t106.5 -2.5q36 0 105.5 2.5t97.5 2.5q74 0 74 -61q0 -26 -15 -47
t-33.5 -36t-37 -53t-24.5 -93q-8 -74 -8 -503q0 -200 77 -294.5t216 -94.5q176 0 241 130q41 81 41 409q0 357 -35 435q-11 31 -36.5 57t-45 46.5t-19.5 44.5q0 60 73 60q28 0 82 -2.5t71 -2.5q23 0 76 2.5t77 2.5q69 0 69 -61q0 -21 -9.5 -36.5t-23.5 -28.5t-28.5 -29
t-26.5 -46.5t-15 -72.5q-6 -66 -6 -311z" />
    <glyph glyph-name="Yacute" unicode="&#xdd;" horiz-adv-x="1256" 
d="M522 1584q73 63 140 148q41 53 79 81.5t88 28.5q54 0 86.5 -31t32.5 -76q0 -89 -124 -163q-69 -40 -151.5 -68t-134.5 -28q-61 0 -61 38q0 17 8.5 30.5t36.5 39.5zM788 501q0 -169 14 -264q6 -40 27.5 -68.5t44 -42t40.5 -32.5t18 -43q0 -25 -20.5 -40.5t-59.5 -15.5
q-30 0 -109 2.5t-113 2.5q-36 0 -116.5 -2.5t-109.5 -2.5q-39 0 -59.5 15.5t-20.5 40.5q0 24 18.5 43.5t41 32.5t44.5 42t28 68q11 78 11 279q0 41 -26.5 104t-57.5 117t-101 169q-136 220 -180 280q-21 27 -53 53t-47.5 44.5t-15.5 45.5q0 39 27 54t83 15q21 0 81 -2.5
t112 -2.5q51 0 115.5 2.5t89.5 2.5q85 0 85 -63q0 -27 -39 -69t-39 -75q0 -41 70.5 -179t112.5 -186q9 -9 17 -9q7 0 17 12q45 64 105.5 192.5t60.5 166.5q0 27 -12.5 49.5t-28 35t-28 30t-12.5 36.5q0 59 83 59q22 0 89 -2.5t91 -2.5t64.5 2.5t62.5 2.5q32 0 49.5 -15.5
t17.5 -42.5q0 -30 -14 -47.5t-51.5 -50t-68.5 -72.5q-13 -17 -28 -39t-27 -41t-30.5 -52.5t-28.5 -52.5t-33.5 -62.5t-33.5 -62.5t-37.5 -68t-38.5 -69.5t-30.5 -59.5t-28 -61.5t-15.5 -50.5t-7 -50z" />
    <glyph glyph-name="Thorn" unicode="&#xde;" horiz-adv-x="1317" 
d="M284 1106q-3 44 -16 76.5t-29.5 51t-32 33.5t-26 32t-10.5 39q0 60 74 60q22 0 101.5 -2.5t117.5 -2.5q34 0 98.5 2.5t93.5 2.5q88 0 88 -60q0 -20 -15 -37t-54 -46q-31 -22 -46.5 -41t-15.5 -45q0 -48 32 -48q4 0 87 10.5t162 10.5q90 0 170 -22.5t146 -68t105 -125
t39 -183.5q0 -76 -18.5 -143.5t-58.5 -126t-98.5 -101t-144 -66.5t-189.5 -24q-63 0 -125.5 8.5t-73.5 8.5q-21 0 -27 -11t-6 -49q0 -61 75 -95q61 -29 75 -44q15 -17 15 -38q0 -67 -110 -67q-29 0 -105.5 2.5t-110.5 2.5q-38 0 -112 -2.5t-96 -2.5q-81 0 -81 56q0 19 10 34
t25 27t31 25.5t29.5 38t17.5 56.5q13 84 13 496q0 325 -4 378zM997 714q0 114 -71.5 186.5t-186.5 72.5q-66 0 -98 -26.5t-32 -108.5v-224q0 -97 34.5 -129.5t119.5 -32.5q113 0 173.5 69.5t60.5 192.5z" />
    <glyph glyph-name="germandbls" unicode="&#xdf;" horiz-adv-x="1195" 
d="M178 297v637q0 106 22 209q36 165 145.5 265.5t275.5 100.5q147 0 246.5 -77.5t99.5 -210.5q0 -69 -29.5 -130t-64.5 -94.5t-64.5 -61.5t-29.5 -39q0 -3 1 -5.5t4 -5l6 -5t9 -6.5t11 -6.5t15 -8.5t17 -10q359 -179 359 -478q0 -178 -111.5 -281.5t-279.5 -103.5
q-69 0 -129.5 23.5t-60.5 61.5q0 24 24 31q16 5 48 9q88 10 138.5 72t50.5 158q0 60 -20.5 116.5t-48 96t-71 80t-72 61.5t-69.5 48q-41 38 -41 77q0 27 20.5 58t50 63.5t59 68t50 82.5t20.5 97q0 63 -31 98.5t-86 35.5q-77 0 -122.5 -76.5t-45.5 -238.5v-726
q0 -44 9.5 -77.5t23.5 -51.5t28 -32.5t23.5 -30.5t9.5 -35q0 -60 -84 -60q-11 0 -67 2.5t-89 2.5q-34 0 -98 -2.5t-97 -2.5q-70 0 -70 56q0 12 3.5 23t11.5 20.5t13.5 15.5t16.5 15t14 12q56 55 56 160z" />
    <glyph glyph-name="agrave" unicode="&#xe0;" 
d="M655 1243q23 -48 23 -55q0 -37 -43 -37q-41 0 -113 51t-119 111q-62 75 -62 139q0 44 25.5 74t73.5 30q30 0 53.5 -12t40.5 -37t26 -43.5t21 -49.5q26 -77 74 -171zM406 556q53 17 123 30.5t115.5 22.5t57.5 18q25 19 25 98q0 89 -39.5 144.5t-117.5 55.5
q-117 0 -164 -171q-13 -47 -36.5 -71.5t-70.5 -24.5q-56 0 -96.5 39.5t-40.5 109.5q0 99 112 176.5t298 77.5q132 0 232 -42t161.5 -136t61.5 -232q0 -69 -5.5 -191t-5.5 -171q0 -35 13.5 -60t45.5 -25q12 0 26 3.5t21 3.5q9 0 15 -11t6 -28q0 -80 -62 -134.5t-151 -54.5
q-137 0 -187 101q-8 18 -18 18q-6 0 -25 -19q-51 -47 -126 -77.5t-154 -30.5q-135 0 -221 67.5t-86 189.5q0 226 293 324zM729 392q0 82 -18 82q-90 0 -161 -25q-64 -23 -100 -66.5t-36 -95.5t34 -83.5t90 -31.5q88 0 139.5 61.5t51.5 158.5z" />
    <glyph glyph-name="aacute" unicode="&#xe1;" 
d="M528 1243q47 92 75 171q12 31 20.5 49.5t25 43.5t40 37t53.5 12q48 0 74 -30t26 -74q0 -63 -62 -139q-49 -60 -119.5 -111t-112.5 -51q-43 0 -43 37q0 7 23 55zM406 556q53 17 123 30.5t115.5 22.5t57.5 18q25 19 25 98q0 89 -39.5 144.5t-117.5 55.5q-117 0 -164 -171
q-13 -47 -36.5 -71.5t-70.5 -24.5q-56 0 -96.5 39.5t-40.5 109.5q0 99 112 176.5t298 77.5q132 0 232 -42t161.5 -136t61.5 -232q0 -69 -5.5 -191t-5.5 -171q0 -35 13.5 -60t45.5 -25q12 0 26 3.5t21 3.5q9 0 15 -11t6 -28q0 -80 -62 -134.5t-151 -54.5q-137 0 -187 101
q-8 18 -18 18q-6 0 -25 -19q-51 -47 -126 -77.5t-154 -30.5q-135 0 -221 67.5t-86 189.5q0 226 293 324zM729 392q0 82 -18 82q-90 0 -161 -25q-64 -23 -100 -66.5t-36 -95.5t34 -83.5t90 -31.5q88 0 139.5 61.5t51.5 158.5z" />
    <glyph glyph-name="acircumflex" unicode="&#xe2;" 
d="M815 1150q-60 0 -168 101q-8 7 -17.5 17.5t-15 16t-11 10t-9.5 4.5q-5 0 -11.5 -5.5t-19.5 -19.5t-21 -21q-103 -103 -162 -103q-36 0 -36 33q0 18 27 52q53 71 124 211q2 3 9 16t9 16.5t8.5 14t9.5 13.5t10 11t12 10.5t12.5 6.5t15.5 5t17 1q19 0 34 -6.5t28 -23t20 -28
t20 -36.5q47 -101 125 -211q27 -37 27 -52q0 -16 -10.5 -24.5t-26.5 -8.5zM406 556q53 17 123 30.5t115.5 22.5t57.5 18q25 19 25 98q0 89 -39.5 144.5t-117.5 55.5q-117 0 -164 -171q-13 -47 -36.5 -71.5t-70.5 -24.5q-56 0 -96.5 39.5t-40.5 109.5q0 99 112 176.5
t298 77.5q132 0 232 -42t161.5 -136t61.5 -232q0 -69 -5.5 -191t-5.5 -171q0 -35 13.5 -60t45.5 -25q12 0 26 3.5t21 3.5q9 0 15 -11t6 -28q0 -80 -62 -134.5t-151 -54.5q-137 0 -187 101q-8 18 -18 18q-6 0 -25 -19q-51 -47 -126 -77.5t-154 -30.5q-135 0 -221 67.5
t-86 189.5q0 226 293 324zM729 392q0 82 -18 82q-90 0 -161 -25q-64 -23 -100 -66.5t-36 -95.5t34 -83.5t90 -31.5q88 0 139.5 61.5t51.5 158.5z" />
    <glyph glyph-name="atilde" unicode="&#xe3;" 
d="M299 1285q0 75 48 123.5t117 48.5q54 0 138.5 -43.5t125.5 -43.5q30 0 49 14.5t25.5 32t14.5 32t18 14.5q23 0 43.5 -31.5t20.5 -84.5q0 -78 -48.5 -127.5t-121.5 -49.5q-39 0 -82 16.5t-74 36t-66.5 36t-61.5 16.5q-23 0 -40 -13t-25 -28.5t-17.5 -28.5t-18.5 -13
q-15 0 -30 25t-15 68zM406 556q53 17 123 30.5t115.5 22.5t57.5 18q25 19 25 98q0 89 -39.5 144.5t-117.5 55.5q-117 0 -164 -171q-13 -47 -36.5 -71.5t-70.5 -24.5q-56 0 -96.5 39.5t-40.5 109.5q0 99 112 176.5t298 77.5q132 0 232 -42t161.5 -136t61.5 -232
q0 -69 -5.5 -191t-5.5 -171q0 -35 13.5 -60t45.5 -25q12 0 26 3.5t21 3.5q9 0 15 -11t6 -28q0 -80 -62 -134.5t-151 -54.5q-137 0 -187 101q-8 18 -18 18q-6 0 -25 -19q-51 -47 -126 -77.5t-154 -30.5q-135 0 -221 67.5t-86 189.5q0 226 293 324zM729 392q0 82 -18 82
q-90 0 -161 -25q-64 -23 -100 -66.5t-36 -95.5t34 -83.5t90 -31.5q88 0 139.5 61.5t51.5 158.5z" />
    <glyph glyph-name="adieresis" unicode="&#xe4;" 
d="M430 1485q62 0 101.5 -38t39.5 -99q0 -71 -50.5 -118.5t-122.5 -47.5q-58 0 -96 36.5t-38 94.5q0 67 48 119.5t118 52.5zM816 1485q61 0 100.5 -38.5t39.5 -98.5q0 -71 -50.5 -118.5t-122.5 -47.5q-57 0 -95 36.5t-38 94.5q0 67 48 119.5t118 52.5zM406 556
q53 17 123 30.5t115.5 22.5t57.5 18q25 19 25 98q0 89 -39.5 144.5t-117.5 55.5q-117 0 -164 -171q-13 -47 -36.5 -71.5t-70.5 -24.5q-56 0 -96.5 39.5t-40.5 109.5q0 99 112 176.5t298 77.5q132 0 232 -42t161.5 -136t61.5 -232q0 -69 -5.5 -191t-5.5 -171q0 -35 13.5 -60
t45.5 -25q12 0 26 3.5t21 3.5q9 0 15 -11t6 -28q0 -80 -62 -134.5t-151 -54.5q-137 0 -187 101q-8 18 -18 18q-6 0 -25 -19q-51 -47 -126 -77.5t-154 -30.5q-135 0 -221 67.5t-86 189.5q0 226 293 324zM729 392q0 82 -18 82q-90 0 -161 -25q-64 -23 -100 -66.5t-36 -95.5
t34 -83.5t90 -31.5q88 0 139.5 61.5t51.5 158.5z" />
    <glyph glyph-name="aring" unicode="&#xe5;" 
d="M597 1560q94 0 155.5 -57t61.5 -149q0 -96 -65.5 -154.5t-161.5 -58.5q-94 0 -156 56.5t-62 148.5q0 95 66 154.5t162 59.5zM607 1461q-46 0 -73.5 -30.5t-27.5 -76.5q0 -43 25.5 -71.5t68.5 -28.5q45 0 72.5 32t27.5 78q0 42 -25.5 69.5t-67.5 27.5zM406 556
q53 17 123 30.5t115.5 22.5t57.5 18q25 19 25 98q0 89 -39.5 144.5t-117.5 55.5q-117 0 -164 -171q-13 -47 -36.5 -71.5t-70.5 -24.5q-56 0 -96.5 39.5t-40.5 109.5q0 99 112 176.5t298 77.5q132 0 232 -42t161.5 -136t61.5 -232q0 -69 -5.5 -191t-5.5 -171q0 -35 13.5 -60
t45.5 -25q12 0 26 3.5t21 3.5q9 0 15 -11t6 -28q0 -80 -62 -134.5t-151 -54.5q-137 0 -187 101q-8 18 -18 18q-6 0 -25 -19q-51 -47 -126 -77.5t-154 -30.5q-135 0 -221 67.5t-86 189.5q0 226 293 324zM729 392q0 82 -18 82q-90 0 -161 -25q-64 -23 -100 -66.5t-36 -95.5
t34 -83.5t90 -31.5q88 0 139.5 61.5t51.5 158.5z" />
    <glyph glyph-name="ae" unicode="&#xe6;" horiz-adv-x="1642" 
d="M550 1060q181 0 288 -89q15 -11 29 -24.5t20.5 -18.5t12.5 -5q7 0 12 3t16.5 13t22.5 18q127 103 289 103q99 0 178.5 -34.5t126 -90t70.5 -119t24 -127.5q0 -90 -86 -137q-55 -34 -197.5 -57.5t-288.5 -28.5q-27 -1 -27 -21q0 -32 16 -69.5t46 -74t83 -60.5t119 -24
q176 0 282 138q23 23 39 23q32 0 32 -59q0 -52 -30 -110.5t-84 -110.5t-141.5 -86.5t-189.5 -34.5q-250 0 -381 178q-12 16 -20 16q-9 0 -21 -16q-62 -80 -150 -130t-223 -50q-133 0 -218.5 67.5t-85.5 189.5q0 117 75 197.5t215 122.5q55 17 123 26t112.5 13.5t55.5 11.5
q23 17 23 117q0 94 -38 149.5t-114 55.5q-114 0 -161 -171q-13 -47 -36 -71.5t-70 -24.5q-57 0 -96.5 39t-39.5 110q0 99 106.5 176t281.5 77zM1362 735q0 72 -41.5 120t-106.5 48q-86 0 -145.5 -80t-59.5 -176q0 -49 34 -49q59 0 156 20.5t137 55.5q26 24 26 61zM726 411
q0 46 -51 46q-77 0 -133 -18q-63 -22 -98.5 -65t-35.5 -90q0 -55 34.5 -83.5t84.5 -28.5q89 0 144 67.5t55 171.5z" />
    <glyph glyph-name="ccedilla" unicode="&#xe7;" horiz-adv-x="1030" 
d="M451 -163q0 25 21 68t50 78q-196 25 -313 166.5t-117 347.5q0 113 37 214.5t104 179.5t168.5 123.5t223.5 45.5q155 0 258.5 -73.5t103.5 -188.5q0 -78 -50.5 -126.5t-133.5 -48.5q-35 0 -51 18.5t-26 64.5q-10 41 -21 71.5t-29 62.5t-45.5 49.5t-63.5 17.5
q-82 0 -133 -78t-51 -200q0 -165 86.5 -273t236.5 -108q45 0 85.5 11.5t65 24t53 38t36.5 35.5t29 35q24 24 36 24q33 0 33 -67q0 -60 -27.5 -121.5t-77.5 -114.5t-128 -89.5t-170 -43.5q-18 -51 -18 -63q0 -2 1.5 -4t5 -4t7 -3.5t9.5 -4t10 -4.5q109 -63 109 -165
q0 -92 -64 -145t-161 -53q-72 0 -129.5 37.5t-57.5 68.5q0 14 8.5 22t20.5 8q8 0 44 -16t69 -16q35 0 59 19t24 51q0 37 -27.5 62t-76.5 36q-23 6 -23 31z" />
    <glyph glyph-name="egrave" unicode="&#xe8;" horiz-adv-x="1047" 
d="M683 1243q23 -48 23 -55q0 -37 -43 -37q-41 0 -113 51t-119 111q-62 75 -62 139q0 44 25.5 74t73.5 30q30 0 53.5 -12t40.5 -37t25.5 -43t20.5 -50q24 -71 75 -171zM947 552q-78 -44 -217.5 -68t-269.5 -31q-27 -1 -27 -20q0 -24 9 -51.5t29.5 -57t50 -53.5t74.5 -39
t99 -15q179 0 285 138q23 23 41 23q31 0 31 -59q0 -52 -30 -110t-84.5 -110.5t-142.5 -87t-192 -34.5q-233 0 -371 144t-138 374q0 152 66 280.5t190 206.5t281 78q101 0 181 -34.5t126.5 -90t71 -119t24.5 -127.5q0 -90 -87 -137zM756 736q0 71 -44 119t-111 48
q-89 0 -147.5 -76t-58.5 -175q0 -60 40 -60q61 0 156.5 23t137.5 61q27 25 27 60z" />
    <glyph glyph-name="eacute" unicode="&#xe9;" horiz-adv-x="1047" 
d="M499 1243q43 85 74 171q11 31 20 50t26 43.5t40.5 36.5t53.5 12q48 0 73.5 -30t25.5 -74q0 -64 -61 -139q-49 -60 -120 -111t-113 -51q-43 0 -43 37q0 5 24 55zM947 552q-78 -44 -217.5 -68t-269.5 -31q-27 -1 -27 -20q0 -24 9 -51.5t29.5 -57t50 -53.5t74.5 -39t99 -15
q179 0 285 138q23 23 41 23q31 0 31 -59q0 -52 -30 -110t-84.5 -110.5t-142.5 -87t-192 -34.5q-233 0 -371 144t-138 374q0 152 66 280.5t190 206.5t281 78q101 0 181 -34.5t126.5 -90t71 -119t24.5 -127.5q0 -90 -87 -137zM756 736q0 71 -44 119t-111 48q-89 0 -147.5 -76
t-58.5 -175q0 -60 40 -60q61 0 156.5 23t137.5 61q27 25 27 60z" />
    <glyph glyph-name="ecircumflex" unicode="&#xea;" horiz-adv-x="1047" 
d="M813 1150q-60 0 -168 101q-8 7 -17.5 17.5t-15 16t-11 10t-9.5 4.5q-5 0 -11.5 -5.5t-19.5 -19.5t-21 -21q-103 -103 -162 -103q-36 0 -36 33q0 18 27 52q53 71 124 211q2 3 9 16t9 16.5t8.5 14t9.5 13.5t10 11t12 10.5t12.5 6.5t15.5 5t17 1q19 0 34 -6.5t28 -23t20 -28
t20 -36.5q47 -101 125 -211q27 -37 27 -52q0 -16 -10.5 -24.5t-26.5 -8.5zM947 552q-78 -44 -217.5 -68t-269.5 -31q-27 -1 -27 -20q0 -24 9 -51.5t29.5 -57t50 -53.5t74.5 -39t99 -15q179 0 285 138q23 23 41 23q31 0 31 -59q0 -52 -30 -110t-84.5 -110.5t-142.5 -87
t-192 -34.5q-233 0 -371 144t-138 374q0 152 66 280.5t190 206.5t281 78q101 0 181 -34.5t126.5 -90t71 -119t24.5 -127.5q0 -90 -87 -137zM756 736q0 71 -44 119t-111 48q-89 0 -147.5 -76t-58.5 -175q0 -60 40 -60q61 0 156.5 23t137.5 61q27 25 27 60z" />
    <glyph glyph-name="edieresis" unicode="&#xeb;" horiz-adv-x="1047" 
d="M421 1485q62 0 101.5 -38t39.5 -99q0 -71 -50.5 -118.5t-122.5 -47.5q-58 0 -96 36.5t-38 94.5q0 67 48 119.5t118 52.5zM807 1485q61 0 100.5 -38.5t39.5 -98.5q0 -71 -50.5 -118.5t-122.5 -47.5q-57 0 -95 36.5t-38 94.5q0 67 48 119.5t118 52.5zM947 552
q-78 -44 -217.5 -68t-269.5 -31q-27 -1 -27 -20q0 -24 9 -51.5t29.5 -57t50 -53.5t74.5 -39t99 -15q179 0 285 138q23 23 41 23q31 0 31 -59q0 -52 -30 -110t-84.5 -110.5t-142.5 -87t-192 -34.5q-233 0 -371 144t-138 374q0 152 66 280.5t190 206.5t281 78q101 0 181 -34.5
t126.5 -90t71 -119t24.5 -127.5q0 -90 -87 -137zM756 736q0 71 -44 119t-111 48q-89 0 -147.5 -76t-58.5 -175q0 -60 40 -60q61 0 156.5 23t137.5 61q27 25 27 60z" />
    <glyph glyph-name="igrave" unicode="&#xec;" horiz-adv-x="615" 
d="M449 1243q22 -46 22 -55q0 -37 -43 -37q-41 0 -112 51t-119 111q-63 76 -63 139q0 44 25.5 74t73.5 30q30 0 53.5 -12t40.5 -37t26 -43.5t21 -49.5q24 -71 75 -171zM517 992q0 -11 -5 -134.5t-5 -248.5v-327q0 -57 11 -87.5t36 -56.5q8 -9 28 -23.5t28 -27t8 -33.5
q0 -59 -78 -59q-30 0 -89.5 2.5t-88.5 2.5q-33 0 -93 -2.5t-106 -2.5q-67 0 -67 56q0 15 7 29.5t14.5 22.5t20 19t16.5 15q57 59 57 159v413q0 85 -65 118q-46 29 -46 60q0 16 7 27.5t22.5 20t30 14t41 14.5t44.5 16q35 14 85.5 37t78 33.5t43.5 10.5q65 0 65 -68z" />
    <glyph glyph-name="iacute" unicode="&#xed;" horiz-adv-x="615" 
d="M251 1243q47 92 75 171q12 31 20.5 49.5t25 43.5t40 37t53.5 12q48 0 73.5 -30t25.5 -74q0 -64 -61 -139q-49 -60 -120 -111t-113 -51q-43 0 -43 37q0 5 24 55zM517 992q0 -11 -5 -134.5t-5 -248.5v-327q0 -57 11 -87.5t36 -56.5q8 -9 28 -23.5t28 -27t8 -33.5
q0 -59 -78 -59q-30 0 -89.5 2.5t-88.5 2.5q-33 0 -93 -2.5t-106 -2.5q-67 0 -67 56q0 15 7 29.5t14.5 22.5t20 19t16.5 15q57 59 57 159v413q0 85 -65 118q-46 29 -46 60q0 16 7 27.5t22.5 20t30 14t41 14.5t44.5 16q35 14 85.5 37t78 33.5t43.5 10.5q65 0 65 -68z" />
    <glyph glyph-name="icircumflex" unicode="&#xee;" horiz-adv-x="615" 
d="M577 1150q-60 0 -168 101q-7 6 -14.5 14.5t-12.5 13.5t-10.5 10t-9.5 7.5t-7 2.5q-5 0 -11.5 -5.5t-19.5 -19.5t-21 -21q-103 -103 -162 -103q-36 0 -36 33q0 18 27 52q53 71 124 211q2 3 9 16t9 16.5t8.5 14t9.5 13.5t10 11t12 10.5t12.5 6.5t15.5 5t17 1
q19 0 34.5 -6.5t28.5 -22.5t20 -28t20 -37q47 -101 125 -211q26 -36 26 -52t-10 -24.5t-26 -8.5zM517 992q0 -11 -5 -134.5t-5 -248.5v-327q0 -57 11 -87.5t36 -56.5q8 -9 28 -23.5t28 -27t8 -33.5q0 -59 -78 -59q-30 0 -89.5 2.5t-88.5 2.5q-33 0 -93 -2.5t-106 -2.5
q-67 0 -67 56q0 15 7 29.5t14.5 22.5t20 19t16.5 15q57 59 57 159v413q0 85 -65 118q-46 29 -46 60q0 16 7 27.5t22.5 20t30 14t41 14.5t44.5 16q35 14 85.5 37t78 33.5t43.5 10.5q65 0 65 -68z" />
    <glyph glyph-name="idieresis" unicode="&#xef;" horiz-adv-x="615" 
d="M167 1485q59 0 97 -38.5t38 -98.5q0 -71 -47.5 -117.5t-114.5 -46.5q-58 0 -93 36.5t-35 95.5q0 67 44.5 118t110.5 51zM508 1485q59 0 97 -38.5t38 -98.5q0 -71 -47.5 -117.5t-114.5 -46.5q-58 0 -93 36.5t-35 95.5q0 67 44.5 118t110.5 51zM475 992q0 -11 -5 -134.5
t-5 -248.5v-327q0 -57 11 -87.5t36 -56.5q9 -9 28.5 -23.5t28 -27t8.5 -33.5q0 -59 -79 -59q-30 0 -89 2.5t-88 2.5q-33 0 -93.5 -2.5t-106.5 -2.5q-67 0 -67 56q0 15 7 29.5t14.5 22.5t20 19t16.5 15q57 59 57 159v413q0 85 -65 118q-46 29 -46 60q0 16 7 27.5t22.5 20
t30 14t41 14.5t44.5 16q35 14 85.5 37t78 33.5t43.5 10.5q65 0 65 -68z" />
    <glyph glyph-name="eth" unicode="&#xf0;" horiz-adv-x="1146" 
d="M689 979q16 -6 19 -6q6 0 6 6q0 7 -6 19q-56 100 -136 182l-212 -101q-54 -24 -71 -24q-22 0 -33 24.5t-11 57.5q0 39 54 66l157 75q-81 59 -195 106q-58 27 -58 54q0 23 21.5 34t47.5 11q174 0 377 -118l216 103q49 21 64 21q26 0 36 -26.5t10 -55.5q0 -43 -60 -71
l-133 -63q63 -51 122 -116q110 -123 175 -281t65 -333q0 -135 -41 -243t-113 -177.5t-167 -106t-205 -36.5q-238 0 -382 148.5t-144 382.5q0 235 121.5 376.5t294.5 141.5q108 0 181 -50zM579 900q-74 0 -122 -68.5t-48 -211.5q0 -186 58 -311q34 -70 84 -106t107 -36
q79 0 132 61.5t53 190.5q0 77 -19.5 166t-50.5 156q-37 78 -88 118.5t-106 40.5z" />
    <glyph glyph-name="ntilde" unicode="&#xf1;" horiz-adv-x="1264" 
d="M372 1285q0 75 48 123.5t117 48.5q54 0 138.5 -43.5t125.5 -43.5q30 0 49 14.5t25 32t14 32t18 14.5q23 0 44 -31.5t21 -84.5q0 -78 -48.5 -127.5t-121.5 -49.5q-39 0 -82 16.5t-74 36t-66.5 36t-61.5 16.5q-23 0 -40 -13t-25 -28.5t-17.5 -28.5t-18.5 -13q-15 0 -30 25
t-15 68zM1185 671q0 -97 -14.5 -245.5t-14.5 -172.5q0 -79 50 -119q9 -7 26 -18t24 -17t13.5 -17.5t6.5 -27.5q0 -59 -85 -59q-27 0 -79 2.5t-81 2.5q-35 0 -82.5 -2.5t-79.5 -2.5q-60 0 -60 56q0 18 4.5 36.5t12.5 39.5t9 25q16 46 29.5 172.5t13.5 256.5q0 273 -181 273
q-69 0 -130 -56t-61 -135v-381q0 -60 8.5 -90t31.5 -54q8 -9 28 -23.5t28 -27t8 -33.5q0 -59 -80 -59q-30 0 -86 2.5t-82 2.5q-33 0 -97 -2.5t-102 -2.5q-67 0 -67 56q0 15 7 29.5t14 22t20.5 19.5t16.5 15q56 59 56 159v442q0 69 -68 98q-20 12 -30 23.5t-10 30.5
q0 15 6.5 26t22 20.5t29 15t40.5 15.5t44 18q30 14 62 29.5t46 22.5t29 12t28 5q29 0 46 -15.5t27 -53.5q14 -71 25 -79q3 -3 7 -3q6 0 36 24.5t68.5 54t103.5 54t131 24.5q166 0 249 -100.5t83 -288.5z" />
    <glyph glyph-name="ograve" unicode="&#xf2;" horiz-adv-x="1143" 
d="M699 1243q23 -48 23 -55q0 -37 -43 -37q-41 0 -113 51t-119 111q-62 75 -62 139q0 44 25.5 74t73.5 30q30 0 53.5 -12t40.5 -37t26 -43.5t21 -49.5q26 -77 74 -171zM92 511q0 243 144.5 396t369.5 153q107 0 204 -38t171.5 -108.5t118.5 -179.5t44 -241
q0 -125 -41.5 -224t-114 -161.5t-166.5 -95t-204 -32.5q-238 0 -382 148.5t-144 382.5zM579 900q-74 0 -122 -68.5t-48 -211.5q0 -186 58 -311q34 -70 84 -106t107 -36q78 0 130.5 61.5t52.5 187.5q0 78 -19 167t-51 157q-38 78 -88.5 119t-103.5 41z" />
    <glyph glyph-name="oacute" unicode="&#xf3;" horiz-adv-x="1143" 
d="M517 1243q47 92 75 171q12 31 20.5 49.5t25 43.5t40 37t53.5 12q48 0 73.5 -30t25.5 -74q0 -64 -61 -139q-49 -60 -119.5 -111t-112.5 -51q-43 0 -43 37q0 7 23 55zM92 511q0 243 144.5 396t369.5 153q107 0 204 -38t171.5 -108.5t118.5 -179.5t44 -241
q0 -125 -41.5 -224t-114 -161.5t-166.5 -95t-204 -32.5q-238 0 -382 148.5t-144 382.5zM579 900q-74 0 -122 -68.5t-48 -211.5q0 -186 58 -311q34 -70 84 -106t107 -36q78 0 130.5 61.5t52.5 187.5q0 78 -19 167t-51 157q-38 78 -88.5 119t-103.5 41z" />
    <glyph glyph-name="ocircumflex" unicode="&#xf4;" horiz-adv-x="1143" 
d="M833 1150q-60 0 -168 101q-7 6 -14.5 14.5t-12.5 13.5t-10.5 10t-9.5 7.5t-7 2.5q-5 0 -11.5 -5.5t-19.5 -19.5t-21 -21q-103 -103 -162 -103q-36 0 -36 33q0 18 27 52q53 71 124 211q2 3 9 16t9 16.5t8.5 14t9.5 13.5t10 11t12 10.5t12.5 6.5t15.5 5t17 1
q19 0 34.5 -6.5t28.5 -22.5t20 -28t20 -37q47 -101 125 -211q26 -36 26 -52t-10 -24.5t-26 -8.5zM92 511q0 243 144.5 396t369.5 153q107 0 204 -38t171.5 -108.5t118.5 -179.5t44 -241q0 -125 -41.5 -224t-114 -161.5t-166.5 -95t-204 -32.5q-238 0 -382 148.5t-144 382.5z
M579 900q-74 0 -122 -68.5t-48 -211.5q0 -186 58 -311q34 -70 84 -106t107 -36q78 0 130.5 61.5t52.5 187.5q0 78 -19 167t-51 157q-38 78 -88.5 119t-103.5 41z" />
    <glyph glyph-name="otilde" unicode="&#xf5;" horiz-adv-x="1143" 
d="M316 1285q0 75 48 123.5t117 48.5q54 0 138.5 -43.5t125.5 -43.5q30 0 49 14.5t25.5 32t14.5 32t18 14.5q23 0 43.5 -31.5t20.5 -84.5q0 -78 -48.5 -127.5t-121.5 -49.5q-39 0 -82 16.5t-74 36t-66 36t-61 16.5q-23 0 -40 -13t-25.5 -28.5t-18 -28.5t-18.5 -13
q-15 0 -30 25t-15 68zM92 511q0 243 144.5 396t369.5 153q107 0 204 -38t171.5 -108.5t118.5 -179.5t44 -241q0 -125 -41.5 -224t-114 -161.5t-166.5 -95t-204 -32.5q-238 0 -382 148.5t-144 382.5zM579 900q-74 0 -122 -68.5t-48 -211.5q0 -186 58 -311q34 -70 84 -106
t107 -36q78 0 130.5 61.5t52.5 187.5q0 78 -19 167t-51 157q-38 78 -88.5 119t-103.5 41z" />
    <glyph glyph-name="odieresis" unicode="&#xf6;" horiz-adv-x="1143" 
d="M446 1485q62 0 102 -38.5t40 -98.5q0 -71 -50.5 -118.5t-122.5 -47.5q-58 0 -96 36.5t-38 94.5q0 68 47.5 120t117.5 52zM833 1485q61 0 100.5 -38.5t39.5 -98.5q0 -71 -50.5 -118.5t-122.5 -47.5q-57 0 -95 36.5t-38 94.5q0 67 48 119.5t118 52.5zM92 511
q0 243 144.5 396t369.5 153q107 0 204 -38t171.5 -108.5t118.5 -179.5t44 -241q0 -125 -41.5 -224t-114 -161.5t-166.5 -95t-204 -32.5q-238 0 -382 148.5t-144 382.5zM579 900q-74 0 -122 -68.5t-48 -211.5q0 -186 58 -311q34 -70 84 -106t107 -36q78 0 130.5 61.5
t52.5 187.5q0 78 -19 167t-51 157q-38 78 -88.5 119t-103.5 41z" />
    <glyph glyph-name="divide" unicode="&#xf7;" horiz-adv-x="1101" 
d="M797 1016q0 -69 -46.5 -111.5t-111.5 -42.5q-60 0 -100 35.5t-40 101.5q0 71 47 114.5t109 43.5q58 0 100 -37.5t42 -103.5zM1015 569h-790q-32 0 -32 39q0 60 17 115q9 24 23 33t47 9h789q33 0 33 -38q0 -56 -18 -116q-8 -24 -22 -33t-47 -9zM797 329
q0 -69 -46.5 -111.5t-111.5 -42.5q-60 0 -100 35.5t-40 100.5q0 70 47 114t109 44q58 0 100 -37.5t42 -102.5z" />
    <glyph glyph-name="oslash" unicode="&#xf8;" horiz-adv-x="1143" 
d="M92 511q0 243 144.5 396t369.5 153q130 0 241 -54l83 129q30 43 69 43q48 0 71 -20t23 -43q0 -21 -20 -50l-97 -147q168 -160 168 -425q0 -125 -41.5 -224t-114 -161.5t-166.5 -95t-204 -32.5q-130 0 -235 47l-90 -136q-15 -25 -54 -25q-40 0 -63 19.5t-23 40.5
q0 11 9 32l97 148q-80 72 -123.5 176.5t-43.5 228.5zM579 900q-75 0 -126.5 -69t-51.5 -211t37 -256l281 462q-65 74 -140 74zM847 415q0 127 -43 256l-279 -451q60 -53 133 -53q79 0 134 61t55 187z" />
    <glyph glyph-name="ugrave" unicode="&#xf9;" horiz-adv-x="1266" 
d="M745 1243q23 -48 23 -55q0 -37 -43 -37q-41 0 -112 51t-119 111q-63 76 -63 139q0 44 25.5 74t73.5 30q30 0 53.5 -12t40.5 -37t26 -43.5t21 -49.5q26 -77 74 -171zM1134 692v-403q0 -34 15.5 -59.5t46.5 -25.5q12 0 26.5 3.5t20.5 3.5q9 0 15.5 -11t6.5 -28
q0 -80 -62 -134.5t-152 -54.5q-137 0 -197 114q-11 22 -25 22q-6 0 -29 -23q-27 -23 -42.5 -34.5t-54.5 -35t-87 -35t-104 -11.5q-91 0 -158.5 29t-106.5 81.5t-57.5 119t-18.5 149.5q0 85 11.5 228.5t11.5 158.5q0 72 -43 114q-10 9 -32.5 24t-32.5 28t-10 35q0 55 86 64
q77 8 140.5 19t96 17.5t51.5 6.5q65 0 65 -70q0 -39 -19 -199.5t-19 -326.5q0 -133 40.5 -205t136.5 -72q80 0 132 57.5t52 175.5v295q0 63 -9.5 94.5t-38.5 57.5q-6 6 -26.5 22.5t-28 29.5t-7.5 34q0 53 80 63q63 6 128 17.5t105 19t55 7.5q61 0 61 -69q0 -21 -11.5 -106.5
t-11.5 -186.5z" />
    <glyph glyph-name="uacute" unicode="&#xfa;" horiz-adv-x="1266" 
d="M566 1243q47 92 75 171q12 31 20.5 49.5t25 43.5t40 37t53.5 12q48 0 74 -30t26 -74q0 -63 -62 -139q-49 -60 -119.5 -111t-112.5 -51q-43 0 -43 37q0 7 23 55zM1134 692v-403q0 -34 15.5 -59.5t46.5 -25.5q12 0 26.5 3.5t20.5 3.5q9 0 15.5 -11t6.5 -28
q0 -80 -62 -134.5t-152 -54.5q-137 0 -197 114q-11 22 -25 22q-6 0 -29 -23q-27 -23 -42.5 -34.5t-54.5 -35t-87 -35t-104 -11.5q-91 0 -158.5 29t-106.5 81.5t-57.5 119t-18.5 149.5q0 85 11.5 228.5t11.5 158.5q0 72 -43 114q-10 9 -32.5 24t-32.5 28t-10 35q0 55 86 64
q77 8 140.5 19t96 17.5t51.5 6.5q65 0 65 -70q0 -39 -19 -199.5t-19 -326.5q0 -133 40.5 -205t136.5 -72q80 0 132 57.5t52 175.5v295q0 63 -9.5 94.5t-38.5 57.5q-6 6 -26.5 22.5t-28 29.5t-7.5 34q0 53 80 63q63 6 128 17.5t105 19t55 7.5q61 0 61 -69q0 -21 -11.5 -106.5
t-11.5 -186.5z" />
    <glyph glyph-name="ucircumflex" unicode="&#xfb;" horiz-adv-x="1266" 
d="M886 1150q-60 0 -168 101q-8 7 -17.5 17.5t-15 16t-11 10t-9.5 4.5q-3 0 -7 -2.5t-9.5 -7t-10 -9.5t-12.5 -13l-14 -14q-103 -103 -161 -103q-36 0 -36 33q0 19 26 52q53 71 124 211q1 2 8 14.5t8.5 14.5t7.5 13t8.5 13t9 10t10 10.5l10.5 7.5t12.5 6.5t13.5 3t16 1.5
q19 0 34 -6.5t28 -23t20 -28t20 -36.5q47 -101 125 -211q27 -37 27 -52q0 -16 -10.5 -24.5t-26.5 -8.5zM1134 692v-403q0 -34 15.5 -59.5t46.5 -25.5q12 0 26.5 3.5t20.5 3.5q9 0 15.5 -11t6.5 -28q0 -80 -62 -134.5t-152 -54.5q-137 0 -197 114q-11 22 -25 22q-6 0 -29 -23
q-27 -23 -42.5 -34.5t-54.5 -35t-87 -35t-104 -11.5q-91 0 -158.5 29t-106.5 81.5t-57.5 119t-18.5 149.5q0 85 11.5 228.5t11.5 158.5q0 72 -43 114q-10 9 -32.5 24t-32.5 28t-10 35q0 55 86 64q77 8 140.5 19t96 17.5t51.5 6.5q65 0 65 -70q0 -39 -19 -199.5t-19 -326.5
q0 -133 40.5 -205t136.5 -72q80 0 132 57.5t52 175.5v295q0 63 -9.5 94.5t-38.5 57.5q-6 6 -26.5 22.5t-28 29.5t-7.5 34q0 53 80 63q63 6 128 17.5t105 19t55 7.5q61 0 61 -69q0 -21 -11.5 -106.5t-11.5 -186.5z" />
    <glyph glyph-name="udieresis" unicode="&#xfc;" horiz-adv-x="1266" 
d="M494 1485q62 0 101.5 -38t39.5 -99q0 -71 -50.5 -118.5t-122.5 -47.5q-58 0 -96 36.5t-38 94.5q0 67 48 119.5t118 52.5zM880 1485q61 0 100.5 -38.5t39.5 -98.5q0 -71 -50.5 -118.5t-122.5 -47.5q-57 0 -95 36.5t-38 94.5q0 67 48 119.5t118 52.5zM1134 692v-403
q0 -34 15.5 -59.5t46.5 -25.5q12 0 26.5 3.5t20.5 3.5q9 0 15.5 -11t6.5 -28q0 -80 -62 -134.5t-152 -54.5q-137 0 -197 114q-11 22 -25 22q-6 0 -29 -23q-27 -23 -42.5 -34.5t-54.5 -35t-87 -35t-104 -11.5q-91 0 -158.5 29t-106.5 81.5t-57.5 119t-18.5 149.5
q0 85 11.5 228.5t11.5 158.5q0 72 -43 114q-10 9 -32.5 24t-32.5 28t-10 35q0 55 86 64q77 8 140.5 19t96 17.5t51.5 6.5q65 0 65 -70q0 -39 -19 -199.5t-19 -326.5q0 -133 40.5 -205t136.5 -72q80 0 132 57.5t52 175.5v295q0 63 -9.5 94.5t-38.5 57.5q-6 6 -26.5 22.5
t-28 29.5t-7.5 34q0 53 80 63q63 6 128 17.5t105 19t55 7.5q61 0 61 -69q0 -21 -11.5 -106.5t-11.5 -186.5z" />
    <glyph glyph-name="yacute" unicode="&#xfd;" horiz-adv-x="1116" 
d="M508 1243q47 92 75 171q12 31 20.5 49.5t25 43.5t40 37t53.5 12q48 0 73.5 -30t25.5 -74q0 -64 -61 -139q-49 -60 -120 -111t-113 -51q-43 0 -43 37q0 5 24 55zM981 764q-19 -48 -61 -160.5t-78 -205t-64 -157.5q-122 -287 -164 -372q-107 -210 -216 -276
q-63 -38 -137 -38q-85 0 -141.5 51t-56.5 134q0 73 42.5 123t100.5 50q47 0 80 -44q4 -5 15 -20.5t16 -21.5t14 -15t18 -12.5t19 -3.5q29 0 65.5 49t36.5 92q0 31 -36 125t-100 240t-73 169q-1 3 -16.5 39.5t-21.5 50.5l-22.5 52.5t-26.5 58.5t-25.5 54t-27 55t-24.5 44.5
t-24.5 38.5t-20.5 24q-21 21 -29 30t-17.5 27.5t-9.5 37.5q0 28 17 44t50 16q29 0 82 -2.5t84 -2.5q27 0 92.5 2.5t96.5 2.5q37 0 54.5 -14t17.5 -53q0 -17 -28 -54t-28 -70q0 -48 86 -261q88 -216 105 -239q5 -6 8 -6q15 0 42.5 73t74.5 221q46 133 46 182q0 38 -20 67
t-39.5 51.5t-19.5 44.5q0 27 16.5 42.5t42.5 15.5q23 0 78.5 -2.5t75.5 -2.5q25 0 66.5 2.5t56.5 2.5q59 0 59 -53q0 -25 -12 -43.5t-29.5 -33.5t-43 -54t-46.5 -95z" />
    <glyph glyph-name="thorn" unicode="&#xfe;" horiz-adv-x="1183" 
d="M150 -120v1307q0 64 -68 94q-14 8 -20.5 13t-13.5 16t-7 24q0 10 3 18t10.5 15t14.5 12t22 11t25.5 10l31.5 12t34 13q45 17 91.5 39t70.5 31.5t45 9.5q66 0 66 -67q0 -11 -10 -132t-10 -243v-114q0 -49 16 -49q5 0 20.5 16.5t40.5 40t58.5 47t84.5 40t108 16.5
q180 0 283.5 -141t103.5 -367q0 -136 -38.5 -246.5t-104 -180.5t-150.5 -107.5t-181 -37.5q-48 0 -89 11t-62.5 23.5t-38.5 23.5t-22 11q-20 0 -20 -56v-129q0 -14 1 -26.5t5 -23.5t6 -18t9 -16.5t9 -13t12.5 -12.5t12 -10t13.5 -10.5t13 -9.5q6 -4 25.5 -16t27 -18.5
t16 -20.5t8.5 -30q0 -60 -80 -60q-25 0 -104.5 2.5t-109.5 2.5q-34 0 -101.5 -2.5t-105.5 -2.5q-66 0 -66 55q0 16 7 30.5t13.5 22t20.5 20t16 14.5q58 61 58 159zM637 857q-81 0 -138.5 -86t-57.5 -248q0 -111 14.5 -187t41.5 -114t57.5 -53t71.5 -15q87 0 146 87.5
t59 266.5t-53 264t-141 85z" />
    <glyph glyph-name="ydieresis" unicode="&#xff;" horiz-adv-x="1116" 
d="M409 1485q62 0 101.5 -38t39.5 -99q0 -71 -50.5 -118.5t-122.5 -47.5q-58 0 -96 36.5t-38 94.5q0 67 48 119.5t118 52.5zM795 1485q61 0 100.5 -38.5t39.5 -98.5q0 -71 -50.5 -118.5t-122.5 -47.5q-57 0 -95 36.5t-38 94.5q0 67 48 119.5t118 52.5zM981 764
q-19 -48 -61 -160.5t-78 -205t-64 -157.5q-122 -287 -164 -372q-107 -210 -216 -276q-63 -38 -137 -38q-85 0 -141.5 51t-56.5 134q0 73 42.5 123t100.5 50q47 0 80 -44q4 -5 15 -20.5t16 -21.5t14 -15t18 -12.5t19 -3.5q29 0 65.5 49t36.5 92q0 31 -36 125t-100 240
t-73 169q-1 3 -16.5 39.5t-21.5 50.5l-22.5 52.5t-26.5 58.5t-25.5 54t-27 55t-24.5 44.5t-24.5 38.5t-20.5 24q-21 21 -29 30t-17.5 27.5t-9.5 37.5q0 28 17 44t50 16q29 0 82 -2.5t84 -2.5q27 0 92.5 2.5t96.5 2.5q37 0 54.5 -14t17.5 -53q0 -17 -28 -54t-28 -70
q0 -48 86 -261q88 -216 105 -239q5 -6 8 -6q15 0 42.5 73t74.5 221q46 133 46 182q0 38 -20 67t-39.5 51.5t-19.5 44.5q0 27 16.5 42.5t42.5 15.5q23 0 78.5 -2.5t75.5 -2.5q25 0 66.5 2.5t56.5 2.5q59 0 59 -53q0 -25 -12 -43.5t-29.5 -33.5t-43 -54t-46.5 -95z" />
    <glyph glyph-name="Amacron" unicode="&#x100;" horiz-adv-x="1383" 
d="M916 1526h-537q-54 0 -54 48q0 62 21 112q11 29 32.5 39.5t63.5 10.5h544q52 0 52 -48q0 -60 -23 -111q-12 -29 -34 -40t-65 -11zM135 273l311 811q38 102 54 200q10 49 95 94.5t142 45.5q37 0 56 -22t36 -68l413 -1063q29 -78 90 -131q1 -1 8 -7t9 -8l8.5 -8.5t9 -9.5
t7 -9.5t6.5 -11.5t3.5 -11t1.5 -12q0 -40 -28 -54t-92 -14q-22 0 -85.5 2.5t-116.5 2.5q-52 0 -118 -2.5t-92 -2.5q-89 0 -89 63q0 19 19 38.5t41.5 34.5t41.5 42t19 58q0 13 -16 58t-30 72q-13 24 -44 24h-356q-36 0 -58 -24q-17 -26 -35.5 -74t-18.5 -72q0 -25 11 -45.5
t26.5 -34t31 -26t26.5 -26.5t11 -30q0 -58 -86 -58q-22 0 -82 2.5t-84 2.5t-63 -2.5t-61 -2.5q-67 0 -67 57q0 21 14.5 39.5t34.5 34t47.5 54.5t48.5 93zM470 567h270q25 0 25 19q0 25 -50.5 169t-85.5 212q-10 23 -21 23q-7 0 -20 -23q-33 -65 -87.5 -213t-54.5 -168
q0 -19 24 -19z" />
    <glyph glyph-name="amacron" unicode="&#x101;" 
d="M809 1214h-465q-53 0 -53 48q0 56 21 106q12 26 33 36.5t62 10.5h471q29 0 39.5 -12.5t10.5 -34.5q0 -56 -22 -105q-12 -26 -34 -37.5t-63 -11.5zM406 556q53 17 123 30.5t115.5 22.5t57.5 18q25 19 25 98q0 89 -39.5 144.5t-117.5 55.5q-117 0 -164 -171
q-13 -47 -36.5 -71.5t-70.5 -24.5q-56 0 -96.5 39.5t-40.5 109.5q0 99 112 176.5t298 77.5q132 0 232 -42t161.5 -136t61.5 -232q0 -69 -5.5 -191t-5.5 -171q0 -35 13.5 -60t45.5 -25q12 0 26 3.5t21 3.5q9 0 15 -11t6 -28q0 -80 -62 -134.5t-151 -54.5q-137 0 -187 101
q-8 18 -18 18q-6 0 -25 -19q-51 -47 -126 -77.5t-154 -30.5q-135 0 -221 67.5t-86 189.5q0 226 293 324zM729 392q0 82 -18 82q-90 0 -161 -25q-64 -23 -100 -66.5t-36 -95.5t34 -83.5t90 -31.5q88 0 139.5 61.5t51.5 158.5z" />
    <glyph glyph-name="Abreve" unicode="&#x102;" horiz-adv-x="1383" 
d="M660 1479q-78 0 -137 24t-92.5 64.5t-50 87.5t-16.5 98q0 75 37 75q5 0 10 -2t8 -4t7 -7t6 -8.5t6.5 -11.5t7.5 -12q79 -110 214 -110q137 0 212 110q24 45 48 45q36 0 36 -75q0 -51 -16.5 -98t-49.5 -87.5t-92.5 -64.5t-137.5 -24zM135 273l311 811q38 102 54 200
q10 49 95 94.5t142 45.5q37 0 56 -22t36 -68l413 -1063q29 -78 90 -131q1 -1 8 -7t9 -8l8.5 -8.5t9 -9.5t7 -9.5t6.5 -11.5t3.5 -11t1.5 -12q0 -40 -28 -54t-92 -14q-22 0 -85.5 2.5t-116.5 2.5q-52 0 -118 -2.5t-92 -2.5q-89 0 -89 63q0 19 19 38.5t41.5 34.5t41.5 42
t19 58q0 13 -16 58t-30 72q-13 24 -44 24h-356q-36 0 -58 -24q-17 -26 -35.5 -74t-18.5 -72q0 -25 11 -45.5t26.5 -34t31 -26t26.5 -26.5t11 -30q0 -58 -86 -58q-22 0 -82 2.5t-84 2.5t-63 -2.5t-61 -2.5q-67 0 -67 57q0 21 14.5 39.5t34.5 34t47.5 54.5t48.5 93zM470 567
h270q25 0 25 19q0 25 -50.5 169t-85.5 212q-10 23 -21 23q-7 0 -20 -23q-33 -65 -87.5 -213t-54.5 -168q0 -19 24 -19z" />
    <glyph glyph-name="abreve" unicode="&#x103;" 
d="M591 1158q-68 0 -121 25.5t-83.5 67.5t-45.5 89.5t-15 97.5q0 74 33 74q13 0 21.5 -11t20.5 -37q70 -112 190 -112q121 0 189 112q8 18 12.5 26t12.5 15t17 7q35 0 35 -74q0 -50 -15.5 -97.5t-46 -89.5t-83.5 -67.5t-121 -25.5zM406 556q53 17 123 30.5t115.5 22.5
t57.5 18q25 19 25 98q0 89 -39.5 144.5t-117.5 55.5q-117 0 -164 -171q-13 -47 -36.5 -71.5t-70.5 -24.5q-56 0 -96.5 39.5t-40.5 109.5q0 99 112 176.5t298 77.5q132 0 232 -42t161.5 -136t61.5 -232q0 -69 -5.5 -191t-5.5 -171q0 -35 13.5 -60t45.5 -25q12 0 26 3.5
t21 3.5q9 0 15 -11t6 -28q0 -80 -62 -134.5t-151 -54.5q-137 0 -187 101q-8 18 -18 18q-6 0 -25 -19q-51 -47 -126 -77.5t-154 -30.5q-135 0 -221 67.5t-86 189.5q0 226 293 324zM729 392q0 82 -18 82q-90 0 -161 -25q-64 -23 -100 -66.5t-36 -95.5t34 -83.5t90 -31.5
q88 0 139.5 61.5t51.5 158.5z" />
    <glyph glyph-name="Aogonek" unicode="&#x104;" horiz-adv-x="1383" 
d="M1181 -1q-77 0 -141.5 -61.5t-64.5 -145.5q0 -51 33 -83.5t81 -32.5q41 0 69 17q32 15 41 15q10 0 17.5 -9t7.5 -22q0 -39 -68 -85.5t-164 -46.5q-112 0 -180 60.5t-68 152.5q0 51 23.5 102t47 79t58.5 62q28 27 37.5 52t9.5 58q0 32 -26 115.5t-52 127.5q-19 31 -62 31
h-341q-36 0 -58 -24q-17 -26 -35.5 -74t-18.5 -72q0 -25 11 -45.5t26.5 -34t31 -26t26.5 -26.5t11 -30q0 -58 -86 -58q-22 0 -82 2.5t-84 2.5t-63 -2.5t-61 -2.5q-67 0 -67 57q0 21 14.5 39.5t34.5 34t47.5 54.5t48.5 93l311 811q38 102 54 200q10 49 95 94.5t142 45.5
q37 0 56 -22t36 -68l413 -1063q29 -78 90 -131q1 -1 8 -7t9 -8l8.5 -8.5t9 -9.5t7 -9.5t6.5 -11.5t3.5 -11t1.5 -12q0 -68 -87 -68q-25 0 -62 2t-55 2zM470 567h270q25 0 25 19q0 25 -50.5 169t-85.5 212q-10 23 -21 23q-7 0 -20 -23q-33 -65 -87.5 -213t-54.5 -168
q0 -19 24 -19z" />
    <glyph glyph-name="aogonek" unicode="&#x105;" 
d="M826 1q-53 23 -83 83q-8 18 -18 18q-6 0 -25 -19q-51 -47 -126 -77.5t-154 -30.5q-135 0 -221 67.5t-86 189.5q0 226 293 324q53 17 123 30.5t115.5 22.5t57.5 18q25 19 25 98q0 89 -39.5 144.5t-117.5 55.5q-117 0 -164 -171q-13 -47 -36.5 -71.5t-70.5 -24.5
q-56 0 -96.5 39.5t-40.5 109.5q0 99 112 176.5t298 77.5q132 0 232 -42t161.5 -136t61.5 -232q0 -69 -5.5 -191t-5.5 -171q0 -35 13.5 -60t45.5 -25q12 0 26 3.5t21 3.5q9 0 15 -11t6 -28q0 -49 -21.5 -82t-69.5 -73q-95 -75 -125 -108q-65 -70 -65 -140q0 -48 26 -76
t68 -28q38 0 70 18q31 18 39 18q11 0 18 -9t7 -23q0 -39 -60 -81.5t-147 -42.5q-103 0 -165.5 51.5t-62.5 141.5q0 117 157 227q25 17 25 25q0 7 -11 11zM729 392q0 82 -18 82q-90 0 -161 -25q-64 -23 -100 -66.5t-36 -95.5t34 -83.5t90 -31.5q88 0 139.5 61.5t51.5 158.5z
" />
    <glyph glyph-name="Cacute" unicode="&#x106;" horiz-adv-x="1372" 
d="M655 1584q73 63 140 148q41 52 79.5 81t88.5 29q54 0 86 -31t32 -76q0 -89 -124 -163q-69 -40 -151.5 -68t-134.5 -28q-61 0 -61 38q0 17 8.5 30.5t36.5 39.5zM109 691q0 143 42.5 273.5t123.5 234.5t211 166t292 62q91 0 183 -24.5t113 -24.5q24 0 60.5 11t56.5 11
q17 0 29.5 -4t21.5 -15t15 -21t12 -31.5t9 -35.5t8.5 -45t9.5 -49q11 -56 22 -104t15 -66t4 -31q0 -31 -15.5 -47.5t-39.5 -16.5q-16 0 -29 6t-26.5 21t-22 26t-25 36.5t-24.5 37.5q-71 99 -160 153.5t-181 54.5q-109 0 -188.5 -64t-117 -165.5t-37.5 -226.5
q0 -158 53.5 -287t157 -206t239.5 -77q69 0 128.5 20t102.5 54.5t73 70.5t52 78q11 19 17.5 28.5t17 17.5t20.5 8q21 0 31 -22.5t10 -52.5q0 -109 -63 -212q-72 -116 -209.5 -192t-320.5 -76q-157 0 -286 59t-212 160t-128 231.5t-45 275.5z" />
    <glyph glyph-name="cacute" unicode="&#x107;" horiz-adv-x="1030" 
d="M483 1243q47 92 75 171q12 31 20.5 49.5t25 43.5t40 37t53.5 12q48 0 74 -30t26 -74q0 -63 -62 -139q-49 -60 -119.5 -111t-112.5 -51q-43 0 -43 37q0 7 23 55zM92 497q0 113 37 214.5t104 179.5t168.5 123.5t223.5 45.5q155 0 258.5 -73.5t103.5 -188.5
q0 -78 -50.5 -126.5t-133.5 -48.5q-35 0 -51 18.5t-26 64.5q-10 41 -21 71.5t-29 62.5t-45.5 49.5t-63.5 17.5q-82 0 -133 -78t-51 -200q0 -165 86.5 -273t236.5 -108q45 0 85.5 11.5t65 24t53 38t36.5 35.5t29 35q24 24 36 24q33 0 33 -67q0 -50 -19 -102t-57.5 -100.5
t-90.5 -86t-124.5 -60.5t-154.5 -23q-150 0 -266 68t-178 186t-62 266z" />
    <glyph glyph-name="Ccircumflex" unicode="&#x108;" horiz-adv-x="1372" 
d="M1035 1476q-71 0 -199 77q-53 31 -64 31q-5 0 -9.5 -1.5t-10.5 -4.5t-11 -6t-14 -8.5t-15 -9.5q-48 -31 -103 -54.5t-91 -23.5q-45 0 -45 37q0 18 33 56q46 52 145 183q36 48 61.5 69t64.5 21q36 0 61.5 -21.5t60.5 -68.5q63 -86 150 -181q31 -32 31 -58q0 -18 -13 -27.5
t-32 -9.5zM109 691q0 143 42.5 273.5t123.5 234.5t211 166t292 62q91 0 183 -24.5t113 -24.5q24 0 60.5 11t56.5 11q17 0 29.5 -4t21.5 -15t15 -21t12 -31.5t9 -35.5t8.5 -45t9.5 -49q11 -56 22 -104t15 -66t4 -31q0 -31 -15.5 -47.5t-39.5 -16.5q-16 0 -29 6t-26.5 21
t-22 26t-25 36.5t-24.5 37.5q-71 99 -160 153.5t-181 54.5q-109 0 -188.5 -64t-117 -165.5t-37.5 -226.5q0 -158 53.5 -287t157 -206t239.5 -77q69 0 128.5 20t102.5 54.5t73 70.5t52 78q11 19 17.5 28.5t17 17.5t20.5 8q21 0 31 -22.5t10 -52.5q0 -109 -63 -212
q-72 -116 -209.5 -192t-320.5 -76q-157 0 -286 59t-212 160t-128 231.5t-45 275.5z" />
    <glyph glyph-name="ccircumflex" unicode="&#x109;" horiz-adv-x="1030" 
d="M804 1150q-60 0 -168 101q-8 7 -17.5 17.5t-15 16t-11 10t-9.5 4.5q-3 0 -7 -2.5t-9.5 -7t-10 -9.5t-12.5 -13l-14 -14q-103 -103 -161 -103q-36 0 -36 33q0 19 26 52q53 71 124 211q1 2 8 14.5t8.5 14.5t7.5 13t8.5 13t9 10t10 10.5l10.5 7.5t12.5 6.5t13.5 3t16 1.5
q19 0 34 -6.5t28 -23t20 -28t20 -36.5q47 -101 125 -211q27 -37 27 -52q0 -16 -10.5 -24.5t-26.5 -8.5zM92 497q0 113 37 214.5t104 179.5t168.5 123.5t223.5 45.5q155 0 258.5 -73.5t103.5 -188.5q0 -78 -50.5 -126.5t-133.5 -48.5q-35 0 -51 18.5t-26 64.5
q-10 41 -21 71.5t-29 62.5t-45.5 49.5t-63.5 17.5q-82 0 -133 -78t-51 -200q0 -165 86.5 -273t236.5 -108q45 0 85.5 11.5t65 24t53 38t36.5 35.5t29 35q24 24 36 24q33 0 33 -67q0 -50 -19 -102t-57.5 -100.5t-90.5 -86t-124.5 -60.5t-154.5 -23q-150 0 -266 68t-178 186
t-62 266z" />
    <glyph glyph-name="Cdotaccent" unicode="&#x10a;" horiz-adv-x="1372" 
d="M819 1829q75 0 123.5 -42.5t48.5 -108.5q0 -78 -62 -131t-148 -53q-71 0 -118 40.5t-47 104.5q0 75 58.5 132.5t144.5 57.5zM109 691q0 143 42.5 273.5t123.5 234.5t211 166t292 62q91 0 183 -24.5t113 -24.5q24 0 60.5 11t56.5 11q17 0 29.5 -4t21.5 -15t15 -21
t12 -31.5t9 -35.5t8.5 -45t9.5 -49q11 -56 22 -104t15 -66t4 -31q0 -31 -15.5 -47.5t-39.5 -16.5q-16 0 -29 6t-26.5 21t-22 26t-25 36.5t-24.5 37.5q-71 99 -160 153.5t-181 54.5q-109 0 -188.5 -64t-117 -165.5t-37.5 -226.5q0 -158 53.5 -287t157 -206t239.5 -77
q69 0 128.5 20t102.5 54.5t73 70.5t52 78q11 19 17.5 28.5t17 17.5t20.5 8q21 0 31 -22.5t10 -52.5q0 -109 -63 -212q-72 -116 -209.5 -192t-320.5 -76q-157 0 -286 59t-212 160t-128 231.5t-45 275.5z" />
    <glyph glyph-name="cdotaccent" unicode="&#x10b;" horiz-adv-x="1030" 
d="M614 1496q67 0 110 -40.5t43 -105.5q0 -75 -55 -126.5t-132 -51.5q-64 0 -105.5 39.5t-41.5 101.5q0 72 52 127.5t129 55.5zM92 497q0 113 37 214.5t104 179.5t168.5 123.5t223.5 45.5q155 0 258.5 -73.5t103.5 -188.5q0 -78 -50.5 -126.5t-133.5 -48.5q-35 0 -51 18.5
t-26 64.5q-10 41 -21 71.5t-29 62.5t-45.5 49.5t-63.5 17.5q-82 0 -133 -78t-51 -200q0 -165 86.5 -273t236.5 -108q45 0 85.5 11.5t65 24t53 38t36.5 35.5t29 35q24 24 36 24q33 0 33 -67q0 -50 -19 -102t-57.5 -100.5t-90.5 -86t-124.5 -60.5t-154.5 -23q-150 0 -266 68
t-178 186t-62 266z" />
    <glyph glyph-name="Ccaron" unicode="&#x10c;" horiz-adv-x="1372" 
d="M511 1842q71 0 199 -78q51 -30 64 -30q12 0 60 29q122 79 193 79q20 0 32.5 -10t12.5 -28q0 -8 -5 -18.5t-9 -15t-18 -21.5q-57 -62 -146 -183q-25 -33 -39 -48.5t-37 -28.5t-50 -13q-36 0 -61.5 21.5t-60.5 68.5q-67 91 -149 181q-32 33 -32 57q0 18 13 28t33 10z
M109 691q0 143 42.5 273.5t123.5 234.5t211 166t292 62q91 0 183 -24.5t113 -24.5q24 0 60.5 11t56.5 11q17 0 29.5 -4t21.5 -15t15 -21t12 -31.5t9 -35.5t8.5 -45t9.5 -49q11 -56 22 -104t15 -66t4 -31q0 -31 -15.5 -47.5t-39.5 -16.5q-16 0 -29 6t-26.5 21t-22 26
t-25 36.5t-24.5 37.5q-71 99 -160 153.5t-181 54.5q-109 0 -188.5 -64t-117 -165.5t-37.5 -226.5q0 -158 53.5 -287t157 -206t239.5 -77q69 0 128.5 20t102.5 54.5t73 70.5t52 78q11 19 17.5 28.5t17 17.5t20.5 8q21 0 31 -22.5t10 -52.5q0 -109 -63 -212
q-72 -116 -209.5 -192t-320.5 -76q-157 0 -286 59t-212 160t-128 231.5t-45 275.5z" />
    <glyph glyph-name="ccaron" unicode="&#x10d;" horiz-adv-x="1030" 
d="M358 1540q59 0 168 -102q9 -8 22 -22t20 -20t12 -6t11.5 5.5t19.5 19.5t21 22q105 103 162 103q15 0 25 -8.5t10 -24.5q0 -17 -26 -53q-52 -69 -124 -210q-1 -2 -8 -14.5t-8.5 -14.5t-7.5 -13t-8.5 -13t-9 -10t-10 -10.5l-10.5 -7.5t-12.5 -6.5t-13.5 -3t-16 -1.5
q-19 0 -34 6.5t-28 22.5t-20 28t-20 37q-48 103 -125 210q-26 37 -26 53t10 24.5t26 8.5zM92 497q0 113 37 214.5t104 179.5t168.5 123.5t223.5 45.5q155 0 258.5 -73.5t103.5 -188.5q0 -78 -50.5 -126.5t-133.5 -48.5q-35 0 -51 18.5t-26 64.5q-10 41 -21 71.5t-29 62.5
t-45.5 49.5t-63.5 17.5q-82 0 -133 -78t-51 -200q0 -165 86.5 -273t236.5 -108q45 0 85.5 11.5t65 24t53 38t36.5 35.5t29 35q24 24 36 24q33 0 33 -67q0 -50 -19 -102t-57.5 -100.5t-90.5 -86t-124.5 -60.5t-154.5 -23q-150 0 -266 68t-178 186t-62 266z" />
    <glyph glyph-name="Dcaron" unicode="&#x10e;" horiz-adv-x="1491" 
d="M509 1842q71 0 199 -78q51 -30 64 -30q11 0 59 29q48 31 103.5 55t90.5 24q20 0 32.5 -10t12.5 -28q0 -8 -5 -18.5t-9 -15t-18 -21.5q-57 -62 -146 -183q-25 -33 -39 -48.5t-37 -28.5t-50 -13q-36 0 -61.5 21.5t-60.5 68.5q-67 91 -149 181q-32 33 -32 57q0 18 13 28
t33 10zM451 1393q57 0 151 3t149 3q120 0 229.5 -24t209 -77.5t172 -132.5t115.5 -197t43 -263q0 -330 -178.5 -520.5t-489.5 -190.5q-59 0 -197 3.5t-204 3.5q-36 0 -107.5 -2.5t-100.5 -2.5q-40 0 -60.5 15t-20.5 40q0 23 15.5 42t35 32.5t39 42.5t24.5 68q12 84 12 492
q0 334 -3 380q-4 54 -23 92t-39.5 54t-36.5 37t-16 46q0 61 74 61q30 0 101.5 -2.5t105.5 -2.5zM609 1069v-712q0 -109 35.5 -145.5t145.5 -36.5q80 0 144 29t105 76.5t68 112t38.5 132.5t11.5 141q0 119 -26 218.5t-77 176.5t-134.5 120.5t-191.5 43.5q-74 0 -96.5 -34
t-22.5 -122z" />
    <glyph glyph-name="dcaron" unicode="&#x10f;" horiz-adv-x="1421" 
d="M1021 -17q-70 0 -114 24t-76 80q-3 4 -7.5 11t-7 11t-6.5 7t-8 3q-3 0 -6 -1.5t-7.5 -5.5t-8.5 -8l-11 -11t-13 -12q-108 -101 -259 -101q-79 0 -149 31.5t-125.5 92t-88 159.5t-32.5 224q0 269 122 421t306 152q62 0 114.5 -17.5t79 -38t45.5 -38t23 -17.5q16 0 16 83
v148q0 70 -68 101q-14 8 -22 13.5t-15 16t-7 23.5q0 14 6.5 24.5t22 19.5t29.5 14.5t41 15.5t45 17q34 14 83.5 37t76.5 33t47 10q65 0 65 -67q0 -35 -4.5 -135t-4.5 -253v-761q0 -34 15.5 -59.5t46.5 -25.5q12 0 26.5 3.5t20.5 3.5q9 0 15.5 -11t6.5 -28q0 -80 -62 -134.5
t-151 -54.5zM1237 1118q5 42 12 137.5t13 132.5q18 117 108 117q48 0 74 -34.5t26 -97.5q0 -77 -56 -202q-83 -194 -147 -194q-38 0 -38 47q0 14 8 94zM629 194q183 0 183 336q0 189 -56.5 275t-137.5 86q-88 0 -142.5 -84t-54.5 -258t55.5 -264.5t152.5 -90.5z" />
    <glyph glyph-name="Dcroat" unicode="&#x110;" horiz-adv-x="1491" 
d="M379 1393q57 0 151 3t149 3q120 0 229.5 -24t209 -77.5t172 -132.5t115.5 -197t43 -263q0 -330 -178.5 -520.5t-489.5 -190.5q-59 0 -197 3.5t-204 3.5q-36 0 -107.5 -2.5t-100.5 -2.5q-40 0 -60.5 15t-20.5 40q0 23 16 42t35.5 32.5t39 42.5t24.5 68q9 70 11 381h-148
q-50 0 -50 45q0 49 22 100q10 25 29.5 34.5t57.5 9.5h89q0 245 -3 302q-4 54 -23 92t-39.5 54t-36.5 37t-16 46q0 61 74 61q30 0 101.5 -2.5t105.5 -2.5zM538 1069v-263h227q46 0 46 -43q0 -58 -20 -100q-10 -25 -31.5 -35.5t-59.5 -10.5h-162v-260q0 -110 35 -146t145 -36
q80 0 144 29t105 76.5t68 112t38.5 132.5t11.5 141q0 119 -26 218.5t-77 176.5t-134.5 120.5t-191.5 43.5q-74 0 -96 -34t-22 -122z" />
    <glyph glyph-name="dcroat" unicode="&#x111;" horiz-adv-x="1213" 
d="M1185 1065h-82v-776q0 -34 15.5 -59.5t46.5 -25.5q12 0 26.5 3.5t20.5 3.5q9 0 15.5 -11t6.5 -28q0 -80 -62 -134.5t-151 -54.5q-75 0 -117.5 24.5t-74.5 79.5q-18 32 -27 32q-4 0 -9 -3.5t-17.5 -14.5t-19.5 -17q-109 -104 -259 -104q-79 0 -149 30.5t-125.5 88.5
t-88 151.5t-32.5 209.5q0 254 117 390.5t311 136.5q62 0 114.5 -14.5t79 -32t45.5 -32t23 -14.5q16 0 16 78v93h-225q-42 0 -42 37q0 39 17 65q23 32 75 32h175q0 73 -68 98q-44 18 -44 51q0 10 3.5 18t11.5 15t15.5 12t22.5 10.5t26 9t31 10.5t33 11q47 17 95.5 37t69.5 27
t43 7q65 0 65 -64q0 -42 -3.5 -108.5t-4.5 -133.5h134q23 0 33.5 -11.5t10.5 -25.5q0 -40 -19 -64q-22 -33 -78 -33zM629 194q84 0 133.5 71.5t49.5 232.5q0 87 -17.5 152.5t-46.5 102t-61.5 54t-66.5 17.5q-89 0 -144 -74t-55 -235q0 -153 56 -237t152 -84z" />
    <glyph glyph-name="Emacron" unicode="&#x112;" horiz-adv-x="1274" 
d="M957 1526h-537q-54 0 -54 48q0 62 21 112q11 29 32.5 39.5t63.5 10.5h544q52 0 52 -48q0 -60 -23 -111q-12 -29 -34 -40t-65 -11zM981 858v-296q0 -43 -11 -63.5t-38 -20.5q-19 0 -34 11.5t-21.5 23t-15.5 31.5q-16 34 -26 49.5t-30.5 32t-53 22t-84.5 5.5
q-33 0 -46.5 -21.5t-13.5 -77.5v-217q0 -54 8.5 -85t33 -47.5t56 -21t89.5 -4.5q112 0 179.5 23.5t107 68.5t79.5 132q33 72 73 72q50 0 50 -86q0 -26 -17 -147t-21 -170q-3 -46 -23 -61.5t-75 -15.5q-25 0 -166.5 2.5t-236.5 2.5q-98 0 -267.5 -2.5t-233.5 -2.5
q-81 0 -81 56q0 19 10 34t25 27t31 25.5t29.5 38t17.5 56.5q13 84 13 496q0 319 -4 378q-4 55 -23 93t-39 54t-36 37t-16 47q0 61 74 61q35 0 179 -2.5t279 -2.5q118 0 243 2.5t146 2.5q57 0 79 -19.5t32 -87.5q2 -10 14.5 -84t21.5 -120q12 -60 12 -88q0 -30 -15.5 -45
t-39.5 -15q-7 0 -13 1.5t-12 5t-10.5 6.5t-10 9.5t-8.5 10.5t-8 13t-7.5 13t-8 14.5t-7.5 13.5q-26 53 -45 82.5t-44 55.5t-58 37t-77.5 17t-112.5 6q-105 0 -135.5 -24t-30.5 -108v-159q0 -61 11 -80.5t42 -19.5t56.5 3t43 6.5t33.5 12.5t25 14t20 19t15 19.5t14 23
t13 22.5q21 30 46 30q30 0 42.5 -28.5t12.5 -96.5z" />
    <glyph glyph-name="emacron" unicode="&#x113;" horiz-adv-x="1047" 
d="M778 1214h-465q-53 0 -53 48q0 54 22 106q12 26 33 36.5t61 10.5h471q29 0 39.5 -12.5t10.5 -34.5q0 -58 -21 -105q-22 -49 -98 -49zM947 552q-78 -44 -217.5 -68t-269.5 -31q-27 -1 -27 -20q0 -24 9 -51.5t29.5 -57t50 -53.5t74.5 -39t99 -15q179 0 285 138q23 23 41 23
q31 0 31 -59q0 -52 -30 -110t-84.5 -110.5t-142.5 -87t-192 -34.5q-233 0 -371 144t-138 374q0 152 66 280.5t190 206.5t281 78q101 0 181 -34.5t126.5 -90t71 -119t24.5 -127.5q0 -90 -87 -137zM756 736q0 71 -44 119t-111 48q-89 0 -147.5 -76t-58.5 -175q0 -60 40 -60
q61 0 156.5 23t137.5 61q27 25 27 60z" />
    <glyph glyph-name="Ebreve" unicode="&#x114;" horiz-adv-x="1274" 
d="M723 1479q-78 0 -137 24t-93 64.5t-50.5 87.5t-16.5 98q0 75 38 75q5 0 10 -2t8 -4t7 -7t6 -8.5t6.5 -11.5t7.5 -12q79 -110 214 -110q137 0 212 110q9 16 14 24t14 14.5t19 6.5q37 0 37 -75q0 -51 -16.5 -98t-49.5 -87.5t-92.5 -64.5t-137.5 -24zM981 858v-296
q0 -43 -11 -63.5t-38 -20.5q-19 0 -34 11.5t-21.5 23t-15.5 31.5q-16 34 -26 49.5t-30.5 32t-53 22t-84.5 5.5q-33 0 -46.5 -21.5t-13.5 -77.5v-217q0 -54 8.5 -85t33 -47.5t56 -21t89.5 -4.5q112 0 179.5 23.5t107 68.5t79.5 132q33 72 73 72q50 0 50 -86q0 -26 -17 -147
t-21 -170q-3 -46 -23 -61.5t-75 -15.5q-25 0 -166.5 2.5t-236.5 2.5q-98 0 -267.5 -2.5t-233.5 -2.5q-81 0 -81 56q0 19 10 34t25 27t31 25.5t29.5 38t17.5 56.5q13 84 13 496q0 319 -4 378q-4 55 -23 93t-39 54t-36 37t-16 47q0 61 74 61q35 0 179 -2.5t279 -2.5
q118 0 243 2.5t146 2.5q57 0 79 -19.5t32 -87.5q2 -10 14.5 -84t21.5 -120q12 -60 12 -88q0 -30 -15.5 -45t-39.5 -15q-7 0 -13 1.5t-12 5t-10.5 6.5t-10 9.5t-8.5 10.5t-8 13t-7.5 13t-8 14.5t-7.5 13.5q-26 53 -45 82.5t-44 55.5t-58 37t-77.5 17t-112.5 6
q-105 0 -135.5 -24t-30.5 -108v-159q0 -61 11 -80.5t42 -19.5t56.5 3t43 6.5t33.5 12.5t25 14t20 19t15 19.5t14 23t13 22.5q21 30 46 30q30 0 42.5 -28.5t12.5 -96.5z" />
    <glyph glyph-name="ebreve" unicode="&#x115;" horiz-adv-x="1047" 
d="M588 1158q-68 0 -121 25.5t-83.5 67.5t-45.5 89.5t-15 97.5q0 74 33 74q14 0 22 -11t20 -37q70 -112 190 -112q121 0 189 112q8 18 12.5 26t12.5 15t17 7q35 0 35 -74q0 -50 -15.5 -97.5t-46 -89.5t-83.5 -67.5t-121 -25.5zM947 552q-78 -44 -217.5 -68t-269.5 -31
q-27 -1 -27 -20q0 -24 9 -51.5t29.5 -57t50 -53.5t74.5 -39t99 -15q179 0 285 138q23 23 41 23q31 0 31 -59q0 -52 -30 -110t-84.5 -110.5t-142.5 -87t-192 -34.5q-233 0 -371 144t-138 374q0 152 66 280.5t190 206.5t281 78q101 0 181 -34.5t126.5 -90t71 -119t24.5 -127.5
q0 -90 -87 -137zM756 736q0 71 -44 119t-111 48q-89 0 -147.5 -76t-58.5 -175q0 -60 40 -60q61 0 156.5 23t137.5 61q27 25 27 60z" />
    <glyph glyph-name="Edotaccent" unicode="&#x116;" horiz-adv-x="1274" 
d="M737 1829q75 0 123.5 -42.5t48.5 -108.5q0 -78 -62 -131t-148 -53q-71 0 -117.5 40.5t-46.5 104.5q0 75 58 132.5t144 57.5zM981 858v-296q0 -43 -11 -63.5t-38 -20.5q-19 0 -34 11.5t-21.5 23t-15.5 31.5q-16 34 -26 49.5t-30.5 32t-53 22t-84.5 5.5q-33 0 -46.5 -21.5
t-13.5 -77.5v-217q0 -54 8.5 -85t33 -47.5t56 -21t89.5 -4.5q112 0 179.5 23.5t107 68.5t79.5 132q33 72 73 72q50 0 50 -86q0 -26 -17 -147t-21 -170q-3 -46 -23 -61.5t-75 -15.5q-25 0 -166.5 2.5t-236.5 2.5q-98 0 -267.5 -2.5t-233.5 -2.5q-81 0 -81 56q0 19 10 34
t25 27t31 25.5t29.5 38t17.5 56.5q13 84 13 496q0 319 -4 378q-4 55 -23 93t-39 54t-36 37t-16 47q0 61 74 61q35 0 179 -2.5t279 -2.5q118 0 243 2.5t146 2.5q57 0 79 -19.5t32 -87.5q2 -10 14.5 -84t21.5 -120q12 -60 12 -88q0 -30 -15.5 -45t-39.5 -15q-7 0 -13 1.5
t-12 5t-10.5 6.5t-10 9.5t-8.5 10.5t-8 13t-7.5 13t-8 14.5t-7.5 13.5q-26 53 -45 82.5t-44 55.5t-58 37t-77.5 17t-112.5 6q-105 0 -135.5 -24t-30.5 -108v-159q0 -61 11 -80.5t42 -19.5t56.5 3t43 6.5t33.5 12.5t25 14t20 19t15 19.5t14 23t13 22.5q21 30 46 30
q30 0 42.5 -28.5t12.5 -96.5z" />
    <glyph glyph-name="edotaccent" unicode="&#x117;" horiz-adv-x="1047" 
d="M609 1496q67 0 110 -40.5t43 -105.5q0 -75 -55.5 -126.5t-132.5 -51.5q-64 0 -105 39.5t-41 101.5q0 72 52 127.5t129 55.5zM947 552q-78 -44 -217.5 -68t-269.5 -31q-27 -1 -27 -20q0 -24 9 -51.5t29.5 -57t50 -53.5t74.5 -39t99 -15q179 0 285 138q23 23 41 23
q31 0 31 -59q0 -52 -30 -110t-84.5 -110.5t-142.5 -87t-192 -34.5q-233 0 -371 144t-138 374q0 152 66 280.5t190 206.5t281 78q101 0 181 -34.5t126.5 -90t71 -119t24.5 -127.5q0 -90 -87 -137zM756 736q0 71 -44 119t-111 48q-89 0 -147.5 -76t-58.5 -175q0 -60 40 -60
q61 0 156.5 23t137.5 61q27 25 27 60z" />
    <glyph glyph-name="Eogonek" unicode="&#x118;" horiz-adv-x="1274" 
d="M921 -27q13 7 13 15q0 4 -4.5 6t-23.5 3.5t-57 2t-105 0.5q-98 0 -267.5 -2.5t-233.5 -2.5q-81 0 -81 56q0 19 10 34t25 27t31 25.5t29.5 38t17.5 56.5q13 84 13 496q0 319 -4 378q-4 55 -23 93t-39 54t-36 37t-16 47q0 61 74 61q35 0 179 -2.5t279 -2.5q118 0 243 2.5
t146 2.5q57 0 79 -19.5t32 -87.5q2 -10 14.5 -84t21.5 -120q12 -60 12 -88q0 -30 -15.5 -45t-39.5 -15q-7 0 -13 1.5t-12 5t-10.5 6.5t-10 9.5t-8.5 10.5t-8 13t-7.5 13t-8 14.5t-7.5 13.5q-26 53 -45 82.5t-44 55.5t-58 37t-77.5 17t-112.5 6q-105 0 -135.5 -24t-30.5 -108
v-159q0 -61 11 -80.5t42 -19.5t56.5 3t43 6.5t33.5 12.5t25 14t20 19t15 19.5t14 23t13 22.5q21 30 46 30q30 0 42.5 -28.5t12.5 -96.5v-296q0 -43 -11 -63.5t-38 -20.5q-19 0 -34 11.5t-21.5 23t-15.5 31.5q-16 34 -26 49.5t-30.5 32t-53 22t-84.5 5.5q-33 0 -46.5 -21.5
t-13.5 -77.5v-217q0 -54 8.5 -85t33 -47.5t56 -21t89.5 -4.5q112 0 179.5 23.5t107 68.5t79.5 132q33 72 73 72q50 0 50 -86q0 -25 -16.5 -142.5t-21.5 -174.5q-2 -20 -5 -32.5t-13 -22t-15 -13t-25 -12t-29 -12.5q-175 -82 -175 -202q0 -50 28.5 -77t72.5 -27t72 18
q34 15 41 15q11 0 18 -8.5t7 -21.5q0 -40 -65.5 -86t-158.5 -46q-112 0 -179 53t-67 147q0 69 48 127.5t121 100.5z" />
    <glyph glyph-name="eogonek" unicode="&#x119;" horiz-adv-x="1047" 
d="M596 -67q5 5 14.5 13.5t14.5 13.5t5 8q0 6 -39 9q-227 4 -362 146.5t-135 371.5q0 152 66 280.5t190 206.5t281 78q101 0 181 -34.5t126.5 -90t71 -119t24.5 -127.5q0 -90 -87 -137q-78 -44 -217.5 -68t-269.5 -31q-27 -1 -27 -20q0 -24 9 -51.5t29.5 -57t50 -53.5
t74.5 -39t99 -15q179 0 285 138q23 23 41 23q31 0 31 -59q0 -25 -8 -52.5t-19 -50t-31 -49t-34.5 -43.5t-39 -40.5t-35.5 -33.5t-33.5 -29.5t-24.5 -20.5q-66 -62 -101 -122.5t-35 -108.5t26 -76t68 -28q38 0 70 18q31 18 38 18q11 0 18.5 -9t7.5 -23q0 -39 -60 -81.5
t-147 -42.5q-103 0 -165.5 51.5t-62.5 141.5q0 107 112 195zM756 736q0 71 -44 119t-111 48q-89 0 -147.5 -76t-58.5 -175q0 -60 40 -60q61 0 156.5 23t137.5 61q27 25 27 60z" />
    <glyph glyph-name="Ecaron" unicode="&#x11a;" horiz-adv-x="1274" 
d="M467 1842q71 0 199 -78q51 -30 64 -30q12 0 60 29q122 79 193 79q20 0 32.5 -10t12.5 -28q0 -8 -5 -18.5t-9 -15t-18 -21.5q-57 -62 -146 -183q-25 -33 -39 -48.5t-37 -28.5t-50 -13q-36 0 -61.5 21.5t-60.5 68.5q-67 91 -149 181q-32 33 -32 57q0 18 13 28t33 10z
M981 858v-296q0 -43 -11 -63.5t-38 -20.5q-19 0 -34 11.5t-21.5 23t-15.5 31.5q-16 34 -26 49.5t-30.5 32t-53 22t-84.5 5.5q-33 0 -46.5 -21.5t-13.5 -77.5v-217q0 -54 8.5 -85t33 -47.5t56 -21t89.5 -4.5q112 0 179.5 23.5t107 68.5t79.5 132q33 72 73 72q50 0 50 -86
q0 -26 -17 -147t-21 -170q-3 -46 -23 -61.5t-75 -15.5q-25 0 -166.5 2.5t-236.5 2.5q-98 0 -267.5 -2.5t-233.5 -2.5q-81 0 -81 56q0 19 10 34t25 27t31 25.5t29.5 38t17.5 56.5q13 84 13 496q0 319 -4 378q-4 55 -23 93t-39 54t-36 37t-16 47q0 61 74 61q35 0 179 -2.5
t279 -2.5q118 0 243 2.5t146 2.5q57 0 79 -19.5t32 -87.5q2 -10 14.5 -84t21.5 -120q12 -60 12 -88q0 -30 -15.5 -45t-39.5 -15q-7 0 -13 1.5t-12 5t-10.5 6.5t-10 9.5t-8.5 10.5t-8 13t-7.5 13t-8 14.5t-7.5 13.5q-26 53 -45 82.5t-44 55.5t-58 37t-77.5 17t-112.5 6
q-105 0 -135.5 -24t-30.5 -108v-159q0 -61 11 -80.5t42 -19.5t56.5 3t43 6.5t33.5 12.5t25 14t20 19t15 19.5t14 23t13 22.5q21 30 46 30q30 0 42.5 -28.5t12.5 -96.5z" />
    <glyph glyph-name="ecaron" unicode="&#x11b;" horiz-adv-x="1047" 
d="M364 1540q58 0 167 -102q9 -8 22 -22t20 -20t12 -6t11.5 5.5t19.5 19.5t21 22q105 103 162 103q15 0 25.5 -8.5t10.5 -24.5t-27 -53q-52 -69 -124 -210q-2 -3 -9 -16t-9 -16.5t-8.5 -14t-9.5 -13.5t-10 -11t-12 -10.5t-12.5 -6.5t-15.5 -5t-17 -1q-19 0 -34.5 6.5t-28 22
t-20.5 28.5t-20 37q-48 103 -125 210q-26 37 -26 53t10.5 24.5t26.5 8.5zM947 552q-78 -44 -217.5 -68t-269.5 -31q-27 -1 -27 -20q0 -24 9 -51.5t29.5 -57t50 -53.5t74.5 -39t99 -15q179 0 285 138q23 23 41 23q31 0 31 -59q0 -52 -30 -110t-84.5 -110.5t-142.5 -87
t-192 -34.5q-233 0 -371 144t-138 374q0 152 66 280.5t190 206.5t281 78q101 0 181 -34.5t126.5 -90t71 -119t24.5 -127.5q0 -90 -87 -137zM756 736q0 71 -44 119t-111 48q-89 0 -147.5 -76t-58.5 -175q0 -60 40 -60q61 0 156.5 23t137.5 61q27 25 27 60z" />
    <glyph glyph-name="Gcircumflex" unicode="&#x11c;" horiz-adv-x="1468" 
d="M1047 1476q-72 0 -200 77q-53 31 -64 31q-5 0 -9.5 -1.5t-10.5 -4.5t-11 -6t-14 -8.5t-15 -9.5q-48 -31 -103 -54.5t-91 -23.5q-45 0 -45 37q0 18 33 56q53 58 146 183q25 33 38.5 48.5t36.5 28.5t50 13q36 0 61.5 -21.5t60.5 -68.5q63 -86 150 -181q32 -33 32 -58
q0 -18 -13 -27.5t-32 -9.5zM767 -35q-146 0 -271 59.5t-209 159.5t-131 231.5t-47 275.5q0 143 42.5 273.5t123.5 234.5t211 166t292 62q91 0 183 -24.5t113 -24.5q24 0 60.5 11t56.5 11q17 0 29.5 -4t21.5 -15t15 -21t12 -31.5t9 -35.5t8.5 -45t9.5 -49q11 -56 22 -104
t15 -66t4 -31q0 -31 -15.5 -47.5t-39.5 -16.5q-16 0 -29 6t-26.5 21t-22 26t-25 36.5t-24.5 37.5q-71 99 -160 153.5t-181 54.5q-109 0 -191.5 -68.5t-123.5 -177t-41 -236.5t35 -239.5t93 -186.5t131 -117.5t150 -42.5q57 0 105.5 23t69.5 56q16 26 21.5 58t5.5 91
q0 25 -1.5 46.5t-2.5 38t-5.5 31t-6.5 24t-9 19.5t-9.5 15t-11.5 12.5t-11.5 9.5t-13 9.5t-13.5 9.5q-11 8 -38.5 21t-39.5 26.5t-12 36.5q0 66 90 66q30 0 94.5 -3.5t89.5 -3.5q35 0 104 3.5t109 3.5q33 0 49.5 -17t16.5 -45q0 -25 -10 -48t-21.5 -42t-21.5 -68.5
t-10 -121.5q0 -64 5.5 -204.5t5.5 -169.5q0 -84 -66 -84q-37 0 -75 43q-2 2 -12 11t-14 12t-11.5 8t-13 7t-11.5 2q-9 0 -18.5 -2t-23.5 -7t-21.5 -8.5t-27.5 -12.5t-28 -12q-167 -70 -307 -70z" />
    <glyph glyph-name="gcircumflex" unicode="&#x11d;" horiz-adv-x="1142" 
d="M800 1150q-60 0 -168 101q-8 7 -17.5 17.5t-15 16t-11 10t-9.5 4.5q-3 0 -7 -2.5t-9.5 -7t-10 -9.5t-12.5 -13l-14 -14q-103 -103 -161 -103q-36 0 -36 33q0 19 26 52q53 71 124 211q1 2 8 14.5t8.5 14.5t7.5 13t8.5 13t9 10t10 10.5l10.5 7.5t12.5 6.5t13.5 3t16 1.5
q19 0 34 -6.5t28 -23t20 -28t20 -36.5q47 -101 125 -211q27 -37 27 -52q0 -16 -10.5 -24.5t-26.5 -8.5zM540 1059q78 0 198 -20.5t151 -20.5q52 0 92.5 6.5t59 14t36 14t31.5 6.5q37 0 37 -57q0 -54 -21 -106q-28 -68 -74 -68q-27 0 -64.5 8t-41.5 8q-10 0 -10 -10
q0 -4 11 -23t22 -50.5t11 -66.5q0 -165 -122 -261t-308 -96q-21 0 -60 3t-52 3q-42 0 -75.5 -23t-33.5 -61q0 -37 31.5 -58t87.5 -21q31 0 150.5 15.5t189.5 15.5q151 0 237 -65t86 -204q0 -123 -92 -218t-237 -142.5t-315 -47.5q-210 0 -315 65.5t-105 183.5
q0 67 39.5 116.5t96.5 75.5q16 10 16 18q0 7 -14 15q-34 19 -65 62.5t-31 106.5q0 64 43 119.5t117 88.5q14 7 14 16t-12 19q-58 45 -93.5 114.5t-35.5 157.5q0 173 120.5 270t299.5 97zM402 715q0 -103 45.5 -156t110.5 -53q67 0 109.5 44t42.5 129q0 35 -8.5 71.5
t-26.5 72.5t-51 59t-77 23q-65 0 -105 -52t-40 -138zM756 -158q0 51 -40.5 78.5t-115.5 27.5q-133 0 -210 -25q-55 -14 -87 -44t-32 -69q0 -58 55.5 -86t149.5 -28q122 0 201 42t79 104z" />
    <glyph glyph-name="Gbreve" unicode="&#x11e;" horiz-adv-x="1468" 
d="M788 1479q-78 0 -137 24t-92.5 64.5t-50 87.5t-16.5 98q0 75 37 75q5 0 10 -2t8 -4t7 -7t6 -8.5t6.5 -11.5t7.5 -12q79 -110 214 -110q137 0 212 110q24 45 48 45q36 0 36 -75q0 -51 -16.5 -98t-49.5 -87.5t-92.5 -64.5t-137.5 -24zM767 -35q-146 0 -271 59.5t-209 159.5
t-131 231.5t-47 275.5q0 143 42.5 273.5t123.5 234.5t211 166t292 62q91 0 183 -24.5t113 -24.5q24 0 60.5 11t56.5 11q17 0 29.5 -4t21.5 -15t15 -21t12 -31.5t9 -35.5t8.5 -45t9.5 -49q11 -56 22 -104t15 -66t4 -31q0 -31 -15.5 -47.5t-39.5 -16.5q-16 0 -29 6t-26.5 21
t-22 26t-25 36.5t-24.5 37.5q-71 99 -160 153.5t-181 54.5q-109 0 -191.5 -68.5t-123.5 -177t-41 -236.5t35 -239.5t93 -186.5t131 -117.5t150 -42.5q57 0 105.5 23t69.5 56q16 26 21.5 58t5.5 91q0 25 -1.5 46.5t-2.5 38t-5.5 31t-6.5 24t-9 19.5t-9.5 15t-11.5 12.5
t-11.5 9.5t-13 9.5t-13.5 9.5q-11 8 -38.5 21t-39.5 26.5t-12 36.5q0 66 90 66q30 0 94.5 -3.5t89.5 -3.5q35 0 104 3.5t109 3.5q33 0 49.5 -17t16.5 -45q0 -25 -10 -48t-21.5 -42t-21.5 -68.5t-10 -121.5q0 -64 5.5 -204.5t5.5 -169.5q0 -84 -66 -84q-37 0 -75 43
q-2 2 -12 11t-14 12t-11.5 8t-13 7t-11.5 2q-9 0 -18.5 -2t-23.5 -7t-21.5 -8.5t-27.5 -12.5t-28 -12q-167 -70 -307 -70z" />
    <glyph glyph-name="gbreve" unicode="&#x11f;" horiz-adv-x="1142" 
d="M565 1158q-68 0 -121 25.5t-83.5 67.5t-45.5 89.5t-15 97.5q0 74 34 74q14 0 22 -11t20 -37q70 -112 189 -112q122 0 190 112q8 18 12.5 26t12.5 15t17 7q34 0 34 -74q0 -50 -15.5 -97.5t-46 -89.5t-83.5 -67.5t-121 -25.5zM540 1059q78 0 198 -20.5t151 -20.5
q52 0 92.5 6.5t59 14t36 14t31.5 6.5q37 0 37 -57q0 -54 -21 -106q-28 -68 -74 -68q-27 0 -64.5 8t-41.5 8q-10 0 -10 -10q0 -4 11 -23t22 -50.5t11 -66.5q0 -165 -122 -261t-308 -96q-21 0 -60 3t-52 3q-42 0 -75.5 -23t-33.5 -61q0 -37 31.5 -58t87.5 -21q31 0 150.5 15.5
t189.5 15.5q151 0 237 -65t86 -204q0 -123 -92 -218t-237 -142.5t-315 -47.5q-210 0 -315 65.5t-105 183.5q0 67 39.5 116.5t96.5 75.5q16 10 16 18q0 7 -14 15q-34 19 -65 62.5t-31 106.5q0 64 43 119.5t117 88.5q14 7 14 16t-12 19q-58 45 -93.5 114.5t-35.5 157.5
q0 173 120.5 270t299.5 97zM402 715q0 -103 45.5 -156t110.5 -53q67 0 109.5 44t42.5 129q0 35 -8.5 71.5t-26.5 72.5t-51 59t-77 23q-65 0 -105 -52t-40 -138zM756 -158q0 51 -40.5 78.5t-115.5 27.5q-133 0 -210 -25q-55 -14 -87 -44t-32 -69q0 -58 55.5 -86t149.5 -28
q122 0 201 42t79 104z" />
    <glyph glyph-name="Gdotaccent" unicode="&#x120;" horiz-adv-x="1468" 
d="M810 1829q75 0 123.5 -42.5t48.5 -108.5q0 -78 -62 -131t-148 -53q-71 0 -118 40.5t-47 104.5q0 75 58.5 132.5t144.5 57.5zM767 -35q-146 0 -271 59.5t-209 159.5t-131 231.5t-47 275.5q0 143 42.5 273.5t123.5 234.5t211 166t292 62q91 0 183 -24.5t113 -24.5
q24 0 60.5 11t56.5 11q17 0 29.5 -4t21.5 -15t15 -21t12 -31.5t9 -35.5t8.5 -45t9.5 -49q11 -56 22 -104t15 -66t4 -31q0 -31 -15.5 -47.5t-39.5 -16.5q-16 0 -29 6t-26.5 21t-22 26t-25 36.5t-24.5 37.5q-71 99 -160 153.5t-181 54.5q-109 0 -191.5 -68.5t-123.5 -177
t-41 -236.5t35 -239.5t93 -186.5t131 -117.5t150 -42.5q57 0 105.5 23t69.5 56q16 26 21.5 58t5.5 91q0 25 -1.5 46.5t-2.5 38t-5.5 31t-6.5 24t-9 19.5t-9.5 15t-11.5 12.5t-11.5 9.5t-13 9.5t-13.5 9.5q-11 8 -38.5 21t-39.5 26.5t-12 36.5q0 66 90 66q30 0 94.5 -3.5
t89.5 -3.5q35 0 104 3.5t109 3.5q33 0 49.5 -17t16.5 -45q0 -25 -10 -48t-21.5 -42t-21.5 -68.5t-10 -121.5q0 -64 5.5 -204.5t5.5 -169.5q0 -84 -66 -84q-37 0 -75 43q-2 2 -12 11t-14 12t-11.5 8t-13 7t-11.5 2q-9 0 -18.5 -2t-23.5 -7t-21.5 -8.5t-27.5 -12.5t-28 -12
q-167 -70 -307 -70z" />
    <glyph glyph-name="gdotaccent" unicode="&#x121;" horiz-adv-x="1142" 
d="M600 1496q67 0 110 -40.5t43 -105.5q0 -75 -55.5 -126.5t-132.5 -51.5q-64 0 -105 39.5t-41 101.5q0 72 52 127.5t129 55.5zM540 1059q78 0 198 -20.5t151 -20.5q52 0 92.5 6.5t59 14t36 14t31.5 6.5q37 0 37 -57q0 -54 -21 -106q-28 -68 -74 -68q-27 0 -64.5 8t-41.5 8
q-10 0 -10 -10q0 -4 11 -23t22 -50.5t11 -66.5q0 -165 -122 -261t-308 -96q-21 0 -60 3t-52 3q-42 0 -75.5 -23t-33.5 -61q0 -37 31.5 -58t87.5 -21q31 0 150.5 15.5t189.5 15.5q151 0 237 -65t86 -204q0 -123 -92 -218t-237 -142.5t-315 -47.5q-210 0 -315 65.5t-105 183.5
q0 67 39.5 116.5t96.5 75.5q16 10 16 18q0 7 -14 15q-34 19 -65 62.5t-31 106.5q0 64 43 119.5t117 88.5q14 7 14 16t-12 19q-58 45 -93.5 114.5t-35.5 157.5q0 173 120.5 270t299.5 97zM402 715q0 -103 45.5 -156t110.5 -53q67 0 109.5 44t42.5 129q0 35 -8.5 71.5
t-26.5 72.5t-51 59t-77 23q-65 0 -105 -52t-40 -138zM756 -158q0 51 -40.5 78.5t-115.5 27.5q-133 0 -210 -25q-55 -14 -87 -44t-32 -69q0 -58 55.5 -86t149.5 -28q122 0 201 42t79 104z" />
    <glyph glyph-name="uni0122" unicode="&#x122;" horiz-adv-x="1468" 
d="M767 -35q-146 0 -271 59.5t-209 159.5t-131 231.5t-47 275.5q0 143 42.5 273.5t123.5 234.5t211 166t292 62q91 0 183 -24.5t113 -24.5q24 0 60.5 11t56.5 11q17 0 29.5 -4t21.5 -15t15 -21t12 -31.5t9 -35.5t8.5 -45t9.5 -49q11 -56 22 -104t15 -66t4 -31
q0 -31 -15.5 -47.5t-39.5 -16.5q-16 0 -29 6t-26.5 21t-22 26t-25 36.5t-24.5 37.5q-71 99 -160 153.5t-181 54.5q-109 0 -191.5 -68.5t-123.5 -177t-41 -236.5t35 -239.5t93 -186.5t131 -117.5t150 -42.5q57 0 105.5 23t69.5 56q16 26 21.5 58t5.5 91q0 25 -1.5 46.5
t-2.5 38t-5.5 31t-6.5 24t-9 19.5t-9.5 15t-11.5 12.5t-11.5 9.5t-13 9.5t-13.5 9.5q-11 8 -38.5 21t-39.5 26.5t-12 36.5q0 66 90 66q30 0 94.5 -3.5t89.5 -3.5q35 0 104 3.5t109 3.5q33 0 49.5 -17t16.5 -45q0 -25 -10 -48t-21.5 -42t-21.5 -68.5t-10 -121.5
q0 -64 5.5 -204.5t5.5 -169.5q0 -84 -66 -84q-37 0 -75 43q-2 2 -12 11t-14 12t-11.5 8t-13 7t-11.5 2q-9 0 -18.5 -2t-23.5 -7t-21.5 -8.5t-27.5 -12.5t-28 -12q-167 -70 -307 -70zM711 -500q-16 0 -24.5 9t-8.5 22q0 11 25 52t25 78q0 9 -12 23t-26 27.5t-26 39t-12 54.5
q0 53 36.5 84t88.5 31q65 0 103 -39.5t38 -109.5q0 -95 -72 -183t-135 -88z" />
    <glyph glyph-name="uni0123" unicode="&#x123;" horiz-adv-x="1142" 
d="M630 1563q16 0 24.5 -9t8.5 -22q0 -11 -25.5 -52t-25.5 -78q0 -11 19 -29.5t38 -48.5t19 -67q0 -53 -36.5 -83.5t-88.5 -30.5q-65 0 -102.5 39.5t-37.5 109.5q0 95 72 183t135 88zM540 1059q78 0 198 -20.5t151 -20.5q52 0 92.5 6.5t59 14t36 14t31.5 6.5q37 0 37 -57
q0 -54 -21 -106q-28 -68 -74 -68q-27 0 -64.5 8t-41.5 8q-10 0 -10 -10q0 -4 11 -23t22 -50.5t11 -66.5q0 -165 -122 -261t-308 -96q-21 0 -60 3t-52 3q-42 0 -75.5 -23t-33.5 -61q0 -37 31.5 -58t87.5 -21q31 0 150.5 15.5t189.5 15.5q151 0 237 -65t86 -204
q0 -123 -92 -218t-237 -142.5t-315 -47.5q-210 0 -315 65.5t-105 183.5q0 67 39.5 116.5t96.5 75.5q16 10 16 18q0 7 -14 15q-34 19 -65 62.5t-31 106.5q0 64 43 119.5t117 88.5q14 7 14 16t-12 19q-58 45 -93.5 114.5t-35.5 157.5q0 173 120.5 270t299.5 97zM402 715
q0 -103 45.5 -156t110.5 -53q67 0 109.5 44t42.5 129q0 35 -8.5 71.5t-26.5 72.5t-51 59t-77 23q-65 0 -105 -52t-40 -138zM756 -158q0 51 -40.5 78.5t-115.5 27.5q-133 0 -210 -25q-55 -14 -87 -44t-32 -69q0 -58 55.5 -86t149.5 -28q122 0 201 42t79 104z" />
    <glyph glyph-name="Hcircumflex" unicode="&#x124;" horiz-adv-x="1560" 
d="M1120 1476q-71 0 -199 77q-53 31 -64 31q-5 0 -9.5 -1.5t-10.5 -4.5t-11 -6t-14 -8.5t-15 -9.5q-48 -31 -103 -54.5t-91 -23.5q-45 0 -45 37q0 18 33 56q46 52 145 183q36 48 61.5 69t64.5 21q36 0 61.5 -21.5t60.5 -68.5q63 -86 150 -181q31 -32 31 -58q0 -18 -13 -27.5
t-32 -9.5zM1482 1398q72 0 72 -61q0 -21 -10.5 -38t-26 -31t-31 -31.5t-28.5 -50.5t-17 -78q-5 -56 -5 -380q0 -414 13 -492q4 -33 17.5 -57.5t29.5 -39t31 -27t25 -27.5t10 -34q0 -25 -20.5 -40.5t-59.5 -15.5q-30 0 -100.5 2.5t-104.5 2.5q-36 0 -108 -2.5t-101 -2.5
q-39 0 -59.5 15.5t-20.5 40.5q0 19 10 34.5t25.5 28t31.5 26.5t29.5 39t18.5 57q12 105 12 327q0 48 -13.5 68t-50.5 20h-376q-36 0 -52 -18t-16 -70q0 -89 5.5 -191t10.5 -136q5 -33 18.5 -57.5t29 -39t30.5 -27t25 -27.5t10 -34q0 -24 -21 -40t-60 -16q-29 0 -99.5 2.5
t-104.5 2.5q-36 0 -107.5 -2.5t-100.5 -2.5q-40 0 -60.5 15.5t-20.5 40.5q0 23 15.5 42t35 32.5t39 42.5t24.5 68q12 84 12 492q0 334 -3 380q-4 54 -23 92t-39.5 54t-36.5 37t-16 46q0 61 74 61q30 0 101.5 -2.5t105.5 -2.5q36 0 106 2.5t98 2.5q73 0 73 -61q0 -28 -18 -48
t-44 -46.5t-38 -62.5q-8 -19 -14.5 -95.5t-6.5 -141.5q0 -61 15 -82.5t55 -21.5h369q39 0 54 20.5t15 83.5q0 67 -6.5 144.5t-12.5 92.5q-10 32 -36 59.5t-45.5 49.5t-19.5 48q0 61 74 61q30 0 101.5 -2.5t106.5 -2.5q36 0 106.5 2.5t98.5 2.5z" />
    <glyph glyph-name="hcircumflex" unicode="&#x125;" horiz-adv-x="1264" 
d="M574 1496q-63 0 -177 83q-9 7 -23 18t-21.5 16t-13.5 5q-5 0 -12 -4.5t-21.5 -16t-22.5 -17.5q-44 -34 -92 -59t-79 -25q-16 0 -27 9t-11 23q0 15 28 48q56 63 137 180q1 2 8.5 13t8.5 13.5t8 12t9 11.5t8.5 9.5t10.5 9.5t10.5 6.5t12 6t13 3t15.5 1.5q24 0 44 -13.5
t30.5 -27t29.5 -43.5q45 -71 139 -182q27 -32 27 -48q0 -14 -11.5 -23t-27.5 -9zM200 296v892q0 63 -67 91q-42 23 -42 54q0 14 6.5 24.5t22 19t29 14t40.5 15t44 16.5q27 11 61 25t50.5 20.5t35.5 13.5t32.5 9.5t26.5 2.5q66 0 66 -68q0 -17 -5.5 -82t-11 -173.5
t-5.5 -231.5q0 -41 17 -41q6 0 35.5 25.5t68 56t104 56t135.5 25.5q166 0 248.5 -100.5t82.5 -288.5q0 -97 -14 -245.5t-14 -172.5q0 -79 49 -119q9 -7 26.5 -18t24.5 -17t13.5 -17.5t6.5 -27.5q0 -59 -86 -59q-26 0 -77.5 2.5t-81.5 2.5q-35 0 -82.5 -2.5t-79.5 -2.5
q-60 0 -60 56q0 29 25 101q16 48 29.5 174.5t13.5 254.5q0 273 -181 273q-68 0 -129 -56t-61 -135v-381q0 -60 8.5 -90t31.5 -54q8 -9 28 -23.5t28 -27t8 -33.5q0 -59 -80 -59q-29 0 -84.5 2.5t-84.5 2.5q-33 0 -93 -2.5t-106 -2.5q-67 0 -67 56q0 15 7 29.5t14.5 22.5
t20 19t15.5 15q58 60 58 159z" />
    <glyph glyph-name="Hbar" unicode="&#x126;" horiz-adv-x="1560" 
d="M1426 1398q73 0 73 -61q0 -21 -10 -37.5t-25.5 -30.5t-31.5 -31t-29.5 -48.5t-17.5 -74.5h125q48 0 48 -43q0 -56 -21 -100q-10 -25 -31 -35t-59 -10h-67v-199q0 -408 14 -492q4 -33 17.5 -57.5t29 -39t30.5 -27t25 -27.5t10 -34q0 -25 -20.5 -40.5t-59.5 -15.5
q-30 0 -100 2.5t-104 2.5q-36 0 -108 -2.5t-101 -2.5q-39 0 -59.5 15.5t-20.5 40.5q0 23 15 42t33.5 32.5t38.5 42.5t28 68q12 60 12 291q0 40 -14 57.5t-51 17.5h-375q-36 0 -52 -15.5t-16 -59.5q0 -224 15 -291q9 -35 24 -60.5t30 -39.5t29 -25.5t22.5 -26t8.5 -33.5
q0 -24 -21 -40t-60 -16q-29 0 -100 2.5t-105 2.5q-36 0 -107.5 -2.5t-100.5 -2.5q-40 0 -60.5 15.5t-20.5 40.5q0 23 16 42t35.5 32.5t39 42.5t24.5 68q11 77 11 492v199h-131q-50 0 -50 44q0 49 22 100q10 25 29.5 34.5t57.5 9.5h68q-4 42 -17.5 73.5t-29 49t-31 31.5
t-25.5 30.5t-10 37.5q0 61 73 61q30 0 101.5 -2.5t105.5 -2.5q36 0 106.5 2.5t98.5 2.5q73 0 73 -61q0 -22 -12 -40t-27 -30t-33.5 -35t-28.5 -52q-8 -19 -12 -65h491q-4 48 -11 65q-10 32 -36 59.5t-45 49.5t-19 48q0 61 74 61q30 0 101.5 -2.5t106.5 -2.5q36 0 106 2.5
t98 2.5zM990 791q36 0 52.5 29.5t17.5 106.5h-508q1 -78 16 -107t54 -29h368z" />
    <glyph glyph-name="hbar" unicode="&#x127;" horiz-adv-x="1265" 
d="M601 1065h-177q-3 -78 -3 -161q0 -54 15 -54q7 0 38 24.5t71 54.5t106.5 54.5t134.5 24.5q167 0 247 -100.5t80 -269.5q0 -89 -13 -225t-13 -160q0 -78 50 -119q8 -6 26.5 -18t24.5 -17.5t12.5 -17.5t6.5 -28q0 -58 -86 -58q-26 0 -77 2.5t-81 2.5q-35 0 -82.5 -2.5
t-79.5 -2.5q-61 0 -61 57q0 14 3.5 29.5t6.5 25t9 25.5t7 18q15 45 27.5 158t12.5 229q0 135 -48.5 205t-135.5 70q-68 0 -126.5 -53.5t-58.5 -128.5v-351q0 -59 8.5 -88t31.5 -53q8 -9 28 -24t28.5 -27.5t8.5 -33.5q0 -58 -80 -58q-29 0 -84.5 2.5t-84.5 2.5
q-33 0 -93.5 -2.5t-106.5 -2.5q-66 0 -66 56q0 15 7 29.5t12.5 21t20.5 20t16 13.5q58 63 58 156v774h-141q-43 0 -43 37t18 65q21 32 74 32h92v9q0 63 -67 89q-43 16 -43 51q0 10 3 18t11.5 15t16 12t22.5 11t25 9.5t31 10t33 10.5q44 15 91.5 35.5t71 28t45.5 7.5
q65 0 65 -67q0 -13 -2.5 -46t-6.5 -89t-7 -104h225q23 0 33.5 -11.5t10.5 -25.5q0 -38 -19 -64q-23 -33 -79 -33z" />
    <glyph glyph-name="Itilde" unicode="&#x128;" horiz-adv-x="736" 
d="M63 1627q0 82 54 131.5t133 49.5q60 0 154.5 -44.5t140.5 -44.5q33 0 54 15t28 32.5t16.5 32.5t20.5 15q25 0 49 -34.5t24 -91.5q0 -83 -54 -135t-136 -52q-56 0 -117 27t-114 54t-88 27q-25 0 -44.5 -13t-28.5 -28.5t-19 -28.5t-20 -13q-18 0 -35.5 27t-17.5 74z
M606 1398q73 0 73 -61q0 -21 -10.5 -38t-25.5 -31t-31 -31.5t-29 -50.5t-17 -78q-6 -54 -6 -380q0 -394 13 -492q6 -40 25.5 -69t38.5 -42t34.5 -32t15.5 -42q0 -24 -21 -40t-60 -16q-29 0 -100 2.5t-105 2.5q-36 0 -107 -2.5t-100 -2.5q-40 0 -60.5 15.5t-20.5 40.5
q0 23 15.5 42t35 32.5t39 42.5t24.5 68q12 84 12 492q0 334 -3 380q-4 54 -23 92t-39.5 54t-36.5 37t-16 46q0 61 74 61q30 0 101 -2.5t105 -2.5q36 0 106.5 2.5t98.5 2.5z" />
    <glyph glyph-name="itilde" unicode="&#x129;" horiz-adv-x="615" 
d="M10 1285q0 75 48 123.5t117 48.5q54 0 138.5 -43.5t125.5 -43.5q30 0 49 14.5t25.5 32t14.5 32t18 14.5q23 0 43.5 -31.5t20.5 -84.5q0 -78 -48.5 -127.5t-121.5 -49.5q-39 0 -82 16.5t-74 36t-66 36t-61 16.5q-23 0 -40 -13t-25.5 -28.5t-18 -28.5t-18.5 -13
q-15 0 -30 25t-15 68zM474 992q0 -11 -5 -134.5t-5 -248.5v-327q0 -57 11 -87.5t36 -56.5q8 -9 28 -23.5t28 -27t8 -33.5q0 -59 -78 -59q-30 0 -89.5 2.5t-88.5 2.5q-33 0 -93 -2.5t-106 -2.5q-67 0 -67 56q0 15 7 29.5t14.5 22.5t20 19t16.5 15q57 59 57 159v413
q0 85 -65 118q-46 29 -46 60q0 16 7 27.5t22.5 20t30 14t41 14.5t44.5 16q35 14 85.5 37t78 33.5t43.5 10.5q65 0 65 -68z" />
    <glyph glyph-name="Imacron" unicode="&#x12a;" horiz-adv-x="736" 
d="M614 1526h-537q-54 0 -54 48q0 62 21 112q11 29 32.5 39.5t63.5 10.5h544q52 0 52 -48q0 -60 -23 -111q-12 -29 -34 -40t-65 -11zM586 1398q72 0 72 -61q0 -21 -10 -38t-25.5 -31t-31 -31.5t-28.5 -50.5t-17 -78q-6 -54 -6 -380q0 -394 13 -492q6 -40 25.5 -69t38.5 -42
t34.5 -32t15.5 -42q0 -24 -21 -40t-60 -16q-29 0 -100 2.5t-105 2.5q-36 0 -107.5 -2.5t-100.5 -2.5q-40 0 -60.5 15.5t-20.5 40.5q0 23 16 42t35.5 32.5t39 42.5t24.5 68q11 77 11 492q0 334 -3 380q-4 54 -23 92t-39.5 54t-36.5 37t-16 46q0 61 74 61q30 0 101.5 -2.5
t105.5 -2.5q36 0 106.5 2.5t98.5 2.5z" />
    <glyph glyph-name="imacron" unicode="&#x12b;" horiz-adv-x="615" 
d="M528 1214h-399q-53 0 -53 48q0 56 21 106q11 26 32 36.5t62 10.5h405q51 0 51 -47q0 -53 -21 -105q-13 -27 -35 -38t-63 -11zM507 992q0 -11 -5 -134.5t-5 -248.5v-327q0 -57 11 -87.5t36 -56.5q8 -9 28 -23.5t28 -27t8 -33.5q0 -59 -79 -59q-30 0 -89 2.5t-88 2.5
q-33 0 -93 -2.5t-106 -2.5q-67 0 -67 56q0 15 7 29.5t14.5 22.5t20 19t15.5 15q58 60 58 159v413q0 85 -65 118q-46 29 -46 60q0 16 6.5 27.5t22 20t30 14t41 14.5t44.5 16q35 14 85.5 37t78 33.5t43.5 10.5q66 0 66 -68z" />
    <glyph glyph-name="Iogonek" unicode="&#x12e;" horiz-adv-x="736" 
d="M254 -255q0 71 53 131.5t133 103.5q16 7 16 14q0 6 -16 6q-22 0 -94 -2.5t-103 -2.5q-40 0 -60.5 15.5t-20.5 40.5q0 23 15.5 42t35 32.5t39 42.5t24.5 68q12 84 12 492q0 334 -3 380q-4 54 -23 92t-39.5 54t-36.5 37t-16 46q0 61 74 61q30 0 101.5 -2.5t105.5 -2.5
q36 0 106 2.5t98 2.5q73 0 73 -61q0 -21 -10.5 -38t-25.5 -31t-31 -31.5t-29 -50.5t-17 -78q-6 -54 -6 -380q0 -387 14 -492q5 -33 18.5 -57.5t29 -39t30.5 -27t25 -27.5t10 -34q0 -7 -1.5 -13t-6 -12t-8.5 -9.5t-14.5 -10t-17.5 -10t-23.5 -12t-27.5 -14.5
q-152 -83 -152 -192q0 -50 28.5 -77t72.5 -27t72 18q34 15 41 15q11 0 18 -8.5t7 -21.5q0 -40 -65 -86t-158 -46q-113 0 -180 53t-67 147z" />
    <glyph glyph-name="iogonek" unicode="&#x12f;" horiz-adv-x="615" 
d="M173 1270q0 86 69.5 156.5t157.5 70.5q63 0 105 -37.5t42 -99.5q0 -84 -75.5 -146t-169.5 -62q-64 0 -96.5 32.5t-32.5 85.5zM517 992q0 -11 -5 -134.5t-5 -248.5v-327q0 -57 11 -87.5t36 -56.5q8 -9 28 -23.5t28 -27t8 -33.5q0 -25 -11.5 -35.5t-46.5 -25t-60 -30.5
q-133 -86 -133 -194q0 -49 26 -76.5t68 -27.5q37 0 69 18q29 18 38 18q11 0 18 -9t7 -23q0 -39 -60 -81.5t-147 -42.5q-102 0 -164 51.5t-62 141.5q0 72 53.5 138t138.5 107q15 9 15 11q0 6 -27 6q-25 0 -81 -2.5t-96 -2.5q-67 0 -67 56q0 15 7 29.5t14.5 22.5t20 19
t16.5 15q57 59 57 159v413q0 85 -65 118q-46 29 -46 60q0 16 7 27.5t22.5 20t30 14t41 14.5t44.5 16q35 14 85.5 37t78 33.5t43.5 10.5q65 0 65 -68z" />
    <glyph glyph-name="Idotaccent" unicode="&#x130;" horiz-adv-x="736" 
d="M464 1829q75 0 123.5 -42.5t48.5 -108.5q0 -78 -62 -131t-148 -53q-71 0 -118 40.5t-47 104.5q0 75 58.5 132.5t144.5 57.5zM655 1398q73 0 73 -61q0 -21 -10.5 -38t-25.5 -31t-31 -31.5t-29 -50.5t-17 -78q-6 -54 -6 -380q0 -387 14 -492q5 -33 18.5 -57.5t29 -39
t30.5 -27t25 -27.5t10 -34q0 -24 -21 -40t-60 -16q-29 0 -99.5 2.5t-104.5 2.5q-36 0 -107.5 -2.5t-100.5 -2.5q-40 0 -60.5 15.5t-20.5 40.5q0 23 15.5 42t35 32.5t39 42.5t24.5 68q12 84 12 492q0 334 -3 380q-4 54 -23 92t-39.5 54t-36.5 37t-16 46q0 61 74 61
q30 0 101.5 -2.5t105.5 -2.5q36 0 106 2.5t98 2.5z" />
    <glyph glyph-name="dotlessi" unicode="&#x131;" horiz-adv-x="615" 
d="M517 992q0 -11 -5 -134.5t-5 -248.5v-327q0 -57 11 -87.5t36 -56.5q8 -9 28 -23.5t28 -27t8 -33.5q0 -59 -78 -59q-30 0 -89.5 2.5t-88.5 2.5q-33 0 -93 -2.5t-106 -2.5q-67 0 -67 56q0 15 7 29.5t14.5 22.5t20 19t16.5 15q57 59 57 159v413q0 85 -65 118q-46 29 -46 60
q0 16 7 27.5t22.5 20t30 14t41 14.5t44.5 16q35 14 85.5 37t78 33.5t43.5 10.5q65 0 65 -68z" />
    <glyph glyph-name="IJ" unicode="&#x132;" horiz-adv-x="1799" 
d="M655 1398q73 0 73 -61q0 -21 -10.5 -38t-25.5 -31t-31 -31.5t-29 -50.5t-17 -78q-6 -54 -6 -380q0 -387 14 -492q5 -33 18.5 -57.5t29 -39t30.5 -27t25 -27.5t10 -34q0 -24 -21 -40t-60 -16q-29 0 -99.5 2.5t-104.5 2.5q-36 0 -107.5 -2.5t-100.5 -2.5q-40 0 -60.5 15.5
t-20.5 40.5q0 23 15.5 42t35 32.5t39 42.5t24.5 68q12 84 12 492q0 334 -3 380q-4 54 -23 92t-39.5 54t-36.5 37t-16 46q0 61 74 61q30 0 101.5 -2.5t105.5 -2.5q36 0 106 2.5t98 2.5zM1392 485v243q0 310 -6 376q-4 45 -21 78t-38 50t-41 31.5t-34 32t-14 41.5q0 61 73 61
q28 0 115.5 -2.5t123.5 -2.5q35 0 100 2.5t95 2.5q74 0 74 -61q0 -25 -14 -46t-31.5 -37t-34.5 -54t-21 -92q-5 -58 -5 -479q0 -88 -5 -157t-18.5 -139.5t-36.5 -123t-60 -99.5t-88.5 -77t-122.5 -47t-161 -17q-113 0 -197.5 28t-132 75.5t-70.5 103t-23 119.5q0 89 51 156
t142 67q71 0 106.5 -34t35.5 -84q0 -18 -19.5 -71.5t-19.5 -90.5q0 -46 29 -77t88 -31q181 0 181 355z" />
    <glyph glyph-name="ij" unicode="&#x133;" horiz-adv-x="1163" 
d="M177 1270q0 86 69.5 156.5t157.5 70.5q63 0 105 -37.5t42 -99.5q0 -84 -75.5 -146t-169.5 -62q-64 0 -96.5 32.5t-32.5 85.5zM763 1270q0 86 70 156.5t158 70.5q62 0 104.5 -37.5t42.5 -99.5q0 -84 -75.5 -146t-169.5 -62q-64 0 -97 32.5t-33 85.5zM521 992
q0 -11 -5 -134.5t-5 -248.5v-327q0 -57 11 -87.5t36 -56.5q9 -9 28.5 -23.5t28 -27t8.5 -33.5q0 -59 -79 -59q-30 0 -89 2.5t-88 2.5q-33 0 -93.5 -2.5t-106.5 -2.5q-67 0 -67 56q0 15 7 29.5t14.5 22.5t20 19t16.5 15q57 59 57 159v413q0 86 -64 118q-15 10 -23 16t-16 18
t-8 26q0 16 7 27.5t22.5 20t30 14t41 14.5t44.5 16q35 14 85.5 37t78 33.5t43.5 10.5q65 0 65 -68zM1099 609v-253q0 -92 4 -223.5t4 -144.5q0 -85 -23 -157t-62.5 -121.5t-91.5 -84t-109 -50.5t-116 -16q-44 0 -77 16.5t-33 39.5q0 13 6.5 21t24 19t27.5 20
q67 57 108.5 140.5t41.5 231.5v662q0 84 -65 118q-23 15 -34.5 28t-11.5 32q0 16 7 27.5t22.5 20t30 14t41 14.5t44.5 16q36 14 86 37t77 33.5t43 10.5q66 0 66 -68q0 -15 -2.5 -58t-5 -126.5t-2.5 -198.5z" />
    <glyph glyph-name="Jcircumflex" unicode="&#x134;" 
d="M1056 1476q-72 0 -200 77q-6 4 -16 10t-15 8.5t-11.5 6t-11.5 5t-9 1.5q-12 0 -61 -30q-48 -31 -102.5 -54.5t-90.5 -23.5q-45 0 -45 37q0 19 32 56q53 58 146 183q36 48 61.5 69t64.5 21q36 0 61.5 -21.5t60.5 -68.5q67 -91 149 -181q32 -33 32 -58q0 -18 -13 -27.5
t-32 -9.5zM653 485v243q0 321 -5 376q-4 45 -21 78t-38 50t-41 31.5t-34 32t-14 41.5q0 61 72 61q28 0 116 -2.5t124 -2.5q35 0 100 2.5t95 2.5q73 0 73 -61q0 -25 -14 -46t-31 -37t-34 -54t-21 -92q-5 -58 -5 -479q0 -87 -5 -156.5t-18.5 -140t-36.5 -123t-60.5 -99.5
t-88.5 -77t-122.5 -47t-161.5 -17q-113 0 -197.5 28t-132 75.5t-70.5 103t-23 119.5q0 89 51.5 156t142.5 67q70 0 105.5 -34t35.5 -84q0 -18 -19.5 -71.5t-19.5 -90.5q0 -45 29.5 -76.5t88.5 -31.5q180 0 180 355z" />
    <glyph glyph-name="jcircumflex" unicode="&#x135;" horiz-adv-x="552" 
d="M430 1150q-60 0 -168 101q-8 7 -17.5 17.5t-15 16t-11 10t-9.5 4.5q-5 0 -11.5 -5.5t-19.5 -19.5t-21 -21q-103 -103 -162 -103q-36 0 -36 33q0 18 27 52q53 71 124 211q2 3 9 16t9 16.5t8.5 14t9.5 13.5t10 11t12 10.5t12.5 6.5t15.5 5t17 1q19 0 34 -6.5t28 -23t20 -28
t20 -36.5q47 -101 125 -211q27 -37 27 -52q0 -16 -10.5 -24.5t-26.5 -8.5zM373 609v-253q0 -92 4 -223.5t4 -144.5q0 -106 -35.5 -190.5t-94 -135t-128.5 -77t-145 -26.5q-44 0 -76.5 16.5t-32.5 39.5q0 13 6.5 21t24 19t27.5 20q67 57 108.5 140.5t41.5 231.5v662
q0 84 -65 118q-23 15 -34.5 28t-11.5 32q0 16 7 27.5t22.5 20t30 14t41 14.5t44.5 16q36 14 86 37t77 33.5t43 10.5q66 0 66 -68q0 -15 -2.5 -58t-5 -126.5t-2.5 -198.5z" />
    <glyph glyph-name="uni0136" unicode="&#x136;" horiz-adv-x="1448" 
d="M617 758q13 0 108.5 96.5t187 207t91.5 142.5q0 28 -35 66.5t-35 68.5q0 26 21 42.5t60 16.5q21 0 82 -2.5t85 -2.5q22 0 90 2t89 2q55 0 79.5 -12t24.5 -49q0 -27 -21 -46.5t-70 -46.5t-76 -48q-175 -137 -401 -389q-11 -13 -11 -20q0 -8 12 -12q149 -50 250 -163
t193 -303q55 -122 123 -178q10 -8 27.5 -20t23.5 -17t11.5 -16t5.5 -25q0 -57 -65 -57q-21 0 -101 2.5t-105 2.5q-49 0 -118 -2.5t-78 -2.5q-37 0 -59.5 17t-22.5 43q0 16 12 44.5t12 54.5q0 39 -17 91.5t-49 107t-72.5 100.5t-93 75.5t-104.5 29.5q-63 0 -63 -86v-160
q0 -58 16.5 -95t46.5 -69q9 -10 31.5 -29.5t32.5 -34.5t10 -33q0 -56 -79 -56q-36 0 -109.5 2.5t-106.5 2.5q-36 0 -107 -2.5t-100 -2.5q-40 0 -60.5 15.5t-20.5 40.5q0 23 15.5 42t35 32.5t39 42.5t24.5 68q12 84 12 492q0 334 -3 380q-4 54 -23 92t-39.5 54t-36.5 37
t-16 46q0 61 74 61q30 0 101.5 -2.5t105.5 -2.5q36 0 106 2.5t98 2.5q73 0 73 -61q0 -30 -41 -71t-51 -77q-12 -29 -22 -91t-10 -135q0 -205 13 -205zM756 -500q-16 0 -24.5 9t-8.5 22q0 11 25 52t25 78q0 9 -12 23t-26 27.5t-26 39t-12 54.5q0 53 36.5 84t88.5 31
q65 0 103 -39.5t38 -109.5q0 -95 -72 -183t-135 -88z" />
    <glyph glyph-name="uni0137" unicode="&#x137;" horiz-adv-x="1230" 
d="M497 319q0 -75 14.5 -115t48.5 -73q7 -7 26 -20t28 -25.5t9 -31.5q0 -59 -80 -59q-26 0 -90 2.5t-91 2.5q-33 0 -97 -2.5t-102 -2.5q-67 0 -67 56q0 15 7 29.5t14.5 22.5t20 19t16.5 15q57 59 57 159v893q0 62 -67 92q-42 23 -42 53q0 14 6.5 24.5t22 19.5t29.5 14.5
t41 15.5t44 17q35 14 83.5 37t75.5 33t47 10q65 0 65 -67q0 -8 -7.5 -240.5t-7.5 -518.5q0 -89 16 -89q18 0 82.5 49t124 115t59.5 102q0 20 -36 63t-36 65q0 59 68 59q30 0 91 -2.5t94 -2.5t90.5 4.5t85.5 4.5q82 0 82 -60q0 -13 -5 -24t-19.5 -23.5t-21.5 -18t-32 -21
t-31 -19.5q-36 -22 -86.5 -60.5t-131 -102t-112.5 -88.5q-13 -12 -13 -17q0 -9 14 -14q77 -30 136.5 -77.5t96.5 -100.5t67 -104t65.5 -100.5t73.5 -77.5q1 -1 8 -6t13 -9.5t14 -13t14 -16.5t10 -19t4 -22t-3.5 -23t-17 -23.5t-35.5 -11.5q-20 0 -91.5 2t-105.5 2
q-39 0 -103 -3.5t-80 -3.5q-35 0 -56 15.5t-21 43.5q0 16 14.5 41.5t14.5 43.5q0 78 -87 182q-43 52 -89.5 80t-72.5 28q-34 0 -45 -25t-11 -82zM600 -500q-16 0 -24.5 9t-8.5 22q0 11 25 52t25 78q0 11 -18.5 29t-37.5 48t-19 67q0 53 36.5 84t88.5 31q65 0 102.5 -39.5
t37.5 -109.5q0 -95 -72 -183t-135 -88z" />
    <glyph glyph-name="Lacute" unicode="&#x139;" horiz-adv-x="1227" 
d="M300 1584q69 60 139 148q41 52 79.5 81t88.5 29q54 0 86.5 -31t32.5 -76q0 -89 -124 -163q-69 -40 -152 -68t-135 -28q-60 0 -60 38q0 17 8.5 30.5t36.5 39.5zM288 728q0 334 -3 380q-4 54 -23 92t-39.5 54t-36.5 37t-16 46q0 61 74 61q30 0 101.5 -2.5t105.5 -2.5
q36 0 124 2.5t116 2.5q73 0 73 -61q0 -24 -14 -41.5t-34.5 -32t-41.5 -31.5t-38 -50t-21 -78q-6 -53 -6 -376v-416q0 -83 37 -108t146 -25q66 0 116 10.5t83.5 28.5t59.5 48.5t41.5 62t32.5 78.5q19 48 37 69.5t42 21.5q51 0 51 -88q0 -30 -10.5 -148t-14.5 -185
q-3 -47 -24 -64.5t-74 -17.5q-31 0 -174.5 2.5t-244.5 2.5q-162 0 -312.5 -2.5t-157.5 -2.5q-81 0 -81 56q0 19 10 34.5t25 27.5t30.5 25.5t29 37.5t18.5 56q13 77 13 496z" />
    <glyph glyph-name="lacute" unicode="&#x13a;" horiz-adv-x="619" 
d="M223 1586q47 71 84 131q19 32 30 49t30 37.5t40.5 29.5t49.5 9q48 0 74 -29t26 -74q0 -68 -78 -141q-45 -43 -123 -78t-125 -35q-44 0 -44 37q0 13 36 64zM516 1413q0 -35 -4.5 -135.5t-4.5 -253.5v-742q0 -57 11 -87.5t36 -56.5q8 -9 28 -23.5t28 -27t8 -33.5
q0 -59 -78 -59q-26 0 -89 2.5t-89 2.5q-33 0 -97 -2.5t-102 -2.5q-67 0 -67 56q0 15 7 29.5t14.5 22.5t20 19t16.5 15q57 59 57 159v868q0 63 -67 91q-42 23 -42 55q0 14 6.5 24.5t22 19t29 14t41 15.5t44.5 17q35 14 83.5 37t75.5 33t47 10q65 0 65 -67z" />
    <glyph glyph-name="uni013B" unicode="&#x13b;" horiz-adv-x="1227" 
d="M288 728q0 334 -3 380q-4 54 -23 92t-39.5 54t-36.5 37t-16 46q0 61 74 61q30 0 101.5 -2.5t105.5 -2.5q36 0 124 2.5t116 2.5q73 0 73 -61q0 -24 -14 -41.5t-34.5 -32t-41.5 -31.5t-38 -50t-21 -78q-6 -53 -6 -376v-416q0 -83 37 -108t146 -25q66 0 116 10.5t83.5 28.5
t59.5 48.5t41.5 62t32.5 78.5q19 48 37 69.5t42 21.5q51 0 51 -88q0 -30 -10.5 -148t-14.5 -185q-3 -47 -24 -64.5t-74 -17.5q-31 0 -174.5 2.5t-244.5 2.5q-162 0 -312.5 -2.5t-157.5 -2.5q-81 0 -81 56q0 19 10 34.5t25 27.5t30.5 25.5t29 37.5t18.5 56q13 77 13 496z
M639 -500q-16 0 -24.5 9t-8.5 22q0 11 25 52t25 78q0 9 -11.5 23t-26 27.5t-26 39t-11.5 54.5q0 53 36.5 84t88.5 31q65 0 102.5 -39.5t37.5 -109.5q0 -95 -72 -183t-135 -88z" />
    <glyph glyph-name="uni013C" unicode="&#x13c;" horiz-adv-x="619" 
d="M516 1438q0 -35 -4.5 -135t-4.5 -253v-768q0 -57 11 -87.5t36 -56.5q8 -9 28 -23.5t28 -27t8 -33.5q0 -59 -78 -59q-26 0 -89 2.5t-89 2.5q-33 0 -97 -2.5t-102 -2.5q-67 0 -67 56q0 15 7 29.5t14.5 22.5t20 19t16.5 15q57 59 57 159v893q0 62 -67 92q-42 23 -42 53
q0 14 6.5 24.5t22 19.5t29.5 14.5t41 15.5t44 17q35 14 83.5 37t75.5 33t47 10q65 0 65 -67zM284 -500q-16 0 -24.5 9t-8.5 22q0 11 25 52t25 78q0 9 -12 23t-26 27.5t-26 39t-12 54.5q0 53 36.5 84t88.5 31q65 0 102.5 -39.5t37.5 -109.5q0 -95 -71.5 -183t-134.5 -88z" />
    <glyph glyph-name="Lcaron" unicode="&#x13d;" horiz-adv-x="1227" 
d="M815 1016q5 41 12 136.5t13 132.5q18 118 108 118q48 0 74.5 -34.5t26.5 -97.5q0 -75 -57 -202q-84 -195 -147 -195q-38 0 -38 48q0 14 8 94zM288 728q0 334 -3 380q-4 54 -23 92t-39.5 54t-36.5 37t-16 46q0 61 74 61q30 0 101.5 -2.5t105.5 -2.5q36 0 124 2.5t116 2.5
q73 0 73 -61q0 -24 -14 -41.5t-34.5 -32t-41.5 -31.5t-38 -50t-21 -78q-6 -53 -6 -376v-416q0 -83 37 -108t146 -25q66 0 116 10.5t83.5 28.5t59.5 48.5t41.5 62t32.5 78.5q19 48 37 69.5t42 21.5q51 0 51 -88q0 -30 -10.5 -148t-14.5 -185q-3 -47 -24 -64.5t-74 -17.5
q-31 0 -174.5 2.5t-244.5 2.5q-162 0 -312.5 -2.5t-157.5 -2.5q-81 0 -81 56q0 19 10 34.5t25 27.5t30.5 25.5t29 37.5t18.5 56q13 77 13 496z" />
    <glyph glyph-name="lcaron" unicode="&#x13e;" horiz-adv-x="827" 
d="M516 1438q0 -35 -4.5 -135t-4.5 -253v-768q0 -57 11 -87.5t36 -56.5q8 -9 28 -23.5t28 -27t8 -33.5q0 -59 -78 -59q-26 0 -89 2.5t-89 2.5q-33 0 -97 -2.5t-102 -2.5q-67 0 -67 56q0 15 7 29.5t14.5 22.5t20 19t16.5 15q57 59 57 159v893q0 62 -67 92q-42 23 -42 53
q0 14 6.5 24.5t22 19.5t29.5 14.5t41 15.5t44 17q35 14 83.5 37t75.5 33t47 10q65 0 65 -67zM641 1118q5 42 12 137.5t13 132.5q18 117 108 117q48 0 74 -34.5t26 -97.5q0 -77 -56 -202q-83 -194 -147 -194q-38 0 -38 47q0 14 8 94z" />
    <glyph glyph-name="Ldot" unicode="&#x13f;" horiz-adv-x="1227" 
d="M288 728q0 334 -3 380q-4 54 -23 92t-39.5 54t-36.5 37t-16 46q0 61 74 61q30 0 101.5 -2.5t105.5 -2.5q36 0 124 2.5t116 2.5q73 0 73 -61q0 -24 -14 -41.5t-34.5 -32t-41.5 -31.5t-38 -50t-21 -78q-6 -53 -6 -376v-416q0 -83 37 -108t146 -25q139 0 212.5 45t118.5 160
q21 48 38.5 69.5t40.5 21.5q52 0 52 -88q0 -30 -10 -135.5t-14 -174.5q-3 -47 -24 -64.5t-74 -17.5q-31 0 -174.5 2.5t-244.5 2.5q-162 0 -312.5 -2.5t-157.5 -2.5q-81 0 -81 56q0 19 10 34.5t25 27.5t30.5 25.5t29 37.5t18.5 56q13 77 13 496zM1241 739q0 -81 -54 -129.5
t-130 -48.5q-69 0 -116.5 41.5t-47.5 117.5q0 82 55 132.5t128 50.5q68 0 116.5 -43.5t48.5 -120.5z" />
    <glyph glyph-name="ldot" unicode="&#x140;" horiz-adv-x="1004" 
d="M516 1438q0 -35 -4.5 -135t-4.5 -253v-768q0 -57 11 -87.5t36 -56.5q8 -9 28 -23.5t28 -27t8 -33.5q0 -59 -78 -59q-26 0 -89 2.5t-89 2.5q-33 0 -97 -2.5t-102 -2.5q-67 0 -67 56q0 15 7 29.5t14.5 22.5t20 19t16.5 15q57 59 57 159v893q0 62 -67 92q-42 23 -42 53
q0 14 6.5 24.5t22 19.5t29.5 14.5t41 15.5t44 17q35 14 83.5 37t75.5 33t47 10q65 0 65 -67zM1034 544q0 -81 -54 -129.5t-130 -48.5q-69 0 -116.5 41t-47.5 117q0 82 55.5 133t127.5 51q68 0 116.5 -43.5t48.5 -120.5z" />
    <glyph glyph-name="Lslash" unicode="&#x141;" horiz-adv-x="1227" 
d="M230 728q0 334 -3 380q-4 54 -23 92t-39 54t-36 37t-16 46q0 61 73 61q30 0 101.5 -2.5t105.5 -2.5q36 0 124.5 2.5t116.5 2.5q73 0 73 -61q0 -24 -14 -41.5t-34.5 -32t-41.5 -31.5t-38 -50t-21 -78q-6 -51 -6 -247l135 67q42 20 65 20q27 0 40 -35.5t13 -83.5
q0 -43 -67 -76l-186 -93v-344q0 -83 36.5 -108t145.5 -25q66 0 116 10.5t83.5 28.5t59.5 48.5t42 62t33 78.5q19 48 37 69.5t42 21.5q51 0 51 -88q0 -30 -11 -147t-15 -186q-3 -47 -24 -64.5t-74 -17.5q-31 0 -174.5 2.5t-244.5 2.5q-162 0 -312.5 -2.5t-157.5 -2.5
q-81 0 -81 56q0 23 15.5 42t34.5 31.5t38.5 40.5t25.5 67q9 58 11 280l-56 -28q-54 -24 -74 -24q-24 0 -38 33.5t-14 85.5q0 41 63 71l120 61v17z" />
    <glyph glyph-name="lslash" unicode="&#x142;" horiz-adv-x="630" 
d="M459 1438q0 -35 -4.5 -135t-4.5 -253v-174l95 47q45 21 60 21q25 0 35 -26.5t10 -56.5q0 -42 -57 -70l-143 -70v-439q0 -57 11 -87.5t36 -56.5q8 -9 28 -23.5t28 -27t8 -33.5q0 -59 -79 -59q-26 0 -88 2.5t-89 2.5q-33 0 -97.5 -2.5t-102.5 -2.5q-66 0 -66 56
q0 15 7 29.5t14.5 22.5t20 19t15.5 15q58 60 58 159v291l-81 -39q-53 -24 -69 -24q-22 0 -33.5 24.5t-11.5 56.5q0 41 55 67l140 69v448q0 62 -67 92q-42 23 -42 53q0 14 6.5 24.5t21.5 19.5t29 14.5t41 15.5t44 17q35 14 83.5 37t75.5 33t47 10q66 0 66 -67z" />
    <glyph glyph-name="Nacute" unicode="&#x143;" horiz-adv-x="1482" 
d="M680 1584q69 60 139 148q41 52 79.5 81t88.5 29q54 0 86.5 -31t32.5 -76q0 -89 -124 -163q-69 -40 -152 -68t-135 -28q-60 0 -60 38q0 17 8.5 30.5t36.5 39.5zM244 1398q17 0 82 -2.5t93 -2.5q90 0 122 -16q9 -4 17.5 -10.5t15 -12.5t18 -19t18.5 -22t24 -30t28 -35
l440 -599q20 -25 37.5 -43.5t27 -27t12.5 -8.5q5 0 7 3.5t4 22t2.5 55t0.5 103.5q0 359 -41 436q-13 32 -39.5 58.5t-44.5 46t-18 43.5q0 60 72 60q28 0 82 -2.5t72 -2.5q23 0 75.5 2.5t75.5 2.5q70 0 70 -61q0 -21 -9.5 -36.5t-23.5 -28.5t-28.5 -29t-26.5 -46.5t-15 -72.5
q-6 -66 -6 -342q1 -302 9 -468.5t8 -199.5q0 -54 -46.5 -92t-118.5 -38q-43 0 -96 62l-609 805q-34 39 -40 39t-9 -6t-5.5 -29.5t-3 -65t-0.5 -119.5q0 -168 12 -297t33 -172q14 -34 41.5 -60t45.5 -44.5t18 -41.5q0 -60 -74 -60q-32 0 -85 2.5t-70 2.5q-22 0 -79.5 -2.5
t-86.5 -2.5q-70 0 -70 59q0 21 11 36.5t27.5 28t33.5 28.5t30.5 46.5t16.5 72.5q7 84 7 459q0 328 -4 381q-5 55 -24 93t-38.5 54t-35.5 37t-16 47q0 61 74 61z" />
    <glyph glyph-name="nacute" unicode="&#x144;" horiz-adv-x="1264" 
d="M581 1243q43 85 74 171q11 31 20 50t26 43.5t40.5 36.5t53.5 12q48 0 73.5 -30t25.5 -74q0 -64 -61 -139q-49 -60 -120 -111t-113 -51q-43 0 -43 37q0 5 24 55zM1185 671q0 -97 -14.5 -245.5t-14.5 -172.5q0 -79 50 -119q9 -7 26 -18t24 -17t13.5 -17.5t6.5 -27.5
q0 -59 -85 -59q-27 0 -79 2.5t-81 2.5q-35 0 -82.5 -2.5t-79.5 -2.5q-60 0 -60 56q0 18 4.5 36.5t12.5 39.5t9 25q16 46 29.5 172.5t13.5 256.5q0 273 -181 273q-69 0 -130 -56t-61 -135v-381q0 -60 8.5 -90t31.5 -54q8 -9 28 -23.5t28 -27t8 -33.5q0 -59 -80 -59
q-30 0 -86 2.5t-82 2.5q-33 0 -97 -2.5t-102 -2.5q-67 0 -67 56q0 15 7 29.5t14 22t20.5 19.5t16.5 15q56 59 56 159v442q0 69 -68 98q-20 12 -30 23.5t-10 30.5q0 15 6.5 26t22 20.5t29 15t40.5 15.5t44 18q30 14 62 29.5t46 22.5t29 12t28 5q29 0 46 -15.5t27 -53.5
q14 -71 25 -79q3 -3 7 -3q6 0 36 24.5t68.5 54t103.5 54t131 24.5q166 0 249 -100.5t83 -288.5z" />
    <glyph glyph-name="uni0145" unicode="&#x145;" horiz-adv-x="1482" 
d="M244 1398q17 0 82 -2.5t93 -2.5q90 0 122 -16q9 -4 17.5 -10.5t15 -12.5t18 -19t18.5 -22t24 -30t28 -35l440 -599q20 -25 37.5 -43.5t27 -27t12.5 -8.5q5 0 7 3.5t4 22t2.5 55t0.5 103.5q0 359 -41 436q-13 32 -39.5 58.5t-44.5 46t-18 43.5q0 60 72 60q28 0 82 -2.5
t72 -2.5q23 0 75.5 2.5t75.5 2.5q70 0 70 -61q0 -21 -9.5 -36.5t-23.5 -28.5t-28.5 -29t-26.5 -46.5t-15 -72.5q-6 -66 -6 -342q1 -302 9 -468.5t8 -199.5q0 -54 -46.5 -92t-118.5 -38q-43 0 -96 62l-609 805q-34 39 -40 39t-9 -6t-5.5 -29.5t-3 -65t-0.5 -119.5
q0 -168 12 -297t33 -172q14 -34 41.5 -60t45.5 -44.5t18 -41.5q0 -60 -74 -60q-32 0 -85 2.5t-70 2.5q-22 0 -79.5 -2.5t-86.5 -2.5q-70 0 -70 59q0 21 11 36.5t27.5 28t33.5 28.5t30.5 46.5t16.5 72.5q7 84 7 459q0 328 -4 381q-5 55 -24 93t-38.5 54t-35.5 37t-16 47
q0 61 74 61zM775 -500q-16 0 -24.5 9t-8.5 22q0 11 25.5 52t25.5 78q0 9 -12 23t-26 27.5t-26 39t-12 54.5q0 53 36.5 84t88.5 31q65 0 102.5 -39.5t37.5 -109.5q0 -95 -72 -183t-135 -88z" />
    <glyph glyph-name="uni0146" unicode="&#x146;" horiz-adv-x="1264" 
d="M1185 671q0 -97 -14.5 -245.5t-14.5 -172.5q0 -79 50 -119q9 -7 26 -18t24 -17t13.5 -17.5t6.5 -27.5q0 -59 -85 -59q-27 0 -79 2.5t-81 2.5q-35 0 -82.5 -2.5t-79.5 -2.5q-60 0 -60 56q0 18 4.5 36.5t12.5 39.5t9 25q16 46 29.5 172.5t13.5 256.5q0 273 -181 273
q-69 0 -130 -56t-61 -135v-381q0 -60 8.5 -90t31.5 -54q8 -9 28 -23.5t28 -27t8 -33.5q0 -59 -80 -59q-30 0 -86 2.5t-82 2.5q-33 0 -97 -2.5t-102 -2.5q-67 0 -67 56q0 15 7 29.5t14 22t20.5 19.5t16.5 15q56 59 56 159v442q0 69 -68 98q-20 12 -30 23.5t-10 30.5
q0 15 6.5 26t22 20.5t29 15t40.5 15.5t44 18q30 14 62 29.5t46 22.5t29 12t28 5q29 0 46 -15.5t27 -53.5q14 -71 25 -79q3 -3 7 -3q6 0 36 24.5t68.5 54t103.5 54t131 24.5q166 0 249 -100.5t83 -288.5zM606 -500q-16 0 -24.5 9t-8.5 22q0 11 25.5 52t25.5 78q0 9 -12 23
t-26 27.5t-26 39t-12 54.5q0 53 36.5 84t88.5 31q65 0 102.5 -39.5t37.5 -109.5q0 -95 -72 -183t-135 -88z" />
    <glyph glyph-name="Ncaron" unicode="&#x147;" horiz-adv-x="1482" 
d="M567 1842q71 0 199 -78q51 -30 64 -30q12 0 60 29q122 79 193 79q20 0 32.5 -10t12.5 -28q0 -17 -31 -55q-62 -67 -147 -183q-25 -33 -39 -48.5t-37 -28.5t-50 -13q-36 0 -61.5 21.5t-60.5 68.5q-67 91 -149 181q-32 33 -32 57q0 18 13 28t33 10zM244 1398q17 0 82 -2.5
t93 -2.5q90 0 122 -16q9 -4 17.5 -10.5t15 -12.5t18 -19t18.5 -22t24 -30t28 -35l440 -599q20 -25 37.5 -43.5t27 -27t12.5 -8.5q5 0 7 3.5t4 22t2.5 55t0.5 103.5q0 359 -41 436q-13 32 -39.5 58.5t-44.5 46t-18 43.5q0 60 72 60q28 0 82 -2.5t72 -2.5q23 0 75.5 2.5
t75.5 2.5q70 0 70 -61q0 -21 -9.5 -36.5t-23.5 -28.5t-28.5 -29t-26.5 -46.5t-15 -72.5q-6 -66 -6 -342q1 -302 9 -468.5t8 -199.5q0 -54 -46.5 -92t-118.5 -38q-43 0 -96 62l-609 805q-34 39 -40 39t-9 -6t-5.5 -29.5t-3 -65t-0.5 -119.5q0 -168 12 -297t33 -172
q14 -34 41.5 -60t45.5 -44.5t18 -41.5q0 -60 -74 -60q-32 0 -85 2.5t-70 2.5q-22 0 -79.5 -2.5t-86.5 -2.5q-70 0 -70 59q0 21 11 36.5t27.5 28t33.5 28.5t30.5 46.5t16.5 72.5q7 84 7 459q0 328 -4 381q-5 55 -24 93t-38.5 54t-35.5 37t-16 47q0 61 74 61z" />
    <glyph glyph-name="ncaron" unicode="&#x148;" horiz-adv-x="1264" 
d="M467 1540q59 0 168 -102q9 -9 21.5 -22.5t19.5 -19.5t12 -6t11.5 5.5t19.5 19.5t21 22q105 103 162 103q15 0 25.5 -8.5t10.5 -24.5t-27 -53q-52 -69 -124 -210q-2 -3 -9 -16t-9 -16.5t-8.5 -14t-9.5 -13.5t-10 -11t-12 -10.5t-12.5 -6.5t-15.5 -5t-17 -1q-19 0 -34 6.5
t-28 22.5t-20 28t-20 37q-48 103 -125 210q-27 39 -27 53q0 16 10.5 24.5t26.5 8.5zM1185 671q0 -97 -14.5 -245.5t-14.5 -172.5q0 -79 50 -119q9 -7 26 -18t24 -17t13.5 -17.5t6.5 -27.5q0 -59 -85 -59q-27 0 -79 2.5t-81 2.5q-35 0 -82.5 -2.5t-79.5 -2.5q-60 0 -60 56
q0 18 4.5 36.5t12.5 39.5t9 25q16 46 29.5 172.5t13.5 256.5q0 273 -181 273q-69 0 -130 -56t-61 -135v-381q0 -60 8.5 -90t31.5 -54q8 -9 28 -23.5t28 -27t8 -33.5q0 -59 -80 -59q-30 0 -86 2.5t-82 2.5q-33 0 -97 -2.5t-102 -2.5q-67 0 -67 56q0 15 7 29.5t14 22
t20.5 19.5t16.5 15q56 59 56 159v442q0 69 -68 98q-20 12 -30 23.5t-10 30.5q0 15 6.5 26t22 20.5t29 15t40.5 15.5t44 18q30 14 62 29.5t46 22.5t29 12t28 5q29 0 46 -15.5t27 -53.5q14 -71 25 -79q3 -3 7 -3q6 0 36 24.5t68.5 54t103.5 54t131 24.5q166 0 249 -100.5
t83 -288.5z" />
    <glyph glyph-name="Omacron" unicode="&#x14c;" horiz-adv-x="1495" 
d="M1037 1526h-537q-55 0 -55 48q0 60 22 112q11 29 32.5 39.5t63.5 10.5h544q52 0 52 -48q0 -60 -23 -111q-12 -29 -34 -40t-65 -11zM111 685q0 217 86 385.5t242 262t358 93.5q142 0 268 -51t222.5 -146t152.5 -241t56 -325q0 -136 -34.5 -250.5t-96.5 -196t-148 -139
t-188.5 -85t-217.5 -27.5q-215 0 -375 93t-242.5 255t-82.5 372zM752 1246q-106 0 -182 -108.5t-76 -322.5q0 -247 85 -437q51 -105 127.5 -158t156.5 -53q119 0 197.5 94t78.5 283q0 115 -27.5 241t-73.5 223q-51 111 -127.5 174.5t-158.5 63.5z" />
    <glyph glyph-name="omacron" unicode="&#x14d;" horiz-adv-x="1143" 
d="M818 1214h-465q-53 0 -53 48q0 54 22 106q12 26 33 36.5t61 10.5h471q29 0 39.5 -12.5t10.5 -34.5q0 -56 -22 -105q-12 -26 -34 -37.5t-63 -11.5zM92 511q0 243 144.5 396t369.5 153q107 0 204 -38t171.5 -108.5t118.5 -179.5t44 -241q0 -125 -41.5 -224t-114 -161.5
t-166.5 -95t-204 -32.5q-238 0 -382 148.5t-144 382.5zM579 900q-74 0 -122 -68.5t-48 -211.5q0 -186 58 -311q34 -70 84 -106t107 -36q78 0 130.5 61.5t52.5 187.5q0 78 -19 167t-51 157q-38 78 -88.5 119t-103.5 41z" />
    <glyph glyph-name="Obreve" unicode="&#x14e;" horiz-adv-x="1495" 
d="M803 1479q-78 0 -137 24t-93 64.5t-50.5 87.5t-16.5 98q0 75 38 75q5 0 10 -2t8 -4t7 -7t6 -8.5t6.5 -11.5t7.5 -12q79 -110 214 -110q137 0 212 110q9 16 14 24t14 14.5t19 6.5q37 0 37 -75q0 -51 -16.5 -98t-49.5 -87.5t-92.5 -64.5t-137.5 -24zM111 685
q0 217 86 385.5t242 262t358 93.5q142 0 268 -51t222.5 -146t152.5 -241t56 -325q0 -136 -34.5 -250.5t-96.5 -196t-148 -139t-188.5 -85t-217.5 -27.5q-215 0 -375 93t-242.5 255t-82.5 372zM752 1246q-106 0 -182 -108.5t-76 -322.5q0 -247 85 -437q51 -105 127.5 -158
t156.5 -53q119 0 197.5 94t78.5 283q0 115 -27.5 241t-73.5 223q-51 111 -127.5 174.5t-158.5 63.5z" />
    <glyph glyph-name="obreve" unicode="&#x14f;" horiz-adv-x="1143" 
d="M617 1158q-68 0 -121 25.5t-83.5 67.5t-45.5 89.5t-15 97.5q0 74 34 74q14 0 22 -11t20 -37q70 -112 189 -112q122 0 190 112q8 18 12.5 26t12.5 15t17 7q35 0 35 -74q0 -68 -26 -129.5t-88.5 -106t-152.5 -44.5zM92 511q0 243 144.5 396t369.5 153q107 0 204 -38
t171.5 -108.5t118.5 -179.5t44 -241q0 -125 -41.5 -224t-114 -161.5t-166.5 -95t-204 -32.5q-238 0 -382 148.5t-144 382.5zM579 900q-74 0 -122 -68.5t-48 -211.5q0 -186 58 -311q34 -70 84 -106t107 -36q78 0 130.5 61.5t52.5 187.5q0 78 -19 167t-51 157
q-38 78 -88.5 119t-103.5 41z" />
    <glyph glyph-name="Ohungarumlaut" unicode="&#x150;" horiz-adv-x="1495" 
d="M556 1579q58 62 111 148q16 28 28 45t31 37t42 29.5t50 9.5q53 0 83 -31.5t30 -78.5q0 -74 -98 -149q-60 -46 -136.5 -79.5t-123.5 -33.5q-23 0 -38 9.5t-15 26.5q0 23 36 67zM907 1576q72 77 119 151q23 36 41 59t50 42.5t68 19.5q51 0 80.5 -30.5t29.5 -76.5
q0 -77 -103 -154q-61 -45 -139.5 -78t-129.5 -33q-54 0 -54 37q0 12 7 23t31 40zM111 685q0 217 86 385.5t242 262t358 93.5q142 0 268 -51t222.5 -146t152.5 -241t56 -325q0 -136 -34.5 -250.5t-96.5 -196t-148 -139t-188.5 -85t-217.5 -27.5q-215 0 -375 93t-242.5 255
t-82.5 372zM752 1246q-106 0 -182 -108.5t-76 -322.5q0 -247 85 -437q51 -105 127.5 -158t156.5 -53q119 0 197.5 94t78.5 283q0 115 -27.5 241t-73.5 223q-51 111 -127.5 174.5t-158.5 63.5z" />
    <glyph glyph-name="ohungarumlaut" unicode="&#x151;" horiz-adv-x="1143" 
d="M398 1248q34 79 57 166q6 24 11 39.5t15 37.5t22 35t32 22.5t44 9.5q52 0 78.5 -32.5t26.5 -82.5q0 -59 -50 -127q-42 -60 -108.5 -112.5t-103.5 -52.5q-20 0 -30.5 10.5t-10.5 23.5q0 19 17 63zM703 1243q47 92 75 171q12 32 20.5 50t25.5 43t40.5 37t53.5 12
q48 0 74 -30t26 -74q0 -61 -63 -139q-48 -60 -119 -111t-112 -51q-44 0 -44 37q0 7 23 55zM92 511q0 243 144.5 396t369.5 153q107 0 204 -38t171.5 -108.5t118.5 -179.5t44 -241q0 -125 -41.5 -224t-114 -161.5t-166.5 -95t-204 -32.5q-238 0 -382 148.5t-144 382.5z
M579 900q-74 0 -122 -68.5t-48 -211.5q0 -186 58 -311q34 -70 84 -106t107 -36q78 0 130.5 61.5t52.5 187.5q0 78 -19 167t-51 157q-38 78 -88.5 119t-103.5 41z" />
    <glyph glyph-name="OE" unicode="&#x152;" horiz-adv-x="1967" 
d="M1370 1393q118 0 242.5 2.5t145.5 2.5q56 0 78.5 -20t33.5 -87q2 -13 14 -85.5t21 -118.5q13 -65 13 -88q0 -30 -16 -45t-40 -15q-15 0 -26.5 6t-23.5 23t-16.5 25t-17.5 33q-33 66 -55.5 99t-60.5 58.5t-88 33t-134 7.5q-105 0 -135.5 -24t-30.5 -108v-159
q0 -61 11 -80.5t42 -19.5t56 3t43 6.5t34 12.5t24.5 14.5t19.5 19t15 19.5t13.5 22.5t13.5 22.5q21 30 47 30q29 0 42 -28.5t13 -96.5v-296q0 -42 -11.5 -63t-38.5 -21q-19 0 -34 11.5t-21 23t-15 31.5q-15 34 -25 49.5t-31 32t-53.5 22t-84.5 5.5q-34 0 -47 -21.5
t-13 -77.5v-217q0 -54 8.5 -85t32.5 -47.5t55.5 -21t89.5 -4.5q112 0 180 23.5t107.5 68.5t79.5 132q33 72 74 72q50 0 50 -86q0 -26 -17.5 -146.5t-21.5 -170.5q-3 -46 -23 -61.5t-75 -15.5q-25 0 -166 2.5t-237 2.5q-116 0 -312 -6.5t-257 -6.5q-115 0 -219.5 24.5
t-198.5 79t-163 134.5t-109.5 199t-40.5 264q0 328 181.5 522.5t482.5 194.5q67 0 253.5 -6t341.5 -6zM955 355v698q0 99 -47 141t-118 42q-86 0 -149 -42.5t-97 -114.5t-50 -153t-16 -173q0 -119 22.5 -220.5t67 -181.5t118.5 -125.5t171 -45.5q50 0 74 39.5t24 135.5z" />
    <glyph glyph-name="oe" unicode="&#x153;" horiz-adv-x="1760" 
d="M1660 552q-77 -45 -216.5 -69t-260.5 -29q-28 -1 -28 -21q0 -31 15 -66t44 -69.5t81 -57t117 -22.5q178 0 281 137q23 23 40 23q30 0 30 -59q0 -41 -17.5 -87t-54 -91.5t-87 -82t-123 -59t-155.5 -22.5q-199 0 -324 122q-22 22 -32 22q-12 0 -34 -21q-57 -57 -144 -88.5
t-179 -31.5q-235 0 -378 148.5t-143 382.5q0 243 143.5 396t365.5 153q100 0 191 -39t160 -111q17 -16 27 -16q9 0 28 18q140 148 341 148q99 0 178.5 -34.5t125.5 -90t70 -119t24 -127.5q0 -91 -86 -137zM1467 736q0 71 -42.5 119t-106.5 48q-87 0 -143.5 -75.5
t-56.5 -174.5q0 -61 40 -61q58 0 150.5 23.5t133.5 60.5q25 24 25 60zM577 900q-72 0 -119.5 -68t-47.5 -211q0 -189 57 -312q68 -141 186 -141q76 0 126.5 61t50.5 187q0 79 -18 167.5t-49 156.5q-38 78 -86 119t-100 41z" />
    <glyph glyph-name="Racute" unicode="&#x154;" horiz-adv-x="1443" 
d="M626 1584q69 60 139 148q41 52 79.5 81t88.5 29q54 0 86.5 -31t32.5 -76q0 -89 -124 -163q-69 -40 -152 -68t-135 -28q-60 0 -60 38q0 17 8.5 30.5t36.5 39.5zM608 472v-160q0 -58 16.5 -95t46.5 -69q9 -10 31.5 -29.5t32.5 -34.5t10 -33q0 -27 -21 -41.5t-58 -14.5
q-29 0 -105 2.5t-110 2.5q-38 0 -112 -2.5t-96 -2.5q-81 0 -81 56q0 19 10 34t25 27t31 25.5t29.5 38t17.5 56.5q13 84 13 496q0 319 -4 378q-4 55 -23 93t-39 54t-36 37t-16 47q0 61 74 61q49 0 122.5 -2.5t135.5 -2.5q54 0 170 3.5t183 3.5q227 0 353.5 -93.5
t126.5 -280.5q0 -243 -299 -347q-13 -7 -13 -14q0 -11 14 -18q98 -53 170 -138t143 -214q67 -124 116 -163q10 -8 26 -20.5t21.5 -18t10.5 -16.5t5 -25q0 -57 -64 -57q-21 0 -96 2.5t-100 2.5q-50 0 -118.5 -2.5t-77.5 -2.5q-37 0 -60 17t-23 43q0 16 12.5 44.5t12.5 54.5
q0 85 -70 208.5t-142 175.5q-49 31 -122 31t-73 -97zM976 984q0 106 -69 170t-178 64q-82 0 -101 -22.5t-19 -116.5v-200q0 -64 25.5 -92t106.5 -28q108 0 171.5 59.5t63.5 165.5z" />
    <glyph glyph-name="racute" unicode="&#x155;" horiz-adv-x="960" 
d="M453 1243q43 85 74 171q11 31 20 50t26 43.5t40.5 36.5t53.5 12q48 0 73.5 -30t25.5 -74q0 -64 -61 -139q-49 -60 -120 -111t-113 -51q-43 0 -43 37q0 5 24 55zM650 823q-59 0 -101.5 -64.5t-42.5 -142.5v-321q0 -60 15.5 -92.5t58.5 -65.5q10 -7 37 -20.5t41 -27.5
t14 -35q0 -59 -79 -59q-24 0 -99.5 2.5t-131.5 2.5q-33 0 -93 -2.5t-106 -2.5q-67 0 -67 56q0 15 7 29.5t14 22t20.5 19.5t16.5 15q56 59 56 159v442q0 69 -68 98q-20 12 -30 23.5t-10 30.5q0 15 6.5 26t22 20.5t29 15t40.5 15.5t44 18q30 14 62 29.5t46 22.5t29 12t28 5
q29 0 46 -15.5t27 -53.5q14 -71 25 -79q3 -3 7 -3q6 0 31.5 24.5t57.5 54t86.5 54t110.5 24.5q84 0 139.5 -54t55.5 -168q0 -87 -54.5 -157.5t-128.5 -70.5q-43 0 -57.5 21.5t-25.5 75.5q-2 11 -3 16q-20 100 -76 100z" />
    <glyph glyph-name="uni0156" unicode="&#x156;" horiz-adv-x="1443" 
d="M608 472v-160q0 -58 16.5 -95t46.5 -69q9 -10 31.5 -29.5t32.5 -34.5t10 -33q0 -27 -21 -41.5t-58 -14.5q-29 0 -105 2.5t-110 2.5q-38 0 -112 -2.5t-96 -2.5q-81 0 -81 56q0 19 10 34t25 27t31 25.5t29.5 38t17.5 56.5q13 84 13 496q0 319 -4 378q-4 55 -23 93t-39 54
t-36 37t-16 47q0 61 74 61q49 0 122.5 -2.5t135.5 -2.5q54 0 170 3.5t183 3.5q227 0 353.5 -93.5t126.5 -280.5q0 -243 -299 -347q-13 -7 -13 -14q0 -11 14 -18q98 -53 170 -138t143 -214q67 -124 116 -163q10 -8 26 -20.5t21.5 -18t10.5 -16.5t5 -25q0 -57 -64 -57
q-21 0 -96 2.5t-100 2.5q-50 0 -118.5 -2.5t-77.5 -2.5q-37 0 -60 17t-23 43q0 16 12.5 44.5t12.5 54.5q0 85 -70 208.5t-142 175.5q-49 31 -122 31t-73 -97zM976 984q0 106 -69 170t-178 64q-82 0 -101 -22.5t-19 -116.5v-200q0 -64 25.5 -92t106.5 -28q108 0 171.5 59.5
t63.5 165.5zM753 -500q-16 0 -24.5 9t-8.5 22q0 11 25 52t25 78q0 9 -12 23t-26 27.5t-26 39t-12 54.5q0 53 36.5 84t88.5 31q65 0 102.5 -39.5t37.5 -109.5q0 -95 -71.5 -183t-134.5 -88z" />
    <glyph glyph-name="uni0157" unicode="&#x157;" horiz-adv-x="960" 
d="M650 823q-59 0 -101.5 -64.5t-42.5 -142.5v-321q0 -60 15.5 -92.5t58.5 -65.5q10 -7 37 -20.5t41 -27.5t14 -35q0 -59 -79 -59q-24 0 -99.5 2.5t-131.5 2.5q-33 0 -93 -2.5t-106 -2.5q-67 0 -67 56q0 15 7 29.5t14 22t20.5 19.5t16.5 15q56 59 56 159v442q0 69 -68 98
q-20 12 -30 23.5t-10 30.5q0 15 6.5 26t22 20.5t29 15t40.5 15.5t44 18q30 14 62 29.5t46 22.5t29 12t28 5q29 0 46 -15.5t27 -53.5q14 -71 25 -79q3 -3 7 -3q6 0 31.5 24.5t57.5 54t86.5 54t110.5 24.5q84 0 139.5 -54t55.5 -168q0 -87 -54.5 -157.5t-128.5 -70.5
q-43 0 -57.5 21.5t-25.5 75.5q-2 11 -3 16q-20 100 -76 100zM286 -500q-16 0 -24.5 9t-8.5 22q0 11 25 52t25 78q0 9 -12 23t-26 27.5t-26 39t-12 54.5q0 53 36.5 84t88.5 31q65 0 103 -39.5t38 -109.5q0 -95 -72 -183t-135 -88z" />
    <glyph glyph-name="Rcaron" unicode="&#x158;" horiz-adv-x="1443" 
d="M502 1842q70 0 198 -78q51 -30 65 -30q11 0 59 29q48 31 103.5 55t90.5 24q20 0 32.5 -10t12.5 -28q0 -8 -5 -18.5t-9 -15t-18 -21.5q-57 -62 -146 -183q-25 -33 -39 -48.5t-37 -28.5t-50 -13q-36 0 -61.5 21.5t-60.5 68.5q-63 86 -150 181q-31 32 -31 57q0 18 13 28
t33 10zM608 472v-160q0 -58 16.5 -95t46.5 -69q9 -10 31.5 -29.5t32.5 -34.5t10 -33q0 -27 -21 -41.5t-58 -14.5q-29 0 -105 2.5t-110 2.5q-38 0 -112 -2.5t-96 -2.5q-81 0 -81 56q0 19 10 34t25 27t31 25.5t29.5 38t17.5 56.5q13 84 13 496q0 319 -4 378q-4 55 -23 93
t-39 54t-36 37t-16 47q0 61 74 61q49 0 122.5 -2.5t135.5 -2.5q54 0 170 3.5t183 3.5q227 0 353.5 -93.5t126.5 -280.5q0 -243 -299 -347q-13 -7 -13 -14q0 -11 14 -18q98 -53 170 -138t143 -214q67 -124 116 -163q10 -8 26 -20.5t21.5 -18t10.5 -16.5t5 -25q0 -57 -64 -57
q-21 0 -96 2.5t-100 2.5q-50 0 -118.5 -2.5t-77.5 -2.5q-37 0 -60 17t-23 43q0 16 12.5 44.5t12.5 54.5q0 85 -70 208.5t-142 175.5q-49 31 -122 31t-73 -97zM976 984q0 106 -69 170t-178 64q-82 0 -101 -22.5t-19 -116.5v-200q0 -64 25.5 -92t106.5 -28q108 0 171.5 59.5
t63.5 165.5z" />
    <glyph glyph-name="rcaron" unicode="&#x159;" horiz-adv-x="960" 
d="M312 1540q59 0 168 -102q9 -8 22 -22t20 -20t12 -6t11.5 5.5t19.5 19.5t21 22q105 103 162 103q15 0 25 -8.5t10 -24.5q0 -17 -26 -53q-52 -69 -124 -210q-1 -2 -8 -14.5t-8.5 -14.5t-7.5 -13t-8.5 -13t-9 -10t-10 -10.5l-10.5 -7.5t-12.5 -6.5t-13.5 -3t-16 -1.5
q-19 0 -34 6.5t-28 22.5t-20 28t-20 37q-48 103 -125 210q-27 39 -27 53q0 16 10.5 24.5t26.5 8.5zM650 823q-59 0 -101.5 -64.5t-42.5 -142.5v-321q0 -60 15.5 -92.5t58.5 -65.5q10 -7 37 -20.5t41 -27.5t14 -35q0 -59 -79 -59q-24 0 -99.5 2.5t-131.5 2.5q-33 0 -93 -2.5
t-106 -2.5q-67 0 -67 56q0 15 7 29.5t14 22t20.5 19.5t16.5 15q56 59 56 159v442q0 69 -68 98q-20 12 -30 23.5t-10 30.5q0 15 6.5 26t22 20.5t29 15t40.5 15.5t44 18q30 14 62 29.5t46 22.5t29 12t28 5q29 0 46 -15.5t27 -53.5q14 -71 25 -79q3 -3 7 -3q6 0 31.5 24.5
t57.5 54t86.5 54t110.5 24.5q84 0 139.5 -54t55.5 -168q0 -87 -54.5 -157.5t-128.5 -70.5q-43 0 -57.5 21.5t-25.5 75.5q-2 11 -3 16q-20 100 -76 100z" />
    </font>
</defs>
</svg>
