<?xml version="1.0" standalone="no"?>
<!DOCTYPE svg PUBLIC "-//W3C//DTD SVG 1.1//EN" "http://www.w3.org/Graphics/SVG/1.1/DTD/svg11.dtd" >
<svg xmlns="http://www.w3.org/2000/svg" xmlns:xlink="http://www.w3.org/1999/xlink" version="1.1">
<metadata>
Created by FontForge 20201107 at Wed Mar 18 07:27:55 2026
 By www-data
Copyright (c) 2020, 2022, The Type Founders, LLC. All rights reserved.
</metadata>
<defs>
<font id="Gelica-SemiBoldItalic" horiz-adv-x="1384" >
  <font-face 
    font-family="Gelica SemiBold Italic"
    font-weight="600"
    font-style="italic"
    font-stretch="normal"
    units-per-em="2048"
    panose-1="0 0 0 0 0 0 0 0 0 0"
    ascent="1638"
    descent="-410"
    x-height="1060"
    cap-height="1398"
    bbox="-743 -500 2467 1872"
    underline-thickness="133"
    underline-position="-200"
    unicode-range="U+000D-F6C3"
  />
<missing-glyph horiz-adv-x="876" 
d="M1012 1288l-228 -1618q-9 -59 -36.5 -81.5t-81.5 -22.5h-650q-46 0 -68 16.5t-22 57.5q0 19 2 30l228 1618q9 59 36 82t80 23h650q47 0 69.5 -16.5t22.5 -57.5q0 -20 -2 -31zM483 584l367 522h-584zM522 492l217 -523l148 1045zM203 1014l-148 -1045l365 523zM92 -123
h584l-217 522z" />
    <glyph glyph-name=".notdef" horiz-adv-x="876" 
d="M1012 1288l-228 -1618q-9 -59 -36.5 -81.5t-81.5 -22.5h-650q-46 0 -68 16.5t-22 57.5q0 19 2 30l228 1618q9 59 36 82t80 23h650q47 0 69.5 -16.5t22.5 -57.5q0 -20 -2 -31zM483 584l367 522h-584zM522 492l217 -523l148 1045zM203 1014l-148 -1045l365 523zM92 -123
h584l-217 522z" />
    <glyph glyph-name=".null" horiz-adv-x="0" 
 />
    <glyph glyph-name="nonmarkingreturn" horiz-adv-x="682" 
 />
    <glyph glyph-name="NULL" horiz-adv-x="0" 
 />
    <glyph glyph-name="NULL" horiz-adv-x="0" 
 />
    <glyph glyph-name="CR" unicode="&#xd;" horiz-adv-x="555" 
 />
    <glyph glyph-name="space" unicode=" " horiz-adv-x="487" 
 />
    <glyph glyph-name="exclam" unicode="!" horiz-adv-x="568" 
d="M788 1276q0 -56 -37 -156.5t-98.5 -263t-100.5 -317.5q-23 -77 -70 -77q-45 0 -59 92q-10 70 -10 189q0 161 17.5 322.5t50.5 239.5q58 122 172 122q63 0 99 -41t36 -110zM617 176q0 -84 -57.5 -136t-136.5 -52q-65 0 -108 38.5t-43 109.5q0 86 60 140t135 54
q63 0 106.5 -41t43.5 -113z" />
    <glyph glyph-name="quotedbl" unicode="&#x22;" horiz-adv-x="847" 
d="M639 804q-51 0 -58 84q-8 82 -8 212q0 82 5 124q10 98 40 150.5t105 52.5q58 0 84.5 -39t26.5 -103q0 -46 -37.5 -179t-75.5 -224q-8 -17 -13.5 -28t-15.5 -24t-23.5 -19.5t-29.5 -6.5zM1001 804q-51 0 -58 84q-7 72 -7 212q0 91 4 124q10 98 40 150.5t105 52.5
q58 0 84.5 -39t26.5 -103q0 -46 -37.5 -179t-75.5 -224q-8 -17 -13.5 -28t-15.5 -24t-23.5 -19.5t-29.5 -6.5z" />
    <glyph glyph-name="numbersign" unicode="#" horiz-adv-x="1128" 
d="M1139 402h-122q-101 -391 -108 -403q-11 -24 -54 -24q-75 0 -75 38q0 10 8 40l89 349h-153q-101 -391 -108 -403q-11 -24 -54 -24q-76 0 -76 38q0 3 2 9.5t4.5 15.5t3.5 15l88 349h-146q-20 0 -20 21q0 14 8.5 48t18.5 56q8 20 17.5 26.5t30.5 6.5h132q20 83 64 251h-145
q-21 0 -21 20q0 13 9 48t19 58q8 20 17.5 26t30.5 6h130q101 388 117 424q10 20 59 20q69 0 69 -34q0 -9 -10 -46l-95 -364h153q101 388 117 424q8 20 60 20q69 0 69 -34q0 -4 -5.5 -21.5t-6.5 -24.5l-94 -364h137q20 0 20 -20q0 -45 -27 -106q-9 -20 -18.5 -26t-30.5 -6
h-121q-7 -27 -64 -251h137q18 0 18 -20q0 -45 -25 -105q-9 -20 -19 -26.5t-30 -6.5zM829 811q-7 -27 -64 -251h153q20 83 64 251h-153z" />
    <glyph glyph-name="dollar" unicode="$" horiz-adv-x="1126" 
d="M978 1538q0 -4 -20 -131q209 -14 286 -122q38 -55 38 -165q0 -86 -21.5 -124.5t-54.5 -38.5q-12 0 -22.5 5.5t-20 18t-16 23.5t-17 31t-17.5 31q-82 129 -182 167q-3 -17 -66 -389q69 -32 116 -56.5t103 -63.5t89.5 -77.5t56.5 -93t23 -115.5q0 -100 -46.5 -183
t-123 -137t-169.5 -85t-191 -36l-18 -109q-4 -27 -35.5 -47t-69.5 -20q-18 0 -25.5 7.5t-7.5 24.5q0 9 23 150q-69 11 -129.5 38t-102.5 62t-72 76t-44.5 80.5t-14.5 74.5q0 29 10 46.5t28 17.5q25 0 68 -59q5 -7 8 -10q94 -133 275 -158l70 421q-60 31 -103 56.5t-90 62.5
t-76 75t-48 89t-19 108q0 170 130.5 286t343.5 136l21 107q6 23 36 43.5t67 20.5q30 0 30 -38zM595 1074q0 -52 35 -91t108 -79l60 348q-90 -6 -146.5 -55t-56.5 -123zM967 357q0 56 -37.5 94t-116.5 78q-12 -72 -32.5 -193.5t-28.5 -166.5q101 11 158 62t57 126z" />
    <glyph glyph-name="percent" unicode="%" horiz-adv-x="1536" 
d="M399 963q0 198 110.5 330t277.5 132q128 0 210 -84t82 -238q0 -106 -30.5 -192t-83.5 -140t-122 -83t-147 -29q-139 0 -218 82t-79 222zM1616 1322q-24 -36 -496 -661.5t-498 -658.5q-24 -28 -53 -28t-50 15.5t-21 35.5q0 16 14 38q11 18 229 305.5t462.5 611.5
t304.5 409q19 26 58 26q26 0 45 -15.5t19 -36.5q0 -19 -14 -41zM779 1307q-40 0 -79 -56.5t-63 -142t-24 -168.5q0 -73 24.5 -112.5t71.5 -39.5q42 0 80 52.5t60 134.5t22 168q0 76 -23.5 120t-68.5 44zM1056 291q0 198 110.5 330.5t277.5 132.5q127 0 209.5 -84.5
t82.5 -238.5q0 -106 -30.5 -191.5t-83.5 -140t-122 -83t-147 -28.5q-139 0 -218 81.5t-79 221.5zM1436 635q-40 0 -79 -56.5t-63 -142t-24 -168.5q0 -151 95 -151q64 0 113.5 111t49.5 243q0 76 -23.5 120t-68.5 44z" />
    <glyph glyph-name="ampersand" unicode="&#x26;" horiz-adv-x="1425" 
d="M527 1080q0 145 110 245t279 100q76 0 141 -23.5t106 -60t64 -80.5t23 -86q0 -61 -33 -61q-3 0 -6.5 1t-7 4t-6.5 5.5t-8 7.5l-8 8q-82 73 -183 73q-85 0 -143 -56.5t-58 -141.5q0 -69 42 -125q23 -32 23 -51q0 -14 -12 -24.5t-41 -22.5q-110 -47 -162.5 -123.5
t-52.5 -155.5q0 -125 95 -200t244 -75q144 0 239.5 72.5t95.5 179.5q0 55 -32.5 97t-91.5 42q-34 0 -63.5 -18t-42.5 -51q-7 -14 -10 -20.5t-11 -14t-17 -7.5q-36 0 -65.5 46.5t-29.5 115.5q0 110 79.5 180t204.5 70q40 0 119 -10t105 -10q54 0 54 41q0 15 -11 31t-11 25
q0 26 38 26q57 0 114.5 -54t57.5 -137q0 -95 -56.5 -144t-134.5 -49q-27 0 -57.5 5.5t-31.5 5.5q-10 0 -10 -7q0 -3 10 -12q85 -75 85 -203q0 -98 -48.5 -185t-133.5 -150.5t-207 -100.5t-261 -37q-279 0 -437 123.5t-158 315.5q0 145 87.5 257.5t249.5 186.5q45 20 45 35
q0 14 -18 39q-21 28 -36.5 72t-15.5 86z" />
    <glyph glyph-name="quotesingle" unicode="'" horiz-adv-x="485" 
d="M639 804q-51 0 -58 84q-8 82 -8 212q0 82 5 124q10 98 40 150.5t105 52.5q58 0 84.5 -39t26.5 -103q0 -46 -37.5 -179t-75.5 -224q-8 -17 -13.5 -28t-15.5 -24t-23.5 -19.5t-29.5 -6.5z" />
    <glyph glyph-name="parenleft" unicode="(" horiz-adv-x="763" 
d="M666 365q0 -173 35 -328t106 -246q8 -10 21.5 -25.5t19.5 -23.5t11.5 -19t5.5 -22q0 -22 -16 -34.5t-44 -12.5q-81 0 -170.5 71t-151.5 185q-47 88 -75.5 215t-28.5 268q0 241 74.5 460.5t214.5 388.5q98 118 208.5 188t182.5 70q54 0 54 -36q0 -18 -8.5 -30t-35.5 -34.5
t-42 -36.5q-95 -91 -167 -217t-113 -260.5t-61 -265.5t-20 -255z" />
    <glyph glyph-name="parenright" unicode=")" horiz-adv-x="764" 
d="M452 790q0 173 -35.5 327.5t-106.5 245.5q-8 10 -21.5 26t-19.5 23.5t-11.5 19t-5.5 22.5q0 46 60 46q81 0 170.5 -71t150.5 -185q47 -87 75.5 -214t28.5 -268q0 -242 -74 -461.5t-214 -387.5q-98 -118 -208.5 -188.5t-182.5 -70.5q-54 0 -54 36q0 14 7 26.5t16.5 20.5
t29 24t33.5 30q95 91 167.5 217t113.5 261t61 266t20 255z" />
    <glyph glyph-name="asterisk" unicode="*" horiz-adv-x="888" 
d="M1111 1241q46 0 74 -29t28 -82q0 -41 -30.5 -71.5t-77.5 -30.5q-29 0 -90 22.5t-77 22.5q-32 0 -32 -23q0 -16 16 -33t38.5 -33t45.5 -34.5t39 -45.5t16 -58q0 -45 -33 -75t-76 -30q-48 0 -74.5 31.5t-29.5 75.5q-2 26 -5 104q-2 61 -29 61q-31 0 -47 -74
q-23 -73 -53.5 -106t-81.5 -33q-41 0 -72.5 30t-31.5 78q0 37 22 63.5t54 40t63.5 24t53.5 22.5t22 27q0 27 -36 29q-9 0 -35 0.5t-49 1.5t-38 2q-50 3 -76 35t-26 73q0 42 31.5 74t79.5 32q34 0 64 -24.5t47.5 -54t39.5 -54t42 -24.5q9 0 15 8.5t6 20.5q0 14 -16.5 74
t-16.5 91q0 46 29.5 75.5t74.5 29.5t77 -27.5t32 -77.5q0 -28 -15 -57.5t-33.5 -50.5t-33.5 -44.5t-15 -39.5q0 -23 21 -23q17 0 41 13.5t45 30t52 30t61 13.5z" />
    <glyph glyph-name="plus" unicode="+" horiz-adv-x="1047" 
d="M1165 569h-266l-46 -317q-3 -23 -22.5 -35t-70.5 -12q-59 0 -78.5 9t-19.5 32q0 27 43 323h-292q-30 0 -30 36q0 55 25 118q9 24 22 33t45 9h257l45 310q3 23 23 35t71 12q60 0 80 -9.5t20 -35.5q0 -24 -43 -312h300q32 0 32 -45q0 -27 -26 -109q-9 -24 -22.5 -33
t-46.5 -9z" />
    <glyph glyph-name="comma" unicode="," horiz-adv-x="528" 
d="M203 -332q-17 0 -28 10t-11 24t19 36.5t41 44t41 57t19 73.5q0 33 -22 66.5t-44 74t-22 91.5q0 84 54.5 134t126.5 50q71 0 118 -51t47 -141t-37 -179t-90 -151t-111 -100.5t-101 -38.5z" />
    <glyph glyph-name="hyphen" unicode="-" horiz-adv-x="696" 
d="M702 436h-399q-51 0 -51 43q0 20 11 57t30 69q18 30 40.5 41t65.5 11h405q48 0 48 -41q0 -23 -12.5 -61.5t-28.5 -65.5q-18 -29 -42 -41t-67 -12z" />
    <glyph glyph-name="period" unicode="." horiz-adv-x="524" 
d="M566 176q0 -84 -57.5 -136t-136.5 -52q-65 0 -108 38.5t-43 109.5q0 86 60 140t135 54q63 0 106.5 -41t43.5 -113z" />
    <glyph glyph-name="slash" unicode="/" horiz-adv-x="653" 
d="M846 1346q-18 -40 -336 -683.5t-328 -660.5q-18 -28 -58 -28q-30 0 -54.5 9.5t-24.5 26.5q0 12 9 31q11 27 330 671t339 679q5 9 9 13t16.5 7.5t32.5 3.5q30 0 53 -9.5t23 -26.5q0 -11 -11 -33z" />
    <glyph glyph-name="zero" unicode="0" horiz-adv-x="1217" 
d="M268 535q0 185 51.5 349.5t140.5 282t213 186t263 68.5q101 0 188 -38.5t153 -111t103.5 -186.5t37.5 -256q0 -203 -53.5 -368t-145 -269.5t-209.5 -160.5t-251 -56q-231 0 -361 151t-130 409zM921 1231q-75 0 -149 -103.5t-122 -272.5t-48 -344q0 -155 46.5 -242
t136.5 -87q79 0 151.5 94.5t117 255t44.5 340.5q0 163 -45 261t-132 98z" />
    <glyph glyph-name="one" unicode="1" horiz-adv-x="807" 
d="M792 1418q57 0 57 -51q0 -11 -2.5 -31t-8 -51t-11.5 -61.5t-14.5 -78.5t-15.5 -86q-110 -616 -110 -813q0 -37 25.5 -62t55.5 -36t55.5 -32t25.5 -49q0 -29 -22.5 -50.5t-59.5 -21.5q-35 0 -138 2.5t-136 2.5q-35 0 -152 -2.5t-150 -2.5q-32 0 -48 15.5t-16 40.5
q0 28 19.5 47.5t49 31.5t60.5 24.5t58 35.5t37 55q24 80 68.5 384.5t44.5 376.5q0 61 -29 77q-20 7 -51 7h-48q-28 0 -41.5 14.5t-13.5 34.5q0 29 19 45.5t64 37.5q98 43 201.5 95t154.5 76.5t72 24.5z" />
    <glyph glyph-name="two" unicode="2" horiz-adv-x="1126" 
d="M556 336q0 -10 25 -10q37 0 152.5 -23.5t161.5 -23.5q100 0 157 71q13 15 29 36.5t24.5 32.5t19 19.5t19.5 8.5q35 0 35 -48q0 -59 -10.5 -115.5t-35 -112.5t-60.5 -97.5t-92.5 -67.5t-126.5 -26q-76 0 -176.5 29.5t-193 59t-148.5 29.5q-30 0 -57.5 -17t-45.5 -37
t-46 -37t-58 -17q-55 0 -55 45q0 41 72 112l200 188q84 75 139.5 127.5t122 124.5t105 130.5t65 127.5t26.5 133q0 91 -54 138t-134 47q-83 0 -150.5 -45.5t-113.5 -115.5q-31 -35 -49 -35q-14 0 -23 13t-9 36q0 43 19.5 95.5t61 108t99 101t142 75t181.5 29.5
q174 0 287 -90.5t113 -252.5q0 -54 -16.5 -108.5t-33 -94t-63.5 -95.5t-69 -82t-90.5 -85t-87 -74t-98.5 -78q-29 -23 -44 -35q-23 -18 -46 -34.5t-34 -24.5t-20.5 -15.5t-12.5 -11.5t-3 -8z" />
    <glyph glyph-name="three" unicode="3" horiz-adv-x="1122" 
d="M706 899q34 30 90.5 76.5t80 67.5t23.5 26q0 7 -23 7q-33 1 -145.5 23.5t-164.5 22.5q-87 0 -145 -79q-13 -16 -30.5 -43.5t-29 -40t-24.5 -12.5q-38 0 -38 85q0 66 17.5 131.5t53.5 124.5t100 96t147 37q77 0 174.5 -29t182 -58t131.5 -29q31 0 54.5 15.5t35 34t32 34
t46.5 15.5q49 0 49 -48q0 -103 -261 -338q-31 -28 -63 -55t-49 -41t-32 -27t-20.5 -21t-5.5 -15q0 -8 23 -14q41 -14 81.5 -35.5t81 -56t71 -76t49.5 -98.5t19 -121q0 -141 -76.5 -251.5t-205.5 -169.5t-286 -59q-98 0 -184.5 26t-145.5 68t-101.5 93.5t-62.5 102t-20 94.5
q0 35 11 58t34 23q21 0 43 -34q44 -72 136.5 -128.5t213.5 -56.5q131 0 217 65.5t86 179.5q0 172 -226 237q-62 18 -62 60q0 10 3.5 19.5t8 17t17 19.5t21 19.5t31 26t37.5 31.5z" />
    <glyph glyph-name="four" unicode="4" horiz-adv-x="1167" 
d="M1202 1362q0 -23 -72.5 -404t-72.5 -420q0 -22 25 -22q48 0 88.5 9.5t65 19t35.5 9.5q39 0 39 -51q0 -42 -27.5 -117t-57.5 -113q-33 -44 -93 -44h-93q-33 0 -33 -132q0 -37 5 -67.5t5 -36.5q0 -57 -90 -86q-30 -9 -81 -16t-77 -7q-69 0 -69 109q0 30 12 113.5t12 93.5
t-1.5 15t-9 9.5t-23.5 4.5h-305q-72 0 -109 28q-41 28 -68 74t-27 86q0 66 111.5 219t267.5 319q153 164 338 316t244 152q61 0 61 -61zM465 528q0 -16 34 -16h240q31 0 40 37q17 104 37.5 204t31.5 150t11 61q0 19 -8 19q-24 0 -134 -122q-37 -41 -85.5 -97t-107.5 -134.5
t-59 -101.5z" />
    <glyph glyph-name="five" unicode="5" horiz-adv-x="1122" 
d="M1229 503q0 -235 -162.5 -380.5t-423.5 -145.5q-89 0 -171 24.5t-140.5 63.5t-102.5 86.5t-66 95.5t-22 89q0 82 50 82q16 0 45 -37q45 -70 133.5 -118t207.5 -48q143 0 221 70.5t78 194.5q0 109 -93 175t-253 66q-51 0 -100.5 -13.5t-61.5 -13.5q-13 0 -21 11t-8 27
q0 49 59.5 265.5t114.5 350.5q21 51 61 51q11 0 171.5 -17.5t265.5 -17.5q54 0 92.5 12t54 27t31 27t28.5 12q12 0 21 -11.5t9 -29.5q0 -52 -13 -101t-39.5 -92t-73 -69.5t-106.5 -26.5q-63 0 -191 20.5t-146 20.5q-20 0 -32 -11t-23 -39q-15 -43 -35.5 -113t-20.5 -92
q0 -17 8 -17l70 13q70 13 139 13q205 0 325 -114t120 -290z" />
    <glyph glyph-name="six" unicode="6" horiz-adv-x="1140" 
d="M252 514q0 196 60 368t159.5 288.5t229.5 183.5t269 67q77 0 140.5 -22.5t101.5 -57t58.5 -72t20.5 -71.5q0 -66 -39 -66q-10 0 -51 34q-71 63 -186 63q-77 0 -150 -44t-121 -106.5t-77 -126.5t-29 -108q0 -11 8 -11q6 0 47 35q52 43 126.5 73.5t151.5 30.5q71 0 128 -21
t95 -56t63.5 -84.5t37 -104.5t11.5 -116q0 -115 -41.5 -225t-115.5 -197t-188 -140t-249 -53q-200 0 -330 145.5t-130 393.5zM834 795q-98 0 -174 -109.5t-76 -268.5q0 -118 51 -185t122 -67q100 0 167.5 106t67.5 290q0 101 -40 167.5t-118 66.5z" />
    <glyph glyph-name="seven" unicode="7" horiz-adv-x="1042" 
d="M923 965q8 9 18 19.5t15.5 17t12.5 14t10.5 11.5t7.5 9l6 7.5t4 5.5t2.5 5t0.5 4q0 9 -23 9q-45 0 -185.5 27.5t-184.5 27.5q-94 0 -151 -79q-14 -18 -32.5 -46t-29 -39t-23.5 -11q-18 0 -28.5 20.5t-10.5 55.5q0 73 17.5 140t54 126.5t101.5 95.5t151 36q60 0 138 -19
t140.5 -42.5t132.5 -42.5t116 -19q29 0 52.5 17.5t38 38.5t39 38.5t54.5 17.5q23 0 39 -13t16 -37q0 -22 -12.5 -42.5t-43 -54t-42.5 -49.5q-194 -211 -374 -525q-183 -321 -271 -719q-10 -39 -27 -57t-47 -18q-49 0 -104.5 20t-96 58.5t-40.5 81.5q0 102 92 273t212.5 330
t254.5 307z" />
    <glyph glyph-name="eight" unicode="8" horiz-adv-x="1166" 
d="M166 347q0 79 32 151.5t106 140t183 110.5q-62 44 -106 117t-44 155q0 84 31 153.5t82.5 116.5t121 80t144.5 48t154 15q57 0 113 -10.5t109.5 -34t93.5 -57.5t64.5 -85t24.5 -112q0 -116 -66 -200t-160 -126q70 -47 113.5 -89t73.5 -108.5t30 -149.5q0 -120 -50.5 -216
t-136 -156t-194.5 -92t-230 -32q-118 0 -213 31t-154 84.5t-90.5 121t-31.5 144.5zM1044 1091q0 68 -53 111t-130 43q-82 0 -136.5 -43t-54.5 -117t65.5 -123t132.5 -49q69 0 122.5 50.5t53.5 127.5zM424 385q0 -94 67 -152.5t175 -58.5q107 0 174 54t67 148q0 66 -45 120.5
t-105 81.5t-116 27q-84 0 -150.5 -67t-66.5 -153z" />
    <glyph glyph-name="nine" unicode="9" horiz-adv-x="1119" 
d="M1269 897q0 -200 -58 -373t-156 -292t-231 -187t-280 -68q-76 0 -141 19.5t-107 50t-72.5 67.5t-44 71.5t-13.5 63.5q0 27 11.5 43.5t27.5 16.5q18 0 51 -31q85 -91 243 -91q78 0 146 30t111.5 74t75 95t45 91t13.5 64q0 10 -7 10q-5 0 -11.5 -4.5t-23 -18t-26.5 -20.5
q-42 -35 -98.5 -55.5t-107.5 -20.5q-115 0 -199.5 57.5t-124.5 145.5t-40 192q0 157 75 294t206.5 219t286.5 82q203 0 326 -139.5t123 -385.5zM799 1249q-89 0 -161 -116t-72 -288q0 -98 41 -160.5t114 -62.5q97 0 167 105.5t70 280.5q0 111 -43.5 176t-115.5 65z" />
    <glyph glyph-name="colon" unicode=":" horiz-adv-x="527" 
d="M665 877q0 -84 -58 -136.5t-137 -52.5q-64 0 -107.5 39t-43.5 110q0 86 60 139.5t135 53.5q63 0 107 -40.5t44 -112.5zM566 176q0 -84 -57.5 -136t-136.5 -52q-65 0 -108 38.5t-43 109.5q0 86 60 140t135 54q63 0 106.5 -41t43.5 -113z" />
    <glyph glyph-name="semicolon" unicode=";" horiz-adv-x="528" 
d="M636 877q0 -84 -58 -136.5t-137 -52.5q-64 0 -107 39t-43 110q0 86 59.5 139.5t134.5 53.5q63 0 107 -40.5t44 -112.5zM203 -332q-17 0 -28 10t-11 24t19 36.5t41 44t41 57t19 73.5q0 33 -22 66.5t-44 74t-22 91.5q0 84 54.5 134t126.5 50q71 0 118 -51t47 -141t-37 -179
t-90 -151t-111 -100.5t-101 -38.5z" />
    <glyph glyph-name="less" unicode="&#x3c;" horiz-adv-x="1048" 
d="M629 657q0 -9 20 -21q182 -116 494 -248q22 -9 31 -18.5t9 -28.5q0 -35 -29.5 -94t-58.5 -59q-17 0 -58 15q-131 55 -341.5 168t-313.5 188q-30 25 -30 62q0 43 20 83.5t47 58.5q81 54 329 170t418 184q53 19 64 19q22 0 35 -34.5t13 -76.5q0 -46 -14.5 -65.5
t-45.5 -31.5q-429 -177 -563 -250q-26 -15 -26 -21z" />
    <glyph glyph-name="equal" unicode="=" horiz-adv-x="1047" 
d="M1163 774h-752q-30 0 -30 36q0 55 25 118q9 24 22 33t45 9h753q31 0 31 -45q0 -30 -25 -109q-9 -24 -22.5 -33t-46.5 -9zM1106 365h-753q-29 0 -29 35q0 57 24 118q9 24 22.5 33t45.5 9h752q32 0 32 -45q0 -29 -25 -108q-9 -24 -22.5 -33t-46.5 -9z" />
    <glyph glyph-name="greater" unicode="&#x3e;" horiz-adv-x="1048" 
d="M911 667q0 9 -20 21q-182 116 -494 248q-22 9 -31 18.5t-9 28.5q0 35 29.5 94t58.5 59q17 0 58 -15q131 -55 341.5 -168t313.5 -188q30 -25 30 -62q0 -43 -20 -83.5t-47 -58.5q-81 -54 -329 -170t-418 -184q-53 -19 -64 -19q-22 0 -35 34.5t-13 76.5q0 46 14.5 65.5
t46.5 31.5q425 175 562 250q26 15 26 21z" />
    <glyph glyph-name="question" unicode="?" horiz-adv-x="891" 
d="M727 1206q-105 0 -210 -94q-35 -33 -47 -37q-4 -1 -8 -1q-33 0 -33 56q0 47 31.5 98.5t85 96t134.5 73t170 28.5q166 0 271.5 -79.5t105.5 -227.5q0 -71 -29 -133.5t-77 -108.5t-106 -86.5t-119.5 -76t-115 -68.5t-94.5 -71.5t-55 -78.5q-5 -8 -10.5 -26.5t-12.5 -25.5
t-23 -7q-24 0 -40.5 31.5t-16.5 75.5q0 39 20 79t51.5 75t70 70t77.5 70t70.5 70t51.5 75.5t20 80.5q0 68 -43 105t-119 37zM728 176q0 -84 -58 -136t-136 -52q-65 0 -108 38.5t-43 109.5q0 86 59.5 140t134.5 54q63 0 107 -41t44 -113z" />
    <glyph glyph-name="at" unicode="@" horiz-adv-x="1457" 
d="M1513 859q0 182 -93.5 291.5t-285.5 109.5q-84 0 -173 -28.5t-175 -88.5t-154 -143t-109.5 -202t-41.5 -255q0 -111 35.5 -199t97 -144t142 -85t173.5 -29q219 0 383 111q53 33 62 33t16.5 -6t7.5 -18q0 -23 -41 -62t-105.5 -77.5t-159 -67t-188.5 -28.5
q-127 0 -231 33.5t-173.5 90.5t-117.5 134.5t-69.5 162t-21.5 176.5q0 173 71.5 332.5t188.5 274t273 183t319 68.5q247 0 387.5 -135t140.5 -370q0 -151 -59.5 -295.5t-157.5 -234.5t-203 -90q-61 0 -97 36.5t-42 91.5q-4 31 -8 31q-3 0 -14 -16.5t-30.5 -40t-46 -47
t-68.5 -40t-89 -16.5q-99 0 -154 72t-55 197q0 130 58 248.5t154.5 190t201.5 71.5q38 0 70.5 -12.5t50.5 -27.5t35 -27.5t28 -12.5q18 0 54 19q6 3 18.5 11t18 10.5t13.5 5.5t14 3q28 0 28 -29q0 -25 -53.5 -255.5t-53.5 -286.5q0 -59 35 -59q28 0 62 35t63.5 92t49 141.5
t19.5 172.5zM956 451q79 0 136.5 106t57.5 258q0 147 -83 147q-74 0 -138 -110.5t-64 -260.5q0 -140 91 -140z" />
    <glyph glyph-name="A" unicode="A" horiz-adv-x="1318" 
d="M177 273l396 811q42 91 78 200q17 49 107 94.5t146 45.5q15 0 27 -3.5t21 -13.5t14.5 -18.5t11.5 -28t9 -32t9 -40t10 -43.5l229 -974q17 -76 69 -131l6 -6l6 -6t6 -6.5t6.5 -8t5.5 -7.5t5.5 -9t3.5 -9t3 -10t1 -10q0 -41 -29.5 -57t-93.5 -16q-21 0 -83.5 2.5
t-114.5 2.5q-51 0 -116.5 -2.5t-90.5 -2.5q-80 0 -80 55q0 23 22 44.5t48.5 38t48.5 45t22 62.5q0 13 -9 56.5t-17 64.5q-15 24 -52 24h-307q-38 0 -60 -24q-22 -28 -46 -78.5t-24 -77.5q0 -26 13 -48.5t29 -35.5t29 -30t13 -34q0 -62 -93 -62q-21 0 -74 2.5t-78 2.5
q-23 0 -67.5 -2.5t-66.5 -2.5q-60 0 -60 50q0 20 9 34.5t26 28t37 30.5t46 52.5t49 82.5zM548 567h238q17 0 22.5 6t5.5 18q0 34 -28.5 183t-47.5 199q-8 14 -12 14q-5 0 -14 -13q-36 -56 -111.5 -215.5t-75.5 -176.5q0 -15 23 -15z" />
    <glyph glyph-name="B" unicode="B" horiz-adv-x="1304" 
d="M160 44q0 21 10.5 37t27 28t34 26t36 40t28.5 61q24 94 77.5 455t53.5 434q0 45 -12.5 78.5t-27 48.5t-27 34.5t-12.5 40.5q0 71 81 71q43 0 122.5 -2.5t124.5 -2.5q51 0 149 3t148 3q91 0 165.5 -15t136 -48t96 -91t34.5 -137q0 -59 -24 -116t-62 -98.5t-79 -72
t-81 -46.5q-11 -5 -11 -13q0 -7 8 -9q107 -34 175.5 -114t68.5 -180q0 -92 -27 -166.5t-75.5 -124t-107 -85t-129.5 -54t-136 -27t-133 -8.5q-50 0 -166 3t-168 3q-40 0 -114.5 -2.5t-112.5 -2.5q-71 0 -71 49zM768 839q106 0 179 34q59 29 93 80.5t34 116.5q0 155 -211 155
q-52 0 -73 -10t-28 -40q-7 -27 -24 -150.5t-17 -145.5q0 -13 2.5 -20.5t13 -13.5t31.5 -6zM754 175q127 0 207.5 73.5t80.5 208.5q0 71 -34.5 121t-95.5 72q-57 22 -182 22q-23 0 -32 -11t-15 -40q-9 -47 -30.5 -199t-21.5 -177q0 -26 5.5 -38.5t33 -22t84.5 -9.5z" />
    <glyph glyph-name="C" unicode="C" horiz-adv-x="1304" 
d="M274 568q0 124 34.5 247.5t102.5 233.5t159.5 194.5t215.5 134t261 49.5q84 0 168.5 -24.5t103.5 -24.5q23 0 60.5 11t56.5 11q17 0 28.5 -4t19 -15t11.5 -21.5t6 -31t2.5 -36t1 -44.5t1.5 -49q2 -50 5.5 -91t6 -63.5t2.5 -32.5q0 -37 -18.5 -57.5t-45.5 -20.5
q-15 0 -27.5 6t-23.5 21t-17.5 26t-19.5 36.5t-19 37.5q-52 99 -128.5 153.5t-161.5 54.5q-120 0 -218.5 -87t-151 -219.5t-52.5 -274.5q0 -202 95.5 -322.5t262.5 -120.5q62 0 119.5 20.5t102 56t77.5 72.5t60 79q40 54 61 54q32 0 32 -56q0 -46 -23 -109t-67 -123
q-85 -119 -221.5 -196.5t-301.5 -77.5q-171 0 -299 79.5t-194.5 215.5t-66.5 308z" />
    <glyph glyph-name="D" unicode="D" horiz-adv-x="1419" 
d="M348 1327q0 71 81 71q30 0 99.5 -2.5t103.5 -2.5q54 0 144 3t142 3q103 0 195.5 -20.5t174.5 -66t141.5 -113t94 -167t34.5 -221.5q0 -239 -90 -424t-259 -289t-391 -104q-57 0 -188 3.5t-193 3.5q-36 0 -106.5 -2.5t-99.5 -2.5q-71 0 -71 48q0 22 10.5 38t27 28t34 25.5
t36 39.5t28.5 61q24 94 77.5 455t53.5 434q0 45 -12.5 78.5t-27 48.5t-27 34.5t-12.5 40.5zM755 1108q-20 -97 -67.5 -440.5t-47.5 -404.5q0 -52 26.5 -70t113.5 -18q95 0 174.5 54.5t130.5 146t79 208t28 242.5q0 176 -79 287.5t-233 111.5q-64 0 -89 -27.5t-36 -89.5z" />
    <glyph glyph-name="E" unicode="E" horiz-adv-x="1212" 
d="M348 1327q0 71 81 71q39 0 177.5 -2.5t258.5 -2.5q107 0 226.5 2.5t143.5 2.5q57 0 76.5 -19.5t20.5 -87.5q0 -29 3.5 -118t3.5 -140q0 -94 -66 -94q-17 0 -30.5 13t-21 28t-16.5 40q-1 4 -2 6q-15 44 -26 70.5t-27.5 51t-35 37.5t-47.5 23t-65 13t-88 3q-83 0 -113 -14
t-39 -50q-9 -31 -24.5 -131t-16.5 -144q0 -28 7.5 -40t31.5 -12q30 0 54.5 2.5t44.5 11t32 13.5t26.5 20.5t19 20.5t19.5 26.5t18 25.5q25 30 49 30q26 0 34 -18.5t8 -51.5q0 -25 -47 -351q-11 -84 -61 -84q-19 0 -32 11.5t-17.5 23t-9.5 31.5q-10 33 -17.5 49t-23.5 32.5
t-43.5 22t-72.5 5.5q-25 0 -38 -11t-20 -37q-11 -44 -29.5 -168.5t-18.5 -153.5q0 -64 29.5 -84t123.5 -20q103 0 169.5 23.5t110.5 68.5t94 132q44 72 81 72q41 0 41 -60q0 -25 -15 -83t-37.5 -136.5t-32.5 -123.5q-9 -46 -30 -61.5t-75 -15.5q-28 0 -164 2.5t-221 2.5
q-84 0 -246.5 -2.5t-231.5 -2.5q-71 0 -71 49q0 21 10.5 37t27 28t34 26t36 40t28.5 61q24 94 77.5 455t53.5 434q0 45 -12.5 78.5t-27 48.5t-27 34.5t-12.5 40.5z" />
    <glyph glyph-name="F" unicode="F" horiz-adv-x="1138" 
d="M160 44q0 21 10.5 37t27 28t34 26t36 40t28.5 61q24 94 77.5 455t53.5 434q0 45 -12.5 78.5t-27 48.5t-27 34.5t-12.5 40.5q0 71 81 71q39 0 177.5 -2.5t258.5 -2.5q107 0 226.5 2.5t143.5 2.5q57 0 77 -20t20 -87q0 -41 3.5 -125.5t3.5 -132.5q0 -94 -66 -94
q-17 0 -30.5 13t-21 28t-16.5 40q-1 4 -2 6q-15 44 -26 70.5t-27.5 51t-35 37.5t-47.5 23t-65 13t-88 3q-79 0 -105.5 -10t-39.5 -36q-11 -21 -32 -149t-21 -163q0 -30 9 -42t31 -12q36 0 65 5.5t45.5 11t36 22t25 22.5t23 30.5t21.5 29.5q25 30 49 30q40 0 40 -67
q0 -22 -5.5 -62t-18.5 -128.5t-23 -163.5q-6 -42 -20 -63t-41 -21q-44 0 -59 65q-13 44 -24.5 63.5t-43 33t-89.5 13.5q-40 0 -55 -39q-11 -24 -28 -149.5t-17 -168.5q0 -89 81 -132q27 -13 40 -20.5t25.5 -22.5t12.5 -32q0 -74 -119 -74q-29 0 -118 2.5t-123 2.5
q-37 0 -110.5 -2.5t-94.5 -2.5q-71 0 -71 49z" />
    <glyph glyph-name="G" unicode="G" horiz-adv-x="1394" 
d="M808 -35q-165 0 -288 80.5t-184.5 215t-61.5 304.5q0 118 32.5 239.5t98 233t155.5 198.5t215 139t266 52q64 0 118.5 -12.5t92.5 -24.5t61 -12q22 0 58.5 11t56.5 11q16 0 28 -4.5t19 -14.5t11 -21t5.5 -31t2 -36t1 -45t1.5 -49q2 -49 5.5 -91t5.5 -64t2 -32
q0 -37 -18.5 -57.5t-45.5 -20.5q-15 0 -27 6t-23.5 21t-18 26t-19.5 37t-19 37q-53 99 -128 153.5t-159 54.5q-116 0 -213 -90t-149 -226.5t-52 -281.5q0 -205 79.5 -337.5t216.5 -132.5q54 0 104.5 28t74.5 64q44 69 44 212q0 39 -9 66.5t-19.5 40t-31.5 31.5
q-9 8 -31 20.5t-31 23.5t-9 30q0 77 98 77q29 0 90.5 -3.5t86.5 -3.5q33 0 103 3.5t110 3.5q28 0 42.5 -14t14.5 -38q0 -30 -11.5 -51.5t-27 -38t-34.5 -68.5t-30 -132q-8 -63 -23 -204t-19 -170q-6 -42 -22.5 -63t-51.5 -21q-36 0 -66 43q-29 46 -56 46q-11 0 -26.5 -5
t-28.5 -10.5t-36 -16t-36 -16.5q-154 -70 -294 -70z" />
    <glyph glyph-name="H" unicode="H" horiz-adv-x="1504" 
d="M1630 1398q64 0 64 -51q0 -25 -11 -42t-28 -31.5t-36 -31.5t-38 -51.5t-30 -82.5q-20 -89 -68 -449t-48 -423q0 -38 13 -66.5t29 -41.5t29 -31t13 -37q0 -29 -23 -47t-65 -18q-29 0 -98 2.5t-103 2.5q-36 0 -107 -2.5t-101 -2.5q-35 0 -53.5 14t-18.5 35q0 26 17 45.5
t38.5 31.5t46.5 42t38 73q12 53 36 191t24 172q0 52 -52 52h-345q-48 0 -64 -36q-15 -28 -31 -179.5t-16 -199.5q0 -38 13.5 -66.5t29.5 -41.5t29.5 -31t13.5 -37q0 -29 -23.5 -47t-64.5 -18q-30 0 -99.5 2.5t-103.5 2.5q-35 0 -106 -2.5t-101 -2.5q-35 0 -52.5 13.5
t-17.5 35.5q0 26 16.5 45.5t38 31.5t46 42t37.5 73q24 94 78 455t54 434q0 45 -12.5 78.5t-27.5 48.5t-27.5 34.5t-12.5 40.5q0 71 81 71q30 0 100 -2.5t104 -2.5q36 0 106 2.5t98 2.5q62 0 62 -51q0 -27 -15 -48t-35 -34.5t-44 -42t-38 -66.5q-9 -22 -27 -119t-18 -133
q0 -37 14.5 -51t45.5 -14h334q55 0 75 44q29 167 29 231q0 43 -12.5 77.5t-27.5 53t-27.5 41t-12.5 43.5q0 69 82 69q30 0 99 -2.5t103 -2.5q36 0 106 2.5t98 2.5z" />
    <glyph glyph-name="I" unicode="I" horiz-adv-x="709" 
d="M835 1398q62 0 62 -51q0 -25 -10.5 -42t-27.5 -31.5t-35 -31.5t-37 -51.5t-30 -82.5q-19 -91 -67.5 -450.5t-48.5 -421.5q0 -38 13 -66.5t29 -41.5t29 -31t13 -37q0 -29 -23 -47t-64 -18q-29 0 -98.5 2.5t-103.5 2.5q-35 0 -105.5 -2.5t-100.5 -2.5q-35 0 -52.5 13.5
t-17.5 35.5q0 21 10.5 37t27 28t34 26t36 40t28.5 61q24 94 77.5 455t53.5 434q0 45 -12.5 78.5t-27 48.5t-27 34.5t-12.5 40.5q0 71 81 71q30 0 99.5 -2.5t103.5 -2.5q36 0 105.5 2.5t97.5 2.5z" />
    <glyph glyph-name="J" unicode="J" horiz-adv-x="1060" 
d="M750 713q51 368 51 402q0 39 -11.5 68.5t-28 46.5t-33 31t-28 30.5t-11.5 36.5q0 31 19 50.5t61 19.5q28 0 114 -2.5t121 -2.5t98.5 2.5t93.5 2.5q65 0 65 -50q0 -25 -9.5 -42t-25 -31.5t-32.5 -31.5t-35 -52t-29 -83q-5 -22 -71 -479q-14 -103 -32 -182t-47 -157.5
t-70.5 -134t-98 -99.5t-135 -65.5t-176.5 -21.5q-94 0 -166.5 24.5t-115 66.5t-64 93.5t-21.5 109.5q0 103 60.5 179t161.5 76q59 0 93 -30.5t34 -71.5q0 -24 -19 -54t-38 -66.5t-19 -75.5q0 -37 24.5 -62.5t66.5 -25.5q60 0 102.5 48t80 176.5t70.5 356.5z" />
    <glyph glyph-name="K" unicode="K" 
d="M978 754q68 -13 121.5 -55t84.5 -95.5t58.5 -113.5t46 -109t43.5 -81.5t54 -32.5q19 0 36.5 12t27.5 27t23 27t25 12q13 0 22.5 -16.5t9.5 -42.5q0 -45 -19 -96.5t-54.5 -100t-97 -80.5t-135.5 -32q-68 0 -121.5 32.5t-86.5 85t-59.5 115.5t-48 126t-43.5 115.5t-54.5 85
t-73.5 32.5t-59 -34q-11 -20 -25 -113t-14 -128q0 -58 12.5 -90.5t43.5 -61.5q8 -9 21.5 -21.5t20.5 -19.5t13 -18.5t6 -24.5q0 -31 -23.5 -47t-62.5 -16q-29 0 -114.5 2.5t-120.5 2.5t-105 -2.5t-100 -2.5q-35 0 -52.5 13.5t-17.5 35.5q0 21 10.5 37t27 28t34 26t36 40
t28.5 61q24 94 77.5 455t53.5 434q0 45 -12.5 78.5t-27 48.5t-27 34.5t-12.5 40.5q0 71 81 71q30 0 99.5 -2.5t103.5 -2.5q36 0 104.5 2.5t96.5 2.5q62 0 62 -51q0 -28 -18.5 -51t-46.5 -51t-42 -59q-25 -47 -53 -191.5t-28 -200.5q0 -23 15 -23q14 0 110.5 95t188.5 204.5
t92 141.5q0 23 -22 57.5t-22 60.5q0 29 23 48.5t65 19.5q21 0 82 -2.5t84 -2.5q22 0 86.5 2t85.5 2q50 0 74 -13t24 -45t-21.5 -52.5t-74 -48.5t-82.5 -50q-56 -39 -186.5 -157t-248.5 -247q-14 -14 -14 -20q0 -7 12 -10z" />
    <glyph glyph-name="L" unicode="L" horiz-adv-x="1170" 
d="M296 236q24 94 77.5 455t53.5 434q0 45 -12.5 78.5t-27 48.5t-27 34.5t-12.5 40.5q0 71 81 71q30 0 99.5 -2.5t103.5 -2.5q36 0 123 2.5t115 2.5q63 0 63 -51q0 -25 -14 -42.5t-36.5 -32t-46 -32t-46 -51.5t-33.5 -81q-19 -84 -70 -437.5t-51 -389.5q0 -64 29 -83
t121 -19q76 0 131 15t94.5 47t66 69.5t54.5 96.5q26 49 46 70t43 21q41 0 41 -62q0 -24 -10.5 -74t-30.5 -136.5t-33 -148.5q-10 -47 -33 -64.5t-75 -17.5q-32 0 -170 2.5t-228 2.5q-73 0 -226.5 -2.5t-224.5 -2.5t-71 49q0 21 10.5 37t27 28t34.5 26t36 40t28 61z" />
    <glyph glyph-name="M" unicode="M" horiz-adv-x="1725" 
d="M1395 852q-13 0 -55 -77.5t-157 -314.5q-30 -62 -74.5 -157t-72 -151t-45.5 -83q-22 -36 -56.5 -57.5t-72.5 -21.5q-39 0 -55 53q-7 23 -78.5 344t-101.5 429q-12 46 -23 46q-10 0 -18 -35q-14 -71 -48 -285.5t-34 -285.5q0 -49 14 -82q10 -21 38.5 -50t28.5 -58
q0 -71 -82 -71q-37 0 -85 2.5t-63 2.5q-20 0 -75 -2.5t-91 -2.5q-60 0 -60 49q0 25 10.5 41.5t28 29.5t36.5 28.5t39 47.5t32 78q33 122 74.5 339t59.5 346q16 119 16 169q0 46 -12 79.5t-26.5 49t-26.5 35t-12 40.5q0 71 80 71q16 0 78.5 -2.5t88.5 -2.5q86 0 118 -5.5
t57 -23.5q43 -29 76 -115q10 -25 43.5 -161t72 -297t53.5 -216q5 -18 14 -18q10 0 20 17q2 3 145 289.5t201 389.5q44 80 98 112q52 28 200 28q16 0 66.5 2.5t68.5 2.5q59 0 59 -50q0 -24 -10 -42t-27 -32.5t-35 -32.5t-37 -52t-31 -80q-6 -26 -27 -145
q-22 -157 -39.5 -374.5t-17.5 -316.5q0 -52 13.5 -88t29.5 -50t29.5 -32.5t13.5 -39.5q0 -68 -80 -68q-35 0 -108 2.5t-93 2.5q-35 0 -99.5 -2.5t-97.5 -2.5q-72 0 -72 49q0 24 11 41.5t26 27t36 25.5t34 34q23 33 36 87q11 48 36.5 287t25.5 279q0 27 -9 27z" />
    <glyph glyph-name="N" unicode="N" horiz-adv-x="1412" 
d="M430 1398q17 0 67 -2.5t77 -2.5q80 0 114 -19q22 -11 40.5 -35t62.5 -93l343 -604q47 -73 62 -73q8 0 11 7t8 30q7 35 32 223t25 237q0 58 -10.5 99.5t-25.5 62t-30 35t-25.5 30t-10.5 35.5q0 70 81 70q27 0 85 -2.5t76 -2.5q23 0 75 2.5t74 2.5q60 0 60 -50
q0 -25 -10 -42t-25.5 -29.5t-32.5 -28t-34.5 -47.5t-27.5 -77q-22 -107 -53 -342q-41 -300 -56 -464.5t-21 -203.5q-7 -54 -53 -92t-102 -38q-19 0 -42.5 16.5t-42.5 45.5l-469 824q-23 38 -34 38q-15 0 -25 -40q-8 -30 -37.5 -252.5t-29.5 -268.5q0 -64 10.5 -109.5t26 -68
t30.5 -38.5t25.5 -31t10.5 -35q0 -31 -20 -50.5t-61 -19.5q-31 0 -87.5 2.5t-73.5 2.5q-22 0 -79 -2.5t-86 -2.5q-60 0 -60 49q0 25 11 41.5t29 29.5t37 28.5t38 46.5t29 76q24 113 71 459q51 357 51 398q0 46 -12 79.5t-27 49t-27 35t-12 40.5q0 32 19.5 51.5t60.5 19.5z
" />
    <glyph glyph-name="O" unicode="O" horiz-adv-x="1421" 
d="M274 568q0 181 58 340t158 272.5t240.5 179t298.5 65.5q121 0 226.5 -42t185.5 -120t126 -199.5t46 -271.5q0 -197 -60.5 -356t-163.5 -260t-236.5 -155t-284.5 -54q-276 0 -435 165t-159 436zM1017 1247q-63 0 -127 -58t-113.5 -153t-80.5 -226.5t-31 -268.5
q0 -174 58.5 -275.5t169.5 -101.5q90 0 169.5 89t128 245.5t48.5 340.5t-55.5 296t-166.5 112z" />
    <glyph glyph-name="P" unicode="P" horiz-adv-x="1248" 
d="M719 531q-36 0 -50 -29q-6 -16 -19 -104.5t-13 -121.5q0 -49 24.5 -79.5t67.5 -52.5q27 -14 39.5 -21t25.5 -22t13 -32q0 -74 -119 -74q-30 0 -124 2.5t-128 2.5q-37 0 -110.5 -2.5t-94.5 -2.5q-71 0 -71 49q0 21 10.5 37t27 28t34 26t36 40t28.5 61q24 94 77.5 455
t53.5 434q0 45 -12.5 78.5t-27 48.5t-27 34.5t-12.5 40.5q0 71 81 71q51 0 117 -2.5t127 -2.5q53 0 168 3.5t177 3.5q193 0 307.5 -96.5t114.5 -261.5q0 -109 -41 -203t-116 -164t-190 -110t-255 -40q-38 0 -72.5 3t-46.5 3zM1079 998q0 103 -57 161.5t-145 58.5
q-67 0 -85 -12t-28 -54q-13 -54 -31.5 -196t-18.5 -180q0 -67 92 -67q122 0 197.5 76.5t75.5 212.5z" />
    <glyph glyph-name="Q" unicode="Q" horiz-adv-x="1421" 
d="M274 568q0 241 98.5 437.5t271.5 308t385 111.5q121 0 226.5 -42t185.5 -120t126 -199.5t46 -271.5q0 -170 -45 -312.5t-125 -241t-183 -162t-224 -88.5q-29 -4 -29 -17q0 -6 42 -27q2 -1 30 -17t49.5 -27t54 -21.5t57.5 -10.5q33 0 58.5 12.5t37.5 28t23.5 28t19.5 12.5
q13 0 23 -21.5t10 -54.5q0 -117 -76 -200.5t-195 -83.5q-60 0 -121 31t-109.5 75.5t-93 88.5t-86 75t-72.5 31q-32 0 -57.5 -18.5t-38.5 -41t-27.5 -41t-27.5 -18.5q-20 0 -31.5 19.5t-11.5 50.5q0 76 64 145q4 4 15.5 13.5t18 16.5t6.5 12q0 4 -2.5 7.5t-7.5 7.5t-9 7
t-10.5 7t-9.5 6q-120 64 -188 198.5t-68 306.5zM1017 1246q-84 0 -164.5 -97t-131.5 -261.5t-51 -346.5q0 -174 57 -274t166 -100q90 0 168.5 89t126.5 245t48 339q0 184 -55 295t-164 111z" />
    <glyph glyph-name="R" unicode="R" horiz-adv-x="1378" 
d="M1071 658q54 -21 95.5 -69.5t64.5 -102t43 -103.5t43.5 -83t53.5 -33q19 0 36.5 12t27.5 27t23 27t25 12q13 0 22 -16.5t9 -42.5q0 -45 -18 -96.5t-53 -100t-95.5 -80.5t-134.5 -32q-67 0 -119.5 31.5t-83.5 80t-58 111.5t-43 120.5t-36.5 114t-41.5 84.5
q-14 21 -38.5 35.5t-51.5 14.5q-45 0 -63 -34q-11 -20 -25 -113t-14 -128q0 -58 12.5 -90.5t43.5 -61.5q8 -9 21.5 -21.5t20.5 -19.5t13 -18.5t6 -24.5q0 -31 -23.5 -47t-62.5 -16q-29 0 -114.5 2.5t-119.5 2.5q-37 0 -110.5 -2.5t-94.5 -2.5q-71 0 -71 49q0 21 10.5 37
t27 28t34 26t36 40t28.5 61q24 94 77.5 455t53.5 434q0 45 -12.5 78.5t-27 48.5t-27 34.5t-12.5 40.5q0 71 81 71q24 0 102 -2.5t125 -2.5q51 0 164 4t175 4q203 0 319 -75t116 -232q0 -57 -18 -111t-57 -109t-110 -102.5t-169 -81.5q-14 -6 -14 -16q0 -12 9 -16zM1061 1032
q0 95 -50.5 140.5t-132.5 45.5q-67 0 -86.5 -11.5t-29.5 -50.5q-13 -51 -31 -176.5t-18 -159.5q0 -32 21.5 -46.5t85.5 -14.5q105 0 173 76t68 197z" />
    <glyph glyph-name="S" unicode="S" horiz-adv-x="1187" 
d="M857 1256q-86 0 -144 -45.5t-58 -113.5q0 -44 27.5 -83t72 -69t101.5 -63t117 -63t117 -71t101.5 -85t72 -107t27.5 -136q0 -139 -82 -243.5t-216.5 -157.5t-299.5 -53q-157 0 -288.5 53.5t-187.5 147.5q-43 69 -43 154q0 89 29 151.5t70 62.5q12 0 22 -5t20 -19
t14.5 -22t15.5 -30.5t14 -28.5q57 -124 150 -196t212 -72q97 0 153 49.5t56 118.5q0 52 -33 97t-85.5 80t-116 69.5t-127 74.5t-116 86.5t-85.5 114.5t-33 149q0 129 75 227.5t191 147.5t249 49q88 0 185.5 -23.5t117.5 -23.5q22 0 50.5 11t48.5 11q17 0 29 -4.5t19 -14.5
t11.5 -21t6.5 -31t3 -36t2 -45t2 -49q3 -46 7 -88.5t6.5 -66.5t2.5 -35q0 -34 -18.5 -54.5t-46.5 -20.5q-18 0 -33 11.5t-23.5 24.5t-25 41.5t-27.5 45.5q-61 98 -143 148.5t-166 50.5z" />
    <glyph glyph-name="T" unicode="T" horiz-adv-x="1175" 
d="M936 1393q103 0 239 2.5t192 2.5q49 0 69.5 -19t20.5 -74q0 -34 -10 -331q-1 -34 -19 -49.5t-42 -15.5q-44 0 -72 70q-40 144 -68 187t-94 43q-27 0 -42.5 -10.5t-26.5 -34.5q-29 -69 -80 -457.5t-51 -469.5q0 -31 10.5 -55t25 -38t29 -26.5t25 -27t10.5 -32.5
q0 -27 -22.5 -45t-63.5 -18q-30 0 -109 2.5t-111 2.5q-36 0 -116 -2.5t-109 -2.5q-34 0 -52 13.5t-18 35.5q0 27 19.5 47t44 33t52 42.5t39.5 70.5q20 67 75 455.5t55 440.5q0 31 -14.5 53.5t-44.5 22.5q-68 0 -108 -43t-120 -187q-23 -34 -42.5 -52t-45.5 -18q-20 0 -34 13
t-14 40q0 26 8 61.5t28 111t36 150.5q14 67 41 90t82 23q56 0 191 -2.5t237 -2.5z" />
    <glyph glyph-name="U" unicode="U" 
d="M1582 813q-23 -184 -35 -268q-41 -294 -188.5 -437t-422.5 -143q-99 0 -179 26.5t-142 81.5t-96 147t-34 215q0 66 42.5 364.5t42.5 325.5q0 45 -12.5 78.5t-27.5 48.5t-27.5 34.5t-12.5 40.5q0 71 81 71q30 0 100.5 -2.5t104.5 -2.5q35 0 104 2.5t97 2.5q65 0 65 -51
q0 -30 -17 -52.5t-39 -38.5t-47 -54.5t-37 -93.5q-17 -81 -52 -306t-35 -300q0 -146 59.5 -216t166.5 -70q149 0 230 132q21 34 37.5 90.5t26.5 111.5t24 141q3 22 5 33q43 268 43 391q0 47 -14 84.5t-31.5 56.5t-31.5 39.5t-14 35.5q0 67 81 67q27 0 82 -2.5t73 -2.5
q22 0 74.5 2.5t75.5 2.5q60 0 60 -50q0 -25 -10 -42t-25.5 -29.5t-32.5 -28t-34.5 -47.5t-27.5 -77q-25 -123 -50 -311z" />
    <glyph glyph-name="V" unicode="V" horiz-adv-x="1259" 
d="M949 438q5 -13 12 -13t21 29q66 137 176.5 415t110.5 320q0 33 -20.5 58t-41 45.5t-20.5 42.5q0 63 88 63q20 0 68.5 -2.5t72.5 -2.5q22 0 78.5 2t77.5 2q60 0 60 -49q0 -25 -16 -44.5t-38.5 -35t-54 -55t-54.5 -94.5l-359 -820q-62 -145 -120 -222q-44 -55 -103 -81.5
t-95 -26.5q-37 0 -58.5 20t-35.5 62q-18 51 -40 145l-204 925q-13 69 -69 131q-2 2 -11.5 13t-15 18t-11 19t-5.5 23q0 40 30 56.5t95 16.5q20 0 79.5 -2.5t108.5 -2.5q50 0 120.5 2.5t94.5 2.5q77 0 77 -57q0 -19 -12.5 -35.5t-29.5 -29.5t-34.5 -28.5t-30 -39t-12.5 -53.5
q0 -60 49.5 -352t71.5 -365z" />
    <glyph glyph-name="W" unicode="W" horiz-adv-x="1876" 
d="M1208 713q-17 -40 -55.5 -132t-67.5 -160.5t-62.5 -146t-57.5 -128.5t-36 -67q-40 -55 -97.5 -82.5t-90.5 -27.5q-66 0 -90 84q-33 134 -36 147l-175 918q-16 87 -61 133q-37 37 -37 73q0 40 28 57t89 17q20 0 74 -2.5t101 -2.5q46 0 111.5 2.5t88.5 2.5q72 0 72 -56
q0 -24 -18 -46t-39 -37.5t-39 -48t-18 -75.5q0 -61 37.5 -340t54.5 -334q6 -20 11 -20q8 0 21 31q41 88 145.5 370.5t104.5 331.5q0 35 -16 64t-31.5 51.5t-15.5 43.5q0 65 82 65q20 0 84 -2.5t86 -2.5q45 0 109.5 2.5t86.5 2.5q75 0 75 -56q0 -23 -16 -45t-35.5 -40
t-35.5 -56.5t-16 -90.5q0 -62 34.5 -328.5t49.5 -315.5q8 -25 12 -25q6 0 22 35q40 84 144.5 378t104.5 336q0 25 -11.5 46t-25.5 33t-25.5 29t-11.5 35q0 65 84 65q19 0 74.5 -2.5t78.5 -2.5q21 0 71 2t70 2q56 0 56 -48q0 -26 -15 -46t-36 -36t-50.5 -56t-52.5 -96
l-331 -812q-63 -156 -114 -224q-40 -55 -96.5 -82.5t-90.5 -27.5q-35 0 -55.5 21t-35.5 63q-17 50 -64 335.5t-60 343.5q-6 27 -13 27q-11 0 -28 -46z" />
    <glyph glyph-name="X" unicode="X" horiz-adv-x="1353" 
d="M970 740q0 -20 20 -65t86 -176q84 -159 166 -270q18 -24 44 -47t43.5 -36t30.5 -31.5t13 -39.5q0 -44 -27.5 -62t-90.5 -18q-21 0 -113 2.5t-142 2.5t-104 -2.5t-80 -2.5q-75 0 -75 54q0 23 13 42.5t28.5 31.5t28.5 32t13 45q0 69 -127 300q-5 11 -17 11q-8 0 -21 -15
q-103 -126 -152 -198t-49 -105q0 -30 29.5 -68t29.5 -63q0 -67 -90 -67q-22 0 -100.5 2.5t-102.5 2.5q-23 0 -83 -2.5t-82 -2.5q-57 0 -57 49q0 36 22.5 58t89 66t123.5 95q61 57 204 235q78 97 104.5 136t26.5 58q0 8 -2.5 16.5t-11 24t-17 30.5t-26.5 47t-35 62
q-1 1 -34.5 63t-53 97.5t-49 85.5t-47.5 74q-14 18 -41 42.5t-38.5 42t-11.5 40.5q0 45 29.5 63t91.5 18q20 0 83 -2.5t115 -2.5q50 0 122 2.5t95 2.5q77 0 77 -55q0 -24 -13 -43.5t-28.5 -31.5t-28.5 -33t-13 -48q0 -31 36 -114t78 -149q6 -10 15 -10q7 0 19 12
q58 63 117.5 153t59.5 126q0 27 -23 65t-23 60q0 68 90 68q21 0 84 -2.5t86 -2.5q24 0 83 2.5t80 2.5q58 0 58 -48q0 -36 -25 -62t-84.5 -66.5t-98.5 -76.5q-34 -31 -102 -109.5t-131 -159.5q-84 -102 -84 -136z" />
    <glyph glyph-name="Y" unicode="Y" horiz-adv-x="1201" 
d="M1016 501q-24 -185 -24 -264q0 -38 15.5 -66t34 -41.5t34 -32t15.5 -39.5q0 -27 -22.5 -45t-63.5 -18q-30 0 -107.5 2.5t-111.5 2.5q-36 0 -114.5 -2.5t-107.5 -2.5q-35 0 -52.5 13.5t-17.5 35.5q0 27 19 47t43.5 33t51 42.5t38.5 70.5q12 43 24.5 115.5t19.5 125t7 60.5
q0 57 -29.5 141t-92.5 227q-94 218 -128 280q-15 26 -39.5 51.5t-38 44t-13.5 41.5q0 42 29 58.5t88 16.5q21 0 80.5 -2.5t111.5 -2.5q49 0 104 2.5t81 2.5q75 0 75 -55q0 -23 -15 -43.5t-32.5 -34.5t-32.5 -37t-15 -49q0 -49 42 -179.5t71 -173.5q7 -9 15 -9q5 0 17 12
q54 67 127 200t73 172q0 35 -29.5 72t-29.5 58q0 67 90 67q22 0 84 -2.5t84 -2.5q24 0 75.5 2.5t69.5 2.5q60 0 60 -49q0 -28 -13.5 -45.5t-57.5 -54.5t-82 -79q-10 -11 -20.5 -23.5t-22.5 -28.5t-21.5 -29t-24 -34t-23 -33.5t-25 -38.5t-24.5 -38t-27.5 -42.5t-27.5 -42.5
q-11 -17 -52 -79.5t-54.5 -85t-38.5 -66t-35.5 -73t-13.5 -55.5z" />
    <glyph glyph-name="Z" unicode="Z" horiz-adv-x="1195" 
d="M711 278q252 0 376 111q71 71 108 71q41 0 41 -56q0 -23 -16 -72.5t-41 -123t-38 -131.5q-11 -47 -36 -64.5t-78 -17.5q-33 0 -161 2.5t-217 2.5q-119 0 -296.5 -2.5t-230.5 -2.5q-54 0 -54 45q0 8 1 16t5 17t7 15.5t11 18t13.5 18.5t17.5 22t20 24t25 28.5t28 32.5
l670 794q46 55 46 73q0 9 -13 13.5t-56.5 7.5t-124.5 3q-146 0 -218 -27t-128 -113q-43 -52 -78 -52q-38 0 -38 50q0 24 11.5 70.5t33.5 126t35 134.5q12 51 32 68.5t67 17.5q57 0 183 -2.5t227 -2.5t239.5 2.5t186.5 2.5q49 0 71 -12.5t22 -49.5q0 -27 -31 -70t-97 -117
l-641 -747q-72 -83 -72 -103q0 -6 9 -9.5t30.5 -6.5t57.5 -4t91 -1z" />
    <glyph glyph-name="bracketleft" unicode="[" horiz-adv-x="698" 
d="M695 1267q-195 -1368 -195 -1403q0 -38 18.5 -55t55.5 -28q15 -5 45 -12.5t45.5 -12.5t29 -16.5t13.5 -27.5q0 -58 -78 -58q-15 0 -91.5 2.5t-107.5 2.5q-32 0 -89.5 -2.5t-72.5 -2.5q-65 0 -65 59q0 29 13 96.5t49 275.5t76 493t63 478.5t30 274.5t9 95q9 74 84 74
q15 0 72 -2.5t89 -2.5t108.5 2.5t91.5 2.5q63 0 63 -43q0 -17 -7.5 -29t-24.5 -19.5t-32.5 -12t-43 -11.5t-44.5 -12q-22 -6 -35.5 -11.5t-29.5 -17t-25.5 -30.5t-13.5 -47z" />
    <glyph glyph-name="backslash" unicode="\" horiz-adv-x="653" 
d="M430 1346q-2 7 -2 23q0 23 23 34.5t55 11.5q20 0 31 -3.5t14 -7.5t5 -13q10 -38 149 -681t142 -669q1 -8 1 -19q0 -22 -25 -35t-57 -13q-24 0 -33.5 7t-14.5 21q-6 17 -144 661t-144 683z" />
    <glyph glyph-name="bracketright" unicode="]" horiz-adv-x="697" 
d="M274 -112q196 1375 196 1403q0 37 -19 54t-55 28q-14 5 -36.5 10.5t-37 9.5t-29.5 10.5t-22.5 16t-7.5 22.5q0 58 79 58q15 0 91 -2.5t108 -2.5t88.5 2.5t72.5 2.5q66 0 66 -58q0 -29 -13 -96.5t-49 -274.5t-76 -493q-41 -285 -64 -478t-30 -276t-9 -96q-11 -74 -85 -74
q-14 0 -70 2.5t-89 2.5q-32 0 -109 -2.5t-92 -2.5q-64 0 -64 44q0 17 7.5 29t25 19.5t33 12t43.5 11t45 11.5q23 7 35.5 12.5t28.5 17t25 30.5t13 47z" />
    <glyph glyph-name="asciicircum" unicode="^" horiz-adv-x="1019" 
d="M842 1161q-5 0 -22 -19q-42 -52 -134 -193t-163 -261q-26 -45 -68 -45q-45 0 -87 19.5t-42 45.5q0 24 18 57q72 127 209.5 330.5t212.5 285.5q42 44 137 44q43 0 67 -37q54 -88 137 -296t113 -327q7 -26 7 -47q0 -30 -55.5 -52.5t-93.5 -22.5q-22 0 -33.5 10.5
t-18.5 34.5q-98 312 -166 454q-9 19 -18 19z" />
    <glyph glyph-name="underscore" unicode="_" horiz-adv-x="874" 
d="M728 -323h-884q-28 0 -28 34q0 50 24 114q9 23 21.5 32t42.5 9h882q30 0 30 -44q0 -38 -23 -105q-8 -23 -21.5 -31.5t-43.5 -8.5z" />
    <glyph glyph-name="grave" unicode="`" horiz-adv-x="566" 
d="M922 1248q17 -44 17 -57q0 -40 -47 -40q-41 0 -101.5 50.5t-98.5 111.5q-41 66 -41 122q0 51 25.5 86t76.5 35q28 0 48.5 -12.5t34 -37.5t20 -43.5t14.5 -49.5q31 -117 52 -165z" />
    <glyph glyph-name="a" unicode="a" horiz-adv-x="1168" 
d="M729 1060q57 0 105.5 -18t77.5 -44t50 -51.5t34 -43.5t18 -18q7 0 48.5 37.5t92.5 74.5t80 37q43 0 43 -59q0 -8 -6.5 -34t-18.5 -71.5t-20 -84.5q-81 -389 -81 -506q0 -38 11.5 -59t31.5 -21q23 0 47 28.5t36 28.5q21 0 21 -38q0 -49 -29 -102t-90.5 -93t-138.5 -40
q-66 0 -112.5 42t-56.5 100q-10 33 -17 33q-2 0 -4.5 -1t-6 -4.5l-6 -6t-7.5 -8.5t-9 -10q-64 -69 -133 -108.5t-162 -39.5q-141 0 -223.5 105.5t-82.5 285.5q0 150 43.5 281.5t114.5 219.5t162.5 138t187.5 50zM788 891q-94 0 -170 -136.5t-76 -328.5q0 -114 36.5 -173.5
t104.5 -59.5q93 0 162 133t69 343q0 112 -35.5 167t-90.5 55z" />
    <glyph glyph-name="b" unicode="b" horiz-adv-x="1123" 
d="M765 1505q57 0 57 -54q0 -64 -63.5 -315t-63.5 -260q0 -16 6 -16q3 0 11 9.5t21 27t24 29.5q129 134 274 134q138 0 217 -105t79 -286q0 -152 -48 -282t-129.5 -218t-191.5 -137.5t-232 -49.5q-79 0 -147 22.5t-122.5 66.5t-85.5 116.5t-31 166.5t35 281.5t70 352
t35 202.5q0 67 -46 88q-40 21 -40 49q0 39 31.5 63t113.5 57q144 58 226 58zM878 857q-92 0 -166.5 -139t-74.5 -345q0 -111 37.5 -163t92.5 -52q65 0 122.5 62t93 170.5t35.5 236.5q0 114 -36 172t-104 58z" />
    <glyph glyph-name="c" unicode="c" horiz-adv-x="984" 
d="M833 1060q134 0 220 -66.5t86 -170.5q0 -89 -60.5 -144.5t-156.5 -55.5q-62 0 -62 48q0 6 4 34.5t4 45.5q0 73 -30 114.5t-85 41.5q-91 0 -161 -92.5t-70 -246.5q0 -137 67.5 -228.5t192.5 -91.5q50 0 94 14t81 41.5t53.5 43.5t43.5 45q28 24 38 24q26 0 26 -42
q0 -50 -23 -104.5t-67.5 -106.5t-103.5 -93.5t-137 -67t-161 -25.5q-190 0 -299.5 121t-109.5 313q0 124 46 241.5t125.5 208t196 145t248.5 54.5z" />
    <glyph glyph-name="d" unicode="d" horiz-adv-x="1164" 
d="M1281 1505q57 0 57 -54q0 -34 -45 -273.5t-90 -512t-45 -386.5q0 -37 11.5 -58.5t31.5 -21.5q23 0 47.5 28.5t36.5 28.5q22 0 22 -38q0 -80 -72.5 -157.5t-185.5 -77.5q-67 0 -114 42t-57 100q-10 33 -18 33q-2 0 -4.5 -1t-6 -4.5l-6 -6t-7.5 -8.5t-9 -10
q-64 -68 -134 -108t-163 -40q-143 0 -226 105t-83 286q0 121 28.5 230t78 191.5t114 143.5t139.5 92.5t152 31.5q41 0 76.5 -11t57.5 -26t38.5 -30.5t25.5 -26.5t12 -11q18 0 27 60q6 28 16.5 94t10.5 83q0 63 -50 89q-34 23 -34 46q0 37 29.5 60.5t103.5 54.5
q67 28 134.5 45.5t100.5 17.5zM793 891q-96 0 -173.5 -136.5t-77.5 -328.5q0 -114 37 -173.5t106 -59.5q95 0 165.5 133t70.5 343q0 113 -36 167.5t-92 54.5z" />
    <glyph glyph-name="e" unicode="e" horiz-adv-x="995" 
d="M835 1060q155 0 238.5 -74.5t83.5 -183.5q0 -72 -39.5 -132t-98.5 -98.5t-138.5 -68.5t-148 -45t-138.5 -23q-17 -2 -23 -9.5t-6 -28.5q0 -28 10.5 -57t32 -58t62.5 -47t94 -18q31 0 60 5t56.5 18.5t45.5 22.5t44 31.5t34 29t32 32.5l25 25q25 22 38 22q27 0 27 -41
t-20.5 -91t-63.5 -102t-100 -94.5t-138 -70t-171 -27.5q-193 0 -304.5 120t-111.5 312q0 122 47.5 240t128 209t197 146.5t245.5 55.5zM778 903q-92 0 -163 -95.5t-71 -197.5q0 -24 5.5 -35t23.5 -11q36 0 86.5 14t103.5 40t89.5 71t36.5 99q0 51 -29.5 83t-81.5 32z" />
    <glyph glyph-name="f" unicode="f" horiz-adv-x="732" 
d="M799 1509q92 0 147 -46t55 -108q0 -63 -42.5 -124.5t-110.5 -61.5q-14 0 -24.5 4t-17.5 15t-10.5 18t-9.5 23q-20 48 -41 72t-54 24q-50 0 -79 -46t-29 -124q0 -62 40 -106.5t108 -44.5q19 0 74 3.5t69 3.5q60 0 60 -57q0 -30 -16.5 -66t-41.5 -58q-15 -13 -42 -13
q-10 0 -67 4.5t-75 4.5q-33 0 -43 -28q-28 -75 -88 -491q-16 -133 -16 -229q0 -81 -49 -115q-32 -26 -111.5 -55.5t-144.5 -29.5q-70 0 -70 57q0 17 10.5 55.5t27.5 99.5t28 112q29 142 64 339t35 237q0 32 -9.5 46t-34.5 21q-34 6 -48.5 14t-14.5 29q0 24 25.5 55t53.5 45
q56 21 71 42q6 10 24 92t36 124q51 118 143 190.5t218 72.5z" />
    <glyph glyph-name="g" unicode="g" horiz-adv-x="1072" 
d="M574 1059q77 0 193.5 -20.5t147.5 -20.5q64 0 107.5 10t67.5 20.5t40 10.5q34 0 34 -47q0 -63 -28 -122q-34 -62 -83 -62q-26 0 -61.5 8t-39.5 8q-8 0 -8 -14q0 -4 6 -19.5t12.5 -42t6.5 -56.5q0 -168 -130 -272.5t-323 -104.5q-21 0 -58 4t-49 4q-33 0 -60 -14.5
t-27 -44.5q0 -24 36.5 -38t94.5 -20.5t128.5 -14t140.5 -25.5t128 -47t94.5 -87t36.5 -138q0 -95 -52 -170.5t-136 -120t-180.5 -67t-195.5 -22.5q-217 0 -345.5 70.5t-128.5 200.5q0 73 48.5 124t113.5 51q38 0 66 -16t28 -34q0 -8 -12.5 -39.5t-12.5 -55.5q0 -78 77 -121
t219 -43q96 0 148.5 37.5t52.5 95.5q0 42 -33 71.5t-85.5 45.5t-116.5 29t-127.5 30t-116 40.5t-85.5 67.5t-33 105q0 56 41.5 111t117.5 84q20 9 20 18q0 4 -13 17q-114 97 -114 240q0 126 63.5 217.5t163 135t221.5 43.5zM579 905q-73 0 -121.5 -73.5t-48.5 -167.5
q0 -83 34 -120.5t91 -37.5q69 0 120 62.5t51 167.5q0 72 -29.5 120.5t-96.5 48.5z" />
    <glyph glyph-name="h" unicode="h" horiz-adv-x="1197" 
d="M713 1505q56 0 56 -54q0 -53 -65 -368.5t-65 -329.5q0 -16 7 -16q5 0 26 33.5t56.5 81t81.5 94.5t114 80.5t142 33.5q100 0 161.5 -64.5t61.5 -192.5q0 -72 -31 -179t-62 -206t-31 -151q0 -68 43 -68q17 0 31.5 14.5t27 28.5t23.5 14q23 0 23 -38q0 -81 -78 -158
t-194 -77q-89 0 -142 53t-53 154q0 72 30 175t60 196.5t30 141.5q0 111 -78 111q-58 0 -123 -76t-114.5 -189.5t-67.5 -225.5q-16 -98 -16 -175q0 -83 -46 -115q-26 -19 -95 -31t-143 -12q-41 0 -55.5 15t-14.5 42q0 17 8 50t24 94t27 109q43 198 100.5 510.5t57.5 379.5
q0 66 -45 88q-40 22 -40 48q0 38 32.5 64.5t110.5 56.5q151 58 225 58z" />
    <glyph glyph-name="i" unicode="i" horiz-adv-x="623" 
d="M720 1497q64 0 103 -38t39 -99q0 -86 -71.5 -147t-159.5 -61q-66 0 -101 36.5t-35 91.5q0 82 68 149.5t157 67.5zM734 1060q54 0 54 -54q0 -40 -37.5 -176.5t-75 -290.5t-37.5 -237q0 -53 15.5 -78t39.5 -25q23 0 48.5 28.5t37.5 28.5q22 0 22 -38q0 -37 -15.5 -76.5
t-44 -75.5t-77.5 -59.5t-109 -23.5q-98 0 -157.5 67.5t-59.5 182.5q0 75 25.5 189t51 210.5t25.5 128.5q0 54 -44 73q-38 20 -38 48q0 41 35.5 66t110.5 52q167 60 230 60z" />
    <glyph glyph-name="j" unicode="j" horiz-adv-x="561" 
d="M386 1497q64 0 103 -38t39 -99q0 -86 -71.5 -147t-159.5 -61q-66 0 -101 36.5t-35 91.5q0 82 68 149.5t157 67.5zM406 1060q53 0 53 -52q0 -24 -8.5 -62t-32 -148.5t-49.5 -255.5l-30 -185q-11 -61 -27.5 -206.5t-20.5 -165.5q-16 -87 -52 -158.5t-83 -120.5t-104 -82.5
t-115.5 -49t-118.5 -15.5q-41 0 -71 15.5t-30 37.5q0 14 7.5 23t28 23t32.5 24q81 61 140 179q52 105 115 454t63 448q0 52 -42 71q-36 19 -36 47q0 42 36 67.5t113 51.5q168 60 232 60z" />
    <glyph glyph-name="k" unicode="k" horiz-adv-x="1184" 
d="M714 1505q58 0 58 -54q0 -49 -66 -361t-66 -333q0 -20 8 -20q4 0 27 33.5t62 81t88.5 94.5t120 80.5t143.5 33.5q95 0 148 -54t53 -144q0 -57 -25.5 -108t-63.5 -85t-83 -62.5t-83 -45.5t-63.5 -30t-25.5 -19q0 -28 33 -95t89.5 -129t107.5 -62q29 0 54 18.5t42.5 37
t29.5 18.5q23 0 23 -45q0 -34 -10.5 -71.5t-33.5 -74.5t-54.5 -66.5t-76.5 -47.5t-97 -18q-81 0 -155.5 52t-122 127t-76 153t-28.5 135q0 47 44 68q39 19 65.5 32.5t65.5 38t63 46.5t41.5 51.5t17.5 58.5q0 36 -17.5 55.5t-49.5 19.5q-62 0 -131 -74.5t-121 -187
t-69 -223.5q-13 -96 -13 -181q0 -83 -46 -115q-26 -19 -95 -31t-143 -12q-41 0 -55.5 15t-14.5 42q0 17 8.5 50.5t25 93.5t27.5 109q42 188 100 505t58 385q0 65 -46 88q-41 24 -41 48q0 38 33 64.5t112 56.5q150 58 224 58z" />
    <glyph glyph-name="l" unicode="l" horiz-adv-x="602" 
d="M775 1505q58 0 58 -54q0 -64 -53 -303.5t-106 -494.5t-53 -356q0 -50 15.5 -74t39.5 -24q23 0 47.5 28.5t36.5 28.5q21 0 21 -38q0 -36 -15.5 -76t-44.5 -76t-78 -59.5t-107 -23.5q-96 0 -155 67.5t-59 183.5q0 106 42 317t84 399t42 240q0 71 -49 91q-14 9 -18.5 12
t-11.5 13t-7 21q0 37 29.5 60.5t103.5 54.5q68 28 136.5 45.5t101.5 17.5z" />
    <glyph glyph-name="m" unicode="m" horiz-adv-x="1750" 
d="M608 1057q55 0 55 -55q0 -50 -26.5 -164t-26.5 -128t6 -14q4 0 21 27t41 67.5t62.5 87.5t82 87.5t103 67.5t122.5 27q92 0 144.5 -64.5t52.5 -184.5q0 -11 -0.5 -26t-0.5 -19q0 -15 7 -15q6 0 11 7t15 26t18 33q59 100 146.5 171.5t189.5 71.5q96 0 155 -64.5t59 -192.5
q0 -72 -30 -179t-59.5 -206t-29.5 -151q0 -68 42 -68q20 0 43 28.5t35 28.5q23 0 23 -38q0 -81 -76 -158t-192 -77q-88 0 -141 53t-53 154q0 72 28.5 175t57.5 196.5t29 141.5q0 111 -71 111q-52 0 -109.5 -75t-101.5 -186t-66 -225q-22 -104 -22 -180q0 -82 -46 -115
q-25 -19 -95 -31t-144 -12q-41 0 -55 15t-14 42q0 13 5 37t11 48t18.5 70.5t21.5 82.5q85 331 85 418q0 111 -71 111q-52 0 -110 -74.5t-101.5 -185t-64.5 -224.5q-17 -87 -17 -182q0 -82 -47 -115q-26 -19 -95.5 -31t-143.5 -12q-40 0 -55 15.5t-15 41.5q0 16 8.5 49
t23.5 89t25 107q74 370 74 451q0 70 -40 90q-37 20 -37 48q0 32 35.5 59.5t113.5 58.5q140 58 186 58z" />
    <glyph glyph-name="n" unicode="n" horiz-adv-x="1208" 
d="M613 1057q55 0 55 -55q0 -51 -28.5 -166.5t-28.5 -126.5q0 -15 7 -15q4 0 22.5 27t44 68t66.5 88t87.5 88t110 68t129.5 27q102 0 164 -64.5t62 -192.5q0 -72 -31 -179t-62.5 -206t-31.5 -151q0 -68 44 -68q21 0 45 28.5t37 28.5q22 0 22 -38q0 -81 -77.5 -158
t-193.5 -77q-90 0 -143.5 53t-53.5 154q0 72 30.5 175t60.5 196.5t30 141.5q0 111 -79 111q-59 0 -125.5 -76t-116.5 -189.5t-68 -225.5q-16 -98 -16 -175q0 -83 -46 -115q-26 -19 -95.5 -31t-144.5 -12q-40 0 -55 15.5t-15 41.5q0 16 9.5 49t25.5 89t27 107q76 368 76 451
q0 71 -46 90q-38 20 -38 48q0 32 35.5 59.5t113.5 58.5q140 58 191 58z" />
    <glyph glyph-name="o" unicode="o" horiz-adv-x="1082" 
d="M796 1060q182 0 306.5 -122t124.5 -331q0 -149 -46.5 -270t-126 -198t-181.5 -118t-217 -41q-194 0 -313.5 121t-119.5 314q0 135 47 256t125 205.5t183 134t218 49.5zM780 899q-60 0 -116 -66t-91 -180.5t-35 -244.5q0 -117 41 -178.5t108 -61.5q100 0 167.5 130
t67.5 327q0 127 -40.5 200.5t-101.5 73.5z" />
    <glyph glyph-name="p" unicode="p" horiz-adv-x="1143" 
d="M455 1057q54 0 54 -55q0 -23 -15 -85.5t-15 -74.5q0 -14 8 -14q3 0 11 10t21.5 28t24.5 30q67 73 140 118.5t166 45.5q139 0 218 -105t79 -286q0 -151 -43.5 -281.5t-115 -218t-164 -137.5t-191.5 -50q-49 0 -91 14.5t-63.5 32t-37.5 32t-19 14.5q-14 0 -31.5 -103
t-17.5 -153q0 -31 13 -49.5t45 -45.5q6 -5 21.5 -16t22.5 -17t14 -18.5t7 -26.5q0 -67 -87 -67q-26 0 -103.5 2.5t-105.5 2.5q-34 0 -100.5 -2.5t-103.5 -2.5q-57 0 -57 46q0 18 9 35t15 24t25 22l19 15q38 36 53 72t23 87q34 184 78.5 483.5t44.5 379.5q0 70 -45 90
q-39 21 -39 48q0 32 33.5 59t111.5 59q135 58 188 58zM696 857q-91 0 -165.5 -139t-74.5 -345q0 -111 37.5 -163t92.5 -52q65 0 122.5 62t93 170.5t35.5 236.5q0 230 -141 230z" />
    <glyph glyph-name="q" unicode="q" horiz-adv-x="1115" 
d="M729 1060q57 0 105.5 -18t77.5 -44t50 -51.5t34 -43.5t18 -18q7 0 48.5 37.5t92.5 74.5t80 37q43 0 43 -59q0 -18 -7.5 -49t-20 -78t-19.5 -84q-38 -186 -72 -411.5t-50.5 -363.5t-16.5 -164q0 -39 7.5 -61t24.5 -43q1 -1 13.5 -17.5t19 -30.5t6.5 -29q0 -65 -71 -65
q-36 0 -108 2.5t-108 2.5q-38 0 -101 -2.5t-88 -2.5q-69 0 -69 50q0 28 18.5 45t50.5 34.5t48 35.5q45 40 75.5 172.5t30.5 193.5q0 22 -12 22q-4 0 -7.5 -3t-10.5 -11.5t-14 -14.5q-118 -123 -270 -123q-141 0 -223.5 105.5t-82.5 285.5q0 150 43.5 281.5t114.5 219.5
t162.5 138t187.5 50zM788 891q-94 0 -170 -136.5t-76 -328.5q0 -114 36.5 -173.5t104.5 -59.5q93 0 162 133t69 343q0 112 -35.5 167t-90.5 55z" />
    <glyph glyph-name="r" unicode="r" horiz-adv-x="964" 
d="M613 1057q55 0 55 -55q0 -56 -29.5 -170t-29.5 -126t5 -12q6 0 22.5 27.5t38.5 68t57 88.5t74.5 88.5t95.5 68t115 27.5q58 0 101 -43t43 -128q0 -103 -65 -188t-143 -85q-38 0 -50 24t-15 83q-1 69 -39 69q-32 0 -85 -65t-103.5 -178t-69.5 -228q-16 -98 -16 -175
q0 -83 -46 -115q-26 -19 -95.5 -31t-144.5 -12q-40 0 -55 15.5t-15 41.5q0 16 9.5 49t25.5 89t27 107q76 368 76 451q0 71 -46 90q-38 20 -38 48q0 32 34.5 58.5t113.5 59.5q139 58 192 58z" />
    <glyph glyph-name="s" unicode="s" horiz-adv-x="923" 
d="M732 1062q91 0 168.5 -24t110.5 -67q41 -52 41 -129q0 -67 -23 -100t-55 -33q-22 0 -38.5 16t-39.5 52q-45 67 -70 89q-52 47 -124 47q-55 0 -91.5 -31t-36.5 -75q0 -29 26 -58.5t50.5 -45.5t94.5 -56q21 -13 32 -19q58 -33 97 -60.5t76 -65t55 -82t18 -97.5
q0 -160 -130.5 -256t-334.5 -96q-91 0 -184.5 32t-135.5 94q-52 72 -52 142q0 62 22.5 103t61.5 41q11 0 21.5 -8.5t17 -18t17.5 -27.5q23 -36 41 -60.5t49.5 -57t71.5 -50t86 -17.5q60 0 94 30.5t34 74.5q0 25 -13 48t-37.5 44t-52 39.5t-65.5 41.5q-13 8 -20 12
q-52 33 -85 58t-67.5 60.5t-51.5 77.5t-17 91q0 104 62.5 183t161.5 118.5t215 39.5z" />
    <glyph glyph-name="t" unicode="t" horiz-adv-x="758" 
d="M740 1286q25 0 40.5 -16.5t15.5 -50.5q0 -23 -23.5 -107.5t-23.5 -88.5q0 -8 8 -8q9 0 87 4.5t92 4.5q32 0 48 -11.5t16 -42.5q0 -29 -20.5 -66.5t-43.5 -60.5q-14 -14 -41 -14q-12 0 -82 4.5t-77 4.5q-19 0 -27 -20q-18 -45 -48.5 -214t-30.5 -247q0 -72 20.5 -106
t68.5 -34q42 0 82 28t59 57q24 32 39 32q10 0 17.5 -11.5t7.5 -30.5q0 -44 -36 -110q-42 -79 -128 -140.5t-200 -61.5q-119 0 -183 72t-64 205q0 84 23.5 209.5t47 223.5t23.5 114q0 22 -7.5 31t-27.5 13q-44 6 -64.5 16.5t-20.5 34.5q0 56 67 90q16 8 54 19t57 27
q12 9 35 75t43 86q47 45 99.5 67.5t97.5 22.5z" />
    <glyph glyph-name="u" unicode="u" horiz-adv-x="1206" 
d="M722 1060q56 0 56 -58q0 -31 -34.5 -150.5t-69 -264t-34.5 -238.5q0 -77 29.5 -116.5t81.5 -39.5q61 0 113.5 60.5t84.5 158.5q32 99 51.5 235t19.5 269q0 37 17 59t67 40q48 17 111 25.5t100 8.5q57 0 57 -58q0 -43 -34 -172.5t-68 -275.5t-34 -231q0 -45 13 -79t45 -34
q17 0 32 14.5t28 28.5t24 14q24 0 24 -42q0 -36 -14.5 -75t-42 -74.5t-75.5 -58.5t-107 -23q-139 0 -184 142q-1 2 -3 9t-3.5 12.5t-5 10t-6.5 4.5q-8 0 -40 -38q-18 -21 -40.5 -41t-60 -45.5t-89 -41t-107.5 -15.5q-143 0 -213.5 81t-70.5 222q0 97 43.5 273.5t43.5 202.5
q0 52 -43 75q-40 22 -40 51t20 50.5t45 33t77 31.5q158 60 236 60z" />
    <glyph glyph-name="v" unicode="v" horiz-adv-x="1101" 
d="M654 1060q36 0 51 -18t15 -43q0 -21 -10 -79t-27 -151.5t-27 -163.5q-21 -152 -21 -249q0 -174 89 -174q65 0 133.5 86t111 205t42.5 216q0 83 -41 126q-6 6 -16.5 15.5t-14.5 14t-9 12t-7 16t-2 20.5q0 65 58.5 116t136.5 51q61 0 100 -30.5t53 -73t14 -97.5
q0 -63 -23 -151t-63.5 -186.5t-102 -195t-132.5 -173.5t-162 -125t-184 -48q-120 0 -195.5 84.5t-75.5 258.5q0 68 23 250q21 155 21 176q0 58 -60 85q-24 13 -34 24.5t-10 32.5q0 33 32 58t98 51q68 27 137 43.5t102 16.5z" />
    <glyph glyph-name="w" unicode="w" horiz-adv-x="1646" 
d="M696 1056q35 0 49.5 -17.5t14.5 -41.5q0 -23 -24.5 -97.5t-54.5 -158t-54.5 -189.5t-24.5 -184q0 -94 32 -138.5t81 -44.5q66 0 127 64t61 103q0 4 -5 54.5t-5 98.5q0 233 73.5 364t177.5 131q137 0 137 -165q0 -86 -25.5 -175.5t-51 -149.5t-25.5 -76q0 -106 34 -179
t93 -73q69 0 129.5 80.5t92.5 193t32 218.5q0 42 -11.5 81t-27.5 58q-5 5 -18 18.5t-16.5 18.5t-7.5 16.5t-4 25.5q0 65 57.5 116.5t135.5 51.5q58 0 96.5 -35t52.5 -82t14 -103q0 -54 -12 -125t-37.5 -153t-61.5 -163.5t-88 -157.5t-112.5 -134t-140 -92.5t-165.5 -34.5
q-115 0 -207 116q-6 8 -18 25.5t-19 26t-13 8.5t-19 -12.5t-39 -37t-54 -44.5q-117 -82 -232 -82q-46 0 -87 10.5t-78.5 35t-65 61.5t-43.5 94.5t-16 129.5q0 75 20 171.5t40 172t20 99.5q0 56 -54 81q-22 12 -32 24.5t-10 32.5q0 34 32.5 59t99.5 50q65 26 142 40.5
t115 14.5z" />
    <glyph glyph-name="x" unicode="x" horiz-adv-x="1123" 
d="M509 1060q67 0 98 -56q12 -20 25.5 -60t33 -105.5t35.5 -110.5q15 -38 23 -38q13 0 32 40q173 330 337 330q65 0 106 -40t41 -122q0 -77 -49.5 -134.5t-112.5 -57.5q-14 0 -23.5 9.5t-15 21t-18 21t-31.5 9.5q-47 0 -121 -95t-74 -130q0 -37 39 -112t101 -141t114 -66
q25 0 47 11.5t33.5 25.5t24 25.5t22.5 11.5q22 0 22 -47q0 -41 -16.5 -86t-48.5 -88t-90 -71t-131 -28q-152 0 -295 247q-24 46 -35 46q-10 0 -36 -46q-78 -130 -151 -189t-152 -59q-63 0 -106 40t-43 119q0 73 46.5 125.5t102.5 52.5q11 0 20.5 -7.5t16 -17t20 -17
t32.5 -7.5q41 0 104 72t63 101q0 19 -17.5 62t-59 129.5t-57.5 122.5q-14 24 -26 39.5t-26.5 24t-21 11t-23.5 7.5q-54 20 -54 56q0 32 38 65t89 55t98.5 36.5t69.5 14.5z" />
    <glyph glyph-name="y" unicode="y" horiz-adv-x="1103" 
d="M609 1060q36 0 51 -18.5t15 -42.5q0 -27 -24 -106.5t-52.5 -166.5t-52.5 -194.5t-24 -181.5q0 -163 121 -163q72 0 142.5 76.5t113.5 189t43 216.5q0 91 -47 145q-8 9 -20.5 20t-18.5 17.5t-11 17.5t-5 25q0 65 57.5 115.5t137.5 50.5q171 0 171 -253q0 -153 -59.5 -369
t-145.5 -389q-53 -108 -114 -194.5t-134.5 -155t-160 -106t-180.5 -37.5q-110 0 -187.5 59.5t-77.5 152.5q0 66 38.5 112t85.5 46q8 0 15 -3t13 -9.5t9.5 -12t10 -17t10.5 -17.5q53 -80 147 -80q64 0 124 30t101 73.5t72 92t46 86.5t15 56q0 10 -11 10q-5 0 -31 -22.5
t-59.5 -50t-89.5 -50t-114 -22.5q-56 0 -104 15t-91.5 49t-69 98.5t-25.5 152.5q0 80 21.5 174.5t43.5 168.5t22 103q0 35 -14.5 52.5t-41.5 30.5q-25 13 -34.5 24.5t-9.5 33.5q0 33 29 58t92 50q65 26 145 43t117 17z" />
    <glyph glyph-name="z" unicode="z" horiz-adv-x="929" 
d="M467 1060q58 0 139.5 -23.5t150 -47.5t93.5 -24q36 0 83.5 44t83.5 44q21 0 33.5 -13.5t12.5 -34.5q0 -38 -62.5 -120.5t-131 -153.5t-178.5 -179q-19 -19 -49 -48.5t-47.5 -46.5t-40.5 -40t-36 -37t-25.5 -29t-18 -24.5t-5.5 -14.5t4 -8t15 -5.5t23 -4t37 -5.5t48 -9
q11 -2 49.5 -10.5t63 -12t47.5 -3.5q42 0 74.5 18t47.5 40t30.5 40t27.5 18q15 0 22 -19t7 -41q0 -49 -14.5 -102.5t-44.5 -106.5t-86 -87t-130 -34q-65 0 -151.5 25t-156 50.5t-95.5 25.5q-25 0 -46 -14t-34 -31.5t-36 -31.5t-52 -14q-21 0 -35 13t-14 34q0 105 343 437
q20 20 51.5 50t50.5 48t43.5 42t38.5 39t27.5 30t19.5 25t6 15q0 6 -8.5 9.5t-45.5 11.5q-26 6 -43 10q-125 29 -158 29q-72 0 -106 -55q-25 -39 -45 -39q-40 0 -40 83q0 54 15 104t45 92t82.5 67t120.5 25z" />
    <glyph glyph-name="braceleft" unicode="{" horiz-adv-x="697" 
d="M545 577q0 -6 12.5 -12t30.5 -15.5t35.5 -25t30 -47t12.5 -74.5q0 -68 -35 -162t-70 -184.5t-35 -147.5q0 -101 92 -132q12 -5 37.5 -12t38.5 -12t24.5 -16t11.5 -27q0 -56 -134 -56q-96 0 -166 20t-107.5 55t-55 75t-17.5 87q0 54 28 132.5t61.5 145t61.5 140.5t28 120
q0 37 -15 60t-33 31t-33 20t-15 30q0 23 15 37t36.5 23t42.5 22.5t36 47.5t15 87q0 55 -22 196t-22 203q0 48 11.5 90.5t42 84.5t76.5 72t121 48.5t170 18.5q120 0 120 -45q0 -16 -7 -27t-22.5 -18.5t-29 -12t-37 -10.5t-36.5 -10q-137 -42 -137 -210q0 -46 10.5 -157
t10.5 -161q0 -72 -18.5 -123.5t-45.5 -75.5t-54 -38t-45.5 -21t-18.5 -14z" />
    <glyph glyph-name="bar" unicode="|" horiz-adv-x="582" 
d="M738 1463q0 -13 -65 -472.5t-130 -912.5l-65 -452q-2 -23 -22.5 -35t-71.5 -12q-59 0 -78 9t-19 32q0 15 64.5 475.5t128.5 912.5l65 453q2 24 22.5 36t71.5 12q60 0 79.5 -9.5t19.5 -36.5z" />
    <glyph glyph-name="braceright" unicode="}" horiz-adv-x="697" 
d="M449 579q0 6 -12.5 12t-30.5 15.5t-35.5 24.5t-30 46.5t-12.5 74.5q0 68 35 162t70 184t35 147q0 104 -90 132q-12 5 -37.5 12t-39 12t-25.5 16.5t-12 26.5q0 56 134 56q96 0 166 -20t107.5 -54.5t54.5 -74.5t17 -88q0 -54 -27.5 -132.5t-61 -144.5t-61 -140t-27.5 -120
q0 -37 15 -60.5t33 -31t33 -20t15 -30.5q0 -20 -11 -33t-27 -19t-35 -17t-35 -25t-27 -46t-11 -77q0 -55 22.5 -196t22.5 -203q0 -48 -12 -90.5t-42 -84.5t-76.5 -72t-121.5 -48.5t-171 -18.5q-120 0 -120 46q0 16 7.5 27t23 18.5t29.5 11.5t37 10t37 10q65 20 101 69.5
t36 141.5q0 46 -11 156.5t-11 160.5q0 61 13.5 108t33.5 72t44 42.5t44 24.5t33.5 14t13.5 13z" />
    <glyph glyph-name="asciitilde" unicode="~" horiz-adv-x="1048" 
d="M342 560q0 107 80 190t189 83q51 0 108.5 -22.5t100.5 -50t93 -50t88 -22.5q46 0 78 23t45 51t27 51t28 23q19 0 35.5 -29t16.5 -76q0 -109 -79 -186.5t-194 -77.5q-55 0 -115 24.5t-103 54.5t-93.5 54.5t-89.5 24.5q-40 0 -71 -22t-45.5 -49t-30.5 -49t-30 -22t-26 21
t-12 56z" />
    <glyph glyph-name="uni00A0" unicode="&#xa0;" horiz-adv-x="487" 
 />
    <glyph glyph-name="exclamdown" unicode="&#xa1;" horiz-adv-x="568" 
d="M376 871q0 84 57.5 136.5t136.5 52.5q64 0 107.5 -39t43.5 -110q0 -86 -60 -139.5t-135 -53.5q-63 0 -106.5 40.5t-43.5 112.5zM205 -228q0 56 37 156.5t98.5 263t100.5 317.5q23 77 70 77q45 0 59 -92q11 -77 11 -190q0 -160 -17.5 -321.5t-51.5 -239.5
q-58 -123 -172 -123q-63 0 -99 41.5t-36 110.5z" />
    <glyph glyph-name="cent" unicode="&#xa2;" horiz-adv-x="1126" 
d="M1074 1538q0 -22 -46 -298q121 -15 199.5 -85t78.5 -170q0 -89 -55.5 -140.5t-113.5 -51.5q-35 0 -35 26q0 7 1 30.5t1 35.5q0 147 -103 197q-72 -437 -110 -659q51 1 99 15.5t78 29.5t63.5 43.5t44 40t33.5 36.5q25 23 40 23q26 0 26 -44q0 -59 -32 -124.5t-86 -123.5
t-136 -100.5t-173 -53.5l-47 -277q-4 -27 -35.5 -47t-69.5 -20q-19 0 -25.5 7t-6.5 25q0 23 49 314q-161 25 -253.5 146t-92.5 297q0 152 65.5 288t186.5 228.5t273 112.5q46 264 49 273q6 23 36 43.5t67 20.5q30 0 30 -38zM611 727q0 -102 40.5 -172.5t107.5 -104.5
q83 502 109 651q-105 -16 -181 -120.5t-76 -253.5z" />
    <glyph glyph-name="sterling" unicode="&#xa3;" horiz-adv-x="1126" 
d="M184 550q0 71 173 110q30 7 30 29q0 8 -14.5 46.5t-29 96t-14.5 111.5q0 111 46.5 204.5t122 153t168.5 92t190 32.5q101 0 190 -36.5t135 -99.5q37 -50 37 -152q0 -165 -71 -165q-16 0 -29 9t-19.5 19.5t-20 34.5t-23.5 39q-29 45 -47 69t-48 53t-66 41.5t-82 12.5
q-85 0 -142.5 -66.5t-57.5 -153.5q0 -116 91 -257q21 -34 49 -34q17 0 121 20t128 20q39 0 39 -36q0 -35 -29.5 -77t-68.5 -60q-10 -5 -32 -8.5t-70 -8.5t-75 -8q-26 -2 -32 -25q-39 -129 -119 -205q-5 -6 -12.5 -13t-10 -10t-6 -7t-4.5 -6.5t-1 -5.5q0 -9 17 -9
q47 -2 161.5 -34t157.5 -32q76 0 126 48t85 134q29 66 60 66q35 0 35 -57q0 -63 -13 -125t-41.5 -120t-70 -102.5t-103 -71t-134.5 -26.5q-64 0 -151 31t-167 62t-127 31q-32 0 -64 -18t-53.5 -39t-51.5 -39t-60 -18q-26 0 -39.5 16.5t-13.5 37.5q0 30 24 58.5t60 51
t78.5 52.5t78.5 61t60 78t24 102q0 82 -86 82q-16 0 -72.5 -8.5t-73.5 -8.5q-21 0 -31.5 11t-10.5 27z" />
    <glyph glyph-name="currency" unicode="&#xa4;" horiz-adv-x="1126" 
d="M389 604q0 147 106 278l-115 128q-14 15 -14 37q0 24 40.5 64t65.5 40q17 0 30 -17l107 -150q106 72 228 72q117 0 207 -72l151 150q18 17 35 17q23 0 51 -36t28 -62q0 -22 -27 -43l-150 -129q37 -68 37 -176q0 -153 -105 -282l123 -135q12 -15 12 -31q0 -24 -42.5 -61
t-66.5 -37q-22 0 -38 21l-103 141q-110 -72 -225 -72q-123 0 -208 74l-150 -150q-17 -17 -36 -17q-22 0 -50 37t-28 61q0 22 26 43l151 128q-40 75 -40 179zM579 624q0 -81 47 -138t124 -57q94 0 163 77t69 177q0 82 -47 138.5t-124 56.5q-94 0 -163 -77t-69 -177z" />
    <glyph glyph-name="yen" unicode="&#xa5;" horiz-adv-x="1189" 
d="M1219 544h-242q-20 0 -32 -28t-12 -58q0 -37 28 -37h312q31 0 31 -32q0 -47 -34.5 -84t-93.5 -37h-244q0 -4 -0.5 -11t-0.5 -10q0 -32 7.5 -55t14.5 -32.5t22 -24.5q6 -6 20.5 -17.5t21 -18t12.5 -18t6 -23.5q0 -27 -23 -45t-64 -18q-29 0 -112 2.5t-115 2.5
q-36 0 -120.5 -2.5t-113.5 -2.5q-33 0 -50 13.5t-17 35.5q0 16 8.5 29.5t17.5 20.5t28.5 19.5t29.5 19.5q20 15 31.5 27t26.5 40t24 68h-300q-32 0 -32 33q0 43 35 81.5t89 38.5h223q22 0 33.5 27t11.5 57q0 39 -29 39h-290q-33 0 -33 33q0 43 36.5 80.5t87.5 37.5h200
q-20 60 -90.5 225.5t-126.5 273.5q-14 27 -46.5 61t-32.5 60q0 83 122 83q13 0 66 -2.5t84 -2.5q66 0 125.5 2.5t81.5 2.5q36 0 55.5 -14.5t19.5 -40.5q0 -22 -15 -43t-32.5 -36.5t-32.5 -41.5t-15 -57q0 -61 50.5 -215.5t74.5 -154.5q26 0 134 181.5t108 225.5q0 34 -28 71
t-28 58q0 67 92 67q19 0 65.5 -2.5t72.5 -2.5q20 0 61.5 2.5t65.5 2.5q59 0 59 -46q0 -25 -14 -44t-43.5 -43t-44.5 -42q-54 -55 -177 -223.5t-211 -304.5h297q28 0 28 -30q0 -47 -33.5 -84t-90.5 -37z" />
    <glyph glyph-name="brokenbar" unicode="&#xa6;" horiz-adv-x="582" 
d="M738 1463q0 -13 -26 -199t-52 -365l-27 -179q-2 -24 -22.5 -36t-71.5 -12q-59 0 -79 9.5t-20 32.5q0 15 26.5 201.5t52.5 366.5l26 179q2 24 22.5 36t71.5 12q60 0 79.5 -9.5t19.5 -36.5zM584 371q0 -13 -26.5 -199.5t-53.5 -365.5l-26 -180q-2 -23 -22.5 -35t-71.5 -12
q-59 0 -78 9t-19 32q0 15 25.5 202.5t51.5 367.5l26 179q2 23 22.5 35t71.5 12q60 0 80 -9.5t20 -35.5z" />
    <glyph glyph-name="section" unicode="&#xa7;" horiz-adv-x="1128" 
d="M1179 577q0 -65 -19 -118.5t-46 -85t-54 -53.5t-46 -35t-19 -20q0 -8 16.5 -27.5t37 -44t37 -72t16.5 -103.5q0 -130 -71 -232t-184 -154.5t-244 -52.5q-84 0 -159 25t-127 64.5t-90.5 87.5t-56.5 95t-18 87q0 29 11 47.5t30 18.5q8 0 14.5 -3t13.5 -11.5t10 -13
t11 -19.5t11 -20q43 -73 131.5 -131.5t205.5 -58.5t176.5 54t59.5 131q0 46 -31.5 80.5t-82 57t-111.5 43.5t-121.5 47.5t-111 61t-82 92t-31.5 133.5q0 58 18.5 109.5t45 84t53 57.5t45 40.5t18.5 21.5q0 7 -14.5 26t-32 43t-32 69.5t-14.5 97.5q0 183 146 306t363 123
q105 0 196 -31.5t130 -90.5q37 -49 37 -144q0 -164 -68 -164q-12 0 -22.5 5.5t-20 18t-15.5 23t-16 29.5t-15 28q-51 81 -110 127.5t-146 46.5q-100 0 -159 -51.5t-59 -127.5q0 -46 33 -80.5t85.5 -57t116 -43t127 -47t116 -61t85.5 -93t33 -135.5zM958 455q0 48 -44 92
t-106 72.5t-125 45t-106 16.5q-54 0 -84.5 -32.5t-30.5 -78.5q0 -48 43.5 -91.5t106 -70t125 -42t106.5 -15.5q54 0 84.5 30t30.5 74z" />
    <glyph glyph-name="dieresis" unicode="&#xa8;" horiz-adv-x="780" 
d="M677 1484q56 0 90 -34.5t34 -92.5q0 -72 -54.5 -122.5t-123.5 -50.5q-54 0 -86.5 33.5t-32.5 87.5q0 69 51 124t122 55zM1051 1484q56 0 90 -34.5t34 -92.5q0 -72 -55 -122.5t-124 -50.5q-53 0 -85 33.5t-32 87.5q0 69 50.5 124t121.5 55z" />
    <glyph glyph-name="copyright" unicode="&#xa9;" horiz-adv-x="1689" 
d="M397 639q0 162 63 307.5t171 251t259.5 167.5t320.5 62q151 0 280 -51.5t219 -141.5t140.5 -214.5t50.5 -267.5q0 -162 -63.5 -308t-172 -251t-260 -166.5t-320.5 -61.5q-202 0 -359.5 88.5t-243 242t-85.5 343.5zM540 647q0 -111 36 -210.5t103.5 -177.5t175.5 -124
t242 -46q151 0 277.5 55.5t208.5 148t127 209.5t45 243q0 111 -36 210.5t-103.5 178t-175.5 124.5t-241 46q-151 0 -277.5 -56t-208.5 -148.5t-127.5 -210t-45.5 -242.5zM696 644q0 140 63.5 260.5t184.5 196t273 75.5q131 0 216.5 -61.5t85.5 -156.5q0 -73 -49.5 -119.5
t-128.5 -46.5q-32 0 -44.5 15.5t-17.5 55.5q-5 36 -12.5 62.5t-21 55t-36.5 43.5t-55 15q-77 0 -133 -74.5t-56 -195.5q0 -131 69.5 -215.5t192.5 -84.5q48 0 90 12t74 35t48 37.5t37 38.5q20 20 33 20q27 0 27 -48q0 -54 -30.5 -112.5t-84 -109t-135.5 -83t-174 -32.5
q-188 0 -302 117.5t-114 299.5z" />
    <glyph glyph-name="ordfeminine" unicode="&#xaa;" horiz-adv-x="819" 
d="M963 669q-48 0 -81.5 30t-41.5 69q-7 24 -14 24q-4 0 -21 -19q-97 -105 -208 -105q-98 0 -156 73t-58 201q0 106 30.5 198t81 153.5t114.5 96.5t131 35q50 0 90 -19t59.5 -42t34 -42t18.5 -19q5 0 35.5 25.5t67 51.5t57.5 26q33 0 33 -42q0 -5 -5 -23t-13 -49t-13 -59
q-56 -268 -56 -347q0 -57 29 -57q17 0 35 20t26 20q14 0 14 -28q0 -58 -52.5 -115t-136.5 -57zM715 826q62 0 107 90.5t45 234.5q0 76 -23.5 112.5t-58.5 36.5q-62 0 -112 -94t-50 -223q0 -77 24 -117t68 -40z" />
    <glyph glyph-name="guillemotleft" unicode="&#xab;" horiz-adv-x="1013" 
d="M654 558q0 -6 2.5 -13t5.5 -13.5t11.5 -22t15.5 -29.5q71 -148 71 -243q0 -59 -42 -59q-25 0 -52 40q-92 133 -192 223q-10 10 -32 27.5t-32.5 28t-20.5 26.5t-10 32q0 19 13.5 37t26 28t45 31t44.5 30q130 95 255 223q4 4 12 11.5t12.5 11.5t11 8.5t13 6.5t13.5 2
q31 0 31 -36q0 -35 -39.5 -108t-105.5 -158q-14 -19 -28.5 -36t-18.5 -22.5t-7 -12t-3 -13.5zM1030 558q0 -6 2.5 -13t5.5 -13.5t11.5 -22t15.5 -29.5q71 -148 71 -243q0 -59 -42 -59q-26 0 -53 40q-44 64 -98 126t-93 97q-10 10 -32 27.5t-32.5 28t-20.5 26.5t-10 32
q0 19 13.5 37t26 28t45 31t44.5 30q130 95 255 223q4 4 12 11.5t12.5 11.5t11 8.5t13 6.5t13.5 2q31 0 31 -36q0 -35 -40 -108t-106 -158q-12 -16 -24 -31t-16.5 -20.5t-9 -12t-5.5 -10.5t-1 -10z" />
    <glyph glyph-name="logicalnot" unicode="&#xac;" horiz-adv-x="1047" 
d="M1077 756q0 18 -27 18h-603q-29 0 -29 36q0 55 25 118q9 24 22 33t45 9h753q31 0 31 -45q0 -13 -17.5 -141t-34.5 -250l-18 -121q-2 -24 -23 -36t-72 -12q-58 0 -77.5 9t-19.5 33q0 16 22.5 173.5t22.5 175.5z" />
    <glyph glyph-name="uni00AD" unicode="&#xad;" horiz-adv-x="696" 
d="M702 436h-399q-51 0 -51 43q0 20 11 57t30 69q18 30 40.5 41t65.5 11h405q48 0 48 -41q0 -23 -12.5 -61.5t-28.5 -65.5q-18 -29 -42 -41t-67 -12z" />
    <glyph glyph-name="registered" unicode="&#xae;" horiz-adv-x="1689" 
d="M397 639q0 162 63 307.5t171 251t259.5 167.5t320.5 62q151 0 280 -51.5t219 -141.5t140.5 -214.5t50.5 -267.5q0 -162 -63.5 -308t-172 -251t-260 -166.5t-320.5 -61.5q-202 0 -359.5 88.5t-243 242t-85.5 343.5zM540 647q0 -111 36 -210.5t103.5 -177.5t175.5 -124
t242 -46q151 0 277.5 55.5t208.5 148t127 209.5t45 243q0 111 -36 210.5t-103.5 178t-175.5 124.5t-241 46q-151 0 -277.5 -56t-208.5 -148.5t-127.5 -210t-45.5 -242.5zM1034 566q-13 -108 -13 -134q0 -35 20 -64q3 -4 14.5 -16.5t15.5 -21.5t4 -20q0 -18 -14.5 -29
t-37.5 -11q-20 0 -61 2t-61 2q-25 0 -69.5 -2t-58.5 -2q-47 0 -47 34q0 17 13.5 29.5t30.5 32.5t24 53q17 76 34 307q2 27 7 83t8.5 96.5t3.5 56.5q0 40 -11.5 65.5t-23.5 41.5t-12 32q0 40 48 40q33 0 77 -1.5t84 -1.5q30 0 101.5 2.5t111.5 2.5q129 0 205.5 -49.5
t76.5 -152.5q0 -172 -200 -230q-12 -3 -12 -10q0 -5 8 -11q101 -58 153 -233q21 -69 45 -96q7 -10 17 -18.5t14.5 -15t4.5 -16.5q0 -41 -47 -41q-12 0 -58 2t-62 2q-30 0 -73 -2t-48 -2q-22 0 -35 10.5t-13 27.5q0 7 12 34t12 59q0 51 -25.5 116.5t-53.5 88.5q-29 20 -66 20
q-22 0 -31 -14.5t-12 -45.5zM1261 899q0 61 -32.5 95t-89.5 34q-43 0 -54.5 -14t-18.5 -72q-14 -127 -14 -151q0 -28 14 -37.5t52 -9.5q63 0 103 43t40 112z" />
    <glyph glyph-name="macron" unicode="&#xaf;" horiz-adv-x="780" 
d="M1026 1214h-447q-49 0 -49 44q0 49 28 110q13 26 33.5 36.5t59.5 10.5h454q46 0 46 -42q0 -54 -28 -110q-14 -26 -36 -37.5t-61 -11.5z" />
    <glyph glyph-name="degree" unicode="&#xb0;" horiz-adv-x="729" 
d="M763 1427q120 0 197 -82t77 -212q0 -150 -97 -254.5t-240 -104.5q-124 0 -203 86.5t-79 211.5q0 147 101.5 251t243.5 104zM757 1286q-72 0 -122.5 -55t-50.5 -139q0 -70 37.5 -114.5t99.5 -44.5q71 0 119.5 55t48.5 136q0 68 -34.5 115t-97.5 47z" />
    <glyph glyph-name="plusminus" unicode="&#xb1;" horiz-adv-x="1046" 
d="M1114 730h-266l-46 -317q-3 -23 -22.5 -35t-70.5 -12q-60 0 -79.5 9t-19.5 32q0 27 43 323h-292q-29 0 -29 36q0 57 24 118q9 24 22.5 33t45.5 9h257l45 310q3 23 23 35t71 12q60 0 80 -9.5t20 -35.5q0 -24 -43 -312h300q31 0 31 -45q0 -30 -25 -109q-9 -24 -22.5 -33
t-46.5 -9zM1014 106h-753q-30 0 -30 36q0 55 25 118q9 24 22.5 33t45.5 9h752q32 0 32 -45q0 -27 -26 -109q-9 -24 -22 -33t-46 -9z" />
    <glyph glyph-name="two.sups" unicode="&#xb2;" horiz-adv-x="687" 
d="M596 955q0 -6 14 -6q20 0 83.5 -11t86.5 -11q29 0 56.5 12.5t34.5 28.5q25 46 50 46q20 0 20 -35q0 -42 -10 -81.5t-30 -75t-57.5 -57.5t-87.5 -22q-53 0 -155.5 32.5t-138.5 32.5q-27 0 -60.5 -29t-59.5 -29q-33 0 -33 26q0 24 44 68l116 104q48 41 71.5 62.5t62 60
t57 65t33.5 61t15 65.5q0 45 -31 67t-72 22q-74 0 -139 -72q-17 -15 -29 -15q-19 0 -19 28q0 31 17.5 67.5t50.5 71t90 57.5t125 23q101 0 166 -48t65 -134q0 -29 -9.5 -57.5t-21 -50.5t-37 -49.5t-42 -43.5t-52 -43t-51 -38.5t-54.5 -38.5q-65 -44 -68 -49q-1 -2 -1 -4z
" />
    <glyph glyph-name="three.sups" unicode="&#xb3;" horiz-adv-x="661" 
d="M642 1220q14 11 40 30.5t41 31t15 14.5q0 7 -9 7q-19 0 -77 12t-83 12q-49 0 -82 -48q-3 -5 -7 -12.5t-6 -11t-5.5 -8t-5.5 -6.5t-5.5 -3.5t-6.5 -1.5q-13 0 -21.5 18t-8.5 49q0 84 43.5 145t132.5 61q55 0 150 -32t123 -32t51 27.5t45 27.5q29 0 29 -29q0 -61 -141 -182
q-16 -13 -33 -27t-26 -21t-17.5 -14t-11.5 -11.5t-3 -8.5q0 -5 14 -8q67 -24 114 -76t47 -127q0 -111 -90.5 -181.5t-224.5 -70.5q-68 0 -125 21t-91.5 53.5t-53.5 68t-19 66.5q0 45 26 45q11 0 25 -17q25 -32 75 -59t113 -27q68 0 110.5 29.5t42.5 84.5q0 79 -109 107
q-32 7 -32 35q0 11 7.5 22t16 19t33.5 28z" />
    <glyph glyph-name="acute" unicode="&#xb4;" horiz-adv-x="567" 
d="M602 1243q16 25 89 172q3 5 14 26.5t15.5 29.5t15.5 25t20 24.5t22.5 17.5t29.5 14t35 4q41 0 66 -26t25 -63q0 -74 -79 -160q-54 -59 -129 -107.5t-117 -48.5q-38 0 -38 32q0 3 0.5 6t1.5 5.5t4 7.5t5.5 9t8.5 13.5t11 18.5z" />
    <glyph glyph-name="mu" unicode="&#xb5;" horiz-adv-x="1201" 
d="M392 -23q-93 0 -141 70q-5 8 -12.5 22.5t-12 20.5t-8.5 6q-13 0 -13 -22q0 -8 8.5 -51.5t8.5 -78.5q0 -96 -41.5 -184.5t-123 -147t-183.5 -58.5q-51 0 -89.5 17t-38.5 40q0 13 8 22.5t26.5 24.5t29.5 27q100 100 163 304.5t119 647.5q8 63 12.5 123t7 103.5t3.5 50.5
q7 69 104 101q124 42 207 42q27 0 39.5 -15t12.5 -38q0 -22 -32.5 -136.5t-65.5 -261t-33 -246.5q0 -81 27.5 -118.5t70.5 -37.5q103 0 165.5 160t96.5 449q4 39 7 112q1 35 22 53t67 34q53 19 114.5 28t96.5 9q48 0 48 -55q0 -36 -34 -169t-67.5 -286t-33.5 -238
q0 -102 53 -102q19 0 46.5 28.5t39.5 28.5q21 0 21 -41q0 -53 -26.5 -104.5t-85.5 -89.5t-136 -38q-70 0 -114 40t-61 98q-6 24 -16 24t-27 -29q-42 -61 -101.5 -100t-127.5 -39z" />
    <glyph glyph-name="paragraph" unicode="&#xb6;" horiz-adv-x="1129" 
d="M626 -374q0 17 69.5 502.5t69.5 499.5q0 24 -20 24q-3 0 -39.5 -6.5t-71.5 -6.5q-133 0 -211.5 85t-78.5 232q0 142 69.5 249t183 161t252.5 54q52 0 184 -13.5t200 -13.5q33 0 70 2.5t48 2.5q66 0 66 -51q0 -29 -12.5 -46t-31.5 -29t-39 -29t-38.5 -55.5t-26.5 -97.5
l-202 -1443q-5 -31 -37.5 -49.5t-75.5 -18.5q-34 0 -45.5 12.5t-11.5 34.5q0 11 106.5 744.5t106.5 791.5q0 39 -13 62.5t-36 23.5q-41 0 -52 -80l-214 -1521q-4 -30 -37.5 -49t-76.5 -19q-55 0 -55 47z" />
    <glyph glyph-name="periodcentered" unicode="&#xb7;" horiz-adv-x="527" 
d="M673 554q0 -84 -58 -136t-137 -52q-64 0 -107 38.5t-43 109.5q0 86 59.5 140t134.5 54q63 0 107 -41t44 -113z" />
    <glyph glyph-name="cedilla" unicode="&#xb8;" horiz-adv-x="546" 
d="M262 -168q0 45 81.5 119t133.5 74q13 0 29.5 -5t16.5 -14q0 -4 -36.5 -37.5t-36.5 -39.5q0 -2 2 -4.5t4 -4.5t7 -5t8 -5q75 -57 75 -155q0 -102 -69.5 -161.5t-169.5 -59.5q-66 0 -119 33t-53 63q0 28 23 28q8 0 38 -12.5t62 -12.5q39 0 71.5 21t32.5 64q0 32 -21.5 57
t-58.5 34q-20 4 -20 23z" />
    <glyph glyph-name="one.sups" unicode="&#xb9;" horiz-adv-x="514" 
d="M717 1507q35 0 35 -29q0 -17 -28 -155q-57 -304 -57 -405q0 -27 14.5 -45.5t32.5 -26t32.5 -20.5t14.5 -29q0 -19 -13 -31.5t-36 -12.5q-21 0 -82.5 1.5t-80.5 1.5q-22 0 -91.5 -1.5t-89.5 -1.5q-19 0 -29.5 9.5t-10.5 24.5q0 20 18 33.5t40 20.5t44 22.5t28 39.5
q4 11 31 166.5t27 182.5q0 41 -16 51q-15 9 -57 9q-34 0 -34 29q0 33 51 54q57 24 119.5 54t93.5 44t44 14z" />
    <glyph glyph-name="ordmasculine" unicode="&#xba;" horiz-adv-x="819" 
d="M424 975q0 191 119 320.5t283 129.5q131 0 221 -86t90 -234q0 -104 -32.5 -188.5t-88.5 -138t-128.5 -82t-153.5 -28.5q-139 0 -224.5 85.5t-85.5 221.5zM816 1307q-62 0 -110.5 -100t-48.5 -237q0 -80 28 -121.5t72 -41.5q65 0 109 89t44 224q0 86 -27 136.5t-67 50.5z
" />
    <glyph glyph-name="guillemotright" unicode="&#xbb;" horiz-adv-x="1013" 
d="M461 564q0 6 -2.5 13t-5.5 13.5t-11.5 22t-15.5 29.5q-74 151 -74 244q0 25 10.5 41.5t32.5 16.5q24 0 52 -40q43 -63 98 -125t95 -98q10 -9 32 -27.5t32.5 -28t20 -26t9.5 -32.5q0 -19 -13 -37t-27 -28.5t-45 -31t-44 -29.5q-121 -87 -254 -223q-3 -3 -12 -11.5
t-13 -11.5t-11 -8t-13.5 -7t-13.5 -2q-30 0 -30 36q0 35 39 108t104 158q15 19 29.5 36t19.5 23t8 12t3 13zM837 564q0 6 -2.5 13t-5.5 13.5t-11.5 22t-15.5 29.5q-74 151 -74 244q0 25 10.5 41.5t32.5 16.5q24 0 52 -40q43 -63 98 -125t95 -98q10 -9 32 -27.5t32.5 -28
t20 -26t9.5 -32.5q0 -19 -13 -37t-27 -28.5t-45 -31t-44 -29.5q-121 -87 -254 -223q-3 -3 -12 -11.5t-13 -11.5t-11 -8t-13.5 -7t-13.5 -2q-30 0 -30 36q0 35 39 108t104 158q15 19 29.5 36t19.5 23t8 12t3 13z" />
    <glyph glyph-name="onequarter" unicode="&#xbc;" horiz-adv-x="1346" 
d="M641 1423q35 0 35 -29q0 -17 -28 -155q-57 -304 -57 -405q0 -27 14.5 -45.5t32.5 -26t32.5 -20.5t14.5 -29q0 -19 -13 -31.5t-36 -12.5q-21 0 -82.5 1.5t-80.5 1.5q-22 0 -91.5 -1.5t-89.5 -1.5q-19 0 -29.5 9.5t-10.5 24.5q0 20 18 33.5t40 20.5t44 22.5t28 39.5
q4 11 31 166.5t27 182.5q0 41 -16 51q-15 9 -56 9q-35 0 -35 29q0 33 51 54q57 24 119.5 54t93.5 44t44 14zM1446 1322q-24 -36 -496 -661.5t-498 -658.5q-24 -28 -53 -28t-50 15.5t-21 35.5q0 16 14 38q11 18 229 305.5t462.5 611.5t304.5 409q19 26 58 26q26 0 45 -15.5
t19 -36.5q0 -19 -14 -41zM1398 718q0 -14 -39.5 -206.5t-39.5 -212.5q0 -12 14 -12q33 0 66 8t37 8q25 0 25 -31q0 -26 -16 -71.5t-34 -68.5t-53 -23h-47q-20 0 -20 -61q0 -19 3.5 -35.5t3.5 -19.5q0 -33 -54 -49q-51 -15 -97 -15q-43 0 -43 64q0 15 6 54t6 44q0 7 -0.5 10
t-4.5 5.5t-13 2.5h-160q-44 0 -69 16q-25 17 -42.5 45.5t-17.5 52.5q0 52 184 245q92 95 212 191.5t153 96.5q40 0 40 -38zM999 293q0 -9 21 -9h109q20 0 24 20q5 31 13.5 73.5t14 68.5t5.5 32q0 11 -5 11q-15 0 -85 -74q-1 -2 -20 -22.5t-34 -37t-29 -35.5t-14 -27z" />
    <glyph glyph-name="onehalf" unicode="&#xbd;" horiz-adv-x="1418" 
d="M641 1423q35 0 35 -29q0 -17 -28 -155q-57 -304 -57 -405q0 -27 14.5 -45.5t32.5 -26t32.5 -20.5t14.5 -29q0 -19 -13 -31.5t-36 -12.5q-21 0 -82.5 1.5t-80.5 1.5q-22 0 -91.5 -1.5t-89.5 -1.5q-19 0 -29.5 9.5t-10.5 24.5q0 20 18 33.5t40 20.5t44 22.5t28 39.5
q4 11 31 166.5t27 182.5q0 41 -16 51q-15 9 -56 9q-35 0 -35 29q0 33 51 54q57 24 119.5 54t93.5 44t44 14zM1446 1322q-24 -36 -496 -661.5t-498 -658.5q-24 -28 -53 -28t-50 15.5t-21 35.5q0 16 14 38q11 18 229 305.5t462.5 611.5t304.5 409q19 26 58 26q26 0 45 -15.5
t19 -36.5q0 -19 -14 -41zM1167 200q0 -6 15 -6q20 0 83.5 -11.5t86.5 -11.5q29 0 56.5 12.5t34.5 28.5q25 46 49 46q20 0 20 -35q0 -42 -10 -81t-30 -75t-57.5 -57.5t-87.5 -21.5q-53 0 -155.5 32t-138.5 32q-27 0 -60.5 -29t-59.5 -29q-32 0 -32 26q0 24 44 68l115 105
q49 43 71.5 63t61.5 59t57.5 65t33.5 60.5t15 65.5q0 45 -30.5 67t-71.5 22q-75 0 -140 -72q-17 -15 -28 -15q-20 0 -20 29q0 31 18 67.5t51 71t90 57.5t125 23q101 0 165.5 -48t64.5 -135q0 -29 -9.5 -57.5t-21 -50.5t-37 -49.5t-42 -43.5t-52 -43t-51 -38.5t-54.5 -38.5
q-10 -7 -20.5 -14t-17 -11t-12.5 -8.5t-9 -6.5t-5.5 -4.5t-3.5 -4t-1 -3.5z" />
    <glyph glyph-name="threequarters" unicode="&#xbe;" horiz-adv-x="1428" 
d="M564 1136q14 11 40 30.5t41 31t15 14.5q0 7 -9 7q-19 0 -76.5 12t-82.5 12q-49 0 -82 -48q-2 -3 -4.5 -7.5t-4 -7.5t-4 -6.5t-3.5 -5.5t-3 -4.5t-3.5 -4t-3.5 -3t-3.5 -2.5t-3.5 -1.5t-4 -0.5q-13 0 -21.5 18t-8.5 49q0 84 43.5 145t132.5 61q55 0 150 -32t124 -32
q28 0 50.5 27.5t44.5 27.5q30 0 30 -28q0 -61 -142 -183q-16 -13 -33 -27t-26 -21t-17.5 -14t-11.5 -11.5t-3 -8.5q0 -5 14 -8q67 -24 114 -76t47 -127q0 -111 -90.5 -181.5t-224.5 -70.5q-68 0 -125 21t-91.5 53.5t-53.5 68t-19 66.5q0 45 27 45q10 0 24 -17
q25 -32 75.5 -59t113.5 -27q68 0 110 29.5t42 84.5q0 79 -108 107q-33 7 -33 35q0 11 7.5 22t16 19t33.5 28zM1531 1322q-24 -36 -496 -661.5t-498 -658.5q-24 -28 -53 -28t-50 15.5t-21 35.5q0 16 14 38q11 18 229 305.5t462.5 611.5t304.5 409q19 26 58 26q26 0 45 -15.5
t19 -36.5q0 -19 -14 -41zM1481 718q0 -14 -39.5 -206.5t-39.5 -212.5q0 -12 14 -12q34 0 67 8t36 8q25 0 25 -31q0 -26 -16 -71.5t-34 -68.5t-53 -23h-47q-20 0 -20 -61q0 -19 3.5 -35.5t3.5 -19.5q0 -33 -54 -49q-51 -15 -97 -15q-43 0 -43 64q0 15 6 54t6 44q0 7 -0.5 10
t-4.5 5.5t-13 2.5h-160q-44 0 -69 16q-25 17 -42.5 45.5t-17.5 52.5q0 52 184 245q92 95 212 191.5t153 96.5q40 0 40 -38zM1082 293q0 -9 21 -9h109q20 0 24 20q5 31 13.5 73.5t14 68.5t5.5 32q0 11 -5 11q-15 0 -85 -74q-1 -2 -20 -22.5t-34 -37t-29 -35.5t-14 -27z" />
    <glyph glyph-name="questiondown" unicode="&#xbf;" horiz-adv-x="860" 
d="M564 871q0 84 58.5 136.5t136.5 52.5q64 0 107 -39t43 -110q0 -86 -59 -139.5t-134 -53.5q-63 0 -107.5 40.5t-44.5 112.5zM565 -159q105 0 210 94q35 33 47 37q4 1 8 1q33 0 33 -56q0 -47 -31.5 -98.5t-85 -96t-134.5 -73t-170 -28.5q-166 0 -271 79.5t-105 227.5
q0 71 29 133.5t77 108.5t106 86.5t119.5 76t115 68.5t94.5 72t55 79q4 8 10 26.5t13 25t23 6.5q24 0 40 -31t16 -75q0 -39 -20 -79t-51.5 -75t-70.5 -70t-77.5 -70t-70 -70t-51.5 -75.5t-20 -80.5q0 -68 43 -105.5t119 -37.5z" />
    <glyph glyph-name="Agrave" unicode="&#xc0;" horiz-adv-x="1318" 
d="M893 1584q41 -39 41 -63q0 -45 -64 -45q-52 0 -132.5 28t-146.5 68q-113 72 -113 154q0 48 34.5 82t91.5 34q50 0 87 -29t74 -81q65 -88 128 -148zM177 273l396 811q42 91 78 200q17 49 107 94.5t146 45.5q15 0 27 -3.5t21 -13.5t14.5 -18.5t11.5 -28t9 -32t9 -40
t10 -43.5l229 -974q17 -76 69 -131l6 -6l6 -6t6 -6.5t6.5 -8t5.5 -7.5t5.5 -9t3.5 -9t3 -10t1 -10q0 -41 -29.5 -57t-93.5 -16q-21 0 -83.5 2.5t-114.5 2.5q-51 0 -116.5 -2.5t-90.5 -2.5q-80 0 -80 55q0 23 22 44.5t48.5 38t48.5 45t22 62.5q0 13 -9 56.5t-17 64.5
q-15 24 -52 24h-307q-38 0 -60 -24q-22 -28 -46 -78.5t-24 -77.5q0 -26 13 -48.5t29 -35.5t29 -30t13 -34q0 -62 -93 -62q-21 0 -74 2.5t-78 2.5q-23 0 -67.5 -2.5t-66.5 -2.5q-60 0 -60 50q0 20 9 34.5t26 28t37 30.5t46 52.5t49 82.5zM548 567h238q17 0 22.5 6t5.5 18
q0 34 -28.5 183t-47.5 199q-8 14 -12 14q-5 0 -14 -13q-36 -56 -111.5 -215.5t-75.5 -176.5q0 -15 23 -15z" />
    <glyph glyph-name="Aacute" unicode="&#xc1;" horiz-adv-x="1318" 
d="M726 1584q72 59 150 148q44 52 84.5 81t90.5 29q52 0 81.5 -29t29.5 -72q0 -54 -37 -94t-99 -75q-71 -40 -156.5 -68t-137.5 -28q-57 0 -57 36q0 18 9.5 31.5t41.5 40.5zM177 273l396 811q42 91 78 200q17 49 107 94.5t146 45.5q15 0 27 -3.5t21 -13.5t14.5 -18.5
t11.5 -28t9 -32t9 -40t10 -43.5l229 -974q17 -76 69 -131l6 -6l6 -6t6 -6.5t6.5 -8t5.5 -7.5t5.5 -9t3.5 -9t3 -10t1 -10q0 -41 -29.5 -57t-93.5 -16q-21 0 -83.5 2.5t-114.5 2.5q-51 0 -116.5 -2.5t-90.5 -2.5q-80 0 -80 55q0 23 22 44.5t48.5 38t48.5 45t22 62.5
q0 13 -9 56.5t-17 64.5q-15 24 -52 24h-307q-38 0 -60 -24q-22 -28 -46 -78.5t-24 -77.5q0 -26 13 -48.5t29 -35.5t29 -30t13 -34q0 -62 -93 -62q-21 0 -74 2.5t-78 2.5q-23 0 -67.5 -2.5t-66.5 -2.5q-60 0 -60 50q0 20 9 34.5t26 28t37 30.5t46 52.5t49 82.5zM548 567h238
q17 0 22.5 6t5.5 18q0 34 -28.5 183t-47.5 199q-8 14 -12 14q-5 0 -14 -13q-36 -56 -111.5 -215.5t-75.5 -176.5q0 -15 23 -15z" />
    <glyph glyph-name="Acircumflex" unicode="&#xc2;" horiz-adv-x="1318" 
d="M1111 1476q-77 0 -195 74q-6 4 -15.5 10t-14 8.5t-11.5 6t-11.5 5t-9.5 1.5q-12 0 -61 -30q-48 -30 -105.5 -52.5t-93.5 -22.5q-43 0 -43 35q0 22 36 58q44 44 159 183q36 47 65 68.5t68 21.5q36 0 59 -21t56 -69q60 -90 136 -181q28 -34 28 -53q0 -20 -13 -31t-34 -11z
M177 273l396 811q42 91 78 200q17 49 107 94.5t146 45.5q15 0 27 -3.5t21 -13.5t14.5 -18.5t11.5 -28t9 -32t9 -40t10 -43.5l229 -974q17 -76 69 -131l6 -6l6 -6t6 -6.5t6.5 -8t5.5 -7.5t5.5 -9t3.5 -9t3 -10t1 -10q0 -41 -29.5 -57t-93.5 -16q-21 0 -83.5 2.5t-114.5 2.5
q-51 0 -116.5 -2.5t-90.5 -2.5q-80 0 -80 55q0 23 22 44.5t48.5 38t48.5 45t22 62.5q0 13 -9 56.5t-17 64.5q-15 24 -52 24h-307q-38 0 -60 -24q-22 -28 -46 -78.5t-24 -77.5q0 -26 13 -48.5t29 -35.5t29 -30t13 -34q0 -62 -93 -62q-21 0 -74 2.5t-78 2.5q-23 0 -67.5 -2.5
t-66.5 -2.5q-60 0 -60 50q0 20 9 34.5t26 28t37 30.5t46 52.5t49 82.5zM548 567h238q17 0 22.5 6t5.5 18q0 34 -28.5 183t-47.5 199q-8 14 -12 14q-5 0 -14 -13q-36 -56 -111.5 -215.5t-75.5 -176.5q0 -15 23 -15z" />
    <glyph glyph-name="Atilde" unicode="&#xc3;" horiz-adv-x="1318" 
d="M511 1616q0 85 58.5 138.5t140.5 53.5q49 0 100.5 -22t99.5 -44.5t88 -22.5q33 0 55 15t30.5 32.5t19 32.5t21.5 15q23 0 44.5 -30.5t21.5 -82.5q0 -88 -58.5 -144t-146.5 -56q-44 0 -91 17t-80.5 37t-71.5 37t-67 17q-25 0 -45 -13t-30.5 -28.5t-22 -28.5t-21.5 -13
q-16 0 -30.5 24t-14.5 66zM177 273l396 811q42 91 78 200q17 49 107 94.5t146 45.5q15 0 27 -3.5t21 -13.5t14.5 -18.5t11.5 -28t9 -32t9 -40t10 -43.5l229 -974q17 -76 69 -131l6 -6l6 -6t6 -6.5t6.5 -8t5.5 -7.5t5.5 -9t3.5 -9t3 -10t1 -10q0 -41 -29.5 -57t-93.5 -16
q-21 0 -83.5 2.5t-114.5 2.5q-51 0 -116.5 -2.5t-90.5 -2.5q-80 0 -80 55q0 23 22 44.5t48.5 38t48.5 45t22 62.5q0 13 -9 56.5t-17 64.5q-15 24 -52 24h-307q-38 0 -60 -24q-22 -28 -46 -78.5t-24 -77.5q0 -26 13 -48.5t29 -35.5t29 -30t13 -34q0 -62 -93 -62
q-21 0 -74 2.5t-78 2.5q-23 0 -67.5 -2.5t-66.5 -2.5q-60 0 -60 50q0 20 9 34.5t26 28t37 30.5t46 52.5t49 82.5zM548 567h238q17 0 22.5 6t5.5 18q0 34 -28.5 183t-47.5 199q-8 14 -12 14q-5 0 -14 -13q-36 -56 -111.5 -215.5t-75.5 -176.5q0 -15 23 -15z" />
    <glyph glyph-name="Adieresis" unicode="&#xc4;" horiz-adv-x="1318" 
d="M669 1824q65 0 106.5 -39.5t41.5 -102.5q0 -77 -57 -129.5t-136 -52.5q-62 0 -102 37.5t-40 97.5q0 73 55 131t132 58zM1113 1824q65 0 107 -39.5t42 -102.5q0 -77 -57.5 -129.5t-136.5 -52.5q-63 0 -102 37.5t-39 97.5q0 73 54.5 131t131.5 58zM177 273l396 811
q42 91 78 200q17 49 107 94.5t146 45.5q15 0 27 -3.5t21 -13.5t14.5 -18.5t11.5 -28t9 -32t9 -40t10 -43.5l229 -974q17 -76 69 -131l6 -6l6 -6t6 -6.5t6.5 -8t5.5 -7.5t5.5 -9t3.5 -9t3 -10t1 -10q0 -41 -29.5 -57t-93.5 -16q-21 0 -83.5 2.5t-114.5 2.5q-51 0 -116.5 -2.5
t-90.5 -2.5q-80 0 -80 55q0 23 22 44.5t48.5 38t48.5 45t22 62.5q0 13 -9 56.5t-17 64.5q-15 24 -52 24h-307q-38 0 -60 -24q-22 -28 -46 -78.5t-24 -77.5q0 -26 13 -48.5t29 -35.5t29 -30t13 -34q0 -62 -93 -62q-21 0 -74 2.5t-78 2.5q-23 0 -67.5 -2.5t-66.5 -2.5
q-60 0 -60 50q0 20 9 34.5t26 28t37 30.5t46 52.5t49 82.5zM548 567h238q17 0 22.5 6t5.5 18q0 34 -28.5 183t-47.5 199q-8 14 -12 14q-5 0 -14 -13q-36 -56 -111.5 -215.5t-75.5 -176.5q0 -15 23 -15z" />
    <glyph glyph-name="Aring" unicode="&#xc5;" horiz-adv-x="1318" 
d="M876 1872q96 0 158 -54.5t62 -145.5q0 -103 -75 -167t-182 -64q-96 0 -158.5 55t-62.5 145q0 102 75.5 166.5t182.5 64.5zM879 1761q-46 0 -75.5 -30.5t-29.5 -74.5q0 -39 23.5 -63.5t63.5 -24.5q46 0 75.5 30t29.5 76q0 38 -23.5 62.5t-63.5 24.5zM177 273l396 811
q42 91 78 200q17 49 107 94.5t146 45.5q15 0 27 -3.5t21 -13.5t14.5 -18.5t11.5 -28t9 -32t9 -40t10 -43.5l229 -974q17 -76 69 -131l6 -6l6 -6t6 -6.5t6.5 -8t5.5 -7.5t5.5 -9t3.5 -9t3 -10t1 -10q0 -41 -29.5 -57t-93.5 -16q-21 0 -83.5 2.5t-114.5 2.5q-51 0 -116.5 -2.5
t-90.5 -2.5q-80 0 -80 55q0 23 22 44.5t48.5 38t48.5 45t22 62.5q0 13 -9 56.5t-17 64.5q-15 24 -52 24h-307q-38 0 -60 -24q-22 -28 -46 -78.5t-24 -77.5q0 -26 13 -48.5t29 -35.5t29 -30t13 -34q0 -62 -93 -62q-21 0 -74 2.5t-78 2.5q-23 0 -67.5 -2.5t-66.5 -2.5
q-60 0 -60 50q0 20 9 34.5t26 28t37 30.5t46 52.5t49 82.5zM548 567h238q17 0 22.5 6t5.5 18q0 34 -28.5 183t-47.5 199q-8 14 -12 14q-5 0 -14 -13q-36 -56 -111.5 -215.5t-75.5 -176.5q0 -15 23 -15z" />
    <glyph glyph-name="AE" unicode="&#xc6;" horiz-adv-x="1903" 
d="M1325 0q-84 0 -252.5 -2.5t-238.5 -2.5q-71 0 -71 49q0 25 18 44t41 31t48.5 40t37.5 68q8 28 20.5 103.5t12.5 87.5q0 37 -36 37h-327q-53 0 -81 -40q-112 -153 -112 -211q0 -26 11.5 -48t26 -34.5t26 -29t11.5 -32.5q0 -65 -93 -65q-21 0 -80 2.5t-84 2.5
q-23 0 -66 -2.5t-65 -2.5q-62 0 -62 49q0 27 14.5 45.5t36.5 31.5t59 48t71 85l553 820q49 71 49 110q0 26 -20 49.5t-40 46.5t-20 48q0 70 82 70l236 -2q236 -3 451 -3q107 0 226 2.5t143 2.5q57 0 77 -20t21 -87q0 -29 3.5 -118t3.5 -140t-19.5 -72.5t-47.5 -21.5
q-24 0 -38 20t-28 58l-3 9q-15 44 -26 70.5t-27.5 51t-35 37.5t-47.5 23t-65 13t-88 3q-83 0 -113 -14t-40 -50q-10 -33 -25.5 -132.5t-15.5 -142.5q0 -28 7.5 -40t31.5 -12q30 0 54.5 2.5t44.5 11t32 13.5t26.5 20.5t19 20.5t19.5 26.5t18 25.5q25 30 49 30q26 0 34 -18.5
t8 -51.5q0 -25 -47 -351q-11 -84 -60 -84q-19 0 -32 11.5t-18 23t-10 31.5q-10 34 -17 49.5t-23.5 32t-43.5 22t-72 5.5q-26 0 -39 -11t-20 -37q-11 -43 -28.5 -167.5t-17.5 -154.5q0 -64 29 -84t123 -20q103 0 169.5 23.5t110.5 68.5t94 132q44 72 81 72q41 0 41 -60
q0 -25 -15 -83t-37.5 -136.5t-32.5 -123.5q-9 -46 -30.5 -61.5t-75.5 -15.5q-28 0 -164 2.5t-221 2.5zM1038 1101q0 49 -12 49q-10 0 -21.5 -11.5t-34.5 -40.5q-44 -53 -166.5 -237t-122.5 -203q0 -21 30 -21h215q35 0 47.5 16.5t19.5 74.5q45 332 45 373z" />
    <glyph glyph-name="Ccedilla" unicode="&#xc7;" horiz-adv-x="1304" 
d="M648 -168q0 25 30.5 64t74.5 74q-222 27 -350.5 192t-128.5 406q0 124 34.5 247.5t102.5 233.5t159.5 194.5t215.5 134t261 49.5q84 0 168.5 -24.5t103.5 -24.5q23 0 60.5 11t56.5 11q17 0 28.5 -4t19 -15t11.5 -21.5t6 -31t2.5 -36t1 -44.5t1.5 -49q2 -50 5.5 -91
t6 -63.5t2.5 -32.5q0 -37 -18.5 -57.5t-45.5 -20.5q-15 0 -27.5 6t-23.5 21t-17.5 26t-19.5 36.5t-19 37.5q-52 99 -128.5 153.5t-161.5 54.5q-120 0 -218.5 -87t-151 -219.5t-52.5 -274.5q0 -202 95.5 -322.5t262.5 -120.5q62 0 119.5 20.5t102 56t77.5 72.5t60 79
q40 54 61 54q32 0 32 -56q0 -46 -23 -109t-67 -123q-80 -112 -207.5 -188t-280.5 -85q-33 -29 -33 -37q0 -2 2 -4.5t4 -4.5t7 -5t8 -5q75 -57 75 -155q0 -102 -69.5 -161.5t-169.5 -59.5q-66 0 -119 33t-53 63q0 28 23 28q8 0 38 -12.5t62 -12.5q39 0 72 21t33 64
q0 32 -22 57t-59 34q-20 4 -20 23z" />
    <glyph glyph-name="Egrave" unicode="&#xc8;" horiz-adv-x="1212" 
d="M1022 1584q41 -39 41 -63q0 -45 -64 -45q-52 0 -132.5 28t-146.5 68q-113 72 -113 154q0 48 34.5 82t91.5 34q50 0 87 -29t74 -81q65 -88 128 -148zM348 1327q0 71 81 71q39 0 177.5 -2.5t258.5 -2.5q107 0 226.5 2.5t143.5 2.5q57 0 76.5 -19.5t20.5 -87.5
q0 -29 3.5 -118t3.5 -140q0 -94 -66 -94q-17 0 -30.5 13t-21 28t-16.5 40q-1 4 -2 6q-15 44 -26 70.5t-27.5 51t-35 37.5t-47.5 23t-65 13t-88 3q-83 0 -113 -14t-39 -50q-9 -31 -24.5 -131t-16.5 -144q0 -28 7.5 -40t31.5 -12q30 0 54.5 2.5t44.5 11t32 13.5t26.5 20.5
t19 20.5t19.5 26.5t18 25.5q25 30 49 30q26 0 34 -18.5t8 -51.5q0 -25 -47 -351q-11 -84 -61 -84q-19 0 -32 11.5t-17.5 23t-9.5 31.5q-10 33 -17.5 49t-23.5 32.5t-43.5 22t-72.5 5.5q-25 0 -38 -11t-20 -37q-11 -44 -29.5 -168.5t-18.5 -153.5q0 -64 29.5 -84t123.5 -20
q103 0 169.5 23.5t110.5 68.5t94 132q44 72 81 72q41 0 41 -60q0 -25 -15 -83t-37.5 -136.5t-32.5 -123.5q-9 -46 -30 -61.5t-75 -15.5q-28 0 -164 2.5t-221 2.5q-84 0 -246.5 -2.5t-231.5 -2.5q-71 0 -71 49q0 21 10.5 37t27 28t34 26t36 40t28.5 61q24 94 77.5 455
t53.5 434q0 45 -12.5 78.5t-27 48.5t-27 34.5t-12.5 40.5z" />
    <glyph glyph-name="Eacute" unicode="&#xc9;" horiz-adv-x="1212" 
d="M784 1584q72 59 150 148q44 52 84.5 81t90.5 29q52 0 82 -29t30 -72q0 -54 -37.5 -94t-99.5 -75q-71 -40 -156 -68t-137 -28q-58 0 -58 36q0 18 9.5 31.5t41.5 40.5zM348 1327q0 71 81 71q39 0 177.5 -2.5t258.5 -2.5q107 0 226.5 2.5t143.5 2.5q57 0 76.5 -19.5
t20.5 -87.5q0 -29 3.5 -118t3.5 -140q0 -94 -66 -94q-17 0 -30.5 13t-21 28t-16.5 40q-1 4 -2 6q-15 44 -26 70.5t-27.5 51t-35 37.5t-47.5 23t-65 13t-88 3q-83 0 -113 -14t-39 -50q-9 -31 -24.5 -131t-16.5 -144q0 -28 7.5 -40t31.5 -12q30 0 54.5 2.5t44.5 11t32 13.5
t26.5 20.5t19 20.5t19.5 26.5t18 25.5q25 30 49 30q26 0 34 -18.5t8 -51.5q0 -25 -47 -351q-11 -84 -61 -84q-19 0 -32 11.5t-17.5 23t-9.5 31.5q-10 33 -17.5 49t-23.5 32.5t-43.5 22t-72.5 5.5q-25 0 -38 -11t-20 -37q-11 -44 -29.5 -168.5t-18.5 -153.5q0 -64 29.5 -84
t123.5 -20q103 0 169.5 23.5t110.5 68.5t94 132q44 72 81 72q41 0 41 -60q0 -25 -15 -83t-37.5 -136.5t-32.5 -123.5q-9 -46 -30 -61.5t-75 -15.5q-28 0 -164 2.5t-221 2.5q-84 0 -246.5 -2.5t-231.5 -2.5q-71 0 -71 49q0 21 10.5 37t27 28t34 26t36 40t28.5 61
q24 94 77.5 455t53.5 434q0 45 -12.5 78.5t-27 48.5t-27 34.5t-12.5 40.5z" />
    <glyph glyph-name="Ecircumflex" unicode="&#xca;" horiz-adv-x="1212" 
d="M1136 1476q-77 0 -195 74q-6 4 -15.5 10t-14 8.5t-11.5 6t-11.5 5t-9.5 1.5q-13 0 -62 -30q-48 -30 -105.5 -52.5t-93.5 -22.5q-43 0 -43 35q0 22 36 58q50 50 160 183q37 47 65 68.5t67 21.5q36 0 59.5 -21t56.5 -69q60 -90 136 -181q28 -34 28 -53q0 -20 -13.5 -31
t-33.5 -11zM348 1327q0 71 81 71q39 0 177.5 -2.5t258.5 -2.5q107 0 226.5 2.5t143.5 2.5q57 0 76.5 -19.5t20.5 -87.5q0 -29 3.5 -118t3.5 -140q0 -94 -66 -94q-17 0 -30.5 13t-21 28t-16.5 40q-1 4 -2 6q-15 44 -26 70.5t-27.5 51t-35 37.5t-47.5 23t-65 13t-88 3
q-83 0 -113 -14t-39 -50q-9 -31 -24.5 -131t-16.5 -144q0 -28 7.5 -40t31.5 -12q30 0 54.5 2.5t44.5 11t32 13.5t26.5 20.5t19 20.5t19.5 26.5t18 25.5q25 30 49 30q26 0 34 -18.5t8 -51.5q0 -25 -47 -351q-11 -84 -61 -84q-19 0 -32 11.5t-17.5 23t-9.5 31.5
q-10 33 -17.5 49t-23.5 32.5t-43.5 22t-72.5 5.5q-25 0 -38 -11t-20 -37q-11 -44 -29.5 -168.5t-18.5 -153.5q0 -64 29.5 -84t123.5 -20q103 0 169.5 23.5t110.5 68.5t94 132q44 72 81 72q41 0 41 -60q0 -25 -15 -83t-37.5 -136.5t-32.5 -123.5q-9 -46 -30 -61.5t-75 -15.5
q-28 0 -164 2.5t-221 2.5q-84 0 -246.5 -2.5t-231.5 -2.5q-71 0 -71 49q0 21 10.5 37t27 28t34 26t36 40t28.5 61q24 94 77.5 455t53.5 434q0 45 -12.5 78.5t-27 48.5t-27 34.5t-12.5 40.5z" />
    <glyph glyph-name="Edieresis" unicode="&#xcb;" horiz-adv-x="1212" 
d="M697 1824q65 0 107 -39.5t42 -102.5q0 -77 -57.5 -129.5t-136.5 -52.5q-62 0 -101.5 37.5t-39.5 97.5q0 73 54.5 131t131.5 58zM1142 1824q65 0 106.5 -39.5t41.5 -102.5q0 -77 -57 -129.5t-136 -52.5q-63 0 -102.5 37.5t-39.5 97.5q0 73 55 131t132 58zM348 1327
q0 71 81 71q39 0 177.5 -2.5t258.5 -2.5q107 0 226.5 2.5t143.5 2.5q57 0 76.5 -19.5t20.5 -87.5q0 -29 3.5 -118t3.5 -140q0 -94 -66 -94q-17 0 -30.5 13t-21 28t-16.5 40q-1 4 -2 6q-15 44 -26 70.5t-27.5 51t-35 37.5t-47.5 23t-65 13t-88 3q-83 0 -113 -14t-39 -50
q-9 -31 -24.5 -131t-16.5 -144q0 -28 7.5 -40t31.5 -12q30 0 54.5 2.5t44.5 11t32 13.5t26.5 20.5t19 20.5t19.5 26.5t18 25.5q25 30 49 30q26 0 34 -18.5t8 -51.5q0 -25 -47 -351q-11 -84 -61 -84q-19 0 -32 11.5t-17.5 23t-9.5 31.5q-10 33 -17.5 49t-23.5 32.5t-43.5 22
t-72.5 5.5q-25 0 -38 -11t-20 -37q-11 -44 -29.5 -168.5t-18.5 -153.5q0 -64 29.5 -84t123.5 -20q103 0 169.5 23.5t110.5 68.5t94 132q44 72 81 72q41 0 41 -60q0 -25 -15 -83t-37.5 -136.5t-32.5 -123.5q-9 -46 -30 -61.5t-75 -15.5q-28 0 -164 2.5t-221 2.5
q-84 0 -246.5 -2.5t-231.5 -2.5q-71 0 -71 49q0 21 10.5 37t27 28t34 26t36 40t28.5 61q24 94 77.5 455t53.5 434q0 45 -12.5 78.5t-27 48.5t-27 34.5t-12.5 40.5z" />
    <glyph glyph-name="Igrave" unicode="&#xcc;" horiz-adv-x="709" 
d="M801 1584q41 -39 41 -63q0 -45 -64 -45q-52 0 -132.5 28t-146.5 68q-113 72 -113 154q0 48 34.5 82t91.5 34q50 0 87 -29t74 -81q65 -88 128 -148zM835 1398q62 0 62 -51q0 -25 -10.5 -42t-27.5 -31.5t-35 -31.5t-37 -51.5t-30 -82.5q-19 -91 -67.5 -450.5t-48.5 -421.5
q0 -38 13 -66.5t29 -41.5t29 -31t13 -37q0 -29 -23 -47t-64 -18q-29 0 -98.5 2.5t-103.5 2.5q-35 0 -105.5 -2.5t-100.5 -2.5q-35 0 -52.5 13.5t-17.5 35.5q0 21 10.5 37t27 28t34 26t36 40t28.5 61q24 94 77.5 455t53.5 434q0 45 -12.5 78.5t-27 48.5t-27 34.5t-12.5 40.5
q0 71 81 71q30 0 99.5 -2.5t103.5 -2.5q36 0 105.5 2.5t97.5 2.5z" />
    <glyph glyph-name="Iacute" unicode="&#xcd;" horiz-adv-x="709" 
d="M504 1584q69 56 149 148q44 52 84.5 81t90.5 29q52 0 82 -29t30 -72q0 -54 -37 -94t-99 -75q-71 -40 -156.5 -68t-137.5 -28q-57 0 -57 36q0 18 9.5 31.5t41.5 40.5zM835 1398q62 0 62 -51q0 -25 -10.5 -42t-27.5 -31.5t-35 -31.5t-37 -51.5t-30 -82.5
q-19 -91 -67.5 -450.5t-48.5 -421.5q0 -38 13 -66.5t29 -41.5t29 -31t13 -37q0 -29 -23 -47t-64 -18q-29 0 -98.5 2.5t-103.5 2.5q-35 0 -105.5 -2.5t-100.5 -2.5q-35 0 -52.5 13.5t-17.5 35.5q0 21 10.5 37t27 28t34 26t36 40t28.5 61q24 94 77.5 455t53.5 434
q0 45 -12.5 78.5t-27 48.5t-27 34.5t-12.5 40.5q0 71 81 71q30 0 99.5 -2.5t103.5 -2.5q36 0 105.5 2.5t97.5 2.5z" />
    <glyph glyph-name="Icircumflex" unicode="&#xce;" horiz-adv-x="709" 
d="M906 1476q-76 0 -194 74q-51 31 -63 31t-61 -30q-48 -30 -105.5 -52.5t-93.5 -22.5q-43 0 -43 35q0 22 36 58q50 50 160 183q37 47 65 68.5t67 21.5q36 0 59.5 -21t56.5 -69q60 -90 136 -181q27 -33 27 -53t-13.5 -31t-33.5 -11zM835 1398q62 0 62 -51q0 -25 -10.5 -42
t-27.5 -31.5t-35 -31.5t-37 -51.5t-30 -82.5q-19 -91 -67.5 -450.5t-48.5 -421.5q0 -38 13 -66.5t29 -41.5t29 -31t13 -37q0 -29 -23 -47t-64 -18q-29 0 -98.5 2.5t-103.5 2.5q-35 0 -105.5 -2.5t-100.5 -2.5q-35 0 -52.5 13.5t-17.5 35.5q0 21 10.5 37t27 28t34 26t36 40
t28.5 61q24 94 77.5 455t53.5 434q0 45 -12.5 78.5t-27 48.5t-27 34.5t-12.5 40.5q0 71 81 71q30 0 99.5 -2.5t103.5 -2.5q36 0 105.5 2.5t97.5 2.5z" />
    <glyph glyph-name="Idieresis" unicode="&#xcf;" horiz-adv-x="709" 
d="M458 1824q65 0 106.5 -39.5t41.5 -102.5q0 -77 -57 -129.5t-136 -52.5q-62 0 -102 37.5t-40 97.5q0 73 55 131t132 58zM902 1824q65 0 107 -39.5t42 -102.5q0 -77 -57.5 -129.5t-136.5 -52.5q-63 0 -102 37.5t-39 97.5q0 73 54.5 131t131.5 58zM835 1398q62 0 62 -51
q0 -25 -10.5 -42t-27.5 -31.5t-35 -31.5t-37 -51.5t-30 -82.5q-19 -91 -67.5 -450.5t-48.5 -421.5q0 -38 13 -66.5t29 -41.5t29 -31t13 -37q0 -29 -23 -47t-64 -18q-29 0 -98.5 2.5t-103.5 2.5q-35 0 -105.5 -2.5t-100.5 -2.5q-35 0 -52.5 13.5t-17.5 35.5q0 21 10.5 37
t27 28t34 26t36 40t28.5 61q24 94 77.5 455t53.5 434q0 45 -12.5 78.5t-27 48.5t-27 34.5t-12.5 40.5q0 71 81 71q30 0 99.5 -2.5t103.5 -2.5q36 0 105.5 2.5t97.5 2.5z" />
    <glyph glyph-name="Eth" unicode="&#xd0;" horiz-adv-x="1419" 
d="M348 1327q0 71 81 71q30 0 99.5 -2.5t103.5 -2.5q54 0 144 3t142 3q103 0 195.5 -20.5t174.5 -66t141.5 -113t94 -167t34.5 -221.5q0 -239 -90 -424t-259 -289t-391 -104q-57 0 -188 3.5t-193 3.5q-36 0 -106.5 -2.5t-99.5 -2.5q-71 0 -71 48q0 22 10.5 38t27 28t34 25.5
t36 39.5t28.5 61q21 88 66 381h-131q-46 0 -46 42q0 48 26 103q12 25 31.5 34.5t55.5 9.5h92q37 278 37 319q0 45 -12.5 78.5t-27 48.5t-27 34.5t-12.5 40.5zM755 1108q-14 -68 -48 -302h200q45 0 45 -41q0 -44 -26 -102q-12 -25 -32.5 -35.5t-57.5 -10.5h-155
q-41 -294 -41 -354q0 -52 26.5 -70t113.5 -18q95 0 174.5 54.5t130.5 146t79 208t28 242.5q0 176 -79 287.5t-233 111.5q-64 0 -89 -27.5t-36 -89.5z" />
    <glyph glyph-name="Ntilde" unicode="&#xd1;" horiz-adv-x="1412" 
d="M672 1616q0 85 58 138.5t140 53.5q60 0 151.5 -44.5t137.5 -44.5q33 0 55 15t30.5 32.5t19 32.5t21.5 15q23 0 44.5 -30.5t21.5 -82.5q0 -88 -58.5 -144t-146.5 -56q-44 0 -91 17t-80.5 37t-71.5 37t-67 17q-25 0 -45 -13t-30.5 -28.5t-22 -28.5t-21.5 -13
q-16 0 -30.5 24t-14.5 66zM430 1398q17 0 67 -2.5t77 -2.5q80 0 114 -19q22 -11 40.5 -35t62.5 -93l343 -604q47 -73 62 -73q8 0 11 7t8 30q7 35 32 223t25 237q0 58 -10.5 99.5t-25.5 62t-30 35t-25.5 30t-10.5 35.5q0 70 81 70q27 0 85 -2.5t76 -2.5q23 0 75 2.5t74 2.5
q60 0 60 -50q0 -25 -10 -42t-25.5 -29.5t-32.5 -28t-34.5 -47.5t-27.5 -77q-22 -107 -53 -342q-41 -300 -56 -464.5t-21 -203.5q-7 -54 -53 -92t-102 -38q-19 0 -42.5 16.5t-42.5 45.5l-469 824q-23 38 -34 38q-15 0 -25 -40q-8 -30 -37.5 -252.5t-29.5 -268.5
q0 -64 10.5 -109.5t26 -68t30.5 -38.5t25.5 -31t10.5 -35q0 -31 -20 -50.5t-61 -19.5q-31 0 -87.5 2.5t-73.5 2.5q-22 0 -79 -2.5t-86 -2.5q-60 0 -60 49q0 25 11 41.5t29 29.5t37 28.5t38 46.5t29 76q24 113 71 459q51 357 51 398q0 46 -12 79.5t-27 49t-27 35t-12 40.5
q0 32 19.5 51.5t60.5 19.5z" />
    <glyph glyph-name="Ograve" unicode="&#xd2;" horiz-adv-x="1421" 
d="M1170 1584q41 -39 41 -63q0 -45 -63 -45q-52 0 -133.5 28t-146.5 68q-112 71 -112 154q0 48 34.5 82t91.5 34q50 0 86.5 -29t73.5 -81q65 -88 128 -148zM274 568q0 181 58 340t158 272.5t240.5 179t298.5 65.5q121 0 226.5 -42t185.5 -120t126 -199.5t46 -271.5
q0 -197 -60.5 -356t-163.5 -260t-236.5 -155t-284.5 -54q-276 0 -435 165t-159 436zM1017 1247q-63 0 -127 -58t-113.5 -153t-80.5 -226.5t-31 -268.5q0 -174 58.5 -275.5t169.5 -101.5q90 0 169.5 89t128 245.5t48.5 340.5t-55.5 296t-166.5 112z" />
    <glyph glyph-name="Oacute" unicode="&#xd3;" horiz-adv-x="1421" 
d="M932 1584q69 56 149 148q44 52 84.5 81t90.5 29q52 0 82 -29t30 -72q0 -54 -37 -94t-99 -75q-71 -40 -156.5 -68t-137.5 -28q-57 0 -57 36q0 18 9.5 31.5t41.5 40.5zM274 568q0 181 58 340t158 272.5t240.5 179t298.5 65.5q121 0 226.5 -42t185.5 -120t126 -199.5
t46 -271.5q0 -197 -60.5 -356t-163.5 -260t-236.5 -155t-284.5 -54q-276 0 -435 165t-159 436zM1017 1247q-63 0 -127 -58t-113.5 -153t-80.5 -226.5t-31 -268.5q0 -174 58.5 -275.5t169.5 -101.5q90 0 169.5 89t128 245.5t48.5 340.5t-55.5 296t-166.5 112z" />
    <glyph glyph-name="Ocircumflex" unicode="&#xd4;" horiz-adv-x="1421" 
d="M1315 1476q-77 0 -195 74q-6 4 -15.5 10t-14 8.5t-11.5 6t-11.5 5t-9.5 1.5q-13 0 -62 -30q-48 -30 -105 -52.5t-93 -22.5q-43 0 -43 35q0 22 36 58q44 44 159 183q37 47 65 68.5t67 21.5q36 0 59.5 -21t56.5 -69q60 -90 136 -181q28 -34 28 -53q0 -20 -13 -31t-34 -11z
M274 568q0 181 58 340t158 272.5t240.5 179t298.5 65.5q121 0 226.5 -42t185.5 -120t126 -199.5t46 -271.5q0 -197 -60.5 -356t-163.5 -260t-236.5 -155t-284.5 -54q-276 0 -435 165t-159 436zM1017 1247q-63 0 -127 -58t-113.5 -153t-80.5 -226.5t-31 -268.5
q0 -174 58.5 -275.5t169.5 -101.5q90 0 169.5 89t128 245.5t48.5 340.5t-55.5 296t-166.5 112z" />
    <glyph glyph-name="Otilde" unicode="&#xd5;" horiz-adv-x="1421" 
d="M737 1616q0 85 58.5 138.5t140.5 53.5q60 0 151.5 -44.5t137.5 -44.5q33 0 55 15t30.5 32.5t19 32.5t21.5 15q23 0 44 -30.5t21 -82.5q0 -88 -58.5 -144t-146.5 -56q-44 0 -91 17t-80.5 37t-71.5 37t-67 17q-25 0 -45 -13t-30.5 -28.5t-22 -28.5t-21.5 -13
q-16 0 -30.5 24t-14.5 66zM274 568q0 181 58 340t158 272.5t240.5 179t298.5 65.5q121 0 226.5 -42t185.5 -120t126 -199.5t46 -271.5q0 -197 -60.5 -356t-163.5 -260t-236.5 -155t-284.5 -54q-276 0 -435 165t-159 436zM1017 1247q-63 0 -127 -58t-113.5 -153t-80.5 -226.5
t-31 -268.5q0 -174 58.5 -275.5t169.5 -101.5q90 0 169.5 89t128 245.5t48.5 340.5t-55.5 296t-166.5 112z" />
    <glyph glyph-name="Odieresis" unicode="&#xd6;" horiz-adv-x="1421" 
d="M856 1824q65 0 107 -39.5t42 -102.5q0 -77 -57.5 -129.5t-136.5 -52.5q-62 0 -101.5 37.5t-39.5 97.5q0 73 54.5 131t131.5 58zM1300 1824q65 0 107 -39.5t42 -102.5q0 -77 -57.5 -129.5t-136.5 -52.5q-63 0 -102 37.5t-39 97.5q0 73 54.5 131t131.5 58zM274 568
q0 181 58 340t158 272.5t240.5 179t298.5 65.5q121 0 226.5 -42t185.5 -120t126 -199.5t46 -271.5q0 -197 -60.5 -356t-163.5 -260t-236.5 -155t-284.5 -54q-276 0 -435 165t-159 436zM1017 1247q-63 0 -127 -58t-113.5 -153t-80.5 -226.5t-31 -268.5q0 -174 58.5 -275.5
t169.5 -101.5q90 0 169.5 89t128 245.5t48.5 340.5t-55.5 296t-166.5 112z" />
    <glyph glyph-name="multiply" unicode="&#xd7;" horiz-adv-x="1046" 
d="M587 1068q20 0 38 -21l216 -260l266 260q21 21 40 21q27 0 64.5 -45.5t37.5 -74.5q0 -24 -28 -50l-255 -248l218 -254q16 -17 16 -37q0 -29 -50 -72.5t-78 -43.5q-25 0 -45 24l-213 248l-262 -255q-21 -21 -40 -21q-27 0 -64.5 45.5t-37.5 73.5q0 25 28 51l252 244
l-208 245q-19 23 -19 43q0 30 47 78.5t77 48.5z" />
    <glyph glyph-name="Oslash" unicode="&#xd8;" horiz-adv-x="1421" 
d="M274 568q0 181 58 340t158 272.5t240.5 179t298.5 65.5q169 0 304 -79l94 123q37 49 81 49q50 0 73 -20.5t23 -44.5q0 -21 -28 -60l-116 -152q153 -173 153 -449q0 -197 -60.5 -356t-163.5 -260t-236.5 -155t-284.5 -54q-180 0 -320 78l-110 -145q-21 -28 -61 -28
q-45 0 -66.5 19.5t-21.5 43.5q0 17 15 39l123 164q-153 162 -153 430zM1009 1247q-64 0 -126.5 -56.5t-110.5 -150t-77.5 -223t-29.5 -266.5q0 -57 6 -108l504 704q-60 100 -166 100zM1239 828q0 68 -7 123l-503 -691q61 -96 172 -96q91 0 168.5 86.5t123.5 240t46 337.5z
" />
    <glyph glyph-name="Ugrave" unicode="&#xd9;" 
d="M1285 1584q41 -39 41 -63q0 -45 -63 -45q-52 0 -133.5 28t-146.5 68q-113 72 -113 154q0 48 34.5 82t91.5 34q50 0 87 -29t74 -81q65 -88 128 -148zM1582 813q-23 -184 -35 -268q-41 -294 -188.5 -437t-422.5 -143q-99 0 -179 26.5t-142 81.5t-96 147t-34 215
q0 66 42.5 364.5t42.5 325.5q0 45 -12.5 78.5t-27.5 48.5t-27.5 34.5t-12.5 40.5q0 71 81 71q30 0 100.5 -2.5t104.5 -2.5q35 0 104 2.5t97 2.5q65 0 65 -51q0 -30 -17 -52.5t-39 -38.5t-47 -54.5t-37 -93.5q-17 -81 -52 -306t-35 -300q0 -146 59.5 -216t166.5 -70
q149 0 230 132q21 34 37.5 90.5t26.5 111.5t24 141q3 22 5 33q43 268 43 391q0 47 -14 84.5t-31.5 56.5t-31.5 39.5t-14 35.5q0 67 81 67q27 0 82 -2.5t73 -2.5q22 0 74.5 2.5t75.5 2.5q60 0 60 -50q0 -25 -10 -42t-25.5 -29.5t-32.5 -28t-34.5 -47.5t-27.5 -77
q-25 -123 -50 -311z" />
    <glyph glyph-name="Uacute" unicode="&#xda;" 
d="M1065 1584q69 56 149 148q44 52 85 81t91 29q52 0 81.5 -29t29.5 -72q0 -54 -37 -94t-99 -75q-71 -40 -156.5 -68t-137.5 -28q-57 0 -57 36q0 18 9.5 31.5t41.5 40.5zM1582 813q-23 -184 -35 -268q-41 -294 -188.5 -437t-422.5 -143q-99 0 -179 26.5t-142 81.5t-96 147
t-34 215q0 66 42.5 364.5t42.5 325.5q0 45 -12.5 78.5t-27.5 48.5t-27.5 34.5t-12.5 40.5q0 71 81 71q30 0 100.5 -2.5t104.5 -2.5q35 0 104 2.5t97 2.5q65 0 65 -51q0 -30 -17 -52.5t-39 -38.5t-47 -54.5t-37 -93.5q-17 -81 -52 -306t-35 -300q0 -146 59.5 -216t166.5 -70
q149 0 230 132q21 34 37.5 90.5t26.5 111.5t24 141q3 22 5 33q43 268 43 391q0 47 -14 84.5t-31.5 56.5t-31.5 39.5t-14 35.5q0 67 81 67q27 0 82 -2.5t73 -2.5q22 0 74.5 2.5t75.5 2.5q60 0 60 -50q0 -25 -10 -42t-25.5 -29.5t-32.5 -28t-34.5 -47.5t-27.5 -77
q-25 -123 -50 -311z" />
    <glyph glyph-name="Ucircumflex" unicode="&#xdb;" 
d="M1419 1476q-76 0 -194 74q-51 31 -63 31t-61 -30q-48 -30 -105.5 -52.5t-93.5 -22.5q-43 0 -43 35q0 22 36 58q50 50 160 183q37 47 65 68.5t67 21.5q36 0 59.5 -21t56.5 -69q60 -90 136 -181q27 -33 27 -53t-13 -31t-34 -11zM1582 813q-23 -184 -35 -268
q-41 -294 -188.5 -437t-422.5 -143q-99 0 -179 26.5t-142 81.5t-96 147t-34 215q0 66 42.5 364.5t42.5 325.5q0 45 -12.5 78.5t-27.5 48.5t-27.5 34.5t-12.5 40.5q0 71 81 71q30 0 100.5 -2.5t104.5 -2.5q35 0 104 2.5t97 2.5q65 0 65 -51q0 -30 -17 -52.5t-39 -38.5
t-47 -54.5t-37 -93.5q-17 -81 -52 -306t-35 -300q0 -146 59.5 -216t166.5 -70q149 0 230 132q21 34 37.5 90.5t26.5 111.5t24 141q3 22 5 33q43 268 43 391q0 47 -14 84.5t-31.5 56.5t-31.5 39.5t-14 35.5q0 67 81 67q27 0 82 -2.5t73 -2.5q22 0 74.5 2.5t75.5 2.5
q60 0 60 -50q0 -25 -10 -42t-25.5 -29.5t-32.5 -28t-34.5 -47.5t-27.5 -77q-25 -123 -50 -311z" />
    <glyph glyph-name="Udieresis" unicode="&#xdc;" 
d="M978 1824q65 0 106.5 -39.5t41.5 -102.5q0 -77 -57 -129.5t-136 -52.5q-62 0 -101.5 37.5t-39.5 97.5q0 73 54.5 131t131.5 58zM1422 1824q65 0 107 -39.5t42 -102.5q0 -77 -57.5 -129.5t-136.5 -52.5q-63 0 -102 37.5t-39 97.5q0 73 54.5 131t131.5 58zM1582 813
q-23 -184 -35 -268q-41 -294 -188.5 -437t-422.5 -143q-99 0 -179 26.5t-142 81.5t-96 147t-34 215q0 66 42.5 364.5t42.5 325.5q0 45 -12.5 78.5t-27.5 48.5t-27.5 34.5t-12.5 40.5q0 71 81 71q30 0 100.5 -2.5t104.5 -2.5q35 0 104 2.5t97 2.5q65 0 65 -51
q0 -30 -17 -52.5t-39 -38.5t-47 -54.5t-37 -93.5q-17 -81 -52 -306t-35 -300q0 -146 59.5 -216t166.5 -70q149 0 230 132q21 34 37.5 90.5t26.5 111.5t24 141q3 22 5 33q43 268 43 391q0 47 -14 84.5t-31.5 56.5t-31.5 39.5t-14 35.5q0 67 81 67q27 0 82 -2.5t73 -2.5
q22 0 74.5 2.5t75.5 2.5q60 0 60 -50q0 -25 -10 -42t-25.5 -29.5t-32.5 -28t-34.5 -47.5t-27.5 -77q-25 -123 -50 -311z" />
    <glyph glyph-name="Yacute" unicode="&#xdd;" horiz-adv-x="1201" 
d="M906 1584q72 59 150 148q44 52 84.5 81t90.5 29q52 0 81.5 -29t29.5 -72q0 -54 -37 -94t-99 -75q-71 -40 -156.5 -68t-137.5 -28q-57 0 -57 36q0 18 9.5 31.5t41.5 40.5zM1016 501q-24 -185 -24 -264q0 -38 15.5 -66t34 -41.5t34 -32t15.5 -39.5q0 -27 -22.5 -45
t-63.5 -18q-30 0 -107.5 2.5t-111.5 2.5q-36 0 -114.5 -2.5t-107.5 -2.5q-35 0 -52.5 13.5t-17.5 35.5q0 27 19 47t43.5 33t51 42.5t38.5 70.5q12 43 24.5 115.5t19.5 125t7 60.5q0 57 -29.5 141t-92.5 227q-94 218 -128 280q-15 26 -39.5 51.5t-38 44t-13.5 41.5
q0 42 29 58.5t88 16.5q21 0 80.5 -2.5t111.5 -2.5q49 0 104 2.5t81 2.5q75 0 75 -55q0 -23 -15 -43.5t-32.5 -34.5t-32.5 -37t-15 -49q0 -49 42 -179.5t71 -173.5q7 -9 15 -9q5 0 17 12q54 67 127 200t73 172q0 35 -29.5 72t-29.5 58q0 67 90 67q22 0 84 -2.5t84 -2.5
q24 0 75.5 2.5t69.5 2.5q60 0 60 -49q0 -28 -13.5 -45.5t-57.5 -54.5t-82 -79q-10 -11 -20.5 -23.5t-22.5 -28.5t-21.5 -29t-24 -34t-23 -33.5t-25 -38.5t-24.5 -38t-27.5 -42.5t-27.5 -42.5q-11 -17 -52 -79.5t-54.5 -85t-38.5 -66t-35.5 -73t-13.5 -55.5z" />
    <glyph glyph-name="Thorn" unicode="&#xde;" horiz-adv-x="1256" 
d="M436 0q-35 0 -105.5 -2.5t-100.5 -2.5q-35 0 -52.5 13.5t-17.5 35.5q0 21 10.5 37t27 28t34 26t36 40t28.5 61q24 94 77.5 455t53.5 434q0 45 -12.5 78.5t-27 48.5t-27 34.5t-12.5 40.5q0 71 81 71q30 0 99.5 -2.5t103.5 -2.5q40 0 107.5 2.5t95.5 2.5q77 0 77 -50
q0 -26 -21 -47t-70 -55q-27 -18 -43.5 -48.5t-16.5 -50.5q0 -26 26 -26q6 0 74.5 10.5t143.5 10.5q76 0 145.5 -21.5t127.5 -64t92 -113t34 -160.5q0 -76 -20.5 -147t-65 -136t-108 -113t-156.5 -76.5t-203 -28.5q-59 0 -115 9t-67 9q-19 0 -28 -26.5t-9 -56.5q0 -45 58 -73
q5 -3 19 -10.5t19 -11l15 -10.5t13.5 -12t7 -13.5t3.5 -17.5q0 -74 -120 -74q-29 0 -103 2.5t-108 2.5zM1043 750q0 98 -52 160.5t-140 62.5q-97 0 -120 -47q-13 -45 -34.5 -193.5t-21.5 -197.5q0 -47 28 -65t85 -18q113 0 184 86.5t71 211.5z" />
    <glyph glyph-name="germandbls" unicode="&#xdf;" horiz-adv-x="1139" 
d="M628 999q-7 -46 -46 -290.5t-63 -401.5q-17 -121 -17 -229q0 -80 -51 -115q-33 -26 -112 -55.5t-144 -29.5q-70 0 -70 56q0 17 11 55.5t29.5 100t29.5 112.5q24 104 66 354t58 357q20 133 56 235q62 168 183 264.5t286 96.5q123 0 201.5 -63.5t78.5 -174.5
q0 -53 -15.5 -102t-39 -83.5t-51 -65.5t-51 -51t-39 -36t-15.5 -24q0 -13 10 -24.5t36 -31.5q270 -178 270 -428q0 -105 -37 -190t-100 -138.5t-143 -82t-168 -28.5q-62 0 -120.5 24t-58.5 58q0 30 30 41q12 4 41.5 7t49.5 9q86 27 131 101t45 163q0 60 -17.5 115.5
t-48.5 100t-60 75.5t-67 63q-30 37 -30 67t24.5 65.5t60 71t70.5 76t59.5 95t24.5 113.5q0 40 -20.5 66t-59.5 26q-73 0 -128 -79.5t-79 -244.5z" />
    <glyph glyph-name="agrave" unicode="&#xe0;" horiz-adv-x="1168" 
d="M873 1248q18 -47 18 -57q0 -40 -47 -40q-41 0 -101.5 50.5t-98.5 111.5q-41 66 -41 122q0 51 25.5 86t76.5 35q28 0 48.5 -12.5t34 -37.5t20 -43.5t14.5 -49.5q33 -123 51 -165zM729 1060q57 0 105.5 -18t77.5 -44t50 -51.5t34 -43.5t18 -18q7 0 48.5 37.5t92.5 74.5
t80 37q43 0 43 -59q0 -8 -6.5 -34t-18.5 -71.5t-20 -84.5q-81 -389 -81 -506q0 -38 11.5 -59t31.5 -21q23 0 47 28.5t36 28.5q21 0 21 -38q0 -49 -29 -102t-90.5 -93t-138.5 -40q-66 0 -112.5 42t-56.5 100q-10 33 -17 33q-2 0 -4.5 -1t-6 -4.5l-6 -6t-7.5 -8.5t-9 -10
q-64 -69 -133 -108.5t-162 -39.5q-141 0 -223.5 105.5t-82.5 285.5q0 150 43.5 281.5t114.5 219.5t162.5 138t187.5 50zM788 891q-94 0 -170 -136.5t-76 -328.5q0 -114 36.5 -173.5t104.5 -59.5q93 0 162 133t69 343q0 112 -35.5 167t-90.5 55z" />
    <glyph glyph-name="aacute" unicode="&#xe1;" horiz-adv-x="1168" 
d="M756 1243q16 25 89 172q3 6 13.5 26.5t15.5 29t15.5 25.5t20 25t22.5 17.5t29 13.5t35 4q41 0 66 -26t25 -63q0 -75 -78 -160q-54 -59 -129 -107.5t-117 -48.5q-38 0 -38 32q0 3 0.5 6t1.5 5.5t4 7.5t5.5 9t8.5 13.5t11 18.5zM729 1060q57 0 105.5 -18t77.5 -44t50 -51.5
t34 -43.5t18 -18q7 0 48.5 37.5t92.5 74.5t80 37q43 0 43 -59q0 -8 -6.5 -34t-18.5 -71.5t-20 -84.5q-81 -389 -81 -506q0 -38 11.5 -59t31.5 -21q23 0 47 28.5t36 28.5q21 0 21 -38q0 -49 -29 -102t-90.5 -93t-138.5 -40q-66 0 -112.5 42t-56.5 100q-10 33 -17 33
q-2 0 -4.5 -1t-6 -4.5l-6 -6t-7.5 -8.5t-9 -10q-64 -69 -133 -108.5t-162 -39.5q-141 0 -223.5 105.5t-82.5 285.5q0 150 43.5 281.5t114.5 219.5t162.5 138t187.5 50zM788 891q-94 0 -170 -136.5t-76 -328.5q0 -114 36.5 -173.5t104.5 -59.5q93 0 162 133t69 343
q0 112 -35.5 167t-90.5 55z" />
    <glyph glyph-name="acircumflex" unicode="&#xe2;" horiz-adv-x="1168" 
d="M1030 1150q-53 0 -141 101q-5 6 -11 14.5t-10 13.5t-8.5 10t-8 7.5t-6.5 2.5q-9 0 -57 -48q-45 -40 -95.5 -70.5t-81.5 -30.5q-30 0 -30 27q0 18 32 58q61 73 150 211q19 28 25.5 37t22 27t31 24t34.5 6q33 0 52.5 -24.5t34.5 -69.5q36 -111 90 -211q18 -31 18 -48
t-12 -27t-29 -10zM729 1060q57 0 105.5 -18t77.5 -44t50 -51.5t34 -43.5t18 -18q7 0 48.5 37.5t92.5 74.5t80 37q43 0 43 -59q0 -8 -6.5 -34t-18.5 -71.5t-20 -84.5q-81 -389 -81 -506q0 -38 11.5 -59t31.5 -21q23 0 47 28.5t36 28.5q21 0 21 -38q0 -49 -29 -102t-90.5 -93
t-138.5 -40q-66 0 -112.5 42t-56.5 100q-10 33 -17 33q-2 0 -4.5 -1t-6 -4.5l-6 -6t-7.5 -8.5t-9 -10q-64 -69 -133 -108.5t-162 -39.5q-141 0 -223.5 105.5t-82.5 285.5q0 150 43.5 281.5t114.5 219.5t162.5 138t187.5 50zM788 891q-94 0 -170 -136.5t-76 -328.5
q0 -114 36.5 -173.5t104.5 -59.5q93 0 162 133t69 343q0 112 -35.5 167t-90.5 55z" />
    <glyph glyph-name="atilde" unicode="&#xe3;" horiz-adv-x="1168" 
d="M548 1264q0 83 55.5 138t129.5 55q51 0 126.5 -43.5t115.5 -43.5q28 0 48.5 14.5t29 32t18.5 32t20 14.5q18 0 33.5 -25.5t15.5 -67.5q0 -86 -56 -143t-135 -57q-38 0 -77 16.5t-66.5 36t-59 36t-56.5 16.5q-21 0 -39 -13t-28 -28.5t-21 -28.5t-20 -13q-12 0 -23 19
t-11 53zM729 1060q57 0 105.5 -18t77.5 -44t50 -51.5t34 -43.5t18 -18q7 0 48.5 37.5t92.5 74.5t80 37q43 0 43 -59q0 -8 -6.5 -34t-18.5 -71.5t-20 -84.5q-81 -389 -81 -506q0 -38 11.5 -59t31.5 -21q23 0 47 28.5t36 28.5q21 0 21 -38q0 -49 -29 -102t-90.5 -93
t-138.5 -40q-66 0 -112.5 42t-56.5 100q-10 33 -17 33q-2 0 -4.5 -1t-6 -4.5l-6 -6t-7.5 -8.5t-9 -10q-64 -69 -133 -108.5t-162 -39.5q-141 0 -223.5 105.5t-82.5 285.5q0 150 43.5 281.5t114.5 219.5t162.5 138t187.5 50zM788 891q-94 0 -170 -136.5t-76 -328.5
q0 -114 36.5 -173.5t104.5 -59.5q93 0 162 133t69 343q0 112 -35.5 167t-90.5 55z" />
    <glyph glyph-name="adieresis" unicode="&#xe4;" horiz-adv-x="1168" 
d="M696 1484q56 0 90 -34.5t34 -92.5q0 -72 -54.5 -122.5t-123.5 -50.5q-54 0 -86.5 33.5t-32.5 87.5q0 69 51 124t122 55zM1070 1484q56 0 90 -34.5t34 -92.5q0 -72 -54.5 -122.5t-123.5 -50.5q-53 0 -85.5 33.5t-32.5 87.5q0 69 50.5 124t121.5 55zM729 1060
q57 0 105.5 -18t77.5 -44t50 -51.5t34 -43.5t18 -18q7 0 48.5 37.5t92.5 74.5t80 37q43 0 43 -59q0 -8 -6.5 -34t-18.5 -71.5t-20 -84.5q-81 -389 -81 -506q0 -38 11.5 -59t31.5 -21q23 0 47 28.5t36 28.5q21 0 21 -38q0 -49 -29 -102t-90.5 -93t-138.5 -40q-66 0 -112.5 42
t-56.5 100q-10 33 -17 33q-2 0 -4.5 -1t-6 -4.5l-6 -6t-7.5 -8.5t-9 -10q-64 -69 -133 -108.5t-162 -39.5q-141 0 -223.5 105.5t-82.5 285.5q0 150 43.5 281.5t114.5 219.5t162.5 138t187.5 50zM788 891q-94 0 -170 -136.5t-76 -328.5q0 -114 36.5 -173.5t104.5 -59.5
q93 0 162 133t69 343q0 112 -35.5 167t-90.5 55z" />
    <glyph glyph-name="aring" unicode="&#xe5;" horiz-adv-x="1168" 
d="M865 1560q87 0 142 -54t55 -144q0 -99 -68 -160t-164 -61q-86 0 -141 53.5t-55 140.5q0 98 68 161.5t163 63.5zM869 1461q-45 0 -74 -32.5t-29 -80.5q0 -40 23.5 -67t61.5 -27q44 0 72 34t28 81q0 41 -22 66.5t-60 25.5zM729 1060q57 0 105.5 -18t77.5 -44t50 -51.5
t34 -43.5t18 -18q7 0 48.5 37.5t92.5 74.5t80 37q43 0 43 -59q0 -8 -6.5 -34t-18.5 -71.5t-20 -84.5q-81 -389 -81 -506q0 -38 11.5 -59t31.5 -21q23 0 47 28.5t36 28.5q21 0 21 -38q0 -49 -29 -102t-90.5 -93t-138.5 -40q-66 0 -112.5 42t-56.5 100q-10 33 -17 33
q-2 0 -4.5 -1t-6 -4.5l-6 -6t-7.5 -8.5t-9 -10q-64 -69 -133 -108.5t-162 -39.5q-141 0 -223.5 105.5t-82.5 285.5q0 150 43.5 281.5t114.5 219.5t162.5 138t187.5 50zM788 891q-94 0 -170 -136.5t-76 -328.5q0 -114 36.5 -173.5t104.5 -59.5q93 0 162 133t69 343
q0 112 -35.5 167t-90.5 55z" />
    <glyph glyph-name="ae" unicode="&#xe6;" horiz-adv-x="1547" 
d="M830 160q-9 0 -25 -20q-144 -165 -364 -165q-120 0 -196.5 61t-76.5 174q0 116 82 201.5t231 127.5q56 16 123 25t109.5 13t53.5 11q16 10 30.5 62.5t14.5 120.5q0 70 -27.5 112t-82.5 42t-94.5 -44.5t-72.5 -126.5q-22 -48 -48 -72t-72 -24q-50 0 -84 33.5t-34 92.5
q0 107 110.5 191.5t283.5 84.5q165 0 260 -98q14 -12 26 -26t17.5 -20.5t11.5 -6.5t12 4t15 12t14 12q155 123 322 123q151 0 233 -74.5t82 -183.5q0 -60 -26.5 -112t-73.5 -89t-102.5 -66t-121.5 -48.5t-122.5 -31t-113.5 -18.5q-17 -2 -23.5 -9t-6.5 -28q0 -29 11 -59
t32.5 -59t62 -47t93.5 -18q55 0 105 18.5t84.5 44.5t62 52.5t48.5 45t33 18.5q25 0 25 -41t-20.5 -90.5t-62.5 -100t-98.5 -92.5t-137.5 -68.5t-171 -26.5q-93 0 -170 42t-124 106q-1 2 -6.5 9t-10 12t-10 9.5t-10.5 4.5zM1416 788q0 51 -28.5 83t-80.5 32q-91 0 -162 -94.5
t-71 -196.5q0 -46 30 -46q27 0 65 8t81.5 26.5t80 43t61 62.5t24.5 82zM777 406q0 20 -8 28.5t-34 8.5q-79 0 -131 -15q-75 -24 -111 -67.5t-36 -93.5q0 -48 30 -73t73 -25q90 0 153.5 73.5t63.5 163.5z" />
    <glyph glyph-name="ccedilla" unicode="&#xe7;" horiz-adv-x="984" 
d="M463 -168q0 27 35 70.5t81 77.5q-169 15 -265.5 133t-96.5 298q0 124 46 241.5t125.5 208t196 145t248.5 54.5q134 0 220 -66.5t86 -170.5q0 -89 -60.5 -144.5t-156.5 -55.5q-62 0 -62 48q0 6 4 34.5t4 45.5q0 73 -30 114.5t-85 41.5q-91 0 -161 -92.5t-70 -246.5
q0 -137 67.5 -228.5t192.5 -91.5q50 0 94 14t81 41.5t53.5 43.5t43.5 45q28 24 38 24q26 0 26 -42q0 -121 -120 -242.5t-296 -147.5q-52 -45 -52 -55q0 -2 2 -4.5t4.5 -4.5t7.5 -5t8 -5q74 -56 74 -155q0 -102 -69 -161.5t-169 -59.5q-66 0 -119 33t-53 63q0 28 22 28
q8 0 38 -12.5t63 -12.5q39 0 71.5 21t32.5 64q0 32 -22 57t-59 34q-19 4 -19 23z" />
    <glyph glyph-name="egrave" unicode="&#xe8;" horiz-adv-x="995" 
d="M901 1248q18 -47 18 -57q0 -40 -48 -40q-41 0 -101 50.5t-98 111.5q-41 66 -41 122q0 51 25 86t76 35q28 0 49 -12.5t34.5 -37t20 -43.5t14.5 -50q33 -123 51 -165zM835 1060q155 0 238.5 -74.5t83.5 -183.5q0 -72 -39.5 -132t-98.5 -98.5t-138.5 -68.5t-148 -45
t-138.5 -23q-17 -2 -23 -9.5t-6 -28.5q0 -28 10.5 -57t32 -58t62.5 -47t94 -18q31 0 60 5t56.5 18.5t45.5 22.5t44 31.5t34 29t32 32.5l25 25q25 22 38 22q27 0 27 -41t-20.5 -91t-63.5 -102t-100 -94.5t-138 -70t-171 -27.5q-193 0 -304.5 120t-111.5 312q0 122 47.5 240
t128 209t197 146.5t245.5 55.5zM778 903q-92 0 -163 -95.5t-71 -197.5q0 -24 5.5 -35t23.5 -11q36 0 86.5 14t103.5 40t89.5 71t36.5 99q0 51 -29.5 83t-81.5 32z" />
    <glyph glyph-name="eacute" unicode="&#xe9;" horiz-adv-x="995" 
d="M776 1243q16 25 89 172q3 5 14 26.5t15.5 29.5t15.5 25t20 24.5t22.5 17.5t29.5 14t35 4q41 0 66 -26t25 -63q0 -74 -79 -160q-54 -59 -129 -107.5t-117 -48.5q-38 0 -38 32q0 3 0.5 6t1.5 5.5t4 7.5t5.5 9t8.5 13.5t11 18.5zM835 1060q155 0 238.5 -74.5t83.5 -183.5
q0 -72 -39.5 -132t-98.5 -98.5t-138.5 -68.5t-148 -45t-138.5 -23q-17 -2 -23 -9.5t-6 -28.5q0 -28 10.5 -57t32 -58t62.5 -47t94 -18q31 0 60 5t56.5 18.5t45.5 22.5t44 31.5t34 29t32 32.5l25 25q25 22 38 22q27 0 27 -41t-20.5 -91t-63.5 -102t-100 -94.5t-138 -70
t-171 -27.5q-193 0 -304.5 120t-111.5 312q0 122 47.5 240t128 209t197 146.5t245.5 55.5zM778 903q-92 0 -163 -95.5t-71 -197.5q0 -24 5.5 -35t23.5 -11q36 0 86.5 14t103.5 40t89.5 71t36.5 99q0 51 -29.5 83t-81.5 32z" />
    <glyph glyph-name="ecircumflex" unicode="&#xea;" horiz-adv-x="995" 
d="M1021 1150q-53 0 -141 101q-5 6 -11 14.5t-10 13.5t-8.5 10t-8 7.5t-6.5 2.5q-9 0 -57 -48q-45 -40 -95.5 -70.5t-81.5 -30.5t-31 27q0 3 0.5 6t1.5 6t2 5.5t3.5 6.5t3.5 6t4.5 6.5t5 6.5t6 7.5t6.5 7.5q61 73 150 211q39 59 58 74q24 20 54 20q33 0 52.5 -24.5
t34.5 -69.5q36 -111 90 -211q19 -33 19 -48q0 -17 -12 -27t-29 -10zM835 1060q155 0 238.5 -74.5t83.5 -183.5q0 -72 -39.5 -132t-98.5 -98.5t-138.5 -68.5t-148 -45t-138.5 -23q-17 -2 -23 -9.5t-6 -28.5q0 -28 10.5 -57t32 -58t62.5 -47t94 -18q31 0 60 5t56.5 18.5
t45.5 22.5t44 31.5t34 29t32 32.5l25 25q25 22 38 22q27 0 27 -41t-20.5 -91t-63.5 -102t-100 -94.5t-138 -70t-171 -27.5q-193 0 -304.5 120t-111.5 312q0 122 47.5 240t128 209t197 146.5t245.5 55.5zM778 903q-92 0 -163 -95.5t-71 -197.5q0 -24 5.5 -35t23.5 -11
q36 0 86.5 14t103.5 40t89.5 71t36.5 99q0 51 -29.5 83t-81.5 32z" />
    <glyph glyph-name="edieresis" unicode="&#xeb;" horiz-adv-x="995" 
d="M657 1484q56 0 90 -34.5t34 -92.5q0 -72 -54.5 -122.5t-123.5 -50.5q-54 0 -86.5 33.5t-32.5 87.5q0 69 51 124t122 55zM1031 1484q56 0 90 -34.5t34 -92.5q0 -72 -54.5 -122.5t-123.5 -50.5q-53 0 -85.5 33.5t-32.5 87.5q0 69 50.5 124t121.5 55zM835 1060
q155 0 238.5 -74.5t83.5 -183.5q0 -72 -39.5 -132t-98.5 -98.5t-138.5 -68.5t-148 -45t-138.5 -23q-17 -2 -23 -9.5t-6 -28.5q0 -28 10.5 -57t32 -58t62.5 -47t94 -18q31 0 60 5t56.5 18.5t45.5 22.5t44 31.5t34 29t32 32.5l25 25q25 22 38 22q27 0 27 -41t-20.5 -91
t-63.5 -102t-100 -94.5t-138 -70t-171 -27.5q-193 0 -304.5 120t-111.5 312q0 122 47.5 240t128 209t197 146.5t245.5 55.5zM778 903q-92 0 -163 -95.5t-71 -197.5q0 -24 5.5 -35t23.5 -11q36 0 86.5 14t103.5 40t89.5 71t36.5 99q0 51 -29.5 83t-81.5 32z" />
    <glyph glyph-name="igrave" unicode="&#xec;" horiz-adv-x="623" 
d="M741 1248q18 -47 18 -57q0 -40 -47 -40q-41 0 -101.5 50.5t-98.5 111.5q-41 66 -41 122q0 51 25 86t76 35q28 0 49 -12.5t34.5 -37t20 -43.5t14.5 -50q33 -123 51 -165zM338 233q0 75 25.5 189t51 210.5t25.5 128.5q0 54 -44 73q-38 20 -38 48q0 41 35.5 66t110.5 52
q167 60 230 60q54 0 54 -54q0 -40 -37.5 -176.5t-75 -290.5t-37.5 -237q0 -53 15.5 -78t39.5 -25q23 0 48.5 28.5t37.5 28.5q22 0 22 -38q0 -37 -15.5 -76.5t-44 -75.5t-77.5 -59.5t-109 -23.5q-98 0 -157.5 67.5t-59.5 182.5z" />
    <glyph glyph-name="iacute" unicode="&#xed;" horiz-adv-x="623" 
d="M563 1243q16 25 89 172q3 5 14 26.5t15.5 29.5t15.5 25t20 24.5t22.5 17.5t29.5 14t35 4q41 0 66 -26t25 -63q0 -74 -79 -160q-54 -59 -129 -107.5t-117 -48.5q-38 0 -38 32q0 3 0.5 6t1.5 5.5t4 7.5t5.5 9t8.5 13.5t11 18.5zM338 233q0 75 25.5 189t51 210.5t25.5 128.5
q0 54 -44 73q-38 20 -38 48q0 41 35.5 66t110.5 52q167 60 230 60q54 0 54 -54q0 -40 -37.5 -176.5t-75 -290.5t-37.5 -237q0 -53 15.5 -78t39.5 -25q23 0 48.5 28.5t37.5 28.5q22 0 22 -38q0 -37 -15.5 -76.5t-44 -75.5t-77.5 -59.5t-109 -23.5q-98 0 -157.5 67.5
t-59.5 182.5z" />
    <glyph glyph-name="icircumflex" unicode="&#xee;" horiz-adv-x="623" 
d="M849 1150q-53 0 -141 101q-5 6 -11 14.5t-10 13.5t-8.5 10t-8 7.5t-6.5 2.5q-9 0 -57 -48q-45 -40 -95.5 -70.5t-81.5 -30.5t-31 27q0 3 0.5 6t1.5 6t2 5.5t3.5 6.5t3.5 6t4.5 6.5t5 6.5t6 7.5t6.5 7.5q61 73 150 211q39 59 58 74q24 20 54 20q33 0 52.5 -24.5
t34.5 -69.5q36 -111 90 -211q19 -33 19 -48q0 -17 -12 -27t-29 -10zM338 233q0 75 25.5 189t51 210.5t25.5 128.5q0 54 -44 73q-38 20 -38 48q0 41 35.5 66t110.5 52q167 60 230 60q54 0 54 -54q0 -40 -37.5 -176.5t-75 -290.5t-37.5 -237q0 -53 15.5 -78t39.5 -25
q23 0 48.5 28.5t37.5 28.5q22 0 22 -38q0 -37 -15.5 -76.5t-44 -75.5t-77.5 -59.5t-109 -23.5q-98 0 -157.5 67.5t-59.5 182.5z" />
    <glyph glyph-name="idieresis" unicode="&#xef;" horiz-adv-x="623" 
d="M559 1484q54 0 87 -33t33 -88q0 -74 -57 -126.5t-128 -52.5q-52 0 -83 31.5t-31 83.5q0 70 53 127.5t126 57.5zM887 1484q54 0 87 -33t33 -88q0 -74 -57.5 -126.5t-128.5 -52.5q-52 0 -83 31.5t-31 83.5q0 70 53.5 127.5t126.5 57.5zM338 233q0 75 25.5 189t51 210.5
t25.5 128.5q0 54 -44 73q-38 20 -38 48q0 41 35.5 66t110.5 52q167 60 230 60q54 0 54 -54q0 -40 -37.5 -176.5t-75 -290.5t-37.5 -237q0 -53 15.5 -78t39.5 -25q23 0 48.5 28.5t37.5 28.5q22 0 22 -38q0 -37 -15.5 -76.5t-44 -75.5t-77.5 -59.5t-109 -23.5
q-98 0 -157.5 67.5t-59.5 182.5z" />
    <glyph glyph-name="eth" unicode="&#xf0;" horiz-adv-x="1101" 
d="M853 971q11 -8 20 -8t9 8q0 7 -6 27q-27 94 -100 183l-221 -102q-55 -23 -73 -23t-26.5 18t-8.5 44q0 32 16 51t48 34l165 76q-70 56 -172 105q-48 24 -48 51q0 24 23 36t51 12q165 0 343 -118l225 103q50 21 64 21q34 0 34 -63q0 -59 -69 -90l-139 -63q50 -48 101 -114
q70 -95 109.5 -227.5t39.5 -272.5q0 -159 -45.5 -289t-124.5 -214.5t-184.5 -130t-227.5 -45.5q-202 0 -321.5 121t-119.5 321q0 131 42.5 244.5t111 188.5t154 118t172.5 43q97 0 158 -45zM775 899q-62 0 -119 -65.5t-92 -179t-35 -243.5q0 -118 43 -181t113 -63
q101 0 170 129t69 325q0 128 -42.5 203t-106.5 75z" />
    <glyph glyph-name="ntilde" unicode="&#xf1;" horiz-adv-x="1208" 
d="M589 1264q0 83 55.5 138t129.5 55q52 0 127 -43.5t115 -43.5q28 0 48.5 14.5t29 32t18.5 32t20 14.5q18 0 33.5 -25.5t15.5 -67.5q0 -86 -56 -143t-135 -57q-38 0 -77 16.5t-66.5 36t-59 36t-56.5 16.5q-21 0 -39 -13t-28 -28.5t-21 -28.5t-20 -13q-12 0 -23 19t-11 53z
M613 1057q55 0 55 -55q0 -51 -28.5 -166.5t-28.5 -126.5q0 -15 7 -15q4 0 22.5 27t44 68t66.5 88t87.5 88t110 68t129.5 27q102 0 164 -64.5t62 -192.5q0 -72 -31 -179t-62.5 -206t-31.5 -151q0 -68 44 -68q21 0 45 28.5t37 28.5q22 0 22 -38q0 -81 -77.5 -158t-193.5 -77
q-90 0 -143.5 53t-53.5 154q0 72 30.5 175t60.5 196.5t30 141.5q0 111 -79 111q-59 0 -125.5 -76t-116.5 -189.5t-68 -225.5q-16 -98 -16 -175q0 -83 -46 -115q-26 -19 -95.5 -31t-144.5 -12q-40 0 -55 15.5t-15 41.5q0 16 9.5 49t25.5 89t27 107q76 368 76 451q0 71 -46 90
q-38 20 -38 48q0 32 35.5 59.5t113.5 58.5q140 58 191 58z" />
    <glyph glyph-name="ograve" unicode="&#xf2;" horiz-adv-x="1082" 
d="M926 1248q17 -44 17 -57q0 -40 -47 -40q-41 0 -101.5 50.5t-98.5 111.5q-41 66 -41 122q0 51 25.5 86t76.5 35q28 0 48.5 -12.5t34 -37.5t20 -43.5t14.5 -49.5q31 -117 52 -165zM796 1060q182 0 306.5 -122t124.5 -331q0 -149 -46.5 -270t-126 -198t-181.5 -118t-217 -41
q-194 0 -313.5 121t-119.5 314q0 135 47 256t125 205.5t183 134t218 49.5zM780 899q-60 0 -116 -66t-91 -180.5t-35 -244.5q0 -117 41 -178.5t108 -61.5q100 0 167.5 130t67.5 327q0 127 -40.5 200.5t-101.5 73.5z" />
    <glyph glyph-name="oacute" unicode="&#xf3;" horiz-adv-x="1082" 
d="M735 1243q16 25 89 172q3 5 14 26.5t15.5 29.5t15.5 25t20 24.5t22.5 17.5t29.5 14t35 4q41 0 66 -26t25 -63q0 -74 -79 -160q-54 -59 -129 -107.5t-117 -48.5q-37 0 -37 32v4t0.5 4t1 3.5t2.5 4.5t3 5.5t3.5 7t5 8t6.5 10.5t8 13zM796 1060q182 0 306.5 -122t124.5 -331
q0 -149 -46.5 -270t-126 -198t-181.5 -118t-217 -41q-194 0 -313.5 121t-119.5 314q0 135 47 256t125 205.5t183 134t218 49.5zM780 899q-60 0 -116 -66t-91 -180.5t-35 -244.5q0 -117 41 -178.5t108 -61.5q100 0 167.5 130t67.5 327q0 127 -40.5 200.5t-101.5 73.5z" />
    <glyph glyph-name="ocircumflex" unicode="&#xf4;" horiz-adv-x="1082" 
d="M1027 1150q-53 0 -141 101q-5 6 -11 14.5t-10 13.5t-8.5 10t-8 7.5t-6.5 2.5q-9 0 -57 -48q-45 -40 -95.5 -70.5t-81.5 -30.5q-30 0 -30 27q0 18 32 58q61 73 150 211q39 59 58 74q24 20 54 20q33 0 52.5 -24.5t34.5 -69.5q34 -106 91 -211q18 -31 18 -48t-12 -27
t-29 -10zM796 1060q182 0 306.5 -122t124.5 -331q0 -149 -46.5 -270t-126 -198t-181.5 -118t-217 -41q-194 0 -313.5 121t-119.5 314q0 135 47 256t125 205.5t183 134t218 49.5zM780 899q-60 0 -116 -66t-91 -180.5t-35 -244.5q0 -117 41 -178.5t108 -61.5q100 0 167.5 130
t67.5 327q0 127 -40.5 200.5t-101.5 73.5z" />
    <glyph glyph-name="otilde" unicode="&#xf5;" horiz-adv-x="1082" 
d="M543 1264q0 83 55.5 138t129.5 55q52 0 127 -43.5t115 -43.5q28 0 48 14.5t28.5 32t18.5 32t20 14.5q18 0 34 -25.5t16 -67.5q0 -86 -56 -143t-135 -57q-38 0 -77 16.5t-66.5 36t-59 36t-56.5 16.5q-21 0 -39 -13t-28 -28.5t-21 -28.5t-20 -13q-12 0 -23 19t-11 53z
M796 1060q182 0 306.5 -122t124.5 -331q0 -149 -46.5 -270t-126 -198t-181.5 -118t-217 -41q-194 0 -313.5 121t-119.5 314q0 135 47 256t125 205.5t183 134t218 49.5zM780 899q-60 0 -116 -66t-91 -180.5t-35 -244.5q0 -117 41 -178.5t108 -61.5q100 0 167.5 130t67.5 327
q0 127 -40.5 200.5t-101.5 73.5z" />
    <glyph glyph-name="odieresis" unicode="&#xf6;" horiz-adv-x="1082" 
d="M699 1484q56 0 90 -34.5t34 -92.5q0 -72 -54.5 -122.5t-123.5 -50.5q-54 0 -86.5 33.5t-32.5 87.5q0 69 51 124t122 55zM1073 1484q56 0 90 -34.5t34 -92.5q0 -72 -54.5 -122.5t-123.5 -50.5q-53 0 -85.5 33.5t-32.5 87.5q0 69 50.5 124t121.5 55zM796 1060
q182 0 306.5 -122t124.5 -331q0 -149 -46.5 -270t-126 -198t-181.5 -118t-217 -41q-194 0 -313.5 121t-119.5 314q0 135 47 256t125 205.5t183 134t218 49.5zM780 899q-60 0 -116 -66t-91 -180.5t-35 -244.5q0 -117 41 -178.5t108 -61.5q100 0 167.5 130t67.5 327
q0 127 -40.5 200.5t-101.5 73.5z" />
    <glyph glyph-name="divide" unicode="&#xf7;" horiz-adv-x="1047" 
d="M1017 1035q0 -76 -54 -124.5t-124 -48.5q-52 0 -85.5 30.5t-33.5 86.5q0 79 55 128.5t122 49.5q49 0 84.5 -32.5t35.5 -89.5zM1165 569h-752q-30 0 -30 36q0 55 25 118q9 24 22 33t45 9h753q32 0 32 -45q0 -27 -26 -109q-9 -24 -22.5 -33t-46.5 -9zM920 348
q0 -76 -54 -124.5t-125 -48.5q-52 0 -85 30t-33 87q0 78 55 127.5t122 49.5q50 0 85 -32.5t35 -88.5z" />
    <glyph glyph-name="oslash" unicode="&#xf8;" horiz-adv-x="1082" 
d="M206 415q0 135 46.5 256t124.5 205.5t183 134t218 49.5q119 0 213 -52l96 127q32 43 73 43q47 0 67 -18.5t20 -42.5t-22 -53l-117 -153q101 -122 101 -304q0 -149 -46.5 -270t-125.5 -198t-181 -118t-217 -41q-117 0 -211 47l-101 -136q-20 -25 -58 -25q-40 0 -60.5 18.5
t-20.5 39.5q0 19 15 34l112 153q-109 118 -109 304zM754 899q-94 0 -167 -138.5t-73 -335.5q0 -34 3 -61l335 477q-41 58 -98 58zM910 607q0 29 -3 55l-323 -455q40 -39 94 -39q100 0 166 121.5t66 317.5z" />
    <glyph glyph-name="ugrave" unicode="&#xf9;" horiz-adv-x="1206" 
d="M1017 1248q17 -44 17 -57q0 -40 -47 -40q-41 0 -101.5 50.5t-98.5 111.5q-41 66 -41 122q0 51 25.5 86t76.5 35q28 0 49 -12.5t34.5 -37t20 -43.5t14.5 -50q33 -123 51 -165zM722 1060q56 0 56 -58q0 -31 -34.5 -150.5t-69 -264t-34.5 -238.5q0 -77 29.5 -116.5
t81.5 -39.5q61 0 113.5 60.5t84.5 158.5q32 99 51.5 235t19.5 269q0 37 17 59t67 40q48 17 111 25.5t100 8.5q57 0 57 -58q0 -43 -34 -172.5t-68 -275.5t-34 -231q0 -45 13 -79t45 -34q17 0 32 14.5t28 28.5t24 14q24 0 24 -42q0 -36 -14.5 -75t-42 -74.5t-75.5 -58.5
t-107 -23q-139 0 -184 142q-1 2 -3 9t-3.5 12.5t-5 10t-6.5 4.5q-8 0 -40 -38q-18 -21 -40.5 -41t-60 -45.5t-89 -41t-107.5 -15.5q-143 0 -213.5 81t-70.5 222q0 97 43.5 273.5t43.5 202.5q0 52 -43 75q-40 22 -40 51t20 50.5t45 33t77 31.5q158 60 236 60z" />
    <glyph glyph-name="uacute" unicode="&#xfa;" horiz-adv-x="1206" 
d="M865 1243q16 25 89 172q3 5 14 26.5t15.5 29.5t15.5 25t20 24.5t22.5 17.5t29.5 14t35 4q41 0 66 -26t25 -63q0 -74 -79 -160q-54 -59 -129 -107.5t-117 -48.5q-37 0 -37 32v4t0.5 4t1 3.5t2.5 4.5t3 5.5t3.5 7t5 8t6.5 10.5t8 13zM722 1060q56 0 56 -58
q0 -31 -34.5 -150.5t-69 -264t-34.5 -238.5q0 -77 29.5 -116.5t81.5 -39.5q61 0 113.5 60.5t84.5 158.5q32 99 51.5 235t19.5 269q0 37 17 59t67 40q48 17 111 25.5t100 8.5q57 0 57 -58q0 -43 -34 -172.5t-68 -275.5t-34 -231q0 -45 13 -79t45 -34q17 0 32 14.5t28 28.5
t24 14q24 0 24 -42q0 -36 -14.5 -75t-42 -74.5t-75.5 -58.5t-107 -23q-139 0 -184 142q-1 2 -3 9t-3.5 12.5t-5 10t-6.5 4.5q-8 0 -40 -38q-18 -21 -40.5 -41t-60 -45.5t-89 -41t-107.5 -15.5q-143 0 -213.5 81t-70.5 222q0 97 43.5 273.5t43.5 202.5q0 52 -43 75
q-40 22 -40 51t20 50.5t45 33t77 31.5q158 60 236 60z" />
    <glyph glyph-name="ucircumflex" unicode="&#xfb;" horiz-adv-x="1206" 
d="M1143 1150q-54 0 -142 101q-5 6 -11 14.5t-10 13.5t-8.5 10t-8 7.5t-6.5 2.5t-7 -2t-10.5 -8t-11 -10t-13.5 -13.5t-14 -14.5q-45 -40 -95.5 -70.5t-81.5 -30.5t-31 27q0 3 0.5 6t1.5 6t2 5.5t3.5 6.5t3.5 6t4.5 6.5t5 6.5t6 7.5t6.5 7.5q61 73 150 211q39 59 58 74
q24 20 54 20q33 0 52.5 -24.5t34.5 -69.5q36 -111 90 -211q19 -33 19 -48q0 -17 -12 -27t-29 -10zM722 1060q56 0 56 -58q0 -31 -34.5 -150.5t-69 -264t-34.5 -238.5q0 -77 29.5 -116.5t81.5 -39.5q61 0 113.5 60.5t84.5 158.5q32 99 51.5 235t19.5 269q0 37 17 59t67 40
q48 17 111 25.5t100 8.5q57 0 57 -58q0 -43 -34 -172.5t-68 -275.5t-34 -231q0 -45 13 -79t45 -34q17 0 32 14.5t28 28.5t24 14q24 0 24 -42q0 -36 -14.5 -75t-42 -74.5t-75.5 -58.5t-107 -23q-139 0 -184 142q-1 2 -3 9t-3.5 12.5t-5 10t-6.5 4.5q-8 0 -40 -38
q-18 -21 -40.5 -41t-60 -45.5t-89 -41t-107.5 -15.5q-143 0 -213.5 81t-70.5 222q0 97 43.5 273.5t43.5 202.5q0 52 -43 75q-40 22 -40 51t20 50.5t45 33t77 31.5q158 60 236 60z" />
    <glyph glyph-name="udieresis" unicode="&#xfc;" horiz-adv-x="1206" 
d="M803 1484q56 0 90 -34.5t34 -92.5q0 -72 -54.5 -122.5t-123.5 -50.5q-54 0 -86.5 33.5t-32.5 87.5q0 69 51 124t122 55zM1177 1484q56 0 89.5 -34.5t33.5 -92.5q0 -72 -54.5 -122.5t-123.5 -50.5q-53 0 -85 33.5t-32 87.5q0 69 50.5 124t121.5 55zM722 1060q56 0 56 -58
q0 -31 -34.5 -150.5t-69 -264t-34.5 -238.5q0 -77 29.5 -116.5t81.5 -39.5q61 0 113.5 60.5t84.5 158.5q32 99 51.5 235t19.5 269q0 37 17 59t67 40q48 17 111 25.5t100 8.5q57 0 57 -58q0 -43 -34 -172.5t-68 -275.5t-34 -231q0 -45 13 -79t45 -34q17 0 32 14.5t28 28.5
t24 14q24 0 24 -42q0 -36 -14.5 -75t-42 -74.5t-75.5 -58.5t-107 -23q-139 0 -184 142q-1 2 -3 9t-3.5 12.5t-5 10t-6.5 4.5q-8 0 -40 -38q-18 -21 -40.5 -41t-60 -45.5t-89 -41t-107.5 -15.5q-143 0 -213.5 81t-70.5 222q0 97 43.5 273.5t43.5 202.5q0 52 -43 75
q-40 22 -40 51t20 50.5t45 33t77 31.5q158 60 236 60z" />
    <glyph glyph-name="yacute" unicode="&#xfd;" horiz-adv-x="1103" 
d="M729 1243q16 25 89 172q3 5 14 26.5t15.5 29.5t15.5 25t20 24.5t22.5 17.5t29.5 14t35 4q41 0 66 -26t25 -63q0 -74 -79 -160q-54 -59 -129 -107.5t-117 -48.5q-38 0 -38 32q0 3 0.5 6t1.5 5.5t4 7.5t5.5 9t8.5 13.5t11 18.5zM609 1060q36 0 51 -18.5t15 -42.5
q0 -27 -24 -106.5t-52.5 -166.5t-52.5 -194.5t-24 -181.5q0 -163 121 -163q72 0 142.5 76.5t113.5 189t43 216.5q0 91 -47 145q-8 9 -20.5 20t-18.5 17.5t-11 17.5t-5 25q0 65 57.5 115.5t137.5 50.5q171 0 171 -253q0 -153 -59.5 -369t-145.5 -389q-53 -108 -114 -194.5
t-134.5 -155t-160 -106t-180.5 -37.5q-110 0 -187.5 59.5t-77.5 152.5q0 66 38.5 112t85.5 46q8 0 15 -3t13 -9.5t9.5 -12t10 -17t10.5 -17.5q53 -80 147 -80q64 0 124 30t101 73.5t72 92t46 86.5t15 56q0 10 -11 10q-5 0 -31 -22.5t-59.5 -50t-89.5 -50t-114 -22.5
q-56 0 -104 15t-91.5 49t-69 98.5t-25.5 152.5q0 80 21.5 174.5t43.5 168.5t22 103q0 35 -14.5 52.5t-41.5 30.5q-25 13 -34.5 24.5t-9.5 33.5q0 33 29 58t92 50q65 26 145 43t117 17z" />
    <glyph glyph-name="thorn" unicode="&#xfe;" horiz-adv-x="1120" 
d="M538 1505q57 0 57 -54q0 -64 -63.5 -315t-63.5 -260q0 -16 6 -16q3 0 10.5 9.5t20.5 27t24 29.5q130 134 275 134q139 0 218 -105t79 -286q0 -151 -43 -281.5t-115 -218t-164.5 -137.5t-191.5 -50q-49 0 -91 14.5t-63.5 32t-37.5 32t-19 14.5q-13 0 -31 -103.5
t-18 -152.5q0 -31 13.5 -49.5t45.5 -45.5q6 -5 21 -16t22 -17t14 -18.5t7 -26.5q0 -67 -88 -67q-25 0 -102.5 2.5t-104.5 2.5q-34 0 -101 -2.5t-104 -2.5q-56 0 -56 46q0 14 4.5 27t13 23.5t15.5 17t19 16t15 12.5q38 36 53.5 72.5t22.5 86.5q2 13 40 226t75 426.5t69 416.5
t32 241q0 67 -45 88q-41 22 -41 49q0 39 31 63t114 57q70 28 132.5 43t93.5 15zM651 857q-92 0 -166.5 -139t-74.5 -345q0 -111 37.5 -163t93.5 -52q65 0 122.5 62t93 170.5t35.5 236.5q0 114 -36.5 172t-104.5 58z" />
    <glyph glyph-name="ydieresis" unicode="&#xff;" horiz-adv-x="1103" 
d="M662 1484q56 0 89.5 -34.5t33.5 -92.5q0 -72 -54.5 -122.5t-123.5 -50.5q-54 0 -86.5 33.5t-32.5 87.5q0 69 51.5 124t122.5 55zM1035 1484q56 0 90 -34.5t34 -92.5q0 -72 -54.5 -122.5t-123.5 -50.5q-53 0 -85.5 33.5t-32.5 87.5q0 69 50.5 124t121.5 55zM609 1060
q36 0 51 -18.5t15 -42.5q0 -27 -24 -106.5t-52.5 -166.5t-52.5 -194.5t-24 -181.5q0 -163 121 -163q72 0 142.5 76.5t113.5 189t43 216.5q0 91 -47 145q-8 9 -20.5 20t-18.5 17.5t-11 17.5t-5 25q0 65 57.5 115.5t137.5 50.5q171 0 171 -253q0 -153 -59.5 -369t-145.5 -389
q-53 -108 -114 -194.5t-134.5 -155t-160 -106t-180.5 -37.5q-110 0 -187.5 59.5t-77.5 152.5q0 66 38.5 112t85.5 46q8 0 15 -3t13 -9.5t9.5 -12t10 -17t10.5 -17.5q53 -80 147 -80q64 0 124 30t101 73.5t72 92t46 86.5t15 56q0 10 -11 10q-5 0 -31 -22.5t-59.5 -50
t-89.5 -50t-114 -22.5q-56 0 -104 15t-91.5 49t-69 98.5t-25.5 152.5q0 80 21.5 174.5t43.5 168.5t22 103q0 35 -14.5 52.5t-41.5 30.5q-25 13 -34.5 24.5t-9.5 33.5q0 33 29 58t92 50q65 26 145 43t117 17z" />
    <glyph glyph-name="Amacron" unicode="&#x100;" horiz-adv-x="1318" 
d="M1096 1526h-538q-54 0 -54 53q0 59 21 107q12 29 33 39.5t63 10.5h542q31 0 42.5 -13.5t11.5 -38.5q0 -56 -23 -107q-12 -29 -34 -40t-64 -11zM177 273l396 811q42 91 78 200q17 49 107 94.5t146 45.5q15 0 27 -3.5t21 -13.5t14.5 -18.5t11.5 -28t9 -32t9 -40t10 -43.5
l229 -974q17 -76 69 -131l6 -6l6 -6t6 -6.5t6.5 -8t5.5 -7.5t5.5 -9t3.5 -9t3 -10t1 -10q0 -41 -29.5 -57t-93.5 -16q-21 0 -83.5 2.5t-114.5 2.5q-51 0 -116.5 -2.5t-90.5 -2.5q-80 0 -80 55q0 23 22 44.5t48.5 38t48.5 45t22 62.5q0 13 -9 56.5t-17 64.5q-15 24 -52 24
h-307q-38 0 -60 -24q-22 -28 -46 -78.5t-24 -77.5q0 -26 13 -48.5t29 -35.5t29 -30t13 -34q0 -62 -93 -62q-21 0 -74 2.5t-78 2.5q-23 0 -67.5 -2.5t-66.5 -2.5q-60 0 -60 50q0 20 9 34.5t26 28t37 30.5t46 52.5t49 82.5zM548 567h238q17 0 22.5 6t5.5 18q0 34 -28.5 183
t-47.5 199q-8 14 -12 14q-5 0 -14 -13q-36 -56 -111.5 -215.5t-75.5 -176.5q0 -15 23 -15z" />
    <glyph glyph-name="amacron" unicode="&#x101;" horiz-adv-x="1168" 
d="M1046 1214h-448q-48 0 -48 44q0 49 28 110q13 26 33.5 36.5t59.5 10.5h453q46 0 46 -42q0 -56 -27 -110q-14 -26 -36 -37.5t-61 -11.5zM729 1060q57 0 105.5 -18t77.5 -44t50 -51.5t34 -43.5t18 -18q7 0 48.5 37.5t92.5 74.5t80 37q43 0 43 -59q0 -8 -6.5 -34
t-18.5 -71.5t-20 -84.5q-81 -389 -81 -506q0 -38 11.5 -59t31.5 -21q23 0 47 28.5t36 28.5q21 0 21 -38q0 -49 -29 -102t-90.5 -93t-138.5 -40q-66 0 -112.5 42t-56.5 100q-10 33 -17 33q-2 0 -4.5 -1t-6 -4.5l-6 -6t-7.5 -8.5t-9 -10q-64 -69 -133 -108.5t-162 -39.5
q-141 0 -223.5 105.5t-82.5 285.5q0 150 43.5 281.5t114.5 219.5t162.5 138t187.5 50zM788 891q-94 0 -170 -136.5t-76 -328.5q0 -114 36.5 -173.5t104.5 -59.5q93 0 162 133t69 343q0 112 -35.5 167t-90.5 55z" />
    <glyph glyph-name="Abreve" unicode="&#x102;" horiz-adv-x="1318" 
d="M842 1479q-73 0 -129 22.5t-87 60t-46.5 81.5t-15.5 93q0 92 44 92q5 0 8.5 -1t7 -3.5t5.5 -4.5t5 -7.5t4.5 -8t5 -10t5.5 -10.5q34 -50 81.5 -80t126.5 -30q137 0 218 110q11 17 16.5 24t15 14t20.5 7q31 0 31 -63q0 -51 -17.5 -100t-53.5 -91.5t-99.5 -68.5t-145.5 -26
zM177 273l396 811q42 91 78 200q17 49 107 94.5t146 45.5q15 0 27 -3.5t21 -13.5t14.5 -18.5t11.5 -28t9 -32t9 -40t10 -43.5l229 -974q17 -76 69 -131l6 -6l6 -6t6 -6.5t6.5 -8t5.5 -7.5t5.5 -9t3.5 -9t3 -10t1 -10q0 -41 -29.5 -57t-93.5 -16q-21 0 -83.5 2.5t-114.5 2.5
q-51 0 -116.5 -2.5t-90.5 -2.5q-80 0 -80 55q0 23 22 44.5t48.5 38t48.5 45t22 62.5q0 13 -9 56.5t-17 64.5q-15 24 -52 24h-307q-38 0 -60 -24q-22 -28 -46 -78.5t-24 -77.5q0 -26 13 -48.5t29 -35.5t29 -30t13 -34q0 -62 -93 -62q-21 0 -74 2.5t-78 2.5q-23 0 -67.5 -2.5
t-66.5 -2.5q-60 0 -60 50q0 20 9 34.5t26 28t37 30.5t46 52.5t49 82.5zM548 567h238q17 0 22.5 6t5.5 18q0 34 -28.5 183t-47.5 199q-8 14 -12 14q-5 0 -14 -13q-36 -56 -111.5 -215.5t-75.5 -176.5q0 -15 23 -15z" />
    <glyph glyph-name="abreve" unicode="&#x103;" horiz-adv-x="1168" 
d="M845 1158q-60 0 -106.5 22.5t-73 60t-40 81.5t-13.5 91q0 45 11 72t32 27q9 0 15.5 -7.5t9.5 -14.5t10 -26q27 -51 66 -81.5t104 -30.5q117 0 193 112q9 16 11.5 20t9.5 13.5t12.5 12t12.5 2.5q26 0 26 -61q0 -48 -17 -97.5t-49.5 -94t-88.5 -73t-125 -28.5zM729 1060
q57 0 105.5 -18t77.5 -44t50 -51.5t34 -43.5t18 -18q7 0 48.5 37.5t92.5 74.5t80 37q43 0 43 -59q0 -8 -6.5 -34t-18.5 -71.5t-20 -84.5q-81 -389 -81 -506q0 -38 11.5 -59t31.5 -21q23 0 47 28.5t36 28.5q21 0 21 -38q0 -49 -29 -102t-90.5 -93t-138.5 -40q-66 0 -112.5 42
t-56.5 100q-10 33 -17 33q-2 0 -4.5 -1t-6 -4.5l-6 -6t-7.5 -8.5t-9 -10q-64 -69 -133 -108.5t-162 -39.5q-141 0 -223.5 105.5t-82.5 285.5q0 150 43.5 281.5t114.5 219.5t162.5 138t187.5 50zM788 891q-94 0 -170 -136.5t-76 -328.5q0 -114 36.5 -173.5t104.5 -59.5
q93 0 162 133t69 343q0 112 -35.5 167t-90.5 55z" />
    <glyph glyph-name="Aogonek" unicode="&#x104;" horiz-adv-x="1318" 
d="M1137 -1q-80 0 -154 -68t-74 -155q0 -44 27.5 -72t67.5 -28q38 0 66 17q34 15 42 15q9 0 15 -7t6 -17q0 -40 -74 -89.5t-170 -49.5q-97 0 -154.5 52.5t-57.5 135.5q0 43 14.5 83.5t43.5 77.5t48 56.5t53 50.5q33 30 46.5 57.5t13.5 66.5q0 43 -12 118.5t-28 112.5
q-12 29 -54 29h-307q-38 0 -60 -24q-22 -28 -46 -78.5t-24 -78.5q0 -26 13 -48t29 -35t29 -29.5t13 -32.5q0 -64 -94 -64q-21 0 -81 2.5t-84 2.5q-23 0 -61 -2.5t-60 -2.5q-59 0 -59 49q0 25 14.5 43.5t36 33t54.5 54.5t62 98l396 811q37 78 78 200q17 49 108.5 94.5
t147.5 45.5q36 0 51.5 -22t27.5 -68q0 -3 1.5 -9t6.5 -28t12 -52l229 -974q17 -76 69 -131q1 -1 6 -5.5t6 -6.5t6 -6.5t7 -7.5t5.5 -8t5 -8.5t3.5 -8.5t3 -10t1 -10q0 -74 -97 -74q-25 0 -60.5 2t-52.5 2zM548 567h238q17 0 22.5 6t5.5 18q0 34 -28.5 183t-47.5 199
q-8 14 -12 14q-5 0 -14 -13q-36 -56 -111.5 -215.5t-75.5 -176.5q0 -15 23 -15z" />
    <glyph glyph-name="aogonek" unicode="&#x105;" horiz-adv-x="1168" 
d="M935 -19q15 11 15 18q0 9 -13 19q-54 41 -65 107q-10 33 -17 33q-2 0 -4.5 -1t-6 -4.5l-6 -6t-7.5 -8.5t-9 -10q-64 -69 -133 -108.5t-162 -39.5q-141 0 -223.5 105.5t-82.5 285.5q0 150 43.5 281.5t114.5 219.5t162.5 138t187.5 50q57 0 105.5 -18t77.5 -44t50 -51.5
t34 -43.5t18 -18q7 0 48.5 37.5t92.5 74.5t80 37q43 0 43 -59q0 -8 -6.5 -34t-18.5 -71.5t-20 -84.5q-81 -389 -81 -506q0 -38 11.5 -59t31.5 -21q23 0 47 28.5t36 28.5q21 0 21 -38t-16.5 -74.5t-54.5 -74t-55.5 -52.5t-62.5 -48q-7 -6 -10 -8q-72 -54 -112 -102t-40 -103
q0 -42 22.5 -66.5t59.5 -24.5q34 0 66 18q31 18 39 18q22 0 22 -29q0 -39 -63.5 -83t-147.5 -44q-93 0 -148 46.5t-55 128.5q0 38 15.5 75.5t34.5 63t50 53t48 39.5t44 30zM683 193q93 0 162 133t69 343q0 112 -35.5 167t-90.5 55q-94 0 -170 -136.5t-76 -328.5
q0 -114 36.5 -173.5t104.5 -59.5z" />
    <glyph glyph-name="Cacute" unicode="&#x106;" horiz-adv-x="1304" 
d="M957 1584q72 59 150 148q44 52 84.5 81t90.5 29q52 0 82 -29t30 -72q0 -54 -37.5 -94t-99.5 -75q-71 -40 -156 -68t-137 -28q-58 0 -58 36q0 18 9.5 31.5t41.5 40.5zM274 568q0 124 34.5 247.5t102.5 233.5t159.5 194.5t215.5 134t261 49.5q84 0 168.5 -24.5t103.5 -24.5
q23 0 60.5 11t56.5 11q17 0 28.5 -4t19 -15t11.5 -21.5t6 -31t2.5 -36t1 -44.5t1.5 -49q2 -50 5.5 -91t6 -63.5t2.5 -32.5q0 -37 -18.5 -57.5t-45.5 -20.5q-15 0 -27.5 6t-23.5 21t-17.5 26t-19.5 36.5t-19 37.5q-52 99 -128.5 153.5t-161.5 54.5q-120 0 -218.5 -87
t-151 -219.5t-52.5 -274.5q0 -202 95.5 -322.5t262.5 -120.5q62 0 119.5 20.5t102 56t77.5 72.5t60 79q40 54 61 54q32 0 32 -56q0 -46 -23 -109t-67 -123q-85 -119 -221.5 -196.5t-301.5 -77.5q-171 0 -299 79.5t-194.5 215.5t-66.5 308z" />
    <glyph glyph-name="cacute" unicode="&#x107;" horiz-adv-x="984" 
d="M742 1243q16 25 89 172q3 5 14 26.5t15.5 29.5t15.5 25t20 24.5t22.5 17.5t29.5 14t35 4q41 0 66 -26t25 -63q0 -74 -79 -160q-54 -60 -128.5 -108t-116.5 -48q-38 0 -38 32v4t0.5 4t1 3.5t2.5 4.5t3 5.5t3.5 7t5 8t6.5 10.5t8 13zM833 1060q134 0 220 -66.5t86 -170.5
q0 -89 -60.5 -144.5t-156.5 -55.5q-62 0 -62 48q0 6 4 34.5t4 45.5q0 73 -30 114.5t-85 41.5q-91 0 -161 -92.5t-70 -246.5q0 -137 67.5 -228.5t192.5 -91.5q50 0 94 14t81 41.5t53.5 43.5t43.5 45q28 24 38 24q26 0 26 -42q0 -50 -23 -104.5t-67.5 -106.5t-103.5 -93.5
t-137 -67t-161 -25.5q-190 0 -299.5 121t-109.5 313q0 124 46 241.5t125.5 208t196 145t248.5 54.5z" />
    <glyph glyph-name="Ccircumflex" unicode="&#x108;" horiz-adv-x="1304" 
d="M1324 1476q-77 0 -195 74q-6 4 -15.5 10t-14 8.5t-11.5 6t-11.5 5t-9.5 1.5q-12 0 -61 -30q-48 -30 -105.5 -52.5t-93.5 -22.5q-43 0 -43 35q0 22 36 58q44 44 159 183q36 47 65 68.5t68 21.5q36 0 59 -21t56 -69q60 -90 136 -181q28 -34 28 -53q0 -20 -13.5 -31
t-33.5 -11zM274 568q0 124 34.5 247.5t102.5 233.5t159.5 194.5t215.5 134t261 49.5q84 0 168.5 -24.5t103.5 -24.5q23 0 60.5 11t56.5 11q17 0 28.5 -4t19 -15t11.5 -21.5t6 -31t2.5 -36t1 -44.5t1.5 -49q2 -50 5.5 -91t6 -63.5t2.5 -32.5q0 -37 -18.5 -57.5t-45.5 -20.5
q-15 0 -27.5 6t-23.5 21t-17.5 26t-19.5 36.5t-19 37.5q-52 99 -128.5 153.5t-161.5 54.5q-120 0 -218.5 -87t-151 -219.5t-52.5 -274.5q0 -202 95.5 -322.5t262.5 -120.5q62 0 119.5 20.5t102 56t77.5 72.5t60 79q40 54 61 54q32 0 32 -56q0 -46 -23 -109t-67 -123
q-85 -119 -221.5 -196.5t-301.5 -77.5q-171 0 -299 79.5t-194.5 215.5t-66.5 308z" />
    <glyph glyph-name="ccircumflex" unicode="&#x109;" horiz-adv-x="984" 
d="M1023 1150q-53 0 -141 101q-5 6 -11 14.5t-10 13.5t-8.5 10t-8 7.5t-6.5 2.5q-9 0 -57 -48q-45 -40 -95.5 -70.5t-81.5 -30.5t-31 27q0 3 0.5 6t1.5 6t2 5.5t3.5 6.5t3.5 6t4.5 6.5t5 6.5t6 7.5t6.5 7.5q61 73 150 211q39 59 58 74q24 20 54 20q33 0 52.5 -24.5
t34.5 -69.5q34 -106 91 -211q18 -31 18 -48t-12 -27t-29 -10zM833 1060q134 0 220 -66.5t86 -170.5q0 -89 -60.5 -144.5t-156.5 -55.5q-62 0 -62 48q0 6 4 34.5t4 45.5q0 73 -30 114.5t-85 41.5q-91 0 -161 -92.5t-70 -246.5q0 -137 67.5 -228.5t192.5 -91.5q50 0 94 14
t81 41.5t53.5 43.5t43.5 45q28 24 38 24q26 0 26 -42q0 -50 -23 -104.5t-67.5 -106.5t-103.5 -93.5t-137 -67t-161 -25.5q-190 0 -299.5 121t-109.5 313q0 124 46 241.5t125.5 208t196 145t248.5 54.5z" />
    <glyph glyph-name="Cdotaccent" unicode="&#x10a;" horiz-adv-x="1304" 
d="M1147 1831q74 0 121.5 -41.5t47.5 -106.5q0 -81 -65 -136t-155 -55q-70 0 -115.5 39.5t-45.5 102.5q0 77 61.5 137t150.5 60zM274 568q0 124 34.5 247.5t102.5 233.5t159.5 194.5t215.5 134t261 49.5q84 0 168.5 -24.5t103.5 -24.5q23 0 60.5 11t56.5 11q17 0 28.5 -4
t19 -15t11.5 -21.5t6 -31t2.5 -36t1 -44.5t1.5 -49q2 -50 5.5 -91t6 -63.5t2.5 -32.5q0 -37 -18.5 -57.5t-45.5 -20.5q-15 0 -27.5 6t-23.5 21t-17.5 26t-19.5 36.5t-19 37.5q-52 99 -128.5 153.5t-161.5 54.5q-120 0 -218.5 -87t-151 -219.5t-52.5 -274.5
q0 -202 95.5 -322.5t262.5 -120.5q62 0 119.5 20.5t102 56t77.5 72.5t60 79q40 54 61 54q32 0 32 -56q0 -46 -23 -109t-67 -123q-85 -119 -221.5 -196.5t-301.5 -77.5q-171 0 -299 79.5t-194.5 215.5t-66.5 308z" />
    <glyph glyph-name="cdotaccent" unicode="&#x10b;" horiz-adv-x="984" 
d="M858 1496q67 0 109.5 -41t42.5 -106q0 -73 -57.5 -125t-130.5 -52q-64 0 -105 39.5t-41 100.5q0 72 53 128t129 56zM833 1060q134 0 220 -66.5t86 -170.5q0 -89 -60.5 -144.5t-156.5 -55.5q-62 0 -62 48q0 6 4 34.5t4 45.5q0 73 -30 114.5t-85 41.5q-91 0 -161 -92.5
t-70 -246.5q0 -137 67.5 -228.5t192.5 -91.5q50 0 94 14t81 41.5t53.5 43.5t43.5 45q28 24 38 24q26 0 26 -42q0 -50 -23 -104.5t-67.5 -106.5t-103.5 -93.5t-137 -67t-161 -25.5q-190 0 -299.5 121t-109.5 313q0 124 46 241.5t125.5 208t196 145t248.5 54.5z" />
    <glyph glyph-name="Ccaron" unicode="&#x10c;" horiz-adv-x="1304" 
d="M851 1842q76 0 196 -75q49 -30 60 -30q14 0 63 29q47 30 104.5 53t93.5 23q19 0 31.5 -9.5t12.5 -26.5q0 -3 -0.5 -6t-1.5 -6t-2 -5.5t-4 -6t-4 -5.5t-5 -6.5t-6 -6.5t-7 -7.5t-7 -7.5q-61 -61 -160 -183q-39 -47 -66.5 -68.5t-65.5 -21.5q-36 0 -59 21t-56 69
q-60 89 -138 181q-26 34 -26 54q0 19 13.5 30t33.5 11zM274 568q0 124 34.5 247.5t102.5 233.5t159.5 194.5t215.5 134t261 49.5q84 0 168.5 -24.5t103.5 -24.5q23 0 60.5 11t56.5 11q17 0 28.5 -4t19 -15t11.5 -21.5t6 -31t2.5 -36t1 -44.5t1.5 -49q2 -50 5.5 -91t6 -63.5
t2.5 -32.5q0 -37 -18.5 -57.5t-45.5 -20.5q-15 0 -27.5 6t-23.5 21t-17.5 26t-19.5 36.5t-19 37.5q-52 99 -128.5 153.5t-161.5 54.5q-120 0 -218.5 -87t-151 -219.5t-52.5 -274.5q0 -202 95.5 -322.5t262.5 -120.5q62 0 119.5 20.5t102 56t77.5 72.5t60 79q40 54 61 54
q32 0 32 -56q0 -46 -23 -109t-67 -123q-85 -119 -221.5 -196.5t-301.5 -77.5q-171 0 -299 79.5t-194.5 215.5t-66.5 308z" />
    <glyph glyph-name="ccaron" unicode="&#x10d;" horiz-adv-x="984" 
d="M647 1540q56 0 143 -102q8 -9 18 -22.5t16 -19.5t11 -6t12.5 6.5t21 20t22.5 21.5q117 102 175 102q13 0 22 -7.5t9 -20.5q0 -19 -34 -58q-61 -72 -149 -210q-39 -59 -58 -74q-24 -20 -54 -20q-34 0 -53 24t-34 70q-33 107 -90 210q-19 35 -19 49q0 17 11.5 27t29.5 10z
M833 1060q134 0 220 -66.5t86 -170.5q0 -89 -60.5 -144.5t-156.5 -55.5q-62 0 -62 48q0 6 4 34.5t4 45.5q0 73 -30 114.5t-85 41.5q-91 0 -161 -92.5t-70 -246.5q0 -137 67.5 -228.5t192.5 -91.5q50 0 94 14t81 41.5t53.5 43.5t43.5 45q28 24 38 24q26 0 26 -42
q0 -50 -23 -104.5t-67.5 -106.5t-103.5 -93.5t-137 -67t-161 -25.5q-190 0 -299.5 121t-109.5 313q0 124 46 241.5t125.5 208t196 145t248.5 54.5z" />
    <glyph glyph-name="Dcaron" unicode="&#x10e;" horiz-adv-x="1419" 
d="M711 1842q75 0 195 -75q49 -30 61 -30q14 0 63 29q47 30 104.5 53t93.5 23q19 0 31.5 -9.5t12.5 -26.5q0 -3 -0.5 -6t-1.5 -6t-2 -5.5t-4 -6t-4 -5.5t-5 -6.5t-6 -6.5t-7 -7.5t-7 -7.5q-61 -61 -160 -183q-39 -47 -66.5 -68.5t-65.5 -21.5q-36 0 -59.5 21t-56.5 69
q-64 95 -137 181q-26 34 -26 54q0 19 13.5 30t33.5 11zM348 1327q0 71 81 71q30 0 99.5 -2.5t103.5 -2.5q54 0 144 3t142 3q103 0 195.5 -20.5t174.5 -66t141.5 -113t94 -167t34.5 -221.5q0 -239 -90 -424t-259 -289t-391 -104q-57 0 -188 3.5t-193 3.5q-36 0 -106.5 -2.5
t-99.5 -2.5q-71 0 -71 48q0 22 10.5 38t27 28t34 25.5t36 39.5t28.5 61q24 94 77.5 455t53.5 434q0 45 -12.5 78.5t-27 48.5t-27 34.5t-12.5 40.5zM755 1108q-20 -97 -67.5 -440.5t-47.5 -404.5q0 -52 26.5 -70t113.5 -18q95 0 174.5 54.5t130.5 146t79 208t28 242.5
q0 176 -79 287.5t-233 111.5q-64 0 -89 -27.5t-36 -89.5z" />
    <glyph glyph-name="dcaron" unicode="&#x10f;" horiz-adv-x="1378" 
d="M1281 1505q57 0 57 -54q0 -34 -45 -273.5t-90 -512t-45 -386.5q0 -37 11.5 -58.5t31.5 -21.5q23 0 47.5 28.5t36.5 28.5q22 0 22 -38q0 -80 -72.5 -157.5t-185.5 -77.5q-67 0 -114 42t-57 100q-10 33 -18 33q-2 0 -4.5 -1t-6 -4.5l-6 -6t-7.5 -8.5t-9 -10
q-64 -68 -134 -108t-163 -40q-143 0 -226 105t-83 286q0 121 28.5 230t78 191.5t114 143.5t139.5 92.5t152 31.5q41 0 76.5 -11t57.5 -26t38.5 -30.5t25.5 -26.5t12 -11q18 0 27 60q6 28 16.5 94t10.5 83q0 63 -50 89q-34 23 -34 46q0 37 29.5 60.5t103.5 54.5
q67 28 134.5 45.5t100.5 17.5zM1433 1118q11 47 27 141t25 129q31 117 119 117q90 0 90 -109q0 -78 -80 -225q-101 -194 -168 -194q-33 0 -33 39q0 2 20 102zM793 891q-96 0 -173.5 -136.5t-77.5 -328.5q0 -114 37 -173.5t106 -59.5q95 0 165.5 133t70.5 343
q0 113 -36 167.5t-92 54.5z" />
    <glyph glyph-name="Dcroat" unicode="&#x110;" horiz-adv-x="1419" 
d="M348 1327q0 71 81 71q30 0 99.5 -2.5t103.5 -2.5q54 0 144 3t142 3q103 0 195.5 -20.5t174.5 -66t141.5 -113t94 -167t34.5 -221.5q0 -239 -90 -424t-259 -289t-391 -104q-57 0 -188 3.5t-193 3.5q-36 0 -106.5 -2.5t-99.5 -2.5q-71 0 -71 48q0 22 10.5 38t27 28t34 25.5
t36 39.5t28.5 61q21 88 66 381h-131q-46 0 -46 42q0 48 26 103q12 25 31.5 34.5t55.5 9.5h92q37 278 37 319q0 45 -12.5 78.5t-27 48.5t-27 34.5t-12.5 40.5zM755 1108q-14 -68 -48 -302h200q45 0 45 -41q0 -44 -26 -102q-12 -25 -32.5 -35.5t-57.5 -10.5h-155
q-41 -294 -41 -354q0 -52 26.5 -70t113.5 -18q95 0 174.5 54.5t130.5 146t79 208t28 242.5q0 176 -79 287.5t-233 111.5q-64 0 -89 -27.5t-36 -89.5z" />
    <glyph glyph-name="dcroat" unicode="&#x111;" horiz-adv-x="1167" 
d="M1357 1065h-82q-117 -653 -117 -784q0 -82 43 -82q23 0 47.5 28.5t36.5 28.5q22 0 22 -38q0 -35 -17.5 -75t-48 -76t-81 -60t-108.5 -24q-66 0 -113.5 40t-58.5 93q-11 31 -17 31q-9 0 -33 -26q-63 -65 -132.5 -102.5t-162.5 -37.5q-145 0 -229.5 99.5t-84.5 274.5
q0 140 43 261.5t113.5 202t161 126.5t186.5 46q41 0 77 -9t58.5 -22t39 -26t26 -22t12.5 -9q18 0 27 53q4 23 16 109h-206q-38 0 -38 33q0 36 26 69q24 32 70 32h166q2 18 2 21q0 26 -11.5 40t-37.5 24q-37 19 -37 48q0 36 29.5 59t102.5 52q69 28 135.5 45t98.5 17
q58 0 58 -54q0 -37 -40 -252h122q20 0 29 -10t9 -23q0 -37 -23 -68q-22 -33 -79 -33zM686 194q94 0 163 120t69 308q0 104 -36.5 155t-93.5 51q-61 0 -118 -54.5t-93.5 -152.5t-36.5 -212q0 -107 37.5 -161t108.5 -54z" />
    <glyph glyph-name="Emacron" unicode="&#x112;" horiz-adv-x="1212" 
d="M1141 1526h-538q-54 0 -54 53q0 59 21 107q12 29 33 39.5t63 10.5h542q31 0 42.5 -13.5t11.5 -38.5q0 -56 -23 -107q-12 -29 -34 -40t-64 -11zM348 1327q0 71 81 71q39 0 177.5 -2.5t258.5 -2.5q107 0 226.5 2.5t143.5 2.5q57 0 76.5 -19.5t20.5 -87.5q0 -29 3.5 -118
t3.5 -140q0 -94 -66 -94q-17 0 -30.5 13t-21 28t-16.5 40q-1 4 -2 6q-15 44 -26 70.5t-27.5 51t-35 37.5t-47.5 23t-65 13t-88 3q-83 0 -113 -14t-39 -50q-9 -31 -24.5 -131t-16.5 -144q0 -28 7.5 -40t31.5 -12q30 0 54.5 2.5t44.5 11t32 13.5t26.5 20.5t19 20.5t19.5 26.5
t18 25.5q25 30 49 30q26 0 34 -18.5t8 -51.5q0 -25 -47 -351q-11 -84 -61 -84q-19 0 -32 11.5t-17.5 23t-9.5 31.5q-10 33 -17.5 49t-23.5 32.5t-43.5 22t-72.5 5.5q-25 0 -38 -11t-20 -37q-11 -44 -29.5 -168.5t-18.5 -153.5q0 -64 29.5 -84t123.5 -20q103 0 169.5 23.5
t110.5 68.5t94 132q44 72 81 72q41 0 41 -60q0 -25 -15 -83t-37.5 -136.5t-32.5 -123.5q-9 -46 -30 -61.5t-75 -15.5q-28 0 -164 2.5t-221 2.5q-84 0 -246.5 -2.5t-231.5 -2.5q-71 0 -71 49q0 21 10.5 37t27 28t34 26t36 40t28.5 61q24 94 77.5 455t53.5 434
q0 45 -12.5 78.5t-27 48.5t-27 34.5t-12.5 40.5z" />
    <glyph glyph-name="emacron" unicode="&#x113;" horiz-adv-x="995" 
d="M988 1214h-447q-48 0 -48 44q0 51 27 110q13 26 33.5 36.5t59.5 10.5h454q46 0 46 -42q0 -54 -28 -110q-14 -26 -36 -37.5t-61 -11.5zM835 1060q155 0 238.5 -74.5t83.5 -183.5q0 -72 -39.5 -132t-98.5 -98.5t-138.5 -68.5t-148 -45t-138.5 -23q-17 -2 -23 -9.5t-6 -28.5
q0 -28 10.5 -57t32 -58t62.5 -47t94 -18q31 0 60 5t56.5 18.5t45.5 22.5t44 31.5t34 29t32 32.5l25 25q25 22 38 22q27 0 27 -41t-20.5 -91t-63.5 -102t-100 -94.5t-138 -70t-171 -27.5q-193 0 -304.5 120t-111.5 312q0 122 47.5 240t128 209t197 146.5t245.5 55.5zM778 903
q-92 0 -163 -95.5t-71 -197.5q0 -24 5.5 -35t23.5 -11q36 0 86.5 14t103.5 40t89.5 71t36.5 99q0 51 -29.5 83t-81.5 32z" />
    <glyph glyph-name="Ebreve" unicode="&#x114;" horiz-adv-x="1212" 
d="M891 1479q-73 0 -129 22.5t-87 60t-46.5 81.5t-15.5 93q0 92 44 92q5 0 8.5 -1t7 -3.5t5.5 -4.5t5 -7.5t4.5 -8t5 -10t5.5 -10.5q34 -50 81.5 -80t126.5 -30q137 0 218 110q11 16 17 24t15.5 14.5t20.5 6.5q30 0 30 -63q0 -51 -17.5 -100t-53.5 -91.5t-99.5 -68.5
t-145.5 -26zM348 1327q0 71 81 71q39 0 177.5 -2.5t258.5 -2.5q107 0 226.5 2.5t143.5 2.5q57 0 76.5 -19.5t20.5 -87.5q0 -29 3.5 -118t3.5 -140q0 -94 -66 -94q-17 0 -30.5 13t-21 28t-16.5 40q-1 4 -2 6q-15 44 -26 70.5t-27.5 51t-35 37.5t-47.5 23t-65 13t-88 3
q-83 0 -113 -14t-39 -50q-9 -31 -24.5 -131t-16.5 -144q0 -28 7.5 -40t31.5 -12q30 0 54.5 2.5t44.5 11t32 13.5t26.5 20.5t19 20.5t19.5 26.5t18 25.5q25 30 49 30q26 0 34 -18.5t8 -51.5q0 -25 -47 -351q-11 -84 -61 -84q-19 0 -32 11.5t-17.5 23t-9.5 31.5
q-10 33 -17.5 49t-23.5 32.5t-43.5 22t-72.5 5.5q-25 0 -38 -11t-20 -37q-11 -44 -29.5 -168.5t-18.5 -153.5q0 -64 29.5 -84t123.5 -20q103 0 169.5 23.5t110.5 68.5t94 132q44 72 81 72q41 0 41 -60q0 -25 -15 -83t-37.5 -136.5t-32.5 -123.5q-9 -46 -30 -61.5t-75 -15.5
q-28 0 -164 2.5t-221 2.5q-84 0 -246.5 -2.5t-231.5 -2.5q-71 0 -71 49q0 21 10.5 37t27 28t34 26t36 40t28.5 61q24 94 77.5 455t53.5 434q0 45 -12.5 78.5t-27 48.5t-27 34.5t-12.5 40.5z" />
    <glyph glyph-name="ebreve" unicode="&#x115;" horiz-adv-x="995" 
d="M818 1158q-48 0 -88 15t-66 40t-44 58.5t-26 69t-8 72.5q0 45 11 72t32 27q9 0 15.5 -7.5t9.5 -14.5t10 -26q27 -51 66 -81.5t104 -30.5q116 0 192 112q9 16 11.5 20t9.5 13.5t12.5 12t12.5 2.5q27 0 27 -61q0 -48 -17 -97.5t-50 -94t-89 -73t-125 -28.5zM835 1060
q155 0 238.5 -74.5t83.5 -183.5q0 -72 -39.5 -132t-98.5 -98.5t-138.5 -68.5t-148 -45t-138.5 -23q-17 -2 -23 -9.5t-6 -28.5q0 -28 10.5 -57t32 -58t62.5 -47t94 -18q31 0 60 5t56.5 18.5t45.5 22.5t44 31.5t34 29t32 32.5l25 25q25 22 38 22q27 0 27 -41t-20.5 -91
t-63.5 -102t-100 -94.5t-138 -70t-171 -27.5q-193 0 -304.5 120t-111.5 312q0 122 47.5 240t128 209t197 146.5t245.5 55.5zM778 903q-92 0 -163 -95.5t-71 -197.5q0 -24 5.5 -35t23.5 -11q36 0 86.5 14t103.5 40t89.5 71t36.5 99q0 51 -29.5 83t-81.5 32z" />
    <glyph glyph-name="Edotaccent" unicode="&#x116;" horiz-adv-x="1212" 
d="M921 1831q74 0 121.5 -41.5t47.5 -106.5q0 -81 -65.5 -136t-155.5 -55q-70 0 -115 39.5t-45 102.5q0 77 61.5 137t150.5 60zM348 1327q0 71 81 71q39 0 177.5 -2.5t258.5 -2.5q107 0 226.5 2.5t143.5 2.5q57 0 76.5 -19.5t20.5 -87.5q0 -29 3.5 -118t3.5 -140
q0 -94 -66 -94q-17 0 -30.5 13t-21 28t-16.5 40q-1 4 -2 6q-15 44 -26 70.5t-27.5 51t-35 37.5t-47.5 23t-65 13t-88 3q-83 0 -113 -14t-39 -50q-9 -31 -24.5 -131t-16.5 -144q0 -28 7.5 -40t31.5 -12q30 0 54.5 2.5t44.5 11t32 13.5t26.5 20.5t19 20.5t19.5 26.5t18 25.5
q25 30 49 30q26 0 34 -18.5t8 -51.5q0 -25 -47 -351q-11 -84 -61 -84q-19 0 -32 11.5t-17.5 23t-9.5 31.5q-10 33 -17.5 49t-23.5 32.5t-43.5 22t-72.5 5.5q-25 0 -38 -11t-20 -37q-11 -44 -29.5 -168.5t-18.5 -153.5q0 -64 29.5 -84t123.5 -20q103 0 169.5 23.5t110.5 68.5
t94 132q44 72 81 72q41 0 41 -60q0 -25 -15 -83t-37.5 -136.5t-32.5 -123.5q-9 -46 -30 -61.5t-75 -15.5q-28 0 -164 2.5t-221 2.5q-84 0 -246.5 -2.5t-231.5 -2.5q-71 0 -71 49q0 21 10.5 37t27 28t34 26t36 40t28.5 61q24 94 77.5 455t53.5 434q0 45 -12.5 78.5t-27 48.5
t-27 34.5t-12.5 40.5z" />
    <glyph glyph-name="edotaccent" unicode="&#x117;" horiz-adv-x="995" 
d="M855 1496q67 0 109.5 -41t42.5 -106q0 -73 -57.5 -125t-130.5 -52q-64 0 -105 39.5t-41 100.5q0 72 53 128t129 56zM835 1060q155 0 238.5 -74.5t83.5 -183.5q0 -72 -39.5 -132t-98.5 -98.5t-138.5 -68.5t-148 -45t-138.5 -23q-17 -2 -23 -9.5t-6 -28.5q0 -28 10.5 -57
t32 -58t62.5 -47t94 -18q31 0 60 5t56.5 18.5t45.5 22.5t44 31.5t34 29t32 32.5l25 25q25 22 38 22q27 0 27 -41t-20.5 -91t-63.5 -102t-100 -94.5t-138 -70t-171 -27.5q-193 0 -304.5 120t-111.5 312q0 122 47.5 240t128 209t197 146.5t245.5 55.5zM778 903
q-92 0 -163 -95.5t-71 -197.5q0 -24 5.5 -35t23.5 -11q36 0 86.5 14t103.5 40t89.5 71t36.5 99q0 51 -29.5 83t-81.5 32z" />
    <glyph glyph-name="Eogonek" unicode="&#x118;" horiz-adv-x="1212" 
d="M348 1327q0 71 81 71q39 0 177.5 -2.5t258.5 -2.5q107 0 226.5 2.5t143.5 2.5q57 0 76.5 -19.5t20.5 -87.5q0 -29 3.5 -118t3.5 -140q0 -94 -66 -94q-17 0 -30.5 13t-21 28t-16.5 40q-1 4 -2 6q-15 44 -26 70.5t-27.5 51t-35 37.5t-47.5 23t-65 13t-88 3q-83 0 -113 -14
t-39 -50q-9 -31 -24.5 -131t-16.5 -144q0 -28 7.5 -40t31.5 -12q30 0 54.5 2.5t44.5 11t32 13.5t26.5 20.5t19 20.5t19.5 26.5t18 25.5q25 30 49 30q26 0 34 -18.5t8 -51.5q0 -25 -47 -351q-11 -84 -61 -84q-19 0 -32 11.5t-17.5 23t-9.5 31.5q-10 33 -17.5 49t-23.5 32.5
t-43.5 22t-72.5 5.5q-25 0 -38 -11t-20 -37q-11 -44 -29.5 -168.5t-18.5 -153.5q0 -64 29.5 -84t123.5 -20q103 0 169.5 23.5t110.5 68.5t94 132q44 72 81 72q41 0 41 -60q0 -25 -15 -83t-37.5 -136.5t-32.5 -123.5q-5 -27 -24 -48t-65 -49q-169 -101 -169 -214
q0 -42 23.5 -64.5t59.5 -22.5q39 0 69 18q34 15 42 15q20 0 20 -23q0 -40 -75.5 -89.5t-169.5 -49.5q-93 0 -147.5 45.5t-54.5 126.5q0 126 177 254q16 12 16 17q0 4 -6 6t-26.5 3.5t-58 2t-101.5 0.5q-84 0 -246.5 -2.5t-231.5 -2.5q-71 0 -71 49q0 21 10.5 37t27 28t34 26
t36 40t28.5 61q24 94 77.5 455t53.5 434q0 45 -12.5 78.5t-27 48.5t-27 34.5t-12.5 40.5z" />
    <glyph glyph-name="eogonek" unicode="&#x119;" horiz-adv-x="995" 
d="M508 -280q0 76 53.5 143.5t134.5 118.5q-33 -5 -63 -5q-193 0 -304.5 120t-111.5 312q0 122 47.5 240t128 209t197 146.5t245.5 55.5q155 0 238.5 -74.5t83.5 -183.5q0 -72 -39.5 -132t-98.5 -98.5t-138.5 -68.5t-148 -45t-138.5 -23q-17 -2 -23 -9.5t-6 -28.5
q0 -28 10.5 -57t32 -58t62.5 -47t94 -18q31 0 60 5t56.5 18.5t45.5 22.5t44 31.5t34 29t32 32.5l25 25q25 22 38 22q27 0 27 -38q0 -98 -95 -210q-44 -52 -109 -112.5t-105.5 -97.5t-71.5 -87.5t-31 -101.5q0 -42 22.5 -66.5t58.5 -24.5q34 0 66 18q29 18 38 18
q10 0 16.5 -8t6.5 -21q0 -39 -63 -83t-148 -44q-93 0 -148 46.5t-55 128.5zM889 788q0 51 -29.5 83t-81.5 32q-92 0 -163 -95.5t-71 -197.5q0 -24 5.5 -35t23.5 -11q36 0 86.5 14t103.5 40t89.5 71t36.5 99z" />
    <glyph glyph-name="Ecaron" unicode="&#x11a;" horiz-adv-x="1212" 
d="M651 1842q76 0 196 -75q49 -30 60 -30q15 0 64 29q47 30 104 53t93 23q19 0 31.5 -9.5t12.5 -26.5q0 -9 -5 -18.5t-10.5 -15.5t-20.5 -23q-61 -61 -160 -183q-39 -47 -66.5 -68.5t-65.5 -21.5q-36 0 -59.5 21t-56.5 69q-64 95 -137 181q-27 35 -27 54t13.5 30t33.5 11z
M348 1327q0 71 81 71q39 0 177.5 -2.5t258.5 -2.5q107 0 226.5 2.5t143.5 2.5q57 0 76.5 -19.5t20.5 -87.5q0 -29 3.5 -118t3.5 -140q0 -94 -66 -94q-17 0 -30.5 13t-21 28t-16.5 40q-1 4 -2 6q-15 44 -26 70.5t-27.5 51t-35 37.5t-47.5 23t-65 13t-88 3q-83 0 -113 -14
t-39 -50q-9 -31 -24.5 -131t-16.5 -144q0 -28 7.5 -40t31.5 -12q30 0 54.5 2.5t44.5 11t32 13.5t26.5 20.5t19 20.5t19.5 26.5t18 25.5q25 30 49 30q26 0 34 -18.5t8 -51.5q0 -25 -47 -351q-11 -84 -61 -84q-19 0 -32 11.5t-17.5 23t-9.5 31.5q-10 33 -17.5 49t-23.5 32.5
t-43.5 22t-72.5 5.5q-25 0 -38 -11t-20 -37q-11 -44 -29.5 -168.5t-18.5 -153.5q0 -64 29.5 -84t123.5 -20q103 0 169.5 23.5t110.5 68.5t94 132q44 72 81 72q41 0 41 -60q0 -25 -15 -83t-37.5 -136.5t-32.5 -123.5q-9 -46 -30 -61.5t-75 -15.5q-28 0 -164 2.5t-221 2.5
q-84 0 -246.5 -2.5t-231.5 -2.5q-71 0 -71 49q0 21 10.5 37t27 28t34 26t36 40t28.5 61q24 94 77.5 455t53.5 434q0 45 -12.5 78.5t-27 48.5t-27 34.5t-12.5 40.5z" />
    <glyph glyph-name="ecaron" unicode="&#x11b;" horiz-adv-x="995" 
d="M632 1540q55 0 142 -102q8 -9 18 -22.5t16 -19.5t11 -6t12.5 6t21.5 20t23 22q117 102 175 102q30 0 30 -28q0 -20 -33 -58q-61 -72 -149 -210q-19 -28 -25.5 -37t-22 -27t-31 -24t-34.5 -6q-34 0 -53 24t-34 70q-33 107 -90 210q-18 33 -18 49q0 17 11.5 27t29.5 10z
M835 1060q155 0 238.5 -74.5t83.5 -183.5q0 -72 -39.5 -132t-98.5 -98.5t-138.5 -68.5t-148 -45t-138.5 -23q-17 -2 -23 -9.5t-6 -28.5q0 -28 10.5 -57t32 -58t62.5 -47t94 -18q31 0 60 5t56.5 18.5t45.5 22.5t44 31.5t34 29t32 32.5l25 25q25 22 38 22q27 0 27 -41
t-20.5 -91t-63.5 -102t-100 -94.5t-138 -70t-171 -27.5q-193 0 -304.5 120t-111.5 312q0 122 47.5 240t128 209t197 146.5t245.5 55.5zM778 903q-92 0 -163 -95.5t-71 -197.5q0 -24 5.5 -35t23.5 -11q36 0 86.5 14t103.5 40t89.5 71t36.5 99q0 51 -29.5 83t-81.5 32z" />
    <glyph glyph-name="Gcircumflex" unicode="&#x11c;" horiz-adv-x="1394" 
d="M1311 1476q-77 0 -195 74q-6 4 -15.5 10t-14 8.5t-11.5 6t-11.5 5t-9.5 1.5q-13 0 -62 -30q-48 -30 -105 -52.5t-93 -22.5q-43 0 -43 35q0 23 35 58q50 50 160 183q37 47 65 68.5t67 21.5q36 0 59.5 -21t56.5 -69q60 -90 136 -181q28 -34 28 -53q0 -20 -13 -31t-34 -11z
M808 -35q-165 0 -288 80.5t-184.5 215t-61.5 304.5q0 118 32.5 239.5t98 233t155.5 198.5t215 139t266 52q64 0 118.5 -12.5t92.5 -24.5t61 -12q22 0 58.5 11t56.5 11q16 0 28 -4.5t19 -14.5t11 -21t5.5 -31t2 -36t1 -45t1.5 -49q2 -49 5.5 -91t5.5 -64t2 -32
q0 -37 -18.5 -57.5t-45.5 -20.5q-15 0 -27 6t-23.5 21t-18 26t-19.5 37t-19 37q-53 99 -128 153.5t-159 54.5q-116 0 -213 -90t-149 -226.5t-52 -281.5q0 -205 79.5 -337.5t216.5 -132.5q54 0 104.5 28t74.5 64q44 69 44 212q0 39 -9 66.5t-19.5 40t-31.5 31.5
q-9 8 -31 20.5t-31 23.5t-9 30q0 77 98 77q29 0 90.5 -3.5t86.5 -3.5q33 0 103 3.5t110 3.5q28 0 42.5 -14t14.5 -38q0 -30 -11.5 -51.5t-27 -38t-34.5 -68.5t-30 -132q-8 -63 -23 -204t-19 -170q-6 -42 -22.5 -63t-51.5 -21q-36 0 -66 43q-29 46 -56 46q-11 0 -26.5 -5
t-28.5 -10.5t-36 -16t-36 -16.5q-154 -70 -294 -70z" />
    <glyph glyph-name="gcircumflex" unicode="&#x11d;" horiz-adv-x="1072" 
d="M827 1150q-53 0 -141 101q-5 6 -11 14.5t-10 13.5t-8.5 10t-8 7.5t-6.5 2.5t-7 -2t-10.5 -8t-11 -10t-13.5 -13.5t-14 -14.5q-45 -40 -95.5 -70.5t-81.5 -30.5t-31 27q0 3 0.5 6t1.5 6t2 5.5t3.5 6.5t3.5 6t4.5 6.5t5 6.5t6 7.5t6.5 7.5q57 68 149 211q19 28 25.5 37
t22 27t31 24t34.5 6q33 0 52.5 -24.5t34.5 -69.5q36 -111 90 -211q18 -31 18 -48t-12 -27t-29 -10zM574 1059q77 0 193.5 -20.5t147.5 -20.5q64 0 107.5 10t67.5 20.5t40 10.5q34 0 34 -47q0 -63 -28 -122q-34 -62 -83 -62q-26 0 -61.5 8t-39.5 8q-8 0 -8 -14q0 -4 6 -19.5
t12.5 -42t6.5 -56.5q0 -168 -130 -272.5t-323 -104.5q-21 0 -58 4t-49 4q-33 0 -60 -14.5t-27 -44.5q0 -24 36.5 -38t94.5 -20.5t128.5 -14t140.5 -25.5t128 -47t94.5 -87t36.5 -138q0 -95 -52 -170.5t-136 -120t-180.5 -67t-195.5 -22.5q-217 0 -345.5 70.5t-128.5 200.5
q0 73 48.5 124t113.5 51q38 0 66 -16t28 -34q0 -8 -12.5 -39.5t-12.5 -55.5q0 -78 77 -121t219 -43q96 0 148.5 37.5t52.5 95.5q0 42 -33 71.5t-85.5 45.5t-116.5 29t-127.5 30t-116 40.5t-85.5 67.5t-33 105q0 56 41.5 111t117.5 84q20 9 20 18q0 4 -13 17
q-114 97 -114 240q0 126 63.5 217.5t163 135t221.5 43.5zM579 905q-73 0 -121.5 -73.5t-48.5 -167.5q0 -83 34 -120.5t91 -37.5q69 0 120 62.5t51 167.5q0 72 -29.5 120.5t-96.5 48.5z" />
    <glyph glyph-name="Gbreve" unicode="&#x11e;" horiz-adv-x="1394" 
d="M1062 1479q-73 0 -129 22.5t-87 60t-46.5 81.5t-15.5 93q0 92 44 92q5 0 8.5 -1t7 -3.5t5.5 -4.5t5 -7.5t4.5 -8t5 -10t5.5 -10.5q34 -50 81.5 -80t126.5 -30q137 0 218 110q11 16 17 24t15.5 14.5t20.5 6.5q30 0 30 -63q0 -51 -17.5 -100t-53.5 -91.5t-99.5 -68.5
t-145.5 -26zM808 -35q-165 0 -288 80.5t-184.5 215t-61.5 304.5q0 118 32.5 239.5t98 233t155.5 198.5t215 139t266 52q64 0 118.5 -12.5t92.5 -24.5t61 -12q22 0 58.5 11t56.5 11q16 0 28 -4.5t19 -14.5t11 -21t5.5 -31t2 -36t1 -45t1.5 -49q2 -49 5.5 -91t5.5 -64t2 -32
q0 -37 -18.5 -57.5t-45.5 -20.5q-15 0 -27 6t-23.5 21t-18 26t-19.5 37t-19 37q-53 99 -128 153.5t-159 54.5q-116 0 -213 -90t-149 -226.5t-52 -281.5q0 -205 79.5 -337.5t216.5 -132.5q54 0 104.5 28t74.5 64q44 69 44 212q0 39 -9 66.5t-19.5 40t-31.5 31.5
q-9 8 -31 20.5t-31 23.5t-9 30q0 77 98 77q29 0 90.5 -3.5t86.5 -3.5q33 0 103 3.5t110 3.5q28 0 42.5 -14t14.5 -38q0 -30 -11.5 -51.5t-27 -38t-34.5 -68.5t-30 -132q-8 -63 -23 -204t-19 -170q-6 -42 -22.5 -63t-51.5 -21q-36 0 -66 43q-29 46 -56 46q-11 0 -26.5 -5
t-28.5 -10.5t-36 -16t-36 -16.5q-154 -70 -294 -70z" />
    <glyph glyph-name="gbreve" unicode="&#x11f;" horiz-adv-x="1072" 
d="M640 1158q-48 0 -88 15t-66 40t-44 58.5t-26 69t-8 72.5q0 45 11 72t32 27q3 0 5.5 -0.5t4.5 -1.5t4 -3l3.5 -3.5t3 -5t2.5 -5.5t3 -6.5t2.5 -7t2.5 -7.5t3 -8q27 -51 66 -81.5t104 -30.5q117 0 193 112q9 16 11.5 20t9.5 13.5t12.5 12t12.5 2.5q27 0 27 -61
q0 -48 -17 -97.5t-50 -94t-89 -73t-125 -28.5zM574 1059q77 0 193.5 -20.5t147.5 -20.5q64 0 107.5 10t67.5 20.5t40 10.5q34 0 34 -47q0 -63 -28 -122q-34 -62 -83 -62q-26 0 -61.5 8t-39.5 8q-8 0 -8 -14q0 -4 6 -19.5t12.5 -42t6.5 -56.5q0 -168 -130 -272.5t-323 -104.5
q-21 0 -58 4t-49 4q-33 0 -60 -14.5t-27 -44.5q0 -24 36.5 -38t94.5 -20.5t128.5 -14t140.5 -25.5t128 -47t94.5 -87t36.5 -138q0 -95 -52 -170.5t-136 -120t-180.5 -67t-195.5 -22.5q-217 0 -345.5 70.5t-128.5 200.5q0 73 48.5 124t113.5 51q38 0 66 -16t28 -34
q0 -8 -12.5 -39.5t-12.5 -55.5q0 -78 77 -121t219 -43q96 0 148.5 37.5t52.5 95.5q0 42 -33 71.5t-85.5 45.5t-116.5 29t-127.5 30t-116 40.5t-85.5 67.5t-33 105q0 56 41.5 111t117.5 84q20 9 20 18q0 4 -13 17q-114 97 -114 240q0 126 63.5 217.5t163 135t221.5 43.5z
M579 905q-73 0 -121.5 -73.5t-48.5 -167.5q0 -83 34 -120.5t91 -37.5q69 0 120 62.5t51 167.5q0 72 -29.5 120.5t-96.5 48.5z" />
    <glyph glyph-name="Gdotaccent" unicode="&#x120;" horiz-adv-x="1394" 
d="M1110 1831q74 0 121.5 -41.5t47.5 -106.5q0 -81 -65 -136t-155 -55q-70 0 -115.5 39.5t-45.5 102.5q0 77 61.5 137t150.5 60zM808 -35q-165 0 -288 80.5t-184.5 215t-61.5 304.5q0 118 32.5 239.5t98 233t155.5 198.5t215 139t266 52q64 0 118.5 -12.5t92.5 -24.5t61 -12
q22 0 58.5 11t56.5 11q16 0 28 -4.5t19 -14.5t11 -21t5.5 -31t2 -36t1 -45t1.5 -49q2 -49 5.5 -91t5.5 -64t2 -32q0 -37 -18.5 -57.5t-45.5 -20.5q-15 0 -27 6t-23.5 21t-18 26t-19.5 37t-19 37q-53 99 -128 153.5t-159 54.5q-116 0 -213 -90t-149 -226.5t-52 -281.5
q0 -205 79.5 -337.5t216.5 -132.5q54 0 104.5 28t74.5 64q44 69 44 212q0 39 -9 66.5t-19.5 40t-31.5 31.5q-9 8 -31 20.5t-31 23.5t-9 30q0 77 98 77q29 0 90.5 -3.5t86.5 -3.5q33 0 103 3.5t110 3.5q28 0 42.5 -14t14.5 -38q0 -30 -11.5 -51.5t-27 -38t-34.5 -68.5
t-30 -132q-8 -63 -23 -204t-19 -170q-6 -42 -22.5 -63t-51.5 -21q-36 0 -66 43q-29 46 -56 46q-11 0 -26.5 -5t-28.5 -10.5t-36 -16t-36 -16.5q-154 -70 -294 -70z" />
    <glyph glyph-name="gdotaccent" unicode="&#x121;" horiz-adv-x="1072" 
d="M662 1496q66 0 108.5 -40.5t42.5 -106.5q0 -73 -57 -125t-130 -52q-64 0 -105.5 39.5t-41.5 100.5q0 72 53.5 128t129.5 56zM574 1059q77 0 193.5 -20.5t147.5 -20.5q64 0 107.5 10t67.5 20.5t40 10.5q34 0 34 -47q0 -63 -28 -122q-34 -62 -83 -62q-26 0 -61.5 8t-39.5 8
q-8 0 -8 -14q0 -4 6 -19.5t12.5 -42t6.5 -56.5q0 -168 -130 -272.5t-323 -104.5q-21 0 -58 4t-49 4q-33 0 -60 -14.5t-27 -44.5q0 -24 36.5 -38t94.5 -20.5t128.5 -14t140.5 -25.5t128 -47t94.5 -87t36.5 -138q0 -95 -52 -170.5t-136 -120t-180.5 -67t-195.5 -22.5
q-217 0 -345.5 70.5t-128.5 200.5q0 73 48.5 124t113.5 51q38 0 66 -16t28 -34q0 -8 -12.5 -39.5t-12.5 -55.5q0 -78 77 -121t219 -43q96 0 148.5 37.5t52.5 95.5q0 42 -33 71.5t-85.5 45.5t-116.5 29t-127.5 30t-116 40.5t-85.5 67.5t-33 105q0 56 41.5 111t117.5 84
q20 9 20 18q0 4 -13 17q-114 97 -114 240q0 126 63.5 217.5t163 135t221.5 43.5zM579 905q-73 0 -121.5 -73.5t-48.5 -167.5q0 -83 34 -120.5t91 -37.5q69 0 120 62.5t51 167.5q0 72 -29.5 120.5t-96.5 48.5z" />
    <glyph glyph-name="uni0122" unicode="&#x122;" horiz-adv-x="1394" 
d="M808 -35q-165 0 -288 80.5t-184.5 215t-61.5 304.5q0 118 32.5 239.5t98 233t155.5 198.5t215 139t266 52q64 0 118.5 -12.5t92.5 -24.5t61 -12q22 0 58.5 11t56.5 11q16 0 28 -4.5t19 -14.5t11 -21t5.5 -31t2 -36t1 -45t1.5 -49q2 -49 5.5 -91t5.5 -64t2 -32
q0 -37 -18.5 -57.5t-45.5 -20.5q-15 0 -27 6t-23.5 21t-18 26t-19.5 37t-19 37q-53 99 -128 153.5t-159 54.5q-116 0 -213 -90t-149 -226.5t-52 -281.5q0 -205 79.5 -337.5t216.5 -132.5q54 0 104.5 28t74.5 64q44 69 44 212q0 39 -9 66.5t-19.5 40t-31.5 31.5
q-9 8 -31 20.5t-31 23.5t-9 30q0 77 98 77q29 0 90.5 -3.5t86.5 -3.5q33 0 103 3.5t110 3.5q28 0 42.5 -14t14.5 -38q0 -30 -11.5 -51.5t-27 -38t-34.5 -68.5t-30 -132q-8 -63 -23 -204t-19 -170q-6 -42 -22.5 -63t-51.5 -21q-36 0 -66 43q-29 46 -56 46q-11 0 -26.5 -5
t-28.5 -10.5t-36 -16t-36 -16.5q-154 -70 -294 -70zM694 -500q-13 0 -20 8t-7 19q0 14 16 34.5t32 46.5t16 55q0 10 -13.5 27t-26.5 42.5t-13 55.5q0 61 41.5 96.5t97.5 35.5q55 0 86.5 -33t31.5 -91q0 -50 -26 -105t-63 -96t-78.5 -68t-73.5 -27z" />
    <glyph glyph-name="uni0123" unicode="&#x123;" horiz-adv-x="1072" 
d="M744 1563q13 0 20.5 -8t7.5 -19q0 -14 -16 -34.5t-32 -46.5t-16 -55q0 -10 13 -27t26.5 -42.5t13.5 -55.5q0 -61 -41.5 -96.5t-97.5 -35.5q-55 0 -86.5 33t-31.5 91q0 67 42.5 138t98.5 114.5t99 43.5zM574 1059q77 0 193.5 -20.5t147.5 -20.5q64 0 107.5 10t67.5 20.5
t40 10.5q34 0 34 -47q0 -63 -28 -122q-34 -62 -83 -62q-26 0 -61.5 8t-39.5 8q-8 0 -8 -14q0 -4 6 -19.5t12.5 -42t6.5 -56.5q0 -168 -130 -272.5t-323 -104.5q-21 0 -58 4t-49 4q-33 0 -60 -14.5t-27 -44.5q0 -24 36.5 -38t94.5 -20.5t128.5 -14t140.5 -25.5t128 -47
t94.5 -87t36.5 -138q0 -95 -52 -170.5t-136 -120t-180.5 -67t-195.5 -22.5q-217 0 -345.5 70.5t-128.5 200.5q0 73 48.5 124t113.5 51q38 0 66 -16t28 -34q0 -8 -12.5 -39.5t-12.5 -55.5q0 -78 77 -121t219 -43q96 0 148.5 37.5t52.5 95.5q0 42 -33 71.5t-85.5 45.5
t-116.5 29t-127.5 30t-116 40.5t-85.5 67.5t-33 105q0 56 41.5 111t117.5 84q20 9 20 18q0 4 -13 17q-114 97 -114 240q0 126 63.5 217.5t163 135t221.5 43.5zM579 905q-73 0 -121.5 -73.5t-48.5 -167.5q0 -83 34 -120.5t91 -37.5q69 0 120 62.5t51 167.5q0 72 -29.5 120.5
t-96.5 48.5z" />
    <glyph glyph-name="Hcircumflex" unicode="&#x124;" horiz-adv-x="1504" 
d="M1300 1476q-76 0 -194 74q-51 31 -63 31t-61 -30q-48 -30 -105.5 -52.5t-93.5 -22.5q-43 0 -43 35q0 22 36 58q50 50 160 183q37 47 65 68.5t67 21.5q36 0 59.5 -21t56.5 -69q60 -90 136 -181q28 -34 28 -53q0 -20 -13.5 -31t-34.5 -11zM1630 1398q64 0 64 -51
q0 -25 -11 -42t-28 -31.5t-36 -31.5t-38 -51.5t-30 -82.5q-20 -89 -68 -449t-48 -423q0 -38 13 -66.5t29 -41.5t29 -31t13 -37q0 -29 -23 -47t-65 -18q-29 0 -98 2.5t-103 2.5q-36 0 -107 -2.5t-101 -2.5q-35 0 -53.5 14t-18.5 35q0 26 17 45.5t38.5 31.5t46.5 42t38 73
q12 53 36 191t24 172q0 52 -52 52h-345q-48 0 -64 -36q-15 -28 -31 -179.5t-16 -199.5q0 -38 13.5 -66.5t29.5 -41.5t29.5 -31t13.5 -37q0 -29 -23.5 -47t-64.5 -18q-30 0 -99.5 2.5t-103.5 2.5q-35 0 -106 -2.5t-101 -2.5q-35 0 -52.5 13.5t-17.5 35.5q0 26 16.5 45.5
t38 31.5t46 42t37.5 73q24 94 78 455t54 434q0 45 -12.5 78.5t-27.5 48.5t-27.5 34.5t-12.5 40.5q0 71 81 71q30 0 100 -2.5t104 -2.5q36 0 106 2.5t98 2.5q62 0 62 -51q0 -27 -15 -48t-35 -34.5t-44 -42t-38 -66.5q-9 -22 -27 -119t-18 -133q0 -37 14.5 -51t45.5 -14h334
q55 0 75 44q29 167 29 231q0 43 -12.5 77.5t-27.5 53t-27.5 41t-12.5 43.5q0 69 82 69q30 0 99 -2.5t103 -2.5q36 0 106 2.5t98 2.5z" />
    <glyph glyph-name="hcircumflex" unicode="&#x125;" horiz-adv-x="1203" 
d="M890 1496q-65 0 -172 83q-8 6 -21.5 18t-20.5 16.5t-13 4.5q-5 0 -12.5 -4.5t-22.5 -16t-24 -17.5q-116 -84 -177 -84q-15 0 -26 8.5t-11 21.5q0 16 32 50q76 79 149 180q40 54 58 68q24 18 53 18q24 0 43.5 -13.5t29 -27t26.5 -43.5q45 -82 125 -182q24 -29 24 -46
q0 -16 -12 -25t-28 -9zM1295 803q0 -72 -31.5 -179t-62.5 -206t-31 -151q0 -68 44 -68q17 0 31.5 14.5t27 28.5t23.5 14q23 0 23 -38q0 -81 -77.5 -158t-193.5 -77q-90 0 -143.5 53t-53.5 154q0 72 30.5 175t60.5 196.5t30 141.5q0 111 -79 111q-59 0 -125.5 -76
t-116.5 -189.5t-68 -225.5q-16 -98 -16 -175q0 -83 -46 -115q-26 -19 -95 -31t-143 -12q-41 0 -55.5 15t-14.5 42q0 17 8 50.5t24.5 94t27.5 108.5q43 200 100.5 510t57.5 377q0 64 -45 87q-41 23 -41 48q0 38 32.5 64t111.5 57q150 58 225 58q56 0 56 -54q0 -53 -63 -365.5
t-63 -335.5q0 -9 3 -9q5 0 26.5 33.5t57 81t81.5 94.5t115 80.5t143 33.5q102 0 163.5 -64.5t61.5 -192.5z" />
    <glyph glyph-name="Hbar" unicode="&#x126;" horiz-adv-x="1504" 
d="M1603 927h-82q-29 -197 -57.5 -422t-28.5 -269q0 -38 13 -66.5t29 -41.5t29 -31t13 -37q0 -29 -23 -47t-65 -18q-29 0 -98 2.5t-103 2.5q-36 0 -107 -2.5t-101 -2.5q-35 0 -53.5 14t-18.5 35q0 26 17 45.5t38.5 31.5t46.5 42t38 73q12 53 33 169.5t21 145.5q0 51 -52 51
h-346q-46 0 -64 -35q-9 -20 -24.5 -160t-15.5 -171q0 -38 13.5 -66.5t29.5 -41.5t29.5 -31t13.5 -37q0 -29 -23.5 -47t-64.5 -18q-30 0 -99.5 2.5t-103.5 2.5q-35 0 -106 -2.5t-101 -2.5q-35 0 -52.5 13.5t-17.5 35.5q0 26 16.5 45.5t38 31.5t46 42t37.5 73q17 63 52 283
t59 408h-133q-49 0 -49 44q0 47 21 100q10 25 29.5 34.5t57.5 9.5h95v10q0 45 -12.5 78.5t-27.5 48.5t-27.5 34.5t-12.5 40.5q0 71 81 71q30 0 100 -2.5t104 -2.5q36 0 106 2.5t98 2.5q62 0 62 -51q0 -27 -15 -48t-35 -34.5t-44 -42t-38 -66.5q-3 -7 -12 -41h455q0 57 -8 88
q-7 35 -34.5 68t-27.5 58q0 69 82 69q30 0 99 -2.5t103 -2.5q36 0 106 2.5t98 2.5q64 0 64 -51q0 -29 -16.5 -50.5t-38.5 -36t-47.5 -52t-39.5 -93.5h114q47 0 47 -43q0 -56 -21 -100q-10 -25 -30.5 -35t-58.5 -10zM1123 791q36 0 55.5 43.5t21.5 92.5h-478q-4 -35 -4 -70
q0 -37 14.5 -51.5t44.5 -14.5h346z" />
    <glyph glyph-name="hbar" unicode="&#x127;" horiz-adv-x="1203" 
d="M853 1065h-150q-59 -297 -59 -320q0 -8 3 -8q5 0 29 31t62.5 75.5t87 88.5t116.5 75t138 31q102 0 158.5 -61.5t56.5 -173.5q0 -72 -31.5 -179t-62.5 -206t-31 -151q0 -68 44 -68q17 0 31.5 14.5t27 28.5t23.5 14q23 0 23 -38q0 -81 -77.5 -158t-193.5 -77
q-90 0 -143.5 53t-53.5 154q0 72 30.5 175t60.5 196.5t30 141.5q0 111 -79 111q-59 0 -125.5 -76t-116.5 -189.5t-68 -225.5q-16 -98 -16 -175q0 -83 -46 -115q-26 -19 -95 -31t-143 -12q-41 0 -55.5 15t-14.5 42q0 17 8 50.5t24.5 94t27.5 108.5q32 147 77 379t67 386h-137
q-38 0 -38 33q0 38 25 69q26 32 70 32h95q1 6 1 20q0 21 -7.5 35t-16 19.5t-23.5 11.5q-39 18 -39 47q0 35 29 58.5t107 53.5q157 61 231 61q57 0 57 -54q0 -47 -41 -252h189q36 0 36 -33q0 -38 -22 -68q-22 -33 -80 -33z" />
    <glyph glyph-name="Itilde" unicode="&#x128;" horiz-adv-x="709" 
d="M303 1616q0 85 58.5 138.5t140.5 53.5q60 0 151.5 -44.5t137.5 -44.5q33 0 55 15t30.5 32.5t18.5 32.5t21 15q23 0 44.5 -30.5t21.5 -82.5q0 -88 -58.5 -144t-146.5 -56q-44 0 -91 17t-80.5 37t-71.5 37t-67 17q-25 0 -45 -13t-30.5 -28.5t-22 -28.5t-21.5 -13
q-16 0 -30.5 24t-14.5 66zM835 1398q62 0 62 -51q0 -25 -10.5 -42t-27.5 -31.5t-35 -31.5t-37 -51.5t-30 -82.5q-19 -91 -67.5 -450.5t-48.5 -421.5q0 -38 13 -66.5t29 -41.5t29 -31t13 -37q0 -29 -23 -47t-64 -18q-29 0 -98.5 2.5t-103.5 2.5q-35 0 -105.5 -2.5
t-100.5 -2.5q-35 0 -52.5 13.5t-17.5 35.5q0 21 10.5 37t27 28t34 26t36 40t28.5 61q24 94 77.5 455t53.5 434q0 45 -12.5 78.5t-27 48.5t-27 34.5t-12.5 40.5q0 71 81 71q30 0 99.5 -2.5t103.5 -2.5q36 0 105.5 2.5t97.5 2.5z" />
    <glyph glyph-name="itilde" unicode="&#x129;" horiz-adv-x="623" 
d="M361 1264q0 82 56 137.5t130 55.5q51 0 126 -43.5t115 -43.5q28 0 48.5 14.5t29 32t18.5 32t20 14.5q18 0 33.5 -25.5t15.5 -67.5q0 -86 -55.5 -143t-134.5 -57q-38 0 -77 16.5t-66.5 36t-59 36t-56.5 16.5q-21 0 -39.5 -13t-28.5 -28.5t-21 -28.5t-20 -13q-12 0 -23 19
t-11 53zM338 233q0 75 25.5 189t51 210.5t25.5 128.5q0 54 -44 73q-38 20 -38 48q0 41 35.5 66t110.5 52q167 60 230 60q54 0 54 -54q0 -40 -37.5 -176.5t-75 -290.5t-37.5 -237q0 -53 15.5 -78t39.5 -25q23 0 48.5 28.5t37.5 28.5q22 0 22 -38q0 -37 -15.5 -76.5t-44 -75.5
t-77.5 -59.5t-109 -23.5q-98 0 -157.5 67.5t-59.5 182.5z" />
    <glyph glyph-name="Imacron" unicode="&#x12a;" horiz-adv-x="709" 
d="M894 1526h-538q-54 0 -54 53q0 57 22 107q12 29 32.5 39.5t62.5 10.5h543q31 0 42 -13.5t11 -38.5q0 -56 -23 -107q-12 -29 -34 -40t-64 -11zM835 1398q62 0 62 -51q0 -25 -10.5 -42t-27.5 -31.5t-35 -31.5t-37 -51.5t-30 -82.5q-19 -91 -67.5 -450.5t-48.5 -421.5
q0 -38 13 -66.5t29 -41.5t29 -31t13 -37q0 -29 -23 -47t-64 -18q-29 0 -98.5 2.5t-103.5 2.5q-35 0 -105.5 -2.5t-100.5 -2.5q-35 0 -52.5 13.5t-17.5 35.5q0 21 10.5 37t27 28t34 26t36 40t28.5 61q24 94 77.5 455t53.5 434q0 45 -12.5 78.5t-27 48.5t-27 34.5t-12.5 40.5
q0 71 81 71q30 0 99.5 -2.5t103.5 -2.5q36 0 105.5 2.5t97.5 2.5z" />
    <glyph glyph-name="imacron" unicode="&#x12b;" horiz-adv-x="623" 
d="M852 1214h-402q-50 0 -50 44q0 47 29 110q13 26 33 36.5t60 10.5h409q46 0 46 -42q0 -54 -28 -110q-14 -26 -36 -37.5t-61 -11.5zM338 233q0 75 25.5 189t51 210.5t25.5 128.5q0 54 -44 73q-38 20 -38 48q0 41 35.5 66t110.5 52q167 60 230 60q54 0 54 -54
q0 -40 -37.5 -176.5t-75 -290.5t-37.5 -237q0 -53 15.5 -78t39.5 -25q23 0 48.5 28.5t37.5 28.5q22 0 22 -38q0 -37 -15.5 -76.5t-44 -75.5t-77.5 -59.5t-109 -23.5q-98 0 -157.5 67.5t-59.5 182.5z" />
    <glyph glyph-name="Iogonek" unicode="&#x12e;" horiz-adv-x="709" 
d="M431 -23q22 11 22 17t-17 6q-35 0 -105.5 -2.5t-100.5 -2.5q-35 0 -52.5 13.5t-17.5 35.5q0 21 10.5 37t27 28t34 26t36 40t28.5 61q24 94 77.5 455t53.5 434q0 45 -12.5 78.5t-27 48.5t-27 34.5t-12.5 40.5q0 71 81 71q30 0 99.5 -2.5t103.5 -2.5q36 0 105.5 2.5
t97.5 2.5q62 0 62 -51q0 -25 -10.5 -42t-27.5 -31.5t-35 -31.5t-37 -51.5t-30 -82.5q-19 -91 -67.5 -450.5t-48.5 -421.5q0 -38 13 -66.5t29 -41.5t29 -31t13 -37q0 -24 -16 -38.5t-64.5 -41t-88.5 -55.5q-111 -82 -111 -164q0 -42 23 -64.5t60 -22.5q39 0 69 18
q34 15 42 15q20 0 20 -23q0 -40 -74 -89.5t-168 -49.5q-91 0 -148 46t-57 126q0 84 63 151.5t156 108.5z" />
    <glyph glyph-name="iogonek" unicode="&#x12f;" horiz-adv-x="623" 
d="M400 1280q0 82 68.5 149.5t157.5 67.5q64 0 103 -38t39 -99q0 -86 -71.5 -147t-159.5 -61q-66 0 -101.5 36.5t-35.5 91.5zM544 302q0 -103 55 -103q23 0 48.5 28.5t37.5 28.5q22 0 22 -38q0 -31 -14 -63t-31 -55t-48 -51.5t-48 -42t-48 -36.5l-12 -9q-71 -55 -111 -102.5
t-40 -102.5q0 -42 22.5 -66.5t58.5 -24.5q35 0 67 18q29 18 38 18q22 0 22 -29q0 -39 -63 -83t-148 -44q-92 0 -147 46.5t-55 128.5q0 38 15 75t34 63t50 53.5t48.5 40t43.5 29.5q15 9 15 18q0 4 -14 16q-98 78 -98 218q0 75 25.5 189t51 210.5t25.5 128.5q0 54 -44 73
q-38 20 -38 48q0 41 35.5 66t110.5 52q167 60 230 60q54 0 54 -54q0 -40 -37.5 -176.5t-75 -290.5t-37.5 -237z" />
    <glyph glyph-name="Idotaccent" unicode="&#x130;" horiz-adv-x="709" 
d="M692 1831q74 0 121.5 -41.5t47.5 -106.5q0 -81 -65 -136t-155 -55q-70 0 -115.5 39.5t-45.5 102.5q0 77 61.5 137t150.5 60zM835 1398q62 0 62 -51q0 -25 -10.5 -42t-27.5 -31.5t-35 -31.5t-37 -51.5t-30 -82.5q-19 -91 -67.5 -450.5t-48.5 -421.5q0 -38 13 -66.5
t29 -41.5t29 -31t13 -37q0 -29 -23 -47t-64 -18q-29 0 -98.5 2.5t-103.5 2.5q-35 0 -105.5 -2.5t-100.5 -2.5q-35 0 -52.5 13.5t-17.5 35.5q0 21 10.5 37t27 28t34 26t36 40t28.5 61q24 94 77.5 455t53.5 434q0 45 -12.5 78.5t-27 48.5t-27 34.5t-12.5 40.5q0 71 81 71
q30 0 99.5 -2.5t103.5 -2.5q36 0 105.5 2.5t97.5 2.5z" />
    <glyph glyph-name="dotlessi" unicode="&#x131;" horiz-adv-x="623" 
d="M338 233q0 75 25.5 189t51 210.5t25.5 128.5q0 54 -44 73q-38 20 -38 48q0 41 35.5 66t110.5 52q167 60 230 60q54 0 54 -54q0 -40 -37.5 -176.5t-75 -290.5t-37.5 -237q0 -53 15.5 -78t39.5 -25q23 0 48.5 28.5t37.5 28.5q22 0 22 -38q0 -37 -15.5 -76.5t-44 -75.5
t-77.5 -59.5t-109 -23.5q-98 0 -157.5 67.5t-59.5 182.5z" />
    <glyph glyph-name="IJ" unicode="&#x132;" horiz-adv-x="1721" 
d="M835 1398q62 0 62 -51q0 -25 -10.5 -42t-27.5 -31.5t-35 -31.5t-37 -51.5t-30 -82.5q-19 -91 -67.5 -450.5t-48.5 -421.5q0 -38 13 -66.5t29 -41.5t29 -31t13 -37q0 -29 -23 -47t-64 -18q-29 0 -98.5 2.5t-103.5 2.5q-35 0 -105.5 -2.5t-100.5 -2.5q-35 0 -52.5 13.5
t-17.5 35.5q0 21 10.5 37t27 28t34 26t36 40t28.5 61q24 94 77.5 455t53.5 434q0 45 -12.5 78.5t-27 48.5t-27 34.5t-12.5 40.5q0 71 81 71q30 0 99.5 -2.5t103.5 -2.5q36 0 105.5 2.5t97.5 2.5zM1423 713q52 375 52 402q0 39 -11.5 68.5t-28 46.5t-33 31t-28 30.5
t-11.5 36.5q0 31 19 50.5t61 19.5q28 0 113.5 -2.5t120.5 -2.5t99 2.5t94 2.5q64 0 64 -50q0 -25 -9.5 -42t-25 -31.5t-32.5 -31.5t-34.5 -52t-28.5 -83q-5 -22 -71 -479q-14 -103 -32 -182t-47 -157.5t-70.5 -134t-98 -99.5t-135 -65.5t-176.5 -21.5q-94 0 -166.5 24.5
t-115 66.5t-64 93.5t-21.5 109.5q0 103 60.5 179t161.5 76q59 0 93 -30.5t34 -71.5q0 -24 -19 -54t-38.5 -66.5t-19.5 -75.5q0 -37 24.5 -62.5t66.5 -25.5q60 0 102.5 48t80 176.5t70.5 356.5z" />
    <glyph glyph-name="ij" unicode="&#x133;" horiz-adv-x="1161" 
d="M720 1497q64 0 103 -38t39 -99q0 -86 -71.5 -147t-159.5 -61q-66 0 -101 36.5t-35 91.5q0 82 68 149.5t157 67.5zM1297 1497q64 0 103.5 -38.5t39.5 -98.5q0 -86 -72 -147t-160 -61q-66 0 -101 36.5t-35 91.5q0 82 68 149.5t157 67.5zM734 1060q54 0 54 -54
q0 -40 -37.5 -176.5t-75 -290.5t-37.5 -237q0 -53 15.5 -78t39.5 -25q23 0 48.5 28.5t37.5 28.5q22 0 22 -38q0 -37 -15.5 -76.5t-44 -75.5t-77.5 -59.5t-109 -23.5q-98 0 -157.5 67.5t-59.5 182.5q0 75 25.5 189t51 210.5t25.5 128.5q0 54 -44 73q-38 20 -38 48
q0 41 35.5 66t110.5 52q167 60 230 60zM1317 1060q53 0 53 -52q0 -24 -8.5 -62t-32 -148.5t-49.5 -255.5l-30 -185q-11 -61 -27.5 -206.5t-20.5 -165.5q-16 -87 -52 -158.5t-83 -120.5t-104 -82.5t-115.5 -49t-118.5 -15.5q-41 0 -70.5 15.5t-29.5 37.5q0 14 7 23t28 23
t32 24q83 62 141 179q52 105 115 454t63 448q0 52 -42 71q-37 20 -37 47q0 42 36 67.5t113 51.5q168 60 232 60z" />
    <glyph glyph-name="Jcircumflex" unicode="&#x134;" horiz-adv-x="1060" 
d="M1256 1476q-76 0 -194 74q-51 31 -63 31t-61 -30q-48 -30 -105.5 -52.5t-93.5 -22.5q-43 0 -43 35q0 22 36 58q50 50 160 183q37 47 65 68.5t67 21.5q36 0 59.5 -21t56.5 -69q60 -90 136 -181q28 -34 28 -53q0 -20 -13.5 -31t-34.5 -11zM750 713q51 368 51 402
q0 39 -11.5 68.5t-28 46.5t-33 31t-28 30.5t-11.5 36.5q0 31 19 50.5t61 19.5q28 0 114 -2.5t121 -2.5t98.5 2.5t93.5 2.5q65 0 65 -50q0 -25 -9.5 -42t-25 -31.5t-32.5 -31.5t-35 -52t-29 -83q-5 -22 -71 -479q-14 -103 -32 -182t-47 -157.5t-70.5 -134t-98 -99.5
t-135 -65.5t-176.5 -21.5q-94 0 -166.5 24.5t-115 66.5t-64 93.5t-21.5 109.5q0 103 60.5 179t161.5 76q59 0 93 -30.5t34 -71.5q0 -24 -19 -54t-38 -66.5t-19 -75.5q0 -37 24.5 -62.5t66.5 -25.5q60 0 102.5 48t80 176.5t70.5 356.5z" />
    <glyph glyph-name="jcircumflex" unicode="&#x135;" horiz-adv-x="561" 
d="M506 1150q-53 0 -141 101q-5 6 -11 14.5t-10 13.5t-8.5 10t-8 7.5t-6.5 2.5q-9 0 -57 -48q-45 -40 -95.5 -70.5t-81.5 -30.5t-31 27q0 3 0.5 6t1.5 6t2 5.5t3.5 6.5t3.5 6t4.5 6.5t5 6.5t6 7.5t6.5 7.5q61 73 150 211q39 59 58 74q24 20 54 20q33 0 52.5 -24.5
t34.5 -69.5q36 -111 90 -211q19 -33 19 -48q0 -17 -12 -27t-29 -10zM103 763q0 52 -42 71q-36 19 -36 47q0 42 36 67.5t113 51.5q168 60 232 60q53 0 53 -52q0 -24 -8.5 -62t-32 -148.5t-49.5 -255.5l-30 -185q-11 -61 -27.5 -206.5t-20.5 -165.5q-16 -87 -52 -158.5
t-83 -120.5t-104 -82.5t-115.5 -49t-118.5 -15.5q-41 0 -71 15.5t-30 37.5q0 14 7.5 23t28 23t32.5 24q81 61 140 179q52 105 115 454t63 448z" />
    <glyph glyph-name="uni0136" unicode="&#x136;" 
d="M978 754q68 -13 121.5 -55t84.5 -95.5t58.5 -113.5t46 -109t43.5 -81.5t54 -32.5q19 0 36.5 12t27.5 27t23 27t25 12q13 0 22.5 -16.5t9.5 -42.5q0 -45 -19 -96.5t-54.5 -100t-97 -80.5t-135.5 -32q-68 0 -121.5 32.5t-86.5 85t-59.5 115.5t-48 126t-43.5 115.5t-54.5 85
t-73.5 32.5t-59 -34q-11 -20 -25 -113t-14 -128q0 -58 12.5 -90.5t43.5 -61.5q8 -9 21.5 -21.5t20.5 -19.5t13 -18.5t6 -24.5q0 -31 -23.5 -47t-62.5 -16q-29 0 -114.5 2.5t-120.5 2.5t-105 -2.5t-100 -2.5q-35 0 -52.5 13.5t-17.5 35.5q0 21 10.5 37t27 28t34 26t36 40
t28.5 61q24 94 77.5 455t53.5 434q0 45 -12.5 78.5t-27 48.5t-27 34.5t-12.5 40.5q0 71 81 71q30 0 99.5 -2.5t103.5 -2.5q36 0 104.5 2.5t96.5 2.5q62 0 62 -51q0 -28 -18.5 -51t-46.5 -51t-42 -59q-25 -47 -53 -191.5t-28 -200.5q0 -23 15 -23q14 0 110.5 95t188.5 204.5
t92 141.5q0 23 -22 57.5t-22 60.5q0 29 23 48.5t65 19.5q21 0 82 -2.5t84 -2.5q22 0 86.5 2t85.5 2q50 0 74 -13t24 -45t-21.5 -52.5t-74 -48.5t-82.5 -50q-56 -39 -186.5 -157t-248.5 -247q-14 -14 -14 -20q0 -7 12 -10zM725 -500q-13 0 -20.5 8t-7.5 19q0 14 16.5 34.5
t32.5 46.5t16 55q0 10 -13 27t-26.5 42.5t-13.5 55.5q0 61 41.5 96.5t97.5 35.5q55 0 86.5 -33t31.5 -91q0 -50 -26 -105t-63 -96t-78.5 -68t-73.5 -27z" />
    <glyph glyph-name="uni0137" unicode="&#x137;" horiz-adv-x="1184" 
d="M714 1505q58 0 58 -54q0 -49 -66 -361t-66 -333q0 -20 8 -20q4 0 27 33.5t62 81t88.5 94.5t120 80.5t143.5 33.5q95 0 148 -54t53 -144q0 -57 -25.5 -108t-63.5 -85t-83 -62.5t-83 -45.5t-63.5 -30t-25.5 -19q0 -28 33 -95t89.5 -129t107.5 -62q29 0 54 18.5t42.5 37
t29.5 18.5q23 0 23 -45q0 -34 -10.5 -71.5t-33.5 -74.5t-54.5 -66.5t-76.5 -47.5t-97 -18q-81 0 -155.5 52t-122 127t-76 153t-28.5 135q0 47 44 68q39 19 65.5 32.5t65.5 38t63 46.5t41.5 51.5t17.5 58.5q0 36 -17.5 55.5t-49.5 19.5q-62 0 -131 -74.5t-121 -187
t-69 -223.5q-13 -96 -13 -181q0 -83 -46 -115q-26 -19 -95 -31t-143 -12q-41 0 -55.5 15t-14.5 42q0 17 8.5 50.5t25 93.5t27.5 109q42 188 100 505t58 385q0 65 -46 88q-41 24 -41 48q0 38 33 64.5t112 56.5q150 58 224 58zM564 -500q-13 0 -20 8t-7 19q0 14 16 34.5
t32 46.5t16 55q0 10 -13.5 27t-26.5 42.5t-13 55.5q0 61 41.5 96.5t97.5 35.5q55 0 86.5 -33t31.5 -91q0 -50 -26 -105t-63 -96t-78.5 -68t-73.5 -27z" />
    <glyph glyph-name="Lacute" unicode="&#x139;" horiz-adv-x="1170" 
d="M504 1584q69 56 149 148q44 52 84.5 81t90.5 29q52 0 82 -29t30 -72q0 -54 -37 -94t-99 -75q-71 -40 -156.5 -68t-137.5 -28q-57 0 -57 36q0 18 9.5 31.5t41.5 40.5zM296 236q24 94 77.5 455t53.5 434q0 45 -12.5 78.5t-27 48.5t-27 34.5t-12.5 40.5q0 71 81 71
q30 0 99.5 -2.5t103.5 -2.5q36 0 123 2.5t115 2.5q63 0 63 -51q0 -25 -14 -42.5t-36.5 -32t-46 -32t-46 -51.5t-33.5 -81q-19 -84 -70 -437.5t-51 -389.5q0 -64 29 -83t121 -19q76 0 131 15t94.5 47t66 69.5t54.5 96.5q26 49 46 70t43 21q41 0 41 -62q0 -24 -10.5 -74
t-30.5 -136.5t-33 -148.5q-10 -47 -33 -64.5t-75 -17.5q-32 0 -170 2.5t-228 2.5q-73 0 -226.5 -2.5t-224.5 -2.5t-71 49q0 21 10.5 37t27 28t34.5 26t36 40t28 61z" />
    <glyph glyph-name="lacute" unicode="&#x13a;" horiz-adv-x="602" 
d="M586 1586q37 49 95 131q20 32 33 49.5t32.5 37.5t42 29t49.5 9q45 0 69.5 -27t24.5 -69q0 -69 -87 -148q-49 -43 -129.5 -78t-127.5 -35q-40 0 -40 33q0 18 38 68zM322 234q0 106 41 310.5t82.5 386.5t41.5 234q0 69 -50 91q-11 7 -17 11.5t-12.5 14t-6.5 21.5
q0 36 29 59.5t102 53.5q68 28 137.5 46t102.5 18q56 0 56 -54q0 -64 -51.5 -295.5t-103.5 -480.5t-52 -353q0 -50 15.5 -74t39.5 -24q23 0 47.5 28.5t36.5 28.5q21 0 21 -38q0 -36 -15.5 -76t-44.5 -76t-78 -59.5t-107 -23.5q-96 0 -155 67.5t-59 183.5z" />
    <glyph glyph-name="uni013B" unicode="&#x13b;" horiz-adv-x="1170" 
d="M296 236q24 94 77.5 455t53.5 434q0 45 -12.5 78.5t-27 48.5t-27 34.5t-12.5 40.5q0 71 81 71q30 0 99.5 -2.5t103.5 -2.5q36 0 123 2.5t115 2.5q63 0 63 -51q0 -25 -14 -42.5t-36.5 -32t-46 -32t-46 -51.5t-33.5 -81q-19 -84 -70 -437.5t-51 -389.5q0 -64 29 -83
t121 -19q76 0 131 15t94.5 47t66 69.5t54.5 96.5q26 49 46 70t43 21q41 0 41 -62q0 -24 -10.5 -74t-30.5 -136.5t-33 -148.5q-10 -47 -33 -64.5t-75 -17.5q-32 0 -170 2.5t-228 2.5q-73 0 -226.5 -2.5t-224.5 -2.5t-71 49q0 21 10.5 37t27 28t34.5 26t36 40t28 61zM542 -500
q-13 0 -20.5 8t-7.5 19q0 14 16 34.5t32.5 46.5t16.5 55q0 10 -13.5 27t-27 42.5t-13.5 55.5q0 60 42 96t98 36q55 0 86 -33t31 -91q0 -67 -42.5 -138t-98.5 -114.5t-99 -43.5z" />
    <glyph glyph-name="uni013C" unicode="&#x13c;" horiz-adv-x="602" 
d="M771 1505q57 0 57 -54q0 -64 -53 -303.5t-106 -494.5t-53 -356q0 -50 16 -74t40 -24q23 0 47.5 28.5t36.5 28.5q21 0 21 -38q0 -36 -16 -76t-45 -76t-78 -59.5t-107 -23.5q-96 0 -155 67.5t-59 183.5q0 106 42.5 317t84.5 399t42 240q0 71 -49 91q-14 9 -18.5 12
t-11.5 13t-7 21q0 37 29.5 60.5t102.5 54.5q68 28 137 45.5t102 17.5zM341 -500q-13 0 -20.5 8t-7.5 19q0 14 16.5 34.5t32.5 46.5t16 55q0 10 -13 27t-26.5 42.5t-13.5 55.5q0 61 41.5 96.5t97.5 35.5q55 0 86.5 -33t31.5 -91q0 -50 -26 -105t-63 -96t-78.5 -68t-73.5 -27z
" />
    <glyph glyph-name="Lcaron" unicode="&#x13d;" horiz-adv-x="1170" 
d="M951 1016q11 46 27.5 140t25.5 129q31 118 118 118q44 0 67 -28.5t23 -81.5q0 -79 -79 -224q-102 -195 -168 -195q-33 0 -33 39q0 8 19 103zM296 236q24 94 77.5 455t53.5 434q0 45 -12.5 78.5t-27 48.5t-27 34.5t-12.5 40.5q0 71 81 71q30 0 99.5 -2.5t103.5 -2.5
q36 0 123 2.5t115 2.5q63 0 63 -51q0 -25 -14 -42.5t-36.5 -32t-46 -32t-46 -51.5t-33.5 -81q-19 -84 -70 -437.5t-51 -389.5q0 -64 29 -83t121 -19q76 0 131 15t94.5 47t66 69.5t54.5 96.5q26 49 46 70t43 21q41 0 41 -62q0 -24 -10.5 -74t-30.5 -136.5t-33 -148.5
q-10 -47 -33 -64.5t-75 -17.5q-32 0 -170 2.5t-228 2.5q-73 0 -226.5 -2.5t-224.5 -2.5t-71 49q0 21 10.5 37t27 28t34.5 26t36 40t28 61z" />
    <glyph glyph-name="lcaron" unicode="&#x13e;" horiz-adv-x="824" 
d="M775 1505q58 0 58 -54q0 -64 -53 -303.5t-106 -494.5t-53 -356q0 -50 15.5 -74t39.5 -24q23 0 47.5 28.5t36.5 28.5q21 0 21 -38q0 -36 -15.5 -76t-44.5 -76t-78 -59.5t-107 -23.5q-96 0 -155 67.5t-59 183.5q0 106 42 317t84 399t42 240q0 71 -49 91q-14 9 -18.5 12
t-11.5 13t-7 21q0 37 29.5 60.5t103.5 54.5q68 28 136.5 45.5t101.5 17.5zM929 1118q11 47 27 141t25 129q31 117 119 117q90 0 90 -109q0 -78 -80 -225q-101 -194 -168 -194q-33 0 -33 39q0 2 20 102z" />
    <glyph glyph-name="Ldot" unicode="&#x13f;" horiz-adv-x="1170" 
d="M296 236q24 94 77.5 455t53.5 434q0 45 -12.5 78.5t-27 48.5t-27 34.5t-12.5 40.5q0 71 81 71q30 0 99.5 -2.5t103.5 -2.5q36 0 123 2.5t115 2.5q63 0 63 -51q0 -25 -14 -42.5t-36.5 -32t-46 -32t-46 -51.5t-33.5 -81q-19 -84 -70 -437.5t-51 -389.5q0 -64 29 -83
t121 -19q130 0 204.5 42t131.5 150q28 50 47 70.5t42 20.5q41 0 41 -63q0 -24 -7.5 -64t-26 -119t-30.5 -139q-10 -47 -33 -64.5t-75 -17.5q-32 0 -170 2.5t-228 2.5q-73 0 -226.5 -2.5t-224.5 -2.5t-71 49q0 21 10.5 37t27 28t34.5 26t36 40t28 61zM1296 750
q0 -84 -57.5 -136.5t-136.5 -52.5q-64 0 -107.5 39t-43.5 110q0 86 60 139.5t135 53.5q63 0 106.5 -40.5t43.5 -112.5z" />
    <glyph glyph-name="ldot" unicode="&#x140;" horiz-adv-x="998" 
d="M775 1505q58 0 58 -54q0 -64 -53 -303.5t-106 -494.5t-53 -356q0 -50 15.5 -74t39.5 -24q23 0 47.5 28.5t36.5 28.5q21 0 21 -38q0 -36 -15.5 -76t-44.5 -76t-78 -59.5t-107 -23.5q-96 0 -155 67.5t-59 183.5q0 106 42 317t84 399t42 240q0 71 -49 91q-14 9 -18.5 12
t-11.5 13t-7 21q0 37 29.5 60.5t103.5 54.5q68 28 136.5 45.5t101.5 17.5zM1189 554q0 -84 -58 -136t-137 -52q-64 0 -107 38.5t-43 109.5q0 86 59.5 140t134.5 54q63 0 107 -41t44 -113z" />
    <glyph glyph-name="Lslash" unicode="&#x141;" horiz-adv-x="1170" 
d="M296 236q19 76 48 265l-52 -25q-53 -23 -75 -23q-19 0 -28.5 26.5t-9.5 65.5q0 43 19 65.5t55 39.5l123 59q51 342 51 416q0 45 -12.5 78.5t-27 48.5t-27 34.5t-12.5 40.5q0 71 81 71q30 0 99.5 -2.5t103.5 -2.5q36 0 123 2.5t115 2.5q63 0 63 -51q0 -25 -14 -42.5
t-36.5 -32t-46 -32t-46 -51.5t-33.5 -81q-17 -79 -42 -249l136 65q45 20 65 20t29.5 -27.5t9.5 -63.5q0 -78 -78 -113l-193 -92q-48 -318 -48 -367q0 -64 29 -83t121 -19q76 0 131 15t94.5 47t66 69.5t54.5 96.5q26 49 46 70t43 21q41 0 41 -62q0 -24 -10.5 -74
t-30.5 -136.5t-33 -148.5q-10 -47 -33 -64.5t-75 -17.5q-32 0 -170 2.5t-228 2.5q-73 0 -226.5 -2.5t-224.5 -2.5t-71 49q0 21 10.5 37t27 28t34.5 26t36 40t28 61z" />
    <glyph glyph-name="lslash" unicode="&#x142;" horiz-adv-x="609" 
d="M681 1505q57 0 57 -54q0 -17 -3 -43.5t-10 -65.5t-14 -74t-19 -92l-20 -95t-23.5 -106.5t-23.5 -105.5l112 54q46 21 63 21q34 0 34 -62q0 -59 -67 -91l-177 -84q-64 -300 -64 -410q0 -50 16 -74t40 -24q23 0 47.5 28.5t36.5 28.5q21 0 21 -38q0 -36 -16 -76t-45 -76
t-78 -59.5t-107 -23.5q-96 0 -155 67.5t-59 183.5q0 111 45 334l-44 -20q-54 -24 -69 -24q-17 0 -25.5 18.5t-8.5 44.5q0 33 15.5 51.5t47.5 33.5l117 56q10 44 26 116.5t25.5 115.5t19.5 93.5t15 83.5t5 53q0 71 -49 91q-14 9 -18.5 12t-11.5 13t-7 21q0 37 29.5 60.5
t102.5 54.5q68 28 137 45.5t102 17.5z" />
    <glyph glyph-name="Nacute" unicode="&#x143;" horiz-adv-x="1412" 
d="M881 1584q69 56 149 148q44 52 84.5 81t90.5 29q52 0 82 -29t30 -72q0 -54 -37 -94t-99 -75q-71 -40 -156.5 -68t-137.5 -28q-58 0 -58 36q0 18 10 31.5t42 40.5zM430 1398q17 0 67 -2.5t77 -2.5q80 0 114 -19q22 -11 40.5 -35t62.5 -93l343 -604q47 -73 62 -73q8 0 11 7
t8 30q7 35 32 223t25 237q0 58 -10.5 99.5t-25.5 62t-30 35t-25.5 30t-10.5 35.5q0 70 81 70q27 0 85 -2.5t76 -2.5q23 0 75 2.5t74 2.5q60 0 60 -50q0 -25 -10 -42t-25.5 -29.5t-32.5 -28t-34.5 -47.5t-27.5 -77q-22 -107 -53 -342q-41 -300 -56 -464.5t-21 -203.5
q-7 -54 -53 -92t-102 -38q-19 0 -42.5 16.5t-42.5 45.5l-469 824q-23 38 -34 38q-15 0 -25 -40q-8 -30 -37.5 -252.5t-29.5 -268.5q0 -64 10.5 -109.5t26 -68t30.5 -38.5t25.5 -31t10.5 -35q0 -31 -20 -50.5t-61 -19.5q-31 0 -87.5 2.5t-73.5 2.5q-22 0 -79 -2.5t-86 -2.5
q-60 0 -60 49q0 25 11 41.5t29 29.5t37 28.5t38 46.5t29 76q24 113 71 459q51 357 51 398q0 46 -12 79.5t-27 49t-27 35t-12 40.5q0 32 19.5 51.5t60.5 19.5z" />
    <glyph glyph-name="nacute" unicode="&#x144;" horiz-adv-x="1208" 
d="M841 1243q16 25 89 172q3 6 13.5 26.5t15.5 29t15.5 25.5t20 25t22.5 17.5t29 13.5t35 4q41 0 66 -26t25 -63q0 -75 -78 -160q-54 -59 -129 -107.5t-117 -48.5q-38 0 -38 32q0 3 0.5 6t1.5 5.5t4 7.5t5.5 9t8.5 13.5t11 18.5zM613 1057q55 0 55 -55q0 -51 -28.5 -166.5
t-28.5 -126.5q0 -15 7 -15q4 0 22.5 27t44 68t66.5 88t87.5 88t110 68t129.5 27q102 0 164 -64.5t62 -192.5q0 -72 -31 -179t-62.5 -206t-31.5 -151q0 -68 44 -68q21 0 45 28.5t37 28.5q22 0 22 -38q0 -81 -77.5 -158t-193.5 -77q-90 0 -143.5 53t-53.5 154q0 72 30.5 175
t60.5 196.5t30 141.5q0 111 -79 111q-59 0 -125.5 -76t-116.5 -189.5t-68 -225.5q-16 -98 -16 -175q0 -83 -46 -115q-26 -19 -95.5 -31t-144.5 -12q-40 0 -55 15.5t-15 41.5q0 16 9.5 49t25.5 89t27 107q76 368 76 451q0 71 -46 90q-38 20 -38 48q0 32 35.5 59.5t113.5 58.5
q140 58 191 58z" />
    <glyph glyph-name="uni0145" unicode="&#x145;" horiz-adv-x="1412" 
d="M430 1398q17 0 67 -2.5t77 -2.5q80 0 114 -19q22 -11 40.5 -35t62.5 -93l343 -604q47 -73 62 -73q8 0 11 7t8 30q7 35 32 223t25 237q0 58 -10.5 99.5t-25.5 62t-30 35t-25.5 30t-10.5 35.5q0 70 81 70q27 0 85 -2.5t76 -2.5q23 0 75 2.5t74 2.5q60 0 60 -50
q0 -25 -10 -42t-25.5 -29.5t-32.5 -28t-34.5 -47.5t-27.5 -77q-22 -107 -53 -342q-41 -300 -56 -464.5t-21 -203.5q-7 -54 -53 -92t-102 -38q-19 0 -42.5 16.5t-42.5 45.5l-469 824q-23 38 -34 38q-15 0 -25 -40q-8 -30 -37.5 -252.5t-29.5 -268.5q0 -64 10.5 -109.5t26 -68
t30.5 -38.5t25.5 -31t10.5 -35q0 -31 -20 -50.5t-61 -19.5q-31 0 -87.5 2.5t-73.5 2.5q-22 0 -79 -2.5t-86 -2.5q-60 0 -60 49q0 25 11 41.5t29 29.5t37 28.5t38 46.5t29 76q24 113 71 459q51 357 51 398q0 46 -12 79.5t-27 49t-27 35t-12 40.5q0 32 19.5 51.5t60.5 19.5z
M674 -500q-13 0 -20.5 8t-7.5 19q0 14 16 34.5t32.5 46.5t16.5 55q0 10 -13.5 27t-27 42.5t-13.5 55.5q0 60 42 96t98 36q55 0 86 -33t31 -91q0 -67 -42.5 -138t-98.5 -114.5t-99 -43.5z" />
    <glyph glyph-name="uni0146" unicode="&#x146;" horiz-adv-x="1208" 
d="M613 1057q55 0 55 -55q0 -51 -28.5 -166.5t-28.5 -126.5q0 -15 7 -15q4 0 22.5 27t44 68t66.5 88t87.5 88t110 68t129.5 27q102 0 164 -64.5t62 -192.5q0 -72 -31 -179t-62.5 -206t-31.5 -151q0 -68 44 -68q21 0 45 28.5t37 28.5q22 0 22 -38q0 -81 -77.5 -158
t-193.5 -77q-90 0 -143.5 53t-53.5 154q0 72 30.5 175t60.5 196.5t30 141.5q0 111 -79 111q-59 0 -125.5 -76t-116.5 -189.5t-68 -225.5q-16 -98 -16 -175q0 -83 -46 -115q-26 -19 -95.5 -31t-144.5 -12q-40 0 -55 15.5t-15 41.5q0 16 9.5 49t25.5 89t27 107q76 368 76 451
q0 71 -46 90q-38 20 -38 48q0 32 35.5 59.5t113.5 58.5q140 58 191 58zM564 -500q-13 0 -20 8t-7 19q0 14 16 34.5t32 46.5t16 55q0 10 -13.5 27t-26.5 42.5t-13 55.5q0 61 41.5 96.5t97.5 35.5q55 0 86.5 -33t31.5 -91q0 -50 -26 -105t-63 -96t-78.5 -68t-73.5 -27z" />
    <glyph glyph-name="Ncaron" unicode="&#x147;" horiz-adv-x="1412" 
d="M754 1842q75 0 195 -75q49 -30 61 -30q14 0 63 29q47 30 104.5 53t93.5 23q19 0 31.5 -9.5t12.5 -26.5q0 -3 -0.5 -6t-1.5 -6t-2 -5.5t-4 -6t-4 -5.5t-5 -6.5t-6 -6.5t-7 -7.5t-7 -7.5q-61 -61 -160 -183q-39 -47 -66.5 -68.5t-65.5 -21.5q-36 0 -59.5 21t-56.5 69
q-64 95 -137 181q-26 34 -26 54q0 19 13.5 30t33.5 11zM430 1398q17 0 67 -2.5t77 -2.5q80 0 114 -19q22 -11 40.5 -35t62.5 -93l343 -604q47 -73 62 -73q8 0 11 7t8 30q7 35 32 223t25 237q0 58 -10.5 99.5t-25.5 62t-30 35t-25.5 30t-10.5 35.5q0 70 81 70q27 0 85 -2.5
t76 -2.5q23 0 75 2.5t74 2.5q60 0 60 -50q0 -25 -10 -42t-25.5 -29.5t-32.5 -28t-34.5 -47.5t-27.5 -77q-22 -107 -53 -342q-41 -300 -56 -464.5t-21 -203.5q-7 -54 -53 -92t-102 -38q-19 0 -42.5 16.5t-42.5 45.5l-469 824q-23 38 -34 38q-15 0 -25 -40
q-8 -30 -37.5 -252.5t-29.5 -268.5q0 -64 10.5 -109.5t26 -68t30.5 -38.5t25.5 -31t10.5 -35q0 -31 -20 -50.5t-61 -19.5q-31 0 -87.5 2.5t-73.5 2.5q-22 0 -79 -2.5t-86 -2.5q-60 0 -60 49q0 25 11 41.5t29 29.5t37 28.5t38 46.5t29 76q24 113 71 459q51 357 51 398
q0 46 -12 79.5t-27 49t-27 35t-12 40.5q0 32 19.5 51.5t60.5 19.5z" />
    <glyph glyph-name="ncaron" unicode="&#x148;" horiz-adv-x="1208" 
d="M712 1540q55 0 142 -102q8 -9 18 -22.5t16 -19.5t11 -6t12.5 6.5t21 20t22.5 21.5q117 102 175 102q13 0 22 -7.5t9 -20.5q0 -19 -34 -58q-56 -67 -148 -210q-19 -28 -25.5 -37t-22 -27t-31 -24t-34.5 -6q-34 0 -53 24t-34 70q-33 107 -90 210q-18 33 -18 49
q0 17 11.5 27t29.5 10zM613 1057q55 0 55 -55q0 -51 -28.5 -166.5t-28.5 -126.5q0 -15 7 -15q4 0 22.5 27t44 68t66.5 88t87.5 88t110 68t129.5 27q102 0 164 -64.5t62 -192.5q0 -72 -31 -179t-62.5 -206t-31.5 -151q0 -68 44 -68q21 0 45 28.5t37 28.5q22 0 22 -38
q0 -81 -77.5 -158t-193.5 -77q-90 0 -143.5 53t-53.5 154q0 72 30.5 175t60.5 196.5t30 141.5q0 111 -79 111q-59 0 -125.5 -76t-116.5 -189.5t-68 -225.5q-16 -98 -16 -175q0 -83 -46 -115q-26 -19 -95.5 -31t-144.5 -12q-40 0 -55 15.5t-15 41.5q0 16 9.5 49t25.5 89
t27 107q76 368 76 451q0 71 -46 90q-38 20 -38 48q0 32 35.5 59.5t113.5 58.5q140 58 191 58z" />
    <glyph glyph-name="Omacron" unicode="&#x14c;" horiz-adv-x="1421" 
d="M1289 1526h-537q-55 0 -55 53q0 57 22 107q12 29 32.5 39.5t62.5 10.5h543q31 0 42 -13.5t11 -38.5q0 -58 -22 -107q-12 -29 -34.5 -40t-64.5 -11zM274 568q0 181 58 340t158 272.5t240.5 179t298.5 65.5q121 0 226.5 -42t185.5 -120t126 -199.5t46 -271.5
q0 -197 -60.5 -356t-163.5 -260t-236.5 -155t-284.5 -54q-276 0 -435 165t-159 436zM1017 1247q-63 0 -127 -58t-113.5 -153t-80.5 -226.5t-31 -268.5q0 -174 58.5 -275.5t169.5 -101.5q90 0 169.5 89t128 245.5t48.5 340.5t-55.5 296t-166.5 112z" />
    <glyph glyph-name="omacron" unicode="&#x14d;" horiz-adv-x="1082" 
d="M1011 1214h-448q-48 0 -48 44q0 49 28 110q13 26 33.5 36.5t59.5 10.5h454q46 0 46 -42q0 -54 -28 -110q-14 -26 -36 -37.5t-61 -11.5zM796 1060q182 0 306.5 -122t124.5 -331q0 -149 -46.5 -270t-126 -198t-181.5 -118t-217 -41q-194 0 -313.5 121t-119.5 314
q0 135 47 256t125 205.5t183 134t218 49.5zM780 899q-60 0 -116 -66t-91 -180.5t-35 -244.5q0 -117 41 -178.5t108 -61.5q100 0 167.5 130t67.5 327q0 127 -40.5 200.5t-101.5 73.5z" />
    <glyph glyph-name="Obreve" unicode="&#x14e;" horiz-adv-x="1421" 
d="M1050 1479q-73 0 -129 22.5t-87 60t-46.5 81.5t-15.5 93q0 92 44 92q5 0 8.5 -1t7 -3.5t5.5 -4.5t5 -7.5t4.5 -8t5 -10t5.5 -10.5q34 -50 81.5 -80t126.5 -30q137 0 218 110q11 17 16.5 24t15 14t20.5 7q31 0 31 -63q0 -51 -17.5 -100t-53.5 -91.5t-99.5 -68.5
t-145.5 -26zM274 568q0 181 58 340t158 272.5t240.5 179t298.5 65.5q121 0 226.5 -42t185.5 -120t126 -199.5t46 -271.5q0 -197 -60.5 -356t-163.5 -260t-236.5 -155t-284.5 -54q-276 0 -435 165t-159 436zM1017 1247q-63 0 -127 -58t-113.5 -153t-80.5 -226.5t-31 -268.5
q0 -174 58.5 -275.5t169.5 -101.5q90 0 169.5 89t128 245.5t48.5 340.5t-55.5 296t-166.5 112z" />
    <glyph glyph-name="obreve" unicode="&#x14f;" horiz-adv-x="1082" 
d="M805 1158q-60 0 -106.5 22.5t-73 60t-40 81.5t-13.5 91q0 45 11 72t32 27q9 0 15.5 -7.5t9.5 -14.5t10 -26q27 -51 66 -81.5t104 -30.5q117 0 193 112q9 16 11.5 20t9.5 13.5t12.5 12t12.5 2.5q26 0 26 -61q0 -48 -17 -97.5t-49.5 -94t-88.5 -73t-125 -28.5zM796 1060
q182 0 306.5 -122t124.5 -331q0 -149 -46.5 -270t-126 -198t-181.5 -118t-217 -41q-194 0 -313.5 121t-119.5 314q0 135 47 256t125 205.5t183 134t218 49.5zM780 899q-60 0 -116 -66t-91 -180.5t-35 -244.5q0 -117 41 -178.5t108 -61.5q100 0 167.5 130t67.5 327
q0 127 -40.5 200.5t-101.5 73.5z" />
    <glyph glyph-name="Ohungarumlaut" unicode="&#x150;" horiz-adv-x="1421" 
d="M783 1579q60 60 121 148q36 57 72.5 89t87.5 32t78 -29t27 -74q0 -46 -29 -82.5t-79 -73.5q-63 -46 -141.5 -79.5t-125.5 -33.5q-21 0 -36 9t-15 25t7.5 28.5t32.5 40.5zM1135 1576q73 73 130 151q38 56 76 88.5t90 32.5q49 0 76 -28.5t27 -71.5q0 -47 -30 -85t-84 -76
q-64 -45 -145.5 -78t-131.5 -33t-50 35q0 13 7.5 24.5t34.5 40.5zM274 568q0 181 58 340t158 272.5t240.5 179t298.5 65.5q121 0 226.5 -42t185.5 -120t126 -199.5t46 -271.5q0 -197 -60.5 -356t-163.5 -260t-236.5 -155t-284.5 -54q-276 0 -435 165t-159 436zM1017 1247
q-63 0 -127 -58t-113.5 -153t-80.5 -226.5t-31 -268.5q0 -174 58.5 -275.5t169.5 -101.5q90 0 169.5 89t128 245.5t48.5 340.5t-55.5 296t-166.5 112z" />
    <glyph glyph-name="ohungarumlaut" unicode="&#x151;" horiz-adv-x="1082" 
d="M638 1248q40 75 76 166q10 27 16 41.5t19 37.5t25.5 34.5t32.5 21t44 9.5q44 0 67 -27t23 -67q0 -69 -67 -148q-48 -60 -119.5 -112.5t-107.5 -52.5q-17 0 -26.5 9t-9.5 21q0 5 0.5 9t1.5 7.5t4 9.5l5 10l7 14t9 17zM929 1243q34 55 92 171q18 34 28 50.5t30.5 42
t45 37.5t53.5 12q41 0 62.5 -25.5t21.5 -63.5q0 -69 -78 -154q-55 -60 -130.5 -111t-116.5 -51q-37 0 -37 32q0 12 29 60zM796 1060q182 0 306.5 -122t124.5 -331q0 -149 -46.5 -270t-126 -198t-181.5 -118t-217 -41q-194 0 -313.5 121t-119.5 314q0 135 47 256t125 205.5
t183 134t218 49.5zM780 899q-60 0 -116 -66t-91 -180.5t-35 -244.5q0 -117 41 -178.5t108 -61.5q100 0 167.5 130t67.5 327q0 127 -40.5 200.5t-101.5 73.5z" />
    <glyph glyph-name="OE" unicode="&#x152;" horiz-adv-x="1866" 
d="M1575 1393q107 0 226.5 2.5t143.5 2.5q56 0 75.5 -20t20.5 -87q0 -29 3.5 -118t3.5 -140q0 -94 -66 -94q-14 0 -25 6.5t-19.5 23t-12 25t-12.5 32.5q-15 44 -26.5 70.5t-28 51t-35 37.5t-47.5 23t-65 13t-88 3q-83 0 -113 -14t-39 -50q-10 -31 -25.5 -131t-15.5 -144
q0 -29 7 -40.5t31 -11.5q30 0 54.5 2.5t44.5 11t32 13.5t26.5 20.5t19 20.5t19.5 26.5t18 25.5q25 30 50 30q18 0 28 -11t12.5 -24t2.5 -35q0 -6 -48 -351q-6 -42 -20 -63t-41 -21q-19 0 -31.5 12t-17 22.5t-10.5 31.5q-10 34 -17 49.5t-23.5 32t-43.5 22t-72 5.5
q-25 0 -38 -11t-21 -37q-11 -44 -30 -168.5t-19 -153.5q0 -64 30.5 -84t124.5 -20q103 0 169.5 23.5t110 68.5t93.5 132q46 72 82 72q40 0 40 -60q0 -25 -15 -83t-37 -137t-32 -123q-10 -46 -31.5 -61.5t-75.5 -15.5q-27 0 -163.5 2.5t-220.5 2.5q-52 0 -268 -4t-266 -4
q-100 0 -189 20.5t-168 66t-136 112.5t-90 166t-33 220q0 235 96.5 423.5t269 294.5t387.5 106q56 0 276 -4t278 -4zM1022 285q20 96 67 438.5t47 402.5q0 50 -24 71t-77 21q-112 0 -204.5 -95.5t-141.5 -243.5t-49 -311q0 -190 69 -295t212 -105q43 0 67 29.5t34 87.5z" />
    <glyph glyph-name="oe" unicode="&#x153;" horiz-adv-x="1662" 
d="M1828 802q0 -60 -26.5 -112t-72.5 -89.5t-101 -66.5t-120.5 -48.5t-121.5 -31.5t-113 -19q-16 -2 -22 -9.5t-6 -28.5q0 -28 10.5 -57.5t31.5 -58t61 -46.5t92 -18q54 0 103.5 18.5t83.5 44.5t61.5 52.5t48 45t32.5 18.5q24 0 24 -41t-20 -90.5t-61.5 -100t-97.5 -92.5
t-136.5 -68.5t-169.5 -26.5q-90 0 -162.5 36.5t-111.5 91.5q-20 26 -35 26q-13 0 -41 -26q-130 -125 -310 -125q-133 0 -231.5 62t-146 160t-47.5 216q0 135 46 255.5t122.5 204.5t179.5 133t215 49q93 0 170.5 -38.5t129.5 -105.5q23 -25 33 -25t41 27q159 142 348 142
q154 0 237 -74.5t83 -183.5zM1560 788q0 51 -28.5 83t-79.5 32q-90 0 -159 -95.5t-69 -197.5q0 -25 5.5 -35.5t23.5 -10.5q35 0 84.5 14t100.5 40t86.5 71t35.5 99zM772 899q-62 0 -117.5 -76t-86 -188t-30.5 -224q0 -126 44 -184.5t104 -58.5q97 0 162 128.5t65 324.5
q0 128 -40 203t-101 75z" />
    <glyph glyph-name="Racute" unicode="&#x154;" horiz-adv-x="1378" 
d="M807 1584q69 56 149 148q44 52 85 81t91 29q52 0 81.5 -29t29.5 -72q0 -54 -37 -94t-99 -75q-71 -40 -156.5 -68t-137.5 -28q-57 0 -57 36q0 18 9.5 31.5t41.5 40.5zM1071 658q54 -21 95.5 -69.5t64.5 -102t43 -103.5t43.5 -83t53.5 -33q19 0 36.5 12t27.5 27t23 27
t25 12q13 0 22 -16.5t9 -42.5q0 -45 -18 -96.5t-53 -100t-95.5 -80.5t-134.5 -32q-67 0 -119.5 31.5t-83.5 80t-58 111.5t-43 120.5t-36.5 114t-41.5 84.5q-14 21 -38.5 35.5t-51.5 14.5q-45 0 -63 -34q-11 -20 -25 -113t-14 -128q0 -58 12.5 -90.5t43.5 -61.5
q8 -9 21.5 -21.5t20.5 -19.5t13 -18.5t6 -24.5q0 -31 -23.5 -47t-62.5 -16q-29 0 -114.5 2.5t-119.5 2.5q-37 0 -110.5 -2.5t-94.5 -2.5q-71 0 -71 49q0 21 10.5 37t27 28t34 26t36 40t28.5 61q24 94 77.5 455t53.5 434q0 45 -12.5 78.5t-27 48.5t-27 34.5t-12.5 40.5
q0 71 81 71q24 0 102 -2.5t125 -2.5q51 0 164 4t175 4q203 0 319 -75t116 -232q0 -57 -18 -111t-57 -109t-110 -102.5t-169 -81.5q-14 -6 -14 -16q0 -12 9 -16zM1061 1032q0 95 -50.5 140.5t-132.5 45.5q-67 0 -86.5 -11.5t-29.5 -50.5q-13 -51 -31 -176.5t-18 -159.5
q0 -32 21.5 -46.5t85.5 -14.5q105 0 173 76t68 197z" />
    <glyph glyph-name="racute" unicode="&#x155;" horiz-adv-x="964" 
d="M709 1243q16 25 89 172q3 6 13.5 26.5t15.5 29t15.5 25.5t20 25t22.5 17.5t29 13.5t35 4q41 0 66 -26t25 -63q0 -75 -78 -160q-54 -59 -129 -107.5t-117 -48.5q-38 0 -38 32q0 3 0.5 6t1.5 5.5t4 7.5t5.5 9t8.5 13.5t11 18.5zM613 1057q55 0 55 -55q0 -56 -29.5 -170
t-29.5 -126t5 -12q6 0 22.5 27.5t38.5 68t57 88.5t74.5 88.5t95.5 68t115 27.5q58 0 101 -43t43 -128q0 -103 -65 -188t-143 -85q-38 0 -50 24t-15 83q-1 69 -39 69q-32 0 -85 -65t-103.5 -178t-69.5 -228q-16 -98 -16 -175q0 -83 -46 -115q-26 -19 -95.5 -31t-144.5 -12
q-40 0 -55 15.5t-15 41.5q0 16 9.5 49t25.5 89t27 107q76 368 76 451q0 71 -46 90q-38 20 -38 48q0 32 34.5 58.5t113.5 59.5q139 58 192 58z" />
    <glyph glyph-name="uni0156" unicode="&#x156;" horiz-adv-x="1378" 
d="M1071 658q54 -21 95.5 -69.5t64.5 -102t43 -103.5t43.5 -83t53.5 -33q19 0 36.5 12t27.5 27t23 27t25 12q13 0 22 -16.5t9 -42.5q0 -45 -18 -96.5t-53 -100t-95.5 -80.5t-134.5 -32q-67 0 -119.5 31.5t-83.5 80t-58 111.5t-43 120.5t-36.5 114t-41.5 84.5
q-14 21 -38.5 35.5t-51.5 14.5q-45 0 -63 -34q-11 -20 -25 -113t-14 -128q0 -58 12.5 -90.5t43.5 -61.5q8 -9 21.5 -21.5t20.5 -19.5t13 -18.5t6 -24.5q0 -31 -23.5 -47t-62.5 -16q-29 0 -114.5 2.5t-119.5 2.5q-37 0 -110.5 -2.5t-94.5 -2.5q-71 0 -71 49q0 21 10.5 37
t27 28t34 26t36 40t28.5 61q24 94 77.5 455t53.5 434q0 45 -12.5 78.5t-27 48.5t-27 34.5t-12.5 40.5q0 71 81 71q24 0 102 -2.5t125 -2.5q51 0 164 4t175 4q203 0 319 -75t116 -232q0 -57 -18 -111t-57 -109t-110 -102.5t-169 -81.5q-14 -6 -14 -16q0 -12 9 -16zM1061 1032
q0 95 -50.5 140.5t-132.5 45.5q-67 0 -86.5 -11.5t-29.5 -50.5q-13 -51 -31 -176.5t-18 -159.5q0 -32 21.5 -46.5t85.5 -14.5q105 0 173 76t68 197zM709 -500q-13 0 -20.5 8t-7.5 19q0 14 16 34.5t32 46.5t16 55q0 10 -13.5 27t-26.5 42.5t-13 55.5q0 61 41.5 96.5
t97.5 35.5q55 0 86.5 -33t31.5 -91q0 -67 -42.5 -138t-98.5 -114.5t-99 -43.5z" />
    <glyph glyph-name="uni0157" unicode="&#x157;" horiz-adv-x="964" 
d="M610 1057q55 0 55 -55q0 -56 -29.5 -170t-29.5 -126t5 -12q6 0 22.5 27.5t38.5 68t57 88.5t74.5 88.5t95.5 68t115 27.5q58 0 101 -43t43 -128q0 -103 -65 -188t-143 -85q-38 0 -50 24t-15 83q-1 69 -39 69q-32 0 -85 -65t-103.5 -178t-69.5 -228q-16 -98 -16 -175
q0 -83 -46 -115q-26 -19 -95.5 -31t-144.5 -12q-40 0 -55 15.5t-15 41.5q0 16 9.5 49t25.5 89t27 107q76 368 76 451q0 71 -46 90q-38 20 -38 48q0 32 34.5 58.5t113.5 59.5q139 58 192 58zM241 -500q-13 0 -20.5 8t-7.5 19q0 14 16.5 34.5t32.5 46.5t16 55q0 10 -13.5 27
t-27 42.5t-13.5 55.5q0 60 42 96t98 36q55 0 86 -33t31 -91q0 -67 -42.5 -138t-98.5 -114.5t-99 -43.5z" />
    <glyph glyph-name="Rcaron" unicode="&#x158;" horiz-adv-x="1378" 
d="M662 1842q75 0 195 -75q49 -30 61 -30q14 0 63 29q47 30 104.5 53t93.5 23q19 0 31.5 -9.5t12.5 -26.5q0 -3 -0.5 -6t-1.5 -6t-2 -5.5t-4 -6t-4 -5.5t-5 -6.5t-6 -6.5t-7 -7.5t-7 -7.5q-61 -61 -160 -183q-39 -47 -66.5 -68.5t-65.5 -21.5q-36 0 -59.5 21t-56.5 69
q-64 95 -137 181q-27 35 -27 54t14 30t34 11zM1071 658q54 -21 95.5 -69.5t64.5 -102t43 -103.5t43.5 -83t53.5 -33q19 0 36.5 12t27.5 27t23 27t25 12q13 0 22 -16.5t9 -42.5q0 -45 -18 -96.5t-53 -100t-95.5 -80.5t-134.5 -32q-67 0 -119.5 31.5t-83.5 80t-58 111.5
t-43 120.5t-36.5 114t-41.5 84.5q-14 21 -38.5 35.5t-51.5 14.5q-45 0 -63 -34q-11 -20 -25 -113t-14 -128q0 -58 12.5 -90.5t43.5 -61.5q8 -9 21.5 -21.5t20.5 -19.5t13 -18.5t6 -24.5q0 -31 -23.5 -47t-62.5 -16q-29 0 -114.5 2.5t-119.5 2.5q-37 0 -110.5 -2.5
t-94.5 -2.5q-71 0 -71 49q0 21 10.5 37t27 28t34 26t36 40t28.5 61q24 94 77.5 455t53.5 434q0 45 -12.5 78.5t-27 48.5t-27 34.5t-12.5 40.5q0 71 81 71q24 0 102 -2.5t125 -2.5q51 0 164 4t175 4q203 0 319 -75t116 -232q0 -57 -18 -111t-57 -109t-110 -102.5t-169 -81.5
q-14 -6 -14 -16q0 -12 9 -16zM1061 1032q0 95 -50.5 140.5t-132.5 45.5q-67 0 -86.5 -11.5t-29.5 -50.5q-13 -51 -31 -176.5t-18 -159.5q0 -32 21.5 -46.5t85.5 -14.5q105 0 173 76t68 197z" />
    <glyph glyph-name="rcaron" unicode="&#x159;" horiz-adv-x="964" 
d="M587 1540q55 0 142 -102q8 -9 18 -22.5t16 -19.5t11 -6t12.5 6.5t21 20t22.5 21.5q117 102 176 102q30 0 30 -28q0 -19 -34 -58q-56 -67 -148 -210q-19 -28 -25.5 -37t-22 -27t-31 -24t-34.5 -6q-34 0 -53 24t-34 70q-33 107 -90 210q-18 33 -18 49q0 17 11.5 27t29.5 10
zM613 1057q55 0 55 -55q0 -56 -29.5 -170t-29.5 -126t5 -12q6 0 22.5 27.5t38.5 68t57 88.5t74.5 88.5t95.5 68t115 27.5q58 0 101 -43t43 -128q0 -103 -65 -188t-143 -85q-38 0 -50 24t-15 83q-1 69 -39 69q-32 0 -85 -65t-103.5 -178t-69.5 -228q-16 -98 -16 -175
q0 -83 -46 -115q-26 -19 -95.5 -31t-144.5 -12q-40 0 -55 15.5t-15 41.5q0 16 9.5 49t25.5 89t27 107q76 368 76 451q0 71 -46 90q-38 20 -38 48q0 32 34.5 58.5t113.5 59.5q139 58 192 58z" />
    <glyph glyph-name="Sacute" unicode="&#x15a;" horiz-adv-x="1187" 
d="M766 1584q69 56 149 148q44 52 85 81t91 29q52 0 81.5 -29t29.5 -72q0 -54 -37 -94t-99 -75q-71 -40 -156.5 -68t-137.5 -28q-57 0 -57 36q0 18 9.5 31.5t41.5 40.5zM857 1256q-86 0 -144 -45.5t-58 -113.5q0 -44 27.5 -83t72 -69t101.5 -63t117 -63t117 -71t101.5 -85
t72 -107t27.5 -136q0 -139 -82 -243.5t-216.5 -157.5t-299.5 -53q-157 0 -288.5 53.5t-187.5 147.5q-43 69 -43 154q0 89 29 151.5t70 62.5q12 0 22 -5t20 -19t14.5 -22t15.5 -30.5t14 -28.5q57 -124 150 -196t212 -72q97 0 153 49.5t56 118.5q0 52 -33 97t-85.5 80
t-116 69.5t-127 74.5t-116 86.5t-85.5 114.5t-33 149q0 129 75 227.5t191 147.5t249 49q88 0 185.5 -23.5t117.5 -23.5q22 0 50.5 11t48.5 11q17 0 29 -4.5t19 -14.5t11.5 -21t6.5 -31t3 -36t2 -45t2 -49q3 -46 7 -88.5t6.5 -66.5t2.5 -35q0 -34 -18.5 -54.5t-46.5 -20.5
q-18 0 -33 11.5t-23.5 24.5t-25 41.5t-27.5 45.5q-61 98 -143 148.5t-166 50.5z" />
    </font>
</defs>
</svg>
