<?xml version="1.0" standalone="no"?>
<!DOCTYPE svg PUBLIC "-//W3C//DTD SVG 1.1//EN" "http://www.w3.org/Graphics/SVG/1.1/DTD/svg11.dtd" >
<svg xmlns="http://www.w3.org/2000/svg" xmlns:xlink="http://www.w3.org/1999/xlink" version="1.1">
<metadata>
Created by FontForge 20201107 at Wed Mar 18 07:27:51 2026
 By www-data
Copyright (c) 2020, 2022, The Type Founders, LLC. All rights reserved.
</metadata>
<defs>
<font id="Gelica-Bold" horiz-adv-x="1282" >
  <font-face 
    font-family="Gelica Bold"
    font-weight="700"
    font-stretch="normal"
    units-per-em="2048"
    panose-1="0 0 0 0 0 0 0 0 0 0"
    ascent="1638"
    descent="-410"
    x-height="1051"
    cap-height="1399"
    bbox="-795 -503 2277 1891"
    underline-thickness="133"
    underline-position="-195"
    unicode-range="U+000D-F6C3"
  />
<missing-glyph horiz-adv-x="921" 
d="M922 1288v-1618q0 -59 -26 -81.5t-83 -22.5h-684q-57 0 -83 22.5t-26 81.5v1618q0 59 26 82t83 23h684q57 0 83 -23t26 -82zM471 584l307 522h-614zM524 492l307 -523v1045zM111 1014v-1045l307 523zM164 -123h614l-307 522z" />
    <glyph glyph-name=".notdef" horiz-adv-x="921" 
d="M922 1288v-1618q0 -59 -26 -81.5t-83 -22.5h-684q-57 0 -83 22.5t-26 81.5v1618q0 59 26 82t83 23h684q57 0 83 -23t26 -82zM471 584l307 522h-614zM524 492l307 -523v1045zM111 1014v-1045l307 523zM164 -123h614l-307 522z" />
    <glyph glyph-name=".null" horiz-adv-x="0" 
 />
    <glyph glyph-name="nonmarkingreturn" horiz-adv-x="682" 
 />
    <glyph glyph-name="NULL" horiz-adv-x="0" 
 />
    <glyph glyph-name="NULL" horiz-adv-x="0" 
 />
    <glyph glyph-name="CR" unicode="&#xd;" horiz-adv-x="583" 
 />
    <glyph glyph-name="space" unicode=" " horiz-adv-x="512" 
 />
    <glyph glyph-name="exclam" unicode="!" horiz-adv-x="603" 
d="M600 1227q0 -145 -125 -671q-20 -90 -69 -90q-46 0 -78 86q-37 94 -70.5 318.5t-33.5 337.5q0 108 50 163.5t145 55.5q89 0 135 -50.5t46 -149.5zM603 187q0 -90 -60.5 -144.5t-146.5 -54.5q-77 0 -130 46.5t-53 131.5q0 92 62 149t143 57q76 0 130.5 -49.5t54.5 -135.5z
" />
    <glyph glyph-name="quotedbl" unicode="&#x22;" horiz-adv-x="927" 
d="M390 778q-60 0 -82 87q-21 78 -41.5 212t-20.5 190q0 67 32.5 113.5t111.5 46.5t111.5 -46.5t32.5 -112.5q0 -55 -19.5 -185.5t-43.5 -217.5q-22 -87 -81 -87zM783 778q-35 0 -53 24t-29 63q-21 78 -41.5 212t-20.5 190q0 67 32.5 113.5t111.5 46.5t112 -46.5t33 -112.5
q0 -54 -20 -184.5t-43 -218.5q-24 -87 -82 -87z" />
    <glyph glyph-name="numbersign" unicode="#" horiz-adv-x="1187" 
d="M1070 393h-115q-47 -371 -54 -392q-11 -27 -58 -27q-38 0 -64.5 11.5t-26.5 33.5q0 13 4 41l39 333h-156q-47 -372 -54 -392q-11 -27 -60 -27q-37 0 -63.5 11.5t-26.5 33.5q0 13 4 41l39 333h-144q-27 0 -27 31q0 52 16 106q7 22 16 29t33 7h127l29 238h-144
q-26 0 -26 30q0 64 16 107q5 21 14.5 28t33.5 7h128q50 389 59 416q6 22 64 22q83 0 83 -41q0 -25 -3 -47l-42 -350h155q50 384 60 416q8 22 64 22q83 0 83 -41q0 -17 -4 -47l-42 -350h133q25 0 25 -30q0 -56 -14 -107q-7 -21 -17 -28t-34 -7h-113l-30 -238h132q25 0 25 -30
q0 -56 -14 -107q-7 -22 -16.5 -29t-33.5 -7zM689 804q-9 -81 -29 -238h155l30 238h-156z" />
    <glyph glyph-name="dollar" unicode="$" horiz-adv-x="1187" 
d="M760 1525q0 -10 -5 -115q204 -15 300 -115q30 -33 49.5 -93t19.5 -131q0 -120 -58 -120q-15 0 -27.5 4.5t-26 16t-21 20.5t-25 31t-26.5 33q-90 105 -198 143l-18 -331q55 -16 96 -30t92.5 -35.5t88 -44t74.5 -55.5t61 -69.5t38 -86t15 -105.5q0 -85 -27 -156.5
t-74.5 -123t-113 -89t-141.5 -57t-160 -23.5l-6 -109q-1 -27 -32.5 -48t-73.5 -21q-25 0 -33.5 11t-8.5 39q0 21 6 136q-94 16 -176 60.5t-132.5 97.5t-79 106t-28.5 93q0 32 13 51.5t33 19.5q8 0 16 -3t17 -10.5t15.5 -14t19.5 -20t21 -21.5q125 -127 293 -155q3 62 19 348
q-425 130 -425 422q0 83 31 157t89.5 132t149.5 96.5t204 48.5l8 108q3 23 34.5 44t71.5 21q25 0 33 -15t8 -42zM416 1066q0 -53 38.5 -88t122.5 -65l17 306q-87 -5 -132.5 -47t-45.5 -106zM866 359q0 60 -39.5 92.5t-123.5 59.5q-3 -53 -9 -157.5t-9 -152.5q93 11 137 54
t44 104z" />
    <glyph glyph-name="percent" unicode="%" horiz-adv-x="1536" 
d="M803 1034q0 -164 -95 -270.5t-269 -106.5q-82 0 -147.5 29t-106 78.5t-62 112t-21.5 132.5q0 173 100.5 292.5t263.5 119.5q153 0 245 -110t92 -277zM1309 1320q-20 -36 -426.5 -664t-424.5 -654q-22 -29 -66 -29q-32 0 -52.5 17t-20.5 39q0 14 12 37q9 18 201 316.5
t405 628.5t245 380q15 24 58 24q34 0 56.5 -17.5t22.5 -40.5q0 -21 -10 -37zM567 995q0 137 -30 211q-16 37 -39 57t-44 20q-41 0 -70.5 -55t-29.5 -167q0 -131 36 -193q27 -55 79 -55q98 0 98 182zM1536 362q0 -164 -95 -270t-269 -106q-109 0 -186.5 50t-113.5 128
t-36 173q0 174 100.5 293.5t262.5 119.5q153 0 245 -110.5t92 -277.5zM1300 324q0 137 -30 211q-16 37 -39 56.5t-44 19.5q-41 0 -70.5 -55t-29.5 -167q0 -130 36 -192q27 -56 79 -56q46 0 72 45.5t26 137.5z" />
    <glyph glyph-name="ampersand" unicode="&#x26;" horiz-adv-x="1613" 
d="M1622 268q0 -122 -68.5 -206.5t-171.5 -84.5q-87 0 -211 71q-7 4 -21.5 12.5t-21 12t-15 7t-14.5 3.5t-15.5 -3.5t-17 -7.5t-22 -12t-23.5 -13q-153 -82 -354 -82q-144 0 -257 36.5t-183 99.5t-106.5 143.5t-36.5 173.5q0 134 75.5 242.5t207.5 176.5q45 23 45 40
q0 5 -11.5 32.5t-23 72t-11.5 91.5q0 154 107 253.5t283 99.5q150 0 244.5 -73.5t94.5 -200.5q0 -180 -200 -300q-28 -17 -28 -29q0 -11 13 -28q65 -82 153.5 -167t115.5 -85q13 0 21 28t8 68q0 63 -32 116q-8 14 -38.5 46t-30.5 57q0 20 9 32.5t31.5 19t44 9t61.5 5.5
q11 1 16 1q67 5 119.5 11t76 9.5t36.5 3.5q35 0 55.5 -19t20.5 -51q0 -28 -21.5 -53.5t-60.5 -71t-67 -105.5q-13 -31 -21.5 -57.5t-18 -62t-17.5 -60.5q-13 -42 -13 -61q0 -23 61 -52t108 -29q26 0 53 14t36 14q36 0 36 -87zM697 1118q0 -42 19 -86t40 -44q31 0 78.5 39.5
t47.5 95.5q0 43 -25 71.5t-64 28.5q-42 0 -69 -32t-27 -73zM750 207q44 0 91 14.5t47 31.5q0 9 -15.5 22.5t-65.5 61t-109 114.5q-36 41 -65 77.5t-42.5 56.5t-24 35.5t-15.5 21t-11 5.5q-22 0 -53 -46.5t-31 -110.5q0 -110 82 -196.5t212 -86.5z" />
    <glyph glyph-name="quotesingle" unicode="'" horiz-adv-x="533" 
d="M390 778q-60 0 -82 87q-21 78 -41.5 212t-20.5 190q0 67 32.5 113.5t111.5 46.5t111.5 -46.5t32.5 -112.5q0 -55 -19.5 -185.5t-43.5 -217.5q-22 -87 -81 -87z" />
    <glyph glyph-name="parenleft" unicode="(" horiz-adv-x="825" 
d="M587 587q0 -144 20.5 -283.5t77.5 -284t144 -226.5q9 -8 24.5 -21.5t22.5 -20t15 -16.5t11.5 -19.5t3.5 -20.5q0 -47 -70 -47q-94 0 -205 72.5t-196 191.5q-183 256 -183 658q0 407 185 669q88 124 197 194t202 70q70 0 70 -47q0 -11 -3.5 -20.5t-11.5 -19.5t-15 -16.5
t-22.5 -20t-24.5 -21.5q-84 -79 -140 -211t-79 -271.5t-23 -288.5z" />
    <glyph glyph-name="parenright" unicode=")" horiz-adv-x="825" 
d="M410 564q0 104 -12.5 210.5t-39 217t-76 207.5t-115.5 159q-9 8 -24.5 21.5t-22.5 20t-15 16.5t-11.5 19.5t-3.5 20.5q0 47 71 47q94 0 204.5 -72.5t195.5 -191.5q183 -258 183 -658q0 -407 -185 -669q-88 -125 -196.5 -194.5t-201.5 -69.5q-71 0 -71 47q0 11 3.5 20.5
t11.5 19.5t15 16.5t22.5 20t24.5 21.5q84 79 140.5 211t79.5 271.5t23 288.5z" />
    <glyph glyph-name="asterisk" unicode="*" horiz-adv-x="937" 
d="M823 1288q49 0 85 -37t36 -88q0 -44 -33.5 -78.5t-87.5 -34.5q-24 0 -75 12t-67 12q-14 0 -27 -7.5t-13 -22.5q0 -21 31 -39.5t68 -32.5t68 -45t31 -75q0 -50 -38 -86t-85 -36q-46 0 -73.5 26t-36.5 63t-13.5 74.5t-13.5 63.5t-28 26q-18 0 -27.5 -24.5t-10.5 -60.5
q-5 -74 -36 -121t-93 -47q-46 0 -81.5 36.5t-35.5 86.5q0 37 19.5 64.5t47.5 43.5t55.5 28.5t47 26.5t19.5 31q0 12 -8 19.5t-20 7.5q-20 0 -71 -12t-73 -12q-57 0 -88.5 34t-31.5 79q0 48 34 87t82 39q35 0 67 -21t50.5 -45.5t41.5 -45.5t44 -21q10 0 15.5 11t5.5 24
q0 16 -35.5 77.5t-35.5 99.5q0 53 36 84.5t82 31.5q49 0 84.5 -31t35.5 -85q0 -34 -17.5 -68t-35 -62.5t-17.5 -48.5q0 -32 24 -32q16 0 32 13.5t31.5 32.5t33.5 38.5t44 33t57 13.5z" />
    <glyph glyph-name="plus" unicode="+" horiz-adv-x="1101" 
d="M751 1070v-292h316q35 0 35 -41q0 -69 -20 -134q-8 -27 -21.5 -36.5t-47.5 -9.5h-262v-306q0 -26 -21 -39.5t-81 -13.5q-71 0 -95.5 12t-24.5 47v300h-316q-35 0 -35 41q0 71 20 133q8 28 22 37.5t47 9.5h262v298q0 26 21 39.5t81 13.5q71 0 95.5 -12t24.5 -47z" />
    <glyph glyph-name="comma" unicode="," horiz-adv-x="576" 
d="M267 -337q-21 0 -35.5 12.5t-14.5 29.5q0 15 16 35t34.5 38.5t34.5 48t16 60.5q0 30 -14.5 55.5t-35.5 45.5t-42 42t-35.5 56t-14.5 77q0 92 57 149.5t133 57.5q96 0 155 -60.5t59 -185.5q0 -90 -32 -177.5t-79.5 -148t-102 -98t-99.5 -37.5z" />
    <glyph glyph-name="hyphen" unicode="-" horiz-adv-x="733" 
d="M594 424h-419q-64 0 -64 56q0 75 26 136q14 35 38.5 48.5t71.5 13.5h426q60 0 60 -56q0 -71 -26 -136q-15 -35 -40.5 -48.5t-72.5 -13.5z" />
    <glyph glyph-name="period" unicode="." horiz-adv-x="576" 
d="M573 187q0 -90 -60.5 -144.5t-146.5 -54.5q-77 0 -130.5 46.5t-53.5 131.5q0 92 62.5 149t143.5 57q76 0 130.5 -49.5t54.5 -135.5z" />
    <glyph glyph-name="slash" unicode="/" horiz-adv-x="688" 
d="M680 1341q-12 -39 -251 -680.5t-248 -658.5q-15 -29 -62 -29q-35 0 -60.5 11.5t-25.5 31.5q0 12 6 29q7 27 247 669t256 677q5 13 17 18.5t47 5.5t58.5 -10.5t23.5 -31.5q0 -12 -8 -32z" />
    <glyph glyph-name="zero" unicode="0" 
d="M1282 669q0 -315 -156 -504.5t-444 -189.5q-120 0 -218.5 35.5t-167 98.5t-115.5 149.5t-69 186.5t-22 212q0 213 72.5 386t210.5 275.5t318 102.5q176 0 311.5 -98t207.5 -268.5t72 -385.5zM905 584q0 258 -70 440q-33 82 -78 128t-91 46q-70 0 -122 -112.5t-52 -321.5
q0 -271 57 -405q28 -68 74.5 -103t99.5 -35q85 0 133.5 92.5t48.5 270.5z" />
    <glyph glyph-name="one" unicode="1" horiz-adv-x="876" 
d="M623 1419q74 0 74 -70q0 -33 -10.5 -237t-10.5 -377q0 -357 15 -455q6 -35 28.5 -60t50.5 -39.5t55 -28.5t45 -34.5t18 -49.5q0 -31 -22.5 -52.5t-61.5 -21.5q-40 0 -151 3t-149 3q-40 0 -171.5 -3t-169.5 -3q-40 0 -62.5 21.5t-22.5 52.5q0 28 20.5 48.5t50.5 34t61 28
t55.5 40t30.5 61.5q15 86 15 455q0 150 -8.5 216t-37.5 86q-30 18 -76 18h-33q-36 0 -52.5 17.5t-16.5 41.5q0 32 19 51.5t61 37.5q104 45 213 102t164.5 85.5t78.5 28.5z" />
    <glyph glyph-name="two" unicode="2" horiz-adv-x="1196" 
d="M490 326q0 -20 114 -20q262 0 411 106q8 5 26.5 18.5t26.5 19t21 13.5t22 11t16 3q49 0 49 -73q0 -28 -9.5 -76.5t-24.5 -119.5t-24 -123q-8 -58 -29.5 -74.5t-81.5 -16.5q-22 0 -166.5 3t-272.5 3q-75 0 -251.5 -3t-211.5 -3q-29 0 -48.5 13.5t-19.5 43.5q0 44 65 113
l216 229q149 154 233 284t84 248q0 97 -58 146t-145 49q-136 0 -237 -130q-29 -31 -49 -31q-40 0 -40 76q0 45 18 96.5t57.5 104t94.5 94.5t138 69t180 27q119 0 214.5 -41t155 -127.5t59.5 -206.5q0 -69 -22 -138t-53.5 -123t-84.5 -115t-96 -102t-107 -97
q-31 -28 -78.5 -65.5t-69.5 -57t-22 -27.5z" />
    <glyph glyph-name="three" unicode="3" horiz-adv-x="1183" 
d="M1062 1139q-50 -64 -98.5 -114.5t-95 -92.5t-53.5 -49q-20 -19 -20 -31q0 -3 1.5 -5t4.5 -4t5.5 -3t8.5 -3l9 -3q57 -17 106.5 -41t96.5 -60t80.5 -79t53.5 -102t20 -126q0 -128 -71.5 -231t-197.5 -161t-283 -58q-130 0 -241.5 43.5t-180.5 110t-107.5 140.5t-38.5 140
q0 27 11.5 45t35.5 18q19 0 47 -32q26 -30 58 -56.5t78.5 -55.5t107.5 -46t126 -17q122 0 186.5 51t64.5 140q0 43 -18 79t-40.5 57t-60.5 40t-60 26t-57 17q-80 23 -80 76q0 8 2 15.5t7.5 15.5t10 14t15 16.5t17 16.5t21.5 19t24 21q102 92 136.5 129.5t34.5 56.5
q0 6 -7 10t-37 6.5t-88 2.5q-138 0 -209.5 -26.5t-113.5 -72.5q-7 -8 -20 -23.5t-19 -22.5t-17.5 -13t-23.5 -6q-49 0 -49 72q0 26 5 65t18 121.5t21 138.5q6 43 14 59.5t29 24t69 7.5q16 0 157.5 -3t254.5 -3q126 0 260 3t136 3q24 0 41 -16.5t17 -41.5q0 -35 -32.5 -93.5
t-71.5 -108.5z" />
    <glyph glyph-name="four" unicode="4" horiz-adv-x="1240" 
d="M1014 1338q0 -26 -16.5 -349.5t-16.5 -419.5q0 -15 7 -20t23 -5q60 0 118 14.5t65 14.5q33 0 44 -22t11 -63q0 -44 -19.5 -121.5t-44.5 -116.5q-29 -46 -91 -46h-85q-30 0 -30 -24q0 -60 17.5 -127t17.5 -71q0 -63 -88 -90q-35 -10 -91 -17.5t-86 -7.5q-100 0 -100 189
v115q0 16 -8 24.5t-32 8.5h-290q-86 0 -133 30q-57 34 -96 92.5t-39 109.5q0 101 281 447q148 184 341 363t259 179q82 0 82 -87zM362 557q0 -19 39 -19h224q37 0 37 36q3 76 7.5 149t7 111t2.5 52q0 41 -12 41q-18 0 -62.5 -43.5t-92.5 -101.5q-150 -185 -150 -225z" />
    <glyph glyph-name="five" unicode="5" horiz-adv-x="1183" 
d="M1161 492q0 -225 -160.5 -370.5t-422.5 -145.5q-117 0 -222 40t-172.5 101t-107 131.5t-39.5 134.5t46 64q14 0 54 -33q151 -149 353 -149q125 0 193 57t68 157q0 113 -100 170t-283 57q-44 0 -88 -8.5t-56 -8.5q-17 0 -27.5 13t-10.5 32q0 68 29.5 267.5t65.5 340.5
q17 57 59 57q28 0 109 -3t126 -3q160 0 250.5 7.5t125 15t58.5 7.5q46 0 46 -44q0 -19 -6 -35.5t-23.5 -61.5t-35.5 -103q-13 -42 -35.5 -64t-74.5 -22q-51 0 -183 4.5t-194 4.5q-24 0 -35.5 -8.5t-18.5 -37.5q-21 -84 -21 -127q0 -29 9 -29q1 0 84 12t150 12
q238 0 364 -120t126 -312z" />
    <glyph glyph-name="six" unicode="6" horiz-adv-x="1206" 
d="M90 616q0 182 49.5 334.5t135.5 255t201.5 159t246.5 56.5q86 0 159 -26.5t117 -66t68.5 -82.5t24.5 -80q0 -64 -39 -64q-14 0 -56 35q-74 64 -204 64q-116 0 -205.5 -94t-89.5 -224q0 -15 10 -15q6 0 41 28q112 81 248 81q90 0 162.5 -28.5t118.5 -74.5t76.5 -108.5
t43 -126t12.5 -131.5q0 -100 -35 -193.5t-101.5 -170t-176 -123t-246.5 -46.5q-119 0 -221 42.5t-178 122t-119 202t-43 274.5zM648 776q-63 0 -112.5 -44.5t-49.5 -136.5t33 -184.5t87.5 -153t112.5 -60.5q64 0 102 50.5t38 152.5q0 159 -61 276q-55 100 -150 100z" />
    <glyph glyph-name="seven" unicode="7" horiz-adv-x="1057" 
d="M740 1048q0 27 -228 27q-138 0 -211 -26.5t-120 -72.5q-7 -7 -21.5 -23t-21.5 -22.5t-19.5 -13t-25.5 -6.5q-48 0 -48 72q0 26 5 65t18 121.5t21 138.5q9 61 26.5 76t86.5 15q16 0 157 -3t254 -3q134 0 280 3l146 3q26 0 43.5 -16.5t17.5 -41.5q0 -39 -49 -117
q-29 -42 -114.5 -213t-158.5 -333q-163 -362 -199 -710q-5 -45 -22 -66.5t-52 -21.5q-61 0 -132.5 25t-124.5 71.5t-53 98.5q0 60 21 132t64.5 154.5t83.5 150t107 160.5t103.5 141t102.5 133q21 27 31 40q32 39 32 62z" />
    <glyph glyph-name="eight" unicode="8" horiz-adv-x="1234" 
d="M82 382q0 110 71 215.5t193 143.5q-86 43 -137.5 125t-51.5 180t45 174.5t120.5 122t166 68.5t190.5 23q66 0 130 -11t126.5 -36.5t109.5 -63t76 -96t29 -130.5q0 -95 -50 -165t-128 -111q116 -57 191 -153t75 -238q0 -144 -80 -250.5t-213 -159.5t-300 -53
q-114 0 -209 24.5t-159 65.5t-109 95t-65.5 112t-20.5 118zM891 1071q0 65 -51.5 101.5t-129.5 36.5q-73 0 -118 -32t-45 -87q0 -66 61 -106.5t130 -40.5q63 0 108 34t45 94zM371 400q0 -83 75.5 -135t182.5 -52q84 0 140 36t56 109q0 91 -84.5 153t-177.5 62
q-89 0 -140.5 -52.5t-51.5 -120.5z" />
    <glyph glyph-name="nine" unicode="9" horiz-adv-x="1178" 
d="M1177 731q0 -173 -48 -316t-132.5 -238.5t-200 -148t-249.5 -52.5q-82 0 -156 21.5t-126 56t-90.5 75.5t-57.5 80.5t-19 71.5q0 27 10.5 42t28.5 15q8 0 15.5 -3t23.5 -13t21 -13q116 -90 256 -90q66 0 120.5 17.5t90.5 46t60.5 65t35.5 73.5t11 73q0 14 -9 14
q-4 0 -11 -3.5t-20 -11.5t-25 -14q-80 -54 -202 -54q-104 0 -186.5 41t-131.5 109t-74.5 149t-25.5 167q0 85 24 164.5t70.5 146t110 116t147.5 77.5t178 28q252 0 406.5 -188t154.5 -504zM573 1222q-54 0 -93 -49t-39 -159q0 -161 59 -270q56 -100 146 -100q61 0 103.5 47
t42.5 142q0 50 -15 114.5t-41.5 127t-70 105t-92.5 42.5z" />
    <glyph glyph-name="colon" unicode=":" horiz-adv-x="576" 
d="M573 863q0 -90 -60.5 -144.5t-146.5 -54.5q-77 0 -130.5 46.5t-53.5 131.5q0 92 62.5 149t143.5 57q76 0 130.5 -49.5t54.5 -135.5zM573 187q0 -90 -60.5 -144.5t-146.5 -54.5q-77 0 -130.5 46.5t-53.5 131.5q0 92 62.5 149t143.5 57q76 0 130.5 -49.5t54.5 -135.5z" />
    <glyph glyph-name="semicolon" unicode=";" horiz-adv-x="576" 
d="M570 863q0 -90 -61 -144.5t-147 -54.5q-77 0 -130 46.5t-53 131.5q0 92 62.5 149t143.5 57q76 0 130.5 -49.5t54.5 -135.5zM267 -337q-21 0 -35.5 12.5t-14.5 29.5q0 15 16 35t34.5 38.5t34.5 48t16 60.5q0 30 -14.5 55.5t-35.5 45.5t-42 42t-35.5 56t-14.5 77
q0 92 57 149.5t133 57.5q96 0 155 -60.5t59 -185.5q0 -90 -32 -177.5t-79.5 -148t-102 -98t-99.5 -37.5z" />
    <glyph glyph-name="less" unicode="&#x3c;" horiz-adv-x="1101" 
d="M485 659q0 -7 23 -19q201 -109 541 -236q31 -11 41 -23t10 -43q0 -42 -24.5 -103t-54.5 -61t-64 14q-149 54 -387 168.5t-352 189.5q-46 23 -46 82q0 55 15 95t38 54q105 68 338 178.5t394 176.5q46 19 68 19q32 0 53.5 -53.5t21.5 -111.5q0 -29 -11 -44t-40 -28
q-82 -36 -209.5 -89t-211 -89t-120.5 -57q-23 -11 -23 -20z" />
    <glyph glyph-name="equal" unicode="=" horiz-adv-x="1101" 
d="M1013 762h-800q-35 0 -35 41q0 71 20 133q8 28 22 37.5t47 9.5h800q35 0 35 -41q0 -69 -20 -134q-8 -27 -21.5 -36.5t-47.5 -9.5zM1013 352h-800q-35 0 -35 41q0 71 20 133q8 28 22 37.5t47 9.5h800q35 0 35 -41q0 -69 -20 -134q-8 -27 -21.5 -36.5t-47.5 -9.5z" />
    <glyph glyph-name="greater" unicode="&#x3e;" horiz-adv-x="1101" 
d="M791 671q0 8 -23 19q-160 89 -541 230q-31 12 -41 24t-10 42q0 42 24.5 103.5t54.5 61.5q29 0 63 -14q154 -56 391 -167.5t349 -184.5q46 -25 46 -82q0 -55 -15 -94t-38 -55q-79 -58 -325.5 -175.5t-407.5 -184.5q-48 -20 -67 -20q-32 0 -53.5 53t-21.5 111q0 30 11 45
t40 27q64 28 205.5 89t219.5 96t116 56q23 12 23 20z" />
    <glyph glyph-name="question" unicode="?" horiz-adv-x="956" 
d="M460 1174q-22 0 -45 -5t-38 -10.5t-35.5 -18t-28.5 -18t-27 -20.5t-20 -16q-37 -30 -54 -30q-36 0 -36 60q0 52 31.5 107t86 100t135.5 74t172 29q111 0 200.5 -34.5t144.5 -107t55 -173.5q0 -72 -27 -135t-70 -108.5t-95 -86t-104.5 -73.5t-95.5 -63t-70 -62.5
t-27 -65.5q0 -8 1.5 -18t1.5 -14q0 -29 -34 -29q-35 0 -69.5 43.5t-34.5 103.5q0 49 23.5 97t56.5 87t66.5 78.5t57 86.5t23.5 96q0 61 -38 93.5t-106 32.5zM702 187q0 -90 -60.5 -144.5t-145.5 -54.5q-78 0 -131.5 46.5t-53.5 131.5q0 92 62.5 149t143.5 57
q76 0 130.5 -49.5t54.5 -135.5z" />
    <glyph glyph-name="at" unicode="@" horiz-adv-x="1452" 
d="M1293 821q0 92 -22.5 166.5t-69 132.5t-124.5 90t-182 32q-76 0 -156.5 -26t-158.5 -81.5t-139.5 -133t-99.5 -190.5t-38 -244q0 -114 37 -205.5t100 -149t144 -88t173 -30.5q223 0 377 107q45 30 56 30q25 0 25 -30q0 -23 -40 -61t-102.5 -76t-153.5 -66t-180 -28
q-136 0 -247.5 37t-184.5 98t-122.5 143t-71 169t-21.5 180q0 169 66.5 323.5t176 265t257.5 176t305 65.5q261 0 414 -145t153 -402q0 -149 -53 -284t-145 -218t-197 -83q-64 0 -106 38.5t-50 97.5q-4 31 -8 31q-2 0 -12 -17t-28.5 -41t-44 -48.5t-66.5 -41.5t-89 -17
q-103 0 -158.5 77.5t-55.5 208.5q0 126 53.5 239t145 182t195.5 69q44 0 81.5 -17.5t63 -34.5t38.5 -17q23 0 55 16q8 4 18.5 9t16.5 8t13 5t13 2q32 0 32 -34q0 -26 -37.5 -252.5t-37.5 -275.5q0 -58 36 -58q34 0 70 51t61 145t25 201zM774 466q64 0 110.5 95t46.5 235
q0 148 -75 148q-60 0 -113 -99t-53 -243q0 -70 23 -103t61 -33z" />
    <glyph glyph-name="A" unicode="A" horiz-adv-x="1401" 
d="M135 309l278 727q34 91 59 224q12 59 113 112.5t166 53.5q42 0 63 -24t42 -76l398 -1024q33 -82 93 -141q1 -1 11.5 -11t14 -14t11.5 -13.5t11.5 -16t6.5 -15.5t3 -18q0 -44 -32.5 -61.5t-103.5 -17.5q-24 0 -95 3t-131 3q-58 0 -134 -3t-105 -3q-98 0 -98 73q0 21 20 43
t43.5 39t43.5 47.5t20 65.5q0 28 -31 86q-13 22 -43 22h-309q-38 0 -60 -24q-14 -19 -27.5 -50t-13.5 -56q0 -32 17 -59.5t38 -43t38 -36t17 -41.5q0 -66 -95 -66q-25 0 -85.5 3t-87.5 3q-26 0 -69 -3t-68 -3q-36 0 -55 17t-19 48q0 24 14.5 44t35.5 37.5t51 62t54 106.5z
M486 580h207q29 0 29 19q0 25 -37.5 133t-69.5 168q-13 24 -22 24t-22 -24q-30 -56 -70 -167.5t-40 -133.5q0 -19 25 -19z" />
    <glyph glyph-name="B" unicode="B" horiz-adv-x="1376" 
d="M224 -6q-43 0 -66 17.5t-23 46.5q0 25 16 46.5t36 37t40 48t26 76.5q14 95 14 470q0 250 -5 330q-5 62 -25 105.5t-40 62t-36.5 42.5t-16.5 53q0 70 80 70q52 0 161 -3t162 -3t158 3t159 3q68 0 130 -10t121 -35t101.5 -62t68.5 -94.5t26 -129.5q0 -97 -58 -177.5
t-133 -113.5q-10 -5 -10 -12q0 -5 10 -10q124 -40 203 -131.5t79 -212.5q0 -75 -17.5 -136t-47.5 -103.5t-73.5 -75t-90.5 -51.5t-104.5 -31t-109.5 -16t-111 -4q-53 0 -180 3t-182 3q-46 0 -131 -3t-131 -3zM648 1150v-247q0 -29 13.5 -37.5t52.5 -8.5q90 0 141 32
q72 43 72 142q0 85 -57.5 126.5t-147.5 41.5q-39 0 -56.5 -11t-17.5 -38zM976 421q0 82 -37.5 137.5t-101.5 82.5q-60 24 -152 24q-23 0 -30 -22t-7 -96v-228q0 -73 21.5 -93t98.5 -20q208 0 208 215z" />
    <glyph glyph-name="C" unicode="C" horiz-adv-x="1373" 
d="M90 695q0 112 25.5 216.5t80.5 198.5t134 164.5t192.5 111.5t248.5 41q87 0 174 -21t107 -21q24 0 63.5 11.5t62.5 11.5q19 0 33.5 -4.5t25 -16.5t17.5 -22.5t13 -33.5t9 -37t9 -46.5t9 -49.5q11 -62 22.5 -113t16 -70.5t4.5 -33.5q0 -35 -17.5 -53.5t-43.5 -18.5
q-18 0 -33 7t-30 23.5t-24.5 29.5t-27.5 40.5t-27 41.5q-69 95 -150.5 145t-162.5 50q-75 0 -133.5 -32.5t-94.5 -88.5t-54.5 -127.5t-18.5 -153.5q0 -151 50 -275.5t147.5 -200t225.5 -75.5q115 0 193.5 55.5t124.5 132.5q15 22 21.5 30.5t17.5 17.5t21 9q23 0 35 -25
t12 -58q0 -121 -66 -228q-73 -116 -211.5 -189t-320.5 -73q-129 0 -240 39.5t-191 108t-136.5 161t-84.5 199.5t-28 222z" />
    <glyph glyph-name="D" unicode="D" horiz-adv-x="1498" 
d="M460 1393q57 0 150 3t148 3q120 0 229 -24t207.5 -78t170.5 -133t114 -197t42 -262q0 -329 -174 -520t-484 -191q-60 0 -200.5 4t-202.5 4q-40 0 -120 -3t-116 -3q-43 0 -66 17.5t-23 44.5q0 21 10.5 38.5t26 32t32 31t31 45t20.5 64.5q12 97 12 467q0 280 -4 331
t-18 88.5t-30.5 58.5t-32.5 37.5t-27 35.5t-11 42q0 70 80 70q38 0 117.5 -3t118.5 -3zM648 1018v-594q0 -129 28.5 -173.5t110.5 -44.5q85 0 147 41.5t95 111t47.5 145t14.5 158.5q0 151 -40 271t-121.5 193t-194.5 73q-52 0 -69.5 -41t-17.5 -140z" />
    <glyph glyph-name="E" unicode="E" 
d="M983 859v-314q0 -89 -56 -89q-30 0 -47 19t-32 53q-15 32 -24.5 47.5t-26.5 33.5t-40 25t-57 7q-30 0 -42.5 -25t-12.5 -90v-132q0 -61 9 -99t31.5 -56.5t49 -24.5t71.5 -6q97 0 162 26t103.5 70.5t79.5 124.5q40 73 81 73q56 0 56 -91q0 -27 -17 -145.5t-23 -187.5
q-4 -54 -24 -69t-82 -15q-40 0 -191.5 3t-225.5 3q-62 0 -234.5 -3t-266.5 -3q-43 0 -66 17.5t-23 46.5q0 25 16 46.5t36 37t40 48t26 76.5q14 94 14 470q0 247 -5 330q-5 62 -25 105.5t-40 62t-36.5 42.5t-16.5 53q0 70 80 70q58 0 208 -3t255 -3q99 0 226.5 3t164.5 3
q67 0 93 -22.5t38 -101.5q9 -52 38 -204q15 -66 15 -90q0 -35 -19 -52.5t-46 -17.5q-16 0 -29.5 6.5t-25.5 22t-19.5 27t-19.5 34.5q-35 63 -59 96t-60.5 58.5t-83 34t-121.5 8.5q-83 0 -108.5 -27t-25.5 -119v-87q0 -71 11 -93.5t36 -22.5q35 0 61.5 7t44.5 22.5t28 28
t24 35t21 32.5q23 26 51 26q33 0 47 -32t14 -109z" />
    <glyph glyph-name="F" unicode="F" horiz-adv-x="1212" 
d="M645 506v-130q0 -93 29.5 -137.5t87.5 -71.5q27 -14 38 -20t28.5 -18.5t24 -25.5t6.5 -29q0 -80 -127 -80q-36 0 -135 3t-137 3q-42 0 -126 -3t-110 -3q-43 0 -66 17.5t-23 46.5q0 25 16 46.5t36 37t40 48t26 76.5q14 94 14 470q0 247 -5 330q-5 62 -25 105.5t-40 62
t-36.5 42.5t-16.5 53q0 70 80 70q58 0 208 -3t255 -3q99 0 226.5 3t164.5 3q67 0 93 -22.5t38 -101.5q9 -52 38 -204q15 -66 15 -90q0 -35 -19 -52.5t-46 -17.5q-16 0 -29.5 6.5t-25.5 22t-19.5 27t-19.5 34.5q-35 63 -59 96t-60.5 58.5t-83 34t-121.5 8.5q-83 0 -108.5 -27
t-25.5 -119v-108q0 -71 11 -93.5t36 -22.5q36 0 62.5 7.5t44 22.5t28 28t23.5 35t21 32q23 27 51 27q33 0 47 -32t14 -109v-315q0 -89 -56 -89q-16 0 -29 6t-22.5 18.5t-15 22.5t-12.5 26q-15 32 -24.5 47.5t-26.5 33.5t-40 25t-57 7q-30 0 -42.5 -25t-12.5 -90z" />
    <glyph glyph-name="G" unicode="G" horiz-adv-x="1468" 
d="M754 -35q-147 0 -273 60.5t-210.5 161.5t-132.5 233t-48 275q0 112 25.5 216.5t80.5 198.5t134 164.5t192.5 111.5t248.5 41q87 0 174 -21t107 -21q24 0 63.5 11.5t62.5 11.5q19 0 33.5 -4.5t25 -16.5t17.5 -22.5t13 -33.5t9 -37t9 -46.5t9 -49.5q11 -62 22.5 -113
t16 -70.5t4.5 -33.5q0 -35 -17.5 -53.5t-43.5 -18.5q-18 0 -33 7t-30 23.5t-24.5 29.5t-27.5 40.5t-27 41.5q-69 95 -150.5 145t-162.5 50q-99 0 -172.5 -63t-109 -160.5t-35.5 -212.5q0 -126 34.5 -236t88.5 -182t118.5 -113t127.5 -41q37 0 68 15.5t46 38.5q22 37 22 128
q0 29 -2.5 54.5t-4.5 42.5t-10 34t-10.5 24.5t-14.5 20.5t-13.5 15t-16.5 14l-15 12q-10 9 -36 25t-35.5 30t-9.5 39q0 71 97 71q34 0 101 -2.5t94 -2.5q38 0 118 2.5t124 2.5q36 0 53.5 -18.5t17.5 -48.5q0 -28 -10 -54.5t-22 -49t-22 -77.5t-10 -134q0 -70 8 -187t8 -148
q0 -45 -16.5 -67.5t-56.5 -22.5q-36 0 -81 35q-51 32 -67 32q-32 0 -125 -34q-164 -63 -298 -63z" />
    <glyph glyph-name="H" unicode="H" horiz-adv-x="1594" 
d="M1506 1399q80 0 80 -70q0 -24 -10.5 -42.5t-26.5 -35t-32.5 -37t-30 -58.5t-17.5 -89q-6 -60 -6 -331q0 -370 16 -467q5 -36 19 -64.5t30 -45t31.5 -31t25.5 -32t10 -38.5q0 -27 -23.5 -45.5t-65.5 -18.5q-36 0 -114 3t-117 3q-40 0 -120 -3t-116 -3q-42 0 -65.5 18
t-23.5 46q0 21 10.5 38.5t26 32t32 31t31 45t20.5 64.5q14 112 14 270q0 56 -14.5 78t-55.5 22h-295q-39 0 -56.5 -19.5t-17.5 -80.5q0 -168 19 -270q5 -36 19 -64.5t30 -45t31.5 -31t25.5 -32t10 -38.5q0 -27 -23.5 -45.5t-65.5 -18.5q-35 0 -114 3t-117 3q-40 0 -120 -3
t-116 -3q-42 0 -65.5 18t-23.5 46q0 21 10.5 38.5t26 32t32 31t31 45t20.5 64.5q12 97 12 467q0 280 -4 331t-18 88.5t-30.5 58.5t-32.5 37.5t-27 35.5t-11 42q0 70 80 70q38 0 117.5 -3t118.5 -3q41 0 119 3t112 3q80 0 80 -70q0 -30 -16.5 -52.5t-42.5 -51.5t-41 -63
q-10 -23 -18 -77t-8 -107q0 -73 16 -97.5t61 -24.5h286q43 0 59.5 23.5t16.5 98.5q0 55 -8.5 110t-16.5 74q-13 31 -56.5 81t-43.5 86q0 70 80 70q38 0 117.5 -3t118.5 -3q41 0 119 3t112 3z" />
    <glyph glyph-name="I" unicode="I" horiz-adv-x="780" 
d="M691 1399q80 0 80 -70q0 -24 -10.5 -42.5t-26 -35t-32 -37t-30 -58.5t-18.5 -89q-6 -50 -6 -331q0 -360 16 -467q6 -44 26 -77.5t39.5 -49t35 -37t15.5 -47.5q0 -27 -23.5 -45.5t-65.5 -18.5q-35 0 -114 3t-117 3q-40 0 -120 -3t-116 -3q-42 0 -65.5 18t-23.5 46
q0 21 10.5 38.5t26 32t32 31t31 45t20.5 64.5q12 97 12 467q0 280 -4 331t-18 88.5t-30.5 58.5t-32.5 37.5t-27 35.5t-11 42q0 70 80 70q38 0 117.5 -3t118.5 -3q41 0 119 3t112 3z" />
    <glyph glyph-name="J" unicode="J" horiz-adv-x="1124" 
d="M609 459v277q0 279 -6 330q-5 51 -22.5 88t-39 56.5t-43 36t-35.5 36.5t-14 46q0 70 78 70q35 0 133 -3t138 -3q39 0 110.5 3t108.5 3q80 0 80 -70q0 -28 -14 -52t-31 -42.5t-34.5 -62t-22.5 -105.5q-5 -85 -5 -423q0 -89 -4 -155t-16.5 -140t-34 -126.5t-60 -103.5
t-91.5 -82t-130 -49.5t-174 -18.5q-117 0 -204.5 27t-136.5 75t-72.5 105.5t-23.5 125.5q0 97 57 170.5t158 73.5q81 0 121.5 -37.5t40.5 -96.5q0 -20 -18.5 -78t-18.5 -93q0 -37 21.5 -61.5t62.5 -24.5q69 0 105.5 77t36.5 227z" />
    <glyph glyph-name="K" unicode="K" horiz-adv-x="1482" 
d="M656 773q14 0 95.5 86t159 188.5t77.5 137.5q0 30 -34.5 72t-34.5 75q0 29 24 48t68 19q24 0 89.5 -3t92.5 -3q26 0 89 2.5t87 2.5q66 0 95 -13t29 -58q0 -28 -21.5 -48t-69.5 -47t-75 -48q-174 -138 -359 -358q-13 -16 -13 -21q0 -6 14 -12q74 -26 135.5 -72
t109.5 -110.5t83.5 -129t73.5 -152.5q53 -128 122 -188q10 -8 26.5 -21t22 -18t11 -16.5t5.5 -26.5q0 -65 -70 -65q-22 0 -112 3t-116 3q-53 0 -131.5 -3t-88.5 -3q-42 0 -68 20.5t-26 50.5q0 18 12 48.5t12 56.5q0 63 -37 149.5t-101.5 154t-128.5 67.5q-57 0 -57 -97v-84
q0 -64 16.5 -105.5t46.5 -82.5q10 -14 32 -36.5t32.5 -39.5t10.5 -38q0 -31 -23.5 -47.5t-63.5 -16.5q-44 0 -123 3t-116 3q-40 0 -119 -3t-115 -3q-42 0 -65.5 18t-23.5 46q0 21 10.5 38.5t26 32t32 31t31 45t20.5 64.5q12 97 12 467q0 280 -4 331t-18 88.5t-30.5 58.5
t-32.5 37.5t-27 35.5t-11 42q0 70 80 70q38 0 117.5 -3t118.5 -3q41 0 119 3t112 3q80 0 80 -70q0 -33 -39.5 -80t-50.5 -75q-39 -83 -39 -210q0 -191 14 -191z" />
    <glyph glyph-name="L" unicode="L" horiz-adv-x="1242" 
d="M267 736q0 280 -4 331t-18 88.5t-30.5 58.5t-32.5 37.5t-27 35.5t-11 42q0 70 80 70q38 0 117.5 -3t118.5 -3q41 0 138.5 3t131.5 3q79 0 79 -70q0 -26 -14.5 -46t-35.5 -36.5t-43 -36t-39.5 -56.5t-22.5 -88q-6 -51 -6 -330v-376q0 -92 35.5 -122t121.5 -30
q58 0 105 12.5t78 31.5t57 50.5t42 60.5t32 70q21 47 41 69.5t46 22.5q59 0 59 -94q0 -31 -11 -152t-16 -194q-4 -55 -25.5 -73t-82.5 -18q-42 0 -193 3t-227 3q-153 0 -312.5 -3t-173.5 -3q-43 0 -66 17t-23 47q0 21 10 38.5t25.5 31.5t32 30.5t30.5 44t20 63.5
q14 88 14 470z" />
    <glyph glyph-name="M" unicode="M" horiz-adv-x="1816" 
d="M1283 766q-15 0 -48 -78t-102 -266q-105 -281 -135 -342q-49 -90 -130 -90q-22 0 -41 17t-30 43q-14 29 -61.5 144.5t-111.5 272t-102 245.5q-21 53 -33 53t-15 -32q-8 -64 -8 -228q0 -213 33 -291q15 -32 40 -57.5t40 -45t15 -48.5q0 -69 -80 -69q-44 0 -91 3t-64 3
q-23 0 -84 -3t-102 -3q-77 0 -77 69q0 23 10.5 40.5t27 32t34 32.5t33 54t22.5 86q16 123 27 293.5t11 294.5q0 101 -6 170q-4 51 -18 88.5t-30.5 58.5t-32 37.5t-26 35.5t-10.5 43q0 70 79 70q19 0 91.5 -3t102.5 -3q99 0 139 -6.5t71 -26.5q51 -34 104 -130
q38 -69 243 -551q11 -23 20 -23q12 0 21 21q155 396 230 558q47 96 95 126q52 32 222 32q18 0 71.5 3t75.5 3q77 0 77 -71q0 -28 -15.5 -52t-35.5 -42.5t-40 -62t-26 -104.5q-6 -72 -6 -167q0 -292 39 -590q7 -51 23 -87t33.5 -54.5t34 -33t27.5 -32t11 -40.5q0 -69 -79 -69
q-40 0 -125 3t-107 3q-40 0 -118.5 -3t-116.5 -3q-42 0 -65.5 17t-23.5 47q0 25 16 46.5t36 37t41 48.5t28 78q4 19 4 93q0 185 -19 375q-4 30 -13 30z" />
    <glyph glyph-name="N" unicode="N" horiz-adv-x="1489" 
d="M224 1399q20 0 93 -3t103 -3q100 0 134 -18q14 -6 29 -19.5t25 -25t37.5 -45t45.5 -54.5l373 -472q76 -90 88 -90q5 0 7.5 3t4.5 14t2.5 31t0.5 56q0 305 -51 399q-16 32 -42 60.5t-41.5 49.5t-15.5 47q0 70 79 70q29 0 85.5 -3t76.5 -3q27 0 85.5 3t81.5 3q77 0 77 -70
q0 -28 -14.5 -50t-32.5 -37.5t-35.5 -56.5t-22.5 -101q-6 -69 -6 -268q1 -311 10.5 -473t9.5 -215q0 -61 -51 -103t-136 -42q-22 0 -52 18.5t-58 51.5l-567 704q-3 4 -8 9t-7.5 8t-6 7t-5.5 6l-4.5 4.5t-4.5 4t-3.5 2.5t-3.5 1.5t-3 0.5q-11 0 -14.5 -26t-3.5 -112
q0 -149 15.5 -269t42.5 -174q13 -28 32 -52t33 -36.5t24.5 -30t10.5 -37.5q0 -69 -80 -69q-34 0 -89.5 3t-74.5 3q-25 0 -89 -3t-95 -3q-78 0 -78 69q0 23 11.5 40.5t28.5 32t34.5 32.5t31.5 53.5t18 85.5q8 96 8 428q0 251 -5 331q-5 62 -25 105.5t-40 62t-36.5 42.5
t-16.5 53q0 70 80 70z" />
    <glyph glyph-name="O" unicode="O" horiz-adv-x="1495" 
d="M94 684q0 218 87 387t246 262.5t365 93.5q144 0 271 -50.5t224 -145t153.5 -241t56.5 -326.5q0 -136 -35 -250.5t-98 -196.5t-149.5 -139t-190 -85t-220.5 -28q-165 0 -299 53.5t-224 149t-138.5 228t-48.5 288.5zM735 1218q-75 0 -129.5 -88.5t-54.5 -278.5
q0 -266 87 -463q41 -89 101 -138t127 -49q90 0 148 76t58 236q0 114 -27 246t-73 233q-44 105 -108.5 165.5t-128.5 60.5z" />
    <glyph glyph-name="P" unicode="P" horiz-adv-x="1325" 
d="M651 443v-90q0 -78 33 -117.5t94 -68.5q29 -15 39 -20t28.5 -18t25 -26t6.5 -29q0 -80 -127 -80q-36 0 -144 3t-146 3q-42 0 -126 -3t-110 -3q-43 0 -66 17.5t-23 46.5q0 25 16 46.5t36 37t40 48t26 76.5q14 94 14 470q0 247 -5 330q-5 62 -25 105.5t-40 62t-36.5 42.5
t-16.5 53q0 70 80 70q65 0 144.5 -3t148.5 -3q57 0 184 4t189 4q209 0 342 -116.5t133 -309.5q0 -96 -28 -177.5t-84 -145.5t-150 -100.5t-217 -36.5q-54 0 -116.5 9.5t-76.5 9.5q-27 0 -34.5 -18t-7.5 -73zM944 954q0 99 -59.5 167.5t-152.5 68.5q-37 0 -53 -10t-23.5 -42
t-7.5 -104v-109q0 -118 32.5 -157.5t104.5 -39.5q75 0 117 60t42 166z" />
    <glyph glyph-name="Q" unicode="Q" horiz-adv-x="1495" 
d="M94 684q0 218 87 387t246 262.5t365 93.5q144 0 271 -50.5t224 -145t153.5 -241t56.5 -326.5q0 -274 -137 -446t-363 -226q-18 -4 -18 -12q0 -11 26 -22q142 -70 224 -70q33 0 57.5 11t35.5 23.5t22 23.5t21 11q20 0 34 -33t14 -86q0 -31 -8.5 -65t-29 -71.5t-50 -67
t-77.5 -48.5t-106 -19q-59 0 -126.5 33t-126 80t-112.5 94t-103 80t-82 33q-31 0 -55.5 -20t-37 -43.5t-27 -43.5t-29.5 -20q-27 0 -44.5 28.5t-17.5 71.5q0 70 50 133q3 4 13 14t15.5 17t5.5 12q0 6 -7.5 12t-40.5 26q-159 89 -241 244t-82 366zM735 1218
q-75 0 -129.5 -88.5t-54.5 -278.5q0 -266 87 -463q41 -89 101 -138t127 -49q90 0 148 76t58 236q0 114 -27 246t-73 233q-44 105 -108.5 165.5t-128.5 60.5z" />
    <glyph glyph-name="R" unicode="R" horiz-adv-x="1469" 
d="M646 444v-84q0 -64 16.5 -105.5t46.5 -82.5q10 -14 32 -36.5t32.5 -39.5t10.5 -38q0 -31 -24 -47.5t-63 -16.5q-35 0 -117 3t-120 3q-42 0 -126 -3t-110 -3q-43 0 -66 17.5t-23 46.5q0 25 16 46.5t36 37t40 48t26 76.5q14 94 14 470q0 247 -5 330q-5 62 -25 105.5t-40 62
t-36.5 42.5t-16.5 53q0 70 80 70q65 0 144.5 -3t148.5 -3q57 0 182 4t187 4q105 0 189 -21.5t147 -66t97 -116.5t34 -168q0 -237 -287 -342q-12 -7 -12 -14q0 -11 13 -18q97 -48 169.5 -132.5t138.5 -212.5q64 -124 114 -167q8 -8 24.5 -22t20.5 -19t9 -16.5t5 -26.5
q0 -65 -70 -65q-22 0 -105 3t-109 3q-53 0 -131.5 -3t-88.5 -3q-42 0 -68 20.5t-26 50.5q0 18 12 48.5t12 56.5q0 78 -57 192t-120 164q-41 30 -88 30q-63 0 -63 -112zM925 974q0 95 -56 155.5t-141 60.5q-23 0 -35.5 -3t-22.5 -11t-14 -26.5t-6 -44.5t-2 -71v-115
q0 -77 19.5 -110.5t83.5 -33.5q78 0 126 52.5t48 146.5z" />
    <glyph glyph-name="S" unicode="S" horiz-adv-x="1257" 
d="M698 1220q-64 0 -110 -33t-46 -91q0 -20 8 -37.5t29.5 -34.5t39 -28.5t56.5 -28t61 -25.5t73.5 -27.5t74.5 -27.5q70 -26 123.5 -51.5t113 -66t98 -86.5t64 -112t25.5 -143q0 -220 -149 -341.5t-394 -121.5q-80 0 -208.5 21t-159.5 21q-20 0 -56 -8t-52 -8q-18 0 -31 4
t-22 15.5t-14.5 23.5t-10 35.5t-7 43t-7 55.5t-8.5 64q-5 36 -11 73t-8.5 53t-4 32.5t-1.5 30.5q0 40 15 61.5t38 21.5q13 0 26.5 -6.5t28.5 -21t26 -26.5t30 -34.5t29 -33.5q73 -81 175 -132.5t214 -51.5q67 0 110 32.5t43 87.5q0 18 -5 34.5t-16.5 31t-23 26t-33 23.5
t-38 20.5t-45.5 20t-47 18.5t-52.5 19t-53.5 19q-55 20 -96.5 39t-91 47t-85 61.5t-66 77t-46.5 100t-16 122.5q0 204 130 327t354 123q76 0 169 -21t116 -21q24 0 62.5 11.5t61.5 11.5q19 0 34 -4.5t25.5 -16.5t17 -22.5t12.5 -33.5t9 -37.5t9 -46t9 -49.5
q13 -62 25 -113.5t16.5 -70.5t4.5 -33q0 -34 -17.5 -53t-43.5 -19q-28 0 -48.5 17t-50.5 59t-47 61q-156 174 -334 174z" />
    <glyph glyph-name="T" unicode="T" horiz-adv-x="1251" 
d="M645 1393q97 0 240 3t212 3q63 0 90 -26t32 -105q6 -73 19 -172.5t13 -141.5q0 -37 -18 -53.5t-45 -16.5q-29 0 -49 20.5t-43 60.5q-70 137 -91 165q-44 46 -94 49q-44 0 -59 -43q-16 -42 -16 -243v-157q0 -366 15 -466q5 -37 21 -65t35 -45t37.5 -31t30.5 -31.5
t12 -39.5q0 -27 -23.5 -45.5t-64.5 -18.5q-36 0 -125 3t-127 3q-40 0 -130 -3t-125 -3q-43 0 -66 18t-23 46q0 22 12.5 39.5t31 32t38 31t35.5 45t22 64.5q13 106 13 466v157q0 197 -16 243q-16 43 -59 43q-54 0 -82.5 -34.5t-88.5 -152.5q-9 -18 -14 -27
q-23 -40 -43.5 -60.5t-49.5 -20.5q-27 0 -45 16.5t-18 53.5q0 42 13.5 140.5t19.5 173.5q5 79 32 105t90 26q70 0 212 -3t239 -3z" />
    <glyph glyph-name="U" unicode="U" horiz-adv-x="1461" 
d="M1358 831q0 -55 1.5 -145.5t1.5 -128.5q0 -299 -134 -445.5t-434 -146.5q-97 0 -179 19.5t-152.5 64.5t-120 113.5t-77.5 170.5t-28 232q0 400 -6 502q-4 51 -18 88.5t-31 58.5t-33 37.5t-26.5 35.5t-10.5 42q0 70 79 70q38 0 117.5 -3t118.5 -3q40 0 119 3t113 3
q79 0 79 -70q0 -24 -9.5 -42.5t-24 -35t-30 -37t-29.5 -58.5t-20 -89q-8 -109 -8 -447q0 -362 262 -362q151 0 207 116q38 71 38 386q0 318 -43 412q-13 31 -38 59.5t-42 50.5t-17 47q0 70 80 70q28 0 85.5 -3t77.5 -3q26 0 84 3t82 3q76 0 76 -70q0 -24 -9.5 -41
t-23.5 -31.5t-28.5 -33t-26.5 -54t-16 -85.5q-6 -69 -6 -253z" />
    <glyph glyph-name="V" unicode="V" horiz-adv-x="1338" 
d="M753 518q7 -15 14 -15t17 26q48 133 109.5 351.5t61.5 272.5q0 27 -11.5 49.5t-27.5 37.5t-32 28.5t-27.5 29.5t-11.5 34q0 67 92 67q24 0 89.5 -3t92.5 -3q25 0 70.5 2.5t70.5 2.5q74 0 74 -64q0 -20 -10 -36.5t-26.5 -33t-35.5 -37t-40 -58t-36 -86.5l-240 -738
q-57 -180 -106 -253q-41 -63 -108 -94t-109 -31q-44 0 -72 23t-51 72q-49 118 -67 165l-327 864q-27 73 -92 141q-2 2 -16.5 17t-20.5 22.5t-13 21.5t-7 27q0 44 32 61.5t101 17.5q24 0 92.5 -3t126.5 -3q57 0 140 3t112 3q48 0 72.5 -19t24.5 -53q0 -22 -16.5 -43
t-36 -37.5t-36 -45.5t-16.5 -64q0 -42 83 -298t117 -321z" />
    <glyph glyph-name="W" unicode="W" horiz-adv-x="1978" 
d="M952 622q-133 -454 -180 -528q-20 -33 -50.5 -59.5t-60 -40t-53 -20.5t-38.5 -7q-42 0 -68.5 24t-49.5 74q-1 2 -10.5 27.5t-24 64.5t-26.5 74l-297 856q-32 94 -85 143q-52 50 -52 90q0 43 30 61t94 18q23 0 86.5 -3t117.5 -3q52 0 130 3t104 3q44 0 67.5 -19t23.5 -53
q0 -22 -15 -44t-33.5 -38.5t-33.5 -45.5t-15 -64q0 -42 66 -281.5t99 -312.5q9 -22 16 -22t18 30q28 82 83.5 307.5t55.5 278.5q0 36 -14 66.5t-31.5 47.5t-31.5 39t-14 44q0 67 86 67q22 0 94.5 -3t98.5 -3q51 0 126 3t101 3q43 0 67.5 -19t24.5 -53q0 -22 -13.5 -43.5
t-29.5 -38t-29.5 -44.5t-13.5 -62q0 -41 61.5 -280.5t91.5 -310.5q11 -29 20 -29q7 0 19 35q28 81 81 312.5t53 284.5q0 33 -15.5 60t-34.5 42t-34.5 36t-15.5 43q0 67 87 67q22 0 93.5 -3t97.5 -3q24 0 65 2.5t64 2.5q33 0 51 -17t18 -47q0 -25 -14.5 -47t-34.5 -41
t-45.5 -63t-42.5 -104l-216 -730q-49 -177 -97 -255q-20 -33 -51 -59.5t-61.5 -40t-55 -20.5t-39.5 -7q-41 0 -68 24.5t-51 73.5q-22 45 -58.5 151.5t-79 238t-62.5 187.5q-10 30 -19 30q-13 0 -27 -50z" />
    <glyph glyph-name="X" unicode="X" horiz-adv-x="1459" 
d="M947 761q0 -26 27 -74t119 -178q113 -158 194 -246q30 -33 77.5 -67.5t71.5 -60t24 -60.5q0 -45 -29 -63t-94 -18q-24 0 -125.5 3t-159.5 3q-57 0 -122.5 -3t-94.5 -3q-48 0 -72.5 19t-24.5 53q0 30 32 71.5t32 78.5q0 35 -49 118t-101 142q-9 9 -17 9q-7 0 -19 -12
q-60 -70 -102.5 -141.5t-42.5 -106.5q0 -25 13 -47.5t29 -36.5t29 -35.5t13 -45.5q0 -66 -92 -66q-25 0 -107.5 3t-109.5 3q-26 0 -92 -3t-91 -3q-73 0 -73 65q0 29 17.5 53.5t43.5 43t76 58t94 83.5q52 52 175 220q93 130 93 168q0 9 -4 19t-15.5 28t-24.5 36.5t-41 58
t-55 78.5q-39 55 -108 140t-109 125q-15 14 -43 37t-40.5 34.5t-23.5 32.5t-11 44q0 44 31.5 62.5t97.5 18.5q23 0 95.5 -3t130.5 -3q57 0 143 3t115 3q46 0 71 -19.5t25 -52.5q0 -32 -30.5 -73t-30.5 -77t39 -105t85 -129q6 -8 17 -8q9 0 17 10q40 42 82 115.5t42 109.5
q0 37 -33.5 84.5t-33.5 77.5q0 67 93 67q24 0 88 -3t92 -3q26 0 90.5 3t89.5 3q74 0 74 -66q0 -37 -26.5 -66.5t-85 -74.5t-95.5 -84q-56 -60 -200 -254q-50 -70 -50 -93z" />
    <glyph glyph-name="Y" unicode="Y" horiz-adv-x="1278" 
d="M821 503q0 -126 16 -233q5 -37 21 -65t34.5 -45t36.5 -31t30 -31.5t12 -39.5q0 -28 -23 -46t-65 -18q-36 0 -124 3t-126 3q-40 0 -128 -3t-124 -3q-42 0 -65.5 18t-23.5 46q0 22 12 39.5t30 32t37 31t35 45t22 64.5q12 97 12 251q0 60 -41.5 143t-141.5 247
q-119 196 -166 256q-21 26 -54 54t-48.5 48.5t-15.5 50.5q0 44 30.5 61.5t97.5 17.5q23 0 88.5 -3t123.5 -3q57 0 127.5 3t98.5 3q97 0 97 -72q0 -30 -39 -77.5t-39 -84.5q0 -41 54.5 -154.5t90.5 -150.5q6 -7 17 -7q8 0 15 10q36 46 83.5 153.5t47.5 146.5q0 30 -13 55
t-28 39.5t-28 34.5t-13 40q0 67 94 67q25 0 96 -3t98 -3q26 0 68.5 3t66.5 3q36 0 55.5 -17.5t19.5 -48.5q0 -33 -13 -52t-52.5 -55.5t-71.5 -75.5q-18 -22 -35 -46.5t-38.5 -61.5t-32.5 -56t-39.5 -72.5t-36.5 -68.5q-11 -20 -40 -74t-41 -78t-29.5 -63.5t-24.5 -69
t-7 -57.5z" />
    <glyph glyph-name="Z" unicode="Z" horiz-adv-x="1286" 
d="M760 222q73 0 127.5 14t95 44.5t68 65.5t58.5 90q49 86 96 86q60 0 60 -91q0 -25 -4.5 -76t-12 -129t-11.5 -141q-4 -55 -25 -73t-82 -18q-43 0 -215.5 3t-248.5 3q-108 0 -289.5 -3t-248.5 -3q-73 0 -73 65q0 67 136 269l487 716q23 33 41 68t18 48q0 18 -41.5 22.5
t-150.5 4.5q-67 0 -112.5 -11.5t-80 -41t-58 -67t-53.5 -102.5q-42 -81 -93 -81q-27 0 -45 16.5t-18 53.5q0 43 13.5 143t19.5 171q5 79 32 105t90 26q70 0 206.5 -3t232.5 -3q93 0 227.5 3t195.5 3q88 0 120.5 -17t32.5 -70q0 -67 -87 -199l-479 -732q-69 -108 -69 -134
q0 -8 8.5 -13t40.5 -8.5t91 -3.5z" />
    <glyph glyph-name="bracketleft" unicode="[" horiz-adv-x="748" 
d="M595 1244v-1337q0 -30 7.5 -51.5t23.5 -34.5t29.5 -19.5t36.5 -13.5q16 -5 43.5 -12.5t41 -12.5t29.5 -13t23 -19t7 -26q0 -57 -82 -57q-16 0 -98 3t-118 3q-37 0 -100.5 -3t-80.5 -3q-83 0 -83 81q0 16 5 93.5t10 268.5t5 484t-5 484t-10 268.5t-5 93.5q0 82 83 82
q17 0 80.5 -3t100.5 -3q36 0 118 3t98 3q82 0 82 -58q0 -15 -7 -26t-23 -18.5t-30 -12.5t-41 -12.5t-43 -13.5q-22 -6 -36 -12.5t-30 -19.5t-23.5 -34.5t-7.5 -51.5z" />
    <glyph glyph-name="backslash" unicode="\" horiz-adv-x="688" 
d="M41 1341q-8 20 -8 32q0 21 23.5 31.5t58.5 10.5t47 -5.5t17 -18.5q16 -35 256 -677t247 -669q6 -16 6 -29q0 -20 -25.5 -31.5t-60.5 -11.5q-48 0 -62 29q-9 17 -248 658.5t-251 680.5z" />
    <glyph glyph-name="bracketright" unicode="]" horiz-adv-x="748" 
d="M341 -93v1337q0 57 -25 81t-71 37q-17 6 -44 13.5t-41 12.5t-30 12.5t-23 18.5t-7 26q0 58 83 58q16 0 97.5 -3t118.5 -3t100 3t80 3q83 0 83 -82q0 -16 -5 -93.5t-9.5 -268.5t-4.5 -484q0 -292 4.5 -483.5t9.5 -269t5 -93.5q0 -40 -19 -60.5t-64 -20.5q-17 0 -80 3
t-100 3t-118.5 -3t-97.5 -3q-83 0 -83 57q0 15 7 26t23 19t29.5 13t41.5 12.5t44 12.5q22 7 36 13.5t29.5 19.5t23 34.5t7.5 51.5z" />
    <glyph glyph-name="asciicircum" unicode="^" horiz-adv-x="1085" 
d="M599 1124q-3 0 -19 -18q-32 -41 -105 -177.5t-132 -259.5q-12 -28 -27 -38.5t-45 -10.5q-56 0 -108 22t-52 52q0 20 19 63q64 137 176.5 341.5t175.5 278.5q16 20 57 34.5t95 14.5q47 0 84 -44q66 -82 188 -298.5t165 -326.5q14 -34 14 -59q0 -29 -62 -53.5t-104 -24.5
q-31 0 -42.5 9.5t-24.5 39.5q-64 136 -130 260t-102 177q-13 18 -21 18z" />
    <glyph glyph-name="underscore" unicode="_" horiz-adv-x="921" 
d="M839 -346h-923q-31 0 -31 39q0 76 19 135q8 26 21.5 34.5t43.5 8.5h923q20 0 25.5 -11t5.5 -32q0 -71 -19 -131q-9 -27 -21.5 -35t-43.5 -8z" />
    <glyph glyph-name="grave" unicode="`" horiz-adv-x="607" 
d="M582 1249q23 -48 23 -58q0 -40 -47 -40t-120 50t-123 108q-67 77 -67 147q0 47 28 80.5t80 33.5q33 0 59 -13.5t44 -40.5t28.5 -48.5t23.5 -54.5q35 -91 71 -164z" />
    <glyph glyph-name="a" unicode="a" horiz-adv-x="1120" 
d="M383 561q50 18 115 33.5t105.5 26t54.5 21.5q28 22 28 108q0 72 -32 116t-91 44q-97 0 -146 -164q-16 -52 -42.5 -79.5t-80.5 -27.5q-66 0 -110.5 44t-44.5 122q0 103 115.5 182.5t309.5 79.5q77 0 144.5 -13t129 -43.5t105 -76.5t69.5 -116.5t26 -159.5q0 -66 -5 -175
t-5 -164q0 -81 58 -81q9 0 23 3t21 3q10 0 16.5 -13t6.5 -31q0 -94 -70.5 -156.5t-172.5 -62.5q-140 0 -196 96q-11 18 -20 18q-8 0 -25 -17q-47 -44 -121 -73.5t-147 -29.5q-135 0 -220 67.5t-85 191.5q0 117 73.5 196t213.5 131zM689 383q0 86 -17 86q-51 0 -109 -25
q-53 -22 -85 -60t-32 -85q0 -41 26 -68t71 -27q72 0 109 51.5t37 127.5z" />
    <glyph glyph-name="b" unicode="b" horiz-adv-x="1198" 
d="M137 322v831q0 67 -67 102q-20 13 -30.5 25.5t-10.5 34.5q0 15 7 27t25.5 22.5t32.5 16t48.5 18t52.5 19.5q49 18 100 42t77.5 34.5t49.5 10.5q32 0 53 -17t21 -54q0 -12 -12 -145.5t-12 -262.5v-61q0 -46 15 -46q6 0 29.5 23t54.5 50t89 50t123 23q121 0 208.5 -68
t130 -181t42.5 -257q0 -139 -39.5 -250.5t-107.5 -182.5t-158 -108.5t-194 -37.5q-65 0 -154.5 24t-108.5 24q-72 0 -117 -23q-12 -6 -29.5 -16.5t-27 -16t-22.5 -10t-25 -4.5q-27 0 -42 15.5t-15 40.5q0 11 6.5 98t6.5 210zM631 829q-64 0 -107.5 -77t-43.5 -222
q0 -113 10.5 -187.5t30.5 -110.5t42 -48.5t54 -12.5q69 0 120 83t51 254q0 321 -157 321z" />
    <glyph glyph-name="c" unicode="c" horiz-adv-x="1034" 
d="M82 500q0 113 37 215t105 180t172 124t229 46q157 0 261.5 -71t104.5 -189q0 -86 -55.5 -141t-154.5 -55q-38 0 -58.5 18t-29.5 61q-24 106 -44 143q-33 60 -89 60q-65 0 -101.5 -65.5t-36.5 -166.5q0 -156 81.5 -258.5t224.5 -102.5q37 0 72 8.5t54.5 16t49 28.5
t34 25.5t29.5 28.5q6 5 8 7q25 19 38 19q39 0 39 -74q0 -68 -32 -135.5t-89 -122t-145 -89t-189 -34.5q-233 0 -374 149t-141 375z" />
    <glyph glyph-name="d" unicode="d" horiz-adv-x="1226" 
d="M1010 -19q-74 0 -119 22.5t-82 76.5q-4 5 -9.5 13t-8.5 12.5t-7.5 8t-9.5 3.5q-3 0 -6 -1.5t-8 -5.5t-8.5 -8t-11 -11t-12.5 -12q-111 -99 -250 -99q-78 0 -146.5 31.5t-122 92t-84.5 159t-31 223.5q0 271 119 425t301 154q59 0 108 -14.5t73.5 -31.5t42 -31.5
t21.5 -14.5q16 0 16 88v84q0 40 -20.5 68.5t-45.5 41.5q-43 27 -43 60q0 16 7.5 27.5t25.5 21.5t34.5 16.5t48 18t51.5 19.5q36 14 89 39t84 36.5t53 11.5q74 0 74 -71q0 -45 -5.5 -151t-5.5 -275v-689q0 -32 16 -56.5t48 -24.5q9 0 23 3t21 3q10 0 16 -13t6 -31
q0 -94 -70 -156.5t-172 -62.5zM640 230q43 0 72 25t48 95.5t19 187.5q0 177 -43.5 255.5t-108.5 78.5q-70 0 -113 -74t-43 -237q0 -166 46 -248.5t123 -82.5z" />
    <glyph glyph-name="e" unicode="e" horiz-adv-x="1055" 
d="M946 547q-76 -39 -200.5 -62t-233.5 -31q-28 -1 -28 -20q0 -26 14 -55t40.5 -56.5t73.5 -45.5t106 -18q63 0 118.5 19.5t85 40t62.5 51.5q24 19 43 19q35 0 35 -64q0 -55 -31.5 -115.5t-88 -113t-146 -86.5t-193.5 -34q-240 0 -379.5 144.5t-139.5 377.5q0 153 67 281.5
t194.5 207t288.5 78.5q86 0 157.5 -25t117 -64t77 -89t44.5 -98t13 -93q0 -98 -97 -149zM719 754q0 57 -34 94.5t-87 37.5q-71 0 -116.5 -62.5t-45.5 -143.5q0 -70 45 -70q47 0 117 24t101 62q20 25 20 58z" />
    <glyph glyph-name="f" unicode="f" horiz-adv-x="785" 
d="M532 773v-438q0 -72 11.5 -105.5t53.5 -68.5q10 -9 38.5 -25.5t43.5 -33t15 -40.5q0 -68 -87 -68q-25 0 -102 3t-143 3q-36 0 -109 -3t-115 -3q-69 0 -69 64q0 17 7 34t15 26.5t20.5 22.5t16.5 17q56 69 56 177v413q0 63 -58 74q-42 7 -62.5 18.5t-20.5 38.5
q0 25 16.5 62t33.5 51q12 9 42.5 18.5t45.5 18.5q8 5 17.5 38t22.5 84t22 79q41 122 129.5 201t223.5 79q109 0 171.5 -52t62.5 -124q0 -44 -11.5 -84.5t-44 -73t-80.5 -32.5q-21 0 -37 9t-23 17.5t-20 27.5q-3 5 -18.5 27.5t-22 29.5t-20 21t-27.5 19t-30 5
q-32 0 -50.5 -34.5t-18.5 -79.5q0 -85 36 -134.5t131 -49.5q20 0 75.5 3t67.5 3q29 0 46.5 -13.5t17.5 -50.5q0 -33 -12.5 -74t-35.5 -63q-15 -15 -46 -15q-11 0 -74.5 3.5t-82.5 3.5q-18 0 -18 -26z" />
    <glyph glyph-name="g" unicode="g" horiz-adv-x="1142" 
d="M538 1065q81 0 204 -20t153 -20q62 0 106 10t69 20t41 10q40 0 40 -57q0 -63 -19 -117q-28 -81 -80 -81q-20 0 -50 6t-33 6q-11 0 -11 -10q0 -1 15.5 -39.5t15.5 -74.5q0 -165 -124 -261t-312 -96q-23 0 -58 2t-46 2q-36 0 -65 -19.5t-29 -51.5t27.5 -50t75.5 -18
q30 0 149 18t192 18q154 0 239.5 -69t85.5 -212q0 -132 -95 -232t-243.5 -149.5t-321.5 -49.5q-211 0 -315 67t-104 187q0 65 35 111.5t85 73.5q16 9 16 19q0 8 -14 17q-33 20 -62 62.5t-29 104.5q0 68 44 124t119 91q14 7 14 17t-12 20q-127 99 -127 272q0 117 58.5 202.5
t153 126t212.5 40.5zM440 721q0 -94 36 -139t86 -45q52 0 84.5 36.5t32.5 109.5q0 31 -7 64.5t-21.5 66.5t-41 54t-60.5 21q-50 0 -79.5 -46t-29.5 -122zM703 -162q0 45 -36 69.5t-106 24.5q-106 0 -168 -23q-43 -13 -68 -37.5t-25 -55.5q0 -51 45.5 -75.5t124.5 -24.5
q102 0 167.5 35.5t65.5 86.5z" />
    <glyph glyph-name="h" unicode="h" 
d="M189 335v821q0 65 -64 99q-43 26 -43 60q0 16 7.5 27.5t25.5 21.5t34.5 16.5t48 18t51.5 19.5q36 14 89 39t84 36.5t53 11.5q33 0 53 -17.5t20 -53.5q0 -8 -12 -166t-12 -309q0 -43 17 -43q7 0 36 23.5t66.5 51t100.5 51t129 23.5q328 0 328 -374q0 -85 -13.5 -230.5
t-13.5 -174.5q0 -89 50 -133q8 -7 26 -20.5t24.5 -19.5t13 -20t6.5 -31q0 -68 -93 -68q-31 0 -90.5 3t-88.5 3q-38 0 -90.5 -3t-91.5 -3q-67 0 -67 64q0 14 1.5 27.5t5.5 27t6.5 21.5t7.5 21.5t6 16.5q16 45 28.5 166.5t12.5 239.5q0 129 -38.5 189.5t-115.5 60.5
q-53 0 -100.5 -45t-47.5 -126v-339q0 -71 6.5 -102t28.5 -57q9 -10 29.5 -27t29 -32t8.5 -38q0 -68 -87 -68q-32 0 -94.5 3t-90.5 3q-36 0 -107.5 -3t-117.5 -3q-36 0 -53 17.5t-17 46.5q0 17 7.5 34t15 26t21 22.5t16.5 17.5q55 69 55 177z" />
    <glyph glyph-name="i" unicode="i" horiz-adv-x="647" 
d="M158 1266q0 94 78.5 173.5t175.5 79.5q70 0 116.5 -42.5t46.5 -111.5q0 -93 -84 -161.5t-189 -68.5q-71 0 -107.5 36t-36.5 95zM550 994q0 -16 -5.5 -152t-5.5 -267v-257q0 -64 10.5 -97t35.5 -62q9 -10 28.5 -27t28 -32t8.5 -38q0 -68 -87 -68q-31 0 -98 3t-96 3
q-36 0 -107.5 -3t-117.5 -3q-36 0 -53 17.5t-17 46.5q0 17 7.5 34t15 26t21 22.5t16.5 17.5q55 69 55 177v337q0 94 -61 134q-18 13 -24 18t-14.5 18.5t-8.5 29.5q0 18 8 31t25.5 22.5t34.5 16t48 17t52 19.5q29 12 72 30.5t67.5 29t49.5 19t39 8.5q73 0 73 -71z" />
    <glyph glyph-name="j" unicode="j" horiz-adv-x="584" 
d="M33 1266q0 94 78.5 173.5t176.5 79.5q70 0 117 -43t47 -111q0 -93 -85 -161.5t-189 -68.5q-71 0 -108 36t-37 95zM416 575v-175q0 -106 4.5 -249t4.5 -158q0 -107 -34.5 -192t-94 -137.5t-135 -79.5t-161.5 -27q-52 0 -91.5 19.5t-39.5 44.5q0 15 7 24.5t27 22.5t31 23
q65 59 99 143t34 228v610q0 93 -62 134q-16 12 -24.5 19t-15.5 19.5t-7 27.5q0 18 8 31t25.5 22.5t34.5 16t48 17t52 19.5q29 12 72 30.5t67.5 29t49.5 19t39 8.5q73 0 73 -71q0 -16 -2.5 -62.5t-5.5 -138.5t-3 -218z" />
    <glyph glyph-name="k" unicode="k" horiz-adv-x="1272" 
d="M526 325q0 -105 65 -177q6 -7 24.5 -21.5t27.5 -28.5t9 -36q0 -68 -87 -68q-31 0 -100 3t-96 3q-37 0 -110 -3t-115 -3q-36 0 -53 17.5t-17 46.5q0 17 7.5 34t15 26t21 22.5t16.5 17.5q55 69 55 177v821q0 65 -64 99q-43 26 -43 60q0 16 7.5 27.5t25.5 21.5t34.5 16.5
t48 18t51.5 19.5q36 14 89 39t84 36.5t53 11.5q33 0 53 -17.5t20 -53.5q0 -29 -9 -275.5t-9 -496.5q0 -60 17 -60q18 0 72 40t104 99t50 100q0 20 -39 68.5t-39 72.5q0 36 23 52.5t56 16.5q34 0 104 -3.5t107 -3.5t93 5t92 5q95 0 95 -68q0 -17 -7 -31.5t-27.5 -31
t-31 -23.5t-42.5 -27q-139 -84 -311 -221q-13 -12 -13 -17q0 -8 15 -15q74 -29 128 -75.5t86 -98t57.5 -102t59 -102.5t73.5 -84q1 0 9 -6.5t14 -11.5t15.5 -14.5t15.5 -18.5t10.5 -21.5t4.5 -25.5t-4 -26t-19.5 -26.5t-40.5 -13.5q-23 0 -101 2t-117 2q-44 0 -107.5 -3.5
t-81.5 -3.5q-39 0 -63 17.5t-24 49.5q0 17 9.5 42t9.5 41q0 80 -70 178q-32 46 -70.5 72.5t-62.5 26.5q-32 0 -42.5 -22.5t-10.5 -70.5z" />
    <glyph glyph-name="l" unicode="l" horiz-adv-x="652" 
d="M548 1434q0 -45 -4.5 -151t-4.5 -275v-690q0 -64 10.5 -97t35.5 -62q9 -10 28.5 -27t28 -32t8.5 -38q0 -68 -87 -68q-31 0 -99 3t-95 3q-37 0 -110 -3t-115 -3q-36 0 -53 17.5t-17 46.5q0 17 7.5 34t15 26t21 22.5t16.5 17.5q55 69 55 177v821q0 65 -64 99q-43 26 -43 60
q0 16 7.5 27.5t25.5 21.5t34.5 16.5t48 18t51.5 19.5q36 14 89 39t84 36.5t53 11.5q33 0 53 -17.5t20 -53.5z" />
    <glyph glyph-name="m" unicode="m" horiz-adv-x="1847" 
d="M1121 916q7 0 36.5 23.5t67 51t100 51t127.5 23.5q166 0 240.5 -97t74.5 -277q0 -85 -12 -231t-12 -174q0 -91 48 -133q9 -9 25 -21.5t23.5 -19t14 -20t6.5 -30.5q0 -68 -95 -68q-29 0 -89 3t-86 3q-37 0 -85 -3t-87 -3q-33 0 -49 18t-16 46q0 45 24 114q15 44 27 165
t12 241q0 250 -141 250q-46 0 -90 -45t-44 -133q0 -85 -1.5 -210t-1.5 -154q0 -99 33 -133q8 -8 23 -21t21 -19.5t11.5 -20t5.5 -30.5q0 -68 -93 -68q-30 0 -81.5 3t-77.5 3q-37 0 -85 -3t-87 -3q-33 0 -49.5 18t-16.5 46q0 17 3 35.5t6 28.5t9 29t7 21q15 44 26 164.5
t11 241.5q0 250 -141 250q-46 0 -90.5 -45t-44.5 -126v-339q0 -70 6.5 -101.5t27.5 -57.5q8 -10 27.5 -27t27.5 -32t8 -38q0 -68 -85 -68q-31 0 -89 3t-85 3q-36 0 -109.5 -3t-114.5 -3q-68 0 -68 64q0 23 8.5 40.5t28 38t20.5 21.5q55 71 55 177v373q0 76 -60 107
q-14 9 -20 13.5t-15 18t-9 30.5q0 21 15.5 37t33 24t57 22.5t62.5 25.5q37 17 70 34t47 24.5t28 12.5t27 5q35 0 55 -17.5t31 -61.5q13 -63 29 -63q7 0 35 22.5t62.5 50t91.5 50t115 22.5q153 0 234 -101q6 -7 12.5 -16t10.5 -14t8 -9.5t7.5 -6.5t7.5 -2z" />
    <glyph glyph-name="n" unicode="n" 
d="M1200 691q0 -85 -14 -231t-14 -174q0 -88 52 -133q9 -8 26 -21t24 -19.5t13.5 -20t6.5 -30.5q0 -68 -94 -68q-30 0 -90 3t-89 3q-37 0 -89.5 -3t-91.5 -3q-35 0 -51.5 18t-16.5 46q0 17 3.5 35.5t6.5 28.5t10 29t8 21q15 46 28 168t13 238q0 250 -154 250
q-54 0 -101.5 -44.5t-47.5 -126.5v-339q0 -70 6.5 -101.5t29.5 -57.5q9 -11 29 -27.5t28.5 -31.5t8.5 -38q0 -68 -87 -68q-32 0 -94.5 3t-89.5 3q-37 0 -110 -3t-115 -3q-70 0 -70 64q0 17 7 34t15 26.5t20.5 22.5t16.5 17q56 69 56 177v373q0 73 -66 109q-41 25 -41 60
q0 21 15 37t32 24t56 23t62 25q36 16 70.5 33.5t49 25t29.5 12.5t29 5q34 0 54 -17.5t32 -61.5q13 -63 31 -63q7 0 36.5 22.5t67 50t100.5 50t127 22.5q327 0 327 -374z" />
    <glyph glyph-name="o" unicode="o" horiz-adv-x="1150" 
d="M82 514q0 244 146.5 397.5t374.5 153.5q87 0 167.5 -23.5t149.5 -71.5t120.5 -115t80.5 -159.5t29 -199.5q0 -126 -42 -225.5t-116 -162.5t-170 -95.5t-207 -32.5q-241 0 -387 149.5t-146 384.5zM571 881q-50 0 -83.5 -54.5t-33.5 -180.5q0 -194 56 -322
q57 -124 150 -124q58 0 96.5 48.5t38.5 154.5q0 76 -19 167.5t-49 160.5q-32 73 -73 111.5t-83 38.5z" />
    <glyph glyph-name="p" unicode="p" horiz-adv-x="1204" 
d="M1170 559q0 -133 -39.5 -243.5t-106.5 -183t-153.5 -112.5t-182.5 -40q-52 0 -91 9.5t-59.5 19t-27.5 9.5q-20 0 -20 -53v-67q0 -33 5 -57t18.5 -43.5t22.5 -28t31 -27.5q7 -6 27 -19.5t29 -21t18 -23t9 -34.5q0 -68 -87 -68q-30 0 -119.5 3t-118.5 3q-37 0 -112 -3
t-117 -3q-69 0 -69 65q0 23 9 40t30 38l20 21q56 68 56 177v791q0 72 -66 109q-41 25 -41 60q0 17 7.5 29.5t25 23t34 17t47 18.5t51.5 21q36 16 70 33.5t48.5 25t29.5 12.5t29 5q35 0 54.5 -17t31.5 -62q4 -17 6 -24.5t6 -18.5t9 -15.5t11 -4.5t21.5 15t39 36t54.5 42.5
t79 36.5t101 15q122 0 209 -67t129 -180t42 -259zM636 829q-63 0 -107 -77t-44 -222q0 -91 7.5 -156.5t19 -102.5t30.5 -57.5t37 -26.5t44 -6q70 0 120.5 78.5t50.5 248.5q0 169 -43 245t-115 76z" />
    <glyph glyph-name="q" unicode="q" horiz-adv-x="1183" 
d="M1122 649v-732q0 -106 57 -177q4 -5 16.5 -17.5t20.5 -22t15 -26t7 -33.5q0 -29 -17.5 -47t-53.5 -18q-41 0 -127 3t-127 3q-44 0 -114 -3t-98 -3q-87 0 -87 68q0 19 9 34.5t19 23.5t28.5 20.5t26.5 19.5q26 22 42.5 44.5t32 79.5t15.5 138v74q0 43 -16 43
q-5 0 -27.5 -22t-53 -48.5t-88.5 -48.5t-124 -22q-120 0 -208.5 68t-132 181t-43.5 257q0 139 39 250t107 182t158 109t194 38q70 0 175 -35t122 -35q41 0 88 25q14 7 35.5 19.5t36 18.5t27.5 6q28 0 43.5 -15t15.5 -40q0 -12 -6.5 -124.5t-6.5 -235.5zM640 230
q68 0 103.5 69.5t35.5 238.5q0 334 -145 334q-72 0 -117.5 -72.5t-45.5 -238.5q0 -168 46.5 -249.5t122.5 -81.5z" />
    <glyph glyph-name="r" unicode="r" horiz-adv-x="984" 
d="M642 792q-48 0 -76 -55t-28 -130v-272q0 -69 14 -105t57 -73q10 -9 38.5 -24.5t43.5 -31t15 -39.5q0 -68 -86 -68q-25 0 -105.5 3t-145.5 3q-37 0 -108 -3t-117 -3q-70 0 -70 64q0 17 7 34t15 26.5t20.5 22.5t16.5 17q56 69 56 177v373q0 73 -66 109q-41 25 -41 60
q0 21 15 37t32 24t56 23t62 25q36 16 70.5 33.5t49 25t29.5 12.5t29 5q34 0 54 -17.5t32 -61.5q13 -63 31 -63q7 0 31 22.5t54 50t80.5 50t103.5 22.5q91 0 149.5 -58.5t58.5 -184.5q0 -96 -62.5 -176t-146.5 -80q-27 0 -44 6.5t-27.5 25.5t-15 34t-12.5 50q-1 6 -2 9
q-22 101 -67 101z" />
    <glyph glyph-name="s" unicode="s" horiz-adv-x="973" 
d="M558 1069q95 0 186 -19t128 -57q65 -65 65 -200q0 -42 -21 -66.5t-52 -24.5q-24 0 -45 16t-51 49q-63 65 -92 86q-63 45 -134 45q-49 0 -75 -23t-26 -59q0 -12 2.5 -21.5t9 -18t12.5 -15.5t19.5 -14.5t24 -12.5t31.5 -13t35.5 -13.5t42.5 -15.5t47 -17q55 -20 94.5 -38
t84.5 -49t73 -66.5t47 -88.5t19 -118q0 -153 -124 -249t-327 -96q-95 0 -198.5 26t-157.5 77q-28 25 -45.5 81.5t-17.5 130.5q0 42 19 66.5t56 24.5q27 0 70 -45q4 -4 25 -27t30 -32.5t30.5 -29.5t38.5 -29.5t40.5 -21.5t49 -17t53.5 -5q46 0 72 23.5t26 61.5q0 23 -12.5 41
t-38.5 33t-53 26.5t-71.5 30.5t-77.5 36q-44 22 -69 36.5t-61.5 43t-56 57t-34.5 74t-15 99.5q0 148 123.5 243t300.5 95z" />
    <glyph glyph-name="t" unicode="t" horiz-adv-x="803" 
d="M507 792q-8 -92 -8 -323q0 -95 33 -152t103 -57q11 0 22 2t18.5 4.5t17.5 8t14 8t14 9.5t11 8q17 12 29 12q34 0 34 -57q0 -31 -22 -82q-36 -76 -121 -134.5t-209 -58.5q-301 0 -301 374q0 40 7 182.5t7 215.5q0 66 -51 76q-87 12 -87 62q0 78 52 105q110 60 199 144
q33 31 65 77.5t54 69t52 22.5q34 0 55.5 -26t21.5 -78q0 -20 -2.5 -62t-5 -77t-2.5 -38q0 -10 9 -10q11 0 80.5 4.5t84.5 4.5q43 0 63 -16.5t20 -62.5q0 -30 -13.5 -67t-32.5 -59q-14 -14 -46 -14q-11 0 -69 3.5t-77 3.5q-17 0 -19 -22z" />
    <glyph glyph-name="u" unicode="u" horiz-adv-x="1284" 
d="M1149 685v-366q0 -32 15.5 -56.5t47.5 -24.5q9 0 23 3t21 3q10 0 16.5 -13t6.5 -31q0 -94 -70.5 -156.5t-172.5 -62.5q-147 0 -211 112q-12 24 -27 24q-5 0 -32 -23q-25 -22 -43 -35t-55 -34.5t-83.5 -33t-99.5 -11.5q-338 0 -338 369q0 81 12.5 222.5t12.5 157.5
q0 75 -47 121q-9 9 -32.5 25.5t-32.5 30.5t-9 37q0 61 94 70q88 9 159.5 21.5t106.5 19.5t55 7q74 0 74 -79q0 -56 -16.5 -212t-16.5 -304q0 -126 35 -188.5t116 -62.5q59 0 101 45.5t42 145.5v276q0 70 -8 103t-34 61q-9 10 -28.5 27t-28 32t-8.5 38q0 60 90 70
q73 8 146.5 20t116.5 20t58 8q67 0 67 -78q0 -25 -11.5 -112t-11.5 -186z" />
    <glyph glyph-name="v" unicode="v" horiz-adv-x="1124" 
d="M985 744q-86 -235 -159 -428q-7 -18 -26.5 -70t-27.5 -71t-26.5 -52.5t-39.5 -60.5q-26 -34 -84 -56.5t-107 -22.5q-52 0 -72 23.5t-49 98.5q-3 7 -4 10q-6 17 -33 81.5t-67 159.5t-70 172q-113 282 -173 343q-43 49 -53 71q-8 19 -8 40q0 32 19.5 50.5t56.5 18.5
q33 0 90.5 -3.5t91.5 -3.5q32 0 101.5 3.5t104.5 3.5q41 0 60 -17t19 -62q0 -18 -26 -57t-26 -72q0 -50 73 -229q8 -19 19 -46t18 -43.5t15.5 -37t14.5 -32.5t12 -23.5t10.5 -16.5t8.5 -5q9 0 21.5 22.5t28.5 71.5t26 83.5t29 99.5q25 78 25 115q0 41 -20 73.5t-39.5 58.5
t-19.5 50q0 31 19.5 49t48.5 18q25 0 82.5 -3.5t80.5 -3.5q28 0 68.5 3.5t56.5 3.5q66 0 66 -62q0 -27 -12.5 -48t-30.5 -37t-44.5 -58t-48.5 -102z" />
    <glyph glyph-name="w" unicode="w" horiz-adv-x="1665" 
d="M869 437q-8 31 -19 31q-10 0 -21 -28q-4 -12 -25 -78t-31 -93.5t-28.5 -76.5t-35.5 -79.5t-34 -50.5q-28 -32 -87 -55t-107 -23q-52 0 -72.5 24.5t-51.5 105.5q-3 8 -28.5 83t-58 167t-59.5 164q-107 286 -165 343q-30 31 -45 55.5t-15 55.5q0 32 19.5 50.5t56.5 18.5
q31 0 87 -3.5t90 -3.5q31 0 100.5 3.5t104.5 3.5q86 0 86 -75q0 -21 -28.5 -60.5t-28.5 -72.5q0 -76 55 -229q34 -98 50.5 -137t27.5 -39q14 0 28 43t40 153q5 22 8 34q15 62 31 158t24 123q14 45 71.5 72.5t122.5 27.5q92 0 115 -71q3 -8 38 -148.5t58 -212.5
q55 -175 75 -175q32 0 82 243q21 76 21 117t-19.5 73.5t-39 58.5t-19.5 50q0 31 19 49t48 18q25 0 86 -3.5t84 -3.5q27 0 64.5 3.5t51.5 3.5q67 0 67 -62q0 -27 -12 -48t-29 -37t-42.5 -58t-45.5 -102q-29 -83 -78 -237.5t-61 -190.5q-6 -17 -23 -71t-24.5 -73.5t-24 -52.5
t-36.5 -57q-28 -33 -83.5 -55.5t-106.5 -22.5q-48 0 -74 28.5t-48 88.5q-86 257 -105 336z" />
    <glyph glyph-name="x" unicode="x" horiz-adv-x="1208" 
d="M548 358q-14 0 -56.5 -65t-42.5 -94t33 -67t33 -70q0 -35 -25 -51t-59 -16q-17 0 -82.5 2.5t-98.5 2.5q-43 0 -97.5 -2.5t-57.5 -2.5q-39 0 -57 15t-18 48q0 6 1.5 12.5t3.5 11.5t6.5 11t8 10.5t10.5 11t11.5 10t14 11t14 10.5t15.5 11.5t16 11.5q90 68 314 310
q9 11 9 21q0 9 -13 24q-189 251 -247 311q-27 28 -65.5 54.5t-54.5 45t-16 51.5q0 30 23 47t60 17q33 0 99 -3t98 -3q34 0 105.5 3t97.5 3q87 0 87 -78q0 -21 -16.5 -48.5t-16.5 -46.5q0 -31 41.5 -99t53.5 -68q13 0 54 63.5t41 96.5q0 20 -32.5 53t-32.5 60q0 36 22.5 52
t55.5 16q17 0 62 -3.5t78 -3.5q42 0 98 3t61 3q39 0 57.5 -15t18.5 -50q0 -18 -14 -37.5t-28.5 -31t-46.5 -34.5q-7 -5 -11 -8q-28 -21 -68.5 -59.5t-69.5 -70.5t-70 -78t-51 -57q-11 -10 -11 -22q0 -8 10 -20q83 -95 171.5 -210.5t110.5 -138.5q22 -22 51 -46.5t41.5 -36
t22.5 -30.5t10 -44q0 -30 -24.5 -48.5t-61.5 -18.5q-33 0 -105 3t-105 3q-34 0 -104.5 -3t-95.5 -3q-88 0 -88 78q0 22 19 53.5t19 50.5q0 28 -51 105t-65 77z" />
    <glyph glyph-name="y" unicode="y" horiz-adv-x="1134" 
d="M999 744q-126 -342 -174 -453q-123 -294 -151 -354q-112 -239 -222 -324q-81 -64 -178 -64q-94 0 -155 56.5t-61 147.5q0 80 45.5 134.5t110.5 54.5q51 0 91 -44q8 -8 22 -25t21.5 -25t20 -15.5t25.5 -7.5q25 0 51.5 32t26.5 67q0 31 -29 106.5t-81.5 192.5t-69.5 160
q-175 421 -239 488q-22 25 -31.5 36t-19.5 32t-10 43q0 32 20 50.5t57 18.5q33 0 90.5 -3.5t91.5 -3.5q32 0 101 3.5t105 3.5q41 0 60.5 -17t19.5 -62q0 -18 -27 -57t-27 -72q0 -50 76 -229q72 -171 86 -192q7 -12 12 -12q8 0 19 20t23.5 53.5t25.5 74.5t27 86q7 22 10 33
q30 88 30 125q0 41 -20 73.5t-40 58.5t-20 50q0 31 19 49t48 18q26 0 84 -3.5t81 -3.5q28 0 68.5 3.5t56.5 3.5q68 0 68 -62q0 -27 -12.5 -48t-31 -37t-45.5 -58t-49 -102z" />
    <glyph glyph-name="z" unicode="z" horiz-adv-x="950" 
d="M88 135l407 502q53 66 53 89q0 7 -7.5 11.5t-39.5 8t-91 3.5q-112 0 -202 -37q-9 -4 -25.5 -11.5t-24 -10.5t-19.5 -6t-22 -3q-45 0 -45 56q0 31 37 161q4 14 10.5 45.5t11 47.5t14 36t23.5 28.5t34 8.5q8 0 111.5 -10t288.5 -10q62 0 152 5.5t123 5.5q31 0 46.5 -13
t15.5 -48q0 -13 -11 -41t-34 -56l-384 -482q-54 -66 -54 -86q0 -12 15 -16.5t61 -4.5q154 0 278 66q15 8 39.5 23.5t37.5 21t28 5.5q42 0 42 -59q0 -32 -20.5 -129.5t-28.5 -163.5q-11 -88 -89 -88q-6 0 -132 8t-361 8q-71 0 -124.5 -3t-90.5 -3q-64 0 -64 49q0 42 41 92z
" />
    <glyph glyph-name="braceleft" unicode="{" horiz-adv-x="748" 
d="M496 575q0 -7 16.5 -14t40.5 -17.5t48 -29t40.5 -57.5t16.5 -93q0 -70 -38 -212.5t-38 -203.5q0 -127 110 -164q12 -4 35 -10.5t36.5 -11t29 -12.5t23 -19t7.5 -26q0 -32 -37 -44.5t-108 -12.5q-95 0 -169 17t-120 44.5t-75.5 65.5t-41 76t-11.5 80q0 76 57 243t57 229
q0 38 -13 62.5t-31.5 35.5t-36.5 19.5t-31 21t-13 33.5t13 34t31 21.5t36.5 19.5t31.5 35.5t13 62.5q0 62 -57 229t-57 243q0 42 11.5 80t41 76t75.5 65.5t120 44.5t169 17q71 0 108 -12.5t37 -44.5q0 -19 -13.5 -32.5t-28.5 -19t-45 -14.5t-44 -14q-110 -37 -110 -163
q0 -61 38 -203.5t38 -212.5q0 -54 -16.5 -93t-40.5 -57.5t-48 -29.5t-40.5 -18t-16.5 -14z" />
    <glyph glyph-name="bar" unicode="|" horiz-adv-x="620" 
d="M621 1451v-1821q0 -26 -21 -40t-81 -14q-71 0 -95.5 12t-24.5 47v1821q0 26 21 40t81 14q71 0 95.5 -12t24.5 -47z" />
    <glyph glyph-name="braceright" unicode="}" horiz-adv-x="748" 
d="M428 575q0 7 -17 14t-41 18t-47.5 29.5t-40.5 57.5t-17 93q0 69 39 212t39 204q0 126 -112 163q-14 5 -44 14t-45 14.5t-28.5 19t-13.5 32.5q0 57 146 57q95 0 169 -17t120 -44.5t75.5 -65.5t41 -76t11.5 -80q0 -76 -56.5 -243t-56.5 -229q0 -38 13 -62.5t31 -35.5
t36 -19.5t31 -21.5t13 -34t-13 -33.5t-31 -21t-36 -19.5t-31 -35.5t-13 -62.5q0 -62 56.5 -229t56.5 -243q0 -42 -11.5 -80t-41 -76t-75.5 -65.5t-120 -44.5t-169 -17q-146 0 -146 57q0 15 7.5 26t23 19t29 12.5t36.5 11t35 10.5q112 37 112 164q0 60 -39 203t-39 213
q0 54 17 93t41 57.5t47.5 29t40.5 17.5t17 14z" />
    <glyph glyph-name="asciitilde" unicode="~" horiz-adv-x="1101" 
d="M178 599q0 107 72 180t178 73q54 0 118.5 -22t113 -48t104 -48t94.5 -22t65.5 15t38.5 36t20.5 42.5t17 36.5t21.5 15q27 0 54 -41.5t27 -108.5q0 -108 -71.5 -178t-183.5 -70q-59 0 -126.5 24.5t-117.5 54t-107.5 54t-97.5 24.5q-41 0 -69 -21t-38.5 -46t-24 -46
t-28.5 -21q-21 0 -40.5 31.5t-19.5 85.5z" />
    <glyph glyph-name="uni00A0" unicode="&#xa0;" horiz-adv-x="512" 
 />
    <glyph glyph-name="exclamdown" unicode="&#xa1;" horiz-adv-x="603" 
d="M603 882q0 -91 -60.5 -145.5t-146.5 -54.5q-77 0 -130 46t-53 131q0 93 62 149.5t143 56.5q76 0 130.5 -48.5t54.5 -134.5zM216 -174q0 29 4 66.5t14 93t16.5 92t23.5 111t22 97.5t24.5 105t20.5 84q22 89 70 89q26 0 44 -22t34 -63q37 -96 70 -310t33 -324
q0 -108 -50 -164t-145 -56q-88 0 -134.5 51.5t-46.5 149.5z" />
    <glyph glyph-name="cent" unicode="&#xa2;" horiz-adv-x="1187" 
d="M816 1525q0 -22 -10 -282q140 -16 235.5 -92.5t95.5 -191.5q0 -84 -49.5 -137.5t-91.5 -53.5q-35 0 -48 16t-24 65q-20 83 -47.5 136t-78.5 79q-4 -104 -13 -310t-12 -281q194 4 319 120q23 19 36 19q39 0 39 -73q0 -63 -28.5 -127t-80 -117t-129.5 -90t-169 -45
l-11 -276q-2 -27 -33.5 -48t-73.5 -21q-25 0 -33.5 11t-8.5 39q0 19 10 301q-193 32 -308.5 175.5t-115.5 342.5q0 213 127.5 370.5t341.5 186.5q9 231 15 276q3 23 34 44t71 21q25 0 33 -15t8 -42zM450 801q0 -108 48 -184t126 -113l24 579q-86 -15 -142 -92t-56 -190z" />
    <glyph glyph-name="sterling" unicode="&#xa3;" horiz-adv-x="1187" 
d="M61 557q0 39 49.5 68t110.5 44q27 6 27 26q0 7 -24 50t-48 107.5t-24 125.5q0 109 41 196t110.5 141t156.5 82.5t182 28.5q108 0 207 -37.5t156 -98.5q66 -71 66 -214q0 -119 -56 -119q-19 0 -35 8.5t-24.5 17.5t-28.5 34t-32 39q-77 88 -132 126t-140 38
q-69 0 -112.5 -47.5t-43.5 -111.5q0 -115 136 -270q28 -33 57 -33q18 0 116 17.5t123 17.5q49 0 49 -50q0 -39 -26 -81t-63 -56q-19 -8 -163 -22q-17 -1 -22.5 -7.5t-6.5 -18.5q-21 -110 -104 -186q-27 -24 -27 -33q0 -10 20 -10q51 -2 171 -31t165 -29q76 0 120 44.5
t71 126.5q22 66 57 66q48 0 48 -88q0 -62 -7.5 -118.5t-29 -117.5t-55.5 -104.5t-93 -72t-135 -28.5q-70 0 -166 31.5t-184.5 63t-140.5 31.5q-28 0 -53 -11.5t-44 -28t-37.5 -33.5t-41.5 -28.5t-47 -11.5q-33 0 -52 21t-19 47q0 24 15.5 46t40 41.5t54 40.5t59.5 45
t54.5 50.5t40 63.5t15.5 79q0 99 -112 99q-15 0 -66 -7.5t-70 -7.5q-53 0 -53 49z" />
    <glyph glyph-name="currency" unicode="&#xa4;" horiz-adv-x="1187" 
d="M266 653q0 124 70 228l-137 125q-23 23 -23 45q0 25 39 67t65 42q18 0 36 -18l134 -147q101 69 229 69q124 0 229 -69l134 147q18 18 36 18q27 0 65.5 -42t38.5 -69q0 -22 -23 -43l-137 -125q68 -101 68 -228q0 -125 -70 -229l147 -134q19 -19 19 -36q0 -26 -42 -64.5
t-68 -38.5q-22 0 -44 22l-126 136q-104 -68 -227 -68q-129 0 -229 70l-136 -146q-21 -19 -36 -19q-26 0 -65 43t-39 69q0 20 23 43l139 125q-70 101 -70 227zM485 653q0 -83 55 -143t139 -60t138.5 60t54.5 143t-54.5 143.5t-138.5 60.5t-139 -60.5t-55 -143.5z" />
    <glyph glyph-name="yen" unicode="&#xa5;" horiz-adv-x="1276" 
d="M1103 554h-241q-24 0 -31 -15t-7 -43q0 -56 39 -56h323q40 0 40 -44q0 -49 -32.5 -85t-90.5 -36h-243q4 -33 17 -58.5t23 -36.5t31 -29q7 -6 26 -20.5t26.5 -22t15.5 -21.5t8 -29q0 -27 -24 -45.5t-65 -18.5q-35 0 -130.5 3t-132.5 3q-40 0 -134.5 -3t-130.5 -3
q-41 0 -64 17.5t-23 46.5q0 15 8 29t15.5 20.5t27 21t25.5 19.5q19 16 30.5 29t23.5 38.5t16 59.5h-315q-43 0 -43 49q0 45 34 80.5t83 35.5h231q41 0 41 57q0 29 -8.5 43t-31.5 14h-306q-43 0 -43 47q0 45 34 81t83 36h205q-154 258 -298 460q-19 27 -47.5 51.5t-41 43
t-12.5 47.5q0 79 129 79q15 0 74 -3t91 -3q76 0 141.5 3t91.5 3q45 0 70 -19.5t25 -52.5q0 -30 -38 -77.5t-38 -84.5q0 -31 34.5 -114.5t77.5 -156t62 -72.5q17 0 57 72t73.5 155.5t33.5 113.5q0 38 -20 67t-39.5 53t-19.5 49q0 67 92 67q23 0 74 -3t79 -3q21 0 65.5 3
t69.5 3q74 0 74 -64q0 -23 -8.5 -39t-33 -41t-33.5 -36q-59 -67 -159.5 -223.5t-162.5 -277.5h310q40 0 40 -44q0 -49 -32.5 -84.5t-90.5 -35.5z" />
    <glyph glyph-name="brokenbar" unicode="&#xa6;" horiz-adv-x="620" 
d="M621 1451v-732q0 -26 -21 -39.5t-81 -13.5q-71 0 -95.5 12t-24.5 47v731q0 26 21 40t81 14q71 0 95.5 -12t24.5 -47zM621 361v-731q0 -26 -21 -40t-81 -14q-71 0 -95.5 12t-24.5 47v733q0 26 21 39.5t81 13.5q71 0 95.5 -12.5t24.5 -47.5z" />
    <glyph glyph-name="section" unicode="&#xa7;" horiz-adv-x="1187" 
d="M1171 544q0 -56 -15.5 -102.5t-37.5 -74t-44.5 -47.5t-38 -32.5t-15.5 -19.5q0 -8 15 -22t36 -35.5t42 -51t36 -76.5t15 -103q0 -121 -65 -214t-172 -141.5t-236 -48.5q-93 0 -178.5 26t-147.5 67.5t-109 91.5t-70.5 99t-23.5 88q0 54 38 54q8 0 15.5 -3t15.5 -10.5
t13.5 -13.5t15 -18t15.5 -18q55 -66 154.5 -118.5t218.5 -52.5q108 0 158.5 42t50.5 104q0 40 -29 70.5t-76 48.5t-107.5 38t-123 37t-123 47.5t-107.5 68.5t-76 101t-29 144q0 48 15 91.5t36 72t42.5 51t36.5 37.5t15 22q0 8 -21 30.5t-45.5 51t-45.5 83.5t-21 120
q0 167 134 282.5t352 115.5q112 0 213 -31t152 -87q66 -71 66 -201q0 -118 -55 -118q-14 0 -26.5 5.5t-25 17t-21 21t-22.5 28t-21 26.5q-67 78 -136.5 120t-155.5 42q-91 0 -139.5 -38t-48.5 -98q0 -39 24 -68.5t65 -49.5t94 -36.5t112 -33.5t117.5 -36.5t111.5 -49
t94 -67.5t65 -96.5t24 -131.5zM932 436q0 45 -50.5 89t-121.5 73t-142.5 46.5t-117.5 17.5t-69.5 -24t-23.5 -59q0 -45 49.5 -88t119 -71.5t141 -46t120.5 -17.5q47 0 71 23.5t24 56.5z" />
    <glyph glyph-name="dieresis" unicode="&#xa8;" horiz-adv-x="864" 
d="M312 1501q68 0 111.5 -42t43.5 -108q0 -76 -55 -126.5t-131 -50.5q-61 0 -103.5 40t-42.5 103q0 72 50.5 128t126.5 56zM711 1501q67 0 110 -42t43 -108q0 -76 -54.5 -126.5t-130.5 -50.5q-62 0 -104.5 40t-42.5 103q0 72 51.5 128t127.5 56z" />
    <glyph glyph-name="copyright" unicode="&#xa9;" horiz-adv-x="1689" 
d="M205 696q0 204 95 371t265.5 263.5t382.5 96.5q159 0 297 -56.5t235.5 -153.5t153.5 -232.5t56 -288.5q0 -154 -56 -289.5t-153.5 -232.5t-235.5 -153t-297 -56q-212 0 -382.5 96t-265.5 263t-95 372zM358 696q0 -93 24 -180t73.5 -162.5t119 -132t165.5 -89t208 -32.5
q138 0 251.5 49.5t186 132.5t111.5 189.5t39 224.5q0 93 -24 180t-73.5 162.5t-119 132t-165.5 89t-208 32.5q-138 0 -251.5 -49.5t-186 -133t-111.5 -190t-39 -223.5zM502 682q0 133 55 244t164.5 180t254.5 69q134 0 226 -62.5t92 -164.5q0 -75 -48 -123t-134 -48
q-34 0 -52 16t-25 53q-22 93 -38 123q-29 52 -77 52q-57 0 -89 -55.5t-32 -142.5q0 -136 71 -225t196 -89q19 0 37 2t34.5 7t29 9t26.5 12t22 12.5t20.5 15t16.5 14t15.5 14t12.5 11.5q20 18 34 18q34 0 34 -64q0 -59 -28.5 -118t-78 -106.5t-126.5 -77.5t-165 -30
q-203 0 -325.5 129t-122.5 325z" />
    <glyph glyph-name="ordfeminine" unicode="&#xaa;" horiz-adv-x="819" 
d="M304 1072q35 13 79 24t72 18.5t38 15.5q20 16 20 76q0 48 -22 78.5t-61 30.5q-64 0 -100 -115q-10 -37 -29.5 -57t-58.5 -20q-47 0 -78.5 31t-31.5 86q0 74 81 130t218 56q68 0 125 -14.5t106 -46.5t76.5 -89t27.5 -135q0 -45 -4 -120.5t-4 -115.5q0 -55 41 -55
q6 0 15.5 1t14.5 1q7 0 11.5 -9.5t4.5 -20.5q0 -69 -50 -113t-122 -44q-97 0 -139 66q-8 12 -15 12q-6 0 -17 -11q-34 -30 -84.5 -50t-102.5 -20q-95 0 -154 46.5t-59 134.5q0 155 202 229zM514 945q0 61 -10 61q-30 0 -71 -18q-34 -14 -56.5 -40.5t-22.5 -58.5
q0 -28 17 -46t47 -18q48 0 72 34.5t24 85.5z" />
    <glyph glyph-name="guillemotleft" unicode="&#xab;" horiz-adv-x="1083" 
d="M526 561q0 -7 3 -13.5t7 -12.5t15 -21.5t21 -31.5q48 -73 78.5 -148t30.5 -114q0 -49 -40 -49q-30 0 -66 42q-117 128 -228 214q-14 11 -43.5 32.5t-43.5 33t-26.5 30.5t-12.5 38t12.5 38t26.5 30.5t43.5 33t43.5 32.5q115 90 228 214q14 16 21 22.5t19.5 13t25.5 6.5
q40 0 40 -49q0 -39 -30.5 -114t-78.5 -148q-10 -16 -21 -31.5t-15 -21.5t-7 -12.5t-3 -13.5zM929 561q0 -7 3 -13.5t7 -12.5t15 -21.5t21 -31.5q48 -73 78 -148t30 -114q0 -49 -40 -49q-29 0 -65 42q-117 128 -228 214q-14 11 -43.5 32.5t-43.5 33t-26.5 30.5t-12.5 38
t12.5 38t26.5 30.5t43.5 33t43.5 32.5q115 90 228 214q15 17 21 23t18.5 12.5t25.5 6.5q40 0 40 -49q0 -39 -30 -114t-78 -148q-10 -16 -21 -31.5t-15 -21.5t-7 -12.5t-3 -13.5z" />
    <glyph glyph-name="logicalnot" unicode="&#xac;" horiz-adv-x="1101" 
d="M1000 352q-70 0 -94.5 12.5t-24.5 47.5v314q0 20 -7.5 28t-28.5 8h-632q-35 0 -35 41q0 71 20 133q8 28 22 37.5t47 9.5h780q55 0 55 -64v-513q0 -26 -21.5 -40t-80.5 -14z" />
    <glyph glyph-name="uni00AD" unicode="&#xad;" horiz-adv-x="733" 
d="M594 424h-419q-64 0 -64 56q0 75 26 136q14 35 38.5 48.5t71.5 13.5h426q60 0 60 -56q0 -71 -26 -136q-15 -35 -40.5 -48.5t-72.5 -13.5z" />
    <glyph glyph-name="registered" unicode="&#xae;" horiz-adv-x="1689" 
d="M205 696q0 204 95 371t265.5 263.5t382.5 96.5q159 0 297 -56.5t235.5 -153.5t153.5 -232.5t56 -288.5q0 -154 -56 -289.5t-153.5 -232.5t-235.5 -153t-297 -56q-212 0 -382.5 96t-265.5 263t-95 372zM358 696q0 -93 24 -180t73.5 -162.5t119 -132t165.5 -89t208 -32.5
q138 0 251.5 49.5t186 132.5t111.5 189.5t39 224.5q0 93 -24 180t-73.5 162.5t-119 132t-165.5 89t-208 32.5q-138 0 -251.5 -49.5t-186 -133t-111.5 -190t-39 -223.5zM866 553v-60q0 -74 23 -111q5 -9 16.5 -22t16.5 -23.5t5 -24.5q0 -17 -16 -27.5t-39 -10.5
q-22 0 -65 2.5t-64 2.5q-26 0 -73.5 -2.5t-63.5 -2.5q-54 0 -54 37q0 18 11.5 32.5t26 37t18.5 56.5q10 63 10 291q0 151 -4 209q-4 46 -18.5 75.5t-26.5 46.5t-12 35q0 41 49 41q40 0 84.5 -1t86.5 -1q32 0 106.5 2t111.5 2q132 0 211.5 -49.5t79.5 -160.5
q0 -83 -47.5 -131t-128.5 -79q-6 0 -6 -10q2 -7 6 -9q110 -57 171 -232q22 -61 45 -93q7 -11 18 -21t16 -18t5 -20q0 -20 -14 -30t-34 -10q-12 0 -60 2.5t-64 2.5q-32 0 -78 -2.5t-51 -2.5q-25 0 -41.5 12.5t-16.5 30.5q0 11 8.5 34t8.5 38q0 51 -25.5 120t-51.5 92
q-23 17 -48 17q-32 0 -32 -65zM1014 874q0 61 -29 98.5t-76 37.5q-28 0 -35.5 -16t-7.5 -78v-81q0 -45 10.5 -65t43.5 -20q41 0 67.5 33t26.5 91z" />
    <glyph glyph-name="macron" unicode="&#xaf;" horiz-adv-x="864" 
d="M738 1213h-486q-57 0 -57 51q0 64 23 121q13 31 35 43.5t64 12.5h493q32 0 43 -13.5t11 -37.5q0 -63 -23 -120q-13 -32 -36.5 -44.5t-66.5 -12.5z" />
    <glyph glyph-name="degree" unicode="&#xb0;" horiz-adv-x="768" 
d="M442 1430q139 0 232 -93.5t93 -239.5q0 -147 -93 -244t-238 -97q-144 0 -239 97.5t-95 236.5q0 143 98 241.5t242 98.5zM449 1271q-69 0 -115 -48.5t-46 -123.5q0 -72 44 -118.5t112 -46.5t112.5 47t44.5 118q0 70 -40.5 121t-111.5 51z" />
    <glyph glyph-name="plusminus" unicode="&#xb1;" horiz-adv-x="1101" 
d="M751 1243v-292h316q35 0 35 -41q0 -69 -20 -134q-8 -27 -21.5 -36.5t-47.5 -9.5h-262v-306q0 -26 -21 -39.5t-81 -13.5q-71 0 -95.5 12t-24.5 47v300h-316q-35 0 -35 41q0 71 20 133q8 28 22 37.5t47 9.5h262v298q0 26 21 40t81 14q71 0 95.5 -12.5t24.5 -47.5zM1013 90
h-800q-35 0 -35 41q0 71 20 133q8 28 22 37.5t47 9.5h800q35 0 35 -41q0 -69 -20 -134q-8 -27 -21.5 -36.5t-47.5 -9.5z" />
    <glyph glyph-name="two.sups" unicode="&#xb2;" horiz-adv-x="728" 
d="M326 944q0 -10 62 -10q148 0 235 59q46 32 63 32q30 0 30 -39q0 -21 -14.5 -83.5t-19.5 -98.5q-4 -32 -17 -41t-47 -9q-14 0 -96 1t-155 1q-40 0 -142.5 -1t-123.5 -1q-40 0 -40 30q0 27 39 66l125 126q82 81 128.5 144t46.5 118q0 47 -32 70t-81 23q-70 0 -133 -58
q-19 -15 -29 -15q-22 0 -22 44q0 32 17.5 66.5t50 66.5t88 53t123.5 21q105 0 175 -51.5t70 -144.5q0 -44 -17 -85t-49.5 -78t-62.5 -64t-74 -61q-11 -9 -28 -21.5t-27.5 -20.5t-21.5 -16.5t-16 -14t-5 -8.5z" />
    <glyph glyph-name="three.sups" unicode="&#xb3;" horiz-adv-x="702" 
d="M636 1355q-27 -34 -54.5 -61t-50.5 -47t-30 -27q-14 -12 -14 -16q0 -2 0.5 -3t2.5 -2t4 -1.5t5 -1.5l6 -2q86 -30 140.5 -82.5t54.5 -129.5q0 -103 -88 -171.5t-220 -68.5q-72 0 -134 23t-100.5 59t-60 76t-21.5 76q0 34 26 34q5 0 8 -1.5t8 -6.5t9 -8q88 -85 205 -85
q66 0 100 24t34 67q0 24 -12 43t-35 31t-38 17.5t-39 12.5q-45 13 -45 43q0 16 44 51q5 5 8 7q53 42 72.5 61t19.5 30q0 10 -70 10q-77 0 -115 -14.5t-63 -39.5q-5 -5 -12 -13t-10.5 -12.5t-10 -8t-13.5 -3.5q-27 0 -27 42q0 17 24 187q5 34 15.5 42.5t48.5 8.5q11 0 91 -2
t141 -2q71 0 144 2t74 2q14 0 24.5 -10t10.5 -24q0 -39 -57 -106z" />
    <glyph glyph-name="acute" unicode="&#xb4;" horiz-adv-x="607" 
d="M271 1249q36 73 71 164q13 33 23.5 54.5t28.5 48.5t44 40.5t59 13.5q52 0 80 -33.5t28 -80.5q0 -70 -67 -147q-50 -58 -123 -108t-120 -50t-47 40q0 10 23 58z" />
    <glyph glyph-name="mu" unicode="&#xb5;" horiz-adv-x="1216" 
d="M373 -24q-82 0 -131 62q-3 4 -8.5 11.5t-9 13t-7.5 10.5t-7.5 8t-5.5 3q-13 0 -13 -19q0 -7 18 -65t18 -112q0 -156 -92 -247.5t-234 -91.5q-65 0 -114 22t-49 50q0 14 8.5 29t16 22.5t33.5 32.5q91 90 153.5 367.5t62.5 606.5q0 75 -10.5 140t-10.5 85q0 62 131 112
q129 46 235 46q32 0 47.5 -18.5t15.5 -46.5q0 -27 -23 -131.5t-46 -236t-23 -223.5q0 -164 91 -164q55 0 98 78t64 193t21 241q0 33 -7 83t-7 61q0 69 106 111q61 23 134.5 34.5t111.5 11.5q67 0 67 -90q0 -31 -25.5 -141t-50.5 -242.5t-25 -217.5q0 -133 64 -133
q19 0 44.5 29t37.5 29q11 0 21 -14.5t10 -45.5q0 -95 -71.5 -171.5t-192.5 -76.5q-72 0 -121.5 36.5t-74.5 95.5q-1 2 -3.5 7.5t-4.5 8.5t-5.5 6t-6.5 3q-12 0 -26 -30q-33 -60 -86 -96t-118 -36z" />
    <glyph glyph-name="paragraph" unicode="&#xb6;" horiz-adv-x="1187" 
d="M545 -362l-1 959q0 39 -24 39q-2 0 -36.5 -5.5t-69.5 -5.5q-160 0 -259.5 104.5t-99.5 285.5q0 100 38.5 179t104 128t149 74.5t178.5 25.5q55 0 199 -14.5t215 -14.5q34 0 74 3t51 3q47 0 66 -18t19 -53q0 -27 -12.5 -45.5t-30.5 -33t-35.5 -34.5t-30 -62t-12.5 -103
v-1401q0 -34 -33 -53.5t-81 -19.5q-74 0 -74 62v1415q0 91 -18.5 134t-46.5 43q-42 0 -42 -84v-1497q0 -33 -34.5 -53t-81.5 -20q-72 0 -72 62z" />
    <glyph glyph-name="periodcentered" unicode="&#xb7;" horiz-adv-x="576" 
d="M573 550q0 -91 -60.5 -145.5t-146.5 -54.5q-77 0 -130.5 46.5t-53.5 131.5q0 92 62.5 149t143.5 57q76 0 130.5 -49t54.5 -135z" />
    <glyph glyph-name="cedilla" unicode="&#xb8;" horiz-adv-x="574" 
d="M246 -174q0 48 59.5 129.5t110.5 81.5q9 0 29.5 -14t20.5 -21q0 -3 -13 -38t-13 -49q0 -2 1.5 -4.5t4.5 -4l6 -3t7.5 -4t6.5 -3.5q109 -65 109 -168q0 -93 -65 -145.5t-163 -52.5q-75 0 -132 37.5t-57 70.5q0 16 8.5 24t20.5 8q9 0 42 -13t61 -13q31 0 52.5 16t21.5 45
q0 69 -95 90q-23 5 -23 31z" />
    <glyph glyph-name="one.sups" unicode="&#xb9;" horiz-adv-x="545" 
d="M398 1505q24 0 33.5 -10t9.5 -30q0 -23 -5.5 -130t-5.5 -188q0 -163 9 -231q4 -24 22.5 -40.5t38.5 -24t36 -21.5t16 -34q0 -18 -13 -30t-37 -12q-23 0 -87 1t-85 1q-23 0 -100 -1t-98 -1q-24 0 -37 12t-13 30q0 19 18 32.5t40.5 21t43 24.5t24.5 42q9 70 9 231
q0 122 -27 139q-26 16 -62 16q-40 0 -40 31q0 19 10.5 29.5t35.5 21.5q60 25 123 57t95.5 48t45.5 16z" />
    <glyph glyph-name="ordmasculine" unicode="&#xba;" horiz-adv-x="819" 
d="M70 1039q0 171 103 279t263 108q104 0 189.5 -45t139.5 -137.5t54 -216.5q0 -174 -106.5 -267.5t-269.5 -93.5q-168 0 -270.5 104t-102.5 269zM413 1295q-77 0 -77 -159q0 -136 40 -227q39 -86 101 -86q37 0 62.5 33.5t25.5 105.5q0 114 -48 229q-47 104 -104 104z" />
    <glyph glyph-name="guillemotright" unicode="&#xbb;" horiz-adv-x="1083" 
d="M376 561q0 7 -3 13.5t-7 12.5t-15 21.5t-21 31.5q-48 73 -78.5 148t-30.5 114q0 49 41 49q30 0 66 -42q115 -127 227 -214q13 -10 44 -32.5t43.5 -33t25.5 -30t13 -38.5t-13 -38.5t-25.5 -30t-43.5 -33t-44 -32.5q-116 -91 -227 -214q-38 -42 -66 -42q-41 0 -41 49
q0 39 30.5 114t78.5 148q10 16 21 31.5t15 21.5t7 12.5t3 13.5zM778 561q0 7 -3 13.5t-7 12.5t-15 21.5t-21 31.5q-48 73 -78 148t-30 114q0 49 41 49q29 0 65 -42q115 -127 227 -214q13 -10 44 -32.5t43.5 -33t25.5 -30t13 -38.5t-13 -38.5t-25.5 -30t-43.5 -33t-44 -32.5
q-116 -91 -227 -214q-14 -16 -21 -22.5t-19 -13t-25 -6.5q-41 0 -41 49q0 39 30 114t78 148q10 16 21 31.5t15 21.5t7 12.5t3 13.5z" />
    <glyph glyph-name="onequarter" unicode="&#xbc;" horiz-adv-x="1441" 
d="M398 1421q24 0 33.5 -10t9.5 -30q0 -23 -5.5 -130t-5.5 -188q0 -162 9 -230q4 -24 22.5 -41t38.5 -24.5t36 -21.5t16 -34q0 -18 -13 -30t-37 -12q-23 0 -87 1t-85 1q-23 0 -100 -1t-98 -1q-24 0 -37 12t-13 30q0 19 18 32.5t40.5 21.5t43 25t24.5 42q9 70 9 230
q0 122 -27 139q-26 16 -62 16q-40 0 -40 31q0 19 10.5 29.5t35.5 21.5q60 25 123 57t95.5 48t45.5 16zM1252 1320q-20 -36 -426.5 -664t-424.5 -654q-22 -29 -65 -29q-32 0 -52.5 17t-20.5 39q0 16 11 37q9 18 201 316.5t405 628.5t245 380q15 24 59 24q34 0 56.5 -17.5
t22.5 -40.5q0 -19 -11 -37zM1319 701q0 -14 -9.5 -181t-9.5 -212q0 -11 18 -11q34 0 66.5 6.5t36.5 6.5q20 0 26.5 -12t6.5 -36q0 -26 -11.5 -71.5t-25.5 -67.5q-16 -24 -54 -24h-47q-17 0 -17 -12q0 -25 10.5 -60.5t10.5 -38.5q0 -19 -12.5 -30t-39.5 -18q-50 -16 -103 -16
q-57 0 -57 102v55q0 18 -23 18h-160q-49 0 -79 16q-35 21 -57 49t-22 54q0 48 147 222q84 102 202 207.5t156 105.5q47 0 47 -52zM968 302q0 -8 25 -8h102q21 0 21 20q7 110 7 133q0 18 -8 18q-21 0 -87 -81q-60 -69 -60 -82z" />
    <glyph glyph-name="onehalf" unicode="&#xbd;" horiz-adv-x="1518" 
d="M398 1421q24 0 33.5 -10t9.5 -30q0 -23 -5.5 -130t-5.5 -188q0 -162 9 -230q4 -24 22.5 -41t38.5 -24.5t36 -21.5t16 -34q0 -18 -13 -30t-37 -12q-23 0 -87 1t-85 1q-23 0 -100 -1t-98 -1q-24 0 -37 12t-13 30q0 19 18 32.5t40.5 21.5t43 25t24.5 42q9 70 9 230
q0 122 -27 139q-26 16 -62 16q-40 0 -40 31q0 19 10.5 29.5t35.5 21.5q60 25 123 57t95.5 48t45.5 16zM1252 1320q-20 -36 -426.5 -664t-424.5 -654q-22 -29 -65 -29q-32 0 -52.5 17t-20.5 39q0 16 11 37q9 18 201 316.5t405 628.5t245 380q15 24 59 24q34 0 56.5 -17.5
t22.5 -40.5q0 -19 -11 -37zM1126 188q0 -10 63 -10q145 0 234 60q45 31 64 31q30 0 30 -39q0 -21 -14.5 -83.5t-19.5 -98.5q-4 -32 -17 -41t-47 -9q-14 0 -96.5 1t-155.5 1q-40 0 -142 -1t-123 -1q-40 0 -40 31q0 26 39 65l125 126q82 81 128.5 144t46.5 118q0 47 -32.5 70
t-81.5 23q-70 0 -133 -58q-18 -14 -28 -14q-22 0 -22 43q0 32 17.5 66.5t50 67t88 53.5t123.5 21q104 0 174 -52t70 -145q0 -44 -16.5 -85t-49 -78t-62.5 -64t-74 -61q-12 -9 -28.5 -21.5t-27.5 -20.5t-21.5 -16.5t-16 -14t-5.5 -8.5z" />
    <glyph glyph-name="threequarters" unicode="&#xbe;" horiz-adv-x="1515" 
d="M1326 1320q-20 -36 -426.5 -664t-424.5 -654q-22 -29 -65 -29q-32 0 -52.5 17t-20.5 39q0 16 11 37q9 18 201 316.5t405 628.5t245 380q15 24 58 24q34 0 56.5 -17.5t22.5 -40.5q0 -21 -10 -37zM636 1271q-27 -34 -54.5 -61t-50.5 -47t-30 -27q-14 -12 -14 -16
q0 -2 0.5 -3t2.5 -2t4 -1.5t5 -1.5l6 -2q86 -30 140.5 -82.5t54.5 -129.5q0 -103 -88 -171.5t-220 -68.5q-72 0 -134 23t-100.5 59t-60 76t-21.5 76q0 34 26 34q5 0 8 -1.5t8 -6.5t9 -8q88 -85 205 -85q66 0 100 24t34 67q0 24 -12 43t-35 31t-38 17.5t-39 12.5
q-45 13 -45 43q0 16 44 51q5 5 8 7q53 42 72.5 61t19.5 30q0 10 -70 10q-77 0 -115 -14.5t-63 -39.5q-5 -5 -12 -13l-10.5 -12t-10 -7.5t-13.5 -3.5q-27 0 -27 42q0 16 24 186q5 34 15.5 42.5t48.5 8.5q11 0 91 -2t141 -2q71 0 144 2t74 2q14 0 24.5 -10t10.5 -24
q0 -39 -57 -106zM1390 701q0 -14 -9.5 -181t-9.5 -212q0 -11 18 -11q34 0 66.5 6.5t36.5 6.5q20 0 26.5 -12t6.5 -36q0 -26 -11.5 -71.5t-25.5 -67.5q-16 -24 -54 -24h-48q-16 0 -16 -12q0 -25 10.5 -60.5t10.5 -38.5q0 -19 -13 -30t-40 -18q-50 -16 -102 -16q-57 0 -57 102
v55q0 18 -23 18h-161q-49 0 -79 16q-34 21 -56 49t-22 54q0 48 147 222q84 102 201.5 207.5t155.5 105.5q48 0 48 -52zM1038 302q0 -8 26 -8h101q22 0 22 20q7 110 7 133q0 18 -8 18q-21 0 -87 -81q-61 -70 -61 -82z" />
    <glyph glyph-name="questiondown" unicode="&#xbf;" horiz-adv-x="956" 
d="M475 865q0 90 61 145t146 55q78 0 131 -46.5t53 -131.5q0 -92 -62.5 -149t-143.5 -57q-76 0 -130.5 49t-54.5 135zM718 -121q22 0 45 5t38 10.5t35.5 18t28 17.5t26.5 20t20 16q38 31 55 31q35 0 35 -60q0 -52 -31.5 -107t-85.5 -100.5t-135 -74.5t-172 -29
q-111 0 -200.5 35t-145 107.5t-55.5 173.5q0 72 27 135t70 108.5t95.5 86t105 73.5t95.5 63t70 62.5t27 65.5q0 8 -1.5 17.5t-1.5 13.5q0 30 33 30q35 0 70 -43.5t35 -103.5q0 -49 -23.5 -97t-57 -87t-67 -78.5t-57 -86.5t-23.5 -96q0 -61 38.5 -93.5t106.5 -32.5z" />
    <glyph glyph-name="Agrave" unicode="&#xc0;" horiz-adv-x="1401" 
d="M845 1593q31 -30 39 -43t8 -31q0 -22 -21 -33t-49 -11q-54 0 -140.5 28t-154.5 67q-132 79 -132 177q0 48 35 83t95 35q56 0 100.5 -33.5t87.5 -90.5q69 -91 132 -148zM135 309l278 727q34 91 59 224q12 59 113 112.5t166 53.5q42 0 63 -24t42 -76l398 -1024
q33 -82 93 -141q1 -1 11.5 -11t14 -14t11.5 -13.5t11.5 -16t6.5 -15.5t3 -18q0 -44 -32.5 -61.5t-103.5 -17.5q-24 0 -95 3t-131 3q-58 0 -134 -3t-105 -3q-98 0 -98 73q0 21 20 43t43.5 39t43.5 47.5t20 65.5q0 28 -31 86q-13 22 -43 22h-309q-38 0 -60 -24
q-14 -19 -27.5 -50t-13.5 -56q0 -32 17 -59.5t38 -43t38 -36t17 -41.5q0 -66 -95 -66q-25 0 -85.5 3t-87.5 3q-26 0 -69 -3t-68 -3q-36 0 -55 17t-19 48q0 24 14.5 44t35.5 37.5t51 62t54 106.5zM486 580h207q29 0 29 19q0 25 -37.5 133t-69.5 168q-13 24 -22 24t-22 -24
q-30 -56 -70 -167.5t-40 -133.5q0 -19 25 -19z" />
    <glyph glyph-name="Aacute" unicode="&#xc1;" horiz-adv-x="1401" 
d="M523 1593q63 56 133 148q43 57 87.5 90.5t100.5 33.5q60 0 95 -35t35 -83q0 -98 -132 -177q-68 -39 -154.5 -67t-140.5 -28q-28 0 -49 11t-21 33q0 18 7.5 31t38.5 43zM135 309l278 727q34 91 59 224q12 59 113 112.5t166 53.5q42 0 63 -24t42 -76l398 -1024
q33 -82 93 -141q1 -1 11.5 -11t14 -14t11.5 -13.5t11.5 -16t6.5 -15.5t3 -18q0 -44 -32.5 -61.5t-103.5 -17.5q-24 0 -95 3t-131 3q-58 0 -134 -3t-105 -3q-98 0 -98 73q0 21 20 43t43.5 39t43.5 47.5t20 65.5q0 28 -31 86q-13 22 -43 22h-309q-38 0 -60 -24
q-14 -19 -27.5 -50t-13.5 -56q0 -32 17 -59.5t38 -43t38 -36t17 -41.5q0 -66 -95 -66q-25 0 -85.5 3t-87.5 3q-26 0 -69 -3t-68 -3q-36 0 -55 17t-19 48q0 24 14.5 44t35.5 37.5t51 62t54 106.5zM486 580h207q29 0 29 19q0 25 -37.5 133t-69.5 168q-13 24 -22 24t-22 -24
q-30 -56 -70 -167.5t-40 -133.5q0 -19 25 -19z" />
    <glyph glyph-name="Acircumflex" unicode="&#xc2;" horiz-adv-x="1401" 
d="M958 1475q-67 0 -207 77q-52 29 -65 29q-11 0 -61 -27q-49 -32 -106 -55.5t-96 -23.5q-22 0 -36.5 11t-14.5 31q0 9 5.5 20t10 17t20.5 24q51 57 144 185q28 37 43.5 55t41 32.5t54.5 14.5q39 0 67 -24t68 -78q69 -95 149 -183q35 -38 35 -62q0 -20 -15 -31.5t-37 -11.5z
M135 309l278 727q34 91 59 224q12 59 113 112.5t166 53.5q42 0 63 -24t42 -76l398 -1024q33 -82 93 -141q1 -1 11.5 -11t14 -14t11.5 -13.5t11.5 -16t6.5 -15.5t3 -18q0 -44 -32.5 -61.5t-103.5 -17.5q-24 0 -95 3t-131 3q-58 0 -134 -3t-105 -3q-98 0 -98 73q0 21 20 43
t43.5 39t43.5 47.5t20 65.5q0 28 -31 86q-13 22 -43 22h-309q-38 0 -60 -24q-14 -19 -27.5 -50t-13.5 -56q0 -32 17 -59.5t38 -43t38 -36t17 -41.5q0 -66 -95 -66q-25 0 -85.5 3t-87.5 3q-26 0 -69 -3t-68 -3q-36 0 -55 17t-19 48q0 24 14.5 44t35.5 37.5t51 62t54 106.5z
M486 580h207q29 0 29 19q0 25 -37.5 133t-69.5 168q-13 24 -22 24t-22 -24q-30 -56 -70 -167.5t-40 -133.5q0 -19 25 -19z" />
    <glyph glyph-name="Atilde" unicode="&#xc3;" horiz-adv-x="1401" 
d="M331 1641q0 88 56.5 140t139.5 52q63 0 161 -45.5t145 -45.5q28 0 47 10t28.5 24t16.5 28.5t14.5 24.5t17.5 10q28 0 55.5 -38.5t27.5 -103.5q0 -89 -56.5 -145t-144.5 -56q-58 0 -123 28.5t-120.5 57t-91.5 28.5q-25 0 -44 -13t-29 -28.5t-21 -28.5t-21 -13
q-20 0 -39 30.5t-19 83.5zM135 309l278 727q34 91 59 224q12 59 113 112.5t166 53.5q42 0 63 -24t42 -76l398 -1024q33 -82 93 -141q1 -1 11.5 -11t14 -14t11.5 -13.5t11.5 -16t6.5 -15.5t3 -18q0 -44 -32.5 -61.5t-103.5 -17.5q-24 0 -95 3t-131 3q-58 0 -134 -3t-105 -3
q-98 0 -98 73q0 21 20 43t43.5 39t43.5 47.5t20 65.5q0 28 -31 86q-13 22 -43 22h-309q-38 0 -60 -24q-14 -19 -27.5 -50t-13.5 -56q0 -32 17 -59.5t38 -43t38 -36t17 -41.5q0 -66 -95 -66q-25 0 -85.5 3t-87.5 3q-26 0 -69 -3t-68 -3q-36 0 -55 17t-19 48q0 24 14.5 44
t35.5 37.5t51 62t54 106.5zM486 580h207q29 0 29 19q0 25 -37.5 133t-69.5 168q-13 24 -22 24t-22 -24q-30 -56 -70 -167.5t-40 -133.5q0 -19 25 -19z" />
    <glyph glyph-name="Adieresis" unicode="&#xc4;" horiz-adv-x="1401" 
d="M468 1848q75 0 123 -45t48 -117q0 -83 -60.5 -138t-145.5 -55q-69 0 -116 43.5t-47 112.5q0 79 56.5 139t141.5 60zM924 1848q75 0 123 -45t48 -117q0 -83 -60.5 -138t-145.5 -55q-69 0 -116 43.5t-47 112.5q0 79 56.5 139t141.5 60zM135 309l278 727q34 91 59 224
q12 59 113 112.5t166 53.5q42 0 63 -24t42 -76l398 -1024q33 -82 93 -141q1 -1 11.5 -11t14 -14t11.5 -13.5t11.5 -16t6.5 -15.5t3 -18q0 -44 -32.5 -61.5t-103.5 -17.5q-24 0 -95 3t-131 3q-58 0 -134 -3t-105 -3q-98 0 -98 73q0 21 20 43t43.5 39t43.5 47.5t20 65.5
q0 28 -31 86q-13 22 -43 22h-309q-38 0 -60 -24q-14 -19 -27.5 -50t-13.5 -56q0 -32 17 -59.5t38 -43t38 -36t17 -41.5q0 -66 -95 -66q-25 0 -85.5 3t-87.5 3q-26 0 -69 -3t-68 -3q-36 0 -55 17t-19 48q0 24 14.5 44t35.5 37.5t51 62t54 106.5zM486 580h207q29 0 29 19
q0 25 -37.5 133t-69.5 168q-13 24 -22 24t-22 -24q-30 -56 -70 -167.5t-40 -133.5q0 -19 25 -19z" />
    <glyph glyph-name="Aring" unicode="&#xc5;" horiz-adv-x="1401" 
d="M683 1891q104 0 173.5 -60.5t69.5 -159.5q0 -103 -73.5 -166t-181.5 -63q-105 0 -174.5 61t-69.5 159q0 102 74 165.5t182 63.5zM692 1767q-42 0 -67.5 -26.5t-25.5 -67.5t23.5 -66t63.5 -25q41 0 67.5 27t26.5 70q0 39 -24 63.5t-64 24.5zM135 309l278 727q34 91 59 224
q12 59 113 112.5t166 53.5q42 0 63 -24t42 -76l398 -1024q33 -82 93 -141q1 -1 11.5 -11t14 -14t11.5 -13.5t11.5 -16t6.5 -15.5t3 -18q0 -44 -32.5 -61.5t-103.5 -17.5q-24 0 -95 3t-131 3q-58 0 -134 -3t-105 -3q-98 0 -98 73q0 21 20 43t43.5 39t43.5 47.5t20 65.5
q0 28 -31 86q-13 22 -43 22h-309q-38 0 -60 -24q-14 -19 -27.5 -50t-13.5 -56q0 -32 17 -59.5t38 -43t38 -36t17 -41.5q0 -66 -95 -66q-25 0 -85.5 3t-87.5 3q-26 0 -69 -3t-68 -3q-36 0 -55 17t-19 48q0 24 14.5 44t35.5 37.5t51 62t54 106.5zM486 580h207q29 0 29 19
q0 25 -37.5 133t-69.5 168q-13 24 -22 24t-22 -24q-30 -56 -70 -167.5t-40 -133.5q0 -19 25 -19z" />
    <glyph glyph-name="AE" unicode="&#xc6;" horiz-adv-x="1985" 
d="M1313 1393q99 0 227 3t165 3q67 0 93 -22.5t38 -101.5q9 -52 38 -204q13 -57 13 -90q0 -35 -18 -52.5t-45 -17.5q-16 0 -29.5 6.5t-25.5 22t-19.5 27t-19.5 34.5q-35 63 -59 96t-60.5 58.5t-83 34t-121.5 8.5q-83 0 -108.5 -27t-25.5 -119v-87q0 -71 11 -93.5t36 -22.5
q35 0 61.5 7.5t44 22.5t28 28t24 35t21.5 32q23 26 50 26q32 0 47 -32.5t15 -108.5v-314q0 -89 -57 -89q-31 0 -47.5 19t-30.5 53q-15 32 -24.5 47.5t-26.5 33.5t-40 25t-57 7q-30 0 -42.5 -25t-12.5 -90v-132q0 -61 9 -99t31.5 -56.5t49 -24.5t71.5 -6q64 0 115 12.5
t84.5 31t62.5 50t45.5 59t37.5 68.5q38 73 81 73q56 0 56 -91q0 -28 -17.5 -146.5t-23.5 -186.5q-3 -53 -23.5 -68.5t-83.5 -15.5q-40 0 -190.5 3t-224.5 3q-62 0 -241 -3t-274 -3q-43 0 -65.5 17.5t-22.5 46.5q0 21 11 37.5t28 30t35 29t33 42.5t20 63q8 48 8 133
q0 49 -44 49h-303q-57 0 -81 -42q-69 -116 -69 -158q0 -32 15.5 -59.5t34.5 -43.5t34.5 -37t15.5 -42q0 -66 -94 -66q-25 0 -92 3t-94 3q-26 0 -74.5 -3t-73.5 -3q-36 0 -57.5 17.5t-21.5 47.5q0 26 15 46.5t36.5 35.5t56 52.5t63.5 88.5l433 760q36 61 36 109
q0 25 -16.5 48.5t-36 39t-36 40t-16.5 50.5q0 70 81 70q11 0 261.5 -3t455.5 -3zM888 978q-6 72 -23 72q-11 0 -22 -12t-31 -41q-54 -73 -124.5 -190t-70.5 -132q0 -23 33 -23h190q35 0 45 13.5t10 59.5q0 162 -7 253z" />
    <glyph glyph-name="Ccedilla" unicode="&#xc7;" horiz-adv-x="1373" 
d="M603 -174q0 25 20.5 66.5t50.5 78.5q-112 13 -207 58.5t-163.5 114.5t-117 157t-72.5 188t-24 206q0 112 25.5 216.5t80.5 198.5t134 164.5t192.5 111.5t248.5 41q87 0 174 -21t107 -21q24 0 63.5 11.5t62.5 11.5q19 0 33.5 -4.5t25 -16.5t17.5 -22.5t13 -33.5t9 -37
t9 -46.5t9 -49.5q11 -62 22.5 -113t16 -70.5t4.5 -33.5q0 -35 -17.5 -53.5t-43.5 -18.5q-18 0 -33 7t-30 23.5t-24.5 29.5t-27.5 40.5t-27 41.5q-69 95 -150.5 145t-162.5 50q-75 0 -133.5 -32.5t-94.5 -88.5t-54.5 -127.5t-18.5 -153.5q0 -151 50 -275.5t147.5 -200
t225.5 -75.5q115 0 193.5 55.5t124.5 132.5q15 22 21.5 30.5t17.5 17.5t21 9q23 0 35 -25t12 -58q0 -121 -66 -228q-69 -109 -196.5 -180.5t-294.5 -80.5q-13 -37 -13 -51q0 -2 1.5 -4t4.5 -4.5t5.5 -3.5t7 -3.5t6.5 -3.5q110 -66 110 -168q0 -93 -65 -145.5t-163 -52.5
q-75 0 -132.5 37.5t-57.5 70.5q0 16 9 24t21 8q9 0 41.5 -13t60.5 -13q31 0 52.5 16t21.5 45q0 69 -94 90q-24 5 -24 31z" />
    <glyph glyph-name="Egrave" unicode="&#xc8;" 
d="M851 1593q31 -30 39 -43t8 -31q0 -22 -21 -33t-49 -11q-54 0 -140 28t-154 67q-133 80 -133 177q0 48 35 83t95 35q56 0 100.5 -33.5t87.5 -90.5q69 -91 132 -148zM983 859v-314q0 -89 -56 -89q-30 0 -47 19t-32 53q-15 32 -24.5 47.5t-26.5 33.5t-40 25t-57 7
q-30 0 -42.5 -25t-12.5 -90v-132q0 -61 9 -99t31.5 -56.5t49 -24.5t71.5 -6q97 0 162 26t103.5 70.5t79.5 124.5q40 73 81 73q56 0 56 -91q0 -27 -17 -145.5t-23 -187.5q-4 -54 -24 -69t-82 -15q-40 0 -191.5 3t-225.5 3q-62 0 -234.5 -3t-266.5 -3q-43 0 -66 17.5t-23 46.5
q0 25 16 46.5t36 37t40 48t26 76.5q14 94 14 470q0 247 -5 330q-5 62 -25 105.5t-40 62t-36.5 42.5t-16.5 53q0 70 80 70q58 0 208 -3t255 -3q99 0 226.5 3t164.5 3q67 0 93 -22.5t38 -101.5q9 -52 38 -204q15 -66 15 -90q0 -35 -19 -52.5t-46 -17.5q-16 0 -29.5 6.5
t-25.5 22t-19.5 27t-19.5 34.5q-35 63 -59 96t-60.5 58.5t-83 34t-121.5 8.5q-83 0 -108.5 -27t-25.5 -119v-87q0 -71 11 -93.5t36 -22.5q35 0 61.5 7t44.5 22.5t28 28t24 35t21 32.5q23 26 51 26q33 0 47 -32t14 -109z" />
    <glyph glyph-name="Eacute" unicode="&#xc9;" 
d="M561 1593q63 56 133 148q43 57 87.5 90.5t100.5 33.5q60 0 95 -35t35 -83q0 -98 -132 -177q-68 -39 -154.5 -67t-140.5 -28q-28 0 -49 11t-21 33q0 18 7.5 31t38.5 43zM983 859v-314q0 -89 -56 -89q-30 0 -47 19t-32 53q-15 32 -24.5 47.5t-26.5 33.5t-40 25t-57 7
q-30 0 -42.5 -25t-12.5 -90v-132q0 -61 9 -99t31.5 -56.5t49 -24.5t71.5 -6q97 0 162 26t103.5 70.5t79.5 124.5q40 73 81 73q56 0 56 -91q0 -27 -17 -145.5t-23 -187.5q-4 -54 -24 -69t-82 -15q-40 0 -191.5 3t-225.5 3q-62 0 -234.5 -3t-266.5 -3q-43 0 -66 17.5t-23 46.5
q0 25 16 46.5t36 37t40 48t26 76.5q14 94 14 470q0 247 -5 330q-5 62 -25 105.5t-40 62t-36.5 42.5t-16.5 53q0 70 80 70q58 0 208 -3t255 -3q99 0 226.5 3t164.5 3q67 0 93 -22.5t38 -101.5q9 -52 38 -204q15 -66 15 -90q0 -35 -19 -52.5t-46 -17.5q-16 0 -29.5 6.5
t-25.5 22t-19.5 27t-19.5 34.5q-35 63 -59 96t-60.5 58.5t-83 34t-121.5 8.5q-83 0 -108.5 -27t-25.5 -119v-87q0 -71 11 -93.5t36 -22.5q35 0 61.5 7t44.5 22.5t28 28t24 35t21 32.5q23 26 51 26q33 0 47 -32t14 -109z" />
    <glyph glyph-name="Ecircumflex" unicode="&#xca;" 
d="M980 1475q-68 0 -208 77q-52 29 -64 29t-62 -27q-49 -32 -106 -55.5t-96 -23.5q-22 0 -36.5 11t-14.5 31q0 9 5.5 20t10 17t20.5 24q51 57 144 185q40 55 69 78.5t71 23.5q39 0 67 -24t68 -78q73 -101 148 -183q35 -38 35 -62q0 -20 -14.5 -31.5t-36.5 -11.5zM983 859
v-314q0 -89 -56 -89q-30 0 -47 19t-32 53q-15 32 -24.5 47.5t-26.5 33.5t-40 25t-57 7q-30 0 -42.5 -25t-12.5 -90v-132q0 -61 9 -99t31.5 -56.5t49 -24.5t71.5 -6q97 0 162 26t103.5 70.5t79.5 124.5q40 73 81 73q56 0 56 -91q0 -27 -17 -145.5t-23 -187.5q-4 -54 -24 -69
t-82 -15q-40 0 -191.5 3t-225.5 3q-62 0 -234.5 -3t-266.5 -3q-43 0 -66 17.5t-23 46.5q0 25 16 46.5t36 37t40 48t26 76.5q14 94 14 470q0 247 -5 330q-5 62 -25 105.5t-40 62t-36.5 42.5t-16.5 53q0 70 80 70q58 0 208 -3t255 -3q99 0 226.5 3t164.5 3q67 0 93 -22.5
t38 -101.5q9 -52 38 -204q15 -66 15 -90q0 -35 -19 -52.5t-46 -17.5q-16 0 -29.5 6.5t-25.5 22t-19.5 27t-19.5 34.5q-35 63 -59 96t-60.5 58.5t-83 34t-121.5 8.5q-83 0 -108.5 -27t-25.5 -119v-87q0 -71 11 -93.5t36 -22.5q35 0 61.5 7t44.5 22.5t28 28t24 35t21 32.5
q23 26 51 26q33 0 47 -32t14 -109z" />
    <glyph glyph-name="Edieresis" unicode="&#xcb;" 
d="M495 1848q75 0 123 -45t48 -117q0 -83 -60.5 -138t-145.5 -55q-69 0 -116 43.5t-47 112.5q0 79 56.5 139t141.5 60zM950 1848q75 0 123 -45t48 -117q0 -83 -60.5 -138t-145.5 -55q-69 0 -115.5 43.5t-46.5 112.5q0 79 56 139t141 60zM983 859v-314q0 -89 -56 -89
q-30 0 -47 19t-32 53q-15 32 -24.5 47.5t-26.5 33.5t-40 25t-57 7q-30 0 -42.5 -25t-12.5 -90v-132q0 -61 9 -99t31.5 -56.5t49 -24.5t71.5 -6q97 0 162 26t103.5 70.5t79.5 124.5q40 73 81 73q56 0 56 -91q0 -27 -17 -145.5t-23 -187.5q-4 -54 -24 -69t-82 -15
q-40 0 -191.5 3t-225.5 3q-62 0 -234.5 -3t-266.5 -3q-43 0 -66 17.5t-23 46.5q0 25 16 46.5t36 37t40 48t26 76.5q14 94 14 470q0 247 -5 330q-5 62 -25 105.5t-40 62t-36.5 42.5t-16.5 53q0 70 80 70q58 0 208 -3t255 -3q99 0 226.5 3t164.5 3q67 0 93 -22.5t38 -101.5
q9 -52 38 -204q15 -66 15 -90q0 -35 -19 -52.5t-46 -17.5q-16 0 -29.5 6.5t-25.5 22t-19.5 27t-19.5 34.5q-35 63 -59 96t-60.5 58.5t-83 34t-121.5 8.5q-83 0 -108.5 -27t-25.5 -119v-87q0 -71 11 -93.5t36 -22.5q35 0 61.5 7t44.5 22.5t28 28t24 35t21 32.5q23 26 51 26
q33 0 47 -32t14 -109z" />
    <glyph glyph-name="Igrave" unicode="&#xcc;" horiz-adv-x="780" 
d="M618 1593q32 -30 40 -43.5t8 -30.5q0 -22 -21 -33t-49 -11q-54 0 -140.5 28t-154.5 67q-132 79 -132 177q0 48 35 83t95 35q56 0 100 -33.5t87 -90.5q69 -91 132 -148zM691 1399q80 0 80 -70q0 -24 -10.5 -42.5t-26 -35t-32 -37t-30 -58.5t-18.5 -89q-6 -50 -6 -331
q0 -360 16 -467q6 -44 26 -77.5t39.5 -49t35 -37t15.5 -47.5q0 -27 -23.5 -45.5t-65.5 -18.5q-35 0 -114 3t-117 3q-40 0 -120 -3t-116 -3q-42 0 -65.5 18t-23.5 46q0 21 10.5 38.5t26 32t32 31t31 45t20.5 64.5q12 97 12 467q0 280 -4 331t-18 88.5t-30.5 58.5t-32.5 37.5
t-27 35.5t-11 42q0 70 80 70q38 0 117.5 -3t118.5 -3q41 0 119 3t112 3z" />
    <glyph glyph-name="Iacute" unicode="&#xcd;" horiz-adv-x="780" 
d="M297 1593q63 56 133 148q43 57 87 90.5t100 33.5q61 0 96 -35.5t35 -82.5q0 -97 -133 -177q-68 -39 -154 -67t-140 -28q-28 0 -49 11t-21 33q0 18 7.5 31t38.5 43zM691 1399q80 0 80 -70q0 -24 -10.5 -42.5t-26 -35t-32 -37t-30 -58.5t-18.5 -89q-6 -50 -6 -331
q0 -360 16 -467q6 -44 26 -77.5t39.5 -49t35 -37t15.5 -47.5q0 -27 -23.5 -45.5t-65.5 -18.5q-35 0 -114 3t-117 3q-40 0 -120 -3t-116 -3q-42 0 -65.5 18t-23.5 46q0 21 10.5 38.5t26 32t32 31t31 45t20.5 64.5q12 97 12 467q0 280 -4 331t-18 88.5t-30.5 58.5t-32.5 37.5
t-27 35.5t-11 42q0 70 80 70q38 0 117.5 -3t118.5 -3q41 0 119 3t112 3z" />
    <glyph glyph-name="Icircumflex" unicode="&#xce;" horiz-adv-x="780" 
d="M726 1475q-68 0 -208 77q-52 29 -64 29t-62 -27q-49 -32 -106 -55.5t-96 -23.5q-22 0 -36.5 11t-14.5 31q0 9 5.5 20t10 17t20.5 24q51 57 144 185q40 55 69 78.5t71 23.5q39 0 67 -24t68 -78q73 -101 148 -183q35 -38 35 -62q0 -20 -14.5 -31.5t-36.5 -11.5zM691 1399
q80 0 80 -70q0 -24 -10.5 -42.5t-26 -35t-32 -37t-30 -58.5t-18.5 -89q-6 -50 -6 -331q0 -360 16 -467q6 -44 26 -77.5t39.5 -49t35 -37t15.5 -47.5q0 -27 -23.5 -45.5t-65.5 -18.5q-35 0 -114 3t-117 3q-40 0 -120 -3t-116 -3q-42 0 -65.5 18t-23.5 46q0 21 10.5 38.5
t26 32t32 31t31 45t20.5 64.5q12 97 12 467q0 280 -4 331t-18 88.5t-30.5 58.5t-32.5 37.5t-27 35.5t-11 42q0 70 80 70q38 0 117.5 -3t118.5 -3q41 0 119 3t112 3z" />
    <glyph glyph-name="Idieresis" unicode="&#xcf;" horiz-adv-x="780" 
d="M161 1848q75 0 123 -45t48 -117q0 -83 -60.5 -138t-145.5 -55q-69 0 -116 43.5t-47 112.5q0 79 56.5 139t141.5 60zM609 1848q75 0 123 -45t48 -117q0 -82 -61 -137.5t-145 -55.5q-70 0 -116 43.5t-46 112.5q0 79 56 139t141 60zM605 1399q80 0 80 -70q0 -24 -10.5 -42.5
t-26 -35t-32 -37t-30 -58.5t-18.5 -89q-6 -50 -6 -331q0 -360 16 -467q6 -44 26 -77.5t39.5 -49t35 -37t15.5 -47.5q0 -27 -23.5 -45.5t-65.5 -18.5q-35 0 -114 3t-117 3q-40 0 -120 -3t-116 -3q-42 0 -65.5 18t-23.5 46q0 21 10.5 38.5t26 32t32 31t31 45t20.5 64.5
q12 97 12 467q0 280 -4 331t-18 88.5t-30.5 58.5t-32.5 37.5t-27 35.5t-11 42q0 70 80 70q38 0 117.5 -3t118.5 -3q41 0 119 3t112 3z" />
    <glyph glyph-name="Eth" unicode="&#xd0;" horiz-adv-x="1498" 
d="M399 1393q57 0 150 3t148 3q120 0 229 -24t207.5 -78t170.5 -133t114 -197t42 -262q0 -330 -173.5 -520.5t-483.5 -190.5q-60 0 -201 4t-203 4q-40 0 -119.5 -3t-115.5 -3q-43 0 -66 17.5t-23 44.5q0 21 10.5 38.5t26 32t32 31t31 45t20.5 64.5q9 78 11 332h-137
q-55 0 -55 48q0 56 23 117q12 30 33 41.5t60 11.5h77q0 192 -4 248q-4 51 -18 88.5t-30.5 58.5t-32.5 37.5t-27 35.5t-11 42q0 70 80 70q38 0 117 -3t118 -3zM588 1018v-199h193q52 0 52 -48q0 -62 -23 -117q-12 -30 -34 -41.5t-63 -11.5h-125v-177q0 -129 28.5 -173.5
t110.5 -44.5q58 0 105 19.5t79.5 54t56 78t37 96t19.5 103.5t6 105q0 152 -39.5 271.5t-121.5 192.5t-194 73q-52 0 -69.5 -41t-17.5 -140z" />
    <glyph glyph-name="Ntilde" unicode="&#xd1;" horiz-adv-x="1489" 
d="M458 1641q0 88 56.5 140t139.5 52q63 0 160.5 -45.5t144.5 -45.5q34 0 56 15t29.5 33.5t17.5 33.5t22 15q28 0 55.5 -38.5t27.5 -103.5q0 -89 -56.5 -145t-144.5 -56q-58 0 -123 28.5t-120.5 57t-91.5 28.5q-25 0 -44 -13t-29 -28.5t-21 -28.5t-21 -13q-20 0 -39 30.5
t-19 83.5zM224 1399q20 0 93 -3t103 -3q100 0 134 -18q14 -6 29 -19.5t25 -25t37.5 -45t45.5 -54.5l373 -472q76 -90 88 -90q5 0 7.5 3t4.5 14t2.5 31t0.5 56q0 305 -51 399q-16 32 -42 60.5t-41.5 49.5t-15.5 47q0 70 79 70q29 0 85.5 -3t76.5 -3q27 0 85.5 3t81.5 3
q77 0 77 -70q0 -28 -14.5 -50t-32.5 -37.5t-35.5 -56.5t-22.5 -101q-6 -69 -6 -268q1 -311 10.5 -473t9.5 -215q0 -61 -51 -103t-136 -42q-22 0 -52 18.5t-58 51.5l-567 704q-3 4 -8 9t-7.5 8t-6 7t-5.5 6l-4.5 4.5t-4.5 4t-3.5 2.5t-3.5 1.5t-3 0.5q-11 0 -14.5 -26
t-3.5 -112q0 -149 15.5 -269t42.5 -174q13 -28 32 -52t33 -36.5t24.5 -30t10.5 -37.5q0 -69 -80 -69q-34 0 -89.5 3t-74.5 3q-25 0 -89 -3t-95 -3q-78 0 -78 69q0 23 11.5 40.5t28.5 32t34.5 32.5t31.5 53.5t18 85.5q8 96 8 428q0 251 -5 331q-5 62 -25 105.5t-40 62
t-36.5 42.5t-16.5 53q0 70 80 70z" />
    <glyph glyph-name="Ograve" unicode="&#xd2;" horiz-adv-x="1495" 
d="M946 1593q31 -30 39 -43t8 -31q0 -22 -20.5 -33t-48.5 -11q-54 0 -140.5 28t-154.5 67q-132 79 -132 177q0 48 35 83t95 35q56 0 100 -33.5t87 -90.5q69 -91 132 -148zM94 684q0 218 87 387t246 262.5t365 93.5q144 0 271 -50.5t224 -145t153.5 -241t56.5 -326.5
q0 -136 -35 -250.5t-98 -196.5t-149.5 -139t-190 -85t-220.5 -28q-165 0 -299 53.5t-224 149t-138.5 228t-48.5 288.5zM735 1218q-75 0 -129.5 -88.5t-54.5 -278.5q0 -266 87 -463q41 -89 101 -138t127 -49q90 0 148 76t58 236q0 114 -27 246t-73 233q-44 105 -108.5 165.5
t-128.5 60.5z" />
    <glyph glyph-name="Oacute" unicode="&#xd3;" horiz-adv-x="1495" 
d="M624 1593q63 56 133 148q43 57 87 90.5t100 33.5q60 0 95 -35t35 -83q0 -98 -132 -177q-68 -39 -154.5 -67t-140.5 -28q-28 0 -48.5 11t-20.5 33q0 18 7.5 31t38.5 43zM94 684q0 218 87 387t246 262.5t365 93.5q144 0 271 -50.5t224 -145t153.5 -241t56.5 -326.5
q0 -136 -35 -250.5t-98 -196.5t-149.5 -139t-190 -85t-220.5 -28q-165 0 -299 53.5t-224 149t-138.5 228t-48.5 288.5zM735 1218q-75 0 -129.5 -88.5t-54.5 -278.5q0 -266 87 -463q41 -89 101 -138t127 -49q90 0 148 76t58 236q0 114 -27 246t-73 233q-44 105 -108.5 165.5
t-128.5 60.5z" />
    <glyph glyph-name="Ocircumflex" unicode="&#xd4;" horiz-adv-x="1495" 
d="M1071 1475q-68 0 -208 77q-52 29 -64 29t-62 -27q-124 -79 -201 -79q-23 0 -37.5 11t-14.5 31q0 9 5.5 20t10 17t20.5 24q57 63 145 185q28 37 43.5 55t41 32.5t54.5 14.5q40 0 67.5 -24t67.5 -78q73 -101 148 -183q35 -38 35 -62q0 -20 -14.5 -31.5t-36.5 -11.5zM94 684
q0 218 87 387t246 262.5t365 93.5q144 0 271 -50.5t224 -145t153.5 -241t56.5 -326.5q0 -136 -35 -250.5t-98 -196.5t-149.5 -139t-190 -85t-220.5 -28q-165 0 -299 53.5t-224 149t-138.5 228t-48.5 288.5zM735 1218q-75 0 -129.5 -88.5t-54.5 -278.5q0 -266 87 -463
q41 -89 101 -138t127 -49q90 0 148 76t58 236q0 114 -27 246t-73 233q-44 105 -108.5 165.5t-128.5 60.5z" />
    <glyph glyph-name="Otilde" unicode="&#xd5;" horiz-adv-x="1495" 
d="M449 1641q0 88 56.5 140t139.5 52q63 0 160.5 -45.5t144.5 -45.5q34 0 56 15t29.5 33.5t17.5 33.5t22 15q28 0 55.5 -38.5t27.5 -103.5q0 -89 -57 -145t-145 -56q-58 0 -123 28.5t-120 57t-91 28.5q-25 0 -44 -13t-29 -28.5t-21 -28.5t-21 -13q-20 0 -39 30.5t-19 83.5z
M94 684q0 218 87 387t246 262.5t365 93.5q144 0 271 -50.5t224 -145t153.5 -241t56.5 -326.5q0 -136 -35 -250.5t-98 -196.5t-149.5 -139t-190 -85t-220.5 -28q-165 0 -299 53.5t-224 149t-138.5 228t-48.5 288.5zM735 1218q-75 0 -129.5 -88.5t-54.5 -278.5q0 -266 87 -463
q41 -89 101 -138t127 -49q90 0 148 76t58 236q0 114 -27 246t-73 233q-44 105 -108.5 165.5t-128.5 60.5z" />
    <glyph glyph-name="Odieresis" unicode="&#xd6;" horiz-adv-x="1495" 
d="M588 1848q75 0 123 -45t48 -117q0 -83 -60.5 -138t-145.5 -55q-69 0 -116 43.5t-47 112.5q0 79 56.5 139t141.5 60zM1043 1848q75 0 123 -45t48 -117q0 -83 -60 -138t-145 -55q-69 0 -116 43.5t-47 112.5q0 79 56 139t141 60zM94 684q0 218 87 387t246 262.5t365 93.5
q144 0 271 -50.5t224 -145t153.5 -241t56.5 -326.5q0 -136 -35 -250.5t-98 -196.5t-149.5 -139t-190 -85t-220.5 -28q-165 0 -299 53.5t-224 149t-138.5 228t-48.5 288.5zM735 1218q-75 0 -129.5 -88.5t-54.5 -278.5q0 -266 87 -463q41 -89 101 -138t127 -49q90 0 148 76
t58 236q0 114 -27 246t-73 233q-44 105 -108.5 165.5t-128.5 60.5z" />
    <glyph glyph-name="multiply" unicode="&#xd7;" horiz-adv-x="1101" 
d="M384 1076q22 0 44 -23l245 -248l248 248q24 23 44 23q32 0 81 -53.5t49 -83.5q0 -26 -28 -54l-236 -236l245 -241q24 -26 24 -44q0 -32 -53.5 -81.5t-83.5 -49.5q-27 0 -55 28l-238 237l-244 -244q-24 -24 -44 -24q-32 0 -81 54t-49 84q0 24 28 54l232 231l-230 232
q-28 28 -28 54q0 30 49 83.5t81 53.5z" />
    <glyph glyph-name="Oslash" unicode="&#xd8;" horiz-adv-x="1495" 
d="M94 684q0 218 87 387t246 262.5t365 93.5q176 0 322 -72l71 108q39 55 86 55q60 0 87 -24.5t27 -51.5q0 -30 -21 -62l-92 -136q106 -100 165.5 -247t59.5 -333q0 -136 -35 -250.5t-98 -196.5t-149.5 -139t-190 -85t-220.5 -28q-185 0 -338 70l-91 -135q-16 -29 -63 -29
q-52 0 -78.5 25t-26.5 51q0 16 11 36l98 150q-107 97 -164.5 238.5t-57.5 312.5zM735 1218q-75 0 -129.5 -88.5t-54.5 -278.5q0 -172 38 -320l336 551q-41 64 -91 100t-99 36zM1072 513q0 173 -55 357l-342 -548q81 -121 191 -121q90 0 148 76t58 236z" />
    <glyph glyph-name="Ugrave" unicode="&#xd9;" horiz-adv-x="1461" 
d="M980 1593q31 -30 39 -43t8 -31q0 -22 -21 -33t-49 -11q-54 0 -140 28t-154 67q-133 80 -133 177q0 48 35 83t95 35q56 0 100.5 -33.5t87.5 -90.5q69 -91 132 -148zM1358 831q0 -55 1.5 -145.5t1.5 -128.5q0 -299 -134 -445.5t-434 -146.5q-97 0 -179 19.5t-152.5 64.5
t-120 113.5t-77.5 170.5t-28 232q0 400 -6 502q-4 51 -18 88.5t-31 58.5t-33 37.5t-26.5 35.5t-10.5 42q0 70 79 70q38 0 117.5 -3t118.5 -3q40 0 119 3t113 3q79 0 79 -70q0 -24 -9.5 -42.5t-24 -35t-30 -37t-29.5 -58.5t-20 -89q-8 -109 -8 -447q0 -362 262 -362
q151 0 207 116q38 71 38 386q0 318 -43 412q-13 31 -38 59.5t-42 50.5t-17 47q0 70 80 70q28 0 85.5 -3t77.5 -3q26 0 84 3t82 3q76 0 76 -70q0 -24 -9.5 -41t-23.5 -31.5t-28.5 -33t-26.5 -54t-16 -85.5q-6 -69 -6 -253z" />
    <glyph glyph-name="Uacute" unicode="&#xda;" horiz-adv-x="1461" 
d="M707 1593q63 56 133 148q43 57 87 90.5t100 33.5q60 0 95 -35t35 -83q0 -98 -132 -177q-68 -39 -154.5 -67t-140.5 -28q-28 0 -49 11t-21 33q0 17 8 30.5t39 43.5zM1358 831q0 -55 1.5 -145.5t1.5 -128.5q0 -299 -134 -445.5t-434 -146.5q-97 0 -179 19.5t-152.5 64.5
t-120 113.5t-77.5 170.5t-28 232q0 400 -6 502q-4 51 -18 88.5t-31 58.5t-33 37.5t-26.5 35.5t-10.5 42q0 70 79 70q38 0 117.5 -3t118.5 -3q40 0 119 3t113 3q79 0 79 -70q0 -24 -9.5 -42.5t-24 -35t-30 -37t-29.5 -58.5t-20 -89q-8 -109 -8 -447q0 -362 262 -362
q151 0 207 116q38 71 38 386q0 318 -43 412q-13 31 -38 59.5t-42 50.5t-17 47q0 70 80 70q28 0 85.5 -3t77.5 -3q26 0 84 3t82 3q76 0 76 -70q0 -24 -9.5 -41t-23.5 -31.5t-28.5 -33t-26.5 -54t-16 -85.5q-6 -69 -6 -253z" />
    <glyph glyph-name="Ucircumflex" unicode="&#xdb;" horiz-adv-x="1461" 
d="M1101 1475q-68 0 -208 77q-52 29 -65 29q-11 0 -61 -27q-49 -32 -106 -55.5t-96 -23.5q-22 0 -36.5 11t-14.5 31q0 9 5.5 20t10 17t20.5 24q51 57 144 185q40 55 69 78.5t71 23.5q40 0 67.5 -24t67.5 -78q73 -101 148 -183q35 -38 35 -62q0 -20 -14.5 -31.5t-36.5 -11.5z
M1358 831q0 -55 1.5 -145.5t1.5 -128.5q0 -299 -134 -445.5t-434 -146.5q-97 0 -179 19.5t-152.5 64.5t-120 113.5t-77.5 170.5t-28 232q0 400 -6 502q-4 51 -18 88.5t-31 58.5t-33 37.5t-26.5 35.5t-10.5 42q0 70 79 70q38 0 117.5 -3t118.5 -3q40 0 119 3t113 3
q79 0 79 -70q0 -24 -9.5 -42.5t-24 -35t-30 -37t-29.5 -58.5t-20 -89q-8 -109 -8 -447q0 -362 262 -362q151 0 207 116q38 71 38 386q0 318 -43 412q-13 31 -38 59.5t-42 50.5t-17 47q0 70 80 70q28 0 85.5 -3t77.5 -3q26 0 84 3t82 3q76 0 76 -70q0 -24 -9.5 -41
t-23.5 -31.5t-28.5 -33t-26.5 -54t-16 -85.5q-6 -69 -6 -253z" />
    <glyph glyph-name="Udieresis" unicode="&#xdc;" horiz-adv-x="1461" 
d="M623 1848q75 0 123 -45t48 -117q0 -83 -60.5 -138t-145.5 -55q-69 0 -116 43.5t-47 112.5q0 79 56.5 139t141.5 60zM1078 1848q75 0 123 -45t48 -117q0 -83 -60.5 -138t-145.5 -55q-69 0 -115.5 43.5t-46.5 112.5q0 79 56 139t141 60zM1358 831q0 -55 1.5 -145.5
t1.5 -128.5q0 -299 -134 -445.5t-434 -146.5q-97 0 -179 19.5t-152.5 64.5t-120 113.5t-77.5 170.5t-28 232q0 400 -6 502q-4 51 -18 88.5t-31 58.5t-33 37.5t-26.5 35.5t-10.5 42q0 70 79 70q38 0 117.5 -3t118.5 -3q40 0 119 3t113 3q79 0 79 -70q0 -24 -9.5 -42.5
t-24 -35t-30 -37t-29.5 -58.5t-20 -89q-8 -109 -8 -447q0 -362 262 -362q151 0 207 116q38 71 38 386q0 318 -43 412q-13 31 -38 59.5t-42 50.5t-17 47q0 70 80 70q28 0 85.5 -3t77.5 -3q26 0 84 3t82 3q76 0 76 -70q0 -24 -9.5 -41t-23.5 -31.5t-28.5 -33t-26.5 -54
t-16 -85.5q-6 -69 -6 -253z" />
    <glyph glyph-name="Yacute" unicode="&#xdd;" horiz-adv-x="1278" 
d="M524 1593q63 56 133 148q43 57 87.5 90.5t100.5 33.5q60 0 95 -35t35 -83q0 -98 -132 -177q-68 -39 -154.5 -67t-140.5 -28q-28 0 -49 11t-21 33q0 18 7.5 31t38.5 43zM821 503q0 -126 16 -233q5 -37 21 -65t34.5 -45t36.5 -31t30 -31.5t12 -39.5q0 -28 -23 -46t-65 -18
q-36 0 -124 3t-126 3q-40 0 -128 -3t-124 -3q-42 0 -65.5 18t-23.5 46q0 22 12 39.5t30 32t37 31t35 45t22 64.5q12 97 12 251q0 60 -41.5 143t-141.5 247q-119 196 -166 256q-21 26 -54 54t-48.5 48.5t-15.5 50.5q0 44 30.5 61.5t97.5 17.5q23 0 88.5 -3t123.5 -3
q57 0 127.5 3t98.5 3q97 0 97 -72q0 -30 -39 -77.5t-39 -84.5q0 -41 54.5 -154.5t90.5 -150.5q6 -7 17 -7q8 0 15 10q36 46 83.5 153.5t47.5 146.5q0 30 -13 55t-28 39.5t-28 34.5t-13 40q0 67 94 67q25 0 96 -3t98 -3q26 0 68.5 3t66.5 3q36 0 55.5 -17.5t19.5 -48.5
q0 -33 -13 -52t-52.5 -55.5t-71.5 -75.5q-18 -22 -35 -46.5t-38.5 -61.5t-32.5 -56t-39.5 -72.5t-36.5 -68.5q-11 -20 -40 -74t-41 -78t-29.5 -63.5t-24.5 -69t-7 -57.5z" />
    <glyph glyph-name="Thorn" unicode="&#xde;" horiz-adv-x="1335" 
d="M262 1066q-5 60 -24.5 103.5t-40 62.5t-37 43.5t-16.5 53.5q0 70 81 70q26 0 117 -3t133 -3q38 0 107.5 3t105.5 3q98 0 98 -69q0 -21 -15.5 -41t-54.5 -49q-65 -48 -65 -82q0 -39 35 -39q8 0 89 9.5t158 9.5q60 0 117.5 -11t115.5 -39.5t101.5 -72t70.5 -113.5t27 -158
q0 -77 -17 -144.5t-55 -126.5t-93.5 -101t-137 -66.5t-182.5 -24.5q-57 0 -119.5 9.5t-74.5 9.5q-22 0 -28.5 -10t-6.5 -36q0 -49 76 -87q27 -14 38 -20t28.5 -18.5t24 -25.5t6.5 -29q0 -80 -127 -80q-36 0 -117.5 3t-119.5 3q-42 0 -126 -3t-110 -3q-43 0 -66 17.5
t-23 46.5q0 25 16 46.5t36 37t40 48t26 76.5q14 94 14 470q0 250 -5 330zM944 708q0 99 -59.5 168t-151.5 69q-30 0 -46.5 -9t-27.5 -43.5t-11 -100.5v-117q0 -119 30.5 -158.5t99.5 -39.5q79 0 122.5 61.5t43.5 169.5z" />
    <glyph glyph-name="germandbls" unicode="&#xdf;" horiz-adv-x="1225" 
d="M162 335v571q0 106 22 209q38 175 154 285t297 110q156 0 262.5 -80.5t106.5 -221.5q0 -55 -18 -103t-43 -79.5t-50.5 -56t-43.5 -42.5t-18 -28q0 -3 1 -6t4.5 -6.5t7 -6t11 -7t13 -8t17 -10t20.5 -11.5q328 -179 328 -469q0 -180 -113 -285t-283 -105q-67 0 -126 20
t-59 60q0 22 24 32q60 23 96 49.5t59.5 73.5t23.5 114q0 40 -10 80t-22 70t-36.5 64.5t-40 53.5t-46 48t-40.5 37.5t-37 31.5q-42 47 -42 88q0 29 19 62.5t46 66t54 67.5t46 80.5t19 92.5q0 58 -26.5 89.5t-75.5 31.5q-68 0 -110 -72.5t-42 -229.5v-677q0 -60 14.5 -103
t32 -61.5t32 -42t14.5 -48.5q0 -69 -93 -69q-12 0 -73 3t-99 3q-36 0 -108.5 -3t-112.5 -3q-71 0 -71 64q0 17 7 33.5t14 25.5t21 23.5t17 17.5q56 63 56 177z" />
    <glyph glyph-name="agrave" unicode="&#xe0;" horiz-adv-x="1120" 
d="M663 1249q23 -48 23 -58q0 -40 -47 -40t-120 50t-123 108q-67 77 -67 147q0 47 28 80.5t80 33.5q33 0 59 -13.5t44 -40.5t28.5 -48.5t23.5 -54.5q35 -91 71 -164zM383 561q50 18 115 33.5t105.5 26t54.5 21.5q28 22 28 108q0 72 -32 116t-91 44q-97 0 -146 -164
q-16 -52 -42.5 -79.5t-80.5 -27.5q-66 0 -110.5 44t-44.5 122q0 103 115.5 182.5t309.5 79.5q77 0 144.5 -13t129 -43.5t105 -76.5t69.5 -116.5t26 -159.5q0 -66 -5 -175t-5 -164q0 -81 58 -81q9 0 23 3t21 3q10 0 16.5 -13t6.5 -31q0 -94 -70.5 -156.5t-172.5 -62.5
q-140 0 -196 96q-11 18 -20 18q-8 0 -25 -17q-47 -44 -121 -73.5t-147 -29.5q-135 0 -220 67.5t-85 191.5q0 117 73.5 196t213.5 131zM689 383q0 86 -17 86q-51 0 -109 -25q-53 -22 -85 -60t-32 -85q0 -41 26 -68t71 -27q72 0 109 51.5t37 127.5z" />
    <glyph glyph-name="aacute" unicode="&#xe1;" horiz-adv-x="1120" 
d="M516 1249q36 73 71 164q13 34 23 55t28.5 48t44 40.5t58.5 13.5q52 0 80.5 -33.5t28.5 -80.5q0 -68 -68 -147q-50 -58 -122.5 -108t-119.5 -50t-47 40q0 10 23 58zM383 561q50 18 115 33.5t105.5 26t54.5 21.5q28 22 28 108q0 72 -32 116t-91 44q-97 0 -146 -164
q-16 -52 -42.5 -79.5t-80.5 -27.5q-66 0 -110.5 44t-44.5 122q0 103 115.5 182.5t309.5 79.5q77 0 144.5 -13t129 -43.5t105 -76.5t69.5 -116.5t26 -159.5q0 -66 -5 -175t-5 -164q0 -81 58 -81q9 0 23 3t21 3q10 0 16.5 -13t6.5 -31q0 -94 -70.5 -156.5t-172.5 -62.5
q-140 0 -196 96q-11 18 -20 18q-8 0 -25 -17q-47 -44 -121 -73.5t-147 -29.5q-135 0 -220 67.5t-85 191.5q0 117 73.5 196t213.5 131zM689 383q0 86 -17 86q-51 0 -109 -25q-53 -22 -85 -60t-32 -85q0 -41 26 -68t71 -27q72 0 109 51.5t37 127.5z" />
    <glyph glyph-name="acircumflex" unicode="&#xe2;" horiz-adv-x="1120" 
d="M820 1149q-62 0 -175 101q-7 6 -17 16t-15.5 16t-12 10.5t-9.5 4.5q-4 0 -12 -6.5t-20.5 -19t-20.5 -19.5q-107 -103 -169 -103q-17 0 -28.5 9.5t-11.5 26.5q0 20 28 57q50 68 123 204q3 5 13 22.5t13.5 23t12 18.5t15 17.5t16.5 11.5t21 9.5t24 2.5q9 0 17.5 -1.5
t14.5 -3.5t13.5 -7.5t11.5 -8t10.5 -11t9.5 -12t9.5 -14.5t8 -14t9 -16.5t8.5 -16.5q51 -101 126 -204q28 -37 28 -57q0 -17 -11.5 -26.5t-29.5 -9.5zM383 561q50 18 115 33.5t105.5 26t54.5 21.5q28 22 28 108q0 72 -32 116t-91 44q-97 0 -146 -164q-16 -52 -42.5 -79.5
t-80.5 -27.5q-66 0 -110.5 44t-44.5 122q0 103 115.5 182.5t309.5 79.5q77 0 144.5 -13t129 -43.5t105 -76.5t69.5 -116.5t26 -159.5q0 -66 -5 -175t-5 -164q0 -81 58 -81q9 0 23 3t21 3q10 0 16.5 -13t6.5 -31q0 -94 -70.5 -156.5t-172.5 -62.5q-140 0 -196 96
q-11 18 -20 18q-8 0 -25 -17q-47 -44 -121 -73.5t-147 -29.5q-135 0 -220 67.5t-85 191.5q0 117 73.5 196t213.5 131zM689 383q0 86 -17 86q-51 0 -109 -25q-53 -22 -85 -60t-32 -85q0 -41 26 -68t71 -27q72 0 109 51.5t37 127.5z" />
    <glyph glyph-name="atilde" unicode="&#xe3;" horiz-adv-x="1120" 
d="M282 1293q0 82 50.5 132t123.5 50q46 0 95.5 -22.5t95 -45t81.5 -22.5q39 0 59.5 24t30 48t22.5 24q24 0 48 -35.5t24 -93.5q0 -83 -50.5 -135t-128.5 -52q-41 0 -86.5 16.5t-78 37t-69.5 37t-63 16.5q-23 0 -40.5 -12.5t-25.5 -28t-17.5 -28t-18.5 -12.5q-18 0 -35 27
t-17 75zM383 561q50 18 115 33.5t105.5 26t54.5 21.5q28 22 28 108q0 72 -32 116t-91 44q-97 0 -146 -164q-16 -52 -42.5 -79.5t-80.5 -27.5q-66 0 -110.5 44t-44.5 122q0 103 115.5 182.5t309.5 79.5q77 0 144.5 -13t129 -43.5t105 -76.5t69.5 -116.5t26 -159.5
q0 -66 -5 -175t-5 -164q0 -81 58 -81q9 0 23 3t21 3q10 0 16.5 -13t6.5 -31q0 -94 -70.5 -156.5t-172.5 -62.5q-140 0 -196 96q-11 18 -20 18q-8 0 -25 -17q-47 -44 -121 -73.5t-147 -29.5q-135 0 -220 67.5t-85 191.5q0 117 73.5 196t213.5 131zM689 383q0 86 -17 86
q-51 0 -109 -25q-53 -22 -85 -60t-32 -85q0 -41 26 -68t71 -27q72 0 109 51.5t37 127.5z" />
    <glyph glyph-name="adieresis" unicode="&#xe4;" horiz-adv-x="1120" 
d="M422 1501q68 0 111.5 -42t43.5 -108q0 -76 -55 -126.5t-132 -50.5q-61 0 -103 40t-42 103q0 72 50.5 128t126.5 56zM820 1501q67 0 110.5 -42t43.5 -108q0 -76 -55 -126.5t-131 -50.5q-61 0 -103.5 40t-42.5 103q0 73 51 128.5t127 55.5zM383 561q50 18 115 33.5
t105.5 26t54.5 21.5q28 22 28 108q0 72 -32 116t-91 44q-97 0 -146 -164q-16 -52 -42.5 -79.5t-80.5 -27.5q-66 0 -110.5 44t-44.5 122q0 103 115.5 182.5t309.5 79.5q77 0 144.5 -13t129 -43.5t105 -76.5t69.5 -116.5t26 -159.5q0 -66 -5 -175t-5 -164q0 -81 58 -81
q9 0 23 3t21 3q10 0 16.5 -13t6.5 -31q0 -94 -70.5 -156.5t-172.5 -62.5q-140 0 -196 96q-11 18 -20 18q-8 0 -25 -17q-47 -44 -121 -73.5t-147 -29.5q-135 0 -220 67.5t-85 191.5q0 117 73.5 196t213.5 131zM689 383q0 86 -17 86q-51 0 -109 -25q-53 -22 -85 -60t-32 -85
q0 -41 26 -68t71 -27q72 0 109 51.5t37 127.5z" />
    <glyph glyph-name="aring" unicode="&#xe5;" horiz-adv-x="1120" 
d="M593 1574q96 0 159.5 -59t63.5 -154q0 -99 -67 -159t-166 -60q-97 0 -161 58.5t-64 152.5q0 98 68 159.5t167 61.5zM603 1466q-44 0 -70.5 -29.5t-26.5 -74.5q0 -43 25 -69.5t66 -26.5q43 0 69 30t26 75q0 41 -24.5 68t-64.5 27zM383 561q50 18 115 33.5t105.5 26
t54.5 21.5q28 22 28 108q0 72 -32 116t-91 44q-97 0 -146 -164q-16 -52 -42.5 -79.5t-80.5 -27.5q-66 0 -110.5 44t-44.5 122q0 103 115.5 182.5t309.5 79.5q77 0 144.5 -13t129 -43.5t105 -76.5t69.5 -116.5t26 -159.5q0 -66 -5 -175t-5 -164q0 -81 58 -81q9 0 23 3t21 3
q10 0 16.5 -13t6.5 -31q0 -94 -70.5 -156.5t-172.5 -62.5q-140 0 -196 96q-11 18 -20 18q-8 0 -25 -17q-47 -44 -121 -73.5t-147 -29.5q-135 0 -220 67.5t-85 191.5q0 117 73.5 196t213.5 131zM689 383q0 86 -17 86q-51 0 -109 -25q-53 -22 -85 -60t-32 -85q0 -41 26 -68
t71 -27q72 0 109 51.5t37 127.5z" />
    <glyph glyph-name="ae" unicode="&#xe6;" horiz-adv-x="1633" 
d="M538 1065q176 0 282 -76q18 -11 33.5 -24t22 -17.5t13.5 -4.5t12.5 3t18.5 13.5t26 19.5q123 86 273 86q86 0 157 -25t116.5 -64t76.5 -89t44 -98t13 -93q0 -98 -97 -149q-48 -28 -173.5 -51t-265.5 -29q-28 -3 -28 -21q0 -27 14.5 -58t42 -60.5t75.5 -49t108 -19.5
q63 0 118 19.5t84.5 40t62.5 51.5q24 19 42 19q35 0 35 -64q0 -55 -31.5 -115.5t-87.5 -113t-145 -86.5t-192 -34q-244 0 -379 164q-13 17 -22 17q-10 0 -22 -16q-65 -74 -150 -120t-216 -46q-135 0 -220 67.5t-85 191.5q0 117 75.5 198.5t212.5 124.5q54 18 116.5 28.5
t102 16.5t52.5 14q27 19 27 126q0 78 -30.5 123t-89.5 45q-94 0 -145 -164q-15 -51 -42 -79t-81 -28q-66 0 -110 43.5t-44 122.5q0 103 109.5 181.5t290.5 78.5zM1302 752q0 58 -31.5 96t-83.5 38q-70 0 -118.5 -67.5t-48.5 -146.5q0 -57 39 -57q53 0 123.5 21t100.5 59
q19 22 19 57zM692 399q0 51 -39 51q-56 0 -99 -17q-51 -19 -83.5 -58t-32.5 -79q0 -46 26.5 -69.5t65.5 -23.5q72 0 117 56t45 140z" />
    <glyph glyph-name="ccedilla" unicode="&#xe7;" horiz-adv-x="1034" 
d="M437 -174q0 27 23.5 73.5t56.5 82.5q-200 26 -317.5 169.5t-117.5 348.5q0 113 37 215t105 180t172 124t229 46q157 0 261.5 -71t104.5 -189q0 -86 -55.5 -141t-154.5 -55q-38 0 -58.5 18t-29.5 61q-24 106 -44 143q-33 60 -89 60q-65 0 -101.5 -65.5t-36.5 -166.5
q0 -156 81.5 -258.5t224.5 -102.5q37 0 72 8.5t54.5 16t49 28.5t34 25.5t29.5 28.5q6 5 8 7q25 19 38 19q39 0 39 -74q0 -86 -47.5 -167t-141.5 -140t-213 -70q-18 -45 -18 -65q0 -2 1.5 -4t4.5 -4.5t5.5 -3.5t7 -3.5t6.5 -3.5q110 -66 110 -168q0 -93 -65 -145.5
t-163 -52.5q-75 0 -132.5 37.5t-57.5 70.5q0 16 9 24t21 8q9 0 41.5 -13t60.5 -13q31 0 52.5 16t21.5 45q0 69 -94 90q-24 5 -24 31z" />
    <glyph glyph-name="egrave" unicode="&#xe8;" horiz-adv-x="1055" 
d="M694 1249q24 -50 24 -58q0 -40 -47 -40t-120 50t-123 108q-68 79 -68 147q0 47 28.5 80.5t80.5 33.5q33 0 59 -13.5t44 -40.5t28.5 -48.5t23.5 -54.5q39 -100 70 -164zM946 547q-76 -39 -200.5 -62t-233.5 -31q-28 -1 -28 -20q0 -26 14 -55t40.5 -56.5t73.5 -45.5
t106 -18q63 0 118.5 19.5t85 40t62.5 51.5q24 19 43 19q35 0 35 -64q0 -55 -31.5 -115.5t-88 -113t-146 -86.5t-193.5 -34q-240 0 -379.5 144.5t-139.5 377.5q0 153 67 281.5t194.5 207t288.5 78.5q86 0 157.5 -25t117 -64t77 -89t44.5 -98t13 -93q0 -98 -97 -149zM719 754
q0 57 -34 94.5t-87 37.5q-71 0 -116.5 -62.5t-45.5 -143.5q0 -70 45 -70q47 0 117 24t101 62q20 25 20 58z" />
    <glyph glyph-name="eacute" unicode="&#xe9;" horiz-adv-x="1055" 
d="M488 1249q36 73 71 164q13 33 23.5 54.5t28.5 48.5t44 40.5t59 13.5q52 0 80 -33.5t28 -80.5q0 -70 -67 -147q-50 -58 -123 -108t-120 -50t-47 40q0 10 23 58zM946 547q-76 -39 -200.5 -62t-233.5 -31q-28 -1 -28 -20q0 -26 14 -55t40.5 -56.5t73.5 -45.5t106 -18
q63 0 118.5 19.5t85 40t62.5 51.5q24 19 43 19q35 0 35 -64q0 -55 -31.5 -115.5t-88 -113t-146 -86.5t-193.5 -34q-240 0 -379.5 144.5t-139.5 377.5q0 153 67 281.5t194.5 207t288.5 78.5q86 0 157.5 -25t117 -64t77 -89t44.5 -98t13 -93q0 -98 -97 -149zM719 754
q0 57 -34 94.5t-87 37.5q-71 0 -116.5 -62.5t-45.5 -143.5q0 -70 45 -70q47 0 117 24t101 62q20 25 20 58z" />
    <glyph glyph-name="ecircumflex" unicode="&#xea;" horiz-adv-x="1055" 
d="M819 1149q-62 0 -175 101q-7 6 -17 16t-15.5 16t-12 10.5t-9.5 4.5q-4 0 -12 -6.5t-20.5 -19t-20.5 -19.5q-107 -103 -169 -103q-17 0 -28.5 9.5t-11.5 26.5q0 20 28 57q50 68 123 204q3 5 13 22.5t13.5 23t12 18.5t15 17.5t16.5 11.5t21 9.5t24 2.5q9 0 17.5 -1.5
t14.5 -3.5t13.5 -7.5t11.5 -8t10.5 -11t9.5 -12t9.5 -14.5t8 -14t9 -16.5t8.5 -16.5q54 -106 125 -204q29 -39 29 -57q0 -17 -11.5 -26.5t-29.5 -9.5zM946 547q-76 -39 -200.5 -62t-233.5 -31q-28 -1 -28 -20q0 -26 14 -55t40.5 -56.5t73.5 -45.5t106 -18q63 0 118.5 19.5
t85 40t62.5 51.5q24 19 43 19q35 0 35 -64q0 -55 -31.5 -115.5t-88 -113t-146 -86.5t-193.5 -34q-240 0 -379.5 144.5t-139.5 377.5q0 153 67 281.5t194.5 207t288.5 78.5q86 0 157.5 -25t117 -64t77 -89t44.5 -98t13 -93q0 -98 -97 -149zM719 754q0 57 -34 94.5t-87 37.5
q-71 0 -116.5 -62.5t-45.5 -143.5q0 -70 45 -70q47 0 117 24t101 62q20 25 20 58z" />
    <glyph glyph-name="edieresis" unicode="&#xeb;" horiz-adv-x="1055" 
d="M414 1501q68 0 111 -41.5t43 -108.5q0 -76 -55 -126.5t-131 -50.5q-61 0 -103 40t-42 103q0 72 50.5 128t126.5 56zM812 1501q67 0 110.5 -42t43.5 -108q0 -76 -55 -126.5t-131 -50.5q-61 0 -103.5 40t-42.5 103q0 73 51 128.5t127 55.5zM946 547q-76 -39 -200.5 -62
t-233.5 -31q-28 -1 -28 -20q0 -26 14 -55t40.5 -56.5t73.5 -45.5t106 -18q63 0 118.5 19.5t85 40t62.5 51.5q24 19 43 19q35 0 35 -64q0 -55 -31.5 -115.5t-88 -113t-146 -86.5t-193.5 -34q-240 0 -379.5 144.5t-139.5 377.5q0 153 67 281.5t194.5 207t288.5 78.5
q86 0 157.5 -25t117 -64t77 -89t44.5 -98t13 -93q0 -98 -97 -149zM719 754q0 57 -34 94.5t-87 37.5q-71 0 -116.5 -62.5t-45.5 -143.5q0 -70 45 -70q47 0 117 24t101 62q20 25 20 58z" />
    <glyph glyph-name="igrave" unicode="&#xec;" horiz-adv-x="647" 
d="M470 1249q24 -50 24 -58q0 -40 -48 -40q-47 0 -119.5 50t-122.5 108q-68 79 -68 147q0 47 28.5 80.5t80.5 33.5q33 0 58.5 -13.5t44 -40.5t28.5 -48t23 -55q35 -91 71 -164zM550 994q0 -16 -5.5 -152t-5.5 -267v-257q0 -64 10.5 -97t35.5 -62q9 -10 28.5 -27t28 -32
t8.5 -38q0 -68 -87 -68q-31 0 -98 3t-96 3q-36 0 -107.5 -3t-117.5 -3q-36 0 -53 17.5t-17 46.5q0 17 7.5 34t15 26t21 22.5t16.5 17.5q55 69 55 177v337q0 94 -61 134q-18 13 -24 18t-14.5 18.5t-8.5 29.5q0 18 8 31t25.5 22.5t34.5 16t48 17t52 19.5q29 12 72 30.5
t67.5 29t49.5 19t39 8.5q73 0 73 -71z" />
    <glyph glyph-name="iacute" unicode="&#xed;" horiz-adv-x="647" 
d="M246 1249q31 64 70 164q13 33 23.5 54.5t28.5 48.5t44 40.5t59 13.5q52 0 80.5 -33.5t28.5 -80.5q0 -68 -68 -147q-50 -58 -123 -108t-120 -50t-47 40q0 8 24 58zM550 994q0 -16 -5.5 -152t-5.5 -267v-257q0 -64 10.5 -97t35.5 -62q9 -10 28.5 -27t28 -32t8.5 -38
q0 -68 -87 -68q-31 0 -98 3t-96 3q-36 0 -107.5 -3t-117.5 -3q-36 0 -53 17.5t-17 46.5q0 17 7.5 34t15 26t21 22.5t16.5 17.5q55 69 55 177v337q0 94 -61 134q-18 13 -24 18t-14.5 18.5t-8.5 29.5q0 18 8 31t25.5 22.5t34.5 16t48 17t52 19.5q29 12 72 30.5t67.5 29
t49.5 19t39 8.5q73 0 73 -71z" />
    <glyph glyph-name="icircumflex" unicode="&#xee;" horiz-adv-x="647" 
d="M592 1149q-62 0 -175 101q-7 6 -21.5 20.5t-21.5 20.5t-12 6q-4 0 -12 -6.5t-20.5 -19t-20.5 -19.5q-107 -103 -169 -103q-17 0 -28.5 9.5t-11.5 26.5q0 18 29 57q50 68 123 204q3 5 13 22.5t13.5 23t12 18.5t15 17.5t16.5 11.5t21 9.5t24 2.5q10 0 18.5 -1.5t16.5 -5.5
l14 -7t13 -11.5t10.5 -12.5t10 -15.5t9 -15.5t10 -18t9.5 -18q51 -101 126 -204q29 -39 29 -57q0 -17 -11.5 -26.5t-29.5 -9.5zM550 994q0 -16 -5.5 -152t-5.5 -267v-257q0 -64 10.5 -97t35.5 -62q9 -10 28.5 -27t28 -32t8.5 -38q0 -68 -87 -68q-31 0 -98 3t-96 3
q-36 0 -107.5 -3t-117.5 -3q-36 0 -53 17.5t-17 46.5q0 17 7.5 34t15 26t21 22.5t16.5 17.5q55 69 55 177v337q0 94 -61 134q-18 13 -24 18t-14.5 18.5t-8.5 29.5q0 18 8 31t25.5 22.5t34.5 16t48 17t52 19.5q29 12 72 30.5t67.5 29t49.5 19t39 8.5q73 0 73 -71z" />
    <glyph glyph-name="idieresis" unicode="&#xef;" horiz-adv-x="647" 
d="M178 1501q64 0 106 -42t42 -108q0 -76 -50.5 -125t-121.5 -49q-62 0 -101 40t-39 104q0 72 46.5 126t117.5 54zM532 1501q64 0 106.5 -42t42.5 -108q0 -75 -51 -124.5t-121 -49.5q-62 0 -100.5 40t-38.5 104q0 72 46 126t116 54zM520 994q0 -16 -5.5 -152t-5.5 -267v-257
q0 -64 10.5 -97t35.5 -62q9 -11 29 -27.5t28.5 -31.5t8.5 -38q0 -68 -87 -68q-31 0 -98.5 3t-96.5 3q-36 0 -107 -3t-117 -3q-36 0 -53.5 18t-17.5 46q0 17 7.5 34t15 26t21 22.5t16.5 17.5q56 71 56 177v337q0 93 -62 134q-18 13 -24 18t-14.5 18.5t-8.5 29.5q0 18 8 31
t25.5 22.5t34.5 16t48 17t52 19.5q29 12 72 30.5t67.5 29t49.5 19t39 8.5q73 0 73 -71z" />
    <glyph glyph-name="eth" unicode="&#xf0;" horiz-adv-x="1154" 
d="M633 991q9 -4 16 -4q8 0 8 6q0 5 -6 19q-47 79 -112 149l-204 -95q-60 -27 -79 -27q-24 0 -36.5 26.5t-12.5 62.5q0 43 56 71l151 72q-74 56 -176 106q-60 30 -60 60q0 26 25 38t54 12q175 0 379 -117l228 108q47 21 67 21t32 -17.5t15 -35.5t3 -36q0 -48 -62 -78
l-135 -62q62 -51 116 -108q115 -122 182.5 -281.5t67.5 -335.5q0 -138 -42 -247t-115.5 -177.5t-169.5 -104.5t-208 -36q-241 0 -387 149.5t-146 384.5q0 119 33.5 217.5t89.5 161.5t128 97.5t150 34.5q86 0 150 -34zM571 881q-50 0 -83.5 -54.5t-33.5 -180.5
q0 -194 56 -322q57 -124 150 -124q59 0 97.5 48t38.5 156q0 76 -19 167.5t-49 160.5q-32 73 -73.5 111t-83.5 38z" />
    <glyph glyph-name="ntilde" unicode="&#xf1;" 
d="M350 1293q0 82 50.5 132t123.5 50q46 0 96 -22.5t95.5 -45t81.5 -22.5q31 0 50.5 15t26 33t15 33t19.5 15q24 0 48.5 -35.5t24.5 -93.5q0 -83 -50.5 -135t-128.5 -52q-41 0 -86.5 16.5t-78 37t-69.5 37t-63 16.5q-23 0 -40.5 -12.5t-26 -28t-18 -28t-18.5 -12.5
q-18 0 -35 27t-17 75zM1200 691q0 -85 -14 -231t-14 -174q0 -88 52 -133q9 -8 26 -21t24 -19.5t13.5 -20t6.5 -30.5q0 -68 -94 -68q-30 0 -90 3t-89 3q-37 0 -89.5 -3t-91.5 -3q-35 0 -51.5 18t-16.5 46q0 17 3.5 35.5t6.5 28.5t10 29t8 21q15 46 28 168t13 238
q0 250 -154 250q-54 0 -101.5 -44.5t-47.5 -126.5v-339q0 -70 6.5 -101.5t29.5 -57.5q9 -11 29 -27.5t28.5 -31.5t8.5 -38q0 -68 -87 -68q-32 0 -94.5 3t-89.5 3q-37 0 -110 -3t-115 -3q-70 0 -70 64q0 17 7 34t15 26.5t20.5 22.5t16.5 17q56 69 56 177v373q0 73 -66 109
q-41 25 -41 60q0 21 15 37t32 24t56 23t62 25q36 16 70.5 33.5t49 25t29.5 12.5t29 5q34 0 54 -17.5t32 -61.5q13 -63 31 -63q7 0 36.5 22.5t67 50t100.5 50t127 22.5q327 0 327 -374z" />
    <glyph glyph-name="ograve" unicode="&#xf2;" horiz-adv-x="1150" 
d="M709 1249q23 -48 23 -58q0 -40 -47 -40t-120 50t-123 108q-67 77 -67 147q0 47 28 80.5t80 33.5q33 0 59 -13.5t44 -40.5t28.5 -48.5t23.5 -54.5q35 -91 71 -164zM82 514q0 244 146.5 397.5t374.5 153.5q87 0 167.5 -23.5t149.5 -71.5t120.5 -115t80.5 -159.5t29 -199.5
q0 -126 -42 -225.5t-116 -162.5t-170 -95.5t-207 -32.5q-241 0 -387 149.5t-146 384.5zM571 881q-50 0 -83.5 -54.5t-33.5 -180.5q0 -194 56 -322q57 -124 150 -124q58 0 96.5 48.5t38.5 154.5q0 76 -19 167.5t-49 160.5q-32 73 -73 111.5t-83 38.5z" />
    <glyph glyph-name="oacute" unicode="&#xf3;" horiz-adv-x="1150" 
d="M512 1249q36 73 71 164q13 34 23 55t28.5 48t44 40.5t58.5 13.5q52 0 80.5 -33.5t28.5 -80.5q0 -68 -68 -147q-50 -58 -122.5 -108t-119.5 -50q-48 0 -48 40q0 8 24 58zM82 514q0 244 146.5 397.5t374.5 153.5q87 0 167.5 -23.5t149.5 -71.5t120.5 -115t80.5 -159.5
t29 -199.5q0 -126 -42 -225.5t-116 -162.5t-170 -95.5t-207 -32.5q-241 0 -387 149.5t-146 384.5zM571 881q-50 0 -83.5 -54.5t-33.5 -180.5q0 -194 56 -322q57 -124 150 -124q58 0 96.5 48.5t38.5 154.5q0 76 -19 167.5t-49 160.5q-32 73 -73 111.5t-83 38.5z" />
    <glyph glyph-name="ocircumflex" unicode="&#xf4;" horiz-adv-x="1150" 
d="M840 1149q-62 0 -175 101q-7 6 -21.5 20.5t-21.5 20.5t-12 6q-4 0 -12 -6.5t-20.5 -19t-20.5 -19.5q-107 -103 -169 -103q-17 0 -28.5 9.5t-11.5 26.5q0 18 29 57q50 68 123 204q4 6 13 22.5t13 23t12.5 18.5t15 17.5t16 12t20.5 9t24 2.5q9 0 17.5 -1.5t14.5 -3.5
t13.5 -7.5t11.5 -8t10.5 -11t9.5 -12t9.5 -14.5t8 -14t9 -16.5t8.5 -16.5q51 -101 126 -204q29 -39 29 -57q0 -17 -11.5 -26.5t-29.5 -9.5zM82 514q0 244 146.5 397.5t374.5 153.5q87 0 167.5 -23.5t149.5 -71.5t120.5 -115t80.5 -159.5t29 -199.5q0 -126 -42 -225.5
t-116 -162.5t-170 -95.5t-207 -32.5q-241 0 -387 149.5t-146 384.5zM571 881q-50 0 -83.5 -54.5t-33.5 -180.5q0 -194 56 -322q57 -124 150 -124q58 0 96.5 48.5t38.5 154.5q0 76 -19 167.5t-49 160.5q-32 73 -73 111.5t-83 38.5z" />
    <glyph glyph-name="otilde" unicode="&#xf5;" horiz-adv-x="1150" 
d="M299 1293q0 82 50.5 132t123.5 50q46 0 95.5 -22.5t95 -45t81.5 -22.5q39 0 59.5 24t30 48t22.5 24q24 0 48.5 -35.5t24.5 -93.5q0 -83 -50.5 -135t-128.5 -52q-41 0 -86.5 16.5t-78 37t-69.5 37t-63 16.5q-23 0 -40.5 -12.5t-26 -28t-18 -28t-18.5 -12.5q-18 0 -35 27
t-17 75zM82 514q0 244 146.5 397.5t374.5 153.5q87 0 167.5 -23.5t149.5 -71.5t120.5 -115t80.5 -159.5t29 -199.5q0 -126 -42 -225.5t-116 -162.5t-170 -95.5t-207 -32.5q-241 0 -387 149.5t-146 384.5zM571 881q-50 0 -83.5 -54.5t-33.5 -180.5q0 -194 56 -322
q57 -124 150 -124q58 0 96.5 48.5t38.5 154.5q0 76 -19 167.5t-49 160.5q-32 73 -73 111.5t-83 38.5z" />
    <glyph glyph-name="odieresis" unicode="&#xf6;" horiz-adv-x="1150" 
d="M442 1501q68 0 111.5 -42t43.5 -108q0 -76 -55 -126.5t-131 -50.5q-61 0 -103.5 40t-42.5 103q0 72 50.5 128t126.5 56zM841 1501q67 0 110 -42t43 -108q0 -76 -54.5 -126.5t-130.5 -50.5q-61 0 -103.5 40t-42.5 103q0 73 51 128.5t127 55.5zM82 514q0 244 146.5 397.5
t374.5 153.5q87 0 167.5 -23.5t149.5 -71.5t120.5 -115t80.5 -159.5t29 -199.5q0 -126 -42 -225.5t-116 -162.5t-170 -95.5t-207 -32.5q-241 0 -387 149.5t-146 384.5zM571 881q-50 0 -83.5 -54.5t-33.5 -180.5q0 -194 56 -322q57 -124 150 -124q58 0 96.5 48.5t38.5 154.5
q0 76 -19 167.5t-49 160.5q-32 73 -73 111.5t-83 38.5z" />
    <glyph glyph-name="divide" unicode="&#xf7;" horiz-adv-x="1101" 
d="M803 1022q0 -75 -50.5 -121t-121.5 -46q-65 0 -109.5 39t-44.5 111q0 78 52 124.5t120 46.5q63 0 108.5 -41.5t45.5 -112.5zM1013 557h-800q-35 0 -35 41q0 71 20 133q8 28 22 37.5t47 9.5h800q35 0 35 -41q0 -69 -20 -134q-8 -27 -21.5 -36.5t-47.5 -9.5zM803 323
q0 -75 -50.5 -121t-121.5 -46q-65 0 -109.5 38.5t-44.5 109.5q0 77 52 124.5t120 47.5q63 0 108.5 -41t45.5 -112z" />
    <glyph glyph-name="oslash" unicode="&#xf8;" horiz-adv-x="1150" 
d="M82 514q0 244 146.5 397.5t374.5 153.5q128 0 238 -51l75 115q35 50 79 50q55 0 80 -22t25 -47t-21 -56l-92 -139q163 -158 163 -419q0 -126 -42 -225.5t-116 -162.5t-170 -95.5t-207 -32.5q-124 0 -232 44l-86 -129q-18 -27 -58 -27q-48 0 -72.5 23t-24.5 46q0 5 10 32
l94 143q-79 73 -121.5 176t-42.5 226zM571 881q-52 0 -90 -55t-38 -180q0 -107 24 -215l224 374q-58 76 -120 76zM803 401q0 96 -29 210l-222 -362q49 -49 108 -49q60 0 101.5 48t41.5 153z" />
    <glyph glyph-name="ugrave" unicode="&#xf9;" horiz-adv-x="1284" 
d="M755 1249q23 -48 23 -58q0 -40 -47 -40t-120 50t-123 108q-67 77 -67 147q0 47 28 80.5t80 33.5q33 0 59 -13.5t44 -40.5t28.5 -48.5t23.5 -54.5q35 -91 71 -164zM1149 685v-366q0 -32 15.5 -56.5t47.5 -24.5q9 0 23 3t21 3q10 0 16.5 -13t6.5 -31q0 -94 -70.5 -156.5
t-172.5 -62.5q-147 0 -211 112q-12 24 -27 24q-5 0 -32 -23q-25 -22 -43 -35t-55 -34.5t-83.5 -33t-99.5 -11.5q-338 0 -338 369q0 81 12.5 222.5t12.5 157.5q0 75 -47 121q-9 9 -32.5 25.5t-32.5 30.5t-9 37q0 61 94 70q88 9 159.5 21.5t106.5 19.5t55 7q74 0 74 -79
q0 -56 -16.5 -212t-16.5 -304q0 -126 35 -188.5t116 -62.5q59 0 101 45.5t42 145.5v276q0 70 -8 103t-34 61q-9 10 -28.5 27t-28 32t-8.5 38q0 60 90 70q73 8 146.5 20t116.5 20t58 8q67 0 67 -78q0 -25 -11.5 -112t-11.5 -186z" />
    <glyph glyph-name="uacute" unicode="&#xfa;" horiz-adv-x="1284" 
d="M549 1249q36 73 71 164q13 34 23 55t28.5 48t44 40.5t58.5 13.5q52 0 80.5 -33.5t28.5 -80.5q0 -68 -68 -147q-50 -58 -123 -108t-120 -50t-47 40q0 8 24 58zM1149 685v-366q0 -32 15.5 -56.5t47.5 -24.5q9 0 23 3t21 3q10 0 16.5 -13t6.5 -31q0 -94 -70.5 -156.5
t-172.5 -62.5q-147 0 -211 112q-12 24 -27 24q-5 0 -32 -23q-25 -22 -43 -35t-55 -34.5t-83.5 -33t-99.5 -11.5q-338 0 -338 369q0 81 12.5 222.5t12.5 157.5q0 75 -47 121q-9 9 -32.5 25.5t-32.5 30.5t-9 37q0 61 94 70q88 9 159.5 21.5t106.5 19.5t55 7q74 0 74 -79
q0 -56 -16.5 -212t-16.5 -304q0 -126 35 -188.5t116 -62.5q59 0 101 45.5t42 145.5v276q0 70 -8 103t-34 61q-9 10 -28.5 27t-28 32t-8.5 38q0 60 90 70q73 8 146.5 20t116.5 20t58 8q67 0 67 -78q0 -25 -11.5 -112t-11.5 -186z" />
    <glyph glyph-name="ucircumflex" unicode="&#xfb;" horiz-adv-x="1284" 
d="M890 1149q-62 0 -175 101q-7 6 -21.5 20.5t-21.5 20.5t-12 6q-4 0 -12 -6.5t-20.5 -19t-20.5 -19.5q-107 -103 -169 -103q-17 0 -28.5 9.5t-11.5 26.5q0 18 29 57q50 68 123 204q3 5 13 22.5t13.5 23t12 18.5t15 17.5t16.5 11.5t21 9.5t24 2.5q10 0 18.5 -1.5t16.5 -5.5
l14 -7t13 -11.5t10.5 -12.5t10 -15.5t9 -15.5t10 -18t9.5 -18q51 -101 126 -204q29 -39 29 -57q0 -17 -11.5 -26.5t-29.5 -9.5zM1149 685v-366q0 -32 15.5 -56.5t47.5 -24.5q9 0 23 3t21 3q10 0 16.5 -13t6.5 -31q0 -94 -70.5 -156.5t-172.5 -62.5q-147 0 -211 112
q-12 24 -27 24q-5 0 -32 -23q-25 -22 -43 -35t-55 -34.5t-83.5 -33t-99.5 -11.5q-338 0 -338 369q0 81 12.5 222.5t12.5 157.5q0 75 -47 121q-9 9 -32.5 25.5t-32.5 30.5t-9 37q0 61 94 70q88 9 159.5 21.5t106.5 19.5t55 7q74 0 74 -79q0 -56 -16.5 -212t-16.5 -304
q0 -126 35 -188.5t116 -62.5q59 0 101 45.5t42 145.5v276q0 70 -8 103t-34 61q-9 10 -28.5 27t-28 32t-8.5 38q0 60 90 70q73 8 146.5 20t116.5 20t58 8q67 0 67 -78q0 -25 -11.5 -112t-11.5 -186z" />
    <glyph glyph-name="udieresis" unicode="&#xfc;" horiz-adv-x="1284" 
d="M484 1501q68 0 111.5 -42t43.5 -108q0 -76 -55 -126.5t-131 -50.5q-61 0 -103.5 40t-42.5 103q0 72 50.5 128t126.5 56zM883 1501q67 0 110 -42t43 -108q0 -76 -54.5 -126.5t-130.5 -50.5q-61 0 -103.5 40t-42.5 103q0 73 51 128.5t127 55.5zM1149 685v-366
q0 -32 15.5 -56.5t47.5 -24.5q9 0 23 3t21 3q10 0 16.5 -13t6.5 -31q0 -94 -70.5 -156.5t-172.5 -62.5q-147 0 -211 112q-12 24 -27 24q-5 0 -32 -23q-25 -22 -43 -35t-55 -34.5t-83.5 -33t-99.5 -11.5q-338 0 -338 369q0 81 12.5 222.5t12.5 157.5q0 75 -47 121
q-9 9 -32.5 25.5t-32.5 30.5t-9 37q0 61 94 70q88 9 159.5 21.5t106.5 19.5t55 7q74 0 74 -79q0 -56 -16.5 -212t-16.5 -304q0 -126 35 -188.5t116 -62.5q59 0 101 45.5t42 145.5v276q0 70 -8 103t-34 61q-9 10 -28.5 27t-28 32t-8.5 38q0 60 90 70q73 8 146.5 20t116.5 20
t58 8q67 0 67 -78q0 -25 -11.5 -112t-11.5 -186z" />
    <glyph glyph-name="yacute" unicode="&#xfd;" horiz-adv-x="1134" 
d="M511 1249q36 73 71 164q13 34 23 55t28.5 48t44 40.5t58.5 13.5q52 0 80.5 -33.5t28.5 -80.5q0 -68 -68 -147q-50 -58 -122.5 -108t-119.5 -50q-48 0 -48 40q0 8 24 58zM999 744q-126 -342 -174 -453q-123 -294 -151 -354q-112 -239 -222 -324q-81 -64 -178 -64
q-94 0 -155 56.5t-61 147.5q0 80 45.5 134.5t110.5 54.5q51 0 91 -44q8 -8 22 -25t21.5 -25t20 -15.5t25.5 -7.5q25 0 51.5 32t26.5 67q0 31 -29 106.5t-81.5 192.5t-69.5 160q-175 421 -239 488q-22 25 -31.5 36t-19.5 32t-10 43q0 32 20 50.5t57 18.5q33 0 90.5 -3.5
t91.5 -3.5q32 0 101 3.5t105 3.5q41 0 60.5 -17t19.5 -62q0 -18 -27 -57t-27 -72q0 -50 76 -229q72 -171 86 -192q7 -12 12 -12q8 0 19 20t23.5 53.5t25.5 74.5t27 86q7 22 10 33q30 88 30 125q0 41 -20 73.5t-40 58.5t-20 50q0 31 19 49t48 18q26 0 84 -3.5t81 -3.5
q28 0 68.5 3.5t56.5 3.5q68 0 68 -62q0 -27 -12.5 -48t-31 -37t-45.5 -58t-49 -102z" />
    <glyph glyph-name="thorn" unicode="&#xfe;" horiz-adv-x="1196" 
d="M126 -83v1236q0 67 -67 102q-20 13 -30.5 25.5t-10.5 34.5q0 15 7 27t25.5 22.5t32.5 16t48.5 18t52.5 19.5q49 18 100.5 42t78 34.5t49.5 10.5q72 0 72 -71q0 -12 -11 -145.5t-11 -262.5v-61q0 -46 15 -46q6 0 29.5 23t54.5 50t89 50t123 23q121 0 208.5 -68t130 -181
t42.5 -257q0 -138 -40 -250t-107 -182.5t-153 -108.5t-181 -38q-52 0 -91.5 9.5t-60 19t-26.5 9.5q-21 0 -21 -53v-67q0 -33 5 -57t18.5 -43.5t22.5 -28t31 -27.5q7 -6 27 -19.5t29 -21t18 -23t9 -34.5q0 -68 -87 -68q-29 0 -119 3t-120 3q-37 0 -111 -3t-116 -3
q-37 0 -54 18t-17 47q0 22 9 40t29.5 38t21.5 21q56 68 56 177zM620 829q-63 0 -106.5 -77t-43.5 -222q0 -91 7.5 -156.5t19 -102.5t30.5 -57.5t37 -26.5t43 -6q70 0 120.5 78.5t50.5 248.5q0 321 -158 321z" />
    <glyph glyph-name="ydieresis" unicode="&#xff;" horiz-adv-x="1134" 
d="M413 1501q68 0 111 -41.5t43 -108.5q0 -76 -55 -126.5t-131 -50.5q-61 0 -103 40t-42 103q0 72 50.5 128t126.5 56zM811 1501q67 0 110.5 -42t43.5 -108q0 -76 -55 -126.5t-131 -50.5q-61 0 -103.5 40t-42.5 103q0 73 51 128.5t127 55.5zM999 744q-126 -342 -174 -453
q-123 -294 -151 -354q-112 -239 -222 -324q-81 -64 -178 -64q-94 0 -155 56.5t-61 147.5q0 80 45.5 134.5t110.5 54.5q51 0 91 -44q8 -8 22 -25t21.5 -25t20 -15.5t25.5 -7.5q25 0 51.5 32t26.5 67q0 31 -29 106.5t-81.5 192.5t-69.5 160q-175 421 -239 488q-22 25 -31.5 36
t-19.5 32t-10 43q0 32 20 50.5t57 18.5q33 0 90.5 -3.5t91.5 -3.5q32 0 101 3.5t105 3.5q41 0 60.5 -17t19.5 -62q0 -18 -27 -57t-27 -72q0 -50 76 -229q72 -171 86 -192q7 -12 12 -12q8 0 19 20t23.5 53.5t25.5 74.5t27 86q7 22 10 33q30 88 30 125q0 41 -20 73.5t-40 58.5
t-20 50q0 31 19 49t48 18q26 0 84 -3.5t81 -3.5q28 0 68.5 3.5t56.5 3.5q68 0 68 -62q0 -27 -12.5 -48t-31 -37t-45.5 -58t-49 -102z" />
    <glyph glyph-name="Amacron" unicode="&#x100;" horiz-adv-x="1401" 
d="M930 1518h-560q-60 0 -60 51q0 73 24 128q12 34 35 46.5t66 12.5h569q32 0 43.5 -14t11.5 -39q0 -65 -25 -126q-13 -34 -36.5 -46.5t-67.5 -12.5zM135 309l278 727q34 91 59 224q12 59 113 112.5t166 53.5q42 0 63 -24t42 -76l398 -1024q33 -82 93 -141q1 -1 11.5 -11
t14 -14t11.5 -13.5t11.5 -16t6.5 -15.5t3 -18q0 -44 -32.5 -61.5t-103.5 -17.5q-24 0 -95 3t-131 3q-58 0 -134 -3t-105 -3q-98 0 -98 73q0 21 20 43t43.5 39t43.5 47.5t20 65.5q0 28 -31 86q-13 22 -43 22h-309q-38 0 -60 -24q-14 -19 -27.5 -50t-13.5 -56q0 -32 17 -59.5
t38 -43t38 -36t17 -41.5q0 -66 -95 -66q-25 0 -85.5 3t-87.5 3q-26 0 -69 -3t-68 -3q-36 0 -55 17t-19 48q0 24 14.5 44t35.5 37.5t51 62t54 106.5zM486 580h207q29 0 29 19q0 25 -37.5 133t-69.5 168q-13 24 -22 24t-22 -24q-30 -56 -70 -167.5t-40 -133.5q0 -19 25 -19z
" />
    <glyph glyph-name="amacron" unicode="&#x101;" horiz-adv-x="1120" 
d="M815 1213h-486q-58 0 -58 51q0 62 24 121q13 31 35 43.5t64 12.5h493q32 0 43 -13.5t11 -37.5q0 -63 -23 -120q-13 -32 -36.5 -44.5t-66.5 -12.5zM383 561q50 18 115 33.5t105.5 26t54.5 21.5q28 22 28 108q0 72 -32 116t-91 44q-97 0 -146 -164q-16 -52 -42.5 -79.5
t-80.5 -27.5q-66 0 -110.5 44t-44.5 122q0 103 115.5 182.5t309.5 79.5q77 0 144.5 -13t129 -43.5t105 -76.5t69.5 -116.5t26 -159.5q0 -66 -5 -175t-5 -164q0 -81 58 -81q9 0 23 3t21 3q10 0 16.5 -13t6.5 -31q0 -94 -70.5 -156.5t-172.5 -62.5q-140 0 -196 96
q-11 18 -20 18q-8 0 -25 -17q-47 -44 -121 -73.5t-147 -29.5q-135 0 -220 67.5t-85 191.5q0 117 73.5 196t213.5 131zM689 383q0 86 -17 86q-51 0 -109 -25q-53 -22 -85 -60t-32 -85q0 -41 26 -68t71 -27q72 0 109 51.5t37 127.5z" />
    <glyph glyph-name="Abreve" unicode="&#x102;" horiz-adv-x="1401" 
d="M660 1480q-154 0 -232 82.5t-78 203.5q0 84 42 84q8 0 15.5 -4.5t11 -8.5t10.5 -15t10 -14q85 -110 221 -110q139 0 219 110q1 1 4.5 6.5t4.5 7l4 6t5 6t5 5t5.5 5t6 3.5t7 2.5t7.5 0.5q40 0 40 -84q0 -121 -77.5 -203.5t-230.5 -82.5zM135 309l278 727q34 91 59 224
q12 59 113 112.5t166 53.5q42 0 63 -24t42 -76l398 -1024q33 -82 93 -141q1 -1 11.5 -11t14 -14t11.5 -13.5t11.5 -16t6.5 -15.5t3 -18q0 -44 -32.5 -61.5t-103.5 -17.5q-24 0 -95 3t-131 3q-58 0 -134 -3t-105 -3q-98 0 -98 73q0 21 20 43t43.5 39t43.5 47.5t20 65.5
q0 28 -31 86q-13 22 -43 22h-309q-38 0 -60 -24q-14 -19 -27.5 -50t-13.5 -56q0 -32 17 -59.5t38 -43t38 -36t17 -41.5q0 -66 -95 -66q-25 0 -85.5 3t-87.5 3q-26 0 -69 -3t-68 -3q-36 0 -55 17t-19 48q0 24 14.5 44t35.5 37.5t51 62t54 106.5zM486 580h207q29 0 29 19
q0 25 -37.5 133t-69.5 168q-13 24 -22 24t-22 -24q-30 -56 -70 -167.5t-40 -133.5q0 -19 25 -19z" />
    <glyph glyph-name="abreve" unicode="&#x103;" horiz-adv-x="1120" 
d="M587 1154q-90 0 -154.5 43.5t-93 108t-28.5 139.5q0 83 38 83q8 0 14 -3t12 -11.5t8 -12.5l9 -18q79 -113 195 -113q119 0 194 113q1 1 2 4q7 15 11 21.5t12 13t18 6.5q38 0 38 -83q0 -75 -28.5 -139.5t-92.5 -108t-154 -43.5zM383 561q50 18 115 33.5t105.5 26
t54.5 21.5q28 22 28 108q0 72 -32 116t-91 44q-97 0 -146 -164q-16 -52 -42.5 -79.5t-80.5 -27.5q-66 0 -110.5 44t-44.5 122q0 103 115.5 182.5t309.5 79.5q77 0 144.5 -13t129 -43.5t105 -76.5t69.5 -116.5t26 -159.5q0 -66 -5 -175t-5 -164q0 -81 58 -81q9 0 23 3t21 3
q10 0 16.5 -13t6.5 -31q0 -94 -70.5 -156.5t-172.5 -62.5q-140 0 -196 96q-11 18 -20 18q-8 0 -25 -17q-47 -44 -121 -73.5t-147 -29.5q-135 0 -220 67.5t-85 191.5q0 117 73.5 196t213.5 131zM689 383q0 86 -17 86q-51 0 -109 -25q-53 -22 -85 -60t-32 -85q0 -41 26 -68
t71 -27q72 0 109 51.5t37 127.5z" />
    <glyph glyph-name="Aogonek" unicode="&#x104;" horiz-adv-x="1401" 
d="M1179 -2q-78 0 -143 -57t-65 -137q0 -53 34 -84t81 -31q37 0 63 12q38 14 44 14q11 0 19 -9t8 -22q0 -41 -72.5 -90t-172.5 -49q-120 0 -193 63.5t-73 160.5q0 40 11.5 76t35.5 69.5t38.5 49.5t43.5 45q41 39 41 104q0 29 -24.5 107t-49.5 119q-19 31 -65 31h-290
q-38 0 -60 -24q-14 -19 -27.5 -50t-13.5 -56q0 -32 17 -59.5t38 -43t38 -36t17 -41.5q0 -66 -95 -66q-25 0 -85.5 3t-87.5 3q-26 0 -69 -3t-68 -3q-36 0 -55 17t-19 48q0 24 14.5 44t35.5 37.5t51 62t54 106.5l278 727q34 91 59 224q12 59 113 112.5t166 53.5q42 0 63 -24
t42 -76l398 -1024q33 -82 93 -141q1 -1 11.5 -11t14 -14t11.5 -13.5t11.5 -16t6.5 -15.5t3 -18q0 -79 -97 -79q-30 0 -70.5 2t-58.5 2zM486 580h207q29 0 29 19q0 25 -37.5 133t-69.5 168q-13 24 -22 24t-22 -24q-30 -56 -70 -167.5t-40 -133.5q0 -19 25 -19z" />
    <glyph glyph-name="aogonek" unicode="&#x105;" horiz-adv-x="1120" 
d="M801 0q-55 21 -87 77q-11 18 -20 18q-8 0 -25 -17q-47 -44 -121 -73.5t-147 -29.5q-135 0 -220 67.5t-85 191.5q0 117 73.5 196t213.5 131q50 18 115 33.5t105.5 26t54.5 21.5q28 22 28 108q0 72 -32 116t-91 44q-97 0 -146 -164q-16 -52 -42.5 -79.5t-80.5 -27.5
q-66 0 -110.5 44t-44.5 122q0 103 115.5 182.5t309.5 79.5q77 0 144.5 -13t129 -43.5t105 -76.5t69.5 -116.5t26 -159.5q0 -66 -5 -175t-5 -164q0 -81 58 -81q9 0 23 3t21 3q10 0 16.5 -13t6.5 -31q0 -57 -23 -93.5t-74 -80.5q-6 -5 -28 -23.5t-30 -25.5t-27.5 -24
t-27.5 -27t-23 -26.5t-21.5 -29t-15 -29t-11.5 -32.5t-3 -33q0 -49 26.5 -76t65.5 -27q30 0 64 15q32 17 40 17q28 0 28 -34q0 -39 -63.5 -82.5t-152.5 -43.5q-108 0 -173 52t-65 145q0 111 152 223q20 14 20 23q0 7 -10 12zM689 383q0 86 -17 86q-51 0 -109 -25
q-53 -22 -85 -60t-32 -85q0 -41 26 -68t71 -27q72 0 109 51.5t37 127.5z" />
    <glyph glyph-name="Cacute" unicode="&#x106;" horiz-adv-x="1373" 
d="M638 1593q63 56 133 148q43 57 87 90.5t100 33.5q60 0 95.5 -35.5t35.5 -82.5q0 -97 -133 -177q-68 -39 -154 -67t-140 -28q-28 0 -49 11t-21 33q0 18 7.5 31t38.5 43zM90 695q0 112 25.5 216.5t80.5 198.5t134 164.5t192.5 111.5t248.5 41q87 0 174 -21t107 -21
q24 0 63.5 11.5t62.5 11.5q19 0 33.5 -4.5t25 -16.5t17.5 -22.5t13 -33.5t9 -37t9 -46.5t9 -49.5q11 -62 22.5 -113t16 -70.5t4.5 -33.5q0 -35 -17.5 -53.5t-43.5 -18.5q-18 0 -33 7t-30 23.5t-24.5 29.5t-27.5 40.5t-27 41.5q-69 95 -150.5 145t-162.5 50
q-75 0 -133.5 -32.5t-94.5 -88.5t-54.5 -127.5t-18.5 -153.5q0 -151 50 -275.5t147.5 -200t225.5 -75.5q115 0 193.5 55.5t124.5 132.5q15 22 21.5 30.5t17.5 17.5t21 9q23 0 35 -25t12 -58q0 -121 -66 -228q-73 -116 -211.5 -189t-320.5 -73q-129 0 -240 39.5t-191 108
t-136.5 161t-84.5 199.5t-28 222z" />
    <glyph glyph-name="cacute" unicode="&#x107;" horiz-adv-x="1034" 
d="M467 1249q36 73 71 164q13 34 23 55t28.5 48t44 40.5t58.5 13.5q52 0 80.5 -33.5t28.5 -80.5q0 -68 -68 -147q-50 -58 -123 -108t-120 -50t-47 40q0 8 24 58zM82 500q0 113 37 215t105 180t172 124t229 46q157 0 261.5 -71t104.5 -189q0 -86 -55.5 -141t-154.5 -55
q-38 0 -58.5 18t-29.5 61q-24 106 -44 143q-33 60 -89 60q-65 0 -101.5 -65.5t-36.5 -166.5q0 -156 81.5 -258.5t224.5 -102.5q37 0 72 8.5t54.5 16t49 28.5t34 25.5t29.5 28.5q6 5 8 7q25 19 38 19q39 0 39 -74q0 -68 -32 -135.5t-89 -122t-145 -89t-189 -34.5
q-233 0 -374 149t-141 375z" />
    <glyph glyph-name="Ccircumflex" unicode="&#x108;" horiz-adv-x="1373" 
d="M1033 1475q-68 0 -208 77q-52 29 -64 29t-62 -27q-124 -79 -201 -79q-23 0 -37.5 11t-14.5 31q0 9 5.5 20t10 17t20.5 24q57 63 145 185q28 37 43.5 55t41 32.5t54.5 14.5q40 0 67.5 -24t67.5 -78q69 -95 149 -183q34 -37 34 -62q0 -20 -14.5 -31.5t-36.5 -11.5zM90 695
q0 112 25.5 216.5t80.5 198.5t134 164.5t192.5 111.5t248.5 41q87 0 174 -21t107 -21q24 0 63.5 11.5t62.5 11.5q19 0 33.5 -4.5t25 -16.5t17.5 -22.5t13 -33.5t9 -37t9 -46.5t9 -49.5q11 -62 22.5 -113t16 -70.5t4.5 -33.5q0 -35 -17.5 -53.5t-43.5 -18.5q-18 0 -33 7
t-30 23.5t-24.5 29.5t-27.5 40.5t-27 41.5q-69 95 -150.5 145t-162.5 50q-75 0 -133.5 -32.5t-94.5 -88.5t-54.5 -127.5t-18.5 -153.5q0 -151 50 -275.5t147.5 -200t225.5 -75.5q115 0 193.5 55.5t124.5 132.5q15 22 21.5 30.5t17.5 17.5t21 9q23 0 35 -25t12 -58
q0 -121 -66 -228q-73 -116 -211.5 -189t-320.5 -73q-129 0 -240 39.5t-191 108t-136.5 161t-84.5 199.5t-28 222z" />
    <glyph glyph-name="ccircumflex" unicode="&#x109;" horiz-adv-x="1034" 
d="M805 1149q-62 0 -175 101q-7 6 -21.5 20.5t-21.5 20.5t-12 6q-4 0 -12 -6.5t-20.5 -19t-20.5 -19.5q-107 -103 -169 -103q-17 0 -28.5 9.5t-11.5 26.5q0 18 29 57q50 68 123 204q3 5 13 22.5t13.5 23t12 18.5t15 17.5t16.5 11.5t21 9.5t24 2.5q10 0 18.5 -1.5t16.5 -5.5
l14 -7t13 -11.5t10.5 -12.5t10 -15.5t9 -15.5t10 -18t9.5 -18q51 -101 126 -204q29 -39 29 -57q0 -17 -11.5 -26.5t-29.5 -9.5zM82 500q0 113 37 215t105 180t172 124t229 46q157 0 261.5 -71t104.5 -189q0 -86 -55.5 -141t-154.5 -55q-38 0 -58.5 18t-29.5 61
q-24 106 -44 143q-33 60 -89 60q-65 0 -101.5 -65.5t-36.5 -166.5q0 -156 81.5 -258.5t224.5 -102.5q37 0 72 8.5t54.5 16t49 28.5t34 25.5t29.5 28.5q6 5 8 7q25 19 38 19q39 0 39 -74q0 -68 -32 -135.5t-89 -122t-145 -89t-189 -34.5q-233 0 -374 149t-141 375z" />
    <glyph glyph-name="Cdotaccent" unicode="&#x10a;" horiz-adv-x="1373" 
d="M808 1855q86 0 141 -47t55 -121q0 -86 -69.5 -143.5t-165.5 -57.5q-79 0 -132 45t-53 117q0 82 64 144.5t160 62.5zM90 695q0 112 25.5 216.5t80.5 198.5t134 164.5t192.5 111.5t248.5 41q87 0 174 -21t107 -21q24 0 63.5 11.5t62.5 11.5q19 0 33.5 -4.5t25 -16.5
t17.5 -22.5t13 -33.5t9 -37t9 -46.5t9 -49.5q11 -62 22.5 -113t16 -70.5t4.5 -33.5q0 -35 -17.5 -53.5t-43.5 -18.5q-18 0 -33 7t-30 23.5t-24.5 29.5t-27.5 40.5t-27 41.5q-69 95 -150.5 145t-162.5 50q-75 0 -133.5 -32.5t-94.5 -88.5t-54.5 -127.5t-18.5 -153.5
q0 -151 50 -275.5t147.5 -200t225.5 -75.5q115 0 193.5 55.5t124.5 132.5q15 22 21.5 30.5t17.5 17.5t21 9q23 0 35 -25t12 -58q0 -121 -66 -228q-73 -116 -211.5 -189t-320.5 -73q-129 0 -240 39.5t-191 108t-136.5 161t-84.5 199.5t-28 222z" />
    <glyph glyph-name="cdotaccent" unicode="&#x10b;" horiz-adv-x="1034" 
d="M611 1517q75 0 123 -45.5t48 -117.5q0 -83 -60 -138t-145 -55q-70 0 -116.5 43.5t-46.5 112.5q0 79 56 139.5t141 60.5zM82 500q0 113 37 215t105 180t172 124t229 46q157 0 261.5 -71t104.5 -189q0 -86 -55.5 -141t-154.5 -55q-38 0 -58.5 18t-29.5 61q-24 106 -44 143
q-33 60 -89 60q-65 0 -101.5 -65.5t-36.5 -166.5q0 -156 81.5 -258.5t224.5 -102.5q37 0 72 8.5t54.5 16t49 28.5t34 25.5t29.5 28.5q6 5 8 7q25 19 38 19q39 0 39 -74q0 -68 -32 -135.5t-89 -122t-145 -89t-189 -34.5q-233 0 -374 149t-141 375z" />
    <glyph glyph-name="Ccaron" unicode="&#x10c;" horiz-adv-x="1373" 
d="M488 1865q72 0 208 -78q56 -29 66 -29q13 0 60 28q127 79 203 79q22 0 36 -11t14 -31q0 -21 -36 -62q-49 -54 -143 -184q-41 -55 -69.5 -78.5t-70.5 -23.5q-40 0 -67.5 24t-67.5 78q-66 90 -149 182q-35 38 -35 63q0 20 14.5 31.5t36.5 11.5zM90 695q0 112 25.5 216.5
t80.5 198.5t134 164.5t192.5 111.5t248.5 41q87 0 174 -21t107 -21q24 0 63.5 11.5t62.5 11.5q19 0 33.5 -4.5t25 -16.5t17.5 -22.5t13 -33.5t9 -37t9 -46.5t9 -49.5q11 -62 22.5 -113t16 -70.5t4.5 -33.5q0 -35 -17.5 -53.5t-43.5 -18.5q-18 0 -33 7t-30 23.5t-24.5 29.5
t-27.5 40.5t-27 41.5q-69 95 -150.5 145t-162.5 50q-75 0 -133.5 -32.5t-94.5 -88.5t-54.5 -127.5t-18.5 -153.5q0 -151 50 -275.5t147.5 -200t225.5 -75.5q115 0 193.5 55.5t124.5 132.5q15 22 21.5 30.5t17.5 17.5t21 9q23 0 35 -25t12 -58q0 -121 -66 -228
q-73 -116 -211.5 -189t-320.5 -73q-129 0 -240 39.5t-191 108t-136.5 161t-84.5 199.5t-28 222z" />
    <glyph glyph-name="ccaron" unicode="&#x10d;" horiz-adv-x="1034" 
d="M341 1551q64 0 175 -101q9 -7 21.5 -20t20.5 -19.5t12 -6.5q3 0 7 2.5t10 7.5t10.5 9.5t13.5 13t13 12.5q106 102 169 102q40 0 40 -35q0 -18 -29 -58q-52 -70 -123 -203q-3 -4 -13 -22.5t-13 -23.5t-12.5 -18.5t-15.5 -18t-16 -11.5t-21 -9.5t-24 -2.5q-11 0 -21 3
t-17.5 5.5t-16 11t-12.5 12t-12 17t-10 17t-11 20.5t-11 20q-50 98 -126 203q-29 40 -29 58q0 35 41 35zM82 500q0 113 37 215t105 180t172 124t229 46q157 0 261.5 -71t104.5 -189q0 -86 -55.5 -141t-154.5 -55q-38 0 -58.5 18t-29.5 61q-24 106 -44 143q-33 60 -89 60
q-65 0 -101.5 -65.5t-36.5 -166.5q0 -156 81.5 -258.5t224.5 -102.5q37 0 72 8.5t54.5 16t49 28.5t34 25.5t29.5 28.5q6 5 8 7q25 19 38 19q39 0 39 -74q0 -68 -32 -135.5t-89 -122t-145 -89t-189 -34.5q-233 0 -374 149t-141 375z" />
    <glyph glyph-name="Dcaron" unicode="&#x10e;" horiz-adv-x="1498" 
d="M486 1865q72 0 208 -78q56 -29 66 -29q13 0 60 28q127 79 203 79q22 0 36 -11t14 -31q0 -21 -36 -62q-49 -54 -143 -184q-41 -55 -69.5 -78.5t-70.5 -23.5q-40 0 -68.5 24t-67.5 78q-70 96 -148 182q-35 38 -35 63q0 20 14.5 31.5t36.5 11.5zM460 1393q57 0 150 3t148 3
q120 0 229 -24t207.5 -78t170.5 -133t114 -197t42 -262q0 -329 -174 -520t-484 -191q-60 0 -200.5 4t-202.5 4q-40 0 -120 -3t-116 -3q-43 0 -66 17.5t-23 44.5q0 21 10.5 38.5t26 32t32 31t31 45t20.5 64.5q12 97 12 467q0 280 -4 331t-18 88.5t-30.5 58.5t-32.5 37.5
t-27 35.5t-11 42q0 70 80 70q38 0 117.5 -3t118.5 -3zM648 1018v-594q0 -129 28.5 -173.5t110.5 -44.5q85 0 147 41.5t95 111t47.5 145t14.5 158.5q0 151 -40 271t-121.5 193t-194.5 73q-52 0 -69.5 -41t-17.5 -140z" />
    <glyph glyph-name="dcaron" unicode="&#x10f;" horiz-adv-x="1453" 
d="M1010 -19q-74 0 -119 22.5t-82 76.5q-4 5 -9.5 13t-8.5 12.5t-7.5 8t-9.5 3.5q-3 0 -6 -1.5t-8 -5.5t-8.5 -8t-11 -11t-12.5 -12q-111 -99 -250 -99q-78 0 -146.5 31.5t-122 92t-84.5 159t-31 223.5q0 271 119 425t301 154q59 0 108 -14.5t73.5 -31.5t42 -31.5
t21.5 -14.5q16 0 16 88v84q0 40 -20.5 68.5t-45.5 41.5q-43 27 -43 60q0 16 7.5 27.5t25.5 21.5t34.5 16.5t48 18t51.5 19.5q36 14 89 39t84 36.5t53 11.5q74 0 74 -71q0 -45 -5.5 -151t-5.5 -275v-689q0 -32 16 -56.5t48 -24.5q9 0 23 3t21 3q10 0 16 -13t6 -31
q0 -94 -70 -156.5t-172 -62.5zM1253 1115q2 23 10 122.5t16 142.5q20 125 117 125q55 0 83.5 -38.5t28.5 -107.5q0 -79 -64 -215q-38 -82 -80.5 -134t-78.5 -52q-42 0 -42 52q0 12 10 105zM640 230q43 0 72 25t48 95.5t19 187.5q0 177 -43.5 255.5t-108.5 78.5
q-70 0 -113 -74t-43 -237q0 -166 46 -248.5t123 -82.5z" />
    <glyph glyph-name="Dcroat" unicode="&#x110;" horiz-adv-x="1498" 
d="M399 1393q57 0 150 3t148 3q120 0 229 -24t207.5 -78t170.5 -133t114 -197t42 -262q0 -330 -173.5 -520.5t-483.5 -190.5q-60 0 -201 4t-203 4q-40 0 -119.5 -3t-115.5 -3q-43 0 -66 17.5t-23 44.5q0 21 10.5 38.5t26 32t32 31t31 45t20.5 64.5q9 78 11 332h-137
q-55 0 -55 48q0 56 23 117q12 30 33 41.5t60 11.5h77q0 192 -4 248q-4 51 -18 88.5t-30.5 58.5t-32.5 37.5t-27 35.5t-11 42q0 70 80 70q38 0 117 -3t118 -3zM588 1018v-199h193q52 0 52 -48q0 -62 -23 -117q-12 -30 -34 -41.5t-63 -11.5h-125v-177q0 -129 28.5 -173.5
t110.5 -44.5q58 0 105 19.5t79.5 54t56 78t37 96t19.5 103.5t6 105q0 152 -39.5 271.5t-121.5 192.5t-194 73q-52 0 -69.5 -41t-17.5 -140z" />
    <glyph glyph-name="dcroat" unicode="&#x111;" horiz-adv-x="1226" 
d="M1197 1042h-75v-723q0 -32 16 -56.5t48 -24.5q9 0 23 3t21 3q9 0 15.5 -13.5t6.5 -30.5q0 -94 -70 -156.5t-172 -62.5q-81 0 -124 23.5t-79 75.5q-1 1 -5.5 8.5t-8 13t-9 10.5t-10.5 5q-7 0 -46 -34q-31 -29 -56.5 -47.5t-78.5 -37t-115 -18.5q-78 0 -146.5 30t-122 87.5
t-84.5 149t-31 205.5q0 250 113 385.5t307 135.5q59 0 108 -11.5t73.5 -25.5t42 -25.5t21.5 -11.5q16 0 16 84v59h-214q-24 0 -35 12t-11 27q0 38 20 71q25 36 77 36h163q-3 60 -66 89q-14 7 -21.5 12.5t-14.5 16.5t-7 26q0 11 4 20t13 16.5t18 13.5t26 12.5t29.5 10.5
t35.5 12t38 13q43 15 86 31.5t62.5 24.5t40.5 13.5t40 5.5q74 0 74 -68q0 -52 -4.5 -120t-5.5 -129h129q25 0 36 -12.5t11 -27.5q0 -43 -20 -69q-25 -37 -82 -37zM640 230q66 0 102.5 60t36.5 205q0 146 -46 218.5t-104 72.5q-158 0 -158 -268q0 -140 46.5 -214t122.5 -74z
" />
    <glyph glyph-name="Emacron" unicode="&#x112;" 
d="M955 1518h-560q-59 0 -59 51q0 75 23 128q12 34 35.5 46.5t66.5 12.5h568q32 0 43.5 -14t11.5 -39q0 -68 -24 -126q-13 -34 -37 -46.5t-68 -12.5zM983 859v-314q0 -89 -56 -89q-30 0 -47 19t-32 53q-15 32 -24.5 47.5t-26.5 33.5t-40 25t-57 7q-30 0 -42.5 -25t-12.5 -90
v-132q0 -61 9 -99t31.5 -56.5t49 -24.5t71.5 -6q97 0 162 26t103.5 70.5t79.5 124.5q40 73 81 73q56 0 56 -91q0 -27 -17 -145.5t-23 -187.5q-4 -54 -24 -69t-82 -15q-40 0 -191.5 3t-225.5 3q-62 0 -234.5 -3t-266.5 -3q-43 0 -66 17.5t-23 46.5q0 25 16 46.5t36 37t40 48
t26 76.5q14 94 14 470q0 247 -5 330q-5 62 -25 105.5t-40 62t-36.5 42.5t-16.5 53q0 70 80 70q58 0 208 -3t255 -3q99 0 226.5 3t164.5 3q67 0 93 -22.5t38 -101.5q9 -52 38 -204q15 -66 15 -90q0 -35 -19 -52.5t-46 -17.5q-16 0 -29.5 6.5t-25.5 22t-19.5 27t-19.5 34.5
q-35 63 -59 96t-60.5 58.5t-83 34t-121.5 8.5q-83 0 -108.5 -27t-25.5 -119v-87q0 -71 11 -93.5t36 -22.5q35 0 61.5 7t44.5 22.5t28 28t24 35t21 32.5q23 26 51 26q33 0 47 -32t14 -109z" />
    <glyph glyph-name="emacron" unicode="&#x113;" horiz-adv-x="1055" 
d="M782 1213h-486q-57 0 -57 51q0 64 23 121q13 31 35 43.5t64 12.5h493q32 0 43 -13.5t11 -37.5q0 -63 -23 -120q-13 -32 -36.5 -44.5t-66.5 -12.5zM946 547q-76 -39 -200.5 -62t-233.5 -31q-28 -1 -28 -20q0 -26 14 -55t40.5 -56.5t73.5 -45.5t106 -18q63 0 118.5 19.5
t85 40t62.5 51.5q24 19 43 19q35 0 35 -64q0 -55 -31.5 -115.5t-88 -113t-146 -86.5t-193.5 -34q-240 0 -379.5 144.5t-139.5 377.5q0 153 67 281.5t194.5 207t288.5 78.5q86 0 157.5 -25t117 -64t77 -89t44.5 -98t13 -93q0 -98 -97 -149zM719 754q0 57 -34 94.5t-87 37.5
q-71 0 -116.5 -62.5t-45.5 -143.5q0 -70 45 -70q47 0 117 24t101 62q20 25 20 58z" />
    <glyph glyph-name="Ebreve" unicode="&#x114;" 
d="M712 1480q-154 0 -232.5 82.5t-78.5 203.5q0 84 42 84q8 0 15.5 -4.5t11 -8.5t10.5 -15t10 -14q85 -110 222 -110q138 0 218 110q1 1 4.5 6.5t4.5 7l4 6t5 6t5 5t5.5 5t6 3.5t7 2.5t7.5 0.5q40 0 40 -84q0 -121 -77 -203.5t-230 -82.5zM983 859v-314q0 -89 -56 -89
q-30 0 -47 19t-32 53q-15 32 -24.5 47.5t-26.5 33.5t-40 25t-57 7q-30 0 -42.5 -25t-12.5 -90v-132q0 -61 9 -99t31.5 -56.5t49 -24.5t71.5 -6q97 0 162 26t103.5 70.5t79.5 124.5q40 73 81 73q56 0 56 -91q0 -27 -17 -145.5t-23 -187.5q-4 -54 -24 -69t-82 -15
q-40 0 -191.5 3t-225.5 3q-62 0 -234.5 -3t-266.5 -3q-43 0 -66 17.5t-23 46.5q0 25 16 46.5t36 37t40 48t26 76.5q14 94 14 470q0 247 -5 330q-5 62 -25 105.5t-40 62t-36.5 42.5t-16.5 53q0 70 80 70q58 0 208 -3t255 -3q99 0 226.5 3t164.5 3q67 0 93 -22.5t38 -101.5
q9 -52 38 -204q15 -66 15 -90q0 -35 -19 -52.5t-46 -17.5q-16 0 -29.5 6.5t-25.5 22t-19.5 27t-19.5 34.5q-35 63 -59 96t-60.5 58.5t-83 34t-121.5 8.5q-83 0 -108.5 -27t-25.5 -119v-87q0 -71 11 -93.5t36 -22.5q35 0 61.5 7t44.5 22.5t28 28t24 35t21 32.5q23 26 51 26
q33 0 47 -32t14 -109z" />
    <glyph glyph-name="ebreve" unicode="&#x115;" horiz-adv-x="1055" 
d="M584 1154q-90 0 -154.5 43.5t-93 108t-28.5 139.5q0 83 38 83q8 0 14 -3t12 -11.5t8 -12.5l9 -18q79 -113 195 -113q119 0 194 113q1 1 2 4q7 15 11 21.5t12 13t18 6.5q38 0 38 -83q0 -75 -28.5 -139.5t-92.5 -108t-154 -43.5zM946 547q-76 -39 -200.5 -62t-233.5 -31
q-28 -1 -28 -20q0 -26 14 -55t40.5 -56.5t73.5 -45.5t106 -18q63 0 118.5 19.5t85 40t62.5 51.5q24 19 43 19q35 0 35 -64q0 -55 -31.5 -115.5t-88 -113t-146 -86.5t-193.5 -34q-240 0 -379.5 144.5t-139.5 377.5q0 153 67 281.5t194.5 207t288.5 78.5q86 0 157.5 -25
t117 -64t77 -89t44.5 -98t13 -93q0 -98 -97 -149zM719 754q0 57 -34 94.5t-87 37.5q-71 0 -116.5 -62.5t-45.5 -143.5q0 -70 45 -70q47 0 117 24t101 62q20 25 20 58z" />
    <glyph glyph-name="Edotaccent" unicode="&#x116;" 
d="M725 1855q86 0 141 -47t55 -121q0 -86 -69.5 -143.5t-165.5 -57.5q-79 0 -132 45t-53 117q0 82 64 144.5t160 62.5zM983 859v-314q0 -89 -56 -89q-30 0 -47 19t-32 53q-15 32 -24.5 47.5t-26.5 33.5t-40 25t-57 7q-30 0 -42.5 -25t-12.5 -90v-132q0 -61 9 -99t31.5 -56.5
t49 -24.5t71.5 -6q97 0 162 26t103.5 70.5t79.5 124.5q40 73 81 73q56 0 56 -91q0 -27 -17 -145.5t-23 -187.5q-4 -54 -24 -69t-82 -15q-40 0 -191.5 3t-225.5 3q-62 0 -234.5 -3t-266.5 -3q-43 0 -66 17.5t-23 46.5q0 25 16 46.5t36 37t40 48t26 76.5q14 94 14 470
q0 247 -5 330q-5 62 -25 105.5t-40 62t-36.5 42.5t-16.5 53q0 70 80 70q58 0 208 -3t255 -3q99 0 226.5 3t164.5 3q67 0 93 -22.5t38 -101.5q9 -52 38 -204q15 -66 15 -90q0 -35 -19 -52.5t-46 -17.5q-16 0 -29.5 6.5t-25.5 22t-19.5 27t-19.5 34.5q-35 63 -59 96
t-60.5 58.5t-83 34t-121.5 8.5q-83 0 -108.5 -27t-25.5 -119v-87q0 -71 11 -93.5t36 -22.5q35 0 61.5 7t44.5 22.5t28 28t24 35t21 32.5q23 26 51 26q33 0 47 -32t14 -109z" />
    <glyph glyph-name="edotaccent" unicode="&#x117;" horiz-adv-x="1055" 
d="M606 1517q75 0 123 -45.5t48 -117.5q0 -83 -60.5 -138t-145.5 -55q-70 0 -116 43.5t-46 112.5q0 79 56 139.5t141 60.5zM946 547q-76 -39 -200.5 -62t-233.5 -31q-28 -1 -28 -20q0 -26 14 -55t40.5 -56.5t73.5 -45.5t106 -18q63 0 118.5 19.5t85 40t62.5 51.5
q24 19 43 19q35 0 35 -64q0 -55 -31.5 -115.5t-88 -113t-146 -86.5t-193.5 -34q-240 0 -379.5 144.5t-139.5 377.5q0 153 67 281.5t194.5 207t288.5 78.5q86 0 157.5 -25t117 -64t77 -89t44.5 -98t13 -93q0 -98 -97 -149zM719 754q0 57 -34 94.5t-87 37.5
q-71 0 -116.5 -62.5t-45.5 -143.5q0 -70 45 -70q47 0 117 24t101 62q20 25 20 58z" />
    <glyph glyph-name="Eogonek" unicode="&#x118;" 
d="M890 -29q13 7 13 16q0 3 -1.5 4.5t-7 3t-17 2.5t-31 1.5t-49.5 1t-72 0.5q-62 0 -234.5 -3t-266.5 -3q-43 0 -66 17.5t-23 46.5q0 25 16 46.5t36 37t40 48t26 76.5q14 94 14 470q0 247 -5 330q-5 62 -25 105.5t-40 62t-36.5 42.5t-16.5 53q0 70 80 70q58 0 208 -3t255 -3
q99 0 226.5 3t164.5 3q67 0 93 -22.5t38 -101.5q9 -52 38 -204q15 -66 15 -90q0 -35 -19 -52.5t-46 -17.5q-16 0 -29.5 6.5t-25.5 22t-19.5 27t-19.5 34.5q-35 63 -59 96t-60.5 58.5t-83 34t-121.5 8.5q-83 0 -108.5 -27t-25.5 -119v-87q0 -71 11 -93.5t36 -22.5
q35 0 61.5 7t44.5 22.5t28 28t24 35t21 32.5q23 26 51 26q33 0 47 -32t14 -109v-314q0 -89 -56 -89q-30 0 -47 19t-32 53q-15 32 -24.5 47.5t-26.5 33.5t-40 25t-57 7q-30 0 -42.5 -25t-12.5 -90v-132q0 -61 9 -99t31.5 -56.5t49 -24.5t71.5 -6q97 0 162 26t103.5 70.5
t79.5 124.5q40 73 81 73q56 0 56 -91q0 -27 -17 -144t-23 -189q-2 -23 -5.5 -37t-13 -23.5t-15 -13t-24 -11t-27.5 -11.5q-174 -78 -174 -193q0 -52 28.5 -77t69.5 -25q43 0 67 13q35 13 44 13q12 0 20 -8t8 -21q0 -41 -69.5 -90t-166.5 -49q-121 0 -192.5 53.5t-71.5 151.5
q0 129 164 221z" />
    <glyph glyph-name="eogonek" unicode="&#x119;" horiz-adv-x="1055" 
d="M598 -57q25 21 25 23q0 8 -34 10q-234 6 -369.5 148.5t-135.5 373.5q0 153 67 281.5t194.5 207t288.5 78.5q86 0 157.5 -25t117 -64t77 -89t44.5 -98t13 -93q0 -98 -97 -149q-76 -39 -200.5 -62t-233.5 -31q-28 -1 -28 -20q0 -26 14 -55t40.5 -56.5t73.5 -45.5t106 -18
q63 0 118.5 19.5t85 40t62.5 51.5q24 19 43 19q35 0 35 -64q0 -37 -15.5 -76.5t-36 -70t-51 -64t-51 -52t-46.5 -40t-27 -22.5q-128 -124 -128 -224q0 -49 26.5 -76t64.5 -27q30 0 64 15q32 17 41 17q27 0 27 -34q0 -39 -63 -82.5t-152 -43.5q-108 0 -173.5 52t-65.5 145
q0 54 32.5 107t89.5 94zM719 754q0 57 -34 94.5t-87 37.5q-71 0 -116.5 -62.5t-45.5 -143.5q0 -70 45 -70q47 0 117 24t101 62q20 25 20 58z" />
    <glyph glyph-name="Ecaron" unicode="&#x11a;" 
d="M443 1865q72 0 208 -78q56 -29 66 -29q13 0 60 28q127 79 203 79q22 0 36 -11t14 -31q0 -21 -36 -62q-49 -54 -143 -184q-41 -55 -69.5 -78.5t-70.5 -23.5q-40 0 -68.5 24t-67.5 78q-70 96 -148 182q-35 38 -35 63q0 20 14.5 31.5t36.5 11.5zM983 859v-314q0 -89 -56 -89
q-30 0 -47 19t-32 53q-15 32 -24.5 47.5t-26.5 33.5t-40 25t-57 7q-30 0 -42.5 -25t-12.5 -90v-132q0 -61 9 -99t31.5 -56.5t49 -24.5t71.5 -6q97 0 162 26t103.5 70.5t79.5 124.5q40 73 81 73q56 0 56 -91q0 -27 -17 -145.5t-23 -187.5q-4 -54 -24 -69t-82 -15
q-40 0 -191.5 3t-225.5 3q-62 0 -234.5 -3t-266.5 -3q-43 0 -66 17.5t-23 46.5q0 25 16 46.5t36 37t40 48t26 76.5q14 94 14 470q0 247 -5 330q-5 62 -25 105.5t-40 62t-36.5 42.5t-16.5 53q0 70 80 70q58 0 208 -3t255 -3q99 0 226.5 3t164.5 3q67 0 93 -22.5t38 -101.5
q9 -52 38 -204q15 -66 15 -90q0 -35 -19 -52.5t-46 -17.5q-16 0 -29.5 6.5t-25.5 22t-19.5 27t-19.5 34.5q-35 63 -59 96t-60.5 58.5t-83 34t-121.5 8.5q-83 0 -108.5 -27t-25.5 -119v-87q0 -71 11 -93.5t36 -22.5q35 0 61.5 7t44.5 22.5t28 28t24 35t21 32.5q23 26 51 26
q33 0 47 -32t14 -109z" />
    <glyph glyph-name="ecaron" unicode="&#x11b;" horiz-adv-x="1055" 
d="M350 1551q64 0 175 -101q9 -7 22 -20t21 -19.5t12 -6.5q3 0 7 2.5t9.5 7.5t10.5 9.5t13 12.5l13 13q106 102 169 102q40 0 40 -35q0 -18 -29 -58q-52 -70 -123 -203q-3 -4 -13 -22.5t-13 -23.5t-12.5 -18.5t-15.5 -18t-16 -11.5t-21 -9.5t-24 -2.5q-11 0 -21 3t-17.5 5.5
t-16 11t-12.5 12t-12 17t-10 17t-11 20.5t-11 20q-50 98 -126 203q-29 40 -29 58q0 35 41 35zM946 547q-76 -39 -200.5 -62t-233.5 -31q-28 -1 -28 -20q0 -26 14 -55t40.5 -56.5t73.5 -45.5t106 -18q63 0 118.5 19.5t85 40t62.5 51.5q24 19 43 19q35 0 35 -64
q0 -55 -31.5 -115.5t-88 -113t-146 -86.5t-193.5 -34q-240 0 -379.5 144.5t-139.5 377.5q0 153 67 281.5t194.5 207t288.5 78.5q86 0 157.5 -25t117 -64t77 -89t44.5 -98t13 -93q0 -98 -97 -149zM719 754q0 57 -34 94.5t-87 37.5q-71 0 -116.5 -62.5t-45.5 -143.5
q0 -70 45 -70q47 0 117 24t101 62q20 25 20 58z" />
    <glyph glyph-name="Gcircumflex" unicode="&#x11c;" horiz-adv-x="1468" 
d="M1047 1475q-68 0 -208 77q-52 29 -65 29q-11 0 -61 -27q-49 -32 -106 -55.5t-96 -23.5q-22 0 -36.5 11t-14.5 31q0 9 5.5 20t10 17t20.5 24q51 57 144 185q28 37 43.5 55t41 32.5t54.5 14.5q39 0 67 -24t68 -78q69 -95 149 -183q35 -38 35 -62q0 -20 -14.5 -31.5
t-36.5 -11.5zM754 -35q-147 0 -273 60.5t-210.5 161.5t-132.5 233t-48 275q0 112 25.5 216.5t80.5 198.5t134 164.5t192.5 111.5t248.5 41q87 0 174 -21t107 -21q24 0 63.5 11.5t62.5 11.5q19 0 33.5 -4.5t25 -16.5t17.5 -22.5t13 -33.5t9 -37t9 -46.5t9 -49.5
q11 -62 22.5 -113t16 -70.5t4.5 -33.5q0 -35 -17.5 -53.5t-43.5 -18.5q-18 0 -33 7t-30 23.5t-24.5 29.5t-27.5 40.5t-27 41.5q-69 95 -150.5 145t-162.5 50q-99 0 -172.5 -63t-109 -160.5t-35.5 -212.5q0 -126 34.5 -236t88.5 -182t118.5 -113t127.5 -41q37 0 68 15.5
t46 38.5q22 37 22 128q0 29 -2.5 54.5t-4.5 42.5t-10 34t-10.5 24.5t-14.5 20.5t-13.5 15t-16.5 14l-15 12q-10 9 -36 25t-35.5 30t-9.5 39q0 71 97 71q34 0 101 -2.5t94 -2.5q38 0 118 2.5t124 2.5q36 0 53.5 -18.5t17.5 -48.5q0 -28 -10 -54.5t-22 -49t-22 -77.5t-10 -134
q0 -70 8 -187t8 -148q0 -45 -16.5 -67.5t-56.5 -22.5q-36 0 -81 35q-51 32 -67 32q-32 0 -125 -34q-164 -63 -298 -63z" />
    <glyph glyph-name="gcircumflex" unicode="&#x11d;" horiz-adv-x="1142" 
d="M813 1149q-62 0 -175 101q-7 6 -17 16t-15.5 16t-12 10.5t-9.5 4.5q-4 0 -12 -6t-21.5 -19t-20.5 -20q-107 -103 -169 -103q-17 0 -28 9.5t-11 26.5q0 20 28 57q50 68 123 204q3 5 13 22.5t13.5 23t12 18.5t15 17.5t16.5 11.5t21 9.5t24 2.5q10 0 18.5 -1.5t16.5 -5.5
l14 -7t13 -11.5t10.5 -12.5t10 -15.5t9 -15.5t10 -18t9.5 -18q51 -101 126 -204q29 -39 29 -57q0 -17 -11.5 -26.5t-29.5 -9.5zM538 1065q81 0 204 -20t153 -20q62 0 106 10t69 20t41 10q40 0 40 -57q0 -63 -19 -117q-28 -81 -80 -81q-20 0 -50 6t-33 6q-11 0 -11 -10
q0 -1 15.5 -39.5t15.5 -74.5q0 -165 -124 -261t-312 -96q-23 0 -58 2t-46 2q-36 0 -65 -19.5t-29 -51.5t27.5 -50t75.5 -18q30 0 149 18t192 18q154 0 239.5 -69t85.5 -212q0 -132 -95 -232t-243.5 -149.5t-321.5 -49.5q-211 0 -315 67t-104 187q0 65 35 111.5t85 73.5
q16 9 16 19q0 8 -14 17q-33 20 -62 62.5t-29 104.5q0 68 44 124t119 91q14 7 14 17t-12 20q-127 99 -127 272q0 117 58.5 202.5t153 126t212.5 40.5zM440 721q0 -94 36 -139t86 -45q52 0 84.5 36.5t32.5 109.5q0 31 -7 64.5t-21.5 66.5t-41 54t-60.5 21q-50 0 -79.5 -46
t-29.5 -122zM703 -162q0 45 -36 69.5t-106 24.5q-106 0 -168 -23q-43 -13 -68 -37.5t-25 -55.5q0 -51 45.5 -75.5t124.5 -24.5q102 0 167.5 35.5t65.5 86.5z" />
    <glyph glyph-name="Gbreve" unicode="&#x11e;" horiz-adv-x="1468" 
d="M780 1480q-154 0 -232 82.5t-78 203.5q0 84 42 84q8 0 15.5 -4.5t11 -8.5t10.5 -15t10 -14q85 -110 221 -110q138 0 218 110l14 21t14.5 13.5t21.5 7.5q39 0 39 -84q0 -121 -77 -203.5t-230 -82.5zM754 -35q-147 0 -273 60.5t-210.5 161.5t-132.5 233t-48 275
q0 112 25.5 216.5t80.5 198.5t134 164.5t192.5 111.5t248.5 41q87 0 174 -21t107 -21q24 0 63.5 11.5t62.5 11.5q19 0 33.5 -4.5t25 -16.5t17.5 -22.5t13 -33.5t9 -37t9 -46.5t9 -49.5q11 -62 22.5 -113t16 -70.5t4.5 -33.5q0 -35 -17.5 -53.5t-43.5 -18.5q-18 0 -33 7
t-30 23.5t-24.5 29.5t-27.5 40.5t-27 41.5q-69 95 -150.5 145t-162.5 50q-99 0 -172.5 -63t-109 -160.5t-35.5 -212.5q0 -126 34.5 -236t88.5 -182t118.5 -113t127.5 -41q37 0 68 15.5t46 38.5q22 37 22 128q0 29 -2.5 54.5t-4.5 42.5t-10 34t-10.5 24.5t-14.5 20.5
t-13.5 15t-16.5 14l-15 12q-10 9 -36 25t-35.5 30t-9.5 39q0 71 97 71q34 0 101 -2.5t94 -2.5q38 0 118 2.5t124 2.5q36 0 53.5 -18.5t17.5 -48.5q0 -28 -10 -54.5t-22 -49t-22 -77.5t-10 -134q0 -70 8 -187t8 -148q0 -45 -16.5 -67.5t-56.5 -22.5q-36 0 -81 35
q-51 32 -67 32q-32 0 -125 -34q-164 -63 -298 -63z" />
    <glyph glyph-name="gbreve" unicode="&#x11f;" horiz-adv-x="1142" 
d="M569 1154q-90 0 -154 43.5t-92.5 108t-28.5 139.5q0 83 38 83q8 0 14 -3t12 -11.5t8 -12.5l9 -18q36 -52 81.5 -82.5t112.5 -30.5q120 0 195 113q1 1 2 4q7 15 11 21.5t12 13t18 6.5q38 0 38 -83q0 -75 -28.5 -139.5t-93 -108t-154.5 -43.5zM538 1065q81 0 204 -20
t153 -20q62 0 106 10t69 20t41 10q40 0 40 -57q0 -63 -19 -117q-28 -81 -80 -81q-20 0 -50 6t-33 6q-11 0 -11 -10q0 -1 15.5 -39.5t15.5 -74.5q0 -165 -124 -261t-312 -96q-23 0 -58 2t-46 2q-36 0 -65 -19.5t-29 -51.5t27.5 -50t75.5 -18q30 0 149 18t192 18
q154 0 239.5 -69t85.5 -212q0 -132 -95 -232t-243.5 -149.5t-321.5 -49.5q-211 0 -315 67t-104 187q0 65 35 111.5t85 73.5q16 9 16 19q0 8 -14 17q-33 20 -62 62.5t-29 104.5q0 68 44 124t119 91q14 7 14 17t-12 20q-127 99 -127 272q0 117 58.5 202.5t153 126t212.5 40.5z
M440 721q0 -94 36 -139t86 -45q52 0 84.5 36.5t32.5 109.5q0 31 -7 64.5t-21.5 66.5t-41 54t-60.5 21q-50 0 -79.5 -46t-29.5 -122zM703 -162q0 45 -36 69.5t-106 24.5q-106 0 -168 -23q-43 -13 -68 -37.5t-25 -55.5q0 -51 45.5 -75.5t124.5 -24.5q102 0 167.5 35.5
t65.5 86.5z" />
    <glyph glyph-name="Gdotaccent" unicode="&#x120;" horiz-adv-x="1468" 
d="M798 1855q86 0 140.5 -47t54.5 -121q0 -86 -69 -143.5t-165 -57.5q-79 0 -132.5 45.5t-53.5 116.5q0 82 64.5 144.5t160.5 62.5zM754 -35q-147 0 -273 60.5t-210.5 161.5t-132.5 233t-48 275q0 112 25.5 216.5t80.5 198.5t134 164.5t192.5 111.5t248.5 41q87 0 174 -21
t107 -21q24 0 63.5 11.5t62.5 11.5q19 0 33.5 -4.5t25 -16.5t17.5 -22.5t13 -33.5t9 -37t9 -46.5t9 -49.5q11 -62 22.5 -113t16 -70.5t4.5 -33.5q0 -35 -17.5 -53.5t-43.5 -18.5q-18 0 -33 7t-30 23.5t-24.5 29.5t-27.5 40.5t-27 41.5q-69 95 -150.5 145t-162.5 50
q-99 0 -172.5 -63t-109 -160.5t-35.5 -212.5q0 -126 34.5 -236t88.5 -182t118.5 -113t127.5 -41q37 0 68 15.5t46 38.5q22 37 22 128q0 29 -2.5 54.5t-4.5 42.5t-10 34t-10.5 24.5t-14.5 20.5t-13.5 15t-16.5 14l-15 12q-10 9 -36 25t-35.5 30t-9.5 39q0 71 97 71
q34 0 101 -2.5t94 -2.5q38 0 118 2.5t124 2.5q36 0 53.5 -18.5t17.5 -48.5q0 -28 -10 -54.5t-22 -49t-22 -77.5t-10 -134q0 -70 8 -187t8 -148q0 -45 -16.5 -67.5t-56.5 -22.5q-36 0 -81 35q-51 32 -67 32q-32 0 -125 -34q-164 -63 -298 -63z" />
    <glyph glyph-name="gdotaccent" unicode="&#x121;" horiz-adv-x="1142" 
d="M603 1517q75 0 123 -45.5t48 -117.5q0 -83 -60.5 -138t-145.5 -55q-70 0 -116 43.5t-46 112.5q0 79 56 139.5t141 60.5zM538 1065q81 0 204 -20t153 -20q62 0 106 10t69 20t41 10q40 0 40 -57q0 -63 -19 -117q-28 -81 -80 -81q-20 0 -50 6t-33 6q-11 0 -11 -10
q0 -1 15.5 -39.5t15.5 -74.5q0 -165 -124 -261t-312 -96q-23 0 -58 2t-46 2q-36 0 -65 -19.5t-29 -51.5t27.5 -50t75.5 -18q30 0 149 18t192 18q154 0 239.5 -69t85.5 -212q0 -132 -95 -232t-243.5 -149.5t-321.5 -49.5q-211 0 -315 67t-104 187q0 65 35 111.5t85 73.5
q16 9 16 19q0 8 -14 17q-33 20 -62 62.5t-29 104.5q0 68 44 124t119 91q14 7 14 17t-12 20q-127 99 -127 272q0 117 58.5 202.5t153 126t212.5 40.5zM440 721q0 -94 36 -139t86 -45q52 0 84.5 36.5t32.5 109.5q0 31 -7 64.5t-21.5 66.5t-41 54t-60.5 21q-50 0 -79.5 -46
t-29.5 -122zM703 -162q0 45 -36 69.5t-106 24.5q-106 0 -168 -23q-43 -13 -68 -37.5t-25 -55.5q0 -51 45.5 -75.5t124.5 -24.5q102 0 167.5 35.5t65.5 86.5z" />
    <glyph glyph-name="uni0122" unicode="&#x122;" horiz-adv-x="1468" 
d="M754 -35q-147 0 -273 60.5t-210.5 161.5t-132.5 233t-48 275q0 112 25.5 216.5t80.5 198.5t134 164.5t192.5 111.5t248.5 41q87 0 174 -21t107 -21q24 0 63.5 11.5t62.5 11.5q19 0 33.5 -4.5t25 -16.5t17.5 -22.5t13 -33.5t9 -37t9 -46.5t9 -49.5q11 -62 22.5 -113
t16 -70.5t4.5 -33.5q0 -35 -17.5 -53.5t-43.5 -18.5q-18 0 -33 7t-30 23.5t-24.5 29.5t-27.5 40.5t-27 41.5q-69 95 -150.5 145t-162.5 50q-99 0 -172.5 -63t-109 -160.5t-35.5 -212.5q0 -126 34.5 -236t88.5 -182t118.5 -113t127.5 -41q37 0 68 15.5t46 38.5q22 37 22 128
q0 29 -2.5 54.5t-4.5 42.5t-10 34t-10.5 24.5t-14.5 20.5t-13.5 15t-16.5 14l-15 12q-10 9 -36 25t-35.5 30t-9.5 39q0 71 97 71q34 0 101 -2.5t94 -2.5q38 0 118 2.5t124 2.5q36 0 53.5 -18.5t17.5 -48.5q0 -28 -10 -54.5t-22 -49t-22 -77.5t-10 -134q0 -70 8 -187t8 -148
q0 -45 -16.5 -67.5t-56.5 -22.5q-36 0 -81 35q-51 32 -67 32q-32 0 -125 -34q-164 -63 -298 -63zM700 -503q-17 0 -26 9.5t-9 23.5q0 12 22 48.5t22 70.5q0 11 -19 29.5t-38 49t-19 70.5q0 57 40 90t95 33q71 0 112.5 -42t41.5 -116q0 -92 -76 -179t-146 -87z" />
    <glyph glyph-name="uni0123" unicode="&#x123;" horiz-adv-x="1142" 
d="M634 1569q17 0 26.5 -9.5t9.5 -23.5q0 -12 -22 -48.5t-22 -70.5q0 -9 11.5 -23t26 -28t26 -40.5t11.5 -57.5q0 -57 -40 -90t-95 -33q-70 0 -111.5 42t-41.5 116q0 92 75.5 179t145.5 87zM538 1065q81 0 204 -20t153 -20q62 0 106 10t69 20t41 10q40 0 40 -57
q0 -63 -19 -117q-28 -81 -80 -81q-20 0 -50 6t-33 6q-11 0 -11 -10q0 -1 15.5 -39.5t15.5 -74.5q0 -165 -124 -261t-312 -96q-23 0 -58 2t-46 2q-36 0 -65 -19.5t-29 -51.5t27.5 -50t75.5 -18q30 0 149 18t192 18q154 0 239.5 -69t85.5 -212q0 -132 -95 -232t-243.5 -149.5
t-321.5 -49.5q-211 0 -315 67t-104 187q0 65 35 111.5t85 73.5q16 9 16 19q0 8 -14 17q-33 20 -62 62.5t-29 104.5q0 68 44 124t119 91q14 7 14 17t-12 20q-127 99 -127 272q0 117 58.5 202.5t153 126t212.5 40.5zM440 721q0 -94 36 -139t86 -45q52 0 84.5 36.5t32.5 109.5
q0 31 -7 64.5t-21.5 66.5t-41 54t-60.5 21q-50 0 -79.5 -46t-29.5 -122zM703 -162q0 45 -36 69.5t-106 24.5q-106 0 -168 -23q-43 -13 -68 -37.5t-25 -55.5q0 -51 45.5 -75.5t124.5 -24.5q102 0 167.5 35.5t65.5 86.5z" />
    <glyph glyph-name="Hcircumflex" unicode="&#x124;" horiz-adv-x="1594" 
d="M1133 1475q-68 0 -208 77q-52 29 -65 29q-11 0 -61 -27q-49 -32 -106 -55.5t-96 -23.5q-22 0 -36.5 11t-14.5 31q0 9 5.5 20t10 17t20.5 24q51 57 144 185q28 37 43.5 55t41 32.5t54.5 14.5q39 0 67 -24t68 -78q69 -95 149 -183q35 -38 35 -62q0 -20 -14.5 -31.5
t-36.5 -11.5zM1506 1399q80 0 80 -70q0 -24 -10.5 -42.5t-26.5 -35t-32.5 -37t-30 -58.5t-17.5 -89q-6 -60 -6 -331q0 -370 16 -467q5 -36 19 -64.5t30 -45t31.5 -31t25.5 -32t10 -38.5q0 -27 -23.5 -45.5t-65.5 -18.5q-36 0 -114 3t-117 3q-40 0 -120 -3t-116 -3
q-42 0 -65.5 18t-23.5 46q0 21 10.5 38.5t26 32t32 31t31 45t20.5 64.5q14 112 14 270q0 56 -14.5 78t-55.5 22h-295q-39 0 -56.5 -19.5t-17.5 -80.5q0 -168 19 -270q5 -36 19 -64.5t30 -45t31.5 -31t25.5 -32t10 -38.5q0 -27 -23.5 -45.5t-65.5 -18.5q-35 0 -114 3t-117 3
q-40 0 -120 -3t-116 -3q-42 0 -65.5 18t-23.5 46q0 21 10.5 38.5t26 32t32 31t31 45t20.5 64.5q12 97 12 467q0 280 -4 331t-18 88.5t-30.5 58.5t-32.5 37.5t-27 35.5t-11 42q0 70 80 70q38 0 117.5 -3t118.5 -3q41 0 119 3t112 3q80 0 80 -70q0 -30 -16.5 -52.5
t-42.5 -51.5t-41 -63q-10 -23 -18 -77t-8 -107q0 -73 16 -97.5t61 -24.5h286q43 0 59.5 23.5t16.5 98.5q0 55 -8.5 110t-16.5 74q-13 31 -56.5 81t-43.5 86q0 70 80 70q38 0 117.5 -3t118.5 -3q41 0 119 3t112 3z" />
    <glyph glyph-name="hcircumflex" unicode="&#x125;" 
d="M598 1503q-66 0 -184 82q-7 5 -18 13t-17 13t-13 8.5t-11 3.5q-3 0 -7.5 -2t-10.5 -6t-11 -7.5t-13.5 -10t-14.5 -10.5q-44 -33 -94 -58.5t-83 -25.5q-18 0 -30 9t-12 25q0 4 1 8.5t2.5 7.5t5.5 8.5t6 8.5t7.5 9.5t8.5 10.5q65 72 134 177q3 5 13.5 21t14.5 21t13 17.5
t15.5 16.5t16 11t20 9t22.5 2q8 0 16 -1.5t14 -3t13.5 -6.5t11.5 -7.5t11 -10.5t9.5 -10.5t10 -13t9 -13t10 -15t9.5 -14.5q51 -80 137 -180q30 -36 30 -53q0 -16 -12 -25t-30 -9zM189 335v820q0 67 -64 99q-43 26 -43 61q0 15 7.5 26.5t25.5 21t34.5 16t47.5 17.5t52 19
q23 9 56.5 23.5t48 20t36.5 14t33.5 11.5t25.5 5.5t26 2.5q33 0 53 -18t20 -54q0 -8 -12 -159t-12 -302q0 -43 17 -43q7 0 36 23.5t66.5 51t100.5 51t129 23.5q328 0 328 -374q0 -85 -13.5 -230.5t-13.5 -174.5q0 -89 50 -133q8 -7 26 -20.5t24.5 -19.5t13 -20t6.5 -31
q0 -68 -93 -68q-31 0 -90.5 3t-88.5 3q-38 0 -90.5 -3t-91.5 -3q-67 0 -67 64q0 14 1.5 27.5t5.5 27t6.5 21.5t7.5 21.5t6 16.5q16 45 28.5 166.5t12.5 239.5q0 129 -38.5 189.5t-115.5 60.5q-53 0 -100.5 -45t-47.5 -126v-339q0 -71 6.5 -102t28.5 -57q9 -10 29.5 -27
t29 -32t8.5 -38q0 -68 -87 -68q-32 0 -94.5 3t-90.5 3q-36 0 -107.5 -3t-117.5 -3q-36 0 -53 17.5t-17 46.5q0 17 7.5 34t15 26t21 22.5t16.5 17.5q55 69 55 177z" />
    <glyph glyph-name="Hbar" unicode="&#x126;" horiz-adv-x="1594" 
d="M1447 1399q80 0 80 -70q0 -26 -13.5 -47.5t-30.5 -37t-36.5 -48.5t-29.5 -76h120q51 0 51 -49q0 -65 -22 -116q-12 -29 -34.5 -41t-63.5 -12h-64v-166q0 -376 15 -467q5 -36 19 -64.5t30 -45t31.5 -31t26 -32t10.5 -38.5q0 -27 -23.5 -45.5t-65.5 -18.5q-35 0 -114 3
t-118 3q-40 0 -119.5 -3t-115.5 -3q-42 0 -65.5 18t-23.5 46q0 21 9.5 38.5t24.5 32t31 31t31.5 45t23.5 64.5q14 70 14 223q0 44 -15 63.5t-56 19.5h-295q-39 0 -56 -16.5t-17 -66.5q0 -153 18 -223q12 -47 33.5 -81.5t39 -48.5t31 -34.5t13.5 -46.5q0 -27 -23.5 -45.5
t-65.5 -18.5q-36 0 -115 3t-117 3q-40 0 -119.5 -3t-115.5 -3q-42 0 -65.5 18t-23.5 46q0 21 10.5 38.5t26 32t32 31t31 45t20.5 64.5q12 97 12 467v166h-136q-56 0 -56 47q0 59 24 118q12 30 32.5 41.5t60.5 11.5h63q-10 43 -29.5 76t-37 48.5t-31 37t-13.5 47.5
q0 70 80 70q38 0 117 -3t118 -3q41 0 119.5 3t112.5 3q80 0 80 -70q0 -24 -11 -44t-25.5 -33.5t-33.5 -37.5t-31 -52q-8 -17 -12 -42h412q-6 28 -12 42q-13 30 -56 80.5t-43 86.5q0 70 80 70q38 0 117 -3t118 -3q41 0 119.5 3t112.5 3zM948 793q34 0 51.5 24t22.5 85h-434
q4 -62 21 -85.5t54 -23.5h285z" />
    <glyph glyph-name="hbar" unicode="&#x127;" 
d="M618 1042h-166q-3 -64 -3 -128q0 -59 16 -59q8 0 40 22t71.5 49t103.5 49t128 22q89 0 153 -28t99.5 -78.5t51.5 -110t16 -132.5q0 -74 -11.5 -203.5t-11.5 -158.5q0 -89 50 -133q8 -7 26.5 -21t25 -20t13 -20t6.5 -32q0 -66 -93 -66q-31 0 -91 3t-89 3q-38 0 -90.5 -3
t-91.5 -3q-66 0 -66 66q0 36 26 111q14 41 26 145t12 205q0 123 -42 187.5t-117 64.5q-52 0 -96 -41t-44 -118v-301q0 -68 6.5 -98t29.5 -56q8 -10 29 -27.5t29 -32.5t8 -39q0 -66 -87 -66q-32 0 -94.5 3t-90.5 3q-36 0 -107 -3t-117 -3q-36 0 -53.5 18t-17.5 46q0 22 9 39
t28.5 38t20.5 22q58 71 58 171v714h-138q-24 0 -35 12t-11 27q0 39 19 71q25 36 78 36h87q-4 62 -67 89q-42 19 -42 55q0 11 3.5 20t13.5 17t18.5 13.5t26.5 12.5t29.5 11t36 12t37.5 12q47 16 99.5 37t78.5 29.5t52 8.5q72 0 72 -71q0 -1 -19 -246h214q25 0 36 -12.5
t11 -27.5q0 -42 -21 -69q-26 -37 -82 -37z" />
    <glyph glyph-name="Itilde" unicode="&#x128;" horiz-adv-x="780" 
d="M72 1641q0 88 56.5 140t139.5 52q63 0 160.5 -45.5t144.5 -45.5q34 0 56 15t29.5 33.5t17.5 33.5t22 15q28 0 55.5 -38.5t27.5 -103.5q0 -89 -56.5 -145t-144.5 -56q-58 0 -123 28.5t-120.5 57t-91.5 28.5q-25 0 -44 -13t-29 -28.5t-21 -28.5t-21 -13q-20 0 -39 30.5
t-19 83.5zM659 1399q80 0 80 -70q0 -28 -16 -52t-35.5 -42t-39 -62t-25.5 -106q-7 -58 -7 -331q0 -360 16 -467q5 -36 19 -64.5t30.5 -45t32 -31t25.5 -32t10 -38.5q0 -27 -24 -45.5t-66 -18.5q-35 0 -114 3t-117 3q-40 0 -119.5 -3t-115.5 -3q-43 0 -66.5 18t-23.5 46
q0 21 10.5 38.5t26 32t32 31t31 45t20.5 64.5q13 106 13 467q0 267 -5 331q-5 62 -24.5 105.5t-40 62t-37 42.5t-16.5 52q0 70 80 70q38 0 117 -3t118 -3q41 0 119 3t112 3z" />
    <glyph glyph-name="itilde" unicode="&#x129;" horiz-adv-x="647" 
d="M14 1293q0 82 50.5 132t123.5 50q46 0 96 -22.5t95.5 -45t81.5 -22.5q31 0 50.5 15t26 33t15 33t19.5 15q24 0 48.5 -35.5t24.5 -93.5q0 -83 -50.5 -135t-128.5 -52q-41 0 -86.5 16.5t-78 37t-69.5 37t-63 16.5q-23 0 -40.5 -12.5t-25.5 -28t-17.5 -28t-18.5 -12.5
q-18 0 -35.5 27t-17.5 75zM520 994q0 -16 -5.5 -152t-5.5 -267v-257q0 -64 10.5 -97t35.5 -62q9 -11 29 -27.5t28.5 -31.5t8.5 -38q0 -68 -87 -68q-31 0 -98.5 3t-96.5 3q-36 0 -107 -3t-117 -3q-36 0 -53.5 18t-17.5 46q0 17 7.5 34t15 26t21 22.5t16.5 17.5q56 71 56 177
v337q0 93 -62 134q-18 13 -24 18t-14.5 18.5t-8.5 29.5q0 18 8 31t25.5 22.5t34.5 16t48 17t52 19.5q29 12 72 30.5t67.5 29t49.5 19t39 8.5q73 0 73 -71z" />
    <glyph glyph-name="Imacron" unicode="&#x12a;" horiz-adv-x="780" 
d="M652 1518h-560q-59 0 -59 51q0 75 23 128q12 34 35.5 46.5t66.5 12.5h568q32 0 43.5 -14t11.5 -39q0 -68 -24 -126q-13 -34 -37 -46.5t-68 -12.5zM640 1399q80 0 80 -70q0 -24 -10.5 -42.5t-26 -35t-32 -37t-30 -58.5t-18.5 -89q-6 -50 -6 -331q0 -366 15 -467
q5 -36 19 -64.5t30.5 -45t32 -31t25.5 -32t10 -38.5q0 -27 -23.5 -45.5t-65.5 -18.5q-36 0 -114 3t-117 3q-40 0 -120 -3t-116 -3q-42 0 -65.5 18t-23.5 46q0 21 10.5 38.5t26 32t32 31t31 45t20.5 64.5q12 97 12 467q0 280 -4 331t-18 88.5t-30.5 58.5t-32.5 37.5t-27 35.5
t-11 42q0 70 80 70q38 0 117.5 -3t118.5 -3q41 0 119 3t112 3z" />
    <glyph glyph-name="imacron" unicode="&#x12b;" horiz-adv-x="647" 
d="M554 1213h-415q-57 0 -57 51q0 63 22 121q13 31 35.5 43.5t64.5 12.5h422q32 0 43 -13.5t11 -37.5q0 -61 -24 -120q-13 -32 -36 -44.5t-66 -12.5zM550 994q0 -16 -5.5 -152t-5.5 -267v-257q0 -64 10.5 -97t35.5 -62q9 -10 28.5 -27t28 -32t8.5 -38q0 -68 -87 -68
q-31 0 -98 3t-96 3q-36 0 -107.5 -3t-117.5 -3q-36 0 -53 17.5t-17 46.5q0 17 7.5 34t15 26t21 22.5t16.5 17.5q55 69 55 177v337q0 94 -61 134q-18 13 -24 18t-14.5 18.5t-8.5 29.5q0 18 8 31t25.5 22.5t34.5 16t48 17t52 19.5q29 12 72 30.5t67.5 29t49.5 19t39 8.5
q73 0 73 -71z" />
    <glyph glyph-name="Iogonek" unicode="&#x12e;" horiz-adv-x="780" 
d="M263 -250q0 71 52 129.5t131 98.5q17 7 17 15q0 7 -18 7q-22 0 -102 -3t-119 -3q-42 0 -65.5 18t-23.5 46q0 21 10.5 38.5t26 32t32 31t31 45t20.5 64.5q12 97 12 467q0 280 -4 331t-18 88.5t-30.5 58.5t-32.5 37.5t-27 35.5t-11 42q0 70 80 70q38 0 117.5 -3t118.5 -3
q41 0 119 3t112 3q80 0 80 -70q0 -24 -10.5 -42.5t-26 -35t-32 -37t-30 -58.5t-18.5 -89q-6 -50 -6 -331q0 -360 16 -467q6 -44 26 -77.5t39.5 -49t35 -37t15.5 -47.5t-18 -39.5t-78 -41.5q-159 -78 -159 -188q0 -52 29 -77t70 -25q43 0 67 13q35 13 44 13q12 0 19.5 -8
t7.5 -21q0 -41 -69.5 -90t-165.5 -49q-121 0 -192.5 53.5t-71.5 151.5z" />
    <glyph glyph-name="iogonek" unicode="&#x12f;" horiz-adv-x="647" 
d="M158 1266q0 94 78.5 173.5t175.5 79.5q70 0 116.5 -42.5t46.5 -111.5q0 -93 -84 -161.5t-189 -68.5q-71 0 -107.5 36t-36.5 95zM550 994q0 -16 -5.5 -152t-5.5 -267v-257q0 -64 10.5 -97t35.5 -62q9 -10 28.5 -27t28 -32t8.5 -38q0 -27 -12 -40t-50 -29t-62 -31
q-72 -46 -102 -90t-30 -96q0 -49 26 -76t65 -27q31 0 65 15q32 17 41 17q26 0 26 -34q0 -39 -63 -82.5t-152 -43.5q-109 0 -173.5 51.5t-64.5 145.5q0 70 51.5 133t136.5 105q18 11 18 14q0 6 -29 6t-93 -3t-104 -3q-36 0 -53 17.5t-17 46.5q0 17 7.5 34t15 26t21 22.5
t16.5 17.5q55 69 55 177v337q0 94 -61 134q-18 13 -24 18t-14.5 18.5t-8.5 29.5q0 18 8 31t25.5 22.5t34.5 16t48 17t52 19.5q29 12 72 30.5t67.5 29t49.5 19t39 8.5q73 0 73 -71z" />
    <glyph glyph-name="Idotaccent" unicode="&#x130;" horiz-adv-x="780" 
d="M472 1855q86 0 141 -47t55 -121q0 -86 -69.5 -143.5t-165.5 -57.5q-79 0 -132 45t-53 117q0 82 64 144.5t160 62.5zM691 1399q80 0 80 -70q0 -24 -10.5 -42.5t-26 -35t-32 -37t-30 -58.5t-18.5 -89q-6 -50 -6 -331q0 -360 16 -467q6 -44 26 -77.5t39.5 -49t35 -37
t15.5 -47.5q0 -27 -23.5 -45.5t-65.5 -18.5q-35 0 -114 3t-117 3q-40 0 -120 -3t-116 -3q-42 0 -65.5 18t-23.5 46q0 21 10.5 38.5t26 32t32 31t31 45t20.5 64.5q12 97 12 467q0 280 -4 331t-18 88.5t-30.5 58.5t-32.5 37.5t-27 35.5t-11 42q0 70 80 70q38 0 117.5 -3
t118.5 -3q41 0 119 3t112 3z" />
    <glyph glyph-name="dotlessi" unicode="&#x131;" horiz-adv-x="647" 
d="M550 994q0 -16 -5.5 -152t-5.5 -267v-257q0 -64 10.5 -97t35.5 -62q9 -10 28.5 -27t28 -32t8.5 -38q0 -68 -87 -68q-31 0 -98 3t-96 3q-36 0 -107.5 -3t-117.5 -3q-36 0 -53 17.5t-17 46.5q0 17 7.5 34t15 26t21 22.5t16.5 17.5q55 69 55 177v337q0 94 -61 134
q-18 13 -24 18t-14.5 18.5t-8.5 29.5q0 18 8 31t25.5 22.5t34.5 16t48 17t52 19.5q29 12 72 30.5t67.5 29t49.5 19t39 8.5q73 0 73 -71z" />
    <glyph glyph-name="IJ" unicode="&#x132;" horiz-adv-x="1860" 
d="M691 1399q80 0 80 -70q0 -24 -10.5 -42.5t-26 -35t-32 -37t-30 -58.5t-18.5 -89q-6 -50 -6 -331q0 -360 16 -467q6 -44 26 -77.5t39.5 -49t35 -37t15.5 -47.5q0 -27 -23.5 -45.5t-65.5 -18.5q-35 0 -114 3t-117 3q-40 0 -120 -3t-116 -3q-42 0 -65.5 18t-23.5 46
q0 21 10.5 38.5t26 32t32 31t31 45t20.5 64.5q12 97 12 467q0 280 -4 331t-18 88.5t-30.5 58.5t-32.5 37.5t-27 35.5t-11 42q0 70 80 70q38 0 117.5 -3t118.5 -3q41 0 119 3t112 3zM1391 459v277q0 270 -7 330q-5 51 -22.5 88t-39 56.5t-43 36t-35.5 36.5t-14 46q0 70 79 70
q35 0 132 -3t138 -3q39 0 110.5 3t108.5 3q80 0 80 -70q0 -28 -13.5 -52t-31 -42.5t-34.5 -62t-22 -105.5q-5 -85 -5 -423q0 -89 -4 -155t-16.5 -140t-34 -126.5t-60 -103.5t-91.5 -82t-130 -49.5t-174 -18.5q-117 0 -204.5 27t-137 75t-73 105.5t-23.5 125.5q0 97 57 170.5
t158 73.5q81 0 121.5 -37.5t40.5 -96.5q0 -20 -18.5 -78t-18.5 -93q0 -37 21.5 -61.5t62.5 -24.5q69 0 106 77.5t37 226.5z" />
    <glyph glyph-name="ij" unicode="&#x133;" horiz-adv-x="1224" 
d="M164 1266q0 94 78.5 173.5t175.5 79.5q70 0 117 -43t47 -111q0 -93 -84.5 -161.5t-189.5 -68.5q-71 0 -107.5 36t-36.5 95zM779 1266q0 94 78.5 173.5t176.5 79.5q70 0 117 -43t47 -111q0 -93 -84.5 -161.5t-188.5 -68.5q-71 0 -108.5 36t-37.5 95zM556 994
q0 -16 -5.5 -152t-5.5 -267v-257q0 -64 10.5 -97t35.5 -62q9 -10 28.5 -27t28 -32t8.5 -38q0 -68 -87 -68q-31 0 -98 3t-96 3q-36 0 -107 -3t-117 -3q-36 0 -53.5 18t-17.5 46q0 17 7.5 34t15 26t21 22.5t16.5 17.5q56 71 56 177v337q0 93 -62 134q-18 13 -24 18t-14.5 18.5
t-8.5 29.5q0 18 8 31t25.5 22.5t34.5 16t48 17t52 19.5q29 12 72 30.5t67.5 29t49.5 19t39 8.5q73 0 73 -71zM1162 575v-175q0 -106 4.5 -249t4.5 -158q0 -107 -34.5 -192t-94 -137.5t-135 -79.5t-161.5 -27q-52 0 -91.5 19.5t-39.5 44.5q0 15 7.5 24.5t27 22.5t31.5 23
q65 59 98.5 143t33.5 228v610q0 94 -61 134q-16 12 -24.5 19t-15.5 19.5t-7 27.5t6.5 27t16 19.5t27 15.5t33 13.5t40.5 14t44 16.5q29 12 72.5 30.5t67.5 29t49.5 19t39.5 8.5q73 0 73 -71q0 -16 -3 -62.5t-6 -138.5t-3 -218z" />
    <glyph glyph-name="Jcircumflex" unicode="&#x134;" horiz-adv-x="1124" 
d="M1048 1475q-68 0 -208 77q-52 29 -65 29q-11 0 -61 -27q-49 -32 -106 -55.5t-96 -23.5q-22 0 -36.5 11t-14.5 31q0 9 5.5 20t10 17t20.5 24q51 57 144 185q28 37 43.5 55t41 32.5t54.5 14.5q40 0 67.5 -24t67.5 -78q69 -95 149 -183q35 -38 35 -62q0 -20 -14.5 -31.5
t-36.5 -11.5zM609 459v277q0 279 -6 330q-5 51 -22.5 88t-39 56.5t-43 36t-35.5 36.5t-14 46q0 70 78 70q35 0 133 -3t138 -3q39 0 110.5 3t108.5 3q80 0 80 -70q0 -28 -14 -52t-31 -42.5t-34.5 -62t-22.5 -105.5q-5 -85 -5 -423q0 -89 -4 -155t-16.5 -140t-34 -126.5
t-60 -103.5t-91.5 -82t-130 -49.5t-174 -18.5q-117 0 -204.5 27t-136.5 75t-72.5 105.5t-23.5 125.5q0 97 57 170.5t158 73.5q81 0 121.5 -37.5t40.5 -96.5q0 -20 -18.5 -78t-18.5 -93q0 -37 21.5 -61.5t62.5 -24.5q69 0 105.5 77t36.5 227z" />
    <glyph glyph-name="jcircumflex" unicode="&#x135;" horiz-adv-x="584" 
d="M456 1149q-62 0 -175 101q-7 6 -21.5 20.5t-21.5 20.5t-12 6q-4 0 -12 -6.5t-20.5 -19t-20.5 -19.5q-107 -103 -169 -103q-17 0 -28.5 9.5t-11.5 26.5q0 18 29 57q50 68 123 204q4 6 13 22.5t13 23t12.5 18.5t15 17.5t16 12t20.5 9t24 2.5q9 0 17.5 -1.5t14.5 -3.5
t13.5 -7.5t11.5 -8t10.5 -11t9.5 -12t9.5 -14.5t8 -14t9 -16.5t8.5 -16.5q51 -101 126 -204q29 -39 29 -57q0 -17 -11.5 -26.5t-29.5 -9.5zM416 575v-175q0 -106 4.5 -249t4.5 -158q0 -107 -34.5 -192t-94 -137.5t-135 -79.5t-161.5 -27q-52 0 -91.5 19.5t-39.5 44.5
q0 15 7 24.5t27 22.5t31 23q65 59 99 143t34 228v610q0 93 -62 134q-16 12 -24.5 19t-15.5 19.5t-7 27.5q0 18 8 31t25.5 22.5t34.5 16t48 17t52 19.5q29 12 72 30.5t67.5 29t49.5 19t39 8.5q73 0 73 -71q0 -16 -2.5 -62.5t-5.5 -138.5t-3 -218z" />
    <glyph glyph-name="uni0136" unicode="&#x136;" horiz-adv-x="1482" 
d="M656 773q14 0 95.5 86t159 188.5t77.5 137.5q0 30 -34.5 72t-34.5 75q0 29 24 48t68 19q24 0 89.5 -3t92.5 -3q26 0 89 2.5t87 2.5q66 0 95 -13t29 -58q0 -28 -21.5 -48t-69.5 -47t-75 -48q-174 -138 -359 -358q-13 -16 -13 -21q0 -6 14 -12q74 -26 135.5 -72
t109.5 -110.5t83.5 -129t73.5 -152.5q53 -128 122 -188q10 -8 26.5 -21t22 -18t11 -16.5t5.5 -26.5q0 -65 -70 -65q-22 0 -112 3t-116 3q-53 0 -131.5 -3t-88.5 -3q-42 0 -68 20.5t-26 50.5q0 18 12 48.5t12 56.5q0 63 -37 149.5t-101.5 154t-128.5 67.5q-57 0 -57 -97v-84
q0 -64 16.5 -105.5t46.5 -82.5q10 -14 32 -36.5t32.5 -39.5t10.5 -38q0 -31 -23.5 -47.5t-63.5 -16.5q-44 0 -123 3t-116 3q-40 0 -119 -3t-115 -3q-42 0 -65.5 18t-23.5 46q0 21 10.5 38.5t26 32t32 31t31 45t20.5 64.5q12 97 12 467q0 280 -4 331t-18 88.5t-30.5 58.5
t-32.5 37.5t-27 35.5t-11 42q0 70 80 70q38 0 117.5 -3t118.5 -3q41 0 119 3t112 3q80 0 80 -70q0 -33 -39.5 -80t-50.5 -75q-39 -83 -39 -210q0 -191 14 -191zM749 -503q-17 0 -26.5 9.5t-9.5 23.5q0 12 22 48.5t22 70.5q0 11 -19 29.5t-38 49t-19 70.5q0 57 40 90t95 33
q71 0 112.5 -42t41.5 -116q0 -92 -75.5 -179t-145.5 -87z" />
    <glyph glyph-name="uni0137" unicode="&#x137;" horiz-adv-x="1272" 
d="M526 325q0 -105 65 -177q6 -7 24.5 -21.5t27.5 -28.5t9 -36q0 -68 -87 -68q-31 0 -100 3t-96 3q-37 0 -110 -3t-115 -3q-36 0 -53 17.5t-17 46.5q0 17 7.5 34t15 26t21 22.5t16.5 17.5q55 69 55 177v821q0 65 -64 99q-43 26 -43 60q0 16 7.5 27.5t25.5 21.5t34.5 16.5
t48 18t51.5 19.5q36 14 89 39t84 36.5t53 11.5q33 0 53 -17.5t20 -53.5q0 -29 -9 -275.5t-9 -496.5q0 -60 17 -60q18 0 72 40t104 99t50 100q0 20 -39 68.5t-39 72.5q0 36 23 52.5t56 16.5q34 0 104 -3.5t107 -3.5t93 5t92 5q95 0 95 -68q0 -17 -7 -31.5t-27.5 -31
t-31 -23.5t-42.5 -27q-139 -84 -311 -221q-13 -12 -13 -17q0 -8 15 -15q74 -29 128 -75.5t86 -98t57.5 -102t59 -102.5t73.5 -84q1 0 9 -6.5t14 -11.5t15.5 -14.5t15.5 -18.5t10.5 -21.5t4.5 -25.5t-4 -26t-19.5 -26.5t-40.5 -13.5q-23 0 -101 2t-117 2q-44 0 -107.5 -3.5
t-81.5 -3.5q-39 0 -63 17.5t-24 49.5q0 17 9.5 42t9.5 41q0 80 -70 178q-32 46 -70.5 72.5t-62.5 26.5q-32 0 -42.5 -22.5t-10.5 -70.5zM602 -503q-17 0 -26.5 9.5t-9.5 23.5q0 12 22 48.5t22 70.5q0 9 -11.5 23t-26 28t-26 40.5t-11.5 57.5q0 57 40 90t95 33
q70 0 111.5 -42t41.5 -116q0 -92 -75.5 -179t-145.5 -87z" />
    <glyph glyph-name="Lacute" unicode="&#x139;" horiz-adv-x="1242" 
d="M297 1593q63 56 133 148q43 57 87 90.5t100 33.5q61 0 96 -35.5t35 -82.5q0 -97 -133 -177q-68 -39 -154 -67t-140 -28q-28 0 -49 11t-21 33q0 18 7.5 31t38.5 43zM267 736q0 280 -4 331t-18 88.5t-30.5 58.5t-32.5 37.5t-27 35.5t-11 42q0 70 80 70q38 0 117.5 -3
t118.5 -3q41 0 138.5 3t131.5 3q79 0 79 -70q0 -26 -14.5 -46t-35.5 -36.5t-43 -36t-39.5 -56.5t-22.5 -88q-6 -51 -6 -330v-376q0 -92 35.5 -122t121.5 -30q58 0 105 12.5t78 31.5t57 50.5t42 60.5t32 70q21 47 41 69.5t46 22.5q59 0 59 -94q0 -31 -11 -152t-16 -194
q-4 -55 -25.5 -73t-82.5 -18q-42 0 -193 3t-227 3q-153 0 -312.5 -3t-173.5 -3q-43 0 -66 17t-23 47q0 21 10 38.5t25.5 31.5t32 30.5t30.5 44t20 63.5q14 88 14 470z" />
    <glyph glyph-name="lacute" unicode="&#x13a;" horiz-adv-x="652" 
d="M220 1592q36 55 79 131q20 37 32 56t32 42.5t44.5 33.5t55.5 10q52 0 80 -33t28 -81q0 -72 -75 -147q-44 -46 -127 -83.5t-135 -37.5q-48 0 -48 40q0 14 34 69zM548 1411q0 -45 -4.5 -151.5t-4.5 -275.5v-666q0 -64 10.5 -97t35.5 -62q9 -10 28.5 -27t28 -32t8.5 -38
q0 -68 -87 -68q-31 0 -99 3t-95 3q-37 0 -110 -3t-115 -3q-36 0 -53 17.5t-17 46.5q0 17 7.5 34t15 26t21 22.5t16.5 17.5q55 69 55 177v799q0 65 -64 99q-22 13 -32.5 25t-10.5 34q0 16 7.5 27.5t26 21.5t34 16.5t47.5 18t52 19.5q35 14 88.5 39.5t84.5 37t53 11.5
q33 0 53 -18t20 -54z" />
    <glyph glyph-name="uni013B" unicode="&#x13b;" horiz-adv-x="1242" 
d="M267 736q0 280 -4 331t-18 88.5t-30.5 58.5t-32.5 37.5t-27 35.5t-11 42q0 70 80 70q38 0 117.5 -3t118.5 -3q41 0 138.5 3t131.5 3q79 0 79 -70q0 -26 -14.5 -46t-35.5 -36.5t-43 -36t-39.5 -56.5t-22.5 -88q-6 -51 -6 -330v-376q0 -92 35.5 -122t121.5 -30
q58 0 105 12.5t78 31.5t57 50.5t42 60.5t32 70q21 47 41 69.5t46 22.5q59 0 59 -94q0 -31 -11 -152t-16 -194q-4 -55 -25.5 -73t-82.5 -18q-42 0 -193 3t-227 3q-153 0 -312.5 -3t-173.5 -3q-43 0 -66 17t-23 47q0 21 10 38.5t25.5 31.5t32 30.5t30.5 44t20 63.5
q14 88 14 470zM627 -503q-17 0 -26.5 9.5t-9.5 23.5q0 12 22 48.5t22 70.5q0 11 -19 29.5t-38 49t-19 70.5q0 57 40 90t95 33q71 0 112.5 -42t41.5 -116q0 -92 -75.5 -179t-145.5 -87z" />
    <glyph glyph-name="uni013C" unicode="&#x13c;" horiz-adv-x="652" 
d="M548 1434q0 -45 -4.5 -151t-4.5 -275v-690q0 -64 10.5 -97t35.5 -62q9 -10 28.5 -27t28 -32t8.5 -38q0 -68 -87 -68q-31 0 -99 3t-95 3q-37 0 -110 -3t-115 -3q-36 0 -53 17.5t-17 46.5q0 17 7.5 34t15 26t21 22.5t16.5 17.5q55 69 55 177v821q0 65 -64 99q-43 26 -43 60
q0 16 7.5 27.5t25.5 21.5t34.5 16.5t48 18t51.5 19.5q36 14 89 39t84 36.5t53 11.5q33 0 53 -17.5t20 -53.5zM287 -503q-17 0 -26.5 9.5t-9.5 23.5q0 12 22 48.5t22 70.5q0 11 -19 29.5t-38 49t-19 70.5q0 57 40 90t95 33q71 0 112.5 -42t41.5 -116q0 -92 -75.5 -179
t-145.5 -87z" />
    <glyph glyph-name="Lcaron" unicode="&#x13d;" horiz-adv-x="1242" 
d="M852 1013q2 23 10 122.5t16 142.5q20 125 116 125q55 0 84 -39t29 -108q0 -77 -65 -215q-38 -82 -80 -133.5t-78 -51.5q-42 0 -42 51q0 13 10 106zM267 736q0 280 -4 331t-18 88.5t-30.5 58.5t-32.5 37.5t-27 35.5t-11 42q0 70 80 70q38 0 117.5 -3t118.5 -3
q41 0 138.5 3t131.5 3q79 0 79 -70q0 -26 -14.5 -46t-35.5 -36.5t-43 -36t-39.5 -56.5t-22.5 -88q-6 -51 -6 -330v-376q0 -92 35.5 -122t121.5 -30q58 0 105 12.5t78 31.5t57 50.5t42 60.5t32 70q21 47 41 69.5t46 22.5q59 0 59 -94q0 -31 -11 -152t-16 -194
q-4 -55 -25.5 -73t-82.5 -18q-42 0 -193 3t-227 3q-153 0 -312.5 -3t-173.5 -3q-43 0 -66 17t-23 47q0 21 10 38.5t25.5 31.5t32 30.5t30.5 44t20 63.5q14 88 14 470z" />
    <glyph glyph-name="lcaron" unicode="&#x13e;" horiz-adv-x="879" 
d="M548 1434q0 -45 -4.5 -151t-4.5 -275v-690q0 -64 10.5 -97t35.5 -62q9 -10 28.5 -27t28 -32t8.5 -38q0 -68 -87 -68q-31 0 -99 3t-95 3q-37 0 -110 -3t-115 -3q-36 0 -53 17.5t-17 46.5q0 17 7.5 34t15 26t21 22.5t16.5 17.5q55 69 55 177v821q0 65 -64 99q-43 26 -43 60
q0 16 7.5 27.5t25.5 21.5t34.5 16.5t48 18t51.5 19.5q36 14 89 39t84 36.5t53 11.5q33 0 53 -17.5t20 -53.5zM669 1115q3 28 10 125t15 140q20 125 117 125q55 0 84 -38.5t29 -107.5q0 -77 -65 -215q-38 -82 -80.5 -134t-78.5 -52q-42 0 -42 52q0 2 11 105z" />
    <glyph glyph-name="Ldot" unicode="&#x13f;" horiz-adv-x="1242" 
d="M267 736q0 280 -4 331t-18 88.5t-30.5 58.5t-32.5 37.5t-27 35.5t-11 42q0 70 80 70q38 0 117.5 -3t118.5 -3q41 0 138.5 3t131.5 3q79 0 79 -70q0 -26 -14.5 -46t-35.5 -36.5t-43 -36t-39.5 -56.5t-22.5 -88q-6 -51 -6 -330v-376q0 -92 35.5 -122t121.5 -30
q222 0 312 195q23 48 41.5 70.5t44.5 22.5q60 0 60 -96q0 -30 -10 -134.5t-15 -180.5q-4 -55 -25.5 -73t-82.5 -18q-42 0 -193 3t-227 3q-153 0 -312.5 -3t-173.5 -3q-43 0 -66 17t-23 47q0 21 10 38.5t25.5 31.5t32 30.5t30.5 44t20 63.5q14 88 14 470zM1279 743
q0 -90 -61 -144.5t-147 -54.5q-77 0 -130 46.5t-53 131.5q0 92 62.5 149t143.5 57q76 0 130.5 -49.5t54.5 -135.5z" />
    <glyph glyph-name="ldot" unicode="&#x140;" horiz-adv-x="1052" 
d="M548 1434q0 -45 -4.5 -151t-4.5 -275v-690q0 -64 10.5 -97t35.5 -62q9 -10 28.5 -27t28 -32t8.5 -38q0 -68 -87 -68q-31 0 -99 3t-95 3q-37 0 -110 -3t-115 -3q-36 0 -53 17.5t-17 46.5q0 17 7.5 34t15 26t21 22.5t16.5 17.5q55 69 55 177v821q0 65 -64 99q-43 26 -43 60
q0 16 7.5 27.5t25.5 21.5t34.5 16.5t48 18t51.5 19.5q36 14 89 39t84 36.5t53 11.5q33 0 53 -17.5t20 -53.5zM1085 550q0 -91 -60.5 -145.5t-146.5 -54.5q-77 0 -130.5 46.5t-53.5 131.5q0 92 62.5 149t143.5 57q76 0 130.5 -49t54.5 -135z" />
    <glyph glyph-name="Lslash" unicode="&#x141;" horiz-adv-x="1242" 
d="M216 736q0 280 -4 331t-18 88.5t-30.5 58.5t-32.5 37.5t-27 35.5t-11 42q0 70 80 70q38 0 117.5 -3t118.5 -3q41 0 138 3t132 3q79 0 79 -70q0 -26 -14.5 -46t-35.5 -36.5t-43 -36t-39.5 -56.5t-22.5 -88q-6 -52 -6 -182l121 60q46 22 68 22q31 0 45.5 -41.5t14.5 -96.5
q0 -49 -71 -86l-178 -88v-294q0 -92 35.5 -122t121.5 -30q58 0 105 12.5t78 31.5t57 50.5t42 60.5t32 70q21 47 41 69.5t46 22.5q58 0 58 -94q0 -25 -4 -76t-11 -129t-11 -141q-4 -55 -25.5 -73t-82.5 -18q-42 0 -193.5 3t-227.5 3q-153 0 -312 -3t-173 -3q-43 0 -66 17
t-23 47q0 21 10 38.5t25.5 31.5t32 30.5t30.5 44t20 63.5q9 59 12 217l-41 -19q-58 -27 -82 -27q-26 0 -42 38t-16 99q0 47 65 78l118 59v25z" />
    <glyph glyph-name="lslash" unicode="&#x142;" horiz-adv-x="667" 
d="M502 1434q0 -45 -4.5 -151t-4.5 -275v-114l82 41q44 21 63 21q27 0 37.5 -28.5t10.5 -60.5q0 -49 -59 -77l-134 -67v-405q0 -64 10.5 -97t35.5 -62q9 -10 28.5 -27t28 -32t8.5 -38q0 -68 -87 -68q-31 0 -99 3t-95 3q-37 0 -110 -3t-115 -3q-36 0 -53 17.5t-17 46.5
q0 17 7.5 34t15 26t21 22.5t16.5 17.5q55 69 55 177v232l-69 -33q-58 -26 -75 -26q-23 0 -35.5 26.5t-12.5 62.5q0 44 55 71l137 68v420q0 65 -64 99q-43 26 -43 60q0 16 7.5 27.5t25.5 21.5t34.5 16.5t48 18t51.5 19.5q36 14 89 39t84 36.5t53 11.5q33 0 53 -17.5t20 -53.5
z" />
    <glyph glyph-name="Nacute" unicode="&#x143;" horiz-adv-x="1489" 
d="M659 1593q66 59 134 148q43 57 87 90.5t100 33.5q60 0 95 -35t35 -83q0 -98 -132 -177q-68 -39 -154.5 -67t-140.5 -28q-28 0 -49 11t-21 33q0 18 7.5 31t38.5 43zM224 1399q20 0 93 -3t103 -3q100 0 134 -18q14 -6 29 -19.5t25 -25t37.5 -45t45.5 -54.5l373 -472
q76 -90 88 -90q5 0 7.5 3t4.5 14t2.5 31t0.5 56q0 305 -51 399q-16 32 -42 60.5t-41.5 49.5t-15.5 47q0 70 79 70q29 0 85.5 -3t76.5 -3q27 0 85.5 3t81.5 3q77 0 77 -70q0 -28 -14.5 -50t-32.5 -37.5t-35.5 -56.5t-22.5 -101q-6 -69 -6 -268q1 -311 10.5 -473t9.5 -215
q0 -61 -51 -103t-136 -42q-22 0 -52 18.5t-58 51.5l-567 704q-3 4 -8 9t-7.5 8t-6 7t-5.5 6l-4.5 4.5t-4.5 4t-3.5 2.5t-3.5 1.5t-3 0.5q-11 0 -14.5 -26t-3.5 -112q0 -149 15.5 -269t42.5 -174q13 -28 32 -52t33 -36.5t24.5 -30t10.5 -37.5q0 -69 -80 -69q-34 0 -89.5 3
t-74.5 3q-25 0 -89 -3t-95 -3q-78 0 -78 69q0 23 11.5 40.5t28.5 32t34.5 32.5t31.5 53.5t18 85.5q8 96 8 428q0 251 -5 331q-5 62 -25 105.5t-40 62t-36.5 42.5t-16.5 53q0 70 80 70z" />
    <glyph glyph-name="nacute" unicode="&#x144;" 
d="M565 1249q36 73 71 164q13 33 23.5 54.5t28.5 48.5t44 40.5t59 13.5q52 0 80 -33.5t28 -80.5q0 -68 -68 -147q-50 -58 -122.5 -108t-119.5 -50t-47 40q0 10 23 58zM1200 691q0 -85 -14 -231t-14 -174q0 -88 52 -133q9 -8 26 -21t24 -19.5t13.5 -20t6.5 -30.5
q0 -68 -94 -68q-30 0 -90 3t-89 3q-37 0 -89.5 -3t-91.5 -3q-35 0 -51.5 18t-16.5 46q0 17 3.5 35.5t6.5 28.5t10 29t8 21q15 46 28 168t13 238q0 250 -154 250q-54 0 -101.5 -44.5t-47.5 -126.5v-339q0 -70 6.5 -101.5t29.5 -57.5q9 -11 29 -27.5t28.5 -31.5t8.5 -38
q0 -68 -87 -68q-32 0 -94.5 3t-89.5 3q-37 0 -110 -3t-115 -3q-70 0 -70 64q0 17 7 34t15 26.5t20.5 22.5t16.5 17q56 69 56 177v373q0 73 -66 109q-41 25 -41 60q0 21 15 37t32 24t56 23t62 25q36 16 70.5 33.5t49 25t29.5 12.5t29 5q34 0 54 -17.5t32 -61.5q13 -63 31 -63
q7 0 36.5 22.5t67 50t100.5 50t127 22.5q327 0 327 -374z" />
    <glyph glyph-name="uni0145" unicode="&#x145;" horiz-adv-x="1489" 
d="M224 1399q20 0 93 -3t103 -3q100 0 134 -18q14 -6 29 -19.5t25 -25t37.5 -45t45.5 -54.5l373 -472q76 -90 88 -90q5 0 7.5 3t4.5 14t2.5 31t0.5 56q0 305 -51 399q-16 32 -42 60.5t-41.5 49.5t-15.5 47q0 70 79 70q29 0 85.5 -3t76.5 -3q27 0 85.5 3t81.5 3q77 0 77 -70
q0 -28 -14.5 -50t-32.5 -37.5t-35.5 -56.5t-22.5 -101q-6 -69 -6 -268q1 -311 10.5 -473t9.5 -215q0 -61 -51 -103t-136 -42q-22 0 -52 18.5t-58 51.5l-567 704q-3 4 -8 9t-7.5 8t-6 7t-5.5 6l-4.5 4.5t-4.5 4t-3.5 2.5t-3.5 1.5t-3 0.5q-11 0 -14.5 -26t-3.5 -112
q0 -149 15.5 -269t42.5 -174q13 -28 32 -52t33 -36.5t24.5 -30t10.5 -37.5q0 -69 -80 -69q-34 0 -89.5 3t-74.5 3q-25 0 -89 -3t-95 -3q-78 0 -78 69q0 23 11.5 40.5t28.5 32t34.5 32.5t31.5 53.5t18 85.5q8 96 8 428q0 251 -5 331q-5 62 -25 105.5t-40 62t-36.5 42.5
t-16.5 53q0 70 80 70zM765 -503q-17 0 -26.5 9.5t-9.5 23.5q0 12 22 48.5t22 70.5q0 11 -19 29.5t-38 49t-19 70.5q0 56 40.5 89.5t95.5 33.5q70 0 111.5 -42t41.5 -116q0 -92 -75.5 -179t-145.5 -87z" />
    <glyph glyph-name="uni0146" unicode="&#x146;" 
d="M1200 691q0 -85 -14 -231t-14 -174q0 -88 52 -133q9 -8 26 -21t24 -19.5t13.5 -20t6.5 -30.5q0 -68 -94 -68q-30 0 -90 3t-89 3q-37 0 -89.5 -3t-91.5 -3q-35 0 -51.5 18t-16.5 46q0 17 3.5 35.5t6.5 28.5t10 29t8 21q15 46 28 168t13 238q0 250 -154 250
q-54 0 -101.5 -44.5t-47.5 -126.5v-339q0 -70 6.5 -101.5t29.5 -57.5q9 -11 29 -27.5t28.5 -31.5t8.5 -38q0 -68 -87 -68q-32 0 -94.5 3t-89.5 3q-37 0 -110 -3t-115 -3q-70 0 -70 64q0 17 7 34t15 26.5t20.5 22.5t16.5 17q56 69 56 177v373q0 73 -66 109q-41 25 -41 60
q0 21 15 37t32 24t56 23t62 25q36 16 70.5 33.5t49 25t29.5 12.5t29 5q34 0 54 -17.5t32 -61.5q13 -63 31 -63q7 0 36.5 22.5t67 50t100.5 50t127 22.5q327 0 327 -374zM601 -503q-17 0 -26.5 9.5t-9.5 23.5q0 12 22 48.5t22 70.5q0 11 -18.5 29.5t-37.5 49t-19 70.5
q0 57 40 90t95 33q70 0 111.5 -42t41.5 -116q0 -92 -75.5 -179t-145.5 -87z" />
    <glyph glyph-name="Ncaron" unicode="&#x147;" horiz-adv-x="1489" 
d="M543 1865q72 0 208 -78q7 -3 19 -10t18 -10t14 -6t14 -3q14 0 61 28q127 79 202 79q22 0 36 -11t14 -31q0 -22 -35 -62q-54 -59 -144 -184q-41 -55 -69.5 -78.5t-70.5 -23.5q-39 0 -67 24t-68 78q-66 90 -149 182q-34 37 -34 63q0 20 14.5 31.5t36.5 11.5zM224 1399
q20 0 93 -3t103 -3q100 0 134 -18q14 -6 29 -19.5t25 -25t37.5 -45t45.5 -54.5l373 -472q76 -90 88 -90q5 0 7.5 3t4.5 14t2.5 31t0.5 56q0 305 -51 399q-16 32 -42 60.5t-41.5 49.5t-15.5 47q0 70 79 70q29 0 85.5 -3t76.5 -3q27 0 85.5 3t81.5 3q77 0 77 -70
q0 -28 -14.5 -50t-32.5 -37.5t-35.5 -56.5t-22.5 -101q-6 -69 -6 -268q1 -311 10.5 -473t9.5 -215q0 -61 -51 -103t-136 -42q-22 0 -52 18.5t-58 51.5l-567 704q-3 4 -8 9t-7.5 8t-6 7t-5.5 6l-4.5 4.5t-4.5 4t-3.5 2.5t-3.5 1.5t-3 0.5q-11 0 -14.5 -26t-3.5 -112
q0 -149 15.5 -269t42.5 -174q13 -28 32 -52t33 -36.5t24.5 -30t10.5 -37.5q0 -69 -80 -69q-34 0 -89.5 3t-74.5 3q-25 0 -89 -3t-95 -3q-78 0 -78 69q0 23 11.5 40.5t28.5 32t34.5 32.5t31.5 53.5t18 85.5q8 96 8 428q0 251 -5 331q-5 62 -25 105.5t-40 62t-36.5 42.5
t-16.5 53q0 70 80 70z" />
    <glyph glyph-name="ncaron" unicode="&#x148;" 
d="M455 1551q64 0 175 -101q9 -7 21.5 -20t20.5 -19.5t12 -6.5q3 0 7 2.5t9.5 7.5t10.5 9.5t13 12.5l13 13q106 102 169 102q40 0 40 -35q0 -19 -28 -58q-52 -70 -123 -203q-3 -4 -13 -22.5t-13 -23.5t-12.5 -18.5t-15.5 -18t-16 -11.5t-21 -9.5t-24 -2.5q-10 0 -18.5 1.5
t-17 6t-14 7t-13 11.5t-10.5 12t-10.5 16t-9 16t-10 18.5t-9.5 17.5q-50 98 -126 203q-28 39 -28 58q0 35 41 35zM1200 691q0 -85 -14 -231t-14 -174q0 -88 52 -133q9 -8 26 -21t24 -19.5t13.5 -20t6.5 -30.5q0 -68 -94 -68q-30 0 -90 3t-89 3q-37 0 -89.5 -3t-91.5 -3
q-35 0 -51.5 18t-16.5 46q0 17 3.5 35.5t6.5 28.5t10 29t8 21q15 46 28 168t13 238q0 250 -154 250q-54 0 -101.5 -44.5t-47.5 -126.5v-339q0 -70 6.5 -101.5t29.5 -57.5q9 -11 29 -27.5t28.5 -31.5t8.5 -38q0 -68 -87 -68q-32 0 -94.5 3t-89.5 3q-37 0 -110 -3t-115 -3
q-70 0 -70 64q0 17 7 34t15 26.5t20.5 22.5t16.5 17q56 69 56 177v373q0 73 -66 109q-41 25 -41 60q0 21 15 37t32 24t56 23t62 25q36 16 70.5 33.5t49 25t29.5 12.5t29 5q34 0 54 -17.5t32 -61.5q13 -63 31 -63q7 0 36.5 22.5t67 50t100.5 50t127 22.5q327 0 327 -374z" />
    <glyph glyph-name="Omacron" unicode="&#x14c;" horiz-adv-x="1495" 
d="M1039 1518h-560q-59 0 -59 51q0 75 23 128q12 34 35.5 46.5t66.5 12.5h568q32 0 43.5 -14t11.5 -39q0 -68 -24 -126q-13 -34 -37 -46.5t-68 -12.5zM94 684q0 218 87 387t246 262.5t365 93.5q144 0 271 -50.5t224 -145t153.5 -241t56.5 -326.5q0 -136 -35 -250.5
t-98 -196.5t-149.5 -139t-190 -85t-220.5 -28q-165 0 -299 53.5t-224 149t-138.5 228t-48.5 288.5zM735 1218q-75 0 -129.5 -88.5t-54.5 -278.5q0 -266 87 -463q41 -89 101 -138t127 -49q90 0 148 76t58 236q0 114 -27 246t-73 233q-44 105 -108.5 165.5t-128.5 60.5z" />
    <glyph glyph-name="omacron" unicode="&#x14d;" horiz-adv-x="1150" 
d="M825 1213h-486q-57 0 -57 51q0 64 23 121q13 31 35 43.5t64 12.5h493q32 0 43 -13.5t11 -37.5q0 -63 -23 -120q-13 -32 -36.5 -44.5t-66.5 -12.5zM82 514q0 244 146.5 397.5t374.5 153.5q87 0 167.5 -23.5t149.5 -71.5t120.5 -115t80.5 -159.5t29 -199.5
q0 -126 -42 -225.5t-116 -162.5t-170 -95.5t-207 -32.5q-241 0 -387 149.5t-146 384.5zM571 881q-50 0 -83.5 -54.5t-33.5 -180.5q0 -194 56 -322q57 -124 150 -124q58 0 96.5 48.5t38.5 154.5q0 76 -19 167.5t-49 160.5q-32 73 -73 111.5t-83 38.5z" />
    <glyph glyph-name="Obreve" unicode="&#x14e;" horiz-adv-x="1495" 
d="M796 1480q-154 0 -232.5 82.5t-78.5 203.5q0 84 42 84q8 0 15.5 -4.5t11 -8.5t10.5 -15t10 -14q85 -110 222 -110q138 0 218 110q1 1 4.5 6.5t4.5 7l4 6t5 6t5 5t5.5 5t6 3.5t7 2.5t7.5 0.5q40 0 40 -84q0 -121 -77 -203.5t-230 -82.5zM94 684q0 218 87 387t246 262.5
t365 93.5q144 0 271 -50.5t224 -145t153.5 -241t56.5 -326.5q0 -136 -35 -250.5t-98 -196.5t-149.5 -139t-190 -85t-220.5 -28q-165 0 -299 53.5t-224 149t-138.5 228t-48.5 288.5zM735 1218q-75 0 -129.5 -88.5t-54.5 -278.5q0 -266 87 -463q41 -89 101 -138t127 -49
q90 0 148 76t58 236q0 114 -27 246t-73 233q-44 105 -108.5 165.5t-128.5 60.5z" />
    <glyph glyph-name="obreve" unicode="&#x14f;" horiz-adv-x="1150" 
d="M616 1154q-90 0 -154 43.5t-92.5 108t-28.5 139.5q0 83 38 83q8 0 14 -3t12 -11.5t8 -12.5l9 -18q36 -52 81.5 -82.5t112.5 -30.5q120 0 195 113q1 1 2 4q7 15 11 21.5t12 13t18 6.5q38 0 38 -83q0 -75 -28.5 -139.5t-93 -108t-154.5 -43.5zM82 514q0 244 146.5 397.5
t374.5 153.5q87 0 167.5 -23.5t149.5 -71.5t120.5 -115t80.5 -159.5t29 -199.5q0 -126 -42 -225.5t-116 -162.5t-170 -95.5t-207 -32.5q-241 0 -387 149.5t-146 384.5zM571 881q-50 0 -83.5 -54.5t-33.5 -180.5q0 -194 56 -322q57 -124 150 -124q58 0 96.5 48.5t38.5 154.5
q0 76 -19 167.5t-49 160.5q-32 73 -73 111.5t-83 38.5z" />
    <glyph glyph-name="Ohungarumlaut" unicode="&#x150;" horiz-adv-x="1495" 
d="M534 1586q52 63 99 147q23 41 41.5 66t52 47t73.5 22q59 0 92 -35t33 -85q0 -80 -103 -160q-60 -45 -137.5 -79t-126.5 -34q-25 0 -42 10.5t-17 28.5q0 16 6 29t29 43zM903 1583q68 80 110 150q37 62 77 98.5t99 36.5q57 0 89 -34t32 -83q0 -83 -109 -165
q-59 -44 -140.5 -77.5t-134.5 -33.5q-26 0 -43.5 10.5t-17.5 31.5q0 12 6 22.5t32 43.5zM94 684q0 218 87 387t246 262.5t365 93.5q144 0 271 -50.5t224 -145t153.5 -241t56.5 -326.5q0 -136 -35 -250.5t-98 -196.5t-149.5 -139t-190 -85t-220.5 -28q-165 0 -299 53.5
t-224 149t-138.5 228t-48.5 288.5zM735 1218q-75 0 -129.5 -88.5t-54.5 -278.5q0 -266 87 -463q41 -89 101 -138t127 -49q90 0 148 76t58 236q0 114 -27 246t-73 233q-44 105 -108.5 165.5t-128.5 60.5z" />
    <glyph glyph-name="ohungarumlaut" unicode="&#x151;" horiz-adv-x="1150" 
d="M382 1256q25 67 49 157q9 34 17 55.5t23.5 48.5t39.5 41t57 14q57 0 86 -34.5t29 -90.5q0 -66 -54 -135q-43 -57 -111.5 -109t-108.5 -52q-21 0 -32.5 11.5t-11.5 25.5q0 19 17 68zM700 1249q36 73 71 164q13 33 23.5 54.5t28.5 48.5t44 40.5t59 13.5q52 0 80 -33.5
t28 -80.5q0 -70 -67 -147q-50 -58 -123 -108t-120 -50t-47 40q0 10 23 58zM82 514q0 244 146.5 397.5t374.5 153.5q87 0 167.5 -23.5t149.5 -71.5t120.5 -115t80.5 -159.5t29 -199.5q0 -126 -42 -225.5t-116 -162.5t-170 -95.5t-207 -32.5q-241 0 -387 149.5t-146 384.5z
M571 881q-50 0 -83.5 -54.5t-33.5 -180.5q0 -194 56 -322q57 -124 150 -124q58 0 96.5 48.5t38.5 154.5q0 76 -19 167.5t-49 160.5q-32 73 -73 111.5t-83 38.5z" />
    <glyph glyph-name="OE" unicode="&#x152;" horiz-adv-x="1961" 
d="M1347 1393q99 0 226.5 3t164.5 3q67 0 93 -22.5t38 -101.5q9 -52 38 -204q14 -61 14 -90q0 -35 -18.5 -52.5t-45.5 -17.5q-30 0 -50.5 22.5t-44.5 67.5q-46 84 -79.5 121.5t-89.5 56.5t-154 19q-83 0 -108.5 -27t-25.5 -119v-87q0 -71 11 -93.5t36 -22.5q35 0 61.5 7
t44.5 22.5t28 28t24 35t21 32.5q23 26 50 26q33 0 47 -32t14 -109v-314q0 -89 -56 -89q-21 0 -37.5 12t-24.5 25.5t-17 34.5q-16 33 -24.5 48t-25.5 33t-40 25t-57 7q-30 0 -42.5 -25t-12.5 -90v-132q0 -61 9 -99t31 -56.5t48.5 -24.5t71.5 -6q97 0 162 26t103.5 70.5
t79.5 124.5q40 73 81 73q57 0 57 -91q0 -27 -17 -145.5t-23 -187.5q-4 -54 -24.5 -69t-83.5 -15q-39 0 -190.5 3t-225.5 3q-99 0 -290.5 -8t-264.5 -8q-116 0 -221.5 25t-200 80.5t-163.5 136t-109.5 199.5t-40.5 263q0 327 182 523t485 196q82 0 268.5 -7t317.5 -7z
M927 416v576q0 118 -42 168.5t-106 50.5q-58 0 -102.5 -27.5t-71.5 -71t-44 -104t-23.5 -119.5t-6.5 -124q0 -154 33.5 -276.5t106 -200t173.5 -77.5q40 0 61.5 46.5t21.5 158.5z" />
    <glyph glyph-name="oe" unicode="&#x153;" horiz-adv-x="1739" 
d="M1629 547q-76 -39 -202 -62.5t-227 -29.5q-28 -3 -28 -21q0 -26 13.5 -55t40 -56.5t73 -45.5t104.5 -18q62 0 117 19.5t84.5 40t62.5 51.5q24 19 42 19q35 0 35 -64q0 -56 -30 -115.5t-84.5 -112.5t-142.5 -87t-191 -34q-185 0 -310 104q-25 20 -35 20q-12 0 -38 -20
q-55 -47 -137 -73.5t-164 -26.5q-240 0 -385 149.5t-145 384.5q0 244 146 397.5t373 153.5q191 0 332 -124q21 -16 30 -16q10 0 31 18q135 122 325 122q86 0 157 -25t116.5 -64t76.5 -89t44 -98t13 -93q0 -98 -97 -149zM1402 754q0 57 -33.5 94.5t-86.5 37.5
q-70 0 -114 -62.5t-44 -143.5q0 -70 45 -70q46 0 114 24t99 63q20 25 20 57zM570 881q-50 0 -83 -54.5t-33 -180.5q0 -194 56 -322q57 -124 148 -124q57 0 95 48.5t38 154.5q0 76 -19 167.5t-49 160.5q-32 73 -72 111.5t-81 38.5z" />
    <glyph glyph-name="Racute" unicode="&#x154;" horiz-adv-x="1469" 
d="M616 1593q66 59 134 148q43 57 87 90.5t100 33.5q60 0 95 -35t35 -83q0 -98 -132 -177q-68 -39 -154.5 -67t-140.5 -28q-28 0 -49 11t-21 33q0 18 7.5 31t38.5 43zM646 444v-84q0 -64 16.5 -105.5t46.5 -82.5q10 -14 32 -36.5t32.5 -39.5t10.5 -38q0 -31 -24 -47.5
t-63 -16.5q-35 0 -117 3t-120 3q-42 0 -126 -3t-110 -3q-43 0 -66 17.5t-23 46.5q0 25 16 46.5t36 37t40 48t26 76.5q14 94 14 470q0 247 -5 330q-5 62 -25 105.5t-40 62t-36.5 42.5t-16.5 53q0 70 80 70q65 0 144.5 -3t148.5 -3q57 0 182 4t187 4q105 0 189 -21.5t147 -66
t97 -116.5t34 -168q0 -237 -287 -342q-12 -7 -12 -14q0 -11 13 -18q97 -48 169.5 -132.5t138.5 -212.5q64 -124 114 -167q8 -8 24.5 -22t20.5 -19t9 -16.5t5 -26.5q0 -65 -70 -65q-22 0 -105 3t-109 3q-53 0 -131.5 -3t-88.5 -3q-42 0 -68 20.5t-26 50.5q0 18 12 48.5
t12 56.5q0 78 -57 192t-120 164q-41 30 -88 30q-63 0 -63 -112zM925 974q0 95 -56 155.5t-141 60.5q-23 0 -35.5 -3t-22.5 -11t-14 -26.5t-6 -44.5t-2 -71v-115q0 -77 19.5 -110.5t83.5 -33.5q78 0 126 52.5t48 146.5z" />
    <glyph glyph-name="racute" unicode="&#x155;" horiz-adv-x="984" 
d="M450 1249q31 64 70 164q13 33 23.5 54.5t28.5 48.5t44 40.5t59 13.5q52 0 80 -33.5t28 -80.5q0 -70 -67 -147q-50 -58 -123 -108t-120 -50t-47 40q0 8 24 58zM642 792q-48 0 -76 -55t-28 -130v-272q0 -69 14 -105t57 -73q10 -9 38.5 -24.5t43.5 -31t15 -39.5
q0 -68 -86 -68q-25 0 -105.5 3t-145.5 3q-37 0 -108 -3t-117 -3q-70 0 -70 64q0 17 7 34t15 26.5t20.5 22.5t16.5 17q56 69 56 177v373q0 73 -66 109q-41 25 -41 60q0 21 15 37t32 24t56 23t62 25q36 16 70.5 33.5t49 25t29.5 12.5t29 5q34 0 54 -17.5t32 -61.5
q13 -63 31 -63q7 0 31 22.5t54 50t80.5 50t103.5 22.5q91 0 149.5 -58.5t58.5 -184.5q0 -96 -62.5 -176t-146.5 -80q-27 0 -44 6.5t-27.5 25.5t-15 34t-12.5 50q-1 6 -2 9q-22 101 -67 101z" />
    <glyph glyph-name="uni0156" unicode="&#x156;" horiz-adv-x="1469" 
d="M646 444v-84q0 -64 16.5 -105.5t46.5 -82.5q10 -14 32 -36.5t32.5 -39.5t10.5 -38q0 -31 -24 -47.5t-63 -16.5q-35 0 -117 3t-120 3q-42 0 -126 -3t-110 -3q-43 0 -66 17.5t-23 46.5q0 25 16 46.5t36 37t40 48t26 76.5q14 94 14 470q0 247 -5 330q-5 62 -25 105.5t-40 62
t-36.5 42.5t-16.5 53q0 70 80 70q65 0 144.5 -3t148.5 -3q57 0 182 4t187 4q105 0 189 -21.5t147 -66t97 -116.5t34 -168q0 -237 -287 -342q-12 -7 -12 -14q0 -11 13 -18q97 -48 169.5 -132.5t138.5 -212.5q64 -124 114 -167q8 -8 24.5 -22t20.5 -19t9 -16.5t5 -26.5
q0 -65 -70 -65q-22 0 -105 3t-109 3q-53 0 -131.5 -3t-88.5 -3q-42 0 -68 20.5t-26 50.5q0 18 12 48.5t12 56.5q0 78 -57 192t-120 164q-41 30 -88 30q-63 0 -63 -112zM925 974q0 95 -56 155.5t-141 60.5q-23 0 -35.5 -3t-22.5 -11t-14 -26.5t-6 -44.5t-2 -71v-115
q0 -77 19.5 -110.5t83.5 -33.5q78 0 126 52.5t48 146.5zM749 -503q-17 0 -26.5 9.5t-9.5 23.5q0 12 22 48.5t22 70.5q0 11 -19 29.5t-38 49t-19 70.5q0 57 40 90t95 33q71 0 112.5 -42t41.5 -116q0 -92 -75.5 -179t-145.5 -87z" />
    <glyph glyph-name="uni0157" unicode="&#x157;" horiz-adv-x="984" 
d="M642 792q-48 0 -76 -55t-28 -130v-272q0 -69 14 -105t57 -73q10 -9 38.5 -24.5t43.5 -31t15 -39.5q0 -68 -86 -68q-25 0 -105.5 3t-145.5 3q-37 0 -108 -3t-117 -3q-70 0 -70 64q0 17 7 34t15 26.5t20.5 22.5t16.5 17q56 69 56 177v373q0 73 -66 109q-41 25 -41 60
q0 21 15 37t32 24t56 23t62 25q36 16 70.5 33.5t49 25t29.5 12.5t29 5q34 0 54 -17.5t32 -61.5q13 -63 31 -63q7 0 31 22.5t54 50t80.5 50t103.5 22.5q91 0 149.5 -58.5t58.5 -184.5q0 -96 -62.5 -176t-146.5 -80q-27 0 -44 6.5t-27.5 25.5t-15 34t-12.5 50q-1 6 -2 9
q-22 101 -67 101zM290 -503q-17 0 -26.5 9.5t-9.5 23.5q0 12 22 48.5t22 70.5q0 11 -19 29.5t-38 49t-19 70.5q0 57 40 90t95 33q71 0 112.5 -42t41.5 -116q0 -92 -75.5 -179t-145.5 -87z" />
    <glyph glyph-name="Rcaron" unicode="&#x158;" horiz-adv-x="1469" 
d="M482 1865q72 0 208 -78q56 -29 66 -29q13 0 60 28q127 79 203 79q22 0 36 -11t14 -31q0 -21 -36 -62q-49 -54 -143 -184q-41 -55 -69.5 -78.5t-70.5 -23.5q-40 0 -68.5 24t-67.5 78q-70 96 -148 182q-35 38 -35 63q0 20 14.5 31.5t36.5 11.5zM646 444v-84
q0 -64 16.5 -105.5t46.5 -82.5q10 -14 32 -36.5t32.5 -39.5t10.5 -38q0 -31 -24 -47.5t-63 -16.5q-35 0 -117 3t-120 3q-42 0 -126 -3t-110 -3q-43 0 -66 17.5t-23 46.5q0 25 16 46.5t36 37t40 48t26 76.5q14 94 14 470q0 247 -5 330q-5 62 -25 105.5t-40 62t-36.5 42.5
t-16.5 53q0 70 80 70q65 0 144.5 -3t148.5 -3q57 0 182 4t187 4q105 0 189 -21.5t147 -66t97 -116.5t34 -168q0 -237 -287 -342q-12 -7 -12 -14q0 -11 13 -18q97 -48 169.5 -132.5t138.5 -212.5q64 -124 114 -167q8 -8 24.5 -22t20.5 -19t9 -16.5t5 -26.5q0 -65 -70 -65
q-22 0 -105 3t-109 3q-53 0 -131.5 -3t-88.5 -3q-42 0 -68 20.5t-26 50.5q0 18 12 48.5t12 56.5q0 78 -57 192t-120 164q-41 30 -88 30q-63 0 -63 -112zM925 974q0 95 -56 155.5t-141 60.5q-23 0 -35.5 -3t-22.5 -11t-14 -26.5t-6 -44.5t-2 -71v-115q0 -77 19.5 -110.5
t83.5 -33.5q78 0 126 52.5t48 146.5z" />
    <glyph glyph-name="rcaron" unicode="&#x159;" horiz-adv-x="984" 
d="M302 1551q64 0 175 -101q9 -7 21.5 -20t20.5 -19.5t12 -6.5q3 0 7 2.5t10 7.5t10.5 9.5t13.5 13t13 12.5q106 102 169 102q40 0 40 -35q0 -18 -29 -58q-52 -70 -123 -203q-3 -4 -13 -22.5t-13 -23.5t-12.5 -18.5t-15.5 -18t-16 -11.5t-21 -9.5t-24 -2.5q-11 0 -21 3
t-17.5 5.5t-16 11t-12.5 12t-12 17t-10 17t-11 20.5t-11 20q-50 98 -126 203q-29 40 -29 58q0 35 41 35zM642 792q-48 0 -76 -55t-28 -130v-272q0 -69 14 -105t57 -73q10 -9 38.5 -24.5t43.5 -31t15 -39.5q0 -68 -86 -68q-25 0 -105.5 3t-145.5 3q-37 0 -108 -3t-117 -3
q-70 0 -70 64q0 17 7 34t15 26.5t20.5 22.5t16.5 17q56 69 56 177v373q0 73 -66 109q-41 25 -41 60q0 21 15 37t32 24t56 23t62 25q36 16 70.5 33.5t49 25t29.5 12.5t29 5q34 0 54 -17.5t32 -61.5q13 -63 31 -63q7 0 31 22.5t54 50t80.5 50t103.5 22.5q91 0 149.5 -58.5
t58.5 -184.5q0 -96 -62.5 -176t-146.5 -80q-27 0 -44 6.5t-27.5 25.5t-15 34t-12.5 50q-1 6 -2 9q-22 101 -67 101z" />
    <glyph glyph-name="Sacute" unicode="&#x15a;" horiz-adv-x="1257" 
d="M570 1593q63 56 133 148q43 57 87.5 90.5t100.5 33.5q60 0 95 -35t35 -83q0 -98 -132 -177q-68 -39 -154.5 -67t-140.5 -28q-28 0 -49 11t-21 33q0 18 7.5 31t38.5 43zM698 1220q-64 0 -110 -33t-46 -91q0 -20 8 -37.5t29.5 -34.5t39 -28.5t56.5 -28t61 -25.5t73.5 -27.5
t74.5 -27.5q70 -26 123.5 -51.5t113 -66t98 -86.5t64 -112t25.5 -143q0 -220 -149 -341.5t-394 -121.5q-80 0 -208.5 21t-159.5 21q-20 0 -56 -8t-52 -8q-18 0 -31 4t-22 15.5t-14.5 23.5t-10 35.5t-7 43t-7 55.5t-8.5 64q-5 36 -11 73t-8.5 53t-4 32.5t-1.5 30.5
q0 40 15 61.5t38 21.5q13 0 26.5 -6.5t28.5 -21t26 -26.5t30 -34.5t29 -33.5q73 -81 175 -132.5t214 -51.5q67 0 110 32.5t43 87.5q0 18 -5 34.5t-16.5 31t-23 26t-33 23.5t-38 20.5t-45.5 20t-47 18.5t-52.5 19t-53.5 19q-55 20 -96.5 39t-91 47t-85 61.5t-66 77t-46.5 100
t-16 122.5q0 204 130 327t354 123q76 0 169 -21t116 -21q24 0 62.5 11.5t61.5 11.5q19 0 34 -4.5t25.5 -16.5t17 -22.5t12.5 -33.5t9 -37.5t9 -46t9 -49.5q13 -62 25 -113.5t16.5 -70.5t4.5 -33q0 -34 -17.5 -53t-43.5 -19q-28 0 -48.5 17t-50.5 59t-47 61
q-156 174 -334 174z" />
    <glyph glyph-name="sacute" unicode="&#x15b;" horiz-adv-x="973" 
d="M435 1249q36 73 71 164q13 34 23 55t28.5 48t44 40.5t58.5 13.5q52 0 80.5 -33.5t28.5 -80.5q0 -68 -68 -147q-50 -58 -122.5 -108t-119.5 -50t-47 40q0 10 23 58zM558 1069q95 0 186 -19t128 -57q65 -65 65 -200q0 -42 -21 -66.5t-52 -24.5q-24 0 -45 16t-51 49
q-63 65 -92 86q-63 45 -134 45q-49 0 -75 -23t-26 -59q0 -12 2.5 -21.5t9 -18t12.5 -15.5t19.5 -14.5t24 -12.5t31.5 -13t35.5 -13.5t42.5 -15.5t47 -17q55 -20 94.5 -38t84.5 -49t73 -66.5t47 -88.5t19 -118q0 -153 -124 -249t-327 -96q-95 0 -198.5 26t-157.5 77
q-28 25 -45.5 81.5t-17.5 130.5q0 42 19 66.5t56 24.5q27 0 70 -45q4 -4 25 -27t30 -32.5t30.5 -29.5t38.5 -29.5t40.5 -21.5t49 -17t53.5 -5q46 0 72 23.5t26 61.5q0 23 -12.5 41t-38.5 33t-53 26.5t-71.5 30.5t-77.5 36q-44 22 -69 36.5t-61.5 43t-56 57t-34.5 74
t-15 99.5q0 148 123.5 243t300.5 95z" />
    </font>
</defs>
</svg>
